M48
; DRILL file KiCad 10.0.6 date 2026-09-27T16:35:26
; FORMAT={-:-/ absolute / metric / decimal}
; #@! TF.CreationDate,2026-09-27T16:35:26-04:00
; #@! TF.GenerationSoftware,Kicad,Pcbnew,10.0.6
; #@! TF.FileFunction,MixedPlating,1,4
FMAT,2
METRIC
; #@! TA.AperFunction,Plated,PTH,ViaDrill
T1C0.250
; #@! TA.AperFunction,Plated,PTH,ViaDrill
T2C0.300
%
G90
G05
T1
X22.175Y-48.211
X23.2Y-31.0
X23.2Y-35.0
X23.2Y-39.0
X23.2Y-43.0
X23.336Y-32.95
X23.785Y-36.875
X24.0Y-48.4
X26.5Y-41.0
X27.2Y-29.0
X27.2Y-33.0
X27.2Y-41.0
X27.2Y-45.0
X27.2Y-49.0
X27.2Y-53.0
X27.8Y-37.0
X28.8Y-44.0
X29.6Y-35.6
X29.7Y-32.4
X30.4Y-32.4
X30.4Y-35.6
X31.2Y-27.0
X31.2Y-31.0
X31.2Y-35.0
X31.2Y-39.0
X31.2Y-43.0
X31.2Y-48.0
X31.2Y-51.0
X31.7Y-30.4
X31.8Y-38.4
X32.0Y-36.3
X32.0Y-44.4
X32.05Y-29.85
X32.05Y-34.0
X32.1Y-42.6
X33.6Y-35.6
X35.2Y-29.0
X35.2Y-33.0
X35.2Y-37.0
X35.2Y-41.0
X35.2Y-45.0
X35.2Y-49.0
X35.2Y-53.0
X35.8Y-33.0
X36.1Y-34.4
X36.1Y-43.1
X36.8Y-44.6
X37.5Y-29.0
X37.5Y-42.9
X37.6Y-33.5
X37.7Y-34.4
X38.0Y-31.0
X38.0Y-35.0
X38.0Y-40.0
X38.0Y-41.0
X38.0Y-42.0
X38.0Y-43.0
X38.2Y-45.2
X38.4Y-48.0
X38.564Y-30.075
X39.2Y-27.0
X39.2Y-43.0
X39.2Y-51.0
X39.6Y-41.0
X39.9Y-36.6
X39.9Y-38.9
X40.0Y-27.7
X40.0Y-37.6
X41.2Y-46.5
X41.5Y-32.6
X41.6Y-31.6
X41.6Y-36.3
X41.725Y-49.736
X41.9Y-35.6
X42.0Y-34.4
X42.2Y-33.0
X42.3Y-31.7
X42.3Y-48.2
X42.4Y-33.5
X42.4Y-46.5
X42.5Y-45.5
X43.0Y-46.2
X43.2Y-29.0
X43.2Y-49.6
X43.2Y-53.0
X43.875Y-49.736
X44.0Y-31.7
X44.2Y-46.8
X44.3Y-33.3
X44.8Y-33.5
X45.1Y-45.9
X45.2Y-44.0
X45.5Y-37.2
X45.5Y-42.0
X45.5Y-49.6
X45.6Y-45.3
X45.725Y-29.764
X46.0Y-43.0
X46.0Y-44.1
X46.2Y-37.2
X46.6Y-30.4
X46.6Y-48.9
X47.0Y-31.3
X47.2Y-46.5
X47.2Y-27.0
X47.2Y-33.5
X47.2Y-39.0
X47.2Y-51.0
X47.564Y-30.075
X47.8Y-35.0
X47.8Y-44.2
X47.9Y-38.3
X47.9Y-47.0
X49.3Y-42.1
X49.4Y-46.6
X50.0Y-34.6
X50.0Y-35.8
X50.0Y-38.2
X50.0Y-39.4
X50.0Y-41.8
X50.5Y-31.0
X51.0Y-37.7
X51.1Y-39.9
X51.1Y-43.0
X51.2Y-29.0
X51.2Y-33.0
X51.2Y-37.0
X51.2Y-41.0
X51.2Y-45.0
X51.2Y-49.0
X51.2Y-53.0
X51.5Y-33.6
X51.8Y-38.7
X51.9Y-47.0
X52.0Y-39.4
X52.1Y-34.3
X52.1Y-37.6
X53.5Y-30.4
X53.5Y-37.6
X53.5Y-42.7
X53.6Y-36.3
X53.775Y-39.264
X53.8Y-31.9
X54.0Y-44.4
X54.0Y-51.6
X54.6Y-38.2
X54.8Y-34.4
X55.2Y-27.0
X55.2Y-31.0
X55.2Y-35.0
X55.2Y-39.0
X55.2Y-43.0
X55.2Y-47.0
X55.2Y-51.0
X55.4Y-37.6
X55.8Y-42.0
X56.0Y-32.4
X56.8Y-46.3
X57.8Y-48.4
X58.2Y-42.0
X59.2Y-33.0
X59.2Y-37.0
X59.2Y-41.0
X59.2Y-45.0
X59.2Y-49.0
X60.5Y-50.7
X63.2Y-31.0
X63.2Y-35.0
X63.2Y-37.732
X63.2Y-39.0
X63.2Y-41.732
X63.2Y-43.0
X63.2Y-47.0
X67.2Y-33.0
X67.2Y-37.0
X67.2Y-41.0
X67.2Y-45.0
X67.2Y-49.0
X68.1Y-46.4
X69.3Y-49.6
X71.2Y-31.0
X71.2Y-35.0
X71.2Y-39.0
X71.2Y-43.0
X71.2Y-47.0
X75.2Y-33.0
X75.2Y-37.0
X75.2Y-41.0
X75.2Y-45.0
X75.2Y-49.0
X76.011Y-40.425
X79.2Y-31.0
X79.2Y-35.0
X79.2Y-39.0
X79.2Y-43.0
X79.2Y-47.0
X79.3Y-45.732
X80.4Y-47.6
X83.2Y-33.0
X83.2Y-37.0
X83.2Y-41.0
X83.2Y-45.0
X83.2Y-49.0
X87.2Y-31.0
X87.2Y-35.0
X87.2Y-39.0
X87.2Y-43.0
X87.2Y-47.0
X88.8Y-48.0
X91.2Y-33.0
X91.2Y-37.0
X91.2Y-41.0
X91.2Y-45.0
X91.2Y-49.0
X95.2Y-35.0
X95.2Y-39.0
X95.2Y-43.0
X96.2Y-44.1
X99.2Y-37.0
X99.2Y-41.0
X99.2Y-45.0
X127.2Y-39.0
X128.1Y-40.0
T2
X42.2Y-38.9
X42.2Y-41.1
X43.8Y-38.9
X43.8Y-41.1
M30
