%TF.GenerationSoftware,KiCad,Pcbnew,10.0.6*%
%TF.CreationDate,2026-09-27T16:35:26-04:00*%
%TF.ProjectId,upper-petal,75707065-722d-4706-9574-616c2e6b6963,rev?*%
%TF.SameCoordinates,Original*%
%TF.FileFunction,Soldermask,Top*%
%TF.FilePolarity,Negative*%
%FSLAX46Y46*%
G04 Gerber Fmt 4.6, Leading zero omitted, Abs format (unit mm)*
G04 Created by KiCad (PCBNEW 10.0.6) date 2026-09-27 16:35:26*
%MOMM*%
%LPD*%
G01*
G04 APERTURE LIST*
G04 Aperture macros list*
%AMRoundRect*
0 Rectangle with rounded corners*
0 $1 Rounding radius*
0 $2 $3 $4 $5 $6 $7 $8 $9 X,Y pos of 4 corners*
0 Add a 4 corners polygon primitive as box body*
4,1,4,$2,$3,$4,$5,$6,$7,$8,$9,$2,$3,0*
0 Add four circle primitives for the rounded corners*
1,1,$1+$1,$2,$3*
1,1,$1+$1,$4,$5*
1,1,$1+$1,$6,$7*
1,1,$1+$1,$8,$9*
0 Add four rect primitives between the rounded corners*
20,1,$1+$1,$2,$3,$4,$5,0*
20,1,$1+$1,$4,$5,$6,$7,0*
20,1,$1+$1,$6,$7,$8,$9,0*
20,1,$1+$1,$8,$9,$2,$3,0*%
G04 Aperture macros list end*
%ADD10RoundRect,0.160000X-0.240000X-0.240000X0.240000X-0.240000X0.240000X0.240000X-0.240000X0.240000X0*%
G04 APERTURE END LIST*
D10*
%TO.C,D53*%
X51200000Y-32000000D03*
X52800000Y-32000000D03*
%TD*%
%TO.C,D17*%
X31200000Y-36000000D03*
X32800000Y-36000000D03*
%TD*%
%TO.C,D84*%
X75200000Y-40000000D03*
X76800000Y-40000000D03*
%TD*%
%TO.C,D8*%
X27200000Y-44000000D03*
X28800000Y-44000000D03*
%TD*%
%TO.C,D15*%
X31200000Y-44000000D03*
X32800000Y-44000000D03*
%TD*%
%TO.C,D34*%
X43200000Y-52000000D03*
X44800000Y-52000000D03*
%TD*%
%TO.C,D61*%
X55200000Y-28000000D03*
X56800000Y-28000000D03*
%TD*%
%TO.C,D102*%
X91200000Y-48000000D03*
X92800000Y-48000000D03*
%TD*%
%TO.C,D24*%
X35200000Y-36000000D03*
X36800000Y-36000000D03*
%TD*%
%TO.C,D43*%
X47200000Y-44000000D03*
X48800000Y-44000000D03*
%TD*%
%TO.C,D81*%
X71200000Y-32000000D03*
X72800000Y-32000000D03*
%TD*%
%TO.C,D73*%
X67200000Y-44000000D03*
X68800000Y-44000000D03*
%TD*%
%TO.C,D16*%
X31200000Y-40000000D03*
X32800000Y-40000000D03*
%TD*%
%TO.C,D99*%
X87200000Y-40000000D03*
X88800000Y-40000000D03*
%TD*%
%TO.C,D76*%
X67200000Y-32000000D03*
X68800000Y-32000000D03*
%TD*%
%TO.C,D97*%
X87200000Y-48000000D03*
X88800000Y-48000000D03*
%TD*%
%TO.C,D83*%
X75200000Y-44000000D03*
X76800000Y-44000000D03*
%TD*%
%TO.C,D63*%
X59200000Y-44000000D03*
X60800000Y-44000000D03*
%TD*%
%TO.C,D107*%
X95200000Y-44000000D03*
X96800000Y-44000000D03*
%TD*%
%TO.C,D7*%
X27200000Y-48000000D03*
X28800000Y-48000000D03*
%TD*%
%TO.C,D18*%
X31200000Y-32000000D03*
X32800000Y-32000000D03*
%TD*%
%TO.C,D71*%
X63200000Y-32000000D03*
X64800000Y-32000000D03*
%TD*%
%TO.C,D14*%
X31200000Y-48000000D03*
X32800000Y-48000000D03*
%TD*%
%TO.C,D82*%
X75200000Y-48000000D03*
X76800000Y-48000000D03*
%TD*%
%TO.C,D36*%
X43200000Y-44000000D03*
X44800000Y-44000000D03*
%TD*%
%TO.C,D40*%
X43200000Y-28000000D03*
X44800000Y-28000000D03*
%TD*%
%TO.C,D50*%
X51200000Y-44000000D03*
X52800000Y-44000000D03*
%TD*%
%TO.C,D12*%
X27200000Y-28000000D03*
X28800000Y-28000000D03*
%TD*%
%TO.C,D52*%
X51200000Y-36000000D03*
X52800000Y-36000000D03*
%TD*%
%TO.C,D2*%
X23200000Y-44000000D03*
X24800000Y-44000000D03*
%TD*%
%TO.C,D9*%
X27200000Y-40000000D03*
X28800000Y-40000000D03*
%TD*%
%TO.C,D98*%
X87200000Y-44000000D03*
X88800000Y-44000000D03*
%TD*%
%TO.C,D20*%
X35200000Y-52000000D03*
X36800000Y-52000000D03*
%TD*%
%TO.C,D109*%
X95200000Y-36000000D03*
X96800000Y-36000000D03*
%TD*%
%TO.C,D111*%
X99200000Y-40000000D03*
X100800000Y-40000000D03*
%TD*%
%TO.C,D21*%
X35200000Y-48000000D03*
X36800000Y-48000000D03*
%TD*%
%TO.C,D66*%
X59200000Y-32000000D03*
X60800000Y-32000000D03*
%TD*%
%TO.C,D23*%
X35200000Y-40000000D03*
X36800000Y-40000000D03*
%TD*%
%TO.C,D59*%
X55200000Y-36000000D03*
X56800000Y-36000000D03*
%TD*%
%TO.C,D41*%
X47200000Y-52000000D03*
X48800000Y-52000000D03*
%TD*%
%TO.C,D112*%
X99200000Y-36000000D03*
X100800000Y-36000000D03*
%TD*%
%TO.C,D47*%
X47200000Y-28000000D03*
X48800000Y-28000000D03*
%TD*%
%TO.C,D86*%
X75200000Y-32000000D03*
X76800000Y-32000000D03*
%TD*%
%TO.C,D110*%
X99200000Y-44000000D03*
X100800000Y-44000000D03*
%TD*%
%TO.C,D39*%
X43200000Y-32000000D03*
X44800000Y-32000000D03*
%TD*%
%TO.C,D10*%
X27200000Y-36000000D03*
X28800000Y-36000000D03*
%TD*%
%TO.C,D80*%
X71200000Y-36000000D03*
X72800000Y-36000000D03*
%TD*%
%TO.C,D28*%
X39200000Y-48000000D03*
X40800000Y-48000000D03*
%TD*%
%TO.C,D108*%
X95200000Y-40000000D03*
X96800000Y-40000000D03*
%TD*%
%TO.C,D1*%
X23200000Y-48000000D03*
X24800000Y-48000000D03*
%TD*%
%TO.C,D77*%
X71200000Y-48000000D03*
X72800000Y-48000000D03*
%TD*%
%TO.C,D75*%
X67200000Y-36000000D03*
X68800000Y-36000000D03*
%TD*%
%TO.C,D51*%
X51200000Y-40000000D03*
X52800000Y-40000000D03*
%TD*%
%TO.C,D3*%
X23200000Y-40000000D03*
X24800000Y-40000000D03*
%TD*%
%TO.C,D30*%
X39200000Y-40000000D03*
X40800000Y-40000000D03*
%TD*%
%TO.C,D44*%
X47200000Y-40000000D03*
X48800000Y-40000000D03*
%TD*%
%TO.C,D105*%
X91200000Y-36000000D03*
X92800000Y-36000000D03*
%TD*%
%TO.C,D6*%
X27200000Y-52000000D03*
X28800000Y-52000000D03*
%TD*%
%TO.C,D101*%
X87200000Y-32000000D03*
X88800000Y-32000000D03*
%TD*%
%TO.C,D37*%
X43200000Y-40000000D03*
X44800000Y-40000000D03*
%TD*%
%TO.C,D67*%
X63200000Y-48000000D03*
X64800000Y-48000000D03*
%TD*%
%TO.C,D95*%
X83200000Y-36000000D03*
X84800000Y-36000000D03*
%TD*%
%TO.C,D62*%
X59200000Y-48000000D03*
X60800000Y-48000000D03*
%TD*%
%TO.C,D45*%
X47200000Y-36000000D03*
X48800000Y-36000000D03*
%TD*%
%TO.C,D70*%
X63200000Y-36000000D03*
X64800000Y-36000000D03*
%TD*%
%TO.C,D96*%
X83200000Y-32000000D03*
X84800000Y-32000000D03*
%TD*%
%TO.C,D69*%
X63200000Y-40000000D03*
X64800000Y-40000000D03*
%TD*%
%TO.C,D42*%
X47200000Y-48000000D03*
X48800000Y-48000000D03*
%TD*%
%TO.C,D4*%
X23200000Y-36000000D03*
X24800000Y-36000000D03*
%TD*%
%TO.C,D26*%
X35200000Y-28000000D03*
X36800000Y-28000000D03*
%TD*%
%TO.C,D57*%
X55200000Y-44000000D03*
X56800000Y-44000000D03*
%TD*%
%TO.C,D79*%
X71200000Y-40000000D03*
X72800000Y-40000000D03*
%TD*%
%TO.C,D92*%
X83200000Y-48000000D03*
X84800000Y-48000000D03*
%TD*%
%TO.C,D5*%
X23200000Y-32000000D03*
X24800000Y-32000000D03*
%TD*%
%TO.C,D60*%
X55200000Y-32000000D03*
X56800000Y-32000000D03*
%TD*%
%TO.C,D90*%
X79200000Y-36000000D03*
X80800000Y-36000000D03*
%TD*%
%TO.C,D35*%
X43200000Y-48000000D03*
X44800000Y-48000000D03*
%TD*%
%TO.C,D64*%
X59200000Y-40000000D03*
X60800000Y-40000000D03*
%TD*%
%TO.C,D25*%
X35200000Y-32000000D03*
X36800000Y-32000000D03*
%TD*%
%TO.C,D87*%
X79200000Y-48000000D03*
X80800000Y-48000000D03*
%TD*%
%TO.C,D54*%
X51200000Y-28000000D03*
X52800000Y-28000000D03*
%TD*%
%TO.C,D22*%
X35200000Y-44000000D03*
X36800000Y-44000000D03*
%TD*%
%TO.C,D68*%
X63200000Y-44000000D03*
X64800000Y-44000000D03*
%TD*%
%TO.C,D32*%
X39200000Y-32000000D03*
X40800000Y-32000000D03*
%TD*%
%TO.C,D94*%
X83200000Y-40000000D03*
X84800000Y-40000000D03*
%TD*%
%TO.C,D93*%
X83200000Y-44000000D03*
X84800000Y-44000000D03*
%TD*%
%TO.C,D100*%
X87200000Y-36000000D03*
X88800000Y-36000000D03*
%TD*%
%TO.C,D103*%
X91200000Y-44000000D03*
X92800000Y-44000000D03*
%TD*%
%TO.C,D13*%
X31200000Y-52000000D03*
X32800000Y-52000000D03*
%TD*%
%TO.C,D65*%
X59200000Y-36000000D03*
X60800000Y-36000000D03*
%TD*%
%TO.C,D91*%
X79200000Y-32000000D03*
X80800000Y-32000000D03*
%TD*%
%TO.C,D55*%
X55200000Y-52000000D03*
X56800000Y-52000000D03*
%TD*%
%TO.C,D33*%
X39200000Y-28000000D03*
X40800000Y-28000000D03*
%TD*%
%TO.C,D11*%
X27200000Y-32000000D03*
X28800000Y-32000000D03*
%TD*%
%TO.C,D89*%
X79200000Y-40000000D03*
X80800000Y-40000000D03*
%TD*%
%TO.C,D29*%
X39200000Y-44000000D03*
X40800000Y-44000000D03*
%TD*%
%TO.C,D49*%
X51200000Y-48000000D03*
X52800000Y-48000000D03*
%TD*%
%TO.C,D46*%
X47200000Y-32000000D03*
X48800000Y-32000000D03*
%TD*%
%TO.C,D38*%
X43200000Y-36000000D03*
X44800000Y-36000000D03*
%TD*%
%TO.C,D27*%
X39200000Y-52000000D03*
X40800000Y-52000000D03*
%TD*%
%TO.C,D113*%
X127200000Y-40000000D03*
X128800000Y-40000000D03*
%TD*%
%TO.C,D78*%
X71200000Y-44000000D03*
X72800000Y-44000000D03*
%TD*%
%TO.C,D72*%
X67200000Y-48000000D03*
X68800000Y-48000000D03*
%TD*%
%TO.C,D19*%
X31200000Y-28000000D03*
X32800000Y-28000000D03*
%TD*%
%TO.C,D104*%
X91200000Y-40000000D03*
X92800000Y-40000000D03*
%TD*%
%TO.C,D48*%
X51200000Y-52000000D03*
X52800000Y-52000000D03*
%TD*%
%TO.C,D58*%
X55200000Y-40000000D03*
X56800000Y-40000000D03*
%TD*%
%TO.C,D56*%
X55200000Y-48000000D03*
X56800000Y-48000000D03*
%TD*%
%TO.C,D88*%
X79200000Y-44000000D03*
X80800000Y-44000000D03*
%TD*%
%TO.C,D31*%
X39200000Y-36000000D03*
X40800000Y-36000000D03*
%TD*%
%TO.C,D106*%
X91200000Y-32000000D03*
X92800000Y-32000000D03*
%TD*%
%TO.C,D74*%
X67200000Y-40000000D03*
X68800000Y-40000000D03*
%TD*%
%TO.C,D85*%
X75200000Y-36000000D03*
X76800000Y-36000000D03*
%TD*%
M02*
