%TF.GenerationSoftware,KiCad,Pcbnew,10.0.6*%
%TF.CreationDate,2026-09-27T16:35:26-04:00*%
%TF.ProjectId,upper-petal,75707065-722d-4706-9574-616c2e6b6963,rev?*%
%TF.SameCoordinates,Original*%
%TF.FileFunction,Copper,L3,Inr*%
%TF.FilePolarity,Positive*%
%FSLAX46Y46*%
G04 Gerber Fmt 4.6, Leading zero omitted, Abs format (unit mm)*
G04 Created by KiCad (PCBNEW 10.0.6) date 2026-09-27 16:35:26*
%MOMM*%
%LPD*%
G01*
G04 APERTURE LIST*
%TA.AperFunction,ViaPad*%
%ADD10C,0.500000*%
%TD*%
%TA.AperFunction,ViaPad*%
%ADD11C,0.600000*%
%TD*%
G04 APERTURE END LIST*
D10*
%TO.N,CS12*%
X27200000Y-33000000D03*
X35200000Y-33000000D03*
X75200000Y-33000000D03*
X59200000Y-33000000D03*
X67200000Y-33000000D03*
X91200000Y-33000000D03*
X41500000Y-32600000D03*
X35800000Y-33000000D03*
X83200000Y-33000000D03*
X51200000Y-33000000D03*
%TO.N,SW3*%
X45600000Y-45300000D03*
X49300000Y-42100000D03*
%TO.N,CS4*%
X71200000Y-35000000D03*
X79200000Y-35000000D03*
X63200000Y-35000000D03*
X31200000Y-35000000D03*
X87200000Y-35000000D03*
X47800000Y-35000000D03*
X50000000Y-39400000D03*
X55200000Y-35000000D03*
X95200000Y-35000000D03*
X38000000Y-35000000D03*
X23200000Y-35000000D03*
%TO.N,SW1*%
X46000000Y-44100000D03*
X36800000Y-44600000D03*
%TO.N,CS10*%
X99200000Y-41000000D03*
X39600000Y-41000000D03*
X51100000Y-39900000D03*
X75200000Y-41000000D03*
X59200000Y-41000000D03*
X51200000Y-41000000D03*
X91200000Y-41000000D03*
X35200000Y-41000000D03*
X45500000Y-37200000D03*
X27200000Y-41000000D03*
X38000000Y-41000000D03*
X67200000Y-41000000D03*
X83200000Y-41000000D03*
%TO.N,SW6*%
X69300000Y-49600000D03*
X41200000Y-46500000D03*
X42300000Y-48200000D03*
%TO.N,CS9*%
X91200000Y-45000000D03*
X51200000Y-45000000D03*
X99200000Y-45000000D03*
X36100000Y-43100000D03*
X67200000Y-45000000D03*
X75200000Y-45000000D03*
X27200000Y-45000000D03*
X35200000Y-45000000D03*
X83200000Y-45000000D03*
X38000000Y-42000000D03*
X59200000Y-45000000D03*
%TO.N,SW0*%
X45500000Y-42000000D03*
X28800000Y-44000000D03*
%TO.N,CS2*%
X87200000Y-43000000D03*
X71200000Y-43000000D03*
X46000000Y-43000000D03*
X39200000Y-43000000D03*
X47900000Y-38300000D03*
X23200000Y-43000000D03*
X55200000Y-43000000D03*
X47800000Y-44200000D03*
X32000000Y-44400000D03*
X31200000Y-43000000D03*
X63200000Y-43000000D03*
X79200000Y-43000000D03*
X95200000Y-43000000D03*
%TO.N,CS7*%
X51100000Y-43000000D03*
X35200000Y-53000000D03*
X53500000Y-42700000D03*
X51200000Y-53000000D03*
X27200000Y-53000000D03*
X43200000Y-53000000D03*
%TO.N,SW2*%
X47199999Y-46500000D03*
X45200000Y-44000000D03*
%TO.N,CS6*%
X31200000Y-27000000D03*
X53500000Y-37600000D03*
X47200000Y-27000000D03*
X55200000Y-27000000D03*
X39200000Y-27000000D03*
X50000000Y-41800000D03*
X52000000Y-39400000D03*
%TO.N,SW4*%
X56800000Y-46300000D03*
X45100000Y-45900000D03*
%TO.N,CS8*%
X91200000Y-49000000D03*
X83200000Y-49000000D03*
X59200000Y-49000000D03*
X51200000Y-49000000D03*
X27200000Y-49000000D03*
X43000000Y-46200000D03*
X75200000Y-49000000D03*
X49400000Y-46600000D03*
X67200000Y-49000000D03*
X46600000Y-48900000D03*
X35200000Y-49000000D03*
%TO.N,SW8*%
X88800000Y-48000000D03*
%TO.N,CS11*%
X42000000Y-34400000D03*
X99200000Y-37000000D03*
X67200000Y-37000000D03*
X59200000Y-37000000D03*
X27800000Y-37000000D03*
X91200000Y-37000000D03*
X38000000Y-40000000D03*
X83200000Y-37000000D03*
X75200000Y-37000000D03*
X37700000Y-34400000D03*
X36100000Y-34400000D03*
X35200000Y-37000000D03*
X51200000Y-37000000D03*
%TO.N,CS5*%
X38000000Y-31000000D03*
X79200000Y-31000000D03*
X87200000Y-31000000D03*
X50500000Y-31000000D03*
X63200000Y-31000000D03*
X23200000Y-31000000D03*
X55200000Y-31000000D03*
X47000000Y-31300000D03*
X31200000Y-31000000D03*
X71200000Y-31000000D03*
%TO.N,SW5*%
X57800000Y-48400000D03*
X44200000Y-46800000D03*
%TO.N,CS3*%
X46200000Y-37200000D03*
X39900000Y-38900000D03*
X55200000Y-39000000D03*
X51800000Y-38700000D03*
X63200000Y-39000000D03*
X127200000Y-39000000D03*
X79200000Y-39000000D03*
X87200000Y-39000000D03*
X95200000Y-39000000D03*
X31200000Y-39000000D03*
X50000000Y-38200000D03*
X23200000Y-39000000D03*
X71200000Y-39000000D03*
X47200000Y-39000000D03*
%TO.N,CS1*%
X47900000Y-47000000D03*
X71200000Y-47000000D03*
X38400000Y-48000000D03*
X79200000Y-47000000D03*
X24000000Y-48400000D03*
X55200000Y-47000000D03*
X50000000Y-35800000D03*
X87200000Y-47000000D03*
X51900000Y-47000000D03*
X51000000Y-37700000D03*
X63200000Y-47000000D03*
X31200000Y-48000000D03*
%TO.N,SW9*%
X96200000Y-44100000D03*
%TO.N,CS13*%
X51200000Y-29000000D03*
X27200000Y-29000000D03*
X35200000Y-29000000D03*
X43200000Y-29000000D03*
X37500000Y-29000000D03*
%TO.N,CS0*%
X50000000Y-34600000D03*
X31200000Y-51000000D03*
X54600000Y-38200000D03*
X47200000Y-51000000D03*
X39200000Y-51000000D03*
X55200000Y-51000000D03*
X52100000Y-37600000D03*
%TO.N,SW7*%
X80400000Y-47600000D03*
%TO.N,SW10*%
X38000000Y-43000000D03*
X37500000Y-42900000D03*
X128100000Y-40000000D03*
D11*
%TO.N,GND*%
X43800000Y-38900000D03*
D10*
X53775000Y-39263900D03*
X38563900Y-30075000D03*
D11*
X42200000Y-38900000D03*
D10*
X76011100Y-40425000D03*
D11*
X42200000Y-41100000D03*
D10*
X23784900Y-36875000D03*
X45725000Y-29763900D03*
X63200000Y-37732100D03*
X40000000Y-37600000D03*
X41725000Y-49736100D03*
X23336100Y-32950000D03*
X37600000Y-33500000D03*
X58200000Y-42000000D03*
X32049999Y-34000000D03*
X79300000Y-45732100D03*
X43875000Y-49736100D03*
X22175000Y-48211100D03*
X47563900Y-30075000D03*
X42300000Y-31700000D03*
D11*
X43800000Y-41100000D03*
D10*
X63200000Y-41732100D03*
X32049999Y-29850000D03*
%TO.N,SCLK*%
X42200000Y-33000000D03*
X42400000Y-33500000D03*
X51500000Y-33600000D03*
X29600000Y-35600000D03*
X30400000Y-32400000D03*
%TO.N,VIO_EN*%
X52100000Y-34300000D03*
X47200000Y-33500000D03*
%TO.N,IFS*%
X53600000Y-36300000D03*
X41600000Y-36300000D03*
%TO.N,VLED_3V3*%
X45500000Y-49600000D03*
X42400000Y-46500000D03*
X38200000Y-45200000D03*
X43200000Y-49600000D03*
X42500000Y-45500000D03*
%TO.N,SS_N*%
X53800000Y-31900000D03*
X29700000Y-32400000D03*
X44000000Y-31700000D03*
X41600000Y-31600000D03*
%TO.N,VCC_3V3*%
X31700000Y-30400000D03*
X46600000Y-30400000D03*
X30400000Y-35600000D03*
X53500000Y-30400000D03*
%TO.N,NTC_RETURN*%
X68100000Y-46400000D03*
X60500000Y-50700000D03*
%TO.N,MISO_IC*%
X44300000Y-33299999D03*
X56000000Y-32400000D03*
X55800000Y-42000000D03*
X44800000Y-33500000D03*
%TO.N,MISO_HOST*%
X54000000Y-51600000D03*
X32100000Y-42600000D03*
X26500000Y-41000000D03*
X54000000Y-44400000D03*
%TO.N,VSYNC*%
X40000000Y-27700000D03*
X31800000Y-38400000D03*
X41900000Y-35600000D03*
X39900000Y-36600000D03*
%TO.N,MOSI*%
X33600000Y-35600000D03*
X55400000Y-37600000D03*
X32000000Y-36300000D03*
X54800000Y-34400000D03*
%TD*%
%TA.AperFunction,Conductor*%
%TO.N,GND*%
G36*
X100760044Y-31047621D02*
G01*
X100768387Y-31048824D01*
X130930966Y-36454586D01*
X131247375Y-36511293D01*
X131309890Y-36542495D01*
X131345613Y-36602542D01*
X131349500Y-36633348D01*
X131349500Y-43366650D01*
X131329815Y-43433689D01*
X131277011Y-43479444D01*
X131247375Y-43488705D01*
X100768403Y-48951171D01*
X100760028Y-48952379D01*
X33658569Y-56301586D01*
X33603229Y-56295051D01*
X24566396Y-53055874D01*
X24263415Y-52947273D01*
X26799500Y-52947273D01*
X26799500Y-53052727D01*
X26826793Y-53154587D01*
X26879520Y-53245913D01*
X26954087Y-53320480D01*
X27045413Y-53373207D01*
X27147273Y-53400500D01*
X27147275Y-53400500D01*
X27252725Y-53400500D01*
X27252727Y-53400500D01*
X27354587Y-53373207D01*
X27445913Y-53320480D01*
X27520480Y-53245913D01*
X27573207Y-53154587D01*
X27600500Y-53052727D01*
X27600500Y-52947273D01*
X34799500Y-52947273D01*
X34799500Y-53052727D01*
X34826793Y-53154587D01*
X34879520Y-53245913D01*
X34954087Y-53320480D01*
X35045413Y-53373207D01*
X35147273Y-53400500D01*
X35147275Y-53400500D01*
X35252725Y-53400500D01*
X35252727Y-53400500D01*
X35354587Y-53373207D01*
X35445913Y-53320480D01*
X35520480Y-53245913D01*
X35573207Y-53154587D01*
X35600500Y-53052727D01*
X35600500Y-52947273D01*
X42799500Y-52947273D01*
X42799500Y-53052727D01*
X42826793Y-53154587D01*
X42879520Y-53245913D01*
X42954087Y-53320480D01*
X43045413Y-53373207D01*
X43147273Y-53400500D01*
X43147275Y-53400500D01*
X43252725Y-53400500D01*
X43252727Y-53400500D01*
X43354587Y-53373207D01*
X43445913Y-53320480D01*
X43520480Y-53245913D01*
X43573207Y-53154587D01*
X43600500Y-53052727D01*
X43600500Y-52947273D01*
X50799500Y-52947273D01*
X50799500Y-53052727D01*
X50826793Y-53154587D01*
X50879520Y-53245913D01*
X50954087Y-53320480D01*
X51045413Y-53373207D01*
X51147273Y-53400500D01*
X51147275Y-53400500D01*
X51252725Y-53400500D01*
X51252727Y-53400500D01*
X51354587Y-53373207D01*
X51445913Y-53320480D01*
X51520480Y-53245913D01*
X51573207Y-53154587D01*
X51600500Y-53052727D01*
X51600500Y-52947273D01*
X51573207Y-52845413D01*
X51520480Y-52754087D01*
X51445913Y-52679520D01*
X51354587Y-52626793D01*
X51252727Y-52599500D01*
X51147273Y-52599500D01*
X51045413Y-52626793D01*
X51045410Y-52626794D01*
X50954085Y-52679521D01*
X50879521Y-52754085D01*
X50826794Y-52845410D01*
X50826793Y-52845413D01*
X50799500Y-52947273D01*
X43600500Y-52947273D01*
X43573207Y-52845413D01*
X43520480Y-52754087D01*
X43445913Y-52679520D01*
X43354587Y-52626793D01*
X43252727Y-52599500D01*
X43147273Y-52599500D01*
X43045413Y-52626793D01*
X43045410Y-52626794D01*
X42954085Y-52679521D01*
X42879521Y-52754085D01*
X42826794Y-52845410D01*
X42826793Y-52845413D01*
X42799500Y-52947273D01*
X35600500Y-52947273D01*
X35573207Y-52845413D01*
X35520480Y-52754087D01*
X35445913Y-52679520D01*
X35354587Y-52626793D01*
X35252727Y-52599500D01*
X35147273Y-52599500D01*
X35045413Y-52626793D01*
X35045410Y-52626794D01*
X34954085Y-52679521D01*
X34879521Y-52754085D01*
X34826794Y-52845410D01*
X34826793Y-52845413D01*
X34799500Y-52947273D01*
X27600500Y-52947273D01*
X27573207Y-52845413D01*
X27520480Y-52754087D01*
X27445913Y-52679520D01*
X27354587Y-52626793D01*
X27252727Y-52599500D01*
X27147273Y-52599500D01*
X27045413Y-52626793D01*
X27045410Y-52626794D01*
X26954085Y-52679521D01*
X26879521Y-52754085D01*
X26826794Y-52845410D01*
X26826793Y-52845413D01*
X26799500Y-52947273D01*
X24263415Y-52947273D01*
X20660600Y-51655874D01*
X20357619Y-51547273D01*
X53599500Y-51547273D01*
X53599500Y-51652727D01*
X53626793Y-51754587D01*
X53679520Y-51845913D01*
X53754087Y-51920480D01*
X53845413Y-51973207D01*
X53947273Y-52000500D01*
X53947275Y-52000500D01*
X54052725Y-52000500D01*
X54052727Y-52000500D01*
X54154587Y-51973207D01*
X54245913Y-51920480D01*
X54320480Y-51845913D01*
X54373207Y-51754587D01*
X54400500Y-51652727D01*
X54400500Y-51547273D01*
X54373207Y-51445413D01*
X54320480Y-51354087D01*
X54245913Y-51279520D01*
X54154587Y-51226793D01*
X54052727Y-51199500D01*
X53947273Y-51199500D01*
X53845413Y-51226793D01*
X53845410Y-51226794D01*
X53754085Y-51279521D01*
X53679521Y-51354085D01*
X53626794Y-51445410D01*
X53626793Y-51445413D01*
X53599500Y-51547273D01*
X20357619Y-51547273D01*
X18986687Y-51055874D01*
X18683706Y-50947273D01*
X30799500Y-50947273D01*
X30799500Y-51052727D01*
X30826793Y-51154587D01*
X30879520Y-51245913D01*
X30954087Y-51320480D01*
X31045413Y-51373207D01*
X31147273Y-51400500D01*
X31147275Y-51400500D01*
X31252725Y-51400500D01*
X31252727Y-51400500D01*
X31354587Y-51373207D01*
X31445913Y-51320480D01*
X31520480Y-51245913D01*
X31573207Y-51154587D01*
X31600500Y-51052727D01*
X31600500Y-50947273D01*
X38799500Y-50947273D01*
X38799500Y-51052727D01*
X38826793Y-51154587D01*
X38879520Y-51245913D01*
X38954087Y-51320480D01*
X39045413Y-51373207D01*
X39147273Y-51400500D01*
X39147275Y-51400500D01*
X39252725Y-51400500D01*
X39252727Y-51400500D01*
X39354587Y-51373207D01*
X39445913Y-51320480D01*
X39520480Y-51245913D01*
X39573207Y-51154587D01*
X39600500Y-51052727D01*
X39600500Y-50947273D01*
X46799500Y-50947273D01*
X46799500Y-51052727D01*
X46826793Y-51154587D01*
X46879520Y-51245913D01*
X46954087Y-51320480D01*
X47045413Y-51373207D01*
X47147273Y-51400500D01*
X47147275Y-51400500D01*
X47252725Y-51400500D01*
X47252727Y-51400500D01*
X47354587Y-51373207D01*
X47445913Y-51320480D01*
X47520480Y-51245913D01*
X47573207Y-51154587D01*
X47600500Y-51052727D01*
X47600500Y-50947273D01*
X54799500Y-50947273D01*
X54799500Y-51052727D01*
X54826793Y-51154587D01*
X54879520Y-51245913D01*
X54954087Y-51320480D01*
X55045413Y-51373207D01*
X55147273Y-51400500D01*
X55147275Y-51400500D01*
X55252725Y-51400500D01*
X55252727Y-51400500D01*
X55354587Y-51373207D01*
X55445913Y-51320480D01*
X55520480Y-51245913D01*
X55573207Y-51154587D01*
X55600500Y-51052727D01*
X55600500Y-50947273D01*
X55573207Y-50845413D01*
X55520480Y-50754087D01*
X55445913Y-50679520D01*
X55390059Y-50647273D01*
X60099500Y-50647273D01*
X60099500Y-50752727D01*
X60099865Y-50754087D01*
X60126793Y-50854586D01*
X60126794Y-50854589D01*
X60140922Y-50879059D01*
X60179520Y-50945913D01*
X60254087Y-51020480D01*
X60345413Y-51073207D01*
X60447273Y-51100500D01*
X60447275Y-51100500D01*
X60552725Y-51100500D01*
X60552727Y-51100500D01*
X60654587Y-51073207D01*
X60745913Y-51020480D01*
X60820480Y-50945913D01*
X60873207Y-50854587D01*
X60900500Y-50752727D01*
X60900500Y-50647273D01*
X60873207Y-50545413D01*
X60820480Y-50454087D01*
X60745913Y-50379520D01*
X60654587Y-50326793D01*
X60552727Y-50299500D01*
X60447273Y-50299500D01*
X60345413Y-50326793D01*
X60345410Y-50326794D01*
X60254085Y-50379521D01*
X60179521Y-50454085D01*
X60126794Y-50545410D01*
X60126793Y-50545413D01*
X60099500Y-50647273D01*
X55390059Y-50647273D01*
X55354587Y-50626793D01*
X55252727Y-50599500D01*
X55147273Y-50599500D01*
X55045413Y-50626793D01*
X55045410Y-50626794D01*
X54954085Y-50679521D01*
X54879521Y-50754085D01*
X54826794Y-50845410D01*
X54826793Y-50845413D01*
X54799500Y-50947273D01*
X47600500Y-50947273D01*
X47573207Y-50845413D01*
X47520480Y-50754087D01*
X47445913Y-50679520D01*
X47354587Y-50626793D01*
X47252727Y-50599500D01*
X47147273Y-50599500D01*
X47045413Y-50626793D01*
X47045410Y-50626794D01*
X46954085Y-50679521D01*
X46879521Y-50754085D01*
X46826794Y-50845410D01*
X46826793Y-50845413D01*
X46799500Y-50947273D01*
X39600500Y-50947273D01*
X39573207Y-50845413D01*
X39520480Y-50754087D01*
X39445913Y-50679520D01*
X39354587Y-50626793D01*
X39252727Y-50599500D01*
X39147273Y-50599500D01*
X39045413Y-50626793D01*
X39045410Y-50626794D01*
X38954085Y-50679521D01*
X38879521Y-50754085D01*
X38826794Y-50845410D01*
X38826793Y-50845413D01*
X38799500Y-50947273D01*
X31600500Y-50947273D01*
X31573207Y-50845413D01*
X31520480Y-50754087D01*
X31445913Y-50679520D01*
X31354587Y-50626793D01*
X31252727Y-50599500D01*
X31147273Y-50599500D01*
X31045413Y-50626793D01*
X31045410Y-50626794D01*
X30954085Y-50679521D01*
X30879521Y-50754085D01*
X30826794Y-50845410D01*
X30826793Y-50845413D01*
X30799500Y-50947273D01*
X18683706Y-50947273D01*
X18532660Y-50893132D01*
X18476194Y-50851981D01*
X18450940Y-50786835D01*
X18450500Y-50776404D01*
X18450500Y-49547273D01*
X42799500Y-49547273D01*
X42799500Y-49652727D01*
X42826793Y-49754587D01*
X42879520Y-49845913D01*
X42954087Y-49920480D01*
X43045413Y-49973207D01*
X43147273Y-50000500D01*
X43147275Y-50000500D01*
X43252725Y-50000500D01*
X43252727Y-50000500D01*
X43354587Y-49973207D01*
X43445913Y-49920480D01*
X43520480Y-49845913D01*
X43573207Y-49754587D01*
X43600500Y-49652727D01*
X43600500Y-49547273D01*
X45099500Y-49547273D01*
X45099500Y-49652727D01*
X45126793Y-49754587D01*
X45179520Y-49845913D01*
X45254087Y-49920480D01*
X45345413Y-49973207D01*
X45447273Y-50000500D01*
X45447275Y-50000500D01*
X45552725Y-50000500D01*
X45552727Y-50000500D01*
X45654587Y-49973207D01*
X45745913Y-49920480D01*
X45820480Y-49845913D01*
X45873207Y-49754587D01*
X45900500Y-49652727D01*
X45900500Y-49547273D01*
X68899500Y-49547273D01*
X68899500Y-49652727D01*
X68926793Y-49754587D01*
X68979520Y-49845913D01*
X69054087Y-49920480D01*
X69145413Y-49973207D01*
X69247273Y-50000500D01*
X69247275Y-50000500D01*
X69352725Y-50000500D01*
X69352727Y-50000500D01*
X69454587Y-49973207D01*
X69545913Y-49920480D01*
X69620480Y-49845913D01*
X69673207Y-49754587D01*
X69700500Y-49652727D01*
X69700500Y-49547273D01*
X69673207Y-49445413D01*
X69620480Y-49354087D01*
X69545913Y-49279520D01*
X69454587Y-49226793D01*
X69352727Y-49199500D01*
X69247273Y-49199500D01*
X69145413Y-49226793D01*
X69145410Y-49226794D01*
X69054085Y-49279521D01*
X68979521Y-49354085D01*
X68926794Y-49445410D01*
X68926793Y-49445413D01*
X68899500Y-49547273D01*
X45900500Y-49547273D01*
X45873207Y-49445413D01*
X45820480Y-49354087D01*
X45745913Y-49279520D01*
X45654587Y-49226793D01*
X45552727Y-49199500D01*
X45447273Y-49199500D01*
X45345413Y-49226793D01*
X45345410Y-49226794D01*
X45254085Y-49279521D01*
X45179521Y-49354085D01*
X45126794Y-49445410D01*
X45126793Y-49445413D01*
X45099500Y-49547273D01*
X43600500Y-49547273D01*
X43573207Y-49445413D01*
X43520480Y-49354087D01*
X43445913Y-49279520D01*
X43354587Y-49226793D01*
X43252727Y-49199500D01*
X43147273Y-49199500D01*
X43045413Y-49226793D01*
X43045410Y-49226794D01*
X42954085Y-49279521D01*
X42879521Y-49354085D01*
X42826794Y-49445410D01*
X42826793Y-49445413D01*
X42799500Y-49547273D01*
X18450500Y-49547273D01*
X18450500Y-48947273D01*
X26799500Y-48947273D01*
X26799500Y-49052727D01*
X26826793Y-49154587D01*
X26879520Y-49245913D01*
X26954087Y-49320480D01*
X27045413Y-49373207D01*
X27147273Y-49400500D01*
X27147275Y-49400500D01*
X27252725Y-49400500D01*
X27252727Y-49400500D01*
X27354587Y-49373207D01*
X27445913Y-49320480D01*
X27520480Y-49245913D01*
X27573207Y-49154587D01*
X27600500Y-49052727D01*
X27600500Y-48947273D01*
X34799500Y-48947273D01*
X34799500Y-49052727D01*
X34826793Y-49154587D01*
X34879520Y-49245913D01*
X34954087Y-49320480D01*
X35045413Y-49373207D01*
X35147273Y-49400500D01*
X35147275Y-49400500D01*
X35252725Y-49400500D01*
X35252727Y-49400500D01*
X35354587Y-49373207D01*
X35445913Y-49320480D01*
X35520480Y-49245913D01*
X35573207Y-49154587D01*
X35600500Y-49052727D01*
X35600500Y-48947273D01*
X35573705Y-48847273D01*
X46199500Y-48847273D01*
X46199500Y-48952727D01*
X46226793Y-49054587D01*
X46279520Y-49145913D01*
X46354087Y-49220480D01*
X46445413Y-49273207D01*
X46547273Y-49300500D01*
X46547275Y-49300500D01*
X46652725Y-49300500D01*
X46652727Y-49300500D01*
X46754587Y-49273207D01*
X46845913Y-49220480D01*
X46920480Y-49145913D01*
X46973207Y-49054587D01*
X47000500Y-48952727D01*
X47000500Y-48947273D01*
X50799500Y-48947273D01*
X50799500Y-49052727D01*
X50826793Y-49154587D01*
X50879520Y-49245913D01*
X50954087Y-49320480D01*
X51045413Y-49373207D01*
X51147273Y-49400500D01*
X51147275Y-49400500D01*
X51252725Y-49400500D01*
X51252727Y-49400500D01*
X51354587Y-49373207D01*
X51445913Y-49320480D01*
X51520480Y-49245913D01*
X51573207Y-49154587D01*
X51600500Y-49052727D01*
X51600500Y-48947273D01*
X58799500Y-48947273D01*
X58799500Y-49052727D01*
X58826793Y-49154587D01*
X58879520Y-49245913D01*
X58954087Y-49320480D01*
X59045413Y-49373207D01*
X59147273Y-49400500D01*
X59147275Y-49400500D01*
X59252725Y-49400500D01*
X59252727Y-49400500D01*
X59354587Y-49373207D01*
X59445913Y-49320480D01*
X59520480Y-49245913D01*
X59573207Y-49154587D01*
X59600500Y-49052727D01*
X59600500Y-48947273D01*
X66799500Y-48947273D01*
X66799500Y-49052727D01*
X66826793Y-49154587D01*
X66879520Y-49245913D01*
X66954087Y-49320480D01*
X67045413Y-49373207D01*
X67147273Y-49400500D01*
X67147275Y-49400500D01*
X67252725Y-49400500D01*
X67252727Y-49400500D01*
X67354587Y-49373207D01*
X67445913Y-49320480D01*
X67520480Y-49245913D01*
X67573207Y-49154587D01*
X67600500Y-49052727D01*
X67600500Y-48947273D01*
X74799500Y-48947273D01*
X74799500Y-49052727D01*
X74826793Y-49154587D01*
X74879520Y-49245913D01*
X74954087Y-49320480D01*
X75045413Y-49373207D01*
X75147273Y-49400500D01*
X75147275Y-49400500D01*
X75252725Y-49400500D01*
X75252727Y-49400500D01*
X75354587Y-49373207D01*
X75445913Y-49320480D01*
X75520480Y-49245913D01*
X75573207Y-49154587D01*
X75600500Y-49052727D01*
X75600500Y-48947273D01*
X82799500Y-48947273D01*
X82799500Y-49052727D01*
X82826793Y-49154587D01*
X82879520Y-49245913D01*
X82954087Y-49320480D01*
X83045413Y-49373207D01*
X83147273Y-49400500D01*
X83147275Y-49400500D01*
X83252725Y-49400500D01*
X83252727Y-49400500D01*
X83354587Y-49373207D01*
X83445913Y-49320480D01*
X83520480Y-49245913D01*
X83573207Y-49154587D01*
X83600500Y-49052727D01*
X83600500Y-48947273D01*
X90799500Y-48947273D01*
X90799500Y-49052727D01*
X90826793Y-49154587D01*
X90879520Y-49245913D01*
X90954087Y-49320480D01*
X91045413Y-49373207D01*
X91147273Y-49400500D01*
X91147275Y-49400500D01*
X91252725Y-49400500D01*
X91252727Y-49400500D01*
X91354587Y-49373207D01*
X91445913Y-49320480D01*
X91520480Y-49245913D01*
X91573207Y-49154587D01*
X91600500Y-49052727D01*
X91600500Y-48947273D01*
X91573207Y-48845413D01*
X91520480Y-48754087D01*
X91445913Y-48679520D01*
X91354587Y-48626793D01*
X91252727Y-48599500D01*
X91147273Y-48599500D01*
X91045413Y-48626793D01*
X91045410Y-48626794D01*
X90954085Y-48679521D01*
X90879521Y-48754085D01*
X90826794Y-48845410D01*
X90826794Y-48845411D01*
X90826793Y-48845413D01*
X90799500Y-48947273D01*
X83600500Y-48947273D01*
X83573207Y-48845413D01*
X83520480Y-48754087D01*
X83445913Y-48679520D01*
X83354587Y-48626793D01*
X83252727Y-48599500D01*
X83147273Y-48599500D01*
X83045413Y-48626793D01*
X83045410Y-48626794D01*
X82954085Y-48679521D01*
X82879521Y-48754085D01*
X82826794Y-48845410D01*
X82826794Y-48845411D01*
X82826793Y-48845413D01*
X82799500Y-48947273D01*
X75600500Y-48947273D01*
X75573207Y-48845413D01*
X75520480Y-48754087D01*
X75445913Y-48679520D01*
X75354587Y-48626793D01*
X75252727Y-48599500D01*
X75147273Y-48599500D01*
X75045413Y-48626793D01*
X75045410Y-48626794D01*
X74954085Y-48679521D01*
X74879521Y-48754085D01*
X74826794Y-48845410D01*
X74826794Y-48845411D01*
X74826793Y-48845413D01*
X74799500Y-48947273D01*
X67600500Y-48947273D01*
X67573207Y-48845413D01*
X67520480Y-48754087D01*
X67445913Y-48679520D01*
X67354587Y-48626793D01*
X67252727Y-48599500D01*
X67147273Y-48599500D01*
X67045413Y-48626793D01*
X67045410Y-48626794D01*
X66954085Y-48679521D01*
X66879521Y-48754085D01*
X66826794Y-48845410D01*
X66826794Y-48845411D01*
X66826793Y-48845413D01*
X66799500Y-48947273D01*
X59600500Y-48947273D01*
X59573207Y-48845413D01*
X59520480Y-48754087D01*
X59445913Y-48679520D01*
X59354587Y-48626793D01*
X59252727Y-48599500D01*
X59147273Y-48599500D01*
X59045413Y-48626793D01*
X59045410Y-48626794D01*
X58954085Y-48679521D01*
X58879521Y-48754085D01*
X58826794Y-48845410D01*
X58826794Y-48845411D01*
X58826793Y-48845413D01*
X58799500Y-48947273D01*
X51600500Y-48947273D01*
X51573207Y-48845413D01*
X51520480Y-48754087D01*
X51445913Y-48679520D01*
X51354587Y-48626793D01*
X51252727Y-48599500D01*
X51147273Y-48599500D01*
X51045413Y-48626793D01*
X51045410Y-48626794D01*
X50954085Y-48679521D01*
X50879521Y-48754085D01*
X50826794Y-48845410D01*
X50826794Y-48845411D01*
X50826793Y-48845413D01*
X50799500Y-48947273D01*
X47000500Y-48947273D01*
X47000500Y-48847273D01*
X46973207Y-48745413D01*
X46920480Y-48654087D01*
X46845913Y-48579520D01*
X46754587Y-48526793D01*
X46652727Y-48499500D01*
X46547273Y-48499500D01*
X46445413Y-48526793D01*
X46445410Y-48526794D01*
X46354085Y-48579521D01*
X46279521Y-48654085D01*
X46226794Y-48745410D01*
X46226793Y-48745413D01*
X46199500Y-48847273D01*
X35573705Y-48847273D01*
X35573207Y-48845413D01*
X35520480Y-48754087D01*
X35445913Y-48679520D01*
X35354587Y-48626793D01*
X35252727Y-48599500D01*
X35147273Y-48599500D01*
X35045413Y-48626793D01*
X35045410Y-48626794D01*
X34954085Y-48679521D01*
X34879521Y-48754085D01*
X34826794Y-48845410D01*
X34826794Y-48845411D01*
X34826793Y-48845413D01*
X34799500Y-48947273D01*
X27600500Y-48947273D01*
X27573207Y-48845413D01*
X27520480Y-48754087D01*
X27445913Y-48679520D01*
X27354587Y-48626793D01*
X27252727Y-48599500D01*
X27147273Y-48599500D01*
X27045413Y-48626793D01*
X27045410Y-48626794D01*
X26954085Y-48679521D01*
X26879521Y-48754085D01*
X26826794Y-48845410D01*
X26826794Y-48845411D01*
X26826793Y-48845413D01*
X26799500Y-48947273D01*
X18450500Y-48947273D01*
X18450500Y-48347273D01*
X23599500Y-48347273D01*
X23599500Y-48452727D01*
X23626793Y-48554587D01*
X23679520Y-48645913D01*
X23754087Y-48720480D01*
X23845413Y-48773207D01*
X23947273Y-48800500D01*
X23947275Y-48800500D01*
X24052725Y-48800500D01*
X24052727Y-48800500D01*
X24154587Y-48773207D01*
X24245913Y-48720480D01*
X24320480Y-48645913D01*
X24373207Y-48554587D01*
X24400500Y-48452727D01*
X24400500Y-48347273D01*
X24373207Y-48245413D01*
X24320480Y-48154087D01*
X24245913Y-48079520D01*
X24154587Y-48026793D01*
X24052727Y-47999500D01*
X23947273Y-47999500D01*
X23845413Y-48026793D01*
X23845410Y-48026794D01*
X23754085Y-48079521D01*
X23679521Y-48154085D01*
X23626794Y-48245410D01*
X23626793Y-48245413D01*
X23599500Y-48347273D01*
X18450500Y-48347273D01*
X18450500Y-47947273D01*
X30799500Y-47947273D01*
X30799500Y-48052727D01*
X30826793Y-48154587D01*
X30879520Y-48245913D01*
X30954087Y-48320480D01*
X31045413Y-48373207D01*
X31147273Y-48400500D01*
X31147275Y-48400500D01*
X31252725Y-48400500D01*
X31252727Y-48400500D01*
X31354587Y-48373207D01*
X31445913Y-48320480D01*
X31520480Y-48245913D01*
X31573207Y-48154587D01*
X31600500Y-48052727D01*
X31600500Y-47947273D01*
X37999500Y-47947273D01*
X37999500Y-48052727D01*
X38026793Y-48154587D01*
X38079520Y-48245913D01*
X38154087Y-48320480D01*
X38245413Y-48373207D01*
X38347273Y-48400500D01*
X38347275Y-48400500D01*
X38452725Y-48400500D01*
X38452727Y-48400500D01*
X38554587Y-48373207D01*
X38645913Y-48320480D01*
X38720480Y-48245913D01*
X38773207Y-48154587D01*
X38775167Y-48147273D01*
X41899500Y-48147273D01*
X41899500Y-48252727D01*
X41926793Y-48354587D01*
X41979520Y-48445913D01*
X42054087Y-48520480D01*
X42145413Y-48573207D01*
X42247273Y-48600500D01*
X42247275Y-48600500D01*
X42352725Y-48600500D01*
X42352727Y-48600500D01*
X42454587Y-48573207D01*
X42545913Y-48520480D01*
X42620480Y-48445913D01*
X42673207Y-48354587D01*
X42675167Y-48347273D01*
X57399500Y-48347273D01*
X57399500Y-48452727D01*
X57426793Y-48554587D01*
X57479520Y-48645913D01*
X57554087Y-48720480D01*
X57645413Y-48773207D01*
X57747273Y-48800500D01*
X57747275Y-48800500D01*
X57852725Y-48800500D01*
X57852727Y-48800500D01*
X57954587Y-48773207D01*
X58045913Y-48720480D01*
X58120480Y-48645913D01*
X58173207Y-48554587D01*
X58200500Y-48452727D01*
X58200500Y-48347273D01*
X58173207Y-48245413D01*
X58120480Y-48154087D01*
X58045913Y-48079520D01*
X57954587Y-48026793D01*
X57852727Y-47999500D01*
X57747273Y-47999500D01*
X57645413Y-48026793D01*
X57645410Y-48026794D01*
X57554085Y-48079521D01*
X57479521Y-48154085D01*
X57426794Y-48245410D01*
X57426793Y-48245413D01*
X57399500Y-48347273D01*
X42675167Y-48347273D01*
X42700500Y-48252727D01*
X42700500Y-48147273D01*
X42673207Y-48045413D01*
X42620480Y-47954087D01*
X42545913Y-47879520D01*
X42454587Y-47826793D01*
X42352727Y-47799500D01*
X42247273Y-47799500D01*
X42145413Y-47826793D01*
X42145410Y-47826794D01*
X42054085Y-47879521D01*
X41979521Y-47954085D01*
X41926794Y-48045410D01*
X41926793Y-48045413D01*
X41899500Y-48147273D01*
X38775167Y-48147273D01*
X38800500Y-48052727D01*
X38800500Y-47947273D01*
X38773207Y-47845413D01*
X38720480Y-47754087D01*
X38645913Y-47679520D01*
X38554587Y-47626793D01*
X38452727Y-47599500D01*
X38347273Y-47599500D01*
X38245413Y-47626793D01*
X38245410Y-47626794D01*
X38154085Y-47679521D01*
X38079521Y-47754085D01*
X38026794Y-47845410D01*
X38026793Y-47845413D01*
X37999500Y-47947273D01*
X31600500Y-47947273D01*
X31573207Y-47845413D01*
X31520480Y-47754087D01*
X31445913Y-47679520D01*
X31354587Y-47626793D01*
X31252727Y-47599500D01*
X31147273Y-47599500D01*
X31045413Y-47626793D01*
X31045410Y-47626794D01*
X30954085Y-47679521D01*
X30879521Y-47754085D01*
X30826794Y-47845410D01*
X30826793Y-47845413D01*
X30799500Y-47947273D01*
X18450500Y-47947273D01*
X18450500Y-47547273D01*
X79999500Y-47547273D01*
X79999500Y-47652727D01*
X80026793Y-47754587D01*
X80079520Y-47845913D01*
X80154087Y-47920480D01*
X80245413Y-47973207D01*
X80347273Y-48000500D01*
X80347275Y-48000500D01*
X80452725Y-48000500D01*
X80452727Y-48000500D01*
X80554587Y-47973207D01*
X80599506Y-47947273D01*
X88399500Y-47947273D01*
X88399500Y-48052727D01*
X88426793Y-48154587D01*
X88479520Y-48245913D01*
X88554087Y-48320480D01*
X88645413Y-48373207D01*
X88747273Y-48400500D01*
X88747275Y-48400500D01*
X88852725Y-48400500D01*
X88852727Y-48400500D01*
X88954587Y-48373207D01*
X89045913Y-48320480D01*
X89120480Y-48245913D01*
X89173207Y-48154587D01*
X89200500Y-48052727D01*
X89200500Y-47947273D01*
X89173207Y-47845413D01*
X89120480Y-47754087D01*
X89045913Y-47679520D01*
X88954587Y-47626793D01*
X88852727Y-47599500D01*
X88747273Y-47599500D01*
X88645413Y-47626793D01*
X88645410Y-47626794D01*
X88554085Y-47679521D01*
X88479521Y-47754085D01*
X88426794Y-47845410D01*
X88426793Y-47845413D01*
X88399500Y-47947273D01*
X80599506Y-47947273D01*
X80645913Y-47920480D01*
X80720480Y-47845913D01*
X80773207Y-47754587D01*
X80800500Y-47652727D01*
X80800500Y-47547273D01*
X80773207Y-47445413D01*
X80720480Y-47354087D01*
X80645913Y-47279520D01*
X80554587Y-47226793D01*
X80452727Y-47199500D01*
X80347273Y-47199500D01*
X80245413Y-47226793D01*
X80245410Y-47226794D01*
X80154085Y-47279521D01*
X80079521Y-47354085D01*
X80026794Y-47445410D01*
X80026793Y-47445413D01*
X79999500Y-47547273D01*
X18450500Y-47547273D01*
X18450500Y-46447273D01*
X40799500Y-46447273D01*
X40799500Y-46552727D01*
X40826793Y-46654587D01*
X40879520Y-46745913D01*
X40954087Y-46820480D01*
X41045413Y-46873207D01*
X41147273Y-46900500D01*
X41147275Y-46900500D01*
X41252725Y-46900500D01*
X41252727Y-46900500D01*
X41354587Y-46873207D01*
X41445913Y-46820480D01*
X41520480Y-46745913D01*
X41573207Y-46654587D01*
X41600500Y-46552727D01*
X41600500Y-46447273D01*
X41999500Y-46447273D01*
X41999500Y-46552727D01*
X42026793Y-46654587D01*
X42079520Y-46745913D01*
X42154087Y-46820480D01*
X42245413Y-46873207D01*
X42347273Y-46900500D01*
X42347275Y-46900500D01*
X42452725Y-46900500D01*
X42452727Y-46900500D01*
X42554587Y-46873207D01*
X42645913Y-46820480D01*
X42719120Y-46747273D01*
X43799500Y-46747273D01*
X43799500Y-46852727D01*
X43826793Y-46954587D01*
X43879520Y-47045913D01*
X43954087Y-47120480D01*
X44045413Y-47173207D01*
X44147273Y-47200500D01*
X44147275Y-47200500D01*
X44252725Y-47200500D01*
X44252727Y-47200500D01*
X44354587Y-47173207D01*
X44445913Y-47120480D01*
X44520480Y-47045913D01*
X44573207Y-46954587D01*
X44600500Y-46852727D01*
X44600500Y-46747273D01*
X44573207Y-46645413D01*
X44520480Y-46554087D01*
X44445913Y-46479520D01*
X44390059Y-46447273D01*
X46799499Y-46447273D01*
X46799499Y-46552727D01*
X46826792Y-46654587D01*
X46879519Y-46745913D01*
X46954086Y-46820480D01*
X47045412Y-46873207D01*
X47147272Y-46900500D01*
X47147274Y-46900500D01*
X47252724Y-46900500D01*
X47252726Y-46900500D01*
X47343408Y-46876202D01*
X47413257Y-46877865D01*
X47471119Y-46917028D01*
X47498623Y-46981256D01*
X47499500Y-46995977D01*
X47499500Y-47052727D01*
X47526793Y-47154587D01*
X47579520Y-47245913D01*
X47654087Y-47320480D01*
X47745413Y-47373207D01*
X47847273Y-47400500D01*
X47847275Y-47400500D01*
X47952725Y-47400500D01*
X47952727Y-47400500D01*
X48054587Y-47373207D01*
X48145913Y-47320480D01*
X48220480Y-47245913D01*
X48273207Y-47154587D01*
X48300500Y-47052727D01*
X48300500Y-46947273D01*
X48273207Y-46845413D01*
X48220480Y-46754087D01*
X48145913Y-46679520D01*
X48054587Y-46626793D01*
X47952727Y-46599500D01*
X47847273Y-46599500D01*
X47847271Y-46599500D01*
X47756591Y-46623797D01*
X47686741Y-46622134D01*
X47628879Y-46582970D01*
X47613593Y-46547273D01*
X48999500Y-46547273D01*
X48999500Y-46652727D01*
X49026793Y-46754587D01*
X49079520Y-46845913D01*
X49154087Y-46920480D01*
X49245413Y-46973207D01*
X49347273Y-47000500D01*
X49347275Y-47000500D01*
X49452725Y-47000500D01*
X49452727Y-47000500D01*
X49554587Y-46973207D01*
X49599506Y-46947273D01*
X51499500Y-46947273D01*
X51499500Y-47052727D01*
X51526793Y-47154587D01*
X51579520Y-47245913D01*
X51654087Y-47320480D01*
X51745413Y-47373207D01*
X51847273Y-47400500D01*
X51847275Y-47400500D01*
X51952725Y-47400500D01*
X51952727Y-47400500D01*
X52054587Y-47373207D01*
X52145913Y-47320480D01*
X52220480Y-47245913D01*
X52273207Y-47154587D01*
X52300500Y-47052727D01*
X52300500Y-46947273D01*
X54799500Y-46947273D01*
X54799500Y-47052727D01*
X54826793Y-47154587D01*
X54879520Y-47245913D01*
X54954087Y-47320480D01*
X55045413Y-47373207D01*
X55147273Y-47400500D01*
X55147275Y-47400500D01*
X55252725Y-47400500D01*
X55252727Y-47400500D01*
X55354587Y-47373207D01*
X55445913Y-47320480D01*
X55520480Y-47245913D01*
X55573207Y-47154587D01*
X55600500Y-47052727D01*
X55600500Y-46947273D01*
X62799500Y-46947273D01*
X62799500Y-47052727D01*
X62826793Y-47154587D01*
X62879520Y-47245913D01*
X62954087Y-47320480D01*
X63045413Y-47373207D01*
X63147273Y-47400500D01*
X63147275Y-47400500D01*
X63252725Y-47400500D01*
X63252727Y-47400500D01*
X63354587Y-47373207D01*
X63445913Y-47320480D01*
X63520480Y-47245913D01*
X63573207Y-47154587D01*
X63600500Y-47052727D01*
X63600500Y-46947273D01*
X70799500Y-46947273D01*
X70799500Y-47052727D01*
X70826793Y-47154587D01*
X70879520Y-47245913D01*
X70954087Y-47320480D01*
X71045413Y-47373207D01*
X71147273Y-47400500D01*
X71147275Y-47400500D01*
X71252725Y-47400500D01*
X71252727Y-47400500D01*
X71354587Y-47373207D01*
X71445913Y-47320480D01*
X71520480Y-47245913D01*
X71573207Y-47154587D01*
X71600500Y-47052727D01*
X71600500Y-46947273D01*
X78799500Y-46947273D01*
X78799500Y-47052727D01*
X78826793Y-47154587D01*
X78879520Y-47245913D01*
X78954087Y-47320480D01*
X79045413Y-47373207D01*
X79147273Y-47400500D01*
X79147275Y-47400500D01*
X79252725Y-47400500D01*
X79252727Y-47400500D01*
X79354587Y-47373207D01*
X79445913Y-47320480D01*
X79520480Y-47245913D01*
X79573207Y-47154587D01*
X79600500Y-47052727D01*
X79600500Y-46947273D01*
X86799500Y-46947273D01*
X86799500Y-47052727D01*
X86826793Y-47154587D01*
X86879520Y-47245913D01*
X86954087Y-47320480D01*
X87045413Y-47373207D01*
X87147273Y-47400500D01*
X87147275Y-47400500D01*
X87252725Y-47400500D01*
X87252727Y-47400500D01*
X87354587Y-47373207D01*
X87445913Y-47320480D01*
X87520480Y-47245913D01*
X87573207Y-47154587D01*
X87600500Y-47052727D01*
X87600500Y-46947273D01*
X87573207Y-46845413D01*
X87520480Y-46754087D01*
X87445913Y-46679520D01*
X87354587Y-46626793D01*
X87252727Y-46599500D01*
X87147273Y-46599500D01*
X87045413Y-46626793D01*
X87045410Y-46626794D01*
X86954085Y-46679521D01*
X86879521Y-46754085D01*
X86826794Y-46845410D01*
X86826793Y-46845413D01*
X86799500Y-46947273D01*
X79600500Y-46947273D01*
X79573207Y-46845413D01*
X79520480Y-46754087D01*
X79445913Y-46679520D01*
X79354587Y-46626793D01*
X79252727Y-46599500D01*
X79147273Y-46599500D01*
X79045413Y-46626793D01*
X79045410Y-46626794D01*
X78954085Y-46679521D01*
X78879521Y-46754085D01*
X78826794Y-46845410D01*
X78826793Y-46845413D01*
X78799500Y-46947273D01*
X71600500Y-46947273D01*
X71573207Y-46845413D01*
X71520480Y-46754087D01*
X71445913Y-46679520D01*
X71354587Y-46626793D01*
X71252727Y-46599500D01*
X71147273Y-46599500D01*
X71045413Y-46626793D01*
X71045410Y-46626794D01*
X70954085Y-46679521D01*
X70879521Y-46754085D01*
X70826794Y-46845410D01*
X70826793Y-46845413D01*
X70799500Y-46947273D01*
X63600500Y-46947273D01*
X63573207Y-46845413D01*
X63520480Y-46754087D01*
X63445913Y-46679520D01*
X63354587Y-46626793D01*
X63252727Y-46599500D01*
X63147273Y-46599500D01*
X63045413Y-46626793D01*
X63045410Y-46626794D01*
X62954085Y-46679521D01*
X62879521Y-46754085D01*
X62826794Y-46845410D01*
X62826793Y-46845413D01*
X62799500Y-46947273D01*
X55600500Y-46947273D01*
X55573207Y-46845413D01*
X55520480Y-46754087D01*
X55445913Y-46679520D01*
X55354587Y-46626793D01*
X55252727Y-46599500D01*
X55147273Y-46599500D01*
X55045413Y-46626793D01*
X55045410Y-46626794D01*
X54954085Y-46679521D01*
X54879521Y-46754085D01*
X54826794Y-46845410D01*
X54826793Y-46845413D01*
X54799500Y-46947273D01*
X52300500Y-46947273D01*
X52273207Y-46845413D01*
X52220480Y-46754087D01*
X52145913Y-46679520D01*
X52054587Y-46626793D01*
X51952727Y-46599500D01*
X51847273Y-46599500D01*
X51745413Y-46626793D01*
X51745410Y-46626794D01*
X51654085Y-46679521D01*
X51579521Y-46754085D01*
X51526794Y-46845410D01*
X51526793Y-46845413D01*
X51499500Y-46947273D01*
X49599506Y-46947273D01*
X49645913Y-46920480D01*
X49720480Y-46845913D01*
X49773207Y-46754587D01*
X49800500Y-46652727D01*
X49800500Y-46547273D01*
X49773207Y-46445413D01*
X49720480Y-46354087D01*
X49645913Y-46279520D01*
X49590059Y-46247273D01*
X56399500Y-46247273D01*
X56399500Y-46352727D01*
X56426793Y-46454587D01*
X56479520Y-46545913D01*
X56554087Y-46620480D01*
X56645413Y-46673207D01*
X56747273Y-46700500D01*
X56747275Y-46700500D01*
X56852725Y-46700500D01*
X56852727Y-46700500D01*
X56954587Y-46673207D01*
X57045913Y-46620480D01*
X57120480Y-46545913D01*
X57173207Y-46454587D01*
X57200500Y-46352727D01*
X57200500Y-46347273D01*
X67699500Y-46347273D01*
X67699500Y-46452727D01*
X67726793Y-46554587D01*
X67779520Y-46645913D01*
X67854087Y-46720480D01*
X67945413Y-46773207D01*
X68047273Y-46800500D01*
X68047275Y-46800500D01*
X68152725Y-46800500D01*
X68152727Y-46800500D01*
X68254587Y-46773207D01*
X68345913Y-46720480D01*
X68420480Y-46645913D01*
X68473207Y-46554587D01*
X68500500Y-46452727D01*
X68500500Y-46347273D01*
X68473207Y-46245413D01*
X68420480Y-46154087D01*
X68345913Y-46079520D01*
X68254587Y-46026793D01*
X68152727Y-45999500D01*
X68047273Y-45999500D01*
X67945413Y-46026793D01*
X67945410Y-46026794D01*
X67854085Y-46079521D01*
X67779521Y-46154085D01*
X67726794Y-46245410D01*
X67726793Y-46245413D01*
X67699500Y-46347273D01*
X57200500Y-46347273D01*
X57200500Y-46247273D01*
X57173207Y-46145413D01*
X57120480Y-46054087D01*
X57045913Y-45979520D01*
X56954587Y-45926793D01*
X56852727Y-45899500D01*
X56747273Y-45899500D01*
X56645413Y-45926793D01*
X56645410Y-45926794D01*
X56554085Y-45979521D01*
X56479521Y-46054085D01*
X56426794Y-46145410D01*
X56426793Y-46145413D01*
X56399500Y-46247273D01*
X49590059Y-46247273D01*
X49554587Y-46226793D01*
X49452727Y-46199500D01*
X49347273Y-46199500D01*
X49245413Y-46226793D01*
X49245410Y-46226794D01*
X49154085Y-46279521D01*
X49079521Y-46354085D01*
X49026794Y-46445410D01*
X49026793Y-46445413D01*
X48999500Y-46547273D01*
X47613593Y-46547273D01*
X47601376Y-46518742D01*
X47600499Y-46504022D01*
X47600499Y-46447275D01*
X47600499Y-46447273D01*
X47573206Y-46345413D01*
X47520479Y-46254087D01*
X47445912Y-46179520D01*
X47354586Y-46126793D01*
X47252726Y-46099500D01*
X47147272Y-46099500D01*
X47045412Y-46126793D01*
X47045409Y-46126794D01*
X46954084Y-46179521D01*
X46879520Y-46254085D01*
X46826793Y-46345410D01*
X46826792Y-46345413D01*
X46799499Y-46447273D01*
X44390059Y-46447273D01*
X44354587Y-46426793D01*
X44252727Y-46399500D01*
X44147273Y-46399500D01*
X44045413Y-46426793D01*
X44045410Y-46426794D01*
X43954085Y-46479521D01*
X43879521Y-46554085D01*
X43826794Y-46645410D01*
X43826793Y-46645413D01*
X43799500Y-46747273D01*
X42719120Y-46747273D01*
X42720480Y-46745913D01*
X42773207Y-46654587D01*
X42773208Y-46654580D01*
X42775996Y-46649753D01*
X42826564Y-46601538D01*
X42895171Y-46588316D01*
X42915470Y-46591978D01*
X42947273Y-46600500D01*
X42947275Y-46600500D01*
X43052725Y-46600500D01*
X43052727Y-46600500D01*
X43154587Y-46573207D01*
X43245913Y-46520480D01*
X43320480Y-46445913D01*
X43373207Y-46354587D01*
X43400500Y-46252727D01*
X43400500Y-46147273D01*
X43373207Y-46045413D01*
X43320480Y-45954087D01*
X43245913Y-45879520D01*
X43190059Y-45847273D01*
X44699500Y-45847273D01*
X44699500Y-45952727D01*
X44726793Y-46054587D01*
X44779520Y-46145913D01*
X44854087Y-46220480D01*
X44945413Y-46273207D01*
X45047273Y-46300500D01*
X45047275Y-46300500D01*
X45152725Y-46300500D01*
X45152727Y-46300500D01*
X45254587Y-46273207D01*
X45345913Y-46220480D01*
X45420480Y-46145913D01*
X45473207Y-46054587D01*
X45500500Y-45952727D01*
X45500500Y-45847273D01*
X45500500Y-45847270D01*
X45499633Y-45840684D01*
X45510399Y-45771649D01*
X45556780Y-45719393D01*
X45622572Y-45700500D01*
X45652725Y-45700500D01*
X45652727Y-45700500D01*
X45754587Y-45673207D01*
X45845913Y-45620480D01*
X45920480Y-45545913D01*
X45973207Y-45454587D01*
X46000500Y-45352727D01*
X46000500Y-45247273D01*
X45973207Y-45145413D01*
X45920480Y-45054087D01*
X45845913Y-44979520D01*
X45790059Y-44947273D01*
X50799500Y-44947273D01*
X50799500Y-45052727D01*
X50826793Y-45154587D01*
X50879520Y-45245913D01*
X50954087Y-45320480D01*
X51045413Y-45373207D01*
X51147273Y-45400500D01*
X51147275Y-45400500D01*
X51252725Y-45400500D01*
X51252727Y-45400500D01*
X51354587Y-45373207D01*
X51445913Y-45320480D01*
X51520480Y-45245913D01*
X51573207Y-45154587D01*
X51600500Y-45052727D01*
X51600500Y-44947273D01*
X58799500Y-44947273D01*
X58799500Y-45052727D01*
X58826793Y-45154587D01*
X58879520Y-45245913D01*
X58954087Y-45320480D01*
X59045413Y-45373207D01*
X59147273Y-45400500D01*
X59147275Y-45400500D01*
X59252725Y-45400500D01*
X59252727Y-45400500D01*
X59354587Y-45373207D01*
X59445913Y-45320480D01*
X59520480Y-45245913D01*
X59573207Y-45154587D01*
X59600500Y-45052727D01*
X59600500Y-44947273D01*
X66799500Y-44947273D01*
X66799500Y-45052727D01*
X66826793Y-45154587D01*
X66879520Y-45245913D01*
X66954087Y-45320480D01*
X67045413Y-45373207D01*
X67147273Y-45400500D01*
X67147275Y-45400500D01*
X67252725Y-45400500D01*
X67252727Y-45400500D01*
X67354587Y-45373207D01*
X67445913Y-45320480D01*
X67520480Y-45245913D01*
X67573207Y-45154587D01*
X67600500Y-45052727D01*
X67600500Y-44947273D01*
X74799500Y-44947273D01*
X74799500Y-45052727D01*
X74826793Y-45154587D01*
X74879520Y-45245913D01*
X74954087Y-45320480D01*
X75045413Y-45373207D01*
X75147273Y-45400500D01*
X75147275Y-45400500D01*
X75252725Y-45400500D01*
X75252727Y-45400500D01*
X75354587Y-45373207D01*
X75445913Y-45320480D01*
X75520480Y-45245913D01*
X75573207Y-45154587D01*
X75600500Y-45052727D01*
X75600500Y-44947273D01*
X82799500Y-44947273D01*
X82799500Y-45052727D01*
X82826793Y-45154587D01*
X82879520Y-45245913D01*
X82954087Y-45320480D01*
X83045413Y-45373207D01*
X83147273Y-45400500D01*
X83147275Y-45400500D01*
X83252725Y-45400500D01*
X83252727Y-45400500D01*
X83354587Y-45373207D01*
X83445913Y-45320480D01*
X83520480Y-45245913D01*
X83573207Y-45154587D01*
X83600500Y-45052727D01*
X83600500Y-44947273D01*
X90799500Y-44947273D01*
X90799500Y-45052727D01*
X90826793Y-45154587D01*
X90879520Y-45245913D01*
X90954087Y-45320480D01*
X91045413Y-45373207D01*
X91147273Y-45400500D01*
X91147275Y-45400500D01*
X91252725Y-45400500D01*
X91252727Y-45400500D01*
X91354587Y-45373207D01*
X91445913Y-45320480D01*
X91520480Y-45245913D01*
X91573207Y-45154587D01*
X91600500Y-45052727D01*
X91600500Y-44947273D01*
X98799500Y-44947273D01*
X98799500Y-45052727D01*
X98826793Y-45154587D01*
X98879520Y-45245913D01*
X98954087Y-45320480D01*
X99045413Y-45373207D01*
X99147273Y-45400500D01*
X99147275Y-45400500D01*
X99252725Y-45400500D01*
X99252727Y-45400500D01*
X99354587Y-45373207D01*
X99445913Y-45320480D01*
X99520480Y-45245913D01*
X99573207Y-45154587D01*
X99600500Y-45052727D01*
X99600500Y-44947273D01*
X99573207Y-44845413D01*
X99520480Y-44754087D01*
X99445913Y-44679520D01*
X99354587Y-44626793D01*
X99252727Y-44599500D01*
X99147273Y-44599500D01*
X99045413Y-44626793D01*
X99045410Y-44626794D01*
X98954085Y-44679521D01*
X98879521Y-44754085D01*
X98826794Y-44845410D01*
X98826793Y-44845413D01*
X98799500Y-44947273D01*
X91600500Y-44947273D01*
X91573207Y-44845413D01*
X91520480Y-44754087D01*
X91445913Y-44679520D01*
X91354587Y-44626793D01*
X91252727Y-44599500D01*
X91147273Y-44599500D01*
X91045413Y-44626793D01*
X91045410Y-44626794D01*
X90954085Y-44679521D01*
X90879521Y-44754085D01*
X90826794Y-44845410D01*
X90826793Y-44845413D01*
X90799500Y-44947273D01*
X83600500Y-44947273D01*
X83573207Y-44845413D01*
X83520480Y-44754087D01*
X83445913Y-44679520D01*
X83354587Y-44626793D01*
X83252727Y-44599500D01*
X83147273Y-44599500D01*
X83045413Y-44626793D01*
X83045410Y-44626794D01*
X82954085Y-44679521D01*
X82879521Y-44754085D01*
X82826794Y-44845410D01*
X82826793Y-44845413D01*
X82799500Y-44947273D01*
X75600500Y-44947273D01*
X75573207Y-44845413D01*
X75520480Y-44754087D01*
X75445913Y-44679520D01*
X75354587Y-44626793D01*
X75252727Y-44599500D01*
X75147273Y-44599500D01*
X75045413Y-44626793D01*
X75045410Y-44626794D01*
X74954085Y-44679521D01*
X74879521Y-44754085D01*
X74826794Y-44845410D01*
X74826793Y-44845413D01*
X74799500Y-44947273D01*
X67600500Y-44947273D01*
X67573207Y-44845413D01*
X67520480Y-44754087D01*
X67445913Y-44679520D01*
X67354587Y-44626793D01*
X67252727Y-44599500D01*
X67147273Y-44599500D01*
X67045413Y-44626793D01*
X67045410Y-44626794D01*
X66954085Y-44679521D01*
X66879521Y-44754085D01*
X66826794Y-44845410D01*
X66826793Y-44845413D01*
X66799500Y-44947273D01*
X59600500Y-44947273D01*
X59573207Y-44845413D01*
X59520480Y-44754087D01*
X59445913Y-44679520D01*
X59354587Y-44626793D01*
X59252727Y-44599500D01*
X59147273Y-44599500D01*
X59045413Y-44626793D01*
X59045410Y-44626794D01*
X58954085Y-44679521D01*
X58879521Y-44754085D01*
X58826794Y-44845410D01*
X58826793Y-44845413D01*
X58799500Y-44947273D01*
X51600500Y-44947273D01*
X51573207Y-44845413D01*
X51520480Y-44754087D01*
X51445913Y-44679520D01*
X51354587Y-44626793D01*
X51252727Y-44599500D01*
X51147273Y-44599500D01*
X51045413Y-44626793D01*
X51045410Y-44626794D01*
X50954085Y-44679521D01*
X50879521Y-44754085D01*
X50826794Y-44845410D01*
X50826793Y-44845413D01*
X50799500Y-44947273D01*
X45790059Y-44947273D01*
X45754587Y-44926793D01*
X45652727Y-44899500D01*
X45547273Y-44899500D01*
X45445413Y-44926793D01*
X45445410Y-44926794D01*
X45354085Y-44979521D01*
X45279521Y-45054085D01*
X45226794Y-45145410D01*
X45226793Y-45145413D01*
X45199500Y-45247273D01*
X45199500Y-45352729D01*
X45200367Y-45359316D01*
X45189601Y-45428351D01*
X45143220Y-45480607D01*
X45077428Y-45499500D01*
X45047273Y-45499500D01*
X44945413Y-45526793D01*
X44945410Y-45526794D01*
X44854085Y-45579521D01*
X44779521Y-45654085D01*
X44726794Y-45745410D01*
X44726793Y-45745413D01*
X44699500Y-45847273D01*
X43190059Y-45847273D01*
X43154587Y-45826793D01*
X43052727Y-45799500D01*
X42995977Y-45799500D01*
X42928938Y-45779815D01*
X42883183Y-45727011D01*
X42873239Y-45657853D01*
X42876199Y-45643420D01*
X42900500Y-45552727D01*
X42900500Y-45447273D01*
X42873207Y-45345413D01*
X42820480Y-45254087D01*
X42745913Y-45179520D01*
X42654587Y-45126793D01*
X42552727Y-45099500D01*
X42447273Y-45099500D01*
X42345413Y-45126793D01*
X42345410Y-45126794D01*
X42254085Y-45179521D01*
X42179521Y-45254085D01*
X42126794Y-45345410D01*
X42126793Y-45345413D01*
X42099500Y-45447273D01*
X42099500Y-45552727D01*
X42126659Y-45654085D01*
X42126793Y-45654586D01*
X42126794Y-45654589D01*
X42130596Y-45661174D01*
X42179520Y-45745913D01*
X42254087Y-45820480D01*
X42345413Y-45873207D01*
X42352452Y-45877271D01*
X42351042Y-45879712D01*
X42394788Y-45914963D01*
X42416855Y-45981257D01*
X42399577Y-46048957D01*
X42348442Y-46096568D01*
X42325029Y-46105460D01*
X42245413Y-46126793D01*
X42245410Y-46126794D01*
X42154085Y-46179521D01*
X42079521Y-46254085D01*
X42026794Y-46345410D01*
X42026793Y-46345413D01*
X41999500Y-46447273D01*
X41600500Y-46447273D01*
X41573207Y-46345413D01*
X41520480Y-46254087D01*
X41445913Y-46179520D01*
X41354587Y-46126793D01*
X41252727Y-46099500D01*
X41147273Y-46099500D01*
X41045413Y-46126793D01*
X41045410Y-46126794D01*
X40954085Y-46179521D01*
X40879521Y-46254085D01*
X40826794Y-46345410D01*
X40826793Y-46345413D01*
X40799500Y-46447273D01*
X18450500Y-46447273D01*
X18450500Y-44947273D01*
X26799500Y-44947273D01*
X26799500Y-45052727D01*
X26826793Y-45154587D01*
X26879520Y-45245913D01*
X26954087Y-45320480D01*
X27045413Y-45373207D01*
X27147273Y-45400500D01*
X27147275Y-45400500D01*
X27252725Y-45400500D01*
X27252727Y-45400500D01*
X27354587Y-45373207D01*
X27445913Y-45320480D01*
X27520480Y-45245913D01*
X27573207Y-45154587D01*
X27600500Y-45052727D01*
X27600500Y-44947273D01*
X34799500Y-44947273D01*
X34799500Y-45052727D01*
X34826793Y-45154587D01*
X34879520Y-45245913D01*
X34954087Y-45320480D01*
X35045413Y-45373207D01*
X35147273Y-45400500D01*
X35147275Y-45400500D01*
X35252725Y-45400500D01*
X35252727Y-45400500D01*
X35354587Y-45373207D01*
X35445913Y-45320480D01*
X35520480Y-45245913D01*
X35573207Y-45154587D01*
X35575167Y-45147273D01*
X37799500Y-45147273D01*
X37799500Y-45252727D01*
X37826793Y-45354587D01*
X37879520Y-45445913D01*
X37954087Y-45520480D01*
X38045413Y-45573207D01*
X38147273Y-45600500D01*
X38147275Y-45600500D01*
X38252725Y-45600500D01*
X38252727Y-45600500D01*
X38354587Y-45573207D01*
X38445913Y-45520480D01*
X38520480Y-45445913D01*
X38573207Y-45354587D01*
X38600500Y-45252727D01*
X38600500Y-45147273D01*
X38573207Y-45045413D01*
X38520480Y-44954087D01*
X38445913Y-44879520D01*
X38354587Y-44826793D01*
X38252727Y-44799500D01*
X38147273Y-44799500D01*
X38045413Y-44826793D01*
X38045410Y-44826794D01*
X37954085Y-44879521D01*
X37879521Y-44954085D01*
X37826794Y-45045410D01*
X37826793Y-45045413D01*
X37799500Y-45147273D01*
X35575167Y-45147273D01*
X35600500Y-45052727D01*
X35600500Y-44947273D01*
X35573207Y-44845413D01*
X35520480Y-44754087D01*
X35445913Y-44679520D01*
X35354587Y-44626793D01*
X35252727Y-44599500D01*
X35147273Y-44599500D01*
X35045413Y-44626793D01*
X35045410Y-44626794D01*
X34954085Y-44679521D01*
X34879521Y-44754085D01*
X34826794Y-44845410D01*
X34826793Y-44845413D01*
X34799500Y-44947273D01*
X27600500Y-44947273D01*
X27573207Y-44845413D01*
X27520480Y-44754087D01*
X27445913Y-44679520D01*
X27354587Y-44626793D01*
X27252727Y-44599500D01*
X27147273Y-44599500D01*
X27045413Y-44626793D01*
X27045410Y-44626794D01*
X26954085Y-44679521D01*
X26879521Y-44754085D01*
X26826794Y-44845410D01*
X26826793Y-44845413D01*
X26799500Y-44947273D01*
X18450500Y-44947273D01*
X18450500Y-43947273D01*
X28399500Y-43947273D01*
X28399500Y-44052727D01*
X28426793Y-44154587D01*
X28479520Y-44245913D01*
X28554087Y-44320480D01*
X28645413Y-44373207D01*
X28747273Y-44400500D01*
X28747275Y-44400500D01*
X28852725Y-44400500D01*
X28852727Y-44400500D01*
X28954587Y-44373207D01*
X28999506Y-44347273D01*
X31599500Y-44347273D01*
X31599500Y-44452727D01*
X31626793Y-44554587D01*
X31679520Y-44645913D01*
X31754087Y-44720480D01*
X31845413Y-44773207D01*
X31947273Y-44800500D01*
X31947275Y-44800500D01*
X32052725Y-44800500D01*
X32052727Y-44800500D01*
X32154587Y-44773207D01*
X32245913Y-44720480D01*
X32320480Y-44645913D01*
X32373207Y-44554587D01*
X32375167Y-44547273D01*
X36399500Y-44547273D01*
X36399500Y-44652727D01*
X36426793Y-44754587D01*
X36479520Y-44845913D01*
X36554087Y-44920480D01*
X36645413Y-44973207D01*
X36747273Y-45000500D01*
X36747275Y-45000500D01*
X36852725Y-45000500D01*
X36852727Y-45000500D01*
X36954587Y-44973207D01*
X37045913Y-44920480D01*
X37120480Y-44845913D01*
X37173207Y-44754587D01*
X37200500Y-44652727D01*
X37200500Y-44547273D01*
X37173207Y-44445413D01*
X37120480Y-44354087D01*
X37045913Y-44279520D01*
X36954587Y-44226793D01*
X36852727Y-44199500D01*
X36747273Y-44199500D01*
X36645413Y-44226793D01*
X36645410Y-44226794D01*
X36554085Y-44279521D01*
X36479521Y-44354085D01*
X36426794Y-44445410D01*
X36426793Y-44445413D01*
X36399500Y-44547273D01*
X32375167Y-44547273D01*
X32400500Y-44452727D01*
X32400500Y-44347273D01*
X32373207Y-44245413D01*
X32320480Y-44154087D01*
X32245913Y-44079520D01*
X32154587Y-44026793D01*
X32052727Y-43999500D01*
X31947273Y-43999500D01*
X31845413Y-44026793D01*
X31845410Y-44026794D01*
X31754085Y-44079521D01*
X31679521Y-44154085D01*
X31626794Y-44245410D01*
X31626793Y-44245413D01*
X31599500Y-44347273D01*
X28999506Y-44347273D01*
X29045913Y-44320480D01*
X29120480Y-44245913D01*
X29173207Y-44154587D01*
X29200500Y-44052727D01*
X29200500Y-43947273D01*
X44799500Y-43947273D01*
X44799500Y-44052727D01*
X44826793Y-44154587D01*
X44879520Y-44245913D01*
X44954087Y-44320480D01*
X45045413Y-44373207D01*
X45147273Y-44400500D01*
X45147275Y-44400500D01*
X45252725Y-44400500D01*
X45252727Y-44400500D01*
X45354587Y-44373207D01*
X45445913Y-44320480D01*
X45470438Y-44295954D01*
X45531757Y-44262471D01*
X45601449Y-44267455D01*
X45657383Y-44309325D01*
X45665503Y-44321635D01*
X45679520Y-44345913D01*
X45754087Y-44420480D01*
X45845413Y-44473207D01*
X45947273Y-44500500D01*
X45947275Y-44500500D01*
X46052725Y-44500500D01*
X46052727Y-44500500D01*
X46154587Y-44473207D01*
X46245913Y-44420480D01*
X46320480Y-44345913D01*
X46373207Y-44254587D01*
X46400500Y-44152727D01*
X46400500Y-44147273D01*
X47399500Y-44147273D01*
X47399500Y-44252727D01*
X47426793Y-44354587D01*
X47479520Y-44445913D01*
X47554087Y-44520480D01*
X47645413Y-44573207D01*
X47747273Y-44600500D01*
X47747275Y-44600500D01*
X47852725Y-44600500D01*
X47852727Y-44600500D01*
X47954587Y-44573207D01*
X48045913Y-44520480D01*
X48120480Y-44445913D01*
X48173207Y-44354587D01*
X48175167Y-44347273D01*
X53599500Y-44347273D01*
X53599500Y-44452727D01*
X53626793Y-44554587D01*
X53679520Y-44645913D01*
X53754087Y-44720480D01*
X53845413Y-44773207D01*
X53947273Y-44800500D01*
X53947275Y-44800500D01*
X54052725Y-44800500D01*
X54052727Y-44800500D01*
X54154587Y-44773207D01*
X54245913Y-44720480D01*
X54320480Y-44645913D01*
X54373207Y-44554587D01*
X54400500Y-44452727D01*
X54400500Y-44347273D01*
X54373207Y-44245413D01*
X54320480Y-44154087D01*
X54245913Y-44079520D01*
X54190059Y-44047273D01*
X95799500Y-44047273D01*
X95799500Y-44152727D01*
X95826793Y-44254587D01*
X95879520Y-44345913D01*
X95954087Y-44420480D01*
X96045413Y-44473207D01*
X96147273Y-44500500D01*
X96147275Y-44500500D01*
X96252725Y-44500500D01*
X96252727Y-44500500D01*
X96354587Y-44473207D01*
X96445913Y-44420480D01*
X96520480Y-44345913D01*
X96573207Y-44254587D01*
X96600500Y-44152727D01*
X96600500Y-44047273D01*
X96573207Y-43945413D01*
X96520480Y-43854087D01*
X96445913Y-43779520D01*
X96354587Y-43726793D01*
X96252727Y-43699500D01*
X96147273Y-43699500D01*
X96045413Y-43726793D01*
X96045410Y-43726794D01*
X95954085Y-43779521D01*
X95879521Y-43854085D01*
X95826794Y-43945410D01*
X95826793Y-43945413D01*
X95799500Y-44047273D01*
X54190059Y-44047273D01*
X54154587Y-44026793D01*
X54052727Y-43999500D01*
X53947273Y-43999500D01*
X53845413Y-44026793D01*
X53845410Y-44026794D01*
X53754085Y-44079521D01*
X53679521Y-44154085D01*
X53626794Y-44245410D01*
X53626793Y-44245413D01*
X53599500Y-44347273D01*
X48175167Y-44347273D01*
X48200500Y-44252727D01*
X48200500Y-44147273D01*
X48173207Y-44045413D01*
X48120480Y-43954087D01*
X48045913Y-43879520D01*
X47954587Y-43826793D01*
X47852727Y-43799500D01*
X47747273Y-43799500D01*
X47645413Y-43826793D01*
X47645410Y-43826794D01*
X47554085Y-43879521D01*
X47479521Y-43954085D01*
X47426794Y-44045410D01*
X47426793Y-44045413D01*
X47399500Y-44147273D01*
X46400500Y-44147273D01*
X46400500Y-44047273D01*
X46373207Y-43945413D01*
X46320480Y-43854087D01*
X46245913Y-43779520D01*
X46154587Y-43726793D01*
X46052727Y-43699500D01*
X45947273Y-43699500D01*
X45845413Y-43726793D01*
X45845410Y-43726794D01*
X45754087Y-43779520D01*
X45729562Y-43804045D01*
X45668238Y-43837529D01*
X45598547Y-43832543D01*
X45542614Y-43790671D01*
X45534500Y-43778371D01*
X45520480Y-43754087D01*
X45445913Y-43679520D01*
X45354587Y-43626793D01*
X45252727Y-43599500D01*
X45147273Y-43599500D01*
X45045413Y-43626793D01*
X45045410Y-43626794D01*
X44954085Y-43679521D01*
X44879521Y-43754085D01*
X44826794Y-43845410D01*
X44826793Y-43845413D01*
X44799500Y-43947273D01*
X29200500Y-43947273D01*
X29173207Y-43845413D01*
X29120480Y-43754087D01*
X29045913Y-43679520D01*
X28954587Y-43626793D01*
X28852727Y-43599500D01*
X28747273Y-43599500D01*
X28645413Y-43626793D01*
X28645410Y-43626794D01*
X28554085Y-43679521D01*
X28479521Y-43754085D01*
X28426794Y-43845410D01*
X28426793Y-43845413D01*
X28399500Y-43947273D01*
X18450500Y-43947273D01*
X18450500Y-42947273D01*
X22799500Y-42947273D01*
X22799500Y-43052727D01*
X22826793Y-43154587D01*
X22879520Y-43245913D01*
X22954087Y-43320480D01*
X23045413Y-43373207D01*
X23147273Y-43400500D01*
X23147275Y-43400500D01*
X23252725Y-43400500D01*
X23252727Y-43400500D01*
X23354587Y-43373207D01*
X23445913Y-43320480D01*
X23520480Y-43245913D01*
X23573207Y-43154587D01*
X23600500Y-43052727D01*
X23600500Y-42947273D01*
X30799500Y-42947273D01*
X30799500Y-43052727D01*
X30826793Y-43154587D01*
X30879520Y-43245913D01*
X30954087Y-43320480D01*
X31045413Y-43373207D01*
X31147273Y-43400500D01*
X31147275Y-43400500D01*
X31252725Y-43400500D01*
X31252727Y-43400500D01*
X31354587Y-43373207D01*
X31445913Y-43320480D01*
X31520480Y-43245913D01*
X31573207Y-43154587D01*
X31600500Y-43052727D01*
X31600500Y-43047273D01*
X35699500Y-43047273D01*
X35699500Y-43152727D01*
X35726793Y-43254587D01*
X35779520Y-43345913D01*
X35854087Y-43420480D01*
X35945413Y-43473207D01*
X36047273Y-43500500D01*
X36047275Y-43500500D01*
X36152725Y-43500500D01*
X36152727Y-43500500D01*
X36254587Y-43473207D01*
X36345913Y-43420480D01*
X36420480Y-43345913D01*
X36473207Y-43254587D01*
X36500500Y-43152727D01*
X36500500Y-43047273D01*
X36473207Y-42945413D01*
X36420480Y-42854087D01*
X36413666Y-42847273D01*
X37099500Y-42847273D01*
X37099500Y-42952727D01*
X37126793Y-43054587D01*
X37179520Y-43145913D01*
X37254087Y-43220480D01*
X37345413Y-43273207D01*
X37447273Y-43300500D01*
X37447275Y-43300500D01*
X37552723Y-43300500D01*
X37552727Y-43300500D01*
X37626629Y-43280698D01*
X37696473Y-43282361D01*
X37746399Y-43312792D01*
X37754087Y-43320480D01*
X37845413Y-43373207D01*
X37947273Y-43400500D01*
X37947275Y-43400500D01*
X38052725Y-43400500D01*
X38052727Y-43400500D01*
X38154587Y-43373207D01*
X38245913Y-43320480D01*
X38320480Y-43245913D01*
X38373207Y-43154587D01*
X38400500Y-43052727D01*
X38400500Y-42947273D01*
X38799500Y-42947273D01*
X38799500Y-43052727D01*
X38826793Y-43154587D01*
X38879520Y-43245913D01*
X38954087Y-43320480D01*
X39045413Y-43373207D01*
X39147273Y-43400500D01*
X39147275Y-43400500D01*
X39252725Y-43400500D01*
X39252727Y-43400500D01*
X39354587Y-43373207D01*
X39445913Y-43320480D01*
X39520480Y-43245913D01*
X39573207Y-43154587D01*
X39600500Y-43052727D01*
X39600500Y-42947273D01*
X45599500Y-42947273D01*
X45599500Y-43052727D01*
X45626793Y-43154587D01*
X45679520Y-43245913D01*
X45754087Y-43320480D01*
X45845413Y-43373207D01*
X45947273Y-43400500D01*
X45947275Y-43400500D01*
X46052725Y-43400500D01*
X46052727Y-43400500D01*
X46154587Y-43373207D01*
X46245913Y-43320480D01*
X46320480Y-43245913D01*
X46373207Y-43154587D01*
X46400500Y-43052727D01*
X46400500Y-42947273D01*
X50699500Y-42947273D01*
X50699500Y-43052727D01*
X50726793Y-43154587D01*
X50779520Y-43245913D01*
X50854087Y-43320480D01*
X50945413Y-43373207D01*
X51047273Y-43400500D01*
X51047275Y-43400500D01*
X51152725Y-43400500D01*
X51152727Y-43400500D01*
X51254587Y-43373207D01*
X51345913Y-43320480D01*
X51420480Y-43245913D01*
X51473207Y-43154587D01*
X51500500Y-43052727D01*
X51500500Y-42947273D01*
X51473207Y-42845413D01*
X51420480Y-42754087D01*
X51345913Y-42679520D01*
X51290059Y-42647273D01*
X53099500Y-42647273D01*
X53099500Y-42752727D01*
X53126793Y-42854587D01*
X53179520Y-42945913D01*
X53254087Y-43020480D01*
X53345413Y-43073207D01*
X53447273Y-43100500D01*
X53447275Y-43100500D01*
X53552725Y-43100500D01*
X53552727Y-43100500D01*
X53654587Y-43073207D01*
X53745913Y-43020480D01*
X53819120Y-42947273D01*
X54799500Y-42947273D01*
X54799500Y-43052727D01*
X54826793Y-43154587D01*
X54879520Y-43245913D01*
X54954087Y-43320480D01*
X55045413Y-43373207D01*
X55147273Y-43400500D01*
X55147275Y-43400500D01*
X55252725Y-43400500D01*
X55252727Y-43400500D01*
X55354587Y-43373207D01*
X55445913Y-43320480D01*
X55520480Y-43245913D01*
X55573207Y-43154587D01*
X55600500Y-43052727D01*
X55600500Y-42947273D01*
X62799500Y-42947273D01*
X62799500Y-43052727D01*
X62826793Y-43154587D01*
X62879520Y-43245913D01*
X62954087Y-43320480D01*
X63045413Y-43373207D01*
X63147273Y-43400500D01*
X63147275Y-43400500D01*
X63252725Y-43400500D01*
X63252727Y-43400500D01*
X63354587Y-43373207D01*
X63445913Y-43320480D01*
X63520480Y-43245913D01*
X63573207Y-43154587D01*
X63600500Y-43052727D01*
X63600500Y-42947273D01*
X70799500Y-42947273D01*
X70799500Y-43052727D01*
X70826793Y-43154587D01*
X70879520Y-43245913D01*
X70954087Y-43320480D01*
X71045413Y-43373207D01*
X71147273Y-43400500D01*
X71147275Y-43400500D01*
X71252725Y-43400500D01*
X71252727Y-43400500D01*
X71354587Y-43373207D01*
X71445913Y-43320480D01*
X71520480Y-43245913D01*
X71573207Y-43154587D01*
X71600500Y-43052727D01*
X71600500Y-42947273D01*
X78799500Y-42947273D01*
X78799500Y-43052727D01*
X78826793Y-43154587D01*
X78879520Y-43245913D01*
X78954087Y-43320480D01*
X79045413Y-43373207D01*
X79147273Y-43400500D01*
X79147275Y-43400500D01*
X79252725Y-43400500D01*
X79252727Y-43400500D01*
X79354587Y-43373207D01*
X79445913Y-43320480D01*
X79520480Y-43245913D01*
X79573207Y-43154587D01*
X79600500Y-43052727D01*
X79600500Y-42947273D01*
X86799500Y-42947273D01*
X86799500Y-43052727D01*
X86826793Y-43154587D01*
X86879520Y-43245913D01*
X86954087Y-43320480D01*
X87045413Y-43373207D01*
X87147273Y-43400500D01*
X87147275Y-43400500D01*
X87252725Y-43400500D01*
X87252727Y-43400500D01*
X87354587Y-43373207D01*
X87445913Y-43320480D01*
X87520480Y-43245913D01*
X87573207Y-43154587D01*
X87600500Y-43052727D01*
X87600500Y-42947273D01*
X94799500Y-42947273D01*
X94799500Y-43052727D01*
X94826793Y-43154587D01*
X94879520Y-43245913D01*
X94954087Y-43320480D01*
X95045413Y-43373207D01*
X95147273Y-43400500D01*
X95147275Y-43400500D01*
X95252725Y-43400500D01*
X95252727Y-43400500D01*
X95354587Y-43373207D01*
X95445913Y-43320480D01*
X95520480Y-43245913D01*
X95573207Y-43154587D01*
X95600500Y-43052727D01*
X95600500Y-42947273D01*
X95573207Y-42845413D01*
X95520480Y-42754087D01*
X95445913Y-42679520D01*
X95354587Y-42626793D01*
X95252727Y-42599500D01*
X95147273Y-42599500D01*
X95045413Y-42626793D01*
X95045410Y-42626794D01*
X94954085Y-42679521D01*
X94879521Y-42754085D01*
X94826794Y-42845410D01*
X94826793Y-42845413D01*
X94799500Y-42947273D01*
X87600500Y-42947273D01*
X87573207Y-42845413D01*
X87520480Y-42754087D01*
X87445913Y-42679520D01*
X87354587Y-42626793D01*
X87252727Y-42599500D01*
X87147273Y-42599500D01*
X87045413Y-42626793D01*
X87045410Y-42626794D01*
X86954085Y-42679521D01*
X86879521Y-42754085D01*
X86826794Y-42845410D01*
X86826793Y-42845413D01*
X86799500Y-42947273D01*
X79600500Y-42947273D01*
X79573207Y-42845413D01*
X79520480Y-42754087D01*
X79445913Y-42679520D01*
X79354587Y-42626793D01*
X79252727Y-42599500D01*
X79147273Y-42599500D01*
X79045413Y-42626793D01*
X79045410Y-42626794D01*
X78954085Y-42679521D01*
X78879521Y-42754085D01*
X78826794Y-42845410D01*
X78826793Y-42845413D01*
X78799500Y-42947273D01*
X71600500Y-42947273D01*
X71573207Y-42845413D01*
X71520480Y-42754087D01*
X71445913Y-42679520D01*
X71354587Y-42626793D01*
X71252727Y-42599500D01*
X71147273Y-42599500D01*
X71045413Y-42626793D01*
X71045410Y-42626794D01*
X70954085Y-42679521D01*
X70879521Y-42754085D01*
X70826794Y-42845410D01*
X70826793Y-42845413D01*
X70799500Y-42947273D01*
X63600500Y-42947273D01*
X63573207Y-42845413D01*
X63520480Y-42754087D01*
X63445913Y-42679520D01*
X63354587Y-42626793D01*
X63252727Y-42599500D01*
X63147273Y-42599500D01*
X63045413Y-42626793D01*
X63045410Y-42626794D01*
X62954085Y-42679521D01*
X62879521Y-42754085D01*
X62826794Y-42845410D01*
X62826793Y-42845413D01*
X62799500Y-42947273D01*
X55600500Y-42947273D01*
X55573207Y-42845413D01*
X55520480Y-42754087D01*
X55445913Y-42679520D01*
X55354587Y-42626793D01*
X55252727Y-42599500D01*
X55147273Y-42599500D01*
X55045413Y-42626793D01*
X55045410Y-42626794D01*
X54954085Y-42679521D01*
X54879521Y-42754085D01*
X54826794Y-42845410D01*
X54826793Y-42845413D01*
X54799500Y-42947273D01*
X53819120Y-42947273D01*
X53820480Y-42945913D01*
X53873207Y-42854587D01*
X53900500Y-42752727D01*
X53900500Y-42647273D01*
X53873207Y-42545413D01*
X53820480Y-42454087D01*
X53745913Y-42379520D01*
X53654587Y-42326793D01*
X53552727Y-42299500D01*
X53447273Y-42299500D01*
X53345413Y-42326793D01*
X53345410Y-42326794D01*
X53254085Y-42379521D01*
X53179521Y-42454085D01*
X53126794Y-42545410D01*
X53126793Y-42545413D01*
X53099500Y-42647273D01*
X51290059Y-42647273D01*
X51254587Y-42626793D01*
X51152727Y-42599500D01*
X51047273Y-42599500D01*
X50945413Y-42626793D01*
X50945410Y-42626794D01*
X50854085Y-42679521D01*
X50779521Y-42754085D01*
X50726794Y-42845410D01*
X50726793Y-42845413D01*
X50699500Y-42947273D01*
X46400500Y-42947273D01*
X46373207Y-42845413D01*
X46320480Y-42754087D01*
X46245913Y-42679520D01*
X46154587Y-42626793D01*
X46052727Y-42599500D01*
X45947273Y-42599500D01*
X45845413Y-42626793D01*
X45845410Y-42626794D01*
X45754085Y-42679521D01*
X45679521Y-42754085D01*
X45626794Y-42845410D01*
X45626793Y-42845413D01*
X45599500Y-42947273D01*
X39600500Y-42947273D01*
X39573207Y-42845413D01*
X39520480Y-42754087D01*
X39445913Y-42679520D01*
X39354587Y-42626793D01*
X39252727Y-42599500D01*
X39147273Y-42599500D01*
X39045413Y-42626793D01*
X39045410Y-42626794D01*
X38954085Y-42679521D01*
X38879521Y-42754085D01*
X38826794Y-42845410D01*
X38826793Y-42845413D01*
X38799500Y-42947273D01*
X38400500Y-42947273D01*
X38373207Y-42845413D01*
X38320480Y-42754087D01*
X38245913Y-42679520D01*
X38154587Y-42626793D01*
X38154585Y-42626792D01*
X38138979Y-42622611D01*
X38128393Y-42619774D01*
X38068733Y-42583411D01*
X38038203Y-42520564D01*
X38046497Y-42451188D01*
X38090982Y-42397310D01*
X38128392Y-42380225D01*
X38154587Y-42373207D01*
X38245913Y-42320480D01*
X38320480Y-42245913D01*
X38373207Y-42154587D01*
X38400500Y-42052727D01*
X38400500Y-41947273D01*
X45099500Y-41947273D01*
X45099500Y-42052727D01*
X45126793Y-42154587D01*
X45179520Y-42245913D01*
X45254087Y-42320480D01*
X45345413Y-42373207D01*
X45447273Y-42400500D01*
X45447275Y-42400500D01*
X45552725Y-42400500D01*
X45552727Y-42400500D01*
X45654587Y-42373207D01*
X45745913Y-42320480D01*
X45820480Y-42245913D01*
X45873207Y-42154587D01*
X45900500Y-42052727D01*
X45900500Y-42047273D01*
X48899500Y-42047273D01*
X48899500Y-42152727D01*
X48926793Y-42254587D01*
X48979520Y-42345913D01*
X49054087Y-42420480D01*
X49145413Y-42473207D01*
X49247273Y-42500500D01*
X49247275Y-42500500D01*
X49352725Y-42500500D01*
X49352727Y-42500500D01*
X49454587Y-42473207D01*
X49545913Y-42420480D01*
X49620480Y-42345913D01*
X49673207Y-42254587D01*
X49673440Y-42253715D01*
X49673837Y-42253064D01*
X49676316Y-42247080D01*
X49677248Y-42247466D01*
X49709800Y-42194055D01*
X49772644Y-42163521D01*
X49840666Y-42171241D01*
X49845409Y-42173205D01*
X49845413Y-42173207D01*
X49947273Y-42200500D01*
X49947275Y-42200500D01*
X50052725Y-42200500D01*
X50052727Y-42200500D01*
X50154587Y-42173207D01*
X50245913Y-42120480D01*
X50320480Y-42045913D01*
X50373207Y-41954587D01*
X50375167Y-41947273D01*
X55399500Y-41947273D01*
X55399500Y-42052727D01*
X55426793Y-42154587D01*
X55479520Y-42245913D01*
X55554087Y-42320480D01*
X55645413Y-42373207D01*
X55747273Y-42400500D01*
X55747275Y-42400500D01*
X55852725Y-42400500D01*
X55852727Y-42400500D01*
X55954587Y-42373207D01*
X56045913Y-42320480D01*
X56120480Y-42245913D01*
X56173207Y-42154587D01*
X56200500Y-42052727D01*
X56200500Y-41947273D01*
X56173207Y-41845413D01*
X56120480Y-41754087D01*
X56045913Y-41679520D01*
X55954587Y-41626793D01*
X55852727Y-41599500D01*
X55747273Y-41599500D01*
X55645413Y-41626793D01*
X55645410Y-41626794D01*
X55554085Y-41679521D01*
X55479521Y-41754085D01*
X55426794Y-41845410D01*
X55426793Y-41845413D01*
X55399500Y-41947273D01*
X50375167Y-41947273D01*
X50400500Y-41852727D01*
X50400500Y-41747273D01*
X50373207Y-41645413D01*
X50320480Y-41554087D01*
X50245913Y-41479520D01*
X50154587Y-41426793D01*
X50052727Y-41399500D01*
X49947273Y-41399500D01*
X49845413Y-41426793D01*
X49845410Y-41426794D01*
X49754085Y-41479521D01*
X49679521Y-41554085D01*
X49626794Y-41645410D01*
X49626792Y-41645416D01*
X49626556Y-41646297D01*
X49626154Y-41646955D01*
X49623684Y-41652920D01*
X49622753Y-41652534D01*
X49590187Y-41705955D01*
X49527338Y-41736480D01*
X49459338Y-41728760D01*
X49454593Y-41726795D01*
X49454588Y-41726793D01*
X49454587Y-41726793D01*
X49352727Y-41699500D01*
X49247273Y-41699500D01*
X49145413Y-41726793D01*
X49145410Y-41726794D01*
X49054085Y-41779521D01*
X48979521Y-41854085D01*
X48926794Y-41945410D01*
X48926793Y-41945413D01*
X48899500Y-42047273D01*
X45900500Y-42047273D01*
X45900500Y-41947273D01*
X45873207Y-41845413D01*
X45820480Y-41754087D01*
X45745913Y-41679520D01*
X45654587Y-41626793D01*
X45552727Y-41599500D01*
X45447273Y-41599500D01*
X45345413Y-41626793D01*
X45345410Y-41626794D01*
X45254085Y-41679521D01*
X45179521Y-41754085D01*
X45126794Y-41845410D01*
X45126793Y-41845413D01*
X45099500Y-41947273D01*
X38400500Y-41947273D01*
X38373207Y-41845413D01*
X38320480Y-41754087D01*
X38245913Y-41679520D01*
X38154587Y-41626793D01*
X38154585Y-41626792D01*
X38138979Y-41622611D01*
X38128393Y-41619774D01*
X38068733Y-41583411D01*
X38038203Y-41520564D01*
X38046497Y-41451188D01*
X38090982Y-41397310D01*
X38128392Y-41380225D01*
X38154587Y-41373207D01*
X38245913Y-41320480D01*
X38320480Y-41245913D01*
X38373207Y-41154587D01*
X38400500Y-41052727D01*
X38400500Y-40947273D01*
X39199500Y-40947273D01*
X39199500Y-41052727D01*
X39226793Y-41154587D01*
X39279520Y-41245913D01*
X39354087Y-41320480D01*
X39445413Y-41373207D01*
X39547273Y-41400500D01*
X39547275Y-41400500D01*
X39652725Y-41400500D01*
X39652727Y-41400500D01*
X39754587Y-41373207D01*
X39845913Y-41320480D01*
X39920480Y-41245913D01*
X39973207Y-41154587D01*
X40000500Y-41052727D01*
X40000500Y-40947273D01*
X50799500Y-40947273D01*
X50799500Y-41052727D01*
X50826793Y-41154587D01*
X50879520Y-41245913D01*
X50954087Y-41320480D01*
X51045413Y-41373207D01*
X51147273Y-41400500D01*
X51147275Y-41400500D01*
X51252725Y-41400500D01*
X51252727Y-41400500D01*
X51354587Y-41373207D01*
X51445913Y-41320480D01*
X51520480Y-41245913D01*
X51573207Y-41154587D01*
X51600500Y-41052727D01*
X51600500Y-40947273D01*
X58799500Y-40947273D01*
X58799500Y-41052727D01*
X58826793Y-41154587D01*
X58879520Y-41245913D01*
X58954087Y-41320480D01*
X59045413Y-41373207D01*
X59147273Y-41400500D01*
X59147275Y-41400500D01*
X59252725Y-41400500D01*
X59252727Y-41400500D01*
X59354587Y-41373207D01*
X59445913Y-41320480D01*
X59520480Y-41245913D01*
X59573207Y-41154587D01*
X59600500Y-41052727D01*
X59600500Y-40947273D01*
X66799500Y-40947273D01*
X66799500Y-41052727D01*
X66826793Y-41154587D01*
X66879520Y-41245913D01*
X66954087Y-41320480D01*
X67045413Y-41373207D01*
X67147273Y-41400500D01*
X67147275Y-41400500D01*
X67252725Y-41400500D01*
X67252727Y-41400500D01*
X67354587Y-41373207D01*
X67445913Y-41320480D01*
X67520480Y-41245913D01*
X67573207Y-41154587D01*
X67600500Y-41052727D01*
X67600500Y-40947273D01*
X74799500Y-40947273D01*
X74799500Y-41052727D01*
X74826793Y-41154587D01*
X74879520Y-41245913D01*
X74954087Y-41320480D01*
X75045413Y-41373207D01*
X75147273Y-41400500D01*
X75147275Y-41400500D01*
X75252725Y-41400500D01*
X75252727Y-41400500D01*
X75354587Y-41373207D01*
X75445913Y-41320480D01*
X75520480Y-41245913D01*
X75573207Y-41154587D01*
X75600500Y-41052727D01*
X75600500Y-40947273D01*
X82799500Y-40947273D01*
X82799500Y-41052727D01*
X82826793Y-41154587D01*
X82879520Y-41245913D01*
X82954087Y-41320480D01*
X83045413Y-41373207D01*
X83147273Y-41400500D01*
X83147275Y-41400500D01*
X83252725Y-41400500D01*
X83252727Y-41400500D01*
X83354587Y-41373207D01*
X83445913Y-41320480D01*
X83520480Y-41245913D01*
X83573207Y-41154587D01*
X83600500Y-41052727D01*
X83600500Y-40947273D01*
X90799500Y-40947273D01*
X90799500Y-41052727D01*
X90826793Y-41154587D01*
X90879520Y-41245913D01*
X90954087Y-41320480D01*
X91045413Y-41373207D01*
X91147273Y-41400500D01*
X91147275Y-41400500D01*
X91252725Y-41400500D01*
X91252727Y-41400500D01*
X91354587Y-41373207D01*
X91445913Y-41320480D01*
X91520480Y-41245913D01*
X91573207Y-41154587D01*
X91600500Y-41052727D01*
X91600500Y-40947273D01*
X98799500Y-40947273D01*
X98799500Y-41052727D01*
X98826793Y-41154587D01*
X98879520Y-41245913D01*
X98954087Y-41320480D01*
X99045413Y-41373207D01*
X99147273Y-41400500D01*
X99147275Y-41400500D01*
X99252725Y-41400500D01*
X99252727Y-41400500D01*
X99354587Y-41373207D01*
X99445913Y-41320480D01*
X99520480Y-41245913D01*
X99573207Y-41154587D01*
X99600500Y-41052727D01*
X99600500Y-40947273D01*
X99573207Y-40845413D01*
X99520480Y-40754087D01*
X99445913Y-40679520D01*
X99354587Y-40626793D01*
X99252727Y-40599500D01*
X99147273Y-40599500D01*
X99045413Y-40626793D01*
X99045410Y-40626794D01*
X98954085Y-40679521D01*
X98879521Y-40754085D01*
X98826794Y-40845410D01*
X98826793Y-40845413D01*
X98799500Y-40947273D01*
X91600500Y-40947273D01*
X91573207Y-40845413D01*
X91520480Y-40754087D01*
X91445913Y-40679520D01*
X91354587Y-40626793D01*
X91252727Y-40599500D01*
X91147273Y-40599500D01*
X91045413Y-40626793D01*
X91045410Y-40626794D01*
X90954085Y-40679521D01*
X90879521Y-40754085D01*
X90826794Y-40845410D01*
X90826793Y-40845413D01*
X90799500Y-40947273D01*
X83600500Y-40947273D01*
X83573207Y-40845413D01*
X83520480Y-40754087D01*
X83445913Y-40679520D01*
X83354587Y-40626793D01*
X83252727Y-40599500D01*
X83147273Y-40599500D01*
X83045413Y-40626793D01*
X83045410Y-40626794D01*
X82954085Y-40679521D01*
X82879521Y-40754085D01*
X82826794Y-40845410D01*
X82826793Y-40845413D01*
X82799500Y-40947273D01*
X75600500Y-40947273D01*
X75573207Y-40845413D01*
X75520480Y-40754087D01*
X75445913Y-40679520D01*
X75354587Y-40626793D01*
X75252727Y-40599500D01*
X75147273Y-40599500D01*
X75045413Y-40626793D01*
X75045410Y-40626794D01*
X74954085Y-40679521D01*
X74879521Y-40754085D01*
X74826794Y-40845410D01*
X74826793Y-40845413D01*
X74799500Y-40947273D01*
X67600500Y-40947273D01*
X67573207Y-40845413D01*
X67520480Y-40754087D01*
X67445913Y-40679520D01*
X67354587Y-40626793D01*
X67252727Y-40599500D01*
X67147273Y-40599500D01*
X67045413Y-40626793D01*
X67045410Y-40626794D01*
X66954085Y-40679521D01*
X66879521Y-40754085D01*
X66826794Y-40845410D01*
X66826793Y-40845413D01*
X66799500Y-40947273D01*
X59600500Y-40947273D01*
X59573207Y-40845413D01*
X59520480Y-40754087D01*
X59445913Y-40679520D01*
X59354587Y-40626793D01*
X59252727Y-40599500D01*
X59147273Y-40599500D01*
X59045413Y-40626793D01*
X59045410Y-40626794D01*
X58954085Y-40679521D01*
X58879521Y-40754085D01*
X58826794Y-40845410D01*
X58826793Y-40845413D01*
X58799500Y-40947273D01*
X51600500Y-40947273D01*
X51573207Y-40845413D01*
X51520480Y-40754087D01*
X51445913Y-40679520D01*
X51354587Y-40626793D01*
X51252727Y-40599500D01*
X51147273Y-40599500D01*
X51045413Y-40626793D01*
X51045410Y-40626794D01*
X50954085Y-40679521D01*
X50879521Y-40754085D01*
X50826794Y-40845410D01*
X50826793Y-40845413D01*
X50799500Y-40947273D01*
X40000500Y-40947273D01*
X39973207Y-40845413D01*
X39920480Y-40754087D01*
X39845913Y-40679520D01*
X39754587Y-40626793D01*
X39652727Y-40599500D01*
X39547273Y-40599500D01*
X39445413Y-40626793D01*
X39445410Y-40626794D01*
X39354085Y-40679521D01*
X39279521Y-40754085D01*
X39226794Y-40845410D01*
X39226793Y-40845413D01*
X39199500Y-40947273D01*
X38400500Y-40947273D01*
X38373207Y-40845413D01*
X38320480Y-40754087D01*
X38245913Y-40679520D01*
X38154587Y-40626793D01*
X38154585Y-40626792D01*
X38138979Y-40622611D01*
X38128393Y-40619774D01*
X38068733Y-40583411D01*
X38038203Y-40520564D01*
X38046497Y-40451188D01*
X38090982Y-40397310D01*
X38128392Y-40380225D01*
X38154587Y-40373207D01*
X38245913Y-40320480D01*
X38320480Y-40245913D01*
X38373207Y-40154587D01*
X38400500Y-40052727D01*
X38400500Y-39947273D01*
X38373705Y-39847273D01*
X50699500Y-39847273D01*
X50699500Y-39952727D01*
X50726793Y-40054587D01*
X50779520Y-40145913D01*
X50854087Y-40220480D01*
X50945413Y-40273207D01*
X51047273Y-40300500D01*
X51047275Y-40300500D01*
X51152725Y-40300500D01*
X51152727Y-40300500D01*
X51254587Y-40273207D01*
X51345913Y-40220480D01*
X51420480Y-40145913D01*
X51473207Y-40054587D01*
X51500500Y-39952727D01*
X51500500Y-39947273D01*
X127699500Y-39947273D01*
X127699500Y-40052727D01*
X127726793Y-40154587D01*
X127779520Y-40245913D01*
X127854087Y-40320480D01*
X127945413Y-40373207D01*
X128047273Y-40400500D01*
X128047275Y-40400500D01*
X128152725Y-40400500D01*
X128152727Y-40400500D01*
X128254587Y-40373207D01*
X128345913Y-40320480D01*
X128420480Y-40245913D01*
X128473207Y-40154587D01*
X128500500Y-40052727D01*
X128500500Y-39947273D01*
X128473207Y-39845413D01*
X128420480Y-39754087D01*
X128345913Y-39679520D01*
X128254587Y-39626793D01*
X128152727Y-39599500D01*
X128047273Y-39599500D01*
X127945413Y-39626793D01*
X127945410Y-39626794D01*
X127854085Y-39679521D01*
X127779521Y-39754085D01*
X127726794Y-39845410D01*
X127726793Y-39845413D01*
X127699500Y-39947273D01*
X51500500Y-39947273D01*
X51500500Y-39847273D01*
X51478763Y-39766150D01*
X51477710Y-39757405D01*
X51482077Y-39731288D01*
X51482708Y-39704819D01*
X51487750Y-39697368D01*
X51489235Y-39688493D01*
X51498756Y-39678000D01*
X51444997Y-39668960D01*
X51411498Y-39645105D01*
X51345914Y-39579521D01*
X51345913Y-39579520D01*
X51254587Y-39526793D01*
X51152727Y-39499500D01*
X51047273Y-39499500D01*
X50945413Y-39526793D01*
X50945410Y-39526794D01*
X50854085Y-39579521D01*
X50779521Y-39654085D01*
X50726794Y-39745410D01*
X50726793Y-39745413D01*
X50699500Y-39847273D01*
X38373705Y-39847273D01*
X38373207Y-39845413D01*
X38320480Y-39754087D01*
X38245913Y-39679520D01*
X38154587Y-39626793D01*
X38052727Y-39599500D01*
X37947273Y-39599500D01*
X37845413Y-39626793D01*
X37845410Y-39626794D01*
X37754085Y-39679521D01*
X37679521Y-39754085D01*
X37626794Y-39845410D01*
X37626793Y-39845413D01*
X37599500Y-39947273D01*
X37599500Y-40052727D01*
X37626793Y-40154587D01*
X37679520Y-40245913D01*
X37754087Y-40320480D01*
X37845413Y-40373207D01*
X37871606Y-40380225D01*
X37931267Y-40416590D01*
X37961796Y-40479437D01*
X37953501Y-40548812D01*
X37909016Y-40602690D01*
X37871607Y-40619774D01*
X37845417Y-40626792D01*
X37845413Y-40626793D01*
X37845410Y-40626794D01*
X37754085Y-40679521D01*
X37679521Y-40754085D01*
X37626794Y-40845410D01*
X37626793Y-40845413D01*
X37599500Y-40947273D01*
X37599500Y-41052727D01*
X37626793Y-41154587D01*
X37679520Y-41245913D01*
X37754087Y-41320480D01*
X37845413Y-41373207D01*
X37871606Y-41380225D01*
X37931267Y-41416590D01*
X37961796Y-41479437D01*
X37953501Y-41548812D01*
X37909016Y-41602690D01*
X37871607Y-41619774D01*
X37845417Y-41626792D01*
X37845413Y-41626793D01*
X37845410Y-41626794D01*
X37754085Y-41679521D01*
X37679521Y-41754085D01*
X37626794Y-41845410D01*
X37626793Y-41845413D01*
X37599500Y-41947273D01*
X37599500Y-42052727D01*
X37626793Y-42154587D01*
X37652723Y-42199500D01*
X37679521Y-42245914D01*
X37745105Y-42311498D01*
X37778590Y-42372821D01*
X37773606Y-42442513D01*
X37731734Y-42498446D01*
X37666270Y-42522863D01*
X37625331Y-42518954D01*
X37552727Y-42499500D01*
X37447273Y-42499500D01*
X37345413Y-42526793D01*
X37345410Y-42526794D01*
X37254085Y-42579521D01*
X37179521Y-42654085D01*
X37126794Y-42745410D01*
X37126793Y-42745413D01*
X37099500Y-42847273D01*
X36413666Y-42847273D01*
X36345913Y-42779520D01*
X36254587Y-42726793D01*
X36152727Y-42699500D01*
X36047273Y-42699500D01*
X35945413Y-42726793D01*
X35945410Y-42726794D01*
X35854085Y-42779521D01*
X35779521Y-42854085D01*
X35726794Y-42945410D01*
X35726793Y-42945413D01*
X35699500Y-43047273D01*
X31600500Y-43047273D01*
X31600500Y-42966255D01*
X31620185Y-42899216D01*
X31672989Y-42853461D01*
X31742147Y-42843517D01*
X31805703Y-42872542D01*
X31812181Y-42878574D01*
X31854087Y-42920480D01*
X31945413Y-42973207D01*
X32047273Y-43000500D01*
X32047275Y-43000500D01*
X32152725Y-43000500D01*
X32152727Y-43000500D01*
X32254587Y-42973207D01*
X32345913Y-42920480D01*
X32420480Y-42845913D01*
X32473207Y-42754587D01*
X32500500Y-42652727D01*
X32500500Y-42547273D01*
X32473207Y-42445413D01*
X32420480Y-42354087D01*
X32345913Y-42279520D01*
X32254587Y-42226793D01*
X32152727Y-42199500D01*
X32047273Y-42199500D01*
X31945413Y-42226793D01*
X31945410Y-42226794D01*
X31854085Y-42279521D01*
X31779521Y-42354085D01*
X31726794Y-42445410D01*
X31726793Y-42445413D01*
X31699500Y-42547273D01*
X31699500Y-42633745D01*
X31679815Y-42700784D01*
X31627011Y-42746539D01*
X31557853Y-42756483D01*
X31494297Y-42727458D01*
X31487819Y-42721426D01*
X31445914Y-42679521D01*
X31445913Y-42679520D01*
X31354587Y-42626793D01*
X31252727Y-42599500D01*
X31147273Y-42599500D01*
X31045413Y-42626793D01*
X31045410Y-42626794D01*
X30954085Y-42679521D01*
X30879521Y-42754085D01*
X30826794Y-42845410D01*
X30826793Y-42845413D01*
X30799500Y-42947273D01*
X23600500Y-42947273D01*
X23573207Y-42845413D01*
X23520480Y-42754087D01*
X23445913Y-42679520D01*
X23354587Y-42626793D01*
X23252727Y-42599500D01*
X23147273Y-42599500D01*
X23045413Y-42626793D01*
X23045410Y-42626794D01*
X22954085Y-42679521D01*
X22879521Y-42754085D01*
X22826794Y-42845410D01*
X22826793Y-42845413D01*
X22799500Y-42947273D01*
X18450500Y-42947273D01*
X18450500Y-40947273D01*
X26099500Y-40947273D01*
X26099500Y-41052727D01*
X26126793Y-41154587D01*
X26179520Y-41245913D01*
X26254087Y-41320480D01*
X26345413Y-41373207D01*
X26447273Y-41400500D01*
X26447275Y-41400500D01*
X26552725Y-41400500D01*
X26552727Y-41400500D01*
X26654587Y-41373207D01*
X26745913Y-41320480D01*
X26762319Y-41304074D01*
X26823642Y-41270589D01*
X26893334Y-41275573D01*
X26937681Y-41304074D01*
X26954087Y-41320480D01*
X27045413Y-41373207D01*
X27147273Y-41400500D01*
X27147275Y-41400500D01*
X27252725Y-41400500D01*
X27252727Y-41400500D01*
X27354587Y-41373207D01*
X27445913Y-41320480D01*
X27520480Y-41245913D01*
X27573207Y-41154587D01*
X27600500Y-41052727D01*
X27600500Y-40947273D01*
X34799500Y-40947273D01*
X34799500Y-41052727D01*
X34826793Y-41154587D01*
X34879520Y-41245913D01*
X34954087Y-41320480D01*
X35045413Y-41373207D01*
X35147273Y-41400500D01*
X35147275Y-41400500D01*
X35252725Y-41400500D01*
X35252727Y-41400500D01*
X35354587Y-41373207D01*
X35445913Y-41320480D01*
X35520480Y-41245913D01*
X35573207Y-41154587D01*
X35600500Y-41052727D01*
X35600500Y-40947273D01*
X35573207Y-40845413D01*
X35520480Y-40754087D01*
X35445913Y-40679520D01*
X35354587Y-40626793D01*
X35252727Y-40599500D01*
X35147273Y-40599500D01*
X35045413Y-40626793D01*
X35045410Y-40626794D01*
X34954085Y-40679521D01*
X34879521Y-40754085D01*
X34826794Y-40845410D01*
X34826793Y-40845413D01*
X34799500Y-40947273D01*
X27600500Y-40947273D01*
X27573207Y-40845413D01*
X27520480Y-40754087D01*
X27445913Y-40679520D01*
X27354587Y-40626793D01*
X27252727Y-40599500D01*
X27147273Y-40599500D01*
X27045413Y-40626793D01*
X27045410Y-40626794D01*
X26954085Y-40679521D01*
X26937681Y-40695926D01*
X26876358Y-40729411D01*
X26806666Y-40724427D01*
X26762319Y-40695926D01*
X26745914Y-40679521D01*
X26745913Y-40679520D01*
X26654587Y-40626793D01*
X26552727Y-40599500D01*
X26447273Y-40599500D01*
X26345413Y-40626793D01*
X26345410Y-40626794D01*
X26254085Y-40679521D01*
X26179521Y-40754085D01*
X26126794Y-40845410D01*
X26126793Y-40845413D01*
X26099500Y-40947273D01*
X18450500Y-40947273D01*
X18450500Y-38947273D01*
X22799500Y-38947273D01*
X22799500Y-39052727D01*
X22826793Y-39154587D01*
X22879520Y-39245913D01*
X22954087Y-39320480D01*
X23045413Y-39373207D01*
X23147273Y-39400500D01*
X23147275Y-39400500D01*
X23252725Y-39400500D01*
X23252727Y-39400500D01*
X23354587Y-39373207D01*
X23445913Y-39320480D01*
X23520480Y-39245913D01*
X23573207Y-39154587D01*
X23600500Y-39052727D01*
X23600500Y-38947273D01*
X30799500Y-38947273D01*
X30799500Y-39052727D01*
X30826793Y-39154587D01*
X30879520Y-39245913D01*
X30954087Y-39320480D01*
X31045413Y-39373207D01*
X31147273Y-39400500D01*
X31147275Y-39400500D01*
X31252725Y-39400500D01*
X31252727Y-39400500D01*
X31354587Y-39373207D01*
X31445913Y-39320480D01*
X31520480Y-39245913D01*
X31573207Y-39154587D01*
X31600500Y-39052727D01*
X31600500Y-38947273D01*
X31600499Y-38947271D01*
X31599439Y-38939217D01*
X31602737Y-38938782D01*
X31604017Y-38884414D01*
X31629140Y-38847273D01*
X39499500Y-38847273D01*
X39499500Y-38952727D01*
X39526793Y-39054587D01*
X39579520Y-39145913D01*
X39654087Y-39220480D01*
X39745413Y-39273207D01*
X39847273Y-39300500D01*
X39847275Y-39300500D01*
X39952725Y-39300500D01*
X39952727Y-39300500D01*
X40054587Y-39273207D01*
X40145913Y-39220480D01*
X40220480Y-39145913D01*
X40273207Y-39054587D01*
X40300500Y-38952727D01*
X40300500Y-38947273D01*
X46799500Y-38947273D01*
X46799500Y-39052727D01*
X46826793Y-39154587D01*
X46879520Y-39245913D01*
X46954087Y-39320480D01*
X47045413Y-39373207D01*
X47147273Y-39400500D01*
X47147275Y-39400500D01*
X47252725Y-39400500D01*
X47252727Y-39400500D01*
X47354587Y-39373207D01*
X47399506Y-39347273D01*
X49599500Y-39347273D01*
X49599500Y-39452727D01*
X49626793Y-39554587D01*
X49679520Y-39645913D01*
X49754087Y-39720480D01*
X49845413Y-39773207D01*
X49947273Y-39800500D01*
X49947275Y-39800500D01*
X50052725Y-39800500D01*
X50052727Y-39800500D01*
X50154587Y-39773207D01*
X50245913Y-39720480D01*
X50320480Y-39645913D01*
X50373207Y-39554587D01*
X50400500Y-39452727D01*
X50400500Y-39347273D01*
X50373207Y-39245413D01*
X50320480Y-39154087D01*
X50245913Y-39079520D01*
X50154587Y-39026793D01*
X50052727Y-38999500D01*
X49947273Y-38999500D01*
X49845413Y-39026793D01*
X49845410Y-39026794D01*
X49754085Y-39079521D01*
X49679521Y-39154085D01*
X49626794Y-39245410D01*
X49626793Y-39245413D01*
X49599500Y-39347273D01*
X47399506Y-39347273D01*
X47445913Y-39320480D01*
X47520480Y-39245913D01*
X47573207Y-39154587D01*
X47600500Y-39052727D01*
X47600500Y-38947273D01*
X47573207Y-38845413D01*
X47569355Y-38838742D01*
X47552883Y-38770844D01*
X47575735Y-38704817D01*
X47630656Y-38661626D01*
X47700209Y-38654984D01*
X47738740Y-38669354D01*
X47745413Y-38673207D01*
X47847273Y-38700500D01*
X47847275Y-38700500D01*
X47952725Y-38700500D01*
X47952727Y-38700500D01*
X48054587Y-38673207D01*
X48099506Y-38647273D01*
X51399500Y-38647273D01*
X51399500Y-38752727D01*
X51426793Y-38854587D01*
X51479520Y-38945913D01*
X51554087Y-39020480D01*
X51598629Y-39046196D01*
X51646843Y-39096762D01*
X51660067Y-39165369D01*
X51644016Y-39215580D01*
X51626795Y-39245408D01*
X51626793Y-39245413D01*
X51599500Y-39347273D01*
X51599500Y-39452726D01*
X51618954Y-39525331D01*
X51617291Y-39595181D01*
X51600939Y-39619339D01*
X51603661Y-39618608D01*
X51628885Y-39626646D01*
X51655001Y-39631038D01*
X51664992Y-39638153D01*
X51670232Y-39639823D01*
X51674380Y-39644838D01*
X51688501Y-39654894D01*
X51754087Y-39720480D01*
X51845413Y-39773207D01*
X51947273Y-39800500D01*
X51947275Y-39800500D01*
X52052725Y-39800500D01*
X52052727Y-39800500D01*
X52154587Y-39773207D01*
X52245913Y-39720480D01*
X52320480Y-39645913D01*
X52373207Y-39554587D01*
X52400500Y-39452727D01*
X52400500Y-39347273D01*
X52373207Y-39245413D01*
X52320480Y-39154087D01*
X52245913Y-39079520D01*
X52201370Y-39053803D01*
X52153155Y-39003237D01*
X52139933Y-38934630D01*
X52155985Y-38884416D01*
X52155986Y-38884414D01*
X52173207Y-38854587D01*
X52200500Y-38752727D01*
X52200500Y-38647273D01*
X52173207Y-38545413D01*
X52120480Y-38454087D01*
X52045913Y-38379520D01*
X51954587Y-38326793D01*
X51852727Y-38299500D01*
X51747273Y-38299500D01*
X51645413Y-38326793D01*
X51645410Y-38326794D01*
X51554085Y-38379521D01*
X51479521Y-38454085D01*
X51426794Y-38545410D01*
X51426793Y-38545413D01*
X51399500Y-38647273D01*
X48099506Y-38647273D01*
X48145913Y-38620480D01*
X48220480Y-38545913D01*
X48273207Y-38454587D01*
X48300500Y-38352727D01*
X48300500Y-38247273D01*
X48273705Y-38147273D01*
X49599500Y-38147273D01*
X49599500Y-38252727D01*
X49626793Y-38354587D01*
X49679520Y-38445913D01*
X49754087Y-38520480D01*
X49845413Y-38573207D01*
X49947273Y-38600500D01*
X49947275Y-38600500D01*
X50052725Y-38600500D01*
X50052727Y-38600500D01*
X50154587Y-38573207D01*
X50245913Y-38520480D01*
X50320480Y-38445913D01*
X50373207Y-38354587D01*
X50400500Y-38252727D01*
X50400500Y-38147273D01*
X54199500Y-38147273D01*
X54199500Y-38252727D01*
X54226793Y-38354587D01*
X54279520Y-38445913D01*
X54354087Y-38520480D01*
X54445413Y-38573207D01*
X54547273Y-38600500D01*
X54547275Y-38600500D01*
X54652724Y-38600500D01*
X54652727Y-38600500D01*
X54736769Y-38577981D01*
X54806616Y-38579644D01*
X54864479Y-38618806D01*
X54891983Y-38683035D01*
X54880397Y-38751937D01*
X54876247Y-38759756D01*
X54826794Y-38845410D01*
X54826793Y-38845413D01*
X54799500Y-38947273D01*
X54799500Y-39052727D01*
X54826793Y-39154587D01*
X54879520Y-39245913D01*
X54954087Y-39320480D01*
X55045413Y-39373207D01*
X55147273Y-39400500D01*
X55147275Y-39400500D01*
X55252725Y-39400500D01*
X55252727Y-39400500D01*
X55354587Y-39373207D01*
X55445913Y-39320480D01*
X55520480Y-39245913D01*
X55573207Y-39154587D01*
X55600500Y-39052727D01*
X55600500Y-38947273D01*
X62799500Y-38947273D01*
X62799500Y-39052727D01*
X62826793Y-39154587D01*
X62879520Y-39245913D01*
X62954087Y-39320480D01*
X63045413Y-39373207D01*
X63147273Y-39400500D01*
X63147275Y-39400500D01*
X63252725Y-39400500D01*
X63252727Y-39400500D01*
X63354587Y-39373207D01*
X63445913Y-39320480D01*
X63520480Y-39245913D01*
X63573207Y-39154587D01*
X63600500Y-39052727D01*
X63600500Y-38947273D01*
X70799500Y-38947273D01*
X70799500Y-39052727D01*
X70826793Y-39154587D01*
X70879520Y-39245913D01*
X70954087Y-39320480D01*
X71045413Y-39373207D01*
X71147273Y-39400500D01*
X71147275Y-39400500D01*
X71252725Y-39400500D01*
X71252727Y-39400500D01*
X71354587Y-39373207D01*
X71445913Y-39320480D01*
X71520480Y-39245913D01*
X71573207Y-39154587D01*
X71600500Y-39052727D01*
X71600500Y-38947273D01*
X78799500Y-38947273D01*
X78799500Y-39052727D01*
X78826793Y-39154587D01*
X78879520Y-39245913D01*
X78954087Y-39320480D01*
X79045413Y-39373207D01*
X79147273Y-39400500D01*
X79147275Y-39400500D01*
X79252725Y-39400500D01*
X79252727Y-39400500D01*
X79354587Y-39373207D01*
X79445913Y-39320480D01*
X79520480Y-39245913D01*
X79573207Y-39154587D01*
X79600500Y-39052727D01*
X79600500Y-38947273D01*
X86799500Y-38947273D01*
X86799500Y-39052727D01*
X86826793Y-39154587D01*
X86879520Y-39245913D01*
X86954087Y-39320480D01*
X87045413Y-39373207D01*
X87147273Y-39400500D01*
X87147275Y-39400500D01*
X87252725Y-39400500D01*
X87252727Y-39400500D01*
X87354587Y-39373207D01*
X87445913Y-39320480D01*
X87520480Y-39245913D01*
X87573207Y-39154587D01*
X87600500Y-39052727D01*
X87600500Y-38947273D01*
X94799500Y-38947273D01*
X94799500Y-39052727D01*
X94826793Y-39154587D01*
X94879520Y-39245913D01*
X94954087Y-39320480D01*
X95045413Y-39373207D01*
X95147273Y-39400500D01*
X95147275Y-39400500D01*
X95252725Y-39400500D01*
X95252727Y-39400500D01*
X95354587Y-39373207D01*
X95445913Y-39320480D01*
X95520480Y-39245913D01*
X95573207Y-39154587D01*
X95600500Y-39052727D01*
X95600500Y-38947273D01*
X126799500Y-38947273D01*
X126799500Y-39052727D01*
X126826793Y-39154587D01*
X126879520Y-39245913D01*
X126954087Y-39320480D01*
X127045413Y-39373207D01*
X127147273Y-39400500D01*
X127147275Y-39400500D01*
X127252725Y-39400500D01*
X127252727Y-39400500D01*
X127354587Y-39373207D01*
X127445913Y-39320480D01*
X127520480Y-39245913D01*
X127573207Y-39154587D01*
X127600500Y-39052727D01*
X127600500Y-38947273D01*
X127573207Y-38845413D01*
X127520480Y-38754087D01*
X127445913Y-38679520D01*
X127361257Y-38630644D01*
X127354589Y-38626794D01*
X127354588Y-38626793D01*
X127354587Y-38626793D01*
X127252727Y-38599500D01*
X127147273Y-38599500D01*
X127045413Y-38626793D01*
X127045410Y-38626794D01*
X126954085Y-38679521D01*
X126879521Y-38754085D01*
X126826794Y-38845410D01*
X126826793Y-38845413D01*
X126799500Y-38947273D01*
X95600500Y-38947273D01*
X95573207Y-38845413D01*
X95520480Y-38754087D01*
X95445913Y-38679520D01*
X95361257Y-38630644D01*
X95354589Y-38626794D01*
X95354588Y-38626793D01*
X95354587Y-38626793D01*
X95252727Y-38599500D01*
X95147273Y-38599500D01*
X95045413Y-38626793D01*
X95045410Y-38626794D01*
X94954085Y-38679521D01*
X94879521Y-38754085D01*
X94826794Y-38845410D01*
X94826793Y-38845413D01*
X94799500Y-38947273D01*
X87600500Y-38947273D01*
X87573207Y-38845413D01*
X87520480Y-38754087D01*
X87445913Y-38679520D01*
X87361257Y-38630644D01*
X87354589Y-38626794D01*
X87354588Y-38626793D01*
X87354587Y-38626793D01*
X87252727Y-38599500D01*
X87147273Y-38599500D01*
X87045413Y-38626793D01*
X87045410Y-38626794D01*
X86954085Y-38679521D01*
X86879521Y-38754085D01*
X86826794Y-38845410D01*
X86826793Y-38845413D01*
X86799500Y-38947273D01*
X79600500Y-38947273D01*
X79573207Y-38845413D01*
X79520480Y-38754087D01*
X79445913Y-38679520D01*
X79361257Y-38630644D01*
X79354589Y-38626794D01*
X79354588Y-38626793D01*
X79354587Y-38626793D01*
X79252727Y-38599500D01*
X79147273Y-38599500D01*
X79045413Y-38626793D01*
X79045410Y-38626794D01*
X78954085Y-38679521D01*
X78879521Y-38754085D01*
X78826794Y-38845410D01*
X78826793Y-38845413D01*
X78799500Y-38947273D01*
X71600500Y-38947273D01*
X71573207Y-38845413D01*
X71520480Y-38754087D01*
X71445913Y-38679520D01*
X71361257Y-38630644D01*
X71354589Y-38626794D01*
X71354588Y-38626793D01*
X71354587Y-38626793D01*
X71252727Y-38599500D01*
X71147273Y-38599500D01*
X71045413Y-38626793D01*
X71045410Y-38626794D01*
X70954085Y-38679521D01*
X70879521Y-38754085D01*
X70826794Y-38845410D01*
X70826793Y-38845413D01*
X70799500Y-38947273D01*
X63600500Y-38947273D01*
X63573207Y-38845413D01*
X63520480Y-38754087D01*
X63445913Y-38679520D01*
X63361257Y-38630644D01*
X63354589Y-38626794D01*
X63354588Y-38626793D01*
X63354587Y-38626793D01*
X63252727Y-38599500D01*
X63147273Y-38599500D01*
X63045413Y-38626793D01*
X63045410Y-38626794D01*
X62954085Y-38679521D01*
X62879521Y-38754085D01*
X62826794Y-38845410D01*
X62826793Y-38845413D01*
X62799500Y-38947273D01*
X55600500Y-38947273D01*
X55573207Y-38845413D01*
X55520480Y-38754087D01*
X55445913Y-38679520D01*
X55361257Y-38630644D01*
X55354589Y-38626794D01*
X55354588Y-38626793D01*
X55354587Y-38626793D01*
X55252727Y-38599500D01*
X55147273Y-38599500D01*
X55147271Y-38599500D01*
X55063231Y-38622018D01*
X54993381Y-38620355D01*
X54935519Y-38581191D01*
X54908016Y-38516963D01*
X54919603Y-38448061D01*
X54923739Y-38440266D01*
X54973207Y-38354587D01*
X55000500Y-38252727D01*
X55000500Y-38147273D01*
X54977981Y-38063230D01*
X54979644Y-37993383D01*
X55018807Y-37935520D01*
X55083035Y-37908016D01*
X55151937Y-37919602D01*
X55159723Y-37923734D01*
X55245413Y-37973207D01*
X55347273Y-38000500D01*
X55347275Y-38000500D01*
X55452725Y-38000500D01*
X55452727Y-38000500D01*
X55554587Y-37973207D01*
X55645913Y-37920480D01*
X55720480Y-37845913D01*
X55773207Y-37754587D01*
X55800500Y-37652727D01*
X55800500Y-37547273D01*
X55773207Y-37445413D01*
X55720480Y-37354087D01*
X55645913Y-37279520D01*
X55554587Y-37226793D01*
X55452727Y-37199500D01*
X55347273Y-37199500D01*
X55245413Y-37226793D01*
X55245410Y-37226794D01*
X55154085Y-37279521D01*
X55079521Y-37354085D01*
X55026794Y-37445410D01*
X55026793Y-37445413D01*
X54999500Y-37547273D01*
X54999500Y-37652726D01*
X55022018Y-37736767D01*
X55020355Y-37806617D01*
X54981192Y-37864480D01*
X54916963Y-37891983D01*
X54848061Y-37880396D01*
X54840255Y-37876253D01*
X54754587Y-37826793D01*
X54652727Y-37799500D01*
X54547273Y-37799500D01*
X54445413Y-37826793D01*
X54445410Y-37826794D01*
X54354085Y-37879521D01*
X54279521Y-37954085D01*
X54226794Y-38045410D01*
X54226793Y-38045413D01*
X54199500Y-38147273D01*
X50400500Y-38147273D01*
X50373207Y-38045413D01*
X50320480Y-37954087D01*
X50245913Y-37879520D01*
X50154587Y-37826793D01*
X50052727Y-37799500D01*
X49947273Y-37799500D01*
X49845413Y-37826793D01*
X49845410Y-37826794D01*
X49754085Y-37879521D01*
X49679521Y-37954085D01*
X49626794Y-38045410D01*
X49626793Y-38045413D01*
X49599500Y-38147273D01*
X48273705Y-38147273D01*
X48273207Y-38145413D01*
X48220480Y-38054087D01*
X48145913Y-37979520D01*
X48054587Y-37926793D01*
X47952727Y-37899500D01*
X47847273Y-37899500D01*
X47745413Y-37926793D01*
X47745410Y-37926794D01*
X47654085Y-37979521D01*
X47579521Y-38054085D01*
X47526794Y-38145410D01*
X47526794Y-38145411D01*
X47526793Y-38145413D01*
X47499500Y-38247273D01*
X47499500Y-38352727D01*
X47526659Y-38454085D01*
X47526793Y-38454586D01*
X47526795Y-38454591D01*
X47530644Y-38461258D01*
X47547115Y-38529158D01*
X47524262Y-38595185D01*
X47469340Y-38638374D01*
X47399787Y-38645015D01*
X47361258Y-38630644D01*
X47354591Y-38626795D01*
X47354589Y-38626794D01*
X47354587Y-38626793D01*
X47252727Y-38599500D01*
X47147273Y-38599500D01*
X47045413Y-38626793D01*
X47045410Y-38626794D01*
X46954085Y-38679521D01*
X46879521Y-38754085D01*
X46826794Y-38845410D01*
X46826793Y-38845413D01*
X46799500Y-38947273D01*
X40300500Y-38947273D01*
X40300500Y-38847273D01*
X40273207Y-38745413D01*
X40220480Y-38654087D01*
X40145913Y-38579520D01*
X40079059Y-38540922D01*
X40054589Y-38526794D01*
X40054588Y-38526793D01*
X40054587Y-38526793D01*
X39952727Y-38499500D01*
X39847273Y-38499500D01*
X39745413Y-38526793D01*
X39745410Y-38526794D01*
X39654085Y-38579521D01*
X39579521Y-38654085D01*
X39526794Y-38745410D01*
X39526793Y-38745413D01*
X39499500Y-38847273D01*
X31629140Y-38847273D01*
X31643164Y-38826541D01*
X31707385Y-38799020D01*
X31738974Y-38801279D01*
X31739217Y-38799439D01*
X31747271Y-38800499D01*
X31747273Y-38800500D01*
X31747275Y-38800500D01*
X31852725Y-38800500D01*
X31852727Y-38800500D01*
X31954587Y-38773207D01*
X32045913Y-38720480D01*
X32120480Y-38645913D01*
X32173207Y-38554587D01*
X32200500Y-38452727D01*
X32200500Y-38347273D01*
X32173207Y-38245413D01*
X32120480Y-38154087D01*
X32045913Y-38079520D01*
X31979059Y-38040922D01*
X31954589Y-38026794D01*
X31954588Y-38026793D01*
X31954587Y-38026793D01*
X31852727Y-37999500D01*
X31747273Y-37999500D01*
X31645413Y-38026793D01*
X31645410Y-38026794D01*
X31554085Y-38079521D01*
X31479521Y-38154085D01*
X31426794Y-38245410D01*
X31426793Y-38245413D01*
X31399500Y-38347273D01*
X31399500Y-38452725D01*
X31400561Y-38460783D01*
X31397276Y-38461215D01*
X31395953Y-38515675D01*
X31356762Y-38573518D01*
X31292520Y-38600990D01*
X31261023Y-38598737D01*
X31260783Y-38600561D01*
X31252728Y-38599500D01*
X31252727Y-38599500D01*
X31147273Y-38599500D01*
X31045413Y-38626793D01*
X31045410Y-38626794D01*
X30954085Y-38679521D01*
X30879521Y-38754085D01*
X30826794Y-38845410D01*
X30826793Y-38845413D01*
X30799500Y-38947273D01*
X23600500Y-38947273D01*
X23573207Y-38845413D01*
X23520480Y-38754087D01*
X23445913Y-38679520D01*
X23361257Y-38630644D01*
X23354589Y-38626794D01*
X23354588Y-38626793D01*
X23354587Y-38626793D01*
X23252727Y-38599500D01*
X23147273Y-38599500D01*
X23045413Y-38626793D01*
X23045410Y-38626794D01*
X22954085Y-38679521D01*
X22879521Y-38754085D01*
X22826794Y-38845410D01*
X22826793Y-38845413D01*
X22799500Y-38947273D01*
X18450500Y-38947273D01*
X18450500Y-37647273D01*
X50599500Y-37647273D01*
X50599500Y-37752727D01*
X50626793Y-37854587D01*
X50679520Y-37945913D01*
X50754087Y-38020480D01*
X50845413Y-38073207D01*
X50947273Y-38100500D01*
X50947275Y-38100500D01*
X51052725Y-38100500D01*
X51052727Y-38100500D01*
X51154587Y-38073207D01*
X51245913Y-38020480D01*
X51320480Y-37945913D01*
X51373207Y-37854587D01*
X51400500Y-37752727D01*
X51400500Y-37647273D01*
X51373705Y-37547273D01*
X51699500Y-37547273D01*
X51699500Y-37652727D01*
X51726793Y-37754587D01*
X51779520Y-37845913D01*
X51854087Y-37920480D01*
X51945413Y-37973207D01*
X52047273Y-38000500D01*
X52047275Y-38000500D01*
X52152725Y-38000500D01*
X52152727Y-38000500D01*
X52254587Y-37973207D01*
X52345913Y-37920480D01*
X52420480Y-37845913D01*
X52473207Y-37754587D01*
X52500500Y-37652727D01*
X52500500Y-37547273D01*
X53099500Y-37547273D01*
X53099500Y-37652727D01*
X53126793Y-37754587D01*
X53179520Y-37845913D01*
X53254087Y-37920480D01*
X53345413Y-37973207D01*
X53447273Y-38000500D01*
X53447275Y-38000500D01*
X53552725Y-38000500D01*
X53552727Y-38000500D01*
X53654587Y-37973207D01*
X53745913Y-37920480D01*
X53820480Y-37845913D01*
X53873207Y-37754587D01*
X53900500Y-37652727D01*
X53900500Y-37547273D01*
X53873207Y-37445413D01*
X53820480Y-37354087D01*
X53745913Y-37279520D01*
X53654587Y-37226793D01*
X53552727Y-37199500D01*
X53447273Y-37199500D01*
X53345413Y-37226793D01*
X53345410Y-37226794D01*
X53254085Y-37279521D01*
X53179521Y-37354085D01*
X53126794Y-37445410D01*
X53126793Y-37445413D01*
X53099500Y-37547273D01*
X52500500Y-37547273D01*
X52473207Y-37445413D01*
X52420480Y-37354087D01*
X52345913Y-37279520D01*
X52254587Y-37226793D01*
X52152727Y-37199500D01*
X52047273Y-37199500D01*
X51945413Y-37226793D01*
X51945410Y-37226794D01*
X51854085Y-37279521D01*
X51779521Y-37354085D01*
X51726794Y-37445410D01*
X51726793Y-37445413D01*
X51699500Y-37547273D01*
X51373705Y-37547273D01*
X51373207Y-37545413D01*
X51355983Y-37515581D01*
X51339511Y-37447682D01*
X51362363Y-37381655D01*
X51401366Y-37346198D01*
X51445913Y-37320480D01*
X51520480Y-37245913D01*
X51573207Y-37154587D01*
X51600500Y-37052727D01*
X51600500Y-36947273D01*
X58799500Y-36947273D01*
X58799500Y-37052727D01*
X58826793Y-37154587D01*
X58879520Y-37245913D01*
X58954087Y-37320480D01*
X59045413Y-37373207D01*
X59147273Y-37400500D01*
X59147275Y-37400500D01*
X59252725Y-37400500D01*
X59252727Y-37400500D01*
X59354587Y-37373207D01*
X59445913Y-37320480D01*
X59520480Y-37245913D01*
X59573207Y-37154587D01*
X59600500Y-37052727D01*
X59600500Y-36947273D01*
X66799500Y-36947273D01*
X66799500Y-37052727D01*
X66826793Y-37154587D01*
X66879520Y-37245913D01*
X66954087Y-37320480D01*
X67045413Y-37373207D01*
X67147273Y-37400500D01*
X67147275Y-37400500D01*
X67252725Y-37400500D01*
X67252727Y-37400500D01*
X67354587Y-37373207D01*
X67445913Y-37320480D01*
X67520480Y-37245913D01*
X67573207Y-37154587D01*
X67600500Y-37052727D01*
X67600500Y-36947273D01*
X74799500Y-36947273D01*
X74799500Y-37052727D01*
X74826793Y-37154587D01*
X74879520Y-37245913D01*
X74954087Y-37320480D01*
X75045413Y-37373207D01*
X75147273Y-37400500D01*
X75147275Y-37400500D01*
X75252725Y-37400500D01*
X75252727Y-37400500D01*
X75354587Y-37373207D01*
X75445913Y-37320480D01*
X75520480Y-37245913D01*
X75573207Y-37154587D01*
X75600500Y-37052727D01*
X75600500Y-36947273D01*
X82799500Y-36947273D01*
X82799500Y-37052727D01*
X82826793Y-37154587D01*
X82879520Y-37245913D01*
X82954087Y-37320480D01*
X83045413Y-37373207D01*
X83147273Y-37400500D01*
X83147275Y-37400500D01*
X83252725Y-37400500D01*
X83252727Y-37400500D01*
X83354587Y-37373207D01*
X83445913Y-37320480D01*
X83520480Y-37245913D01*
X83573207Y-37154587D01*
X83600500Y-37052727D01*
X83600500Y-36947273D01*
X90799500Y-36947273D01*
X90799500Y-37052727D01*
X90826793Y-37154587D01*
X90879520Y-37245913D01*
X90954087Y-37320480D01*
X91045413Y-37373207D01*
X91147273Y-37400500D01*
X91147275Y-37400500D01*
X91252725Y-37400500D01*
X91252727Y-37400500D01*
X91354587Y-37373207D01*
X91445913Y-37320480D01*
X91520480Y-37245913D01*
X91573207Y-37154587D01*
X91600500Y-37052727D01*
X91600500Y-36947273D01*
X98799500Y-36947273D01*
X98799500Y-37052727D01*
X98826793Y-37154587D01*
X98879520Y-37245913D01*
X98954087Y-37320480D01*
X99045413Y-37373207D01*
X99147273Y-37400500D01*
X99147275Y-37400500D01*
X99252725Y-37400500D01*
X99252727Y-37400500D01*
X99354587Y-37373207D01*
X99445913Y-37320480D01*
X99520480Y-37245913D01*
X99573207Y-37154587D01*
X99600500Y-37052727D01*
X99600500Y-36947273D01*
X99573207Y-36845413D01*
X99520480Y-36754087D01*
X99445913Y-36679520D01*
X99354587Y-36626793D01*
X99252727Y-36599500D01*
X99147273Y-36599500D01*
X99045413Y-36626793D01*
X99045410Y-36626794D01*
X98954085Y-36679521D01*
X98879521Y-36754085D01*
X98826794Y-36845410D01*
X98826793Y-36845413D01*
X98799500Y-36947273D01*
X91600500Y-36947273D01*
X91573207Y-36845413D01*
X91520480Y-36754087D01*
X91445913Y-36679520D01*
X91354587Y-36626793D01*
X91252727Y-36599500D01*
X91147273Y-36599500D01*
X91045413Y-36626793D01*
X91045410Y-36626794D01*
X90954085Y-36679521D01*
X90879521Y-36754085D01*
X90826794Y-36845410D01*
X90826793Y-36845413D01*
X90799500Y-36947273D01*
X83600500Y-36947273D01*
X83573207Y-36845413D01*
X83520480Y-36754087D01*
X83445913Y-36679520D01*
X83354587Y-36626793D01*
X83252727Y-36599500D01*
X83147273Y-36599500D01*
X83045413Y-36626793D01*
X83045410Y-36626794D01*
X82954085Y-36679521D01*
X82879521Y-36754085D01*
X82826794Y-36845410D01*
X82826793Y-36845413D01*
X82799500Y-36947273D01*
X75600500Y-36947273D01*
X75573207Y-36845413D01*
X75520480Y-36754087D01*
X75445913Y-36679520D01*
X75354587Y-36626793D01*
X75252727Y-36599500D01*
X75147273Y-36599500D01*
X75045413Y-36626793D01*
X75045410Y-36626794D01*
X74954085Y-36679521D01*
X74879521Y-36754085D01*
X74826794Y-36845410D01*
X74826793Y-36845413D01*
X74799500Y-36947273D01*
X67600500Y-36947273D01*
X67573207Y-36845413D01*
X67520480Y-36754087D01*
X67445913Y-36679520D01*
X67354587Y-36626793D01*
X67252727Y-36599500D01*
X67147273Y-36599500D01*
X67045413Y-36626793D01*
X67045410Y-36626794D01*
X66954085Y-36679521D01*
X66879521Y-36754085D01*
X66826794Y-36845410D01*
X66826793Y-36845413D01*
X66799500Y-36947273D01*
X59600500Y-36947273D01*
X59573207Y-36845413D01*
X59520480Y-36754087D01*
X59445913Y-36679520D01*
X59354587Y-36626793D01*
X59252727Y-36599500D01*
X59147273Y-36599500D01*
X59045413Y-36626793D01*
X59045410Y-36626794D01*
X58954085Y-36679521D01*
X58879521Y-36754085D01*
X58826794Y-36845410D01*
X58826793Y-36845413D01*
X58799500Y-36947273D01*
X51600500Y-36947273D01*
X51573207Y-36845413D01*
X51520480Y-36754087D01*
X51445913Y-36679520D01*
X51354587Y-36626793D01*
X51252727Y-36599500D01*
X51147273Y-36599500D01*
X51045413Y-36626793D01*
X51045410Y-36626794D01*
X50954085Y-36679521D01*
X50879521Y-36754085D01*
X50826794Y-36845410D01*
X50826793Y-36845413D01*
X50799500Y-36947273D01*
X50799500Y-37052727D01*
X50826793Y-37154587D01*
X50844015Y-37184417D01*
X50860488Y-37252316D01*
X50837636Y-37318343D01*
X50798631Y-37353801D01*
X50754086Y-37379520D01*
X50679521Y-37454085D01*
X50626794Y-37545410D01*
X50626794Y-37545411D01*
X50626793Y-37545413D01*
X50599500Y-37647273D01*
X18450500Y-37647273D01*
X18450500Y-36947273D01*
X27399500Y-36947273D01*
X27399500Y-37052727D01*
X27426793Y-37154587D01*
X27479520Y-37245913D01*
X27554087Y-37320480D01*
X27645413Y-37373207D01*
X27747273Y-37400500D01*
X27747275Y-37400500D01*
X27852725Y-37400500D01*
X27852727Y-37400500D01*
X27954587Y-37373207D01*
X28045913Y-37320480D01*
X28120480Y-37245913D01*
X28173207Y-37154587D01*
X28200500Y-37052727D01*
X28200500Y-36947273D01*
X34799500Y-36947273D01*
X34799500Y-37052727D01*
X34826793Y-37154587D01*
X34879520Y-37245913D01*
X34954087Y-37320480D01*
X35045413Y-37373207D01*
X35147273Y-37400500D01*
X35147275Y-37400500D01*
X35252725Y-37400500D01*
X35252727Y-37400500D01*
X35354587Y-37373207D01*
X35445913Y-37320480D01*
X35520480Y-37245913D01*
X35573207Y-37154587D01*
X35575167Y-37147273D01*
X45099500Y-37147273D01*
X45099500Y-37252727D01*
X45126793Y-37354587D01*
X45179520Y-37445913D01*
X45254087Y-37520480D01*
X45345413Y-37573207D01*
X45447273Y-37600500D01*
X45447275Y-37600500D01*
X45552725Y-37600500D01*
X45552727Y-37600500D01*
X45654587Y-37573207D01*
X45745913Y-37520480D01*
X45762319Y-37504074D01*
X45823642Y-37470589D01*
X45893334Y-37475573D01*
X45937681Y-37504074D01*
X45954087Y-37520480D01*
X46045413Y-37573207D01*
X46147273Y-37600500D01*
X46147275Y-37600500D01*
X46252725Y-37600500D01*
X46252727Y-37600500D01*
X46354587Y-37573207D01*
X46445913Y-37520480D01*
X46520480Y-37445913D01*
X46573207Y-37354587D01*
X46600500Y-37252727D01*
X46600500Y-37147273D01*
X46573207Y-37045413D01*
X46520480Y-36954087D01*
X46445913Y-36879520D01*
X46354587Y-36826793D01*
X46252727Y-36799500D01*
X46147273Y-36799500D01*
X46045413Y-36826793D01*
X46045410Y-36826794D01*
X45954085Y-36879521D01*
X45937681Y-36895926D01*
X45876358Y-36929411D01*
X45806666Y-36924427D01*
X45762319Y-36895926D01*
X45745914Y-36879521D01*
X45745913Y-36879520D01*
X45654587Y-36826793D01*
X45552727Y-36799500D01*
X45447273Y-36799500D01*
X45345413Y-36826793D01*
X45345410Y-36826794D01*
X45254085Y-36879521D01*
X45179521Y-36954085D01*
X45126794Y-37045410D01*
X45126793Y-37045413D01*
X45099500Y-37147273D01*
X35575167Y-37147273D01*
X35600500Y-37052727D01*
X35600500Y-36947273D01*
X35573207Y-36845413D01*
X35520480Y-36754087D01*
X35445913Y-36679520D01*
X35354587Y-36626793D01*
X35252727Y-36599500D01*
X35147273Y-36599500D01*
X35045413Y-36626793D01*
X35045410Y-36626794D01*
X34954085Y-36679521D01*
X34879521Y-36754085D01*
X34826794Y-36845410D01*
X34826793Y-36845413D01*
X34799500Y-36947273D01*
X28200500Y-36947273D01*
X28173207Y-36845413D01*
X28120480Y-36754087D01*
X28045913Y-36679520D01*
X27954587Y-36626793D01*
X27852727Y-36599500D01*
X27747273Y-36599500D01*
X27645413Y-36626793D01*
X27645410Y-36626794D01*
X27554085Y-36679521D01*
X27479521Y-36754085D01*
X27426794Y-36845410D01*
X27426793Y-36845413D01*
X27399500Y-36947273D01*
X18450500Y-36947273D01*
X18450500Y-36247273D01*
X31599500Y-36247273D01*
X31599500Y-36352727D01*
X31626793Y-36454587D01*
X31679520Y-36545913D01*
X31754087Y-36620480D01*
X31845413Y-36673207D01*
X31947273Y-36700500D01*
X31947275Y-36700500D01*
X32052725Y-36700500D01*
X32052727Y-36700500D01*
X32154587Y-36673207D01*
X32245913Y-36620480D01*
X32319120Y-36547273D01*
X39499500Y-36547273D01*
X39499500Y-36652727D01*
X39526793Y-36754587D01*
X39579520Y-36845913D01*
X39654087Y-36920480D01*
X39745413Y-36973207D01*
X39847273Y-37000500D01*
X39847275Y-37000500D01*
X39952725Y-37000500D01*
X39952727Y-37000500D01*
X40054587Y-36973207D01*
X40145913Y-36920480D01*
X40220480Y-36845913D01*
X40273207Y-36754587D01*
X40300500Y-36652727D01*
X40300500Y-36547273D01*
X40273207Y-36445413D01*
X40220480Y-36354087D01*
X40145913Y-36279520D01*
X40090059Y-36247273D01*
X41199500Y-36247273D01*
X41199500Y-36352727D01*
X41226793Y-36454587D01*
X41279520Y-36545913D01*
X41354087Y-36620480D01*
X41445413Y-36673207D01*
X41547273Y-36700500D01*
X41547275Y-36700500D01*
X41652725Y-36700500D01*
X41652727Y-36700500D01*
X41754587Y-36673207D01*
X41845913Y-36620480D01*
X41920480Y-36545913D01*
X41973207Y-36454587D01*
X42000500Y-36352727D01*
X42000500Y-36247273D01*
X53199500Y-36247273D01*
X53199500Y-36352727D01*
X53226793Y-36454587D01*
X53279520Y-36545913D01*
X53354087Y-36620480D01*
X53445413Y-36673207D01*
X53547273Y-36700500D01*
X53547275Y-36700500D01*
X53652725Y-36700500D01*
X53652727Y-36700500D01*
X53754587Y-36673207D01*
X53845913Y-36620480D01*
X53920480Y-36545913D01*
X53973207Y-36454587D01*
X54000500Y-36352727D01*
X54000500Y-36247273D01*
X53973207Y-36145413D01*
X53920480Y-36054087D01*
X53845913Y-35979520D01*
X53754587Y-35926793D01*
X53652727Y-35899500D01*
X53547273Y-35899500D01*
X53445413Y-35926793D01*
X53445410Y-35926794D01*
X53354085Y-35979521D01*
X53279521Y-36054085D01*
X53226794Y-36145410D01*
X53226793Y-36145413D01*
X53199500Y-36247273D01*
X42000500Y-36247273D01*
X41973207Y-36145413D01*
X41973205Y-36145409D01*
X41971241Y-36140666D01*
X41963774Y-36071196D01*
X41995050Y-36008718D01*
X42047449Y-35977208D01*
X42047080Y-35976316D01*
X42053036Y-35973848D01*
X42053715Y-35973440D01*
X42054587Y-35973207D01*
X42145913Y-35920480D01*
X42220480Y-35845913D01*
X42273207Y-35754587D01*
X42275167Y-35747273D01*
X49599500Y-35747273D01*
X49599500Y-35852727D01*
X49626793Y-35954587D01*
X49679520Y-36045913D01*
X49754087Y-36120480D01*
X49845413Y-36173207D01*
X49947273Y-36200500D01*
X49947275Y-36200500D01*
X50052725Y-36200500D01*
X50052727Y-36200500D01*
X50154587Y-36173207D01*
X50245913Y-36120480D01*
X50320480Y-36045913D01*
X50373207Y-35954587D01*
X50400500Y-35852727D01*
X50400500Y-35747273D01*
X50373207Y-35645413D01*
X50320480Y-35554087D01*
X50245913Y-35479520D01*
X50154587Y-35426793D01*
X50052727Y-35399500D01*
X49947273Y-35399500D01*
X49845413Y-35426793D01*
X49845410Y-35426794D01*
X49754085Y-35479521D01*
X49679521Y-35554085D01*
X49626794Y-35645410D01*
X49626793Y-35645413D01*
X49599500Y-35747273D01*
X42275167Y-35747273D01*
X42300500Y-35652727D01*
X42300500Y-35547273D01*
X42273207Y-35445413D01*
X42220480Y-35354087D01*
X42145913Y-35279520D01*
X42054587Y-35226793D01*
X41952727Y-35199500D01*
X41847273Y-35199500D01*
X41745413Y-35226793D01*
X41745410Y-35226794D01*
X41654085Y-35279521D01*
X41579521Y-35354085D01*
X41526794Y-35445410D01*
X41526793Y-35445413D01*
X41499500Y-35547273D01*
X41499500Y-35652727D01*
X41524833Y-35747273D01*
X41526795Y-35754593D01*
X41528760Y-35759338D01*
X41536224Y-35828808D01*
X41504945Y-35891285D01*
X41452551Y-35922794D01*
X41452920Y-35923684D01*
X41446984Y-35926142D01*
X41446297Y-35926556D01*
X41445416Y-35926792D01*
X41445410Y-35926794D01*
X41354085Y-35979521D01*
X41279521Y-36054085D01*
X41226794Y-36145410D01*
X41226793Y-36145413D01*
X41199500Y-36247273D01*
X40090059Y-36247273D01*
X40054587Y-36226793D01*
X39952727Y-36199500D01*
X39847273Y-36199500D01*
X39745413Y-36226793D01*
X39745410Y-36226794D01*
X39654085Y-36279521D01*
X39579521Y-36354085D01*
X39526794Y-36445410D01*
X39526793Y-36445413D01*
X39499500Y-36547273D01*
X32319120Y-36547273D01*
X32320480Y-36545913D01*
X32373207Y-36454587D01*
X32400500Y-36352727D01*
X32400500Y-36247273D01*
X32373207Y-36145413D01*
X32320480Y-36054087D01*
X32245913Y-35979520D01*
X32154587Y-35926793D01*
X32052727Y-35899500D01*
X31947273Y-35899500D01*
X31845413Y-35926793D01*
X31845410Y-35926794D01*
X31754085Y-35979521D01*
X31679521Y-36054085D01*
X31626794Y-36145410D01*
X31626793Y-36145413D01*
X31599500Y-36247273D01*
X18450500Y-36247273D01*
X18450500Y-35547273D01*
X29199500Y-35547273D01*
X29199500Y-35652727D01*
X29226793Y-35754587D01*
X29279520Y-35845913D01*
X29354087Y-35920480D01*
X29445413Y-35973207D01*
X29547273Y-36000500D01*
X29547275Y-36000500D01*
X29652725Y-36000500D01*
X29652727Y-36000500D01*
X29754587Y-35973207D01*
X29845913Y-35920480D01*
X29912319Y-35854074D01*
X29973642Y-35820589D01*
X30043334Y-35825573D01*
X30087681Y-35854074D01*
X30154087Y-35920480D01*
X30245413Y-35973207D01*
X30347273Y-36000500D01*
X30347275Y-36000500D01*
X30452725Y-36000500D01*
X30452727Y-36000500D01*
X30554587Y-35973207D01*
X30645913Y-35920480D01*
X30720480Y-35845913D01*
X30773207Y-35754587D01*
X30800500Y-35652727D01*
X30800500Y-35547273D01*
X33199500Y-35547273D01*
X33199500Y-35652727D01*
X33226793Y-35754587D01*
X33279520Y-35845913D01*
X33354087Y-35920480D01*
X33445413Y-35973207D01*
X33547273Y-36000500D01*
X33547275Y-36000500D01*
X33652725Y-36000500D01*
X33652727Y-36000500D01*
X33754587Y-35973207D01*
X33845913Y-35920480D01*
X33920480Y-35845913D01*
X33973207Y-35754587D01*
X34000500Y-35652727D01*
X34000500Y-35547273D01*
X33973207Y-35445413D01*
X33920480Y-35354087D01*
X33845913Y-35279520D01*
X33754587Y-35226793D01*
X33652727Y-35199500D01*
X33547273Y-35199500D01*
X33445413Y-35226793D01*
X33445410Y-35226794D01*
X33354085Y-35279521D01*
X33279521Y-35354085D01*
X33226794Y-35445410D01*
X33226793Y-35445413D01*
X33199500Y-35547273D01*
X30800500Y-35547273D01*
X30777668Y-35462064D01*
X30777391Y-35460943D01*
X30778839Y-35427168D01*
X30779644Y-35393383D01*
X30780332Y-35392365D01*
X30780385Y-35391138D01*
X30799870Y-35363497D01*
X30818807Y-35335520D01*
X30819935Y-35335036D01*
X30820644Y-35334032D01*
X30851965Y-35321320D01*
X30883035Y-35308016D01*
X30884247Y-35308219D01*
X30885385Y-35307758D01*
X30918579Y-35313992D01*
X30951937Y-35319602D01*
X30953851Y-35320617D01*
X30954054Y-35320656D01*
X30954221Y-35320814D01*
X30959723Y-35323734D01*
X31045413Y-35373207D01*
X31147273Y-35400500D01*
X31147275Y-35400500D01*
X31252725Y-35400500D01*
X31252727Y-35400500D01*
X31354587Y-35373207D01*
X31445913Y-35320480D01*
X31520480Y-35245913D01*
X31573207Y-35154587D01*
X31600500Y-35052727D01*
X31600500Y-34947273D01*
X31573207Y-34845413D01*
X31520480Y-34754087D01*
X31445913Y-34679520D01*
X31354587Y-34626793D01*
X31252727Y-34599500D01*
X31147273Y-34599500D01*
X31045413Y-34626793D01*
X31045410Y-34626794D01*
X30954085Y-34679521D01*
X30879521Y-34754085D01*
X30826794Y-34845410D01*
X30826793Y-34845413D01*
X30799500Y-34947273D01*
X30799500Y-35052726D01*
X30822018Y-35136767D01*
X30820355Y-35206617D01*
X30781192Y-35264480D01*
X30716963Y-35291983D01*
X30648061Y-35280396D01*
X30640255Y-35276253D01*
X30554587Y-35226793D01*
X30452727Y-35199500D01*
X30347273Y-35199500D01*
X30245413Y-35226793D01*
X30245410Y-35226794D01*
X30154085Y-35279521D01*
X30087681Y-35345926D01*
X30026358Y-35379411D01*
X29956666Y-35374427D01*
X29912319Y-35345926D01*
X29845914Y-35279521D01*
X29845913Y-35279520D01*
X29754587Y-35226793D01*
X29652727Y-35199500D01*
X29547273Y-35199500D01*
X29445413Y-35226793D01*
X29445410Y-35226794D01*
X29354085Y-35279521D01*
X29279521Y-35354085D01*
X29226794Y-35445410D01*
X29226793Y-35445413D01*
X29199500Y-35547273D01*
X18450500Y-35547273D01*
X18450500Y-34947273D01*
X22799500Y-34947273D01*
X22799500Y-35052727D01*
X22826793Y-35154587D01*
X22879520Y-35245913D01*
X22954087Y-35320480D01*
X23045413Y-35373207D01*
X23147273Y-35400500D01*
X23147275Y-35400500D01*
X23252725Y-35400500D01*
X23252727Y-35400500D01*
X23354587Y-35373207D01*
X23445913Y-35320480D01*
X23520480Y-35245913D01*
X23573207Y-35154587D01*
X23600500Y-35052727D01*
X23600500Y-34947273D01*
X23573207Y-34845413D01*
X23520480Y-34754087D01*
X23445913Y-34679520D01*
X23354587Y-34626793D01*
X23252727Y-34599500D01*
X23147273Y-34599500D01*
X23045413Y-34626793D01*
X23045410Y-34626794D01*
X22954085Y-34679521D01*
X22879521Y-34754085D01*
X22826794Y-34845410D01*
X22826793Y-34845413D01*
X22799500Y-34947273D01*
X18450500Y-34947273D01*
X18450500Y-34347273D01*
X35699500Y-34347273D01*
X35699500Y-34452727D01*
X35726793Y-34554587D01*
X35779520Y-34645913D01*
X35854087Y-34720480D01*
X35945413Y-34773207D01*
X36047273Y-34800500D01*
X36047275Y-34800500D01*
X36152725Y-34800500D01*
X36152727Y-34800500D01*
X36254587Y-34773207D01*
X36345913Y-34720480D01*
X36420480Y-34645913D01*
X36473207Y-34554587D01*
X36500500Y-34452727D01*
X36500500Y-34347273D01*
X37299500Y-34347273D01*
X37299500Y-34452727D01*
X37326793Y-34554587D01*
X37379520Y-34645913D01*
X37454087Y-34720480D01*
X37545413Y-34773207D01*
X37545415Y-34773207D01*
X37550245Y-34775996D01*
X37598460Y-34826563D01*
X37611684Y-34895170D01*
X37608020Y-34915475D01*
X37599500Y-34947271D01*
X37599500Y-34947273D01*
X37599500Y-35052727D01*
X37626793Y-35154587D01*
X37679520Y-35245913D01*
X37754087Y-35320480D01*
X37845413Y-35373207D01*
X37947273Y-35400500D01*
X37947275Y-35400500D01*
X38052725Y-35400500D01*
X38052727Y-35400500D01*
X38154587Y-35373207D01*
X38245913Y-35320480D01*
X38320480Y-35245913D01*
X38373207Y-35154587D01*
X38400500Y-35052727D01*
X38400500Y-34947273D01*
X47399500Y-34947273D01*
X47399500Y-35052727D01*
X47426793Y-35154587D01*
X47479520Y-35245913D01*
X47554087Y-35320480D01*
X47645413Y-35373207D01*
X47747273Y-35400500D01*
X47747275Y-35400500D01*
X47852725Y-35400500D01*
X47852727Y-35400500D01*
X47954587Y-35373207D01*
X48045913Y-35320480D01*
X48120480Y-35245913D01*
X48173207Y-35154587D01*
X48200500Y-35052727D01*
X48200500Y-34947273D01*
X48173207Y-34845413D01*
X48120480Y-34754087D01*
X48045913Y-34679520D01*
X47954587Y-34626793D01*
X47852727Y-34599500D01*
X47747273Y-34599500D01*
X47645413Y-34626793D01*
X47645410Y-34626794D01*
X47554085Y-34679521D01*
X47479521Y-34754085D01*
X47426794Y-34845410D01*
X47426793Y-34845413D01*
X47399500Y-34947273D01*
X38400500Y-34947273D01*
X38373207Y-34845413D01*
X38320480Y-34754087D01*
X38245913Y-34679520D01*
X38154587Y-34626793D01*
X38154585Y-34626792D01*
X38149754Y-34624003D01*
X38101538Y-34573436D01*
X38088315Y-34504829D01*
X38091977Y-34484533D01*
X38100500Y-34452727D01*
X38100500Y-34347273D01*
X38073207Y-34245413D01*
X38020480Y-34154087D01*
X37945913Y-34079520D01*
X37854587Y-34026793D01*
X37752727Y-33999500D01*
X37647273Y-33999500D01*
X37545413Y-34026793D01*
X37545410Y-34026794D01*
X37454085Y-34079521D01*
X37379521Y-34154085D01*
X37326794Y-34245410D01*
X37326793Y-34245413D01*
X37299500Y-34347273D01*
X36500500Y-34347273D01*
X36473207Y-34245413D01*
X36420480Y-34154087D01*
X36345913Y-34079520D01*
X36254587Y-34026793D01*
X36152727Y-33999500D01*
X36047273Y-33999500D01*
X35945413Y-34026793D01*
X35945410Y-34026794D01*
X35854085Y-34079521D01*
X35779521Y-34154085D01*
X35726794Y-34245410D01*
X35726793Y-34245413D01*
X35699500Y-34347273D01*
X18450500Y-34347273D01*
X18450500Y-32947273D01*
X26799500Y-32947273D01*
X26799500Y-33052727D01*
X26826793Y-33154587D01*
X26879520Y-33245913D01*
X26954087Y-33320480D01*
X27045413Y-33373207D01*
X27147273Y-33400500D01*
X27147275Y-33400500D01*
X27252725Y-33400500D01*
X27252727Y-33400500D01*
X27354587Y-33373207D01*
X27445913Y-33320480D01*
X27520480Y-33245913D01*
X27573207Y-33154587D01*
X27600500Y-33052727D01*
X27600500Y-32947273D01*
X34799500Y-32947273D01*
X34799500Y-33052727D01*
X34826793Y-33154587D01*
X34879520Y-33245913D01*
X34954087Y-33320480D01*
X35045413Y-33373207D01*
X35147273Y-33400500D01*
X35147275Y-33400500D01*
X35252725Y-33400500D01*
X35252727Y-33400500D01*
X35354587Y-33373207D01*
X35438001Y-33325047D01*
X35505900Y-33308575D01*
X35561998Y-33325047D01*
X35645413Y-33373207D01*
X35747273Y-33400500D01*
X35747275Y-33400500D01*
X35852725Y-33400500D01*
X35852727Y-33400500D01*
X35954587Y-33373207D01*
X36045913Y-33320480D01*
X36120480Y-33245913D01*
X36173207Y-33154587D01*
X36200500Y-33052727D01*
X36200500Y-32947273D01*
X36173207Y-32845413D01*
X36120480Y-32754087D01*
X36045913Y-32679520D01*
X35954587Y-32626793D01*
X35852727Y-32599500D01*
X35747273Y-32599500D01*
X35645413Y-32626793D01*
X35645410Y-32626794D01*
X35562000Y-32674951D01*
X35494099Y-32691424D01*
X35438000Y-32674951D01*
X35354589Y-32626794D01*
X35354588Y-32626793D01*
X35354587Y-32626793D01*
X35252727Y-32599500D01*
X35147273Y-32599500D01*
X35045413Y-32626793D01*
X35045410Y-32626794D01*
X34954085Y-32679521D01*
X34879521Y-32754085D01*
X34826794Y-32845410D01*
X34826793Y-32845413D01*
X34799500Y-32947273D01*
X27600500Y-32947273D01*
X27573207Y-32845413D01*
X27520480Y-32754087D01*
X27445913Y-32679520D01*
X27354587Y-32626793D01*
X27252727Y-32599500D01*
X27147273Y-32599500D01*
X27045413Y-32626793D01*
X27045410Y-32626794D01*
X26954085Y-32679521D01*
X26879521Y-32754085D01*
X26826794Y-32845410D01*
X26826793Y-32845413D01*
X26799500Y-32947273D01*
X18450500Y-32947273D01*
X18450500Y-32347273D01*
X29299500Y-32347273D01*
X29299500Y-32452727D01*
X29326793Y-32554587D01*
X29379520Y-32645913D01*
X29454087Y-32720480D01*
X29545413Y-32773207D01*
X29647273Y-32800500D01*
X29647275Y-32800500D01*
X29752725Y-32800500D01*
X29752727Y-32800500D01*
X29854587Y-32773207D01*
X29945913Y-32720480D01*
X29962319Y-32704074D01*
X30023642Y-32670589D01*
X30093334Y-32675573D01*
X30137681Y-32704074D01*
X30154087Y-32720480D01*
X30245413Y-32773207D01*
X30347273Y-32800500D01*
X30347275Y-32800500D01*
X30452725Y-32800500D01*
X30452727Y-32800500D01*
X30554587Y-32773207D01*
X30645913Y-32720480D01*
X30720480Y-32645913D01*
X30773207Y-32554587D01*
X30775167Y-32547273D01*
X41099500Y-32547273D01*
X41099500Y-32652727D01*
X41126793Y-32754587D01*
X41179520Y-32845913D01*
X41254087Y-32920480D01*
X41345413Y-32973207D01*
X41447273Y-33000500D01*
X41447275Y-33000500D01*
X41552724Y-33000500D01*
X41552727Y-33000500D01*
X41650141Y-32974398D01*
X41719987Y-32976061D01*
X41777850Y-33015223D01*
X41802006Y-33062079D01*
X41826793Y-33154588D01*
X41826794Y-33154589D01*
X41879520Y-33245913D01*
X41954087Y-33320480D01*
X41954093Y-33320483D01*
X41954203Y-33320568D01*
X41954278Y-33320671D01*
X41959834Y-33326227D01*
X41958967Y-33327093D01*
X41995405Y-33376996D01*
X41999100Y-33439024D01*
X42000561Y-33439217D01*
X41999500Y-33447271D01*
X41999500Y-33447273D01*
X41999500Y-33552727D01*
X42026295Y-33652726D01*
X42026793Y-33654586D01*
X42026794Y-33654589D01*
X42079521Y-33745914D01*
X42121426Y-33787819D01*
X42154911Y-33849142D01*
X42149927Y-33918834D01*
X42108055Y-33974767D01*
X42042591Y-33999184D01*
X42033745Y-33999500D01*
X41947273Y-33999500D01*
X41845413Y-34026793D01*
X41845410Y-34026794D01*
X41754085Y-34079521D01*
X41679521Y-34154085D01*
X41626794Y-34245410D01*
X41626793Y-34245413D01*
X41599500Y-34347273D01*
X41599500Y-34452727D01*
X41626793Y-34554587D01*
X41679520Y-34645913D01*
X41754087Y-34720480D01*
X41845413Y-34773207D01*
X41947273Y-34800500D01*
X41947275Y-34800500D01*
X42052725Y-34800500D01*
X42052727Y-34800500D01*
X42154587Y-34773207D01*
X42245913Y-34720480D01*
X42320480Y-34645913D01*
X42373207Y-34554587D01*
X42375167Y-34547273D01*
X49599500Y-34547273D01*
X49599500Y-34652727D01*
X49626793Y-34754587D01*
X49679520Y-34845913D01*
X49754087Y-34920480D01*
X49845413Y-34973207D01*
X49947273Y-35000500D01*
X49947275Y-35000500D01*
X50052725Y-35000500D01*
X50052727Y-35000500D01*
X50154587Y-34973207D01*
X50245913Y-34920480D01*
X50320480Y-34845913D01*
X50373207Y-34754587D01*
X50400500Y-34652727D01*
X50400500Y-34547273D01*
X50373207Y-34445413D01*
X50320480Y-34354087D01*
X50245913Y-34279520D01*
X50154587Y-34226793D01*
X50052727Y-34199500D01*
X49947273Y-34199500D01*
X49845413Y-34226793D01*
X49845410Y-34226794D01*
X49754085Y-34279521D01*
X49679521Y-34354085D01*
X49626794Y-34445410D01*
X49626793Y-34445413D01*
X49599500Y-34547273D01*
X42375167Y-34547273D01*
X42400500Y-34452727D01*
X42400500Y-34347273D01*
X42373207Y-34245413D01*
X42320480Y-34154087D01*
X42278574Y-34112181D01*
X42245089Y-34050858D01*
X42250073Y-33981166D01*
X42291945Y-33925233D01*
X42357409Y-33900816D01*
X42366255Y-33900500D01*
X42452725Y-33900500D01*
X42452727Y-33900500D01*
X42554587Y-33873207D01*
X42645913Y-33820480D01*
X42720480Y-33745913D01*
X42773207Y-33654587D01*
X42800500Y-33552727D01*
X42800500Y-33447273D01*
X42773207Y-33345413D01*
X42720480Y-33254087D01*
X42713665Y-33247272D01*
X43899500Y-33247272D01*
X43899500Y-33352726D01*
X43926793Y-33454586D01*
X43979520Y-33545912D01*
X44054087Y-33620479D01*
X44145413Y-33673206D01*
X44247273Y-33700499D01*
X44247275Y-33700499D01*
X44352725Y-33700499D01*
X44352727Y-33700499D01*
X44352728Y-33700498D01*
X44360783Y-33699438D01*
X44361093Y-33701799D01*
X44418792Y-33703164D01*
X44473655Y-33740283D01*
X44473773Y-33740166D01*
X44474384Y-33740777D01*
X44476660Y-33742317D01*
X44479426Y-33745791D01*
X44479518Y-33745911D01*
X44479520Y-33745913D01*
X44554087Y-33820480D01*
X44645413Y-33873207D01*
X44747273Y-33900500D01*
X44747275Y-33900500D01*
X44852725Y-33900500D01*
X44852727Y-33900500D01*
X44954587Y-33873207D01*
X45045913Y-33820480D01*
X45120480Y-33745913D01*
X45173207Y-33654587D01*
X45200500Y-33552727D01*
X45200500Y-33447273D01*
X46799500Y-33447273D01*
X46799500Y-33552727D01*
X46826295Y-33652726D01*
X46826793Y-33654586D01*
X46826794Y-33654589D01*
X46837542Y-33673205D01*
X46879520Y-33745913D01*
X46954087Y-33820480D01*
X47045413Y-33873207D01*
X47147273Y-33900500D01*
X47147275Y-33900500D01*
X47252725Y-33900500D01*
X47252727Y-33900500D01*
X47354587Y-33873207D01*
X47445913Y-33820480D01*
X47520480Y-33745913D01*
X47573207Y-33654587D01*
X47600500Y-33552727D01*
X47600500Y-33447273D01*
X47573207Y-33345413D01*
X47520480Y-33254087D01*
X47445913Y-33179520D01*
X47354587Y-33126793D01*
X47252727Y-33099500D01*
X47147273Y-33099500D01*
X47045413Y-33126793D01*
X47045410Y-33126794D01*
X46954085Y-33179521D01*
X46879521Y-33254085D01*
X46826794Y-33345410D01*
X46826793Y-33345413D01*
X46799500Y-33447273D01*
X45200500Y-33447273D01*
X45173207Y-33345413D01*
X45120480Y-33254087D01*
X45045913Y-33179520D01*
X44954587Y-33126793D01*
X44852727Y-33099500D01*
X44747273Y-33099500D01*
X44739212Y-33100561D01*
X44738902Y-33098206D01*
X44737810Y-33098180D01*
X44725355Y-33102549D01*
X44703560Y-33097356D01*
X44681158Y-33096818D01*
X44668697Y-33089051D01*
X44657388Y-33086357D01*
X44639969Y-33071145D01*
X44629555Y-33064654D01*
X44622111Y-33056911D01*
X44620480Y-33054086D01*
X44545913Y-32979519D01*
X44490061Y-32947273D01*
X50799500Y-32947273D01*
X50799500Y-33052727D01*
X50826793Y-33154587D01*
X50879520Y-33245913D01*
X50954087Y-33320480D01*
X51045413Y-33373207D01*
X51045415Y-33373207D01*
X51050245Y-33375996D01*
X51098460Y-33426563D01*
X51111684Y-33495170D01*
X51108020Y-33515475D01*
X51099500Y-33547271D01*
X51099500Y-33547273D01*
X51099500Y-33652727D01*
X51126793Y-33754587D01*
X51179520Y-33845913D01*
X51254087Y-33920480D01*
X51345413Y-33973207D01*
X51447273Y-34000500D01*
X51447275Y-34000500D01*
X51552725Y-34000500D01*
X51552727Y-34000500D01*
X51574634Y-33994630D01*
X51644481Y-33996291D01*
X51702344Y-34035453D01*
X51729850Y-34099680D01*
X51726502Y-34146496D01*
X51699500Y-34247271D01*
X51699500Y-34247273D01*
X51699500Y-34352727D01*
X51726793Y-34454587D01*
X51779520Y-34545913D01*
X51854087Y-34620480D01*
X51945413Y-34673207D01*
X52047273Y-34700500D01*
X52047275Y-34700500D01*
X52152725Y-34700500D01*
X52152727Y-34700500D01*
X52254587Y-34673207D01*
X52345913Y-34620480D01*
X52420480Y-34545913D01*
X52473207Y-34454587D01*
X52500500Y-34352727D01*
X52500500Y-34347273D01*
X54399500Y-34347273D01*
X54399500Y-34452727D01*
X54426793Y-34554587D01*
X54479520Y-34645913D01*
X54554087Y-34720480D01*
X54645413Y-34773207D01*
X54712920Y-34791295D01*
X54772579Y-34827658D01*
X54803109Y-34890505D01*
X54800603Y-34943154D01*
X54799500Y-34947268D01*
X54799500Y-34947273D01*
X54799500Y-35052727D01*
X54826793Y-35154587D01*
X54879520Y-35245913D01*
X54954087Y-35320480D01*
X55045413Y-35373207D01*
X55147273Y-35400500D01*
X55147275Y-35400500D01*
X55252725Y-35400500D01*
X55252727Y-35400500D01*
X55354587Y-35373207D01*
X55445913Y-35320480D01*
X55520480Y-35245913D01*
X55573207Y-35154587D01*
X55600500Y-35052727D01*
X55600500Y-34947273D01*
X62799500Y-34947273D01*
X62799500Y-35052727D01*
X62826793Y-35154587D01*
X62879520Y-35245913D01*
X62954087Y-35320480D01*
X63045413Y-35373207D01*
X63147273Y-35400500D01*
X63147275Y-35400500D01*
X63252725Y-35400500D01*
X63252727Y-35400500D01*
X63354587Y-35373207D01*
X63445913Y-35320480D01*
X63520480Y-35245913D01*
X63573207Y-35154587D01*
X63600500Y-35052727D01*
X63600500Y-34947273D01*
X70799500Y-34947273D01*
X70799500Y-35052727D01*
X70826793Y-35154587D01*
X70879520Y-35245913D01*
X70954087Y-35320480D01*
X71045413Y-35373207D01*
X71147273Y-35400500D01*
X71147275Y-35400500D01*
X71252725Y-35400500D01*
X71252727Y-35400500D01*
X71354587Y-35373207D01*
X71445913Y-35320480D01*
X71520480Y-35245913D01*
X71573207Y-35154587D01*
X71600500Y-35052727D01*
X71600500Y-34947273D01*
X78799500Y-34947273D01*
X78799500Y-35052727D01*
X78826793Y-35154587D01*
X78879520Y-35245913D01*
X78954087Y-35320480D01*
X79045413Y-35373207D01*
X79147273Y-35400500D01*
X79147275Y-35400500D01*
X79252725Y-35400500D01*
X79252727Y-35400500D01*
X79354587Y-35373207D01*
X79445913Y-35320480D01*
X79520480Y-35245913D01*
X79573207Y-35154587D01*
X79600500Y-35052727D01*
X79600500Y-34947273D01*
X86799500Y-34947273D01*
X86799500Y-35052727D01*
X86826793Y-35154587D01*
X86879520Y-35245913D01*
X86954087Y-35320480D01*
X87045413Y-35373207D01*
X87147273Y-35400500D01*
X87147275Y-35400500D01*
X87252725Y-35400500D01*
X87252727Y-35400500D01*
X87354587Y-35373207D01*
X87445913Y-35320480D01*
X87520480Y-35245913D01*
X87573207Y-35154587D01*
X87600500Y-35052727D01*
X87600500Y-34947273D01*
X94799500Y-34947273D01*
X94799500Y-35052727D01*
X94826793Y-35154587D01*
X94879520Y-35245913D01*
X94954087Y-35320480D01*
X95045413Y-35373207D01*
X95147273Y-35400500D01*
X95147275Y-35400500D01*
X95252725Y-35400500D01*
X95252727Y-35400500D01*
X95354587Y-35373207D01*
X95445913Y-35320480D01*
X95520480Y-35245913D01*
X95573207Y-35154587D01*
X95600500Y-35052727D01*
X95600500Y-34947273D01*
X95573207Y-34845413D01*
X95520480Y-34754087D01*
X95445913Y-34679520D01*
X95354587Y-34626793D01*
X95252727Y-34599500D01*
X95147273Y-34599500D01*
X95045413Y-34626793D01*
X95045410Y-34626794D01*
X94954085Y-34679521D01*
X94879521Y-34754085D01*
X94826794Y-34845410D01*
X94826793Y-34845413D01*
X94799500Y-34947273D01*
X87600500Y-34947273D01*
X87573207Y-34845413D01*
X87520480Y-34754087D01*
X87445913Y-34679520D01*
X87354587Y-34626793D01*
X87252727Y-34599500D01*
X87147273Y-34599500D01*
X87045413Y-34626793D01*
X87045410Y-34626794D01*
X86954085Y-34679521D01*
X86879521Y-34754085D01*
X86826794Y-34845410D01*
X86826793Y-34845413D01*
X86799500Y-34947273D01*
X79600500Y-34947273D01*
X79573207Y-34845413D01*
X79520480Y-34754087D01*
X79445913Y-34679520D01*
X79354587Y-34626793D01*
X79252727Y-34599500D01*
X79147273Y-34599500D01*
X79045413Y-34626793D01*
X79045410Y-34626794D01*
X78954085Y-34679521D01*
X78879521Y-34754085D01*
X78826794Y-34845410D01*
X78826793Y-34845413D01*
X78799500Y-34947273D01*
X71600500Y-34947273D01*
X71573207Y-34845413D01*
X71520480Y-34754087D01*
X71445913Y-34679520D01*
X71354587Y-34626793D01*
X71252727Y-34599500D01*
X71147273Y-34599500D01*
X71045413Y-34626793D01*
X71045410Y-34626794D01*
X70954085Y-34679521D01*
X70879521Y-34754085D01*
X70826794Y-34845410D01*
X70826793Y-34845413D01*
X70799500Y-34947273D01*
X63600500Y-34947273D01*
X63573207Y-34845413D01*
X63520480Y-34754087D01*
X63445913Y-34679520D01*
X63354587Y-34626793D01*
X63252727Y-34599500D01*
X63147273Y-34599500D01*
X63045413Y-34626793D01*
X63045410Y-34626794D01*
X62954085Y-34679521D01*
X62879521Y-34754085D01*
X62826794Y-34845410D01*
X62826793Y-34845413D01*
X62799500Y-34947273D01*
X55600500Y-34947273D01*
X55573207Y-34845413D01*
X55520480Y-34754087D01*
X55445913Y-34679520D01*
X55354587Y-34626793D01*
X55287079Y-34608704D01*
X55227419Y-34572340D01*
X55196890Y-34509493D01*
X55199398Y-34456836D01*
X55200500Y-34452727D01*
X55200500Y-34347273D01*
X55173207Y-34245413D01*
X55120480Y-34154087D01*
X55045913Y-34079520D01*
X54954587Y-34026793D01*
X54852727Y-33999500D01*
X54747273Y-33999500D01*
X54645413Y-34026793D01*
X54645410Y-34026794D01*
X54554085Y-34079521D01*
X54479521Y-34154085D01*
X54426794Y-34245410D01*
X54426793Y-34245413D01*
X54399500Y-34347273D01*
X52500500Y-34347273D01*
X52500500Y-34247273D01*
X52473207Y-34145413D01*
X52420480Y-34054087D01*
X52345913Y-33979520D01*
X52254587Y-33926793D01*
X52152727Y-33899500D01*
X52047273Y-33899500D01*
X52047268Y-33899500D01*
X52025363Y-33905370D01*
X51955513Y-33903706D01*
X51897652Y-33864543D01*
X51870149Y-33800314D01*
X51873496Y-33753506D01*
X51900500Y-33652727D01*
X51900500Y-33547273D01*
X51873207Y-33445413D01*
X51820480Y-33354087D01*
X51745913Y-33279520D01*
X51654587Y-33226793D01*
X51654585Y-33226792D01*
X51649754Y-33224003D01*
X51601538Y-33173436D01*
X51588073Y-33107733D01*
X51588919Y-33095946D01*
X51600500Y-33052727D01*
X51600500Y-32947273D01*
X58799500Y-32947273D01*
X58799500Y-33052727D01*
X58826793Y-33154587D01*
X58879520Y-33245913D01*
X58954087Y-33320480D01*
X59045413Y-33373207D01*
X59147273Y-33400500D01*
X59147275Y-33400500D01*
X59252725Y-33400500D01*
X59252727Y-33400500D01*
X59354587Y-33373207D01*
X59445913Y-33320480D01*
X59520480Y-33245913D01*
X59573207Y-33154587D01*
X59600500Y-33052727D01*
X59600500Y-32947273D01*
X66799500Y-32947273D01*
X66799500Y-33052727D01*
X66826793Y-33154587D01*
X66879520Y-33245913D01*
X66954087Y-33320480D01*
X67045413Y-33373207D01*
X67147273Y-33400500D01*
X67147275Y-33400500D01*
X67252725Y-33400500D01*
X67252727Y-33400500D01*
X67354587Y-33373207D01*
X67445913Y-33320480D01*
X67520480Y-33245913D01*
X67573207Y-33154587D01*
X67600500Y-33052727D01*
X67600500Y-32947273D01*
X74799500Y-32947273D01*
X74799500Y-33052727D01*
X74826793Y-33154587D01*
X74879520Y-33245913D01*
X74954087Y-33320480D01*
X75045413Y-33373207D01*
X75147273Y-33400500D01*
X75147275Y-33400500D01*
X75252725Y-33400500D01*
X75252727Y-33400500D01*
X75354587Y-33373207D01*
X75445913Y-33320480D01*
X75520480Y-33245913D01*
X75573207Y-33154587D01*
X75600500Y-33052727D01*
X75600500Y-32947273D01*
X82799500Y-32947273D01*
X82799500Y-33052727D01*
X82826793Y-33154587D01*
X82879520Y-33245913D01*
X82954087Y-33320480D01*
X83045413Y-33373207D01*
X83147273Y-33400500D01*
X83147275Y-33400500D01*
X83252725Y-33400500D01*
X83252727Y-33400500D01*
X83354587Y-33373207D01*
X83445913Y-33320480D01*
X83520480Y-33245913D01*
X83573207Y-33154587D01*
X83600500Y-33052727D01*
X83600500Y-32947273D01*
X90799500Y-32947273D01*
X90799500Y-33052727D01*
X90826793Y-33154587D01*
X90879520Y-33245913D01*
X90954087Y-33320480D01*
X91045413Y-33373207D01*
X91147273Y-33400500D01*
X91147275Y-33400500D01*
X91252725Y-33400500D01*
X91252727Y-33400500D01*
X91354587Y-33373207D01*
X91445913Y-33320480D01*
X91520480Y-33245913D01*
X91573207Y-33154587D01*
X91600500Y-33052727D01*
X91600500Y-32947273D01*
X91573207Y-32845413D01*
X91520480Y-32754087D01*
X91445913Y-32679520D01*
X91354587Y-32626793D01*
X91252727Y-32599500D01*
X91147273Y-32599500D01*
X91045413Y-32626793D01*
X91045410Y-32626794D01*
X90954085Y-32679521D01*
X90879521Y-32754085D01*
X90826794Y-32845410D01*
X90826793Y-32845413D01*
X90799500Y-32947273D01*
X83600500Y-32947273D01*
X83573207Y-32845413D01*
X83520480Y-32754087D01*
X83445913Y-32679520D01*
X83354587Y-32626793D01*
X83252727Y-32599500D01*
X83147273Y-32599500D01*
X83045413Y-32626793D01*
X83045410Y-32626794D01*
X82954085Y-32679521D01*
X82879521Y-32754085D01*
X82826794Y-32845410D01*
X82826793Y-32845413D01*
X82799500Y-32947273D01*
X75600500Y-32947273D01*
X75573207Y-32845413D01*
X75520480Y-32754087D01*
X75445913Y-32679520D01*
X75354587Y-32626793D01*
X75252727Y-32599500D01*
X75147273Y-32599500D01*
X75045413Y-32626793D01*
X75045410Y-32626794D01*
X74954085Y-32679521D01*
X74879521Y-32754085D01*
X74826794Y-32845410D01*
X74826793Y-32845413D01*
X74799500Y-32947273D01*
X67600500Y-32947273D01*
X67573207Y-32845413D01*
X67520480Y-32754087D01*
X67445913Y-32679520D01*
X67354587Y-32626793D01*
X67252727Y-32599500D01*
X67147273Y-32599500D01*
X67045413Y-32626793D01*
X67045410Y-32626794D01*
X66954085Y-32679521D01*
X66879521Y-32754085D01*
X66826794Y-32845410D01*
X66826793Y-32845413D01*
X66799500Y-32947273D01*
X59600500Y-32947273D01*
X59573207Y-32845413D01*
X59520480Y-32754087D01*
X59445913Y-32679520D01*
X59354587Y-32626793D01*
X59252727Y-32599500D01*
X59147273Y-32599500D01*
X59045413Y-32626793D01*
X59045410Y-32626794D01*
X58954085Y-32679521D01*
X58879521Y-32754085D01*
X58826794Y-32845410D01*
X58826793Y-32845413D01*
X58799500Y-32947273D01*
X51600500Y-32947273D01*
X51573207Y-32845413D01*
X51520480Y-32754087D01*
X51445913Y-32679520D01*
X51354587Y-32626793D01*
X51252727Y-32599500D01*
X51147273Y-32599500D01*
X51045413Y-32626793D01*
X51045410Y-32626794D01*
X50954085Y-32679521D01*
X50879521Y-32754085D01*
X50826794Y-32845410D01*
X50826793Y-32845413D01*
X50799500Y-32947273D01*
X44490061Y-32947273D01*
X44454587Y-32926792D01*
X44352727Y-32899499D01*
X44247273Y-32899499D01*
X44145413Y-32926792D01*
X44145410Y-32926793D01*
X44054085Y-32979520D01*
X43979521Y-33054084D01*
X43926794Y-33145409D01*
X43926793Y-33145412D01*
X43899500Y-33247272D01*
X42713665Y-33247272D01*
X42645913Y-33179520D01*
X42638584Y-33175289D01*
X42626619Y-33161146D01*
X42617655Y-33140890D01*
X42604593Y-33123000D01*
X42603792Y-33109564D01*
X42598345Y-33097253D01*
X42601756Y-33075362D01*
X42600899Y-33060976D01*
X42599439Y-33060784D01*
X42600500Y-33052726D01*
X42600500Y-32947275D01*
X42600500Y-32947273D01*
X42573207Y-32845413D01*
X42520480Y-32754087D01*
X42445913Y-32679520D01*
X42354587Y-32626793D01*
X42252727Y-32599500D01*
X42147273Y-32599500D01*
X42049861Y-32625601D01*
X41980011Y-32623938D01*
X41922149Y-32584775D01*
X41897994Y-32537921D01*
X41873207Y-32445413D01*
X41820480Y-32354087D01*
X41813666Y-32347273D01*
X55599500Y-32347273D01*
X55599500Y-32452727D01*
X55626793Y-32554587D01*
X55679520Y-32645913D01*
X55754087Y-32720480D01*
X55845413Y-32773207D01*
X55947273Y-32800500D01*
X55947275Y-32800500D01*
X56052725Y-32800500D01*
X56052727Y-32800500D01*
X56154587Y-32773207D01*
X56245913Y-32720480D01*
X56320480Y-32645913D01*
X56373207Y-32554587D01*
X56400500Y-32452727D01*
X56400500Y-32347273D01*
X56373207Y-32245413D01*
X56320480Y-32154087D01*
X56245913Y-32079520D01*
X56154587Y-32026793D01*
X56052727Y-31999500D01*
X55947273Y-31999500D01*
X55845413Y-32026793D01*
X55845410Y-32026794D01*
X55754085Y-32079521D01*
X55679521Y-32154085D01*
X55626794Y-32245410D01*
X55626793Y-32245413D01*
X55599500Y-32347273D01*
X41813666Y-32347273D01*
X41745913Y-32279520D01*
X41654587Y-32226793D01*
X41647548Y-32222729D01*
X41648955Y-32220291D01*
X41605196Y-32185015D01*
X41583143Y-32118717D01*
X41600434Y-32051021D01*
X41651580Y-32003419D01*
X41674961Y-31994542D01*
X41754587Y-31973207D01*
X41845913Y-31920480D01*
X41920480Y-31845913D01*
X41973207Y-31754587D01*
X42000500Y-31652727D01*
X42000500Y-31647273D01*
X43599500Y-31647273D01*
X43599500Y-31752727D01*
X43626793Y-31854587D01*
X43679520Y-31945913D01*
X43754087Y-32020480D01*
X43845413Y-32073207D01*
X43947273Y-32100500D01*
X43947275Y-32100500D01*
X44052725Y-32100500D01*
X44052727Y-32100500D01*
X44154587Y-32073207D01*
X44245913Y-32020480D01*
X44320480Y-31945913D01*
X44373207Y-31854587D01*
X44375167Y-31847273D01*
X53399500Y-31847273D01*
X53399500Y-31952727D01*
X53426793Y-32054587D01*
X53479520Y-32145913D01*
X53554087Y-32220480D01*
X53645413Y-32273207D01*
X53747273Y-32300500D01*
X53747275Y-32300500D01*
X53852725Y-32300500D01*
X53852727Y-32300500D01*
X53954587Y-32273207D01*
X54045913Y-32220480D01*
X54120480Y-32145913D01*
X54173207Y-32054587D01*
X54200500Y-31952727D01*
X54200500Y-31847273D01*
X54173207Y-31745413D01*
X54120480Y-31654087D01*
X54045913Y-31579520D01*
X53954587Y-31526793D01*
X53852727Y-31499500D01*
X53747273Y-31499500D01*
X53645413Y-31526793D01*
X53645410Y-31526794D01*
X53554085Y-31579521D01*
X53479521Y-31654085D01*
X53426794Y-31745410D01*
X53426793Y-31745413D01*
X53399500Y-31847273D01*
X44375167Y-31847273D01*
X44400500Y-31752727D01*
X44400500Y-31647273D01*
X44373207Y-31545413D01*
X44320480Y-31454087D01*
X44245913Y-31379520D01*
X44154587Y-31326793D01*
X44052727Y-31299500D01*
X43947273Y-31299500D01*
X43845413Y-31326793D01*
X43845410Y-31326794D01*
X43754085Y-31379521D01*
X43679521Y-31454085D01*
X43626794Y-31545410D01*
X43626793Y-31545413D01*
X43599500Y-31647273D01*
X42000500Y-31647273D01*
X42000500Y-31547273D01*
X41973207Y-31445413D01*
X41920480Y-31354087D01*
X41845913Y-31279520D01*
X41754587Y-31226793D01*
X41652727Y-31199500D01*
X41547273Y-31199500D01*
X41445413Y-31226793D01*
X41445410Y-31226794D01*
X41354085Y-31279521D01*
X41279521Y-31354085D01*
X41226794Y-31445410D01*
X41226793Y-31445413D01*
X41199500Y-31547273D01*
X41199500Y-31652727D01*
X41226793Y-31754587D01*
X41279520Y-31845913D01*
X41354087Y-31920480D01*
X41409939Y-31952726D01*
X41452452Y-31977271D01*
X41451042Y-31979712D01*
X41494788Y-32014963D01*
X41516855Y-32081257D01*
X41499577Y-32148957D01*
X41448442Y-32196568D01*
X41425029Y-32205460D01*
X41369679Y-32220291D01*
X41345413Y-32226793D01*
X41345410Y-32226794D01*
X41254085Y-32279521D01*
X41179521Y-32354085D01*
X41126794Y-32445410D01*
X41126793Y-32445413D01*
X41099500Y-32547273D01*
X30775167Y-32547273D01*
X30800500Y-32452727D01*
X30800500Y-32347273D01*
X30773207Y-32245413D01*
X30720480Y-32154087D01*
X30645913Y-32079520D01*
X30554587Y-32026793D01*
X30452727Y-31999500D01*
X30347273Y-31999500D01*
X30245413Y-32026793D01*
X30245410Y-32026794D01*
X30154085Y-32079521D01*
X30137681Y-32095926D01*
X30076358Y-32129411D01*
X30006666Y-32124427D01*
X29962319Y-32095926D01*
X29945914Y-32079521D01*
X29945913Y-32079520D01*
X29854587Y-32026793D01*
X29752727Y-31999500D01*
X29647273Y-31999500D01*
X29545413Y-32026793D01*
X29545410Y-32026794D01*
X29454085Y-32079521D01*
X29379521Y-32154085D01*
X29326794Y-32245410D01*
X29326793Y-32245413D01*
X29299500Y-32347273D01*
X18450500Y-32347273D01*
X18450500Y-30947273D01*
X22799500Y-30947273D01*
X22799500Y-31052727D01*
X22826793Y-31154587D01*
X22879520Y-31245913D01*
X22954087Y-31320480D01*
X23045413Y-31373207D01*
X23147273Y-31400500D01*
X23147275Y-31400500D01*
X23252725Y-31400500D01*
X23252727Y-31400500D01*
X23354587Y-31373207D01*
X23445913Y-31320480D01*
X23520480Y-31245913D01*
X23573207Y-31154587D01*
X23600500Y-31052727D01*
X23600500Y-30947273D01*
X30799500Y-30947273D01*
X30799500Y-31052727D01*
X30826793Y-31154587D01*
X30879520Y-31245913D01*
X30954087Y-31320480D01*
X31045413Y-31373207D01*
X31147273Y-31400500D01*
X31147275Y-31400500D01*
X31252725Y-31400500D01*
X31252727Y-31400500D01*
X31354587Y-31373207D01*
X31445913Y-31320480D01*
X31520480Y-31245913D01*
X31573207Y-31154587D01*
X31600500Y-31052727D01*
X31600500Y-30947273D01*
X37599500Y-30947273D01*
X37599500Y-31052727D01*
X37626793Y-31154587D01*
X37679520Y-31245913D01*
X37754087Y-31320480D01*
X37845413Y-31373207D01*
X37947273Y-31400500D01*
X37947275Y-31400500D01*
X38052725Y-31400500D01*
X38052727Y-31400500D01*
X38154587Y-31373207D01*
X38245913Y-31320480D01*
X38320480Y-31245913D01*
X38373207Y-31154587D01*
X38400500Y-31052727D01*
X38400500Y-30947273D01*
X38373207Y-30845413D01*
X38320480Y-30754087D01*
X38245913Y-30679520D01*
X38154587Y-30626793D01*
X38052727Y-30599500D01*
X37947273Y-30599500D01*
X37845413Y-30626793D01*
X37845410Y-30626794D01*
X37754085Y-30679521D01*
X37679521Y-30754085D01*
X37626794Y-30845410D01*
X37626793Y-30845413D01*
X37599500Y-30947273D01*
X31600500Y-30947273D01*
X31600500Y-30947270D01*
X31599633Y-30940684D01*
X31610399Y-30871649D01*
X31656780Y-30819393D01*
X31722572Y-30800500D01*
X31752725Y-30800500D01*
X31752727Y-30800500D01*
X31854587Y-30773207D01*
X31945913Y-30720480D01*
X32020480Y-30645913D01*
X32073207Y-30554587D01*
X32100500Y-30452727D01*
X32100500Y-30347273D01*
X46199500Y-30347273D01*
X46199500Y-30452727D01*
X46226793Y-30554587D01*
X46279520Y-30645913D01*
X46354087Y-30720480D01*
X46445413Y-30773207D01*
X46547273Y-30800500D01*
X46547275Y-30800500D01*
X46633745Y-30800500D01*
X46700784Y-30820185D01*
X46746539Y-30872989D01*
X46756483Y-30942147D01*
X46727458Y-31005703D01*
X46721426Y-31012181D01*
X46679521Y-31054085D01*
X46626794Y-31145410D01*
X46626793Y-31145413D01*
X46599500Y-31247273D01*
X46599500Y-31352727D01*
X46626793Y-31454587D01*
X46679520Y-31545913D01*
X46754087Y-31620480D01*
X46845413Y-31673207D01*
X46947273Y-31700500D01*
X46947275Y-31700500D01*
X47052725Y-31700500D01*
X47052727Y-31700500D01*
X47154587Y-31673207D01*
X47245913Y-31620480D01*
X47320480Y-31545913D01*
X47373207Y-31454587D01*
X47400500Y-31352727D01*
X47400500Y-31247273D01*
X47373207Y-31145413D01*
X47320480Y-31054087D01*
X47245913Y-30979520D01*
X47190059Y-30947273D01*
X50099500Y-30947273D01*
X50099500Y-31052727D01*
X50126793Y-31154587D01*
X50179520Y-31245913D01*
X50254087Y-31320480D01*
X50345413Y-31373207D01*
X50447273Y-31400500D01*
X50447275Y-31400500D01*
X50552725Y-31400500D01*
X50552727Y-31400500D01*
X50654587Y-31373207D01*
X50745913Y-31320480D01*
X50820480Y-31245913D01*
X50873207Y-31154587D01*
X50900500Y-31052727D01*
X50900500Y-30947273D01*
X54799500Y-30947273D01*
X54799500Y-31052727D01*
X54826793Y-31154587D01*
X54879520Y-31245913D01*
X54954087Y-31320480D01*
X55045413Y-31373207D01*
X55147273Y-31400500D01*
X55147275Y-31400500D01*
X55252725Y-31400500D01*
X55252727Y-31400500D01*
X55354587Y-31373207D01*
X55445913Y-31320480D01*
X55520480Y-31245913D01*
X55573207Y-31154587D01*
X55600500Y-31052727D01*
X55600500Y-30947273D01*
X62799500Y-30947273D01*
X62799500Y-31052727D01*
X62826793Y-31154587D01*
X62879520Y-31245913D01*
X62954087Y-31320480D01*
X63045413Y-31373207D01*
X63147273Y-31400500D01*
X63147275Y-31400500D01*
X63252725Y-31400500D01*
X63252727Y-31400500D01*
X63354587Y-31373207D01*
X63445913Y-31320480D01*
X63520480Y-31245913D01*
X63573207Y-31154587D01*
X63600500Y-31052727D01*
X63600500Y-30947273D01*
X70799500Y-30947273D01*
X70799500Y-31052727D01*
X70826793Y-31154587D01*
X70879520Y-31245913D01*
X70954087Y-31320480D01*
X71045413Y-31373207D01*
X71147273Y-31400500D01*
X71147275Y-31400500D01*
X71252725Y-31400500D01*
X71252727Y-31400500D01*
X71354587Y-31373207D01*
X71445913Y-31320480D01*
X71520480Y-31245913D01*
X71573207Y-31154587D01*
X71600500Y-31052727D01*
X71600500Y-30947273D01*
X78799500Y-30947273D01*
X78799500Y-31052727D01*
X78826793Y-31154587D01*
X78879520Y-31245913D01*
X78954087Y-31320480D01*
X79045413Y-31373207D01*
X79147273Y-31400500D01*
X79147275Y-31400500D01*
X79252725Y-31400500D01*
X79252727Y-31400500D01*
X79354587Y-31373207D01*
X79445913Y-31320480D01*
X79520480Y-31245913D01*
X79573207Y-31154587D01*
X79600500Y-31052727D01*
X79600500Y-30947273D01*
X86799500Y-30947273D01*
X86799500Y-31052727D01*
X86826793Y-31154587D01*
X86879520Y-31245913D01*
X86954087Y-31320480D01*
X87045413Y-31373207D01*
X87147273Y-31400500D01*
X87147275Y-31400500D01*
X87252725Y-31400500D01*
X87252727Y-31400500D01*
X87354587Y-31373207D01*
X87445913Y-31320480D01*
X87520480Y-31245913D01*
X87573207Y-31154587D01*
X87600500Y-31052727D01*
X87600500Y-30947273D01*
X87573207Y-30845413D01*
X87520480Y-30754087D01*
X87445913Y-30679520D01*
X87354587Y-30626793D01*
X87252727Y-30599500D01*
X87147273Y-30599500D01*
X87045413Y-30626793D01*
X87045410Y-30626794D01*
X86954085Y-30679521D01*
X86879521Y-30754085D01*
X86826794Y-30845410D01*
X86826793Y-30845413D01*
X86799500Y-30947273D01*
X79600500Y-30947273D01*
X79573207Y-30845413D01*
X79520480Y-30754087D01*
X79445913Y-30679520D01*
X79354587Y-30626793D01*
X79252727Y-30599500D01*
X79147273Y-30599500D01*
X79045413Y-30626793D01*
X79045410Y-30626794D01*
X78954085Y-30679521D01*
X78879521Y-30754085D01*
X78826794Y-30845410D01*
X78826793Y-30845413D01*
X78799500Y-30947273D01*
X71600500Y-30947273D01*
X71573207Y-30845413D01*
X71520480Y-30754087D01*
X71445913Y-30679520D01*
X71354587Y-30626793D01*
X71252727Y-30599500D01*
X71147273Y-30599500D01*
X71045413Y-30626793D01*
X71045410Y-30626794D01*
X70954085Y-30679521D01*
X70879521Y-30754085D01*
X70826794Y-30845410D01*
X70826793Y-30845413D01*
X70799500Y-30947273D01*
X63600500Y-30947273D01*
X63573207Y-30845413D01*
X63520480Y-30754087D01*
X63445913Y-30679520D01*
X63354587Y-30626793D01*
X63252727Y-30599500D01*
X63147273Y-30599500D01*
X63045413Y-30626793D01*
X63045410Y-30626794D01*
X62954085Y-30679521D01*
X62879521Y-30754085D01*
X62826794Y-30845410D01*
X62826793Y-30845413D01*
X62799500Y-30947273D01*
X55600500Y-30947273D01*
X55573207Y-30845413D01*
X55520480Y-30754087D01*
X55445913Y-30679520D01*
X55354587Y-30626793D01*
X55252727Y-30599500D01*
X55147273Y-30599500D01*
X55045413Y-30626793D01*
X55045410Y-30626794D01*
X54954085Y-30679521D01*
X54879521Y-30754085D01*
X54826794Y-30845410D01*
X54826793Y-30845413D01*
X54799500Y-30947273D01*
X50900500Y-30947273D01*
X50873207Y-30845413D01*
X50820480Y-30754087D01*
X50745913Y-30679520D01*
X50654587Y-30626793D01*
X50552727Y-30599500D01*
X50447273Y-30599500D01*
X50345413Y-30626793D01*
X50345410Y-30626794D01*
X50254085Y-30679521D01*
X50179521Y-30754085D01*
X50126794Y-30845410D01*
X50126793Y-30845413D01*
X50099500Y-30947273D01*
X47190059Y-30947273D01*
X47154587Y-30926793D01*
X47052727Y-30899500D01*
X46966255Y-30899500D01*
X46899216Y-30879815D01*
X46853461Y-30827011D01*
X46843517Y-30757853D01*
X46872542Y-30694297D01*
X46878574Y-30687819D01*
X46886873Y-30679520D01*
X46920480Y-30645913D01*
X46973207Y-30554587D01*
X47000500Y-30452727D01*
X47000500Y-30347273D01*
X53099500Y-30347273D01*
X53099500Y-30452727D01*
X53126793Y-30554587D01*
X53179520Y-30645913D01*
X53254087Y-30720480D01*
X53345413Y-30773207D01*
X53447273Y-30800500D01*
X53447275Y-30800500D01*
X53552725Y-30800500D01*
X53552727Y-30800500D01*
X53654587Y-30773207D01*
X53745913Y-30720480D01*
X53820480Y-30645913D01*
X53873207Y-30554587D01*
X53900500Y-30452727D01*
X53900500Y-30347273D01*
X53873207Y-30245413D01*
X53820480Y-30154087D01*
X53745913Y-30079520D01*
X53654587Y-30026793D01*
X53552727Y-29999500D01*
X53447273Y-29999500D01*
X53345413Y-30026793D01*
X53345410Y-30026794D01*
X53254085Y-30079521D01*
X53179521Y-30154085D01*
X53126794Y-30245410D01*
X53126793Y-30245413D01*
X53099500Y-30347273D01*
X47000500Y-30347273D01*
X46973207Y-30245413D01*
X46920480Y-30154087D01*
X46845913Y-30079520D01*
X46754587Y-30026793D01*
X46652727Y-29999500D01*
X46547273Y-29999500D01*
X46445413Y-30026793D01*
X46445410Y-30026794D01*
X46354085Y-30079521D01*
X46279521Y-30154085D01*
X46226794Y-30245410D01*
X46226793Y-30245413D01*
X46199500Y-30347273D01*
X32100500Y-30347273D01*
X32073207Y-30245413D01*
X32020480Y-30154087D01*
X31945913Y-30079520D01*
X31854587Y-30026793D01*
X31752727Y-29999500D01*
X31647273Y-29999500D01*
X31545413Y-30026793D01*
X31545410Y-30026794D01*
X31454085Y-30079521D01*
X31379521Y-30154085D01*
X31326794Y-30245410D01*
X31326793Y-30245413D01*
X31299500Y-30347273D01*
X31299500Y-30452729D01*
X31300367Y-30459316D01*
X31289601Y-30528351D01*
X31243220Y-30580607D01*
X31177428Y-30599500D01*
X31147273Y-30599500D01*
X31045413Y-30626793D01*
X31045410Y-30626794D01*
X30954085Y-30679521D01*
X30879521Y-30754085D01*
X30826794Y-30845410D01*
X30826793Y-30845413D01*
X30799500Y-30947273D01*
X23600500Y-30947273D01*
X23573207Y-30845413D01*
X23520480Y-30754087D01*
X23445913Y-30679520D01*
X23354587Y-30626793D01*
X23252727Y-30599500D01*
X23147273Y-30599500D01*
X23045413Y-30626793D01*
X23045410Y-30626794D01*
X22954085Y-30679521D01*
X22879521Y-30754085D01*
X22826794Y-30845410D01*
X22826793Y-30845413D01*
X22799500Y-30947273D01*
X18450500Y-30947273D01*
X18450500Y-29223594D01*
X18470185Y-29156555D01*
X18522989Y-29110800D01*
X18532650Y-29106869D01*
X18977900Y-28947273D01*
X26799500Y-28947273D01*
X26799500Y-29052727D01*
X26826793Y-29154587D01*
X26879520Y-29245913D01*
X26954087Y-29320480D01*
X27045413Y-29373207D01*
X27147273Y-29400500D01*
X27147275Y-29400500D01*
X27252725Y-29400500D01*
X27252727Y-29400500D01*
X27354587Y-29373207D01*
X27445913Y-29320480D01*
X27520480Y-29245913D01*
X27573207Y-29154587D01*
X27600500Y-29052727D01*
X27600500Y-28947273D01*
X34799500Y-28947273D01*
X34799500Y-29052727D01*
X34826793Y-29154587D01*
X34879520Y-29245913D01*
X34954087Y-29320480D01*
X35045413Y-29373207D01*
X35147273Y-29400500D01*
X35147275Y-29400500D01*
X35252725Y-29400500D01*
X35252727Y-29400500D01*
X35354587Y-29373207D01*
X35445913Y-29320480D01*
X35520480Y-29245913D01*
X35573207Y-29154587D01*
X35600500Y-29052727D01*
X35600500Y-28947273D01*
X37099500Y-28947273D01*
X37099500Y-29052727D01*
X37126793Y-29154587D01*
X37179520Y-29245913D01*
X37254087Y-29320480D01*
X37345413Y-29373207D01*
X37447273Y-29400500D01*
X37447275Y-29400500D01*
X37552725Y-29400500D01*
X37552727Y-29400500D01*
X37654587Y-29373207D01*
X37745913Y-29320480D01*
X37820480Y-29245913D01*
X37873207Y-29154587D01*
X37900500Y-29052727D01*
X37900500Y-28947273D01*
X42799500Y-28947273D01*
X42799500Y-29052727D01*
X42826793Y-29154587D01*
X42879520Y-29245913D01*
X42954087Y-29320480D01*
X43045413Y-29373207D01*
X43147273Y-29400500D01*
X43147275Y-29400500D01*
X43252725Y-29400500D01*
X43252727Y-29400500D01*
X43354587Y-29373207D01*
X43445913Y-29320480D01*
X43520480Y-29245913D01*
X43573207Y-29154587D01*
X43600500Y-29052727D01*
X43600500Y-28947273D01*
X50799500Y-28947273D01*
X50799500Y-29052727D01*
X50826793Y-29154587D01*
X50879520Y-29245913D01*
X50954087Y-29320480D01*
X51045413Y-29373207D01*
X51147273Y-29400500D01*
X51147275Y-29400500D01*
X51252725Y-29400500D01*
X51252727Y-29400500D01*
X51354587Y-29373207D01*
X51445913Y-29320480D01*
X51520480Y-29245913D01*
X51573207Y-29154587D01*
X51600500Y-29052727D01*
X51600500Y-28947273D01*
X51573207Y-28845413D01*
X51520480Y-28754087D01*
X51445913Y-28679520D01*
X51354587Y-28626793D01*
X51252727Y-28599500D01*
X51147273Y-28599500D01*
X51045413Y-28626793D01*
X51045410Y-28626794D01*
X50954085Y-28679521D01*
X50879521Y-28754085D01*
X50826794Y-28845410D01*
X50826793Y-28845413D01*
X50799500Y-28947273D01*
X43600500Y-28947273D01*
X43573207Y-28845413D01*
X43520480Y-28754087D01*
X43445913Y-28679520D01*
X43354587Y-28626793D01*
X43252727Y-28599500D01*
X43147273Y-28599500D01*
X43045413Y-28626793D01*
X43045410Y-28626794D01*
X42954085Y-28679521D01*
X42879521Y-28754085D01*
X42826794Y-28845410D01*
X42826793Y-28845413D01*
X42799500Y-28947273D01*
X37900500Y-28947273D01*
X37873207Y-28845413D01*
X37820480Y-28754087D01*
X37745913Y-28679520D01*
X37654587Y-28626793D01*
X37552727Y-28599500D01*
X37447273Y-28599500D01*
X37345413Y-28626793D01*
X37345410Y-28626794D01*
X37254085Y-28679521D01*
X37179521Y-28754085D01*
X37126794Y-28845410D01*
X37126793Y-28845413D01*
X37099500Y-28947273D01*
X35600500Y-28947273D01*
X35573207Y-28845413D01*
X35520480Y-28754087D01*
X35445913Y-28679520D01*
X35354587Y-28626793D01*
X35252727Y-28599500D01*
X35147273Y-28599500D01*
X35045413Y-28626793D01*
X35045410Y-28626794D01*
X34954085Y-28679521D01*
X34879521Y-28754085D01*
X34826794Y-28845410D01*
X34826793Y-28845413D01*
X34799500Y-28947273D01*
X27600500Y-28947273D01*
X27573207Y-28845413D01*
X27520480Y-28754087D01*
X27445913Y-28679520D01*
X27354587Y-28626793D01*
X27252727Y-28599500D01*
X27147273Y-28599500D01*
X27045413Y-28626793D01*
X27045410Y-28626794D01*
X26954085Y-28679521D01*
X26879521Y-28754085D01*
X26826794Y-28845410D01*
X26826793Y-28845413D01*
X26799500Y-28947273D01*
X18977900Y-28947273D01*
X22604711Y-27647273D01*
X39599500Y-27647273D01*
X39599500Y-27752727D01*
X39626793Y-27854587D01*
X39679520Y-27945913D01*
X39754087Y-28020480D01*
X39845413Y-28073207D01*
X39947273Y-28100500D01*
X39947275Y-28100500D01*
X40052725Y-28100500D01*
X40052727Y-28100500D01*
X40154587Y-28073207D01*
X40245913Y-28020480D01*
X40320480Y-27945913D01*
X40373207Y-27854587D01*
X40400500Y-27752727D01*
X40400500Y-27647273D01*
X40373207Y-27545413D01*
X40320480Y-27454087D01*
X40245913Y-27379520D01*
X40154587Y-27326793D01*
X40052727Y-27299500D01*
X39947273Y-27299500D01*
X39845413Y-27326793D01*
X39845410Y-27326794D01*
X39754085Y-27379521D01*
X39679521Y-27454085D01*
X39626794Y-27545410D01*
X39626793Y-27545413D01*
X39599500Y-27647273D01*
X22604711Y-27647273D01*
X24557609Y-26947273D01*
X30799500Y-26947273D01*
X30799500Y-27052727D01*
X30826793Y-27154587D01*
X30879520Y-27245913D01*
X30954087Y-27320480D01*
X31045413Y-27373207D01*
X31147273Y-27400500D01*
X31147275Y-27400500D01*
X31252725Y-27400500D01*
X31252727Y-27400500D01*
X31354587Y-27373207D01*
X31445913Y-27320480D01*
X31520480Y-27245913D01*
X31573207Y-27154587D01*
X31600500Y-27052727D01*
X31600500Y-26947273D01*
X38799500Y-26947273D01*
X38799500Y-27052727D01*
X38826793Y-27154587D01*
X38879520Y-27245913D01*
X38954087Y-27320480D01*
X39045413Y-27373207D01*
X39147273Y-27400500D01*
X39147275Y-27400500D01*
X39252725Y-27400500D01*
X39252727Y-27400500D01*
X39354587Y-27373207D01*
X39445913Y-27320480D01*
X39520480Y-27245913D01*
X39573207Y-27154587D01*
X39600500Y-27052727D01*
X39600500Y-26947273D01*
X46799500Y-26947273D01*
X46799500Y-27052727D01*
X46826793Y-27154587D01*
X46879520Y-27245913D01*
X46954087Y-27320480D01*
X47045413Y-27373207D01*
X47147273Y-27400500D01*
X47147275Y-27400500D01*
X47252725Y-27400500D01*
X47252727Y-27400500D01*
X47354587Y-27373207D01*
X47445913Y-27320480D01*
X47520480Y-27245913D01*
X47573207Y-27154587D01*
X47600500Y-27052727D01*
X47600500Y-26947273D01*
X54799500Y-26947273D01*
X54799500Y-27052727D01*
X54826793Y-27154587D01*
X54879520Y-27245913D01*
X54954087Y-27320480D01*
X55045413Y-27373207D01*
X55147273Y-27400500D01*
X55147275Y-27400500D01*
X55252725Y-27400500D01*
X55252727Y-27400500D01*
X55354587Y-27373207D01*
X55445913Y-27320480D01*
X55520480Y-27245913D01*
X55573207Y-27154587D01*
X55600500Y-27052727D01*
X55600500Y-26947273D01*
X55573207Y-26845413D01*
X55520480Y-26754087D01*
X55445913Y-26679520D01*
X55354587Y-26626793D01*
X55252727Y-26599500D01*
X55147273Y-26599500D01*
X55045413Y-26626793D01*
X55045410Y-26626794D01*
X54954085Y-26679521D01*
X54879521Y-26754085D01*
X54826794Y-26845410D01*
X54826793Y-26845413D01*
X54799500Y-26947273D01*
X47600500Y-26947273D01*
X47573207Y-26845413D01*
X47520480Y-26754087D01*
X47445913Y-26679520D01*
X47354587Y-26626793D01*
X47252727Y-26599500D01*
X47147273Y-26599500D01*
X47045413Y-26626793D01*
X47045410Y-26626794D01*
X46954085Y-26679521D01*
X46879521Y-26754085D01*
X46826794Y-26845410D01*
X46826793Y-26845413D01*
X46799500Y-26947273D01*
X39600500Y-26947273D01*
X39573207Y-26845413D01*
X39520480Y-26754087D01*
X39445913Y-26679520D01*
X39354587Y-26626793D01*
X39252727Y-26599500D01*
X39147273Y-26599500D01*
X39045413Y-26626793D01*
X39045410Y-26626794D01*
X38954085Y-26679521D01*
X38879521Y-26754085D01*
X38826794Y-26845410D01*
X38826793Y-26845413D01*
X38799500Y-26947273D01*
X31600500Y-26947273D01*
X31573207Y-26845413D01*
X31520480Y-26754087D01*
X31445913Y-26679520D01*
X31354587Y-26626793D01*
X31252727Y-26599500D01*
X31147273Y-26599500D01*
X31045413Y-26626793D01*
X31045410Y-26626794D01*
X30954085Y-26679521D01*
X30879521Y-26754085D01*
X30826794Y-26845410D01*
X30826793Y-26845413D01*
X30799500Y-26947273D01*
X24557609Y-26947273D01*
X33603229Y-23704946D01*
X33658569Y-23698412D01*
X100760044Y-31047621D01*
G37*
%TD.AperFunction*%
%TD*%
M02*
