%TF.GenerationSoftware,KiCad,Pcbnew,10.0.6*%
%TF.CreationDate,2026-09-27T16:35:26-04:00*%
%TF.ProjectId,upper-petal,75707065-722d-4706-9574-616c2e6b6963,rev?*%
%TF.SameCoordinates,Original*%
%TF.FileFunction,Copper,L1,Top*%
%TF.FilePolarity,Positive*%
%FSLAX46Y46*%
G04 Gerber Fmt 4.6, Leading zero omitted, Abs format (unit mm)*
G04 Created by KiCad (PCBNEW 10.0.6) date 2026-09-27 16:35:26*
%MOMM*%
%LPD*%
G01*
G04 APERTURE LIST*
G04 Aperture macros list*
%AMRoundRect*
0 Rectangle with rounded corners*
0 $1 Rounding radius*
0 $2 $3 $4 $5 $6 $7 $8 $9 X,Y pos of 4 corners*
0 Add a 4 corners polygon primitive as box body*
4,1,4,$2,$3,$4,$5,$6,$7,$8,$9,$2,$3,0*
0 Add four circle primitives for the rounded corners*
1,1,$1+$1,$2,$3*
1,1,$1+$1,$4,$5*
1,1,$1+$1,$6,$7*
1,1,$1+$1,$8,$9*
0 Add four rect primitives between the rounded corners*
20,1,$1+$1,$2,$3,$4,$5,0*
20,1,$1+$1,$4,$5,$6,$7,0*
20,1,$1+$1,$6,$7,$8,$9,0*
20,1,$1+$1,$8,$9,$2,$3,0*%
G04 Aperture macros list end*
%TA.AperFunction,SMDPad,CuDef*%
%ADD10RoundRect,0.160000X-0.240000X-0.240000X0.240000X-0.240000X0.240000X0.240000X-0.240000X0.240000X0*%
%TD*%
%TA.AperFunction,ViaPad*%
%ADD11C,0.500000*%
%TD*%
%TA.AperFunction,ViaPad*%
%ADD12C,0.600000*%
%TD*%
%TA.AperFunction,Conductor*%
%ADD13C,0.150000*%
%TD*%
%TA.AperFunction,Conductor*%
%ADD14C,0.200000*%
%TD*%
%TA.AperFunction,Conductor*%
%ADD15C,0.500000*%
%TD*%
G04 APERTURE END LIST*
D10*
%TO.P,D53,1*%
%TO.N,CS12*%
X51200000Y-32000000D03*
%TO.P,D53,2*%
%TO.N,SW3*%
X52800000Y-32000000D03*
%TD*%
%TO.P,D17,1*%
%TO.N,CS4*%
X31200000Y-36000000D03*
%TO.P,D17,2*%
%TO.N,SW1*%
X32800000Y-36000000D03*
%TD*%
%TO.P,D84,1*%
%TO.N,CS10*%
X75200000Y-40000000D03*
%TO.P,D84,2*%
%TO.N,SW6*%
X76800000Y-40000000D03*
%TD*%
%TO.P,D8,1*%
%TO.N,CS9*%
X27200000Y-44000000D03*
%TO.P,D8,2*%
%TO.N,SW0*%
X28800000Y-44000000D03*
%TD*%
%TO.P,D15,1*%
%TO.N,CS2*%
X31200000Y-44000000D03*
%TO.P,D15,2*%
%TO.N,SW1*%
X32800000Y-44000000D03*
%TD*%
%TO.P,D34,1*%
%TO.N,CS7*%
X43200000Y-52000000D03*
%TO.P,D34,2*%
%TO.N,SW2*%
X44800000Y-52000000D03*
%TD*%
%TO.P,D61,1*%
%TO.N,CS6*%
X55200000Y-28000000D03*
%TO.P,D61,2*%
%TO.N,SW4*%
X56800000Y-28000000D03*
%TD*%
%TO.P,D102,1*%
%TO.N,CS8*%
X91200000Y-48000000D03*
%TO.P,D102,2*%
%TO.N,SW8*%
X92800000Y-48000000D03*
%TD*%
%TO.P,D24,1*%
%TO.N,CS11*%
X35200000Y-36000000D03*
%TO.P,D24,2*%
%TO.N,SW1*%
X36800000Y-36000000D03*
%TD*%
%TO.P,D43,1*%
%TO.N,CS2*%
X47200000Y-44000000D03*
%TO.P,D43,2*%
%TO.N,SW3*%
X48800000Y-44000000D03*
%TD*%
%TO.P,D81,1*%
%TO.N,CS5*%
X71200000Y-32000000D03*
%TO.P,D81,2*%
%TO.N,SW6*%
X72800000Y-32000000D03*
%TD*%
%TO.P,D73,1*%
%TO.N,CS9*%
X67200000Y-44000000D03*
%TO.P,D73,2*%
%TO.N,SW5*%
X68800000Y-44000000D03*
%TD*%
%TO.P,D16,1*%
%TO.N,CS3*%
X31200000Y-40000000D03*
%TO.P,D16,2*%
%TO.N,SW1*%
X32800000Y-40000000D03*
%TD*%
%TO.P,D99,1*%
%TO.N,CS3*%
X87200000Y-40000000D03*
%TO.P,D99,2*%
%TO.N,SW8*%
X88800000Y-40000000D03*
%TD*%
%TO.P,D76,1*%
%TO.N,CS12*%
X67200000Y-32000000D03*
%TO.P,D76,2*%
%TO.N,SW5*%
X68800000Y-32000000D03*
%TD*%
%TO.P,D97,1*%
%TO.N,CS1*%
X87200000Y-48000000D03*
%TO.P,D97,2*%
%TO.N,SW8*%
X88800000Y-48000000D03*
%TD*%
%TO.P,D83,1*%
%TO.N,CS9*%
X75200000Y-44000000D03*
%TO.P,D83,2*%
%TO.N,SW6*%
X76800000Y-44000000D03*
%TD*%
%TO.P,D63,1*%
%TO.N,CS9*%
X59200000Y-44000000D03*
%TO.P,D63,2*%
%TO.N,SW4*%
X60800000Y-44000000D03*
%TD*%
%TO.P,D107,1*%
%TO.N,CS2*%
X95200000Y-44000000D03*
%TO.P,D107,2*%
%TO.N,SW9*%
X96800000Y-44000000D03*
%TD*%
%TO.P,D7,1*%
%TO.N,CS8*%
X27200000Y-48000000D03*
%TO.P,D7,2*%
%TO.N,SW0*%
X28800000Y-48000000D03*
%TD*%
%TO.P,D18,1*%
%TO.N,CS5*%
X31200000Y-32000000D03*
%TO.P,D18,2*%
%TO.N,SW1*%
X32800000Y-32000000D03*
%TD*%
%TO.P,D71,1*%
%TO.N,CS5*%
X63200000Y-32000000D03*
%TO.P,D71,2*%
%TO.N,SW5*%
X64800000Y-32000000D03*
%TD*%
%TO.P,D14,1*%
%TO.N,CS1*%
X31200000Y-48000000D03*
%TO.P,D14,2*%
%TO.N,SW1*%
X32800000Y-48000000D03*
%TD*%
%TO.P,D82,1*%
%TO.N,CS8*%
X75200000Y-48000000D03*
%TO.P,D82,2*%
%TO.N,SW6*%
X76800000Y-48000000D03*
%TD*%
%TO.P,D36,1*%
%TO.N,CS9*%
X43200000Y-44000000D03*
%TO.P,D36,2*%
%TO.N,SW2*%
X44800000Y-44000000D03*
%TD*%
%TO.P,D40,1*%
%TO.N,CS13*%
X43200000Y-28000000D03*
%TO.P,D40,2*%
%TO.N,SW2*%
X44800000Y-28000000D03*
%TD*%
%TO.P,D50,1*%
%TO.N,CS9*%
X51200000Y-44000000D03*
%TO.P,D50,2*%
%TO.N,SW3*%
X52800000Y-44000000D03*
%TD*%
%TO.P,D12,1*%
%TO.N,CS13*%
X27200000Y-28000000D03*
%TO.P,D12,2*%
%TO.N,SW0*%
X28800000Y-28000000D03*
%TD*%
%TO.P,D52,1*%
%TO.N,CS11*%
X51200000Y-36000000D03*
%TO.P,D52,2*%
%TO.N,SW3*%
X52800000Y-36000000D03*
%TD*%
%TO.P,D2,1*%
%TO.N,CS2*%
X23200000Y-44000000D03*
%TO.P,D2,2*%
%TO.N,SW0*%
X24800000Y-44000000D03*
%TD*%
%TO.P,D9,1*%
%TO.N,CS10*%
X27200000Y-40000000D03*
%TO.P,D9,2*%
%TO.N,SW0*%
X28800000Y-40000000D03*
%TD*%
%TO.P,D98,1*%
%TO.N,CS2*%
X87200000Y-44000000D03*
%TO.P,D98,2*%
%TO.N,SW8*%
X88800000Y-44000000D03*
%TD*%
%TO.P,D20,1*%
%TO.N,CS7*%
X35200000Y-52000000D03*
%TO.P,D20,2*%
%TO.N,SW1*%
X36800000Y-52000000D03*
%TD*%
%TO.P,D109,1*%
%TO.N,CS4*%
X95200000Y-36000000D03*
%TO.P,D109,2*%
%TO.N,SW9*%
X96800000Y-36000000D03*
%TD*%
%TO.P,D111,1*%
%TO.N,CS10*%
X99200000Y-40000000D03*
%TO.P,D111,2*%
%TO.N,SW9*%
X100800000Y-40000000D03*
%TD*%
%TO.P,D21,1*%
%TO.N,CS8*%
X35200000Y-48000000D03*
%TO.P,D21,2*%
%TO.N,SW1*%
X36800000Y-48000000D03*
%TD*%
%TO.P,D66,1*%
%TO.N,CS12*%
X59200000Y-32000000D03*
%TO.P,D66,2*%
%TO.N,SW4*%
X60800000Y-32000000D03*
%TD*%
%TO.P,D23,1*%
%TO.N,CS10*%
X35200000Y-40000000D03*
%TO.P,D23,2*%
%TO.N,SW1*%
X36800000Y-40000000D03*
%TD*%
%TO.P,D59,1*%
%TO.N,CS4*%
X55200000Y-36000000D03*
%TO.P,D59,2*%
%TO.N,SW4*%
X56800000Y-36000000D03*
%TD*%
%TO.P,D41,1*%
%TO.N,CS0*%
X47200000Y-52000000D03*
%TO.P,D41,2*%
%TO.N,SW3*%
X48800000Y-52000000D03*
%TD*%
%TO.P,D112,1*%
%TO.N,CS11*%
X99200000Y-36000000D03*
%TO.P,D112,2*%
%TO.N,SW9*%
X100800000Y-36000000D03*
%TD*%
%TO.P,D47,1*%
%TO.N,CS6*%
X47200000Y-28000000D03*
%TO.P,D47,2*%
%TO.N,SW3*%
X48800000Y-28000000D03*
%TD*%
%TO.P,D86,1*%
%TO.N,CS12*%
X75200000Y-32000000D03*
%TO.P,D86,2*%
%TO.N,SW6*%
X76800000Y-32000000D03*
%TD*%
%TO.P,D110,1*%
%TO.N,CS9*%
X99200000Y-44000000D03*
%TO.P,D110,2*%
%TO.N,SW9*%
X100800000Y-44000000D03*
%TD*%
%TO.P,D39,1*%
%TO.N,CS12*%
X43200000Y-32000000D03*
%TO.P,D39,2*%
%TO.N,SW2*%
X44800000Y-32000000D03*
%TD*%
%TO.P,D10,1*%
%TO.N,CS11*%
X27200000Y-36000000D03*
%TO.P,D10,2*%
%TO.N,SW0*%
X28800000Y-36000000D03*
%TD*%
%TO.P,D80,1*%
%TO.N,CS4*%
X71200000Y-36000000D03*
%TO.P,D80,2*%
%TO.N,SW6*%
X72800000Y-36000000D03*
%TD*%
%TO.P,D28,1*%
%TO.N,CS1*%
X39200000Y-48000000D03*
%TO.P,D28,2*%
%TO.N,SW2*%
X40800000Y-48000000D03*
%TD*%
%TO.P,D108,1*%
%TO.N,CS3*%
X95200000Y-40000000D03*
%TO.P,D108,2*%
%TO.N,SW9*%
X96800000Y-40000000D03*
%TD*%
%TO.P,D1,1*%
%TO.N,CS1*%
X23200000Y-48000000D03*
%TO.P,D1,2*%
%TO.N,SW0*%
X24800000Y-48000000D03*
%TD*%
%TO.P,D77,1*%
%TO.N,CS1*%
X71200000Y-48000000D03*
%TO.P,D77,2*%
%TO.N,SW6*%
X72800000Y-48000000D03*
%TD*%
%TO.P,D75,1*%
%TO.N,CS11*%
X67200000Y-36000000D03*
%TO.P,D75,2*%
%TO.N,SW5*%
X68800000Y-36000000D03*
%TD*%
%TO.P,D51,1*%
%TO.N,CS10*%
X51200000Y-40000000D03*
%TO.P,D51,2*%
%TO.N,SW3*%
X52800000Y-40000000D03*
%TD*%
%TO.P,D3,1*%
%TO.N,CS3*%
X23200000Y-40000000D03*
%TO.P,D3,2*%
%TO.N,SW0*%
X24800000Y-40000000D03*
%TD*%
%TO.P,D30,1*%
%TO.N,CS3*%
X39200000Y-40000000D03*
%TO.P,D30,2*%
%TO.N,SW2*%
X40800000Y-40000000D03*
%TD*%
%TO.P,D44,1*%
%TO.N,CS3*%
X47200000Y-40000000D03*
%TO.P,D44,2*%
%TO.N,SW3*%
X48800000Y-40000000D03*
%TD*%
%TO.P,D105,1*%
%TO.N,CS11*%
X91200000Y-36000000D03*
%TO.P,D105,2*%
%TO.N,SW8*%
X92800000Y-36000000D03*
%TD*%
%TO.P,D6,1*%
%TO.N,CS7*%
X27200000Y-52000000D03*
%TO.P,D6,2*%
%TO.N,SW0*%
X28800000Y-52000000D03*
%TD*%
%TO.P,D101,1*%
%TO.N,CS5*%
X87200000Y-32000000D03*
%TO.P,D101,2*%
%TO.N,SW8*%
X88800000Y-32000000D03*
%TD*%
%TO.P,D37,1*%
%TO.N,CS10*%
X43200000Y-40000000D03*
%TO.P,D37,2*%
%TO.N,SW2*%
X44800000Y-40000000D03*
%TD*%
%TO.P,D67,1*%
%TO.N,CS1*%
X63200000Y-48000000D03*
%TO.P,D67,2*%
%TO.N,SW5*%
X64800000Y-48000000D03*
%TD*%
%TO.P,D95,1*%
%TO.N,CS11*%
X83200000Y-36000000D03*
%TO.P,D95,2*%
%TO.N,SW7*%
X84800000Y-36000000D03*
%TD*%
%TO.P,D62,1*%
%TO.N,CS8*%
X59200000Y-48000000D03*
%TO.P,D62,2*%
%TO.N,SW4*%
X60800000Y-48000000D03*
%TD*%
%TO.P,D45,1*%
%TO.N,CS4*%
X47200000Y-36000000D03*
%TO.P,D45,2*%
%TO.N,SW3*%
X48800000Y-36000000D03*
%TD*%
%TO.P,D70,1*%
%TO.N,CS4*%
X63200000Y-36000000D03*
%TO.P,D70,2*%
%TO.N,SW5*%
X64800000Y-36000000D03*
%TD*%
%TO.P,D96,1*%
%TO.N,CS12*%
X83200000Y-32000000D03*
%TO.P,D96,2*%
%TO.N,SW7*%
X84800000Y-32000000D03*
%TD*%
%TO.P,D69,1*%
%TO.N,CS3*%
X63200000Y-40000000D03*
%TO.P,D69,2*%
%TO.N,SW5*%
X64800000Y-40000000D03*
%TD*%
%TO.P,D42,1*%
%TO.N,CS1*%
X47200000Y-48000000D03*
%TO.P,D42,2*%
%TO.N,SW3*%
X48800000Y-48000000D03*
%TD*%
%TO.P,D4,1*%
%TO.N,CS4*%
X23200000Y-36000000D03*
%TO.P,D4,2*%
%TO.N,SW0*%
X24800000Y-36000000D03*
%TD*%
%TO.P,D26,1*%
%TO.N,CS13*%
X35200000Y-28000000D03*
%TO.P,D26,2*%
%TO.N,SW1*%
X36800000Y-28000000D03*
%TD*%
%TO.P,D57,1*%
%TO.N,CS2*%
X55200000Y-44000000D03*
%TO.P,D57,2*%
%TO.N,SW4*%
X56800000Y-44000000D03*
%TD*%
%TO.P,D79,1*%
%TO.N,CS3*%
X71200000Y-40000000D03*
%TO.P,D79,2*%
%TO.N,SW6*%
X72800000Y-40000000D03*
%TD*%
%TO.P,D92,1*%
%TO.N,CS8*%
X83200000Y-48000000D03*
%TO.P,D92,2*%
%TO.N,SW7*%
X84800000Y-48000000D03*
%TD*%
%TO.P,D5,1*%
%TO.N,CS5*%
X23200000Y-32000000D03*
%TO.P,D5,2*%
%TO.N,SW0*%
X24800000Y-32000000D03*
%TD*%
%TO.P,D60,1*%
%TO.N,CS5*%
X55200000Y-32000000D03*
%TO.P,D60,2*%
%TO.N,SW4*%
X56800000Y-32000000D03*
%TD*%
%TO.P,D90,1*%
%TO.N,CS4*%
X79200000Y-36000000D03*
%TO.P,D90,2*%
%TO.N,SW7*%
X80800000Y-36000000D03*
%TD*%
%TO.P,D35,1*%
%TO.N,CS8*%
X43200000Y-48000000D03*
%TO.P,D35,2*%
%TO.N,SW2*%
X44800000Y-48000000D03*
%TD*%
%TO.P,D64,1*%
%TO.N,CS10*%
X59200000Y-40000000D03*
%TO.P,D64,2*%
%TO.N,SW4*%
X60800000Y-40000000D03*
%TD*%
%TO.P,D25,1*%
%TO.N,CS12*%
X35200000Y-32000000D03*
%TO.P,D25,2*%
%TO.N,SW1*%
X36800000Y-32000000D03*
%TD*%
%TO.P,D87,1*%
%TO.N,CS1*%
X79200000Y-48000000D03*
%TO.P,D87,2*%
%TO.N,SW7*%
X80800000Y-48000000D03*
%TD*%
%TO.P,D54,1*%
%TO.N,CS13*%
X51200000Y-28000000D03*
%TO.P,D54,2*%
%TO.N,SW3*%
X52800000Y-28000000D03*
%TD*%
%TO.P,D22,1*%
%TO.N,CS9*%
X35200000Y-44000000D03*
%TO.P,D22,2*%
%TO.N,SW1*%
X36800000Y-44000000D03*
%TD*%
%TO.P,D68,1*%
%TO.N,CS2*%
X63200000Y-44000000D03*
%TO.P,D68,2*%
%TO.N,SW5*%
X64800000Y-44000000D03*
%TD*%
%TO.P,D32,1*%
%TO.N,CS5*%
X39200000Y-32000000D03*
%TO.P,D32,2*%
%TO.N,SW2*%
X40800000Y-32000000D03*
%TD*%
%TO.P,D94,1*%
%TO.N,CS10*%
X83200000Y-40000000D03*
%TO.P,D94,2*%
%TO.N,SW7*%
X84800000Y-40000000D03*
%TD*%
%TO.P,D93,1*%
%TO.N,CS9*%
X83200000Y-44000000D03*
%TO.P,D93,2*%
%TO.N,SW7*%
X84800000Y-44000000D03*
%TD*%
%TO.P,D100,1*%
%TO.N,CS4*%
X87200000Y-36000000D03*
%TO.P,D100,2*%
%TO.N,SW8*%
X88800000Y-36000000D03*
%TD*%
%TO.P,D103,1*%
%TO.N,CS9*%
X91200000Y-44000000D03*
%TO.P,D103,2*%
%TO.N,SW8*%
X92800000Y-44000000D03*
%TD*%
%TO.P,D13,1*%
%TO.N,CS0*%
X31200000Y-52000000D03*
%TO.P,D13,2*%
%TO.N,SW1*%
X32800000Y-52000000D03*
%TD*%
%TO.P,D65,1*%
%TO.N,CS11*%
X59200000Y-36000000D03*
%TO.P,D65,2*%
%TO.N,SW4*%
X60800000Y-36000000D03*
%TD*%
%TO.P,D91,1*%
%TO.N,CS5*%
X79200000Y-32000000D03*
%TO.P,D91,2*%
%TO.N,SW7*%
X80800000Y-32000000D03*
%TD*%
%TO.P,D55,1*%
%TO.N,CS0*%
X55200000Y-52000000D03*
%TO.P,D55,2*%
%TO.N,SW4*%
X56800000Y-52000000D03*
%TD*%
%TO.P,D33,1*%
%TO.N,CS6*%
X39200000Y-28000000D03*
%TO.P,D33,2*%
%TO.N,SW2*%
X40800000Y-28000000D03*
%TD*%
%TO.P,D11,1*%
%TO.N,CS12*%
X27200000Y-32000000D03*
%TO.P,D11,2*%
%TO.N,SW0*%
X28800000Y-32000000D03*
%TD*%
%TO.P,D89,1*%
%TO.N,CS3*%
X79200000Y-40000000D03*
%TO.P,D89,2*%
%TO.N,SW7*%
X80800000Y-40000000D03*
%TD*%
%TO.P,D29,1*%
%TO.N,CS2*%
X39200000Y-44000000D03*
%TO.P,D29,2*%
%TO.N,SW2*%
X40800000Y-44000000D03*
%TD*%
%TO.P,D49,1*%
%TO.N,CS8*%
X51200000Y-48000000D03*
%TO.P,D49,2*%
%TO.N,SW3*%
X52800000Y-48000000D03*
%TD*%
%TO.P,D46,1*%
%TO.N,CS5*%
X47200000Y-32000000D03*
%TO.P,D46,2*%
%TO.N,SW3*%
X48800000Y-32000000D03*
%TD*%
%TO.P,D38,1*%
%TO.N,CS11*%
X43200000Y-36000000D03*
%TO.P,D38,2*%
%TO.N,SW2*%
X44800000Y-36000000D03*
%TD*%
%TO.P,D27,1*%
%TO.N,CS0*%
X39200000Y-52000000D03*
%TO.P,D27,2*%
%TO.N,SW2*%
X40800000Y-52000000D03*
%TD*%
%TO.P,D113,1*%
%TO.N,CS3*%
X127200000Y-40000000D03*
%TO.P,D113,2*%
%TO.N,SW10*%
X128800000Y-40000000D03*
%TD*%
%TO.P,D78,1*%
%TO.N,CS2*%
X71200000Y-44000000D03*
%TO.P,D78,2*%
%TO.N,SW6*%
X72800000Y-44000000D03*
%TD*%
%TO.P,D72,1*%
%TO.N,CS8*%
X67200000Y-48000000D03*
%TO.P,D72,2*%
%TO.N,SW5*%
X68800000Y-48000000D03*
%TD*%
%TO.P,D19,1*%
%TO.N,CS6*%
X31200000Y-28000000D03*
%TO.P,D19,2*%
%TO.N,SW1*%
X32800000Y-28000000D03*
%TD*%
%TO.P,D104,1*%
%TO.N,CS10*%
X91200000Y-40000000D03*
%TO.P,D104,2*%
%TO.N,SW8*%
X92800000Y-40000000D03*
%TD*%
%TO.P,D48,1*%
%TO.N,CS7*%
X51200000Y-52000000D03*
%TO.P,D48,2*%
%TO.N,SW3*%
X52800000Y-52000000D03*
%TD*%
%TO.P,D58,1*%
%TO.N,CS3*%
X55200000Y-40000000D03*
%TO.P,D58,2*%
%TO.N,SW4*%
X56800000Y-40000000D03*
%TD*%
%TO.P,D56,1*%
%TO.N,CS1*%
X55200000Y-48000000D03*
%TO.P,D56,2*%
%TO.N,SW4*%
X56800000Y-48000000D03*
%TD*%
%TO.P,D88,1*%
%TO.N,CS2*%
X79200000Y-44000000D03*
%TO.P,D88,2*%
%TO.N,SW7*%
X80800000Y-44000000D03*
%TD*%
%TO.P,D31,1*%
%TO.N,CS4*%
X39200000Y-36000000D03*
%TO.P,D31,2*%
%TO.N,SW2*%
X40800000Y-36000000D03*
%TD*%
%TO.P,D106,1*%
%TO.N,CS12*%
X91200000Y-32000000D03*
%TO.P,D106,2*%
%TO.N,SW8*%
X92800000Y-32000000D03*
%TD*%
%TO.P,D74,1*%
%TO.N,CS10*%
X67200000Y-40000000D03*
%TO.P,D74,2*%
%TO.N,SW5*%
X68800000Y-40000000D03*
%TD*%
%TO.P,D85,1*%
%TO.N,CS11*%
X75200000Y-36000000D03*
%TO.P,D85,2*%
%TO.N,SW6*%
X76800000Y-36000000D03*
%TD*%
D11*
%TO.N,CS12*%
X27200000Y-33000000D03*
X35200000Y-33000000D03*
X75200000Y-33000000D03*
X59200000Y-33000000D03*
X67200000Y-33000000D03*
X91200000Y-33000000D03*
X41500000Y-32600000D03*
X35800000Y-33000000D03*
X83200000Y-33000000D03*
X51200000Y-33000000D03*
%TO.N,SW3*%
X45600000Y-45300000D03*
X49300000Y-42100000D03*
%TO.N,CS4*%
X71200000Y-35000000D03*
X79200000Y-35000000D03*
X63200000Y-35000000D03*
X31200000Y-35000000D03*
X87200000Y-35000000D03*
X47800000Y-35000000D03*
X50000000Y-39400000D03*
X55200000Y-35000000D03*
X95200000Y-35000000D03*
X38000000Y-35000000D03*
X23200000Y-35000000D03*
%TO.N,SW1*%
X46000000Y-44100000D03*
X36800000Y-44600000D03*
%TO.N,CS10*%
X99200000Y-41000000D03*
X39600000Y-41000000D03*
X51100000Y-39900000D03*
X75200000Y-41000000D03*
X59200000Y-41000000D03*
X51200000Y-41000000D03*
X91200000Y-41000000D03*
X35200000Y-41000000D03*
X45500000Y-37200000D03*
X27200000Y-41000000D03*
X38000000Y-41000000D03*
X67200000Y-41000000D03*
X83200000Y-41000000D03*
%TO.N,SW6*%
X69300000Y-49600000D03*
X41200000Y-46500000D03*
X42300000Y-48200000D03*
%TO.N,CS9*%
X91200000Y-45000000D03*
X51200000Y-45000000D03*
X99200000Y-45000000D03*
X36100000Y-43100000D03*
X67200000Y-45000000D03*
X75200000Y-45000000D03*
X27200000Y-45000000D03*
X35200000Y-45000000D03*
X83200000Y-45000000D03*
X38000000Y-42000000D03*
X59200000Y-45000000D03*
%TO.N,SW0*%
X45500000Y-42000000D03*
X28800000Y-44000000D03*
%TO.N,CS2*%
X87200000Y-43000000D03*
X71200000Y-43000000D03*
X46000000Y-43000000D03*
X39200000Y-43000000D03*
X47900000Y-38300000D03*
X23200000Y-43000000D03*
X55200000Y-43000000D03*
X47800000Y-44200000D03*
X32000000Y-44400000D03*
X31200000Y-43000000D03*
X63200000Y-43000000D03*
X79200000Y-43000000D03*
X95200000Y-43000000D03*
%TO.N,CS7*%
X51100000Y-43000000D03*
X35200000Y-53000000D03*
X53500000Y-42700000D03*
X51200000Y-53000000D03*
X27200000Y-53000000D03*
X43200000Y-53000000D03*
%TO.N,SW2*%
X47199999Y-46500000D03*
X45200000Y-44000000D03*
%TO.N,CS6*%
X31200000Y-27000000D03*
X53500000Y-37600000D03*
X47200000Y-27000000D03*
X55200000Y-27000000D03*
X39200000Y-27000000D03*
X50000000Y-41800000D03*
X52000000Y-39400000D03*
%TO.N,SW4*%
X56800000Y-46300000D03*
X45100000Y-45900000D03*
%TO.N,CS8*%
X91200000Y-49000000D03*
X83200000Y-49000000D03*
X59200000Y-49000000D03*
X51200000Y-49000000D03*
X27200000Y-49000000D03*
X43000000Y-46200000D03*
X75200000Y-49000000D03*
X49400000Y-46600000D03*
X67200000Y-49000000D03*
X46600000Y-48900000D03*
X35200000Y-49000000D03*
%TO.N,SW8*%
X88800000Y-48000000D03*
%TO.N,CS11*%
X42000000Y-34400000D03*
X99200000Y-37000000D03*
X67200000Y-37000000D03*
X59200000Y-37000000D03*
X27800000Y-37000000D03*
X91200000Y-37000000D03*
X38000000Y-40000000D03*
X83200000Y-37000000D03*
X75200000Y-37000000D03*
X37700000Y-34400000D03*
X36100000Y-34400000D03*
X35200000Y-37000000D03*
X51200000Y-37000000D03*
%TO.N,CS5*%
X38000000Y-31000000D03*
X79200000Y-31000000D03*
X87200000Y-31000000D03*
X50500000Y-31000000D03*
X63200000Y-31000000D03*
X23200000Y-31000000D03*
X55200000Y-31000000D03*
X47000000Y-31300000D03*
X31200000Y-31000000D03*
X71200000Y-31000000D03*
%TO.N,SW5*%
X57800000Y-48400000D03*
X44200000Y-46800000D03*
%TO.N,CS3*%
X46200000Y-37200000D03*
X39900000Y-38900000D03*
X55200000Y-39000000D03*
X51800000Y-38700000D03*
X63200000Y-39000000D03*
X127200000Y-39000000D03*
X79200000Y-39000000D03*
X87200000Y-39000000D03*
X95200000Y-39000000D03*
X31200000Y-39000000D03*
X50000000Y-38200000D03*
X23200000Y-39000000D03*
X71200000Y-39000000D03*
X47200000Y-39000000D03*
%TO.N,CS1*%
X47900000Y-47000000D03*
X71200000Y-47000000D03*
X38400000Y-48000000D03*
X79200000Y-47000000D03*
X24000000Y-48400000D03*
X55200000Y-47000000D03*
X50000000Y-35800000D03*
X87200000Y-47000000D03*
X51900000Y-47000000D03*
X51000000Y-37700000D03*
X63200000Y-47000000D03*
X31200000Y-48000000D03*
%TO.N,SW9*%
X96200000Y-44100000D03*
%TO.N,CS13*%
X51200000Y-29000000D03*
X27200000Y-29000000D03*
X35200000Y-29000000D03*
X43200000Y-29000000D03*
X37500000Y-29000000D03*
%TO.N,CS0*%
X50000000Y-34600000D03*
X31200000Y-51000000D03*
X54600000Y-38200000D03*
X47200000Y-51000000D03*
X39200000Y-51000000D03*
X55200000Y-51000000D03*
X52100000Y-37600000D03*
%TO.N,SW7*%
X80400000Y-47600000D03*
%TO.N,SW10*%
X38000000Y-43000000D03*
X37500000Y-42900000D03*
X128100000Y-40000000D03*
D12*
%TO.N,GND*%
X43800000Y-38900000D03*
D11*
X53775000Y-39263900D03*
X38563900Y-30075000D03*
D12*
X42200000Y-38900000D03*
D11*
X76011100Y-40425000D03*
D12*
X42200000Y-41100000D03*
D11*
X23784900Y-36875000D03*
X45725000Y-29763900D03*
X63200000Y-37732100D03*
X40000000Y-37600000D03*
X41725000Y-49736100D03*
X23336100Y-32950000D03*
X37600000Y-33500000D03*
X58200000Y-42000000D03*
X32049999Y-34000000D03*
X79300000Y-45732100D03*
X43875000Y-49736100D03*
X22175000Y-48211100D03*
X47563900Y-30075000D03*
X42300000Y-31700000D03*
D12*
X43800000Y-41100000D03*
D11*
X63200000Y-41732100D03*
X32049999Y-29850000D03*
%TO.N,SCLK*%
X42200000Y-33000000D03*
X42400000Y-33500000D03*
X51500000Y-33600000D03*
X29600000Y-35600000D03*
X30400000Y-32400000D03*
%TO.N,VIO_EN*%
X52100000Y-34300000D03*
X47200000Y-33500000D03*
%TO.N,IFS*%
X53600000Y-36300000D03*
X41600000Y-36300000D03*
%TO.N,VLED_3V3*%
X45500000Y-49600000D03*
X42400000Y-46500000D03*
X38200000Y-45200000D03*
X43200000Y-49600000D03*
X42500000Y-45500000D03*
%TO.N,SS_N*%
X53800000Y-31900000D03*
X29700000Y-32400000D03*
X44000000Y-31700000D03*
X41600000Y-31600000D03*
%TO.N,VCC_3V3*%
X31700000Y-30400000D03*
X46600000Y-30400000D03*
X30400000Y-35600000D03*
X53500000Y-30400000D03*
%TO.N,NTC_RETURN*%
X68100000Y-46400000D03*
X60500000Y-50700000D03*
%TO.N,MISO_IC*%
X44300000Y-33299999D03*
X56000000Y-32400000D03*
X55800000Y-42000000D03*
X44800000Y-33500000D03*
%TO.N,MISO_HOST*%
X54000000Y-51600000D03*
X32100000Y-42600000D03*
X26500000Y-41000000D03*
X54000000Y-44400000D03*
%TO.N,VSYNC*%
X40000000Y-27700000D03*
X31800000Y-38400000D03*
X41900000Y-35600000D03*
X39900000Y-36600000D03*
%TO.N,MOSI*%
X33600000Y-35600000D03*
X55400000Y-37600000D03*
X32000000Y-36300000D03*
X54800000Y-34400000D03*
%TD*%
%TO.N,CS12*%
D13*
X43200000Y-32000000D02*
X44600000Y-32700000D01*
D14*
X83200000Y-32000000D02*
X83200000Y-33000000D01*
D13*
X44600000Y-32700000D02*
X51100000Y-32600000D01*
D14*
X35200000Y-32000000D02*
X35200000Y-33000000D01*
X75200000Y-32000000D02*
X75200000Y-33000000D01*
X67200000Y-32000000D02*
X67200000Y-33000000D01*
X91200000Y-32000000D02*
X91200000Y-33000000D01*
X51200000Y-32000000D02*
X51200000Y-33000000D01*
X59200000Y-32000000D02*
X59200000Y-33000000D01*
X27200000Y-32000000D02*
X27200000Y-33000000D01*
D13*
X43200000Y-32000000D02*
X41500000Y-32600000D01*
%TO.N,SW3*%
D15*
X48800000Y-42285714D02*
X48800000Y-44000000D01*
X52800000Y-30000000D02*
X52800000Y-32000000D01*
D14*
X49300000Y-42100000D02*
X48800000Y-42285714D01*
X50200000Y-42400000D02*
X52800000Y-42285714D01*
D15*
X52800000Y-42285714D02*
X52800000Y-44000000D01*
X48800000Y-48000000D02*
X48800000Y-49714285D01*
X48800000Y-49714285D02*
X48800000Y-52000000D01*
X52800000Y-36000000D02*
X52800000Y-40000000D01*
X52800000Y-40000000D02*
X52800000Y-42285714D01*
X52800000Y-49714285D02*
X52800000Y-52000000D01*
X52800000Y-48000000D02*
X52800000Y-49714285D01*
X52800000Y-32000000D02*
X52800000Y-36000000D01*
X52800000Y-44000000D02*
X52800000Y-48000000D01*
X48800000Y-30000000D02*
X48800000Y-32000000D01*
X52800000Y-28000000D02*
X52800000Y-30000000D01*
D14*
X48800000Y-49714285D02*
X52800000Y-49714285D01*
D15*
X48800000Y-36000000D02*
X48800000Y-40000000D01*
D14*
X49300000Y-42100000D02*
X50200000Y-42400000D01*
D15*
X48800000Y-40000000D02*
X48800000Y-42285714D01*
X48800000Y-28000000D02*
X48800000Y-30000000D01*
X48800000Y-30000000D02*
X52800000Y-30000000D01*
%TO.N,CS4*%
D13*
X49500000Y-38300000D02*
X49500000Y-35700000D01*
D14*
X47200000Y-36000000D02*
X47800000Y-35000000D01*
X39200000Y-36000000D02*
X38000000Y-35000000D01*
X71200000Y-36000000D02*
X71200000Y-35000000D01*
X31200000Y-36000000D02*
X31200000Y-35000000D01*
X87200000Y-36000000D02*
X87200000Y-35000000D01*
X55200000Y-36000000D02*
X55200000Y-35000000D01*
D13*
X49300000Y-35400000D02*
X47800000Y-35000000D01*
D14*
X95200000Y-36000000D02*
X95200000Y-35000000D01*
X79200000Y-36000000D02*
X79200000Y-35000000D01*
D13*
X50000000Y-39400000D02*
X49500000Y-38300000D01*
D14*
X23200000Y-36000000D02*
X23200000Y-35000000D01*
X63200000Y-36000000D02*
X63200000Y-35000000D01*
D13*
X49500000Y-35700000D02*
X49300000Y-35400000D01*
%TO.N,SW1*%
D15*
X36800000Y-36000000D02*
X36800000Y-40000000D01*
X36800000Y-30000000D02*
X36800000Y-32000000D01*
X36800000Y-44571428D02*
X36800000Y-44600000D01*
X32799999Y-32000000D02*
X32799999Y-36000000D01*
X32799999Y-48000000D02*
X32799999Y-52000000D01*
X36800000Y-44600000D02*
X36800000Y-48000000D01*
X36800000Y-40000000D02*
X36800000Y-44000000D01*
D14*
X36800000Y-44600000D02*
X36800000Y-44571428D01*
D15*
X36800000Y-48000000D02*
X36800000Y-52000000D01*
X32799999Y-44000000D02*
X32799999Y-48000000D01*
X36800000Y-44000000D02*
X36800000Y-44571428D01*
X32799999Y-30000000D02*
X32799999Y-32000000D01*
X36800000Y-28000000D02*
X36800000Y-30000000D01*
X32799999Y-30000000D02*
X36800000Y-30000000D01*
X36800000Y-32000000D02*
X36800000Y-36000000D01*
X32799999Y-36000000D02*
X32799999Y-40000000D01*
X32799999Y-40000000D02*
X32799999Y-44000000D01*
X32799999Y-28000000D02*
X32799999Y-30000000D01*
%TO.N,CS10*%
D14*
X99200000Y-40000000D02*
X99200000Y-41000000D01*
X59200000Y-40000000D02*
X59200000Y-41000000D01*
D13*
X43200000Y-40000000D02*
X43200000Y-38600000D01*
X44600000Y-35300000D02*
X45300000Y-35400000D01*
D14*
X91200000Y-40000000D02*
X91200000Y-41000000D01*
D13*
X51100000Y-39900000D02*
X51200000Y-40000000D01*
D14*
X51200000Y-40000000D02*
X51200000Y-41000000D01*
X27200000Y-40000000D02*
X27200000Y-41000000D01*
X83200000Y-40000000D02*
X83200000Y-41000000D01*
D13*
X43200000Y-38600000D02*
X44200000Y-35500000D01*
D14*
X35200000Y-40000000D02*
X35200000Y-41000000D01*
X67200000Y-40000000D02*
X67200000Y-41000000D01*
D13*
X45500000Y-35800000D02*
X45500000Y-37200000D01*
X44200000Y-35500000D02*
X44600000Y-35300000D01*
D14*
X75200000Y-40000000D02*
X75200000Y-41000000D01*
D13*
X45300000Y-35400000D02*
X45500000Y-35800000D01*
%TO.N,SW6*%
D15*
X76800000Y-36000000D02*
X76800000Y-40000000D01*
X72800000Y-34000000D02*
X76800000Y-34000000D01*
D14*
X69300000Y-49600000D02*
X71700000Y-48600000D01*
D15*
X76800000Y-34000000D02*
X76800000Y-36000000D01*
X72800000Y-40000000D02*
X72800000Y-44000000D01*
X72800000Y-36000000D02*
X72800000Y-40000000D01*
D14*
X41200000Y-46500000D02*
X42300000Y-48200000D01*
D15*
X76800000Y-32000000D02*
X76800000Y-34000000D01*
D14*
X71700000Y-48600000D02*
X72800000Y-48000000D01*
D15*
X72800000Y-44000000D02*
X72800000Y-48000000D01*
X76800000Y-40000000D02*
X76800000Y-44000000D01*
X76800000Y-44000000D02*
X76800000Y-48000000D01*
X72800000Y-34000000D02*
X72800000Y-36000000D01*
X72800000Y-32000000D02*
X72800000Y-34000000D01*
%TO.N,CS9*%
D14*
X67200000Y-44000000D02*
X67200000Y-45000000D01*
X59200000Y-44000000D02*
X59200000Y-45000000D01*
D13*
X38900000Y-42100000D02*
X38000000Y-42000000D01*
X40100000Y-44200000D02*
X39700000Y-42800000D01*
X44600000Y-44700000D02*
X50800000Y-44700000D01*
X40900000Y-44700000D02*
X40300000Y-44600000D01*
X43200000Y-44000000D02*
X44600000Y-44700000D01*
D14*
X75200000Y-44000000D02*
X75200000Y-45000000D01*
X51200000Y-44000000D02*
X51200000Y-44500000D01*
X91200000Y-44000000D02*
X91200000Y-45000000D01*
D13*
X43200000Y-44000000D02*
X40900000Y-44700000D01*
D14*
X99200000Y-44000000D02*
X99200000Y-45000000D01*
D13*
X35200000Y-44000000D02*
X36100000Y-43100000D01*
D14*
X35200000Y-44000000D02*
X35200000Y-45000000D01*
D13*
X40300000Y-44600000D02*
X40100000Y-44200000D01*
D14*
X83200000Y-44000000D02*
X83200000Y-45000000D01*
X27200000Y-44000000D02*
X27200000Y-45000000D01*
X51200000Y-44500000D02*
X51200000Y-45000000D01*
D13*
X50800000Y-44700000D02*
X51200000Y-44500000D01*
X39700000Y-42800000D02*
X38900000Y-42100000D01*
%TO.N,SW0*%
D15*
X24800000Y-32000000D02*
X24800000Y-34000000D01*
X28800000Y-28000000D02*
X28800000Y-32000000D01*
X24800000Y-34000000D02*
X24800000Y-36000000D01*
X24800000Y-36000000D02*
X24800000Y-40000000D01*
X28800000Y-40000000D02*
X28800000Y-44000000D01*
X24800000Y-34000000D02*
X28800000Y-34000000D01*
X24800000Y-40000000D02*
X24800000Y-44000000D01*
X24800000Y-44000000D02*
X24800000Y-48000000D01*
X28800000Y-34000000D02*
X28800000Y-36000000D01*
X28800000Y-48000000D02*
X28800000Y-52000000D01*
X28800000Y-36000000D02*
X28800000Y-40000000D01*
X28800000Y-44000000D02*
X28800000Y-48000000D01*
X28800000Y-32000000D02*
X28800000Y-34000000D01*
%TO.N,CS2*%
D14*
X63200000Y-44000000D02*
X63200000Y-43000000D01*
X39200000Y-44000000D02*
X39200000Y-43000000D01*
X95200000Y-44000000D02*
X95200000Y-43000000D01*
D13*
X47900000Y-40300000D02*
X46000000Y-43000000D01*
X47200000Y-44000000D02*
X47800000Y-44200000D01*
D14*
X79200000Y-44000000D02*
X79200000Y-43000000D01*
X87200000Y-44000000D02*
X87200000Y-43000000D01*
X71200000Y-44000000D02*
X71200000Y-43000000D01*
X23200000Y-44000000D02*
X23200000Y-43000000D01*
D13*
X31200000Y-44000000D02*
X32000000Y-44400000D01*
X47900000Y-38300000D02*
X47900000Y-40300000D01*
D14*
X47200000Y-44000000D02*
X46000000Y-43000000D01*
X31200000Y-44000000D02*
X31200000Y-43000000D01*
X55200000Y-44000000D02*
X55200000Y-43000000D01*
%TO.N,CS7*%
X43200000Y-52000000D02*
X43200000Y-53000000D01*
D13*
X53500000Y-52300000D02*
X53300000Y-52600000D01*
X53500000Y-42700000D02*
X53500000Y-52300000D01*
X53300000Y-52600000D02*
X52400000Y-52700000D01*
D14*
X51200000Y-52000000D02*
X51200000Y-52500000D01*
X35200000Y-52000000D02*
X35200000Y-53000000D01*
X51200000Y-52500000D02*
X51200000Y-53000000D01*
D13*
X52400000Y-52700000D02*
X51200000Y-52500000D01*
D14*
X27200000Y-52000000D02*
X27200000Y-53000000D01*
%TO.N,SW2*%
D15*
X44800000Y-30000000D02*
X44800000Y-32000000D01*
X40800000Y-42285714D02*
X40800000Y-44000000D01*
X44800000Y-42285714D02*
X44800000Y-44000000D01*
X40800000Y-28000000D02*
X40800000Y-30000000D01*
X44800000Y-40000000D02*
X44800000Y-42285714D01*
X40800000Y-30000000D02*
X44800000Y-30000000D01*
X44800000Y-50285714D02*
X44800000Y-52000000D01*
D14*
X45600000Y-46100000D02*
X46200000Y-45900000D01*
D15*
X44800000Y-48000000D02*
X44800000Y-50285714D01*
D14*
X46200000Y-45900000D02*
X47199999Y-46500000D01*
D15*
X40800000Y-50285714D02*
X40800000Y-52000000D01*
X40800000Y-30000000D02*
X40800000Y-32000000D01*
X40800000Y-48000000D02*
X40800000Y-50285714D01*
X40800000Y-36000000D02*
X40800000Y-40000000D01*
X40800000Y-40000000D02*
X40800000Y-42285714D01*
D14*
X40800000Y-42285714D02*
X44800000Y-42285714D01*
X40600000Y-34900000D02*
X40800000Y-36000000D01*
D15*
X44800000Y-36000000D02*
X44800000Y-40000000D01*
D14*
X40800000Y-50285714D02*
X44800000Y-50285714D01*
X45200000Y-44000000D02*
X44800000Y-44000000D01*
X44800000Y-48000000D02*
X45600000Y-46100000D01*
D15*
X44800000Y-28000000D02*
X44800000Y-30000000D01*
D14*
X40800000Y-32000000D02*
X40600000Y-34900000D01*
%TO.N,CS6*%
D13*
X54100000Y-36400000D02*
X54800000Y-28800000D01*
X51700000Y-41200000D02*
X52000000Y-39400000D01*
X54800000Y-28800000D02*
X55200000Y-28000000D01*
D14*
X55200000Y-28000000D02*
X55200000Y-27000000D01*
D13*
X51400000Y-41500000D02*
X51700000Y-41200000D01*
D14*
X31200000Y-28000000D02*
X31200000Y-27000000D01*
X39200000Y-28000000D02*
X39200000Y-27000000D01*
X47200000Y-28000000D02*
X47200000Y-27000000D01*
D13*
X53500000Y-37600000D02*
X54100000Y-36400000D01*
X50000000Y-41800000D02*
X51400000Y-41500000D01*
%TO.N,SW4*%
D15*
X56800000Y-44000000D02*
X56800000Y-46285714D01*
X60800000Y-40000000D02*
X60800000Y-44000000D01*
X60800000Y-44000000D02*
X60800000Y-48000000D01*
X56800000Y-34000000D02*
X56800000Y-36000000D01*
X56800000Y-32000000D02*
X56800000Y-34000000D01*
D14*
X56800000Y-46300000D02*
X56800000Y-46285714D01*
D15*
X56800000Y-48000000D02*
X56800000Y-52000000D01*
X56800000Y-46300000D02*
X56800000Y-48000000D01*
X56800000Y-34000000D02*
X60800000Y-34000000D01*
X60800000Y-34000000D02*
X60800000Y-36000000D01*
X56800000Y-46285714D02*
X56800000Y-46300000D01*
X60800000Y-32000000D02*
X60800000Y-34000000D01*
X56800000Y-36000000D02*
X56800000Y-40000000D01*
X56800000Y-40000000D02*
X56800000Y-44000000D01*
X56800000Y-28000000D02*
X56800000Y-32000000D01*
X60800000Y-36000000D02*
X60800000Y-40000000D01*
%TO.N,CS8*%
D14*
X27200000Y-48000000D02*
X27200000Y-49000000D01*
D13*
X48300000Y-47400000D02*
X49400000Y-46600000D01*
X46600000Y-48900000D02*
X47700000Y-48600000D01*
X41900000Y-46700000D02*
X41900000Y-46300000D01*
D14*
X59200000Y-48000000D02*
X59200000Y-49000000D01*
X91200000Y-48000000D02*
X91200000Y-49000000D01*
X35200000Y-48000000D02*
X35200000Y-49000000D01*
D13*
X42800000Y-46000000D02*
X43000000Y-46200000D01*
D14*
X75200000Y-48000000D02*
X75200000Y-49000000D01*
X83200000Y-48000000D02*
X83200000Y-49000000D01*
X51200000Y-48000000D02*
X51200000Y-49000000D01*
D13*
X43200000Y-48000000D02*
X41900000Y-46700000D01*
X42200000Y-46000000D02*
X42800000Y-46000000D01*
D14*
X67200000Y-48000000D02*
X67200000Y-49000000D01*
D13*
X41900000Y-46300000D02*
X42200000Y-46000000D01*
X47700000Y-48600000D02*
X48300000Y-47400000D01*
%TO.N,SW8*%
D15*
X88800000Y-36000000D02*
X88800000Y-40000000D01*
X88800000Y-32000000D02*
X88800000Y-34000000D01*
X92800000Y-34000000D02*
X92800000Y-36000000D01*
X88800000Y-34000000D02*
X92800000Y-34000000D01*
X92800000Y-32000000D02*
X92800000Y-34000000D01*
X92800000Y-40000000D02*
X92800000Y-44000000D01*
X88800000Y-40000000D02*
X88800000Y-44000000D01*
X88800000Y-44000000D02*
X88800000Y-48000000D01*
X92800000Y-44000000D02*
X92800000Y-48000000D01*
X88800000Y-34000000D02*
X88800000Y-36000000D01*
X92800000Y-36000000D02*
X92800000Y-40000000D01*
%TO.N,CS11*%
D14*
X83200000Y-36000000D02*
X83200000Y-37000000D01*
D13*
X35200000Y-36000000D02*
X36100000Y-34400000D01*
X37700000Y-34400000D02*
X37500000Y-34900000D01*
D14*
X27200000Y-36000000D02*
X27800000Y-37000000D01*
D13*
X50300000Y-35400000D02*
X51200000Y-36000000D01*
X44700000Y-34600000D02*
X48000000Y-34500000D01*
D14*
X99200000Y-36000000D02*
X99200000Y-37000000D01*
X67200000Y-36000000D02*
X67200000Y-37000000D01*
X35200000Y-36000000D02*
X35200000Y-37000000D01*
D13*
X37500000Y-34900000D02*
X37500000Y-39200000D01*
X37500000Y-39200000D02*
X38000000Y-40000000D01*
D14*
X59200000Y-36000000D02*
X59200000Y-37000000D01*
D13*
X43200000Y-36000000D02*
X44700000Y-34600000D01*
D14*
X51200000Y-36000000D02*
X51200000Y-37000000D01*
X75200000Y-36000000D02*
X75200000Y-37000000D01*
D13*
X43200000Y-36000000D02*
X42000000Y-34400000D01*
X48000000Y-34500000D02*
X50300000Y-35400000D01*
D14*
X91200000Y-36000000D02*
X91200000Y-37000000D01*
%TO.N,CS5*%
X23200000Y-32000000D02*
X23200000Y-31000000D01*
X31200000Y-32000000D02*
X31200000Y-31000000D01*
D13*
X47200000Y-32000000D02*
X47000000Y-31300000D01*
D14*
X39200000Y-32000000D02*
X38000000Y-31000000D01*
X55200000Y-32000000D02*
X55200000Y-31000000D01*
X79200000Y-32000000D02*
X79200000Y-31000000D01*
X87200000Y-32000000D02*
X87200000Y-31000000D01*
X63200000Y-32000000D02*
X63200000Y-31000000D01*
X71200000Y-32000000D02*
X71200000Y-31000000D01*
%TO.N,SW5*%
X57800000Y-48400000D02*
X59000000Y-49500000D01*
D15*
X64800000Y-44000000D02*
X64800000Y-48000000D01*
X64800000Y-40000000D02*
X64800000Y-44000000D01*
X68800000Y-32000000D02*
X68800000Y-34000000D01*
D14*
X61300000Y-49600000D02*
X63700000Y-48600000D01*
D15*
X64800000Y-36000000D02*
X64800000Y-40000000D01*
X64800000Y-34000000D02*
X64800000Y-36000000D01*
D14*
X59000000Y-49500000D02*
X61300000Y-49600000D01*
D15*
X64800000Y-34000000D02*
X68800000Y-34000000D01*
X68800000Y-34000000D02*
X68800000Y-36000000D01*
D14*
X63700000Y-48600000D02*
X64800000Y-48000000D01*
D15*
X68800000Y-44000000D02*
X68800000Y-48000000D01*
X68800000Y-40000000D02*
X68800000Y-44000000D01*
X64800000Y-32000000D02*
X64800000Y-34000000D01*
X68800000Y-36000000D02*
X68800000Y-40000000D01*
%TO.N,CS3*%
D14*
X47200000Y-40000000D02*
X47200000Y-39000000D01*
X63200000Y-40000000D02*
X63200000Y-39000000D01*
X23200000Y-40000000D02*
X23200000Y-39000000D01*
X31200000Y-40000000D02*
X31200000Y-39000000D01*
X127200000Y-40000000D02*
X127200000Y-39000000D01*
X71200000Y-40000000D02*
X71200000Y-39000000D01*
D13*
X39200000Y-40000000D02*
X39900000Y-38900000D01*
X50000000Y-38200000D02*
X51800000Y-38700000D01*
X46200000Y-37200000D02*
X47200000Y-39000000D01*
D14*
X55200000Y-40000000D02*
X55200000Y-39000000D01*
X95200000Y-40000000D02*
X95200000Y-39000000D01*
X79200000Y-40000000D02*
X79200000Y-39000000D01*
X87200000Y-40000000D02*
X87200000Y-39000000D01*
%TO.N,CS1*%
X71200000Y-48000000D02*
X71200000Y-47000000D01*
D13*
X43200000Y-53500000D02*
X43400000Y-53500000D01*
X39200000Y-48000000D02*
X40200000Y-52500000D01*
D14*
X47200000Y-48000000D02*
X46900000Y-47500000D01*
D13*
X46900000Y-47500000D02*
X47900000Y-47000000D01*
X50000000Y-35800000D02*
X51000000Y-37700000D01*
X45400000Y-52500000D02*
X46100000Y-49100000D01*
X23200000Y-48000000D02*
X24000000Y-48400000D01*
D14*
X55200000Y-48000000D02*
X55200000Y-47000000D01*
D13*
X38400000Y-48000000D02*
X39200000Y-48000000D01*
D14*
X63200000Y-48000000D02*
X63200000Y-47000000D01*
D13*
X46500000Y-48300000D02*
X47200000Y-48000000D01*
X46100000Y-48700000D02*
X46500000Y-48300000D01*
D14*
X79200000Y-48000000D02*
X79200000Y-47000000D01*
D13*
X46100000Y-49100000D02*
X46100000Y-48700000D01*
X40600000Y-52700000D02*
X43200000Y-53500000D01*
D14*
X87200000Y-48000000D02*
X87200000Y-47000000D01*
D13*
X43400000Y-53500000D02*
X45400000Y-52500000D01*
X40200000Y-52500000D02*
X40600000Y-52700000D01*
%TO.N,SW9*%
D15*
X100800000Y-38000000D02*
X100800000Y-40000000D01*
X96800000Y-38000000D02*
X96800000Y-40000000D01*
X96800000Y-36000000D02*
X96800000Y-38000000D01*
X100800000Y-36000000D02*
X100800000Y-38000000D01*
X100800000Y-40000000D02*
X100800000Y-44000000D01*
X96800000Y-40000000D02*
X96800000Y-44000000D01*
X96800000Y-38000000D02*
X100800000Y-38000000D01*
D14*
X96200000Y-44100000D02*
X96800000Y-44000000D01*
%TO.N,CS13*%
X43200000Y-28000000D02*
X43200000Y-29000000D01*
X35200000Y-28000000D02*
X35200000Y-29000000D01*
X51200000Y-28000000D02*
X51200000Y-29000000D01*
X27200000Y-28000000D02*
X27200000Y-29000000D01*
%TO.N,CS0*%
D13*
X51800000Y-35500000D02*
X52100000Y-37600000D01*
D14*
X39200000Y-52000000D02*
X39200000Y-51000000D01*
D13*
X54600000Y-38200000D02*
X54500000Y-44100000D01*
D14*
X31200000Y-52000000D02*
X31200000Y-51000000D01*
D13*
X50000000Y-34600000D02*
X51800000Y-35500000D01*
X54600000Y-50100000D02*
X55200000Y-51000000D01*
X54500000Y-44100000D02*
X54600000Y-50100000D01*
D14*
X55200000Y-52000000D02*
X55200000Y-51000000D01*
X47200000Y-52000000D02*
X47200000Y-51000000D01*
%TO.N,SW7*%
D15*
X84800000Y-32000000D02*
X84800000Y-34000000D01*
X84800000Y-44000000D02*
X84800000Y-48000000D01*
X80800000Y-40000000D02*
X80800000Y-44000000D01*
X84800000Y-36000000D02*
X84800000Y-40000000D01*
X80800000Y-32000000D02*
X80800000Y-34000000D01*
X80800000Y-36000000D02*
X80800000Y-40000000D01*
X80800000Y-34000000D02*
X80800000Y-36000000D01*
D13*
X80400000Y-47600000D02*
X80800000Y-47428571D01*
D15*
X80800000Y-47428571D02*
X80800000Y-48000000D01*
X84800000Y-40000000D02*
X84800000Y-44000000D01*
X80800000Y-34000000D02*
X84800000Y-34000000D01*
X80800000Y-44000000D02*
X80800000Y-47428571D01*
X84800000Y-34000000D02*
X84800000Y-36000000D01*
%TO.N,SW10*%
D14*
X128800000Y-40000000D02*
X128100000Y-40000000D01*
X37500000Y-42900000D02*
X38000000Y-43000000D01*
%TO.N,SCLK*%
D13*
X29600000Y-35600000D02*
X30400000Y-32400000D01*
X45000000Y-34000000D02*
X43100000Y-34000000D01*
X51500000Y-33600000D02*
X48400000Y-33000000D01*
X43100000Y-34000000D02*
X42400000Y-33500000D01*
X42200000Y-33000000D02*
X42400000Y-33500000D01*
X45800000Y-33000000D02*
X45300000Y-33500000D01*
X45300000Y-33700000D02*
X45000000Y-34000000D01*
X48400000Y-33000000D02*
X45800000Y-33000000D01*
X45300000Y-33500000D02*
X45300000Y-33700000D01*
%TO.N,VIO_EN*%
D14*
X50800000Y-34000000D02*
X52100000Y-34300000D01*
X48500000Y-34100000D02*
X50800000Y-34000000D01*
X47200000Y-33500000D02*
X48500000Y-34100000D01*
%TO.N,VLED_3V3*%
X43900000Y-47900000D02*
X43900000Y-48400000D01*
X42400000Y-46500000D02*
X43800000Y-47500000D01*
X43900000Y-48400000D02*
X43200000Y-49600000D01*
X38200000Y-45200000D02*
X42500000Y-45500000D01*
X43800000Y-47500000D02*
X43900000Y-47900000D01*
%TO.N,SS_N*%
D13*
X43500000Y-31300000D02*
X44000000Y-31700000D01*
X41600000Y-31600000D02*
X42100000Y-31200000D01*
X42100000Y-31200000D02*
X43500000Y-31300000D01*
%TO.N,VCC_3V3*%
D14*
X30800000Y-34600000D02*
X31900000Y-32299999D01*
X31800000Y-30500000D02*
X31700000Y-30400000D01*
X30400000Y-35600000D02*
X30800000Y-34600000D01*
X31900000Y-32299999D02*
X31800000Y-30500000D01*
%TO.N,NTC_RETURN*%
D13*
X60500000Y-50700000D02*
X65300000Y-48600000D01*
X66900000Y-47300000D02*
X68100000Y-46400000D01*
X65300000Y-48600000D02*
X66900000Y-47300000D01*
%TO.N,MISO_IC*%
X55800000Y-42000000D02*
X56000000Y-32400000D01*
X44300000Y-33299999D02*
X44800000Y-33500000D01*
%TO.N,MISO_HOST*%
X54000000Y-51600000D02*
X54000000Y-44400000D01*
%TO.N,VSYNC*%
X39700000Y-35300000D02*
X39900000Y-35900000D01*
X39900000Y-35900000D02*
X39900000Y-36600000D01*
X39500000Y-33299999D02*
X39700000Y-35300000D01*
X40000000Y-27700000D02*
X39800000Y-33000000D01*
X39800000Y-33000000D02*
X39500000Y-33299999D01*
%TO.N,MOSI*%
X54700000Y-34500000D02*
X54800000Y-34400000D01*
X54500000Y-36300000D02*
X54700000Y-34500000D01*
X55400000Y-37600000D02*
X54500000Y-36300000D01*
%TD*%
M02*
