%TF.GenerationSoftware,KiCad,Pcbnew,10.0.6*%
%TF.CreationDate,2026-09-27T16:35:26-04:00*%
%TF.ProjectId,upper-petal,75707065-722d-4706-9574-616c2e6b6963,rev?*%
%TF.SameCoordinates,Original*%
%TF.FileFunction,Copper,L4,Bot*%
%TF.FilePolarity,Positive*%
%FSLAX46Y46*%
G04 Gerber Fmt 4.6, Leading zero omitted, Abs format (unit mm)*
G04 Created by KiCad (PCBNEW 10.0.6) date 2026-09-27 16:35:26*
%MOMM*%
%LPD*%
G01*
G04 APERTURE LIST*
G04 Aperture macros list*
%AMRoundRect*
0 Rectangle with rounded corners*
0 $1 Rounding radius*
0 $2 $3 $4 $5 $6 $7 $8 $9 X,Y pos of 4 corners*
0 Add a 4 corners polygon primitive as box body*
4,1,4,$2,$3,$4,$5,$6,$7,$8,$9,$2,$3,0*
0 Add four circle primitives for the rounded corners*
1,1,$1+$1,$2,$3*
1,1,$1+$1,$4,$5*
1,1,$1+$1,$6,$7*
1,1,$1+$1,$8,$9*
0 Add four rect primitives between the rounded corners*
20,1,$1+$1,$2,$3,$4,$5,0*
20,1,$1+$1,$4,$5,$6,$7,0*
20,1,$1+$1,$6,$7,$8,$9,0*
20,1,$1+$1,$8,$9,$2,$3,0*%
G04 Aperture macros list end*
%TA.AperFunction,SMDPad,CuDef*%
%ADD10RoundRect,0.130000X0.195000X0.220000X-0.195000X0.220000X-0.195000X-0.220000X0.195000X-0.220000X0*%
%TD*%
%TA.AperFunction,SMDPad,CuDef*%
%ADD11RoundRect,0.180000X0.270000X0.295000X-0.270000X0.295000X-0.270000X-0.295000X0.270000X-0.295000X0*%
%TD*%
%TA.AperFunction,SMDPad,CuDef*%
%ADD12RoundRect,0.160000X0.240000X0.240000X-0.240000X0.240000X-0.240000X-0.240000X0.240000X-0.240000X0*%
%TD*%
%TA.AperFunction,SMDPad,CuDef*%
%ADD13RoundRect,0.200000X0.300000X0.500000X-0.300000X0.500000X-0.300000X-0.500000X0.300000X-0.500000X0*%
%TD*%
%TA.AperFunction,SMDPad,CuDef*%
%ADD14RoundRect,0.040000X0.260000X0.060000X-0.260000X0.060000X-0.260000X-0.060000X0.260000X-0.060000X0*%
%TD*%
%TA.AperFunction,SMDPad,CuDef*%
%ADD15RoundRect,0.040000X0.060000X0.260000X-0.060000X0.260000X-0.060000X-0.260000X0.060000X-0.260000X0*%
%TD*%
%TA.AperFunction,SMDPad,CuDef*%
%ADD16RoundRect,0.700000X1.050000X1.050000X-1.050000X1.050000X-1.050000X-1.050000X1.050000X-1.050000X0*%
%TD*%
%TA.AperFunction,SMDPad,CuDef*%
%ADD17RoundRect,0.120000X0.730000X-0.180000X0.730000X0.180000X-0.730000X0.180000X-0.730000X-0.180000X0*%
%TD*%
%TA.AperFunction,SMDPad,CuDef*%
%ADD18RoundRect,0.200000X1.200000X-0.300000X1.200000X0.300000X-1.200000X0.300000X-1.200000X-0.300000X0*%
%TD*%
%TA.AperFunction,ViaPad*%
%ADD19C,0.500000*%
%TD*%
%TA.AperFunction,ViaPad*%
%ADD20C,0.600000*%
%TD*%
%TA.AperFunction,Conductor*%
%ADD21C,0.150000*%
%TD*%
%TA.AperFunction,Conductor*%
%ADD22C,0.200000*%
%TD*%
G04 APERTURE END LIST*
D10*
%TO.P,TH1,1*%
%TO.N,NTC_NODE*%
X76725000Y-40000000D03*
%TO.P,TH1,2*%
%TO.N,GND*%
X75275000Y-40000000D03*
%TD*%
D11*
%TO.P,R4,1*%
%TO.N,SCLK*%
X55800000Y-40000000D03*
%TO.P,R4,2*%
%TO.N,GND*%
X54200000Y-40000000D03*
%TD*%
%TO.P,R1,1*%
%TO.N,VIO_EN*%
X55800000Y-36000000D03*
%TO.P,R1,2*%
%TO.N,IFS*%
X54200000Y-36000000D03*
%TD*%
D12*
%TO.P,C3,1*%
%TO.N,VLED_3V3*%
X42700000Y-49000000D03*
%TO.P,C3,2*%
%TO.N,GND*%
X41300000Y-49000000D03*
%TD*%
%TO.P,C5,1*%
%TO.N,VCAP*%
X40700000Y-30500000D03*
%TO.P,C5,2*%
%TO.N,GND*%
X39300000Y-30500000D03*
%TD*%
D11*
%TO.P,R2,1*%
%TO.N,VIO_EN*%
X59800000Y-36000000D03*
%TO.P,R2,2*%
%TO.N,SS_N*%
X58200000Y-36000000D03*
%TD*%
D12*
%TO.P,C4,1*%
%TO.N,VCC_3V3*%
X46700000Y-30500000D03*
%TO.P,C4,2*%
%TO.N,GND*%
X45300000Y-30500000D03*
%TD*%
D11*
%TO.P,R9,1*%
%TO.N,NTC_NODE*%
X76800000Y-44000000D03*
%TO.P,R9,2*%
%TO.N,NTC_RETURN*%
X75200000Y-44000000D03*
%TD*%
D12*
%TO.P,C8,1*%
%TO.N,VIO_EN*%
X43700000Y-30500000D03*
%TO.P,C8,2*%
%TO.N,GND*%
X42300000Y-30500000D03*
%TD*%
D11*
%TO.P,R7,1*%
%TO.N,MISO_IC*%
X55800000Y-44000000D03*
%TO.P,R7,2*%
%TO.N,MISO_HOST*%
X54200000Y-44000000D03*
%TD*%
D13*
%TO.P,C2,1*%
%TO.N,VLED_3V3*%
X33950000Y-29000000D03*
%TO.P,C2,2*%
%TO.N,GND*%
X32050000Y-29000000D03*
%TD*%
%TO.P,C1,1*%
%TO.N,VLED_3V3*%
X33950000Y-32000000D03*
%TO.P,C1,2*%
%TO.N,GND*%
X32050000Y-32000000D03*
%TD*%
D14*
%TO.P,U1,1*%
%TO.N,CS0*%
X45400000Y-38200000D03*
%TO.P,U1,2*%
%TO.N,CS1*%
X45400000Y-38600000D03*
%TO.P,U1,3*%
%TO.N,CS2*%
X45400000Y-39000000D03*
%TO.P,U1,4*%
%TO.N,CS3*%
X45400000Y-39400000D03*
%TO.P,U1,5*%
%TO.N,CS4*%
X45400000Y-39800000D03*
%TO.P,U1,6*%
%TO.N,CS5*%
X45400000Y-40200000D03*
%TO.P,U1,7*%
%TO.N,CS6*%
X45400000Y-40600000D03*
%TO.P,U1,8*%
%TO.N,CS7*%
X45400000Y-41000000D03*
%TO.P,U1,9*%
%TO.N,CS8*%
X45400000Y-41400000D03*
%TO.P,U1,10*%
%TO.N,SW0*%
X45400000Y-41800000D03*
D15*
%TO.P,U1,11*%
%TO.N,SW1*%
X44800000Y-42400000D03*
%TO.P,U1,12*%
%TO.N,SW2*%
X44400000Y-42400000D03*
%TO.P,U1,13*%
%TO.N,SW3*%
X44000000Y-42400000D03*
%TO.P,U1,14*%
%TO.N,SW4*%
X43600000Y-42400000D03*
%TO.P,U1,15*%
%TO.N,SW5*%
X43200000Y-42400000D03*
%TO.P,U1,16*%
%TO.N,VLED_3V3*%
X42800000Y-42400000D03*
%TO.P,U1,17*%
%TO.N,SW6*%
X42400000Y-42400000D03*
%TO.P,U1,18*%
%TO.N,SW7*%
X42000000Y-42400000D03*
%TO.P,U1,19*%
%TO.N,SW8*%
X41600000Y-42400000D03*
%TO.P,U1,20*%
%TO.N,SW9*%
X41200000Y-42400000D03*
D14*
%TO.P,U1,21*%
%TO.N,SW10*%
X40600000Y-41800000D03*
%TO.P,U1,22*%
%TO.N,CS9*%
X40600000Y-41400000D03*
%TO.P,U1,23*%
%TO.N,CS10*%
X40600000Y-41000000D03*
%TO.P,U1,24*%
%TO.N,CS11*%
X40600000Y-40600000D03*
%TO.P,U1,25*%
%TO.N,CS12*%
X40600000Y-40200000D03*
%TO.P,U1,26*%
%TO.N,CS13*%
X40600000Y-39800000D03*
%TO.P,U1,27*%
%TO.N,unconnected-(U1-CS14-Pad27)*%
X40600000Y-39400000D03*
%TO.P,U1,28*%
%TO.N,unconnected-(U1-CS15-Pad28)*%
X40600000Y-39000000D03*
%TO.P,U1,29*%
%TO.N,unconnected-(U1-CS16-Pad29)*%
X40600000Y-38600000D03*
%TO.P,U1,30*%
%TO.N,unconnected-(U1-CS17-Pad30)*%
X40600000Y-38200000D03*
D15*
%TO.P,U1,31*%
%TO.N,GND*%
X41200000Y-37600000D03*
%TO.P,U1,32*%
%TO.N,VCAP*%
X41600000Y-37600000D03*
%TO.P,U1,33*%
%TO.N,IFS*%
X42000000Y-37600000D03*
%TO.P,U1,34*%
%TO.N,VSYNC*%
X42400000Y-37600000D03*
%TO.P,U1,35*%
%TO.N,SCLK*%
X42800000Y-37600000D03*
%TO.P,U1,36*%
%TO.N,MOSI*%
X43200000Y-37600000D03*
%TO.P,U1,37*%
%TO.N,MISO_IC*%
X43600000Y-37600000D03*
%TO.P,U1,38*%
%TO.N,SS_N*%
X44000000Y-37600000D03*
%TO.P,U1,39*%
%TO.N,VIO_EN*%
X44400000Y-37600000D03*
%TO.P,U1,40*%
%TO.N,VCC_3V3*%
X44800000Y-37600000D03*
D16*
%TO.P,U1,41*%
%TO.N,GND*%
X43000000Y-40000000D03*
%TD*%
D11*
%TO.P,R3,1*%
%TO.N,VIO_EN*%
X63800000Y-36000000D03*
%TO.P,R3,2*%
%TO.N,GND*%
X62200000Y-36000000D03*
%TD*%
D12*
%TO.P,C9,1*%
%TO.N,NTC_RETURN*%
X79700000Y-44000000D03*
%TO.P,C9,2*%
%TO.N,GND*%
X78300000Y-44000000D03*
%TD*%
%TO.P,C7,1*%
%TO.N,VCC_3V3*%
X49700000Y-30500000D03*
%TO.P,C7,2*%
%TO.N,GND*%
X48300000Y-30500000D03*
%TD*%
D17*
%TO.P,J1,1*%
%TO.N,VLED_3V3*%
X25950000Y-34375000D03*
%TO.P,J1,2*%
%TO.N,GND*%
X25950000Y-35625000D03*
%TO.P,J1,3*%
%TO.N,VCC_3V3*%
X25950000Y-36875000D03*
%TO.P,J1,4*%
%TO.N,SCLK*%
X25950000Y-38125000D03*
%TO.P,J1,5*%
%TO.N,MOSI*%
X25950000Y-39375000D03*
%TO.P,J1,6*%
%TO.N,MISO_HOST*%
X25950000Y-40625000D03*
%TO.P,J1,7*%
%TO.N,SS_N*%
X25950000Y-41875000D03*
%TO.P,J1,8*%
%TO.N,VSYNC*%
X25950000Y-43125000D03*
%TO.P,J1,9*%
%TO.N,VIO_EN*%
X25950000Y-44375000D03*
%TO.P,J1,10*%
%TO.N,NTC_RETURN*%
X25950000Y-45625000D03*
D18*
%TO.P,J1,M1*%
%TO.N,GND*%
X22600000Y-32525000D03*
%TO.P,J1,M2*%
X22600000Y-47475000D03*
%TD*%
D11*
%TO.P,R8,1*%
%TO.N,VCC_3V3*%
X73600000Y-44000000D03*
%TO.P,R8,2*%
%TO.N,NTC_NODE*%
X72000000Y-44000000D03*
%TD*%
D12*
%TO.P,C6,1*%
%TO.N,VLED_3V3*%
X45700000Y-49000000D03*
%TO.P,C6,2*%
%TO.N,GND*%
X44300000Y-49000000D03*
%TD*%
D11*
%TO.P,R5,1*%
%TO.N,MOSI*%
X59800000Y-40000000D03*
%TO.P,R5,2*%
%TO.N,GND*%
X58200000Y-40000000D03*
%TD*%
%TO.P,R6,1*%
%TO.N,VSYNC*%
X63800000Y-40000000D03*
%TO.P,R6,2*%
%TO.N,GND*%
X62200000Y-40000000D03*
%TD*%
D19*
%TO.N,CS12*%
X27200000Y-33000000D03*
X35200000Y-33000000D03*
X75200000Y-33000000D03*
X59200000Y-33000000D03*
X67200000Y-33000000D03*
X91200000Y-33000000D03*
X41500000Y-32600000D03*
X35800000Y-33000000D03*
X83200000Y-33000000D03*
X51200000Y-33000000D03*
%TO.N,SW3*%
X45600000Y-45300000D03*
X49300000Y-42100000D03*
%TO.N,CS4*%
X71200000Y-35000000D03*
X79200000Y-35000000D03*
X63200000Y-35000000D03*
X31200000Y-35000000D03*
X87200000Y-35000000D03*
X47800000Y-35000000D03*
X50000000Y-39400000D03*
X55200000Y-35000000D03*
X95200000Y-35000000D03*
X38000000Y-35000000D03*
X23200000Y-35000000D03*
%TO.N,SW1*%
X46000000Y-44100000D03*
X36800000Y-44600000D03*
%TO.N,CS10*%
X99200000Y-41000000D03*
X39600000Y-41000000D03*
X51100000Y-39900000D03*
X75200000Y-41000000D03*
X59200000Y-41000000D03*
X51200000Y-41000000D03*
X91200000Y-41000000D03*
X35200000Y-41000000D03*
X45500000Y-37200000D03*
X27200000Y-41000000D03*
X38000000Y-41000000D03*
X67200000Y-41000000D03*
X83200000Y-41000000D03*
%TO.N,SW6*%
X69300000Y-49600000D03*
X41200000Y-46500000D03*
X42300000Y-48200000D03*
%TO.N,CS9*%
X91200000Y-45000000D03*
X51200000Y-45000000D03*
X99200000Y-45000000D03*
X36100000Y-43100000D03*
X67200000Y-45000000D03*
X75200000Y-45000000D03*
X27200000Y-45000000D03*
X35200000Y-45000000D03*
X83200000Y-45000000D03*
X38000000Y-42000000D03*
X59200000Y-45000000D03*
%TO.N,SW0*%
X45500000Y-42000000D03*
X28800000Y-44000000D03*
%TO.N,CS2*%
X87200000Y-43000000D03*
X71200000Y-43000000D03*
X46000000Y-43000000D03*
X39200000Y-43000000D03*
X47900000Y-38300000D03*
X23200000Y-43000000D03*
X55200000Y-43000000D03*
X47800000Y-44200000D03*
X32000000Y-44400000D03*
X31200000Y-43000000D03*
X63200000Y-43000000D03*
X79200000Y-43000000D03*
X95200000Y-43000000D03*
%TO.N,CS7*%
X51100000Y-43000000D03*
X35200000Y-53000000D03*
X53500000Y-42700000D03*
X51200000Y-53000000D03*
X27200000Y-53000000D03*
X43200000Y-53000000D03*
%TO.N,SW2*%
X47199999Y-46500000D03*
X45200000Y-44000000D03*
%TO.N,CS6*%
X31200000Y-27000000D03*
X53500000Y-37600000D03*
X47200000Y-27000000D03*
X55200000Y-27000000D03*
X39200000Y-27000000D03*
X50000000Y-41800000D03*
X52000000Y-39400000D03*
%TO.N,SW4*%
X56800000Y-46300000D03*
X45100000Y-45900000D03*
%TO.N,CS8*%
X91200000Y-49000000D03*
X83200000Y-49000000D03*
X59200000Y-49000000D03*
X51200000Y-49000000D03*
X27200000Y-49000000D03*
X43000000Y-46200000D03*
X75200000Y-49000000D03*
X49400000Y-46600000D03*
X67200000Y-49000000D03*
X46600000Y-48900000D03*
X35200000Y-49000000D03*
%TO.N,SW8*%
X88800000Y-48000000D03*
%TO.N,CS11*%
X42000000Y-34400000D03*
X99200000Y-37000000D03*
X67200000Y-37000000D03*
X59200000Y-37000000D03*
X27800000Y-37000000D03*
X91200000Y-37000000D03*
X38000000Y-40000000D03*
X83200000Y-37000000D03*
X75200000Y-37000000D03*
X37700000Y-34400000D03*
X36100000Y-34400000D03*
X35200000Y-37000000D03*
X51200000Y-37000000D03*
%TO.N,CS5*%
X38000000Y-31000000D03*
X79200000Y-31000000D03*
X87200000Y-31000000D03*
X50500000Y-31000000D03*
X63200000Y-31000000D03*
X23200000Y-31000000D03*
X55200000Y-31000000D03*
X47000000Y-31300000D03*
X31200000Y-31000000D03*
X71200000Y-31000000D03*
%TO.N,SW5*%
X57800000Y-48400000D03*
X44200000Y-46800000D03*
%TO.N,CS3*%
X46200000Y-37200000D03*
X39900000Y-38900000D03*
X55200000Y-39000000D03*
X51800000Y-38700000D03*
X63200000Y-39000000D03*
X127200000Y-39000000D03*
X79200000Y-39000000D03*
X87200000Y-39000000D03*
X95200000Y-39000000D03*
X31200000Y-39000000D03*
X50000000Y-38200000D03*
X23200000Y-39000000D03*
X71200000Y-39000000D03*
X47200000Y-39000000D03*
%TO.N,CS1*%
X47900000Y-47000000D03*
X71200000Y-47000000D03*
X38400000Y-48000000D03*
X79200000Y-47000000D03*
X24000000Y-48400000D03*
X55200000Y-47000000D03*
X50000000Y-35800000D03*
X87200000Y-47000000D03*
X51900000Y-47000000D03*
X51000000Y-37700000D03*
X63200000Y-47000000D03*
X31200000Y-48000000D03*
%TO.N,SW9*%
X96200000Y-44100000D03*
%TO.N,CS13*%
X51200000Y-29000000D03*
X27200000Y-29000000D03*
X35200000Y-29000000D03*
X43200000Y-29000000D03*
X37500000Y-29000000D03*
%TO.N,CS0*%
X50000000Y-34600000D03*
X31200000Y-51000000D03*
X54600000Y-38200000D03*
X47200000Y-51000000D03*
X39200000Y-51000000D03*
X55200000Y-51000000D03*
X52100000Y-37600000D03*
%TO.N,SW7*%
X80400000Y-47600000D03*
%TO.N,SW10*%
X38000000Y-43000000D03*
X37500000Y-42900000D03*
X128100000Y-40000000D03*
D20*
%TO.N,GND*%
X43800000Y-38900000D03*
D19*
X53775000Y-39263900D03*
X38563900Y-30075000D03*
D20*
X42200000Y-38900000D03*
D19*
X76011100Y-40425000D03*
D20*
X42200000Y-41100000D03*
D19*
X23784900Y-36875000D03*
X45725000Y-29763900D03*
X63200000Y-37732100D03*
X40000000Y-37600000D03*
X41725000Y-49736100D03*
X23336100Y-32950000D03*
X37600000Y-33500000D03*
X58200000Y-42000000D03*
X32049999Y-34000000D03*
X79300000Y-45732100D03*
X43875000Y-49736100D03*
X22175000Y-48211100D03*
X47563900Y-30075000D03*
X42300000Y-31700000D03*
D20*
X43800000Y-41100000D03*
D19*
X63200000Y-41732100D03*
X32049999Y-29850000D03*
%TO.N,SCLK*%
X42200000Y-33000000D03*
X42400000Y-33500000D03*
X51500000Y-33600000D03*
X29600000Y-35600000D03*
X30400000Y-32400000D03*
%TO.N,VIO_EN*%
X52100000Y-34300000D03*
X47200000Y-33500000D03*
%TO.N,IFS*%
X53600000Y-36300000D03*
X41600000Y-36300000D03*
%TO.N,VLED_3V3*%
X45500000Y-49600000D03*
X42400000Y-46500000D03*
X38200000Y-45200000D03*
X43200000Y-49600000D03*
X42500000Y-45500000D03*
%TO.N,SS_N*%
X53800000Y-31900000D03*
X29700000Y-32400000D03*
X44000000Y-31700000D03*
X41600000Y-31600000D03*
%TO.N,VCC_3V3*%
X31700000Y-30400000D03*
X46600000Y-30400000D03*
X30400000Y-35600000D03*
X53500000Y-30400000D03*
%TO.N,NTC_RETURN*%
X68100000Y-46400000D03*
X60500000Y-50700000D03*
%TO.N,MISO_IC*%
X44300000Y-33299999D03*
X56000000Y-32400000D03*
X55800000Y-42000000D03*
X44800000Y-33500000D03*
%TO.N,MISO_HOST*%
X54000000Y-51600000D03*
X32100000Y-42600000D03*
X26500000Y-41000000D03*
X54000000Y-44400000D03*
%TO.N,VSYNC*%
X40000000Y-27700000D03*
X31800000Y-38400000D03*
X41900000Y-35600000D03*
X39900000Y-36600000D03*
%TO.N,MOSI*%
X33600000Y-35600000D03*
X55400000Y-37600000D03*
X32000000Y-36300000D03*
X54800000Y-34400000D03*
%TD*%
%TO.N,CS12*%
D21*
X40150000Y-40200000D02*
X38000000Y-39000000D01*
X36900000Y-37000000D02*
X36600000Y-34200000D01*
X40600000Y-40200000D02*
X40150000Y-40200000D01*
X38000000Y-39000000D02*
X36900000Y-37000000D01*
X36600000Y-34200000D02*
X35800000Y-33000000D01*
%TO.N,SW3*%
D22*
X45428571Y-45457142D02*
X45600000Y-45300000D01*
D21*
X44000000Y-42400000D02*
X44000000Y-42850000D01*
X44000000Y-42850000D02*
X45428571Y-45457142D01*
%TO.N,CS4*%
X45400000Y-39800000D02*
X45850000Y-39800000D01*
X45850000Y-39800000D02*
X50000000Y-39400000D01*
%TO.N,SW1*%
D22*
X46000000Y-44066666D02*
X46000000Y-44100000D01*
D21*
X44800000Y-42850000D02*
X46000000Y-44066666D01*
X44800000Y-42400000D02*
X44800000Y-42850000D01*
%TO.N,CS10*%
X39612500Y-41000000D02*
X39600000Y-41000000D01*
X39600000Y-41000000D02*
X38000000Y-41000000D01*
X39600000Y-41000000D02*
X39612500Y-41000000D01*
X40600000Y-41000000D02*
X40150000Y-41000000D01*
X40150000Y-41000000D02*
X39612500Y-41000000D01*
%TO.N,SW6*%
X42400000Y-42400000D02*
X42400000Y-42850000D01*
D22*
X57800000Y-49000000D02*
X59300000Y-49600000D01*
X42300000Y-48200000D02*
X57300000Y-48700000D01*
D21*
X42400000Y-42850000D02*
X41200000Y-46500000D01*
D22*
X57300000Y-48700000D02*
X57800000Y-49000000D01*
X59300000Y-49600000D02*
X69300000Y-49600000D01*
%TO.N,CS9*%
D21*
X36100000Y-43100000D02*
X38000000Y-42000000D01*
X40150000Y-41400000D02*
X38000000Y-42000000D01*
X40600000Y-41400000D02*
X40150000Y-41400000D01*
%TO.N,SW0*%
D22*
X45400000Y-41800000D02*
X45500000Y-42000000D01*
%TO.N,CS2*%
D21*
X45400000Y-39000000D02*
X45850000Y-39000000D01*
X45850000Y-39000000D02*
X47925000Y-38000000D01*
X47925000Y-38000000D02*
X47900000Y-38300000D01*
%TO.N,CS7*%
X45850000Y-41000000D02*
X50000000Y-43000000D01*
X50000000Y-43000000D02*
X51100000Y-43000000D01*
X45400000Y-41000000D02*
X45850000Y-41000000D01*
%TO.N,SW2*%
D22*
X45099999Y-43762500D02*
X45200000Y-44000000D01*
D21*
X44400000Y-42400000D02*
X44400000Y-42850000D01*
X44400000Y-42850000D02*
X45099999Y-43762500D01*
X45099999Y-43762500D02*
X47199999Y-46500000D01*
%TO.N,CS6*%
X52000000Y-39400000D02*
X53500000Y-37600000D01*
X45850000Y-40600000D02*
X50000000Y-41800000D01*
X45400000Y-40600000D02*
X45850000Y-40600000D01*
%TO.N,SW4*%
X43600000Y-42850000D02*
X44628571Y-45978571D01*
X43600000Y-42400000D02*
X43600000Y-42850000D01*
D22*
X44628571Y-45978571D02*
X45100000Y-45900000D01*
%TO.N,CS8*%
D21*
X45850000Y-41400000D02*
X50000000Y-44200000D01*
X45400000Y-41400000D02*
X45850000Y-41400000D01*
X50500000Y-45200000D02*
X50000000Y-44200000D01*
X49400000Y-46600000D02*
X50500000Y-45600000D01*
X50500000Y-45600000D02*
X50500000Y-45200000D01*
%TO.N,SW8*%
X43100000Y-47800000D02*
X83600000Y-48100000D01*
X41100000Y-47500000D02*
X43100000Y-47800000D01*
X41600000Y-42850000D02*
X38800000Y-46500000D01*
X83600000Y-48100000D02*
X88800000Y-48000000D01*
X38800000Y-46500000D02*
X41100000Y-47500000D01*
X41600000Y-42400000D02*
X41600000Y-42850000D01*
%TO.N,CS11*%
X40150000Y-40600000D02*
X38000000Y-40000000D01*
X40600000Y-40600000D02*
X40150000Y-40600000D01*
%TO.N,CS5*%
X50000000Y-40600000D02*
X50500000Y-39500000D01*
X45850000Y-40200000D02*
X50000000Y-40600000D01*
X45400000Y-40200000D02*
X45850000Y-40200000D01*
X50500000Y-39500000D02*
X50500000Y-31000000D01*
%TO.N,SW5*%
X43200000Y-42850000D02*
X43600000Y-46500000D01*
D22*
X43600000Y-46500000D02*
X44200000Y-46800000D01*
D21*
X43200000Y-42400000D02*
X43200000Y-42850000D01*
%TO.N,CS3*%
X45400000Y-39400000D02*
X45850000Y-39400000D01*
X45850000Y-39400000D02*
X50000000Y-38200000D01*
%TO.N,CS1*%
X51700000Y-41300000D02*
X51900000Y-47000000D01*
X51000000Y-37700000D02*
X51600000Y-39900000D01*
X45400000Y-38600000D02*
X45850000Y-38600000D01*
X51600000Y-39900000D02*
X51700000Y-41300000D01*
X45850000Y-38600000D02*
X50000000Y-35800000D01*
%TO.N,SW9*%
D22*
X37600000Y-46500000D02*
X41400000Y-50200000D01*
X42100000Y-50300000D02*
X83700000Y-50000000D01*
X83700000Y-50000000D02*
X89100000Y-48500000D01*
X89100000Y-48500000D02*
X96200000Y-44100000D01*
X41400000Y-50200000D02*
X42100000Y-50300000D01*
D21*
X41200000Y-42400000D02*
X41200000Y-42850000D01*
X41200000Y-42850000D02*
X37600000Y-46500000D01*
%TO.N,CS13*%
X37100000Y-33299999D02*
X37500000Y-29000000D01*
X40600000Y-39800000D02*
X40150000Y-39800000D01*
X40150000Y-39800000D02*
X38000000Y-38000000D01*
X38000000Y-38000000D02*
X37200000Y-34400000D01*
X37200000Y-34400000D02*
X37100000Y-33299999D01*
%TO.N,CS0*%
X45850000Y-38200000D02*
X50000000Y-34600000D01*
X45400000Y-38200000D02*
X45850000Y-38200000D01*
%TO.N,SW7*%
X42000000Y-42850000D02*
X40000000Y-46500000D01*
X41800000Y-47300000D02*
X47200000Y-47500000D01*
X42000000Y-42400000D02*
X42000000Y-42850000D01*
X47200000Y-47500000D02*
X80400000Y-47600000D01*
X40000000Y-46500000D02*
X41800000Y-47300000D01*
%TO.N,SW10*%
X40150000Y-41800000D02*
X38000000Y-43000000D01*
X40600000Y-41800000D02*
X40150000Y-41800000D01*
%TO.N,NTC_NODE*%
X73200000Y-43300000D02*
X76400000Y-43200000D01*
X72000000Y-44000000D02*
X73200000Y-43300000D01*
X76800000Y-44000000D02*
X76789285Y-43428571D01*
X76789285Y-43428571D02*
X76725000Y-40000000D01*
X76400000Y-43200000D02*
X76789285Y-43428571D01*
%TO.N,GND*%
D22*
X62200000Y-36000000D02*
X63200000Y-37732100D01*
X25950000Y-35625000D02*
X23784900Y-36875000D01*
D21*
X41200000Y-37150000D02*
X37600000Y-33500000D01*
D22*
X58200000Y-40000000D02*
X58200000Y-42000000D01*
X78300000Y-44000000D02*
X79300000Y-45732100D01*
X44300000Y-49000000D02*
X43875000Y-49736100D01*
X41300000Y-49000000D02*
X41725000Y-49736100D01*
X45300000Y-30500000D02*
X45725000Y-29763900D01*
X22600000Y-32525000D02*
X23336100Y-32950000D01*
X62200000Y-40000000D02*
X63200000Y-41732100D01*
X22600000Y-47475000D02*
X22175000Y-48211100D01*
X32049999Y-29000000D02*
X32049999Y-29850000D01*
X54200000Y-40000000D02*
X53775000Y-39263900D01*
X41200000Y-37600000D02*
X40000000Y-37600000D01*
D21*
X41200000Y-37600000D02*
X41200000Y-37150000D01*
D22*
X32049999Y-32000000D02*
X32049999Y-34000000D01*
X42300000Y-30500000D02*
X42300000Y-31700000D01*
X39300000Y-30500000D02*
X38563900Y-30075000D01*
X75275000Y-40000000D02*
X76011100Y-40425000D01*
X48300000Y-30500000D02*
X47563900Y-30075000D01*
%TO.N,SCLK*%
D21*
X54000000Y-38200000D02*
X54000000Y-37400000D01*
X55800000Y-40000000D02*
X54900000Y-39400000D01*
X25950000Y-38125000D02*
X27300000Y-37000000D01*
X54900000Y-39400000D02*
X54000000Y-38200000D01*
X27300000Y-37000000D02*
X27300000Y-36800000D01*
X42800000Y-37150000D02*
X42400000Y-33500000D01*
X27600000Y-36500000D02*
X29600000Y-35600000D01*
X54000000Y-37400000D02*
X51500000Y-34900000D01*
X51500000Y-34900000D02*
X51500000Y-33600000D01*
X42800000Y-37600000D02*
X42800000Y-37150000D01*
X27300000Y-36800000D02*
X27600000Y-36500000D01*
%TO.N,VIO_EN*%
D22*
X43700000Y-30500000D02*
X47200000Y-33500000D01*
X63800000Y-36000000D02*
X62500000Y-35200000D01*
D21*
X44400000Y-37150000D02*
X47200000Y-33500000D01*
D22*
X31600000Y-28000000D02*
X38500000Y-28100000D01*
X55800000Y-35000000D02*
X55433333Y-35766666D01*
X62500000Y-35200000D02*
X61300000Y-35300000D01*
X55300000Y-34100000D02*
X55800000Y-35000000D01*
X52100000Y-34300000D02*
X54700000Y-35300000D01*
X61300000Y-35300000D02*
X59800000Y-36000000D01*
X59800000Y-36000000D02*
X58500000Y-36800000D01*
X54700000Y-35300000D02*
X55433333Y-35766666D01*
X58500000Y-36800000D02*
X57300000Y-36700000D01*
X23000000Y-36400000D02*
X24700000Y-33700000D01*
X57300000Y-36700000D02*
X55800000Y-36000000D01*
X38500000Y-28100000D02*
X43500000Y-28500000D01*
X24700000Y-33700000D02*
X31600000Y-28000000D01*
X22600000Y-39000000D02*
X23000000Y-36400000D01*
X43500000Y-28500000D02*
X50400000Y-29600000D01*
X55433333Y-35766666D02*
X55800000Y-36000000D01*
D21*
X44400000Y-37600000D02*
X44400000Y-37150000D01*
D22*
X50400000Y-29600000D02*
X55300000Y-34100000D01*
X24500000Y-43200000D02*
X22600000Y-39000000D01*
X25950000Y-44375000D02*
X24500000Y-43200000D01*
%TO.N,IFS*%
D21*
X42000000Y-37600000D02*
X42000000Y-37150000D01*
X42000000Y-37150000D02*
X41428571Y-36107142D01*
X54200000Y-36000000D02*
X53600000Y-36300000D01*
X41600000Y-36300000D02*
X41428571Y-36107142D01*
%TO.N,VLED_3V3*%
D22*
X32000000Y-34600000D02*
X32400000Y-34400000D01*
X42500000Y-45500000D02*
X42514285Y-45457142D01*
X45500000Y-49600000D02*
X45700000Y-49000000D01*
X37200000Y-44200000D02*
X38200000Y-45200000D01*
D21*
X42514285Y-45457142D02*
X42400000Y-46500000D01*
D22*
X42700000Y-49000000D02*
X43200000Y-49600000D01*
X32400000Y-34400000D02*
X33950000Y-32000000D01*
D21*
X42800000Y-42850000D02*
X42514285Y-45457142D01*
D22*
X25950000Y-34375000D02*
X31900000Y-34500000D01*
X32000000Y-34600000D02*
X35600000Y-43400000D01*
X36100000Y-43700000D02*
X37200000Y-44200000D01*
X35600000Y-43400000D02*
X36100000Y-43700000D01*
D21*
X42800000Y-42400000D02*
X42800000Y-42850000D01*
D22*
X33950000Y-32000000D02*
X33950000Y-29000000D01*
X31900000Y-34500000D02*
X32000000Y-34600000D01*
%TO.N,VCAP*%
D21*
X41600000Y-37600000D02*
X41600000Y-37150000D01*
D22*
X40700000Y-30500000D02*
X38800000Y-33500000D01*
D21*
X41600000Y-37150000D02*
X38800000Y-33500000D01*
%TO.N,SS_N*%
X44000000Y-37600000D02*
X44000000Y-37150000D01*
X25950000Y-41875000D02*
X24900000Y-41000000D01*
X58200000Y-36000000D02*
X53800000Y-31900000D01*
X23300000Y-37000000D02*
X23300000Y-36600000D01*
X25100000Y-33800000D02*
X28800000Y-33299999D01*
X23300000Y-36600000D02*
X24900000Y-34000000D01*
X44000000Y-31700000D02*
X46000000Y-33500000D01*
X44000000Y-37150000D02*
X46000000Y-33500000D01*
X24900000Y-34000000D02*
X25100000Y-33800000D01*
X28800000Y-33299999D02*
X29700000Y-32400000D01*
X24900000Y-41000000D02*
X23300000Y-37000000D01*
%TO.N,VCC_3V3*%
D22*
X47900000Y-31200000D02*
X46700000Y-30500000D01*
X73600000Y-44000000D02*
X72300000Y-44800000D01*
X49700000Y-30500000D02*
X48600000Y-31200000D01*
X48250000Y-31200000D02*
X47900000Y-31200000D01*
X46600000Y-30400000D02*
X46700000Y-30500000D01*
X48400000Y-33500000D02*
X48250000Y-31200000D01*
X54500000Y-31400000D02*
X53500000Y-30400000D01*
X59100000Y-32400000D02*
X54500000Y-31400000D01*
X72300000Y-44800000D02*
X71600000Y-44800000D01*
X64900000Y-35400000D02*
X63500000Y-34100000D01*
X25950000Y-36875000D02*
X29600000Y-35000000D01*
X48600000Y-31200000D02*
X48250000Y-31200000D01*
D21*
X44800000Y-37600000D02*
X44800000Y-37150000D01*
X44800000Y-37150000D02*
X48400000Y-33500000D01*
D22*
X29600000Y-35000000D02*
X30100000Y-35300000D01*
X64900000Y-37200000D02*
X64900000Y-35400000D01*
X71600000Y-44800000D02*
X64900000Y-37200000D01*
X30100000Y-35300000D02*
X30400000Y-35600000D01*
X63500000Y-34100000D02*
X59100000Y-32400000D01*
%TO.N,NTC_RETURN*%
D21*
X78600000Y-43300000D02*
X77800000Y-43400000D01*
X77800000Y-43400000D02*
X77500000Y-44000000D01*
X77500000Y-44000000D02*
X77500000Y-44500000D01*
X54800000Y-52100000D02*
X60500000Y-50700000D01*
X41400000Y-51000000D02*
X48000000Y-51900000D01*
X77500000Y-44500000D02*
X77200000Y-44700000D01*
X31100000Y-48500000D02*
X41400000Y-51000000D01*
X77200000Y-44700000D02*
X76600000Y-44800000D01*
X25950000Y-45625000D02*
X31100000Y-48500000D01*
X76600000Y-44800000D02*
X76200000Y-44600000D01*
X76200000Y-44600000D02*
X75200000Y-44000000D01*
X68100000Y-46400000D02*
X74100000Y-44700000D01*
X79700000Y-44000000D02*
X78600000Y-43300000D01*
X74100000Y-44700000D02*
X75200000Y-44000000D01*
X48000000Y-51900000D02*
X54800000Y-52100000D01*
%TO.N,MISO_IC*%
X43600000Y-37600000D02*
X43600000Y-37150000D01*
X43600000Y-37150000D02*
X44800000Y-33500000D01*
X55800000Y-44000000D02*
X55800000Y-42000000D01*
%TO.N,MISO_HOST*%
X25950000Y-40625000D02*
X26500000Y-41000000D01*
X32100000Y-42600000D02*
X35000000Y-45500000D01*
X41400000Y-50600000D02*
X47300000Y-51500000D01*
X35000000Y-45500000D02*
X38200000Y-48500000D01*
X38200000Y-48500000D02*
X41400000Y-50600000D01*
X47300000Y-51500000D02*
X54000000Y-51600000D01*
X54000000Y-44400000D02*
X54200000Y-44000000D01*
%TO.N,VSYNC*%
X63800000Y-40000000D02*
X64500000Y-36300000D01*
X64500000Y-35500000D02*
X63400000Y-34500000D01*
X54000000Y-31400000D02*
X50400000Y-29200000D01*
X28000000Y-41400000D02*
X31000000Y-38500000D01*
X50400000Y-29200000D02*
X42400000Y-28000000D01*
X63400000Y-34500000D02*
X55400000Y-32799999D01*
X42400000Y-37600000D02*
X42400000Y-37150000D01*
X42400000Y-37150000D02*
X41885714Y-35585714D01*
X25950000Y-43125000D02*
X28000000Y-41400000D01*
X41900000Y-35600000D02*
X41885714Y-35585714D01*
X64500000Y-36300000D02*
X64500000Y-35500000D01*
X42400000Y-28000000D02*
X40000000Y-27700000D01*
X31000000Y-38500000D02*
X31800000Y-38400000D01*
X55400000Y-32799999D02*
X54000000Y-31400000D01*
%TO.N,MOSI*%
X43400000Y-33100000D02*
X43600000Y-33500000D01*
X37100000Y-28700000D02*
X37300000Y-28500000D01*
X43200000Y-37600000D02*
X43200000Y-37150000D01*
X56000000Y-37800000D02*
X55400000Y-37600000D01*
X41100000Y-28900000D02*
X43200000Y-29900000D01*
X25950000Y-39375000D02*
X32000000Y-36300000D01*
X50200000Y-29900000D02*
X45700000Y-29200000D01*
X54800000Y-34400000D02*
X50200000Y-29900000D01*
X43200000Y-29900000D02*
X43000000Y-30300000D01*
X43000000Y-30300000D02*
X43400000Y-33100000D01*
X43200000Y-37150000D02*
X43600000Y-33500000D01*
X33600000Y-35600000D02*
X34800000Y-32700000D01*
X45700000Y-29200000D02*
X43200000Y-29900000D01*
X34800000Y-32700000D02*
X37100000Y-28700000D01*
X59800000Y-40000000D02*
X56000000Y-37800000D01*
X37300000Y-28500000D02*
X41100000Y-28900000D01*
%TD*%
M02*
