%TF.GenerationSoftware,KiCad,Pcbnew,10.0.6*%
%TF.CreationDate,2026-09-27T16:35:26-04:00*%
%TF.ProjectId,upper-petal,75707065-722d-4706-9574-616c2e6b6963,rev?*%
%TF.SameCoordinates,Original*%
%TF.FileFunction,Copper,L2,Inr*%
%TF.FilePolarity,Positive*%
%FSLAX46Y46*%
G04 Gerber Fmt 4.6, Leading zero omitted, Abs format (unit mm)*
G04 Created by KiCad (PCBNEW 10.0.6) date 2026-09-27 16:35:26*
%MOMM*%
%LPD*%
G01*
G04 APERTURE LIST*
%TA.AperFunction,ViaPad*%
%ADD10C,0.500000*%
%TD*%
%TA.AperFunction,ViaPad*%
%ADD11C,0.600000*%
%TD*%
%TA.AperFunction,Conductor*%
%ADD12C,0.150000*%
%TD*%
%TA.AperFunction,Conductor*%
%ADD13C,0.200000*%
%TD*%
G04 APERTURE END LIST*
D10*
%TO.N,CS12*%
X27200000Y-33000000D03*
X35200000Y-33000000D03*
X75200000Y-33000000D03*
X59200000Y-33000000D03*
X67200000Y-33000000D03*
X91200000Y-33000000D03*
X41500000Y-32600000D03*
X35800000Y-33000000D03*
X83200000Y-33000000D03*
X51200000Y-33000000D03*
%TO.N,SW3*%
X45600000Y-45300000D03*
X49300000Y-42100000D03*
%TO.N,CS4*%
X71200000Y-35000000D03*
X79200000Y-35000000D03*
X63200000Y-35000000D03*
X31200000Y-35000000D03*
X87200000Y-35000000D03*
X47800000Y-35000000D03*
X50000000Y-39400000D03*
X55200000Y-35000000D03*
X95200000Y-35000000D03*
X38000000Y-35000000D03*
X23200000Y-35000000D03*
%TO.N,SW1*%
X46000000Y-44100000D03*
X36800000Y-44600000D03*
%TO.N,CS10*%
X99200000Y-41000000D03*
X39600000Y-41000000D03*
X51100000Y-39900000D03*
X75200000Y-41000000D03*
X59200000Y-41000000D03*
X51200000Y-41000000D03*
X91200000Y-41000000D03*
X35200000Y-41000000D03*
X45500000Y-37200000D03*
X27200000Y-41000000D03*
X38000000Y-41000000D03*
X67200000Y-41000000D03*
X83200000Y-41000000D03*
%TO.N,SW6*%
X69300000Y-49600000D03*
X41200000Y-46500000D03*
X42300000Y-48200000D03*
%TO.N,CS9*%
X91200000Y-45000000D03*
X51200000Y-45000000D03*
X99200000Y-45000000D03*
X36100000Y-43100000D03*
X67200000Y-45000000D03*
X75200000Y-45000000D03*
X27200000Y-45000000D03*
X35200000Y-45000000D03*
X83200000Y-45000000D03*
X38000000Y-42000000D03*
X59200000Y-45000000D03*
%TO.N,SW0*%
X45500000Y-42000000D03*
X28800000Y-44000000D03*
%TO.N,CS2*%
X87200000Y-43000000D03*
X71200000Y-43000000D03*
X46000000Y-43000000D03*
X39200000Y-43000000D03*
X47900000Y-38300000D03*
X23200000Y-43000000D03*
X55200000Y-43000000D03*
X47800000Y-44200000D03*
X32000000Y-44400000D03*
X31200000Y-43000000D03*
X63200000Y-43000000D03*
X79200000Y-43000000D03*
X95200000Y-43000000D03*
%TO.N,CS7*%
X51100000Y-43000000D03*
X35200000Y-53000000D03*
X53500000Y-42700000D03*
X51200000Y-53000000D03*
X27200000Y-53000000D03*
X43200000Y-53000000D03*
%TO.N,SW2*%
X47199999Y-46500000D03*
X45200000Y-44000000D03*
%TO.N,CS6*%
X31200000Y-27000000D03*
X53500000Y-37600000D03*
X47200000Y-27000000D03*
X55200000Y-27000000D03*
X39200000Y-27000000D03*
X50000000Y-41800000D03*
X52000000Y-39400000D03*
%TO.N,SW4*%
X56800000Y-46300000D03*
X45100000Y-45900000D03*
%TO.N,CS8*%
X91200000Y-49000000D03*
X83200000Y-49000000D03*
X59200000Y-49000000D03*
X51200000Y-49000000D03*
X27200000Y-49000000D03*
X43000000Y-46200000D03*
X75200000Y-49000000D03*
X49400000Y-46600000D03*
X67200000Y-49000000D03*
X46600000Y-48900000D03*
X35200000Y-49000000D03*
%TO.N,SW8*%
X88800000Y-48000000D03*
%TO.N,CS11*%
X42000000Y-34400000D03*
X99200000Y-37000000D03*
X67200000Y-37000000D03*
X59200000Y-37000000D03*
X27800000Y-37000000D03*
X91200000Y-37000000D03*
X38000000Y-40000000D03*
X83200000Y-37000000D03*
X75200000Y-37000000D03*
X37700000Y-34400000D03*
X36100000Y-34400000D03*
X35200000Y-37000000D03*
X51200000Y-37000000D03*
%TO.N,CS5*%
X38000000Y-31000000D03*
X79200000Y-31000000D03*
X87200000Y-31000000D03*
X50500000Y-31000000D03*
X63200000Y-31000000D03*
X23200000Y-31000000D03*
X55200000Y-31000000D03*
X47000000Y-31300000D03*
X31200000Y-31000000D03*
X71200000Y-31000000D03*
%TO.N,SW5*%
X57800000Y-48400000D03*
X44200000Y-46800000D03*
%TO.N,CS3*%
X46200000Y-37200000D03*
X39900000Y-38900000D03*
X55200000Y-39000000D03*
X51800000Y-38700000D03*
X63200000Y-39000000D03*
X127200000Y-39000000D03*
X79200000Y-39000000D03*
X87200000Y-39000000D03*
X95200000Y-39000000D03*
X31200000Y-39000000D03*
X50000000Y-38200000D03*
X23200000Y-39000000D03*
X71200000Y-39000000D03*
X47200000Y-39000000D03*
%TO.N,CS1*%
X47900000Y-47000000D03*
X71200000Y-47000000D03*
X38400000Y-48000000D03*
X79200000Y-47000000D03*
X24000000Y-48400000D03*
X55200000Y-47000000D03*
X50000000Y-35800000D03*
X87200000Y-47000000D03*
X51900000Y-47000000D03*
X51000000Y-37700000D03*
X63200000Y-47000000D03*
X31200000Y-48000000D03*
%TO.N,SW9*%
X96200000Y-44100000D03*
%TO.N,CS13*%
X51200000Y-29000000D03*
X27200000Y-29000000D03*
X35200000Y-29000000D03*
X43200000Y-29000000D03*
X37500000Y-29000000D03*
%TO.N,CS0*%
X50000000Y-34600000D03*
X31200000Y-51000000D03*
X54600000Y-38200000D03*
X47200000Y-51000000D03*
X39200000Y-51000000D03*
X55200000Y-51000000D03*
X52100000Y-37600000D03*
%TO.N,SW7*%
X80400000Y-47600000D03*
%TO.N,SW10*%
X38000000Y-43000000D03*
X37500000Y-42900000D03*
X128100000Y-40000000D03*
D11*
%TO.N,GND*%
X43800000Y-38900000D03*
D10*
X53775000Y-39263900D03*
X38563900Y-30075000D03*
D11*
X42200000Y-38900000D03*
D10*
X76011100Y-40425000D03*
D11*
X42200000Y-41100000D03*
D10*
X23784900Y-36875000D03*
X45725000Y-29763900D03*
X63200000Y-37732100D03*
X40000000Y-37600000D03*
X41725000Y-49736100D03*
X23336100Y-32950000D03*
X37600000Y-33500000D03*
X58200000Y-42000000D03*
X32049999Y-34000000D03*
X79300000Y-45732100D03*
X43875000Y-49736100D03*
X22175000Y-48211100D03*
X47563900Y-30075000D03*
X42300000Y-31700000D03*
D11*
X43800000Y-41100000D03*
D10*
X63200000Y-41732100D03*
X32049999Y-29850000D03*
%TO.N,SCLK*%
X42200000Y-33000000D03*
X42400000Y-33500000D03*
X51500000Y-33600000D03*
X29600000Y-35600000D03*
X30400000Y-32400000D03*
%TO.N,VIO_EN*%
X52100000Y-34300000D03*
X47200000Y-33500000D03*
%TO.N,IFS*%
X53600000Y-36300000D03*
X41600000Y-36300000D03*
%TO.N,VLED_3V3*%
X45500000Y-49600000D03*
X42400000Y-46500000D03*
X38200000Y-45200000D03*
X43200000Y-49600000D03*
X42500000Y-45500000D03*
%TO.N,SS_N*%
X53800000Y-31900000D03*
X29700000Y-32400000D03*
X44000000Y-31700000D03*
X41600000Y-31600000D03*
%TO.N,VCC_3V3*%
X31700000Y-30400000D03*
X46600000Y-30400000D03*
X30400000Y-35600000D03*
X53500000Y-30400000D03*
%TO.N,NTC_RETURN*%
X68100000Y-46400000D03*
X60500000Y-50700000D03*
%TO.N,MISO_IC*%
X44300000Y-33299999D03*
X56000000Y-32400000D03*
X55800000Y-42000000D03*
X44800000Y-33500000D03*
%TO.N,MISO_HOST*%
X54000000Y-51600000D03*
X32100000Y-42600000D03*
X26500000Y-41000000D03*
X54000000Y-44400000D03*
%TO.N,VSYNC*%
X40000000Y-27700000D03*
X31800000Y-38400000D03*
X41900000Y-35600000D03*
X39900000Y-36600000D03*
%TO.N,MOSI*%
X33600000Y-35600000D03*
X55400000Y-37600000D03*
X32000000Y-36300000D03*
X54800000Y-34400000D03*
%TD*%
%TO.N,CS12*%
D12*
X41500000Y-32600000D02*
X35772727Y-32963636D01*
X35772727Y-32963636D02*
X35200000Y-33000000D01*
D13*
X51200000Y-33000000D02*
X59200000Y-33000000D01*
X83200000Y-33000000D02*
X91200000Y-33000000D01*
X59200000Y-33000000D02*
X67200000Y-33000000D01*
X27200000Y-33000000D02*
X35200000Y-33000000D01*
D12*
X35800000Y-33000000D02*
X35772727Y-32963636D01*
D13*
X67200000Y-33000000D02*
X75200000Y-33000000D01*
X75200000Y-33000000D02*
X83200000Y-33000000D01*
%TO.N,SW3*%
X45600000Y-45300000D02*
X49300000Y-42100000D01*
%TO.N,CS4*%
D12*
X48400000Y-35100000D02*
X47800000Y-35000000D01*
D13*
X23200000Y-35000000D02*
X31200000Y-35000000D01*
X71200000Y-35000000D02*
X79200000Y-35000000D01*
D12*
X55200000Y-35000000D02*
X48400000Y-35100000D01*
D13*
X79200000Y-35000000D02*
X87200000Y-35000000D01*
X38000000Y-35000000D02*
X47800000Y-35000000D01*
X55200000Y-35000000D02*
X63200000Y-35000000D01*
X63200000Y-35000000D02*
X71200000Y-35000000D01*
X31200000Y-35000000D02*
X38000000Y-35000000D01*
X87200000Y-35000000D02*
X95200000Y-35000000D01*
%TO.N,SW1*%
X45200000Y-44600000D02*
X36800000Y-44600000D01*
X46000000Y-44100000D02*
X45200000Y-44600000D01*
%TO.N,CS10*%
D12*
X45500000Y-37200000D02*
X46000000Y-37700000D01*
D13*
X91200000Y-41000000D02*
X99200000Y-41000000D01*
X51200000Y-41000000D02*
X59200000Y-41000000D01*
D12*
X41800000Y-40000000D02*
X39600000Y-41000000D01*
D13*
X59200000Y-41000000D02*
X67200000Y-41000000D01*
X67200000Y-41000000D02*
X75200000Y-41000000D01*
D12*
X45500000Y-37200000D02*
X43400000Y-38500000D01*
D13*
X75200000Y-41000000D02*
X83200000Y-41000000D01*
D12*
X35200000Y-41000000D02*
X39600000Y-41000000D01*
X49900000Y-39900000D02*
X51100000Y-39900000D01*
X46000000Y-37700000D02*
X47800000Y-38800000D01*
D13*
X27200000Y-41000000D02*
X35200000Y-41000000D01*
D12*
X47800000Y-38800000D02*
X49900000Y-39900000D01*
D13*
X83200000Y-41000000D02*
X91200000Y-41000000D01*
D12*
X43400000Y-38500000D02*
X41800000Y-40000000D01*
%TO.N,CS9*%
D13*
X59200000Y-45000000D02*
X67200000Y-45000000D01*
X83200000Y-45000000D02*
X91200000Y-45000000D01*
X75200000Y-45000000D02*
X83200000Y-45000000D01*
X51200000Y-45000000D02*
X59200000Y-45000000D01*
X91200000Y-45000000D02*
X99200000Y-45000000D01*
X67200000Y-45000000D02*
X75200000Y-45000000D01*
X27200000Y-45000000D02*
X35200000Y-45000000D01*
%TO.N,SW0*%
X38300000Y-43500000D02*
X28800000Y-44000000D01*
X45500000Y-42000000D02*
X38900000Y-42500000D01*
X38900000Y-42500000D02*
X38300000Y-43500000D01*
%TO.N,CS2*%
X87200000Y-43000000D02*
X95200000Y-43000000D01*
X23200000Y-43000000D02*
X31200000Y-43000000D01*
X79200000Y-43000000D02*
X87200000Y-43000000D01*
X39200000Y-43000000D02*
X46000000Y-43000000D01*
X63200000Y-43000000D02*
X71200000Y-43000000D01*
D12*
X50000000Y-43700000D02*
X55200000Y-43000000D01*
X47800000Y-44200000D02*
X50000000Y-43700000D01*
X32000000Y-44400000D02*
X38400000Y-43900000D01*
D13*
X71200000Y-43000000D02*
X79200000Y-43000000D01*
D12*
X38400000Y-43900000D02*
X39200000Y-43000000D01*
D13*
X55200000Y-43000000D02*
X63200000Y-43000000D01*
%TO.N,CS7*%
X35200000Y-53000000D02*
X43200000Y-53000000D01*
X27200000Y-53000000D02*
X35200000Y-53000000D01*
X43200000Y-53000000D02*
X51200000Y-53000000D01*
D12*
X51100000Y-43000000D02*
X53500000Y-42700000D01*
%TO.N,CS6*%
D13*
X47200000Y-27000000D02*
X55200000Y-27000000D01*
X39200000Y-27000000D02*
X47200000Y-27000000D01*
X31200000Y-27000000D02*
X39200000Y-27000000D01*
%TO.N,SW4*%
X45100000Y-45900000D02*
X56700000Y-46200000D01*
X56700000Y-46200000D02*
X56800000Y-46300000D01*
%TO.N,CS8*%
X59200000Y-49000000D02*
X67200000Y-49000000D01*
D12*
X43100000Y-46700000D02*
X43400000Y-47000000D01*
D13*
X35200000Y-49000000D02*
X51200000Y-49000000D01*
D12*
X43400000Y-47000000D02*
X46600000Y-48900000D01*
D13*
X75200000Y-49000000D02*
X83200000Y-49000000D01*
X27200000Y-49000000D02*
X35200000Y-49000000D01*
X51200000Y-49000000D02*
X59200000Y-49000000D01*
D12*
X43000000Y-46200000D02*
X43100000Y-46700000D01*
D13*
X83200000Y-49000000D02*
X91200000Y-49000000D01*
X67200000Y-49000000D02*
X75200000Y-49000000D01*
%TO.N,CS11*%
D12*
X42000000Y-34400000D02*
X37700000Y-34400000D01*
D13*
X51200000Y-37000000D02*
X59200000Y-37000000D01*
X59200000Y-37000000D02*
X67200000Y-37000000D01*
X27800000Y-37000000D02*
X35200000Y-37000000D01*
X75200000Y-37000000D02*
X83200000Y-37000000D01*
D12*
X36100000Y-34400000D02*
X37700000Y-34400000D01*
D13*
X67200000Y-37000000D02*
X75200000Y-37000000D01*
X91200000Y-37000000D02*
X99200000Y-37000000D01*
X83200000Y-37000000D02*
X91200000Y-37000000D01*
%TO.N,CS5*%
X71200000Y-31000000D02*
X79200000Y-31000000D01*
X55200000Y-31000000D02*
X63200000Y-31000000D01*
X50455172Y-31000000D02*
X50500000Y-31000000D01*
X38000000Y-31000000D02*
X46896551Y-31000000D01*
X63200000Y-31000000D02*
X71200000Y-31000000D01*
D12*
X50500000Y-31000000D02*
X50455172Y-31000000D01*
D13*
X46896551Y-31000000D02*
X50455172Y-31000000D01*
D12*
X47000000Y-31300000D02*
X46896551Y-31000000D01*
D13*
X50500000Y-31000000D02*
X55200000Y-31000000D01*
X23200000Y-31000000D02*
X31200000Y-31000000D01*
X31200000Y-31000000D02*
X38000000Y-31000000D01*
X79200000Y-31000000D02*
X87200000Y-31000000D01*
%TO.N,SW5*%
X47100000Y-47600000D02*
X57800000Y-48400000D01*
X44200000Y-46800000D02*
X45400000Y-47300000D01*
X45400000Y-47300000D02*
X47100000Y-47600000D01*
%TO.N,CS3*%
D12*
X45700000Y-36700000D02*
X46200000Y-37200000D01*
D13*
X63200000Y-39000000D02*
X71200000Y-39000000D01*
D12*
X39900000Y-38900000D02*
X45400000Y-36700000D01*
X54800000Y-38800000D02*
X55200000Y-39000000D01*
X38300000Y-38500000D02*
X39900000Y-38900000D01*
D13*
X55200000Y-39000000D02*
X63200000Y-39000000D01*
X87200000Y-39000000D02*
X95200000Y-39000000D01*
X23200000Y-39000000D02*
X31200000Y-39000000D01*
X95200000Y-39000000D02*
X127200000Y-39000000D01*
D12*
X45400000Y-36700000D02*
X45700000Y-36700000D01*
X31200000Y-39000000D02*
X38300000Y-38500000D01*
D13*
X71200000Y-39000000D02*
X79200000Y-39000000D01*
X79200000Y-39000000D02*
X87200000Y-39000000D01*
D12*
X51800000Y-38700000D02*
X54800000Y-38800000D01*
%TO.N,CS1*%
D13*
X55200000Y-47000000D02*
X63200000Y-47000000D01*
X79200000Y-47000000D02*
X87200000Y-47000000D01*
D12*
X51960000Y-47060000D02*
X55200000Y-47000000D01*
X24000000Y-48400000D02*
X31200000Y-48000000D01*
X51900000Y-47000000D02*
X51960000Y-47060000D01*
X47900000Y-47000000D02*
X49800000Y-47100000D01*
X49800000Y-47100000D02*
X51960000Y-47060000D01*
D13*
X63200000Y-47000000D02*
X71200000Y-47000000D01*
X71200000Y-47000000D02*
X79200000Y-47000000D01*
D12*
X31200000Y-48000000D02*
X38400000Y-48000000D01*
%TO.N,CS13*%
D13*
X35200000Y-29000000D02*
X37485714Y-29000000D01*
X37500000Y-29000000D02*
X43200000Y-29000000D01*
X37485714Y-29000000D02*
X37500000Y-29000000D01*
D12*
X37500000Y-29000000D02*
X37485714Y-29000000D01*
D13*
X43200000Y-29000000D02*
X51200000Y-29000000D01*
X27200000Y-29000000D02*
X35200000Y-29000000D01*
%TO.N,CS0*%
D12*
X53700000Y-38200000D02*
X54600000Y-38200000D01*
X52100000Y-37600000D02*
X53700000Y-38200000D01*
D13*
X31200000Y-51000000D02*
X39200000Y-51000000D01*
X39200000Y-51000000D02*
X47200000Y-51000000D01*
X47200000Y-51000000D02*
X55200000Y-51000000D01*
%TO.N,SW10*%
X128100000Y-40000000D02*
X67500000Y-39900000D01*
X50900000Y-40500000D02*
X50200000Y-41100000D01*
X43700000Y-41700000D02*
X38800000Y-42100000D01*
X38800000Y-42100000D02*
X37500000Y-42900000D01*
X50200000Y-41100000D02*
X44100000Y-41600000D01*
X44100000Y-41600000D02*
X43700000Y-41700000D01*
X67500000Y-39900000D02*
X50900000Y-40500000D01*
%TO.N,SCLK*%
D12*
X30400000Y-32400000D02*
X41700000Y-32100000D01*
X41700000Y-32100000D02*
X42000000Y-32400000D01*
X42000000Y-32400000D02*
X42200000Y-33000000D01*
%TO.N,IFS*%
X53600000Y-36300000D02*
X41600000Y-36300000D01*
%TO.N,VLED_3V3*%
D13*
X44200000Y-50200000D02*
X45500000Y-49600000D01*
X43200000Y-49600000D02*
X43500000Y-50100000D01*
X43800000Y-50300000D02*
X44200000Y-50200000D01*
X43500000Y-50100000D02*
X43800000Y-50300000D01*
%TO.N,SS_N*%
D12*
X29700000Y-32400000D02*
X30200000Y-31900000D01*
X30200000Y-31900000D02*
X41600000Y-31600000D01*
X44100000Y-31800000D02*
X44000000Y-31700000D01*
X53800000Y-31900000D02*
X44100000Y-31800000D01*
%TO.N,VCC_3V3*%
D13*
X39100000Y-29500000D02*
X46600000Y-30400000D01*
X31700000Y-30400000D02*
X39100000Y-29500000D01*
X46900000Y-30600000D02*
X46600000Y-30400000D01*
X53500000Y-30400000D02*
X46900000Y-30600000D01*
%TO.N,MISO_IC*%
D12*
X46700000Y-32600000D02*
X44300000Y-33299999D01*
X56000000Y-32400000D02*
X46700000Y-32600000D01*
%TO.N,MISO_HOST*%
X27000000Y-41500000D02*
X32100000Y-42600000D01*
X26500000Y-41000000D02*
X27000000Y-41500000D01*
%TO.N,VSYNC*%
X39623529Y-36341176D02*
X41300000Y-35900000D01*
X31800000Y-38400000D02*
X39623529Y-36341176D01*
X39900000Y-36600000D02*
X39623529Y-36341176D01*
X41300000Y-35900000D02*
X41900000Y-35600000D01*
%TO.N,MOSI*%
X32000000Y-36300000D02*
X33600000Y-35600000D01*
%TD*%
M02*
