  0
SECTION
  2
HEADER
  9
$ACADVER
  1
AC1027
  9
$ACADMAINTVER
 70
105
  9
$DWGCODEPAGE
  3
ANSI_1252
  9
$LASTSAVEDBY
  1
ezdxf
  9
$REQUIREDVERSIONS
160
0
  9
$INSBASE
 10
0.0
 20
0.0
 30
0.0
  9
$EXTMIN
 10
1e+20
 20
1e+20
 30
1e+20
  9
$EXTMAX
 10
-1e+20
 20
-1e+20
 30
-1e+20
  9
$LIMMIN
 10
0.0
 20
0.0
  9
$LIMMAX
 10
420.0
 20
297.0
  9
$ORTHOMODE
 70
0
  9
$REGENMODE
 70
1
  9
$FILLMODE
 70
1
  9
$QTEXTMODE
 70
0
  9
$MIRRTEXT
 70
1
  9
$LTSCALE
 40
1.0
  9
$ATTMODE
 70
1
  9
$TEXTSIZE
 40
2.5
  9
$TRACEWID
 40
1.0
  9
$TEXTSTYLE
  7
Standard
  9
$CLAYER
  8
0
  9
$CELTYPE
  6
ByLayer
  9
$CECOLOR
 62
256
  9
$CELTSCALE
 40
1.0
  9
$DISPSILH
 70
0
  9
$DIMSCALE
 40
1.0
  9
$DIMASZ
 40
2.5
  9
$DIMEXO
 40
0.625
  9
$DIMDLI
 40
3.75
  9
$DIMRND
 40
0.0
  9
$DIMDLE
 40
0.0
  9
$DIMEXE
 40
1.25
  9
$DIMTP
 40
0.0
  9
$DIMTM
 40
0.0
  9
$DIMTXT
 40
2.5
  9
$DIMCEN
 40
2.5
  9
$DIMTSZ
 40
0.0
  9
$DIMTOL
 70
0
  9
$DIMLIM
 70
0
  9
$DIMTIH
 70
0
  9
$DIMTOH
 70
0
  9
$DIMSE1
 70
0
  9
$DIMSE2
 70
0
  9
$DIMTAD
 70
1
  9
$DIMZIN
 70
8
  9
$DIMBLK
  1

  9
$DIMASO
 70
1
  9
$DIMSHO
 70
1
  9
$DIMPOST
  1

  9
$DIMAPOST
  1

  9
$DIMALT
 70
0
  9
$DIMALTD
 70
3
  9
$DIMALTF
 40
0.03937007874
  9
$DIMLFAC
 40
1.0
  9
$DIMTOFL
 70
1
  9
$DIMTVP
 40
0.0
  9
$DIMTIX
 70
0
  9
$DIMSOXD
 70
0
  9
$DIMSAH
 70
0
  9
$DIMBLK1
  1

  9
$DIMBLK2
  1

  9
$DIMSTYLE
  2
ISO-25
  9
$DIMCLRD
 70
0
  9
$DIMCLRE
 70
0
  9
$DIMCLRT
 70
0
  9
$DIMTFAC
 40
1.0
  9
$DIMGAP
 40
0.625
  9
$DIMJUST
 70
0
  9
$DIMSD1
 70
0
  9
$DIMSD2
 70
0
  9
$DIMTOLJ
 70
0
  9
$DIMTZIN
 70
8
  9
$DIMALTZ
 70
0
  9
$DIMALTTZ
 70
0
  9
$DIMUPT
 70
0
  9
$DIMDEC
 70
2
  9
$DIMTDEC
 70
2
  9
$DIMALTU
 70
2
  9
$DIMALTTD
 70
3
  9
$DIMTXSTY
  7
Standard
  9
$DIMAUNIT
 70
0
  9
$DIMADEC
 70
0
  9
$DIMALTRND
 40
0.0
  9
$DIMAZIN
 70
0
  9
$DIMDSEP
 70
44
  9
$DIMATFIT
 70
3
  9
$DIMFRAC
 70
0
  9
$DIMLDRBLK
  1

  9
$DIMLUNIT
 70
2
  9
$DIMLWD
 70
-2
  9
$DIMLWE
 70
-2
  9
$DIMTMOVE
 70
0
  9
$DIMFXL
 40
1.0
  9
$DIMFXLON
 70
0
  9
$DIMJOGANG
 40
0.785398163397
  9
$DIMTFILL
 70
0
  9
$DIMTFILLCLR
 70
0
  9
$DIMARCSYM
 70
0
  9
$DIMLTYPE
  6

  9
$DIMLTEX1
  6

  9
$DIMLTEX2
  6

  9
$DIMTXTDIRECTION
 70
0
  9
$LUNITS
 70
2
  9
$LUPREC
 70
4
  9
$SKETCHINC
 40
1.0
  9
$FILLETRAD
 40
10.0
  9
$AUNITS
 70
0
  9
$AUPREC
 70
2
  9
$MENU
  1
.
  9
$ELEVATION
 40
0.0
  9
$PELEVATION
 40
0.0
  9
$THICKNESS
 40
0.0
  9
$LIMCHECK
 70
0
  9
$CHAMFERA
 40
0.0
  9
$CHAMFERB
 40
0.0
  9
$CHAMFERC
 40
0.0
  9
$CHAMFERD
 40
0.0
  9
$SKPOLY
 70
0
  9
$TDCREATE
 40
2461312.044988426
  9
$TDUCREATE
 40
2458532.153996898
  9
$TDUPDATE
 40
2461312.044988426
  9
$TDUUPDATE
 40
2458532.1544311
  9
$TDINDWG
 40
0.0
  9
$TDUSRTIMER
 40
0.0
  9
$USRTIMER
 70
1
  9
$ANGBASE
 50
0.0
  9
$ANGDIR
 70
0
  9
$PDMODE
 70
0
  9
$PDSIZE
 40
0.0
  9
$PLINEWID
 40
0.0
  9
$SPLFRAME
 70
0
  9
$SPLINETYPE
 70
6
  9
$SPLINESEGS
 70
8
  9
$HANDSEED
  5
374
  9
$SURFTAB1
 70
6
  9
$SURFTAB2
 70
6
  9
$SURFTYPE
 70
6
  9
$SURFU
 70
6
  9
$SURFV
 70
6
  9
$UCSBASE
  2

  9
$UCSNAME
  2

  9
$UCSORG
 10
0.0
 20
0.0
 30
0.0
  9
$UCSXDIR
 10
1.0
 20
0.0
 30
0.0
  9
$UCSYDIR
 10
0.0
 20
1.0
 30
0.0
  9
$UCSORTHOREF
  2

  9
$UCSORTHOVIEW
 70
0
  9
$UCSORGTOP
 10
0.0
 20
0.0
 30
0.0
  9
$UCSORGBOTTOM
 10
0.0
 20
0.0
 30
0.0
  9
$UCSORGLEFT
 10
0.0
 20
0.0
 30
0.0
  9
$UCSORGRIGHT
 10
0.0
 20
0.0
 30
0.0
  9
$UCSORGFRONT
 10
0.0
 20
0.0
 30
0.0
  9
$UCSORGBACK
 10
0.0
 20
0.0
 30
0.0
  9
$PUCSBASE
  2

  9
$PUCSNAME
  2

  9
$PUCSORG
 10
0.0
 20
0.0
 30
0.0
  9
$PUCSXDIR
 10
1.0
 20
0.0
 30
0.0
  9
$PUCSYDIR
 10
0.0
 20
1.0
 30
0.0
  9
$PUCSORTHOREF
  2

  9
$PUCSORTHOVIEW
 70
0
  9
$PUCSORGTOP
 10
0.0
 20
0.0
 30
0.0
  9
$PUCSORGBOTTOM
 10
0.0
 20
0.0
 30
0.0
  9
$PUCSORGLEFT
 10
0.0
 20
0.0
 30
0.0
  9
$PUCSORGRIGHT
 10
0.0
 20
0.0
 30
0.0
  9
$PUCSORGFRONT
 10
0.0
 20
0.0
 30
0.0
  9
$PUCSORGBACK
 10
0.0
 20
0.0
 30
0.0
  9
$USERI1
 70
0
  9
$USERI2
 70
0
  9
$USERI3
 70
0
  9
$USERI4
 70
0
  9
$USERI5
 70
0
  9
$USERR1
 40
0.0
  9
$USERR2
 40
0.0
  9
$USERR3
 40
0.0
  9
$USERR4
 40
0.0
  9
$USERR5
 40
0.0
  9
$WORLDVIEW
 70
1
  9
$SHADEDGE
 70
3
  9
$SHADEDIF
 70
70
  9
$TILEMODE
 70
1
  9
$MAXACTVP
 70
64
  9
$PINSBASE
 10
0.0
 20
0.0
 30
0.0
  9
$PLIMCHECK
 70
0
  9
$PEXTMIN
 10
1e+20
 20
1e+20
 30
1e+20
  9
$PEXTMAX
 10
-1e+20
 20
-1e+20
 30
-1e+20
  9
$PLIMMIN
 10
0.0
 20
0.0
  9
$PLIMMAX
 10
420.0
 20
297.0
  9
$UNITMODE
 70
0
  9
$VISRETAIN
 70
1
  9
$PLINEGEN
 70
0
  9
$PSLTSCALE
 70
1
  9
$TREEDEPTH
 70
3020
  9
$CMLSTYLE
  2
Standard
  9
$CMLJUST
 70
0
  9
$CMLSCALE
 40
20.0
  9
$PROXYGRAPHICS
 70
1
  9
$MEASUREMENT
 70
1
  9
$CELWEIGHT
370
-1
  9
$ENDCAPS
280
0
  9
$JOINSTYLE
280
0
  9
$LWDISPLAY
290
0
  9
$INSUNITS
 70
4
  9
$HYPERLINKBASE
  1

  9
$STYLESHEET
  1

  9
$XEDIT
290
1
  9
$CEPSNTYPE
380
0
  9
$PSTYLEMODE
290
1
  9
$FINGERPRINTGUID
  2
{07EB18C2-DEAE-49D6-B2F2-55A15EC7EDED}
  9
$VERSIONGUID
  2
{E6412917-67F3-48E1-91F4-DA3836E869A3}
  9
$EXTNAMES
290
1
  9
$PSVPSCALE
 40
0.0
  9
$OLESTARTUP
290
0
  9
$SORTENTS
280
127
  9
$INDEXCTL
280
0
  9
$HIDETEXT
280
1
  9
$XCLIPFRAME
280
1
  9
$HALOGAP
280
0
  9
$OBSCOLOR
 70
257
  9
$OBSLTYPE
280
0
  9
$INTERSECTIONDISPLAY
280
0
  9
$INTERSECTIONCOLOR
 70
257
  9
$DIMASSOC
280
2
  9
$PROJECTNAME
  1

  9
$CAMERADISPLAY
290
0
  9
$LENSLENGTH
 40
50.0
  9
$CAMERAHEIGHT
 40
0.0
  9
$STEPSPERSEC
 40
24.0
  9
$STEPSIZE
 40
100.0
  9
$3DDWFPREC
 40
2.0
  9
$PSOLWIDTH
 40
0.005
  9
$PSOLHEIGHT
 40
0.08
  9
$LOFTANG1
 40
1.570796326795
  9
$LOFTANG2
 40
1.570796326795
  9
$LOFTMAG1
 40
0.0
  9
$LOFTMAG2
 40
0.0
  9
$LOFTPARAM
 70
7
  9
$LOFTNORMALS
280
1
  9
$LATITUDE
 40
37.795
  9
$LONGITUDE
 40
-122.394
  9
$NORTHDIRECTION
 40
0.0
  9
$TIMEZONE
 70
-8000
  9
$LIGHTGLYPHDISPLAY
280
1
  9
$TILEMODELIGHTSYNCH
280
1
  9
$CMATERIAL
347
20
  9
$SOLIDHIST
280
0
  9
$SHOWHIST
280
1
  9
$DWFFRAME
280
2
  9
$DGNFRAME
280
2
  9
$REALWORLDSCALE
290
1
  9
$INTERFERECOLOR
 62
256
  9
$CSHADOW
280
0
  9
$SHADOWPLANELOCATION
 40
0.0
  0
ENDSEC
  0
SECTION
  2
CLASSES
  0
CLASS
  1
ACDBDICTIONARYWDFLT
  2
AcDbDictionaryWithDefault
  3
ObjectDBX Classes
 90
0
 91
0
280
0
281
0
  0
CLASS
  1
SUN
  2
AcDbSun
  3
SCENEOE
 90
1153
 91
0
280
0
281
0
  0
CLASS
  1
VISUALSTYLE
  2
AcDbVisualStyle
  3
ObjectDBX Classes
 90
4095
 91
0
280
0
281
0
  0
CLASS
  1
MATERIAL
  2
AcDbMaterial
  3
ObjectDBX Classes
 90
1153
 91
0
280
0
281
0
  0
CLASS
  1
SCALE
  2
AcDbScale
  3
ObjectDBX Classes
 90
1153
 91
0
280
0
281
0
  0
CLASS
  1
TABLESTYLE
  2
AcDbTableStyle
  3
ObjectDBX Classes
 90
4095
 91
0
280
0
281
0
  0
CLASS
  1
MLEADERSTYLE
  2
AcDbMLeaderStyle
  3
ACDB_MLEADERSTYLE_CLASS
 90
4095
 91
0
280
0
281
0
  0
CLASS
  1
DICTIONARYVAR
  2
AcDbDictionaryVar
  3
ObjectDBX Classes
 90
0
 91
0
280
0
281
0
  0
CLASS
  1
CELLSTYLEMAP
  2
AcDbCellStyleMap
  3
ObjectDBX Classes
 90
1152
 91
0
280
0
281
0
  0
CLASS
  1
MENTALRAYRENDERSETTINGS
  2
AcDbMentalRayRenderSettings
  3
SCENEOE
 90
1024
 91
0
280
0
281
0
  0
CLASS
  1
ACDBDETAILVIEWSTYLE
  2
AcDbDetailViewStyle
  3
ObjectDBX Classes
 90
1025
 91
0
280
0
281
0
  0
CLASS
  1
ACDBSECTIONVIEWSTYLE
  2
AcDbSectionViewStyle
  3
ObjectDBX Classes
 90
1025
 91
0
280
0
281
0
  0
CLASS
  1
RASTERVARIABLES
  2
AcDbRasterVariables
  3
ISM
 90
0
 91
0
280
0
281
0
  0
CLASS
  1
LAYOUT
  2
AcDbLayout
  3
ObjectDBX Classes
 90
0
 91
0
280
0
281
0
  0
CLASS
  1
ACDBPLACEHOLDER
  2
AcDbPlaceHolder
  3
ObjectDBX Classes
 90
0
 91
0
280
0
281
0
  0
ENDSEC
  0
SECTION
  2
TABLES
  0
TABLE
  2
VPORT
  5
8
330
0
100
AcDbSymbolTable
 70
1
  0
VPORT
  5
23
330
8
100
AcDbSymbolTableRecord
100
AcDbViewportTableRecord
  2
*Active
 70
0
 10
0.0
 20
0.0
 11
1.0
 21
1.0
 12
0.0
 22
0.0
 13
0.0
 23
0.0
 14
0.5
 24
0.5
 15
0.5
 25
0.5
 16
0.0
 26
0.0
 36
1.0
 17
0.0
 27
0.0
 37
0.0
 40
1000.0
 41
1.34
 42
50.0
 43
0.0
 44
0.0
 50
0.0
 51
0.0
 71
0
 72
1000
 73
1
 74
3
 75
0
 76
0
 77
0
 78
0
281
0
 65
0
146
0.0
  0
ENDTAB
  0
TABLE
  2
LTYPE
  5
2
330
0
100
AcDbSymbolTable
 70
3
  0
LTYPE
  5
24
330
2
100
AcDbSymbolTableRecord
100
AcDbLinetypeTableRecord
  2
ByBlock
 70
0
  3

 72
65
 73
0
 40
0.0
  0
LTYPE
  5
25
330
2
100
AcDbSymbolTableRecord
100
AcDbLinetypeTableRecord
  2
ByLayer
 70
0
  3

 72
65
 73
0
 40
0.0
  0
LTYPE
  5
26
330
2
100
AcDbSymbolTableRecord
100
AcDbLinetypeTableRecord
  2
Continuous
 70
0
  3

 72
65
 73
0
 40
0.0
  0
ENDTAB
  0
TABLE
  2
LAYER
  5
1
330
0
100
AcDbSymbolTable
 70
5
  0
LAYER
  5
27
330
1
100
AcDbSymbolTableRecord
100
AcDbLayerTableRecord
  2
0
 70
0
 62
7
  6
Continuous
370
-3
390
13
347
21
  0
LAYER
  5
28
330
1
100
AcDbSymbolTableRecord
100
AcDbLayerTableRecord
  2
Defpoints
 70
0
 62
7
  6
Continuous
290
0
370
-3
390
13
347
21
  0
LAYER
  5
2F
330
1
100
AcDbSymbolTableRecord
100
AcDbLayerTableRecord
  2
BOUNDARY
 70
0
 62
7
  6
Continuous
370
-3
390
13
347
21
  0
LAYER
  5
30
330
1
100
AcDbSymbolTableRecord
100
AcDbLayerTableRecord
  2
NOTE
 70
0
 62
3
  6
Continuous
370
-3
390
13
347
21
  0
LAYER
  5
31
330
1
100
AcDbSymbolTableRecord
100
AcDbLayerTableRecord
  2
DIM
 70
0
 62
2
  6
Continuous
370
-3
390
13
347
21
  0
ENDTAB
  0
TABLE
  2
STYLE
  5
5
330
0
100
AcDbSymbolTable
 70
1
  0
STYLE
  5
29
330
5
100
AcDbSymbolTableRecord
100
AcDbTextStyleTableRecord
  2
Standard
 70
0
 40
0.0
 41
1.0
 50
0.0
 71
0
 42
2.5
  3
txt
  4

  0
ENDTAB
  0
TABLE
  2
VIEW
  5
7
330
0
100
AcDbSymbolTable
 70
0
  0
ENDTAB
  0
TABLE
  2
UCS
  5
6
330
0
100
AcDbSymbolTable
 70
0
  0
ENDTAB
  0
TABLE
  2
APPID
  5
3
330
0
100
AcDbSymbolTable
 70
3
  0
APPID
  5
2A
330
3
100
AcDbSymbolTableRecord
100
AcDbRegAppTableRecord
  2
ACAD
 70
0
  0
APPID
  5
371
330
3
100
AcDbSymbolTableRecord
100
AcDbRegAppTableRecord
  2
HATCHBACKGROUNDCOLOR
 70
0
  0
APPID
  5
372
330
3
100
AcDbSymbolTableRecord
100
AcDbRegAppTableRecord
  2
EZDXF
 70
0
  0
ENDTAB
  0
TABLE
  2
DIMSTYLE
  5
4
330
0
100
AcDbSymbolTable
 70
1
100
AcDbDimStyleTable
  0
DIMSTYLE
105
2B
330
4
100
AcDbSymbolTableRecord
100
AcDbDimStyleTableRecord
  2
Standard
 70
0
 40
1.0
 41
2.5
 42
0.625
 43
3.75
 44
1.25
 45
0.0
 46
0.0
 47
0.0
 48
0.0
 49
2.5
140
2.5
141
2.5
142
0.0
143
0.03937007874
144
1.0
145
0.0
146
1.0
147
0.625
148
0.0
 69
0
 70
0
 71
0
 72
0
 73
0
 74
0
 75
0
 76
0
 77
1
 78
8
 79
3
170
0
171
3
172
1
173
0
174
0
175
0
176
0
177
0
178
0
179
2
271
2
272
2
273
2
274
3
275
0
276
0
277
2
278
44
279
0
280
0
281
0
282
0
283
0
284
8
285
0
286
0
288
0
289
3
290
0
371
-2
372
-2
  0
ENDTAB
  0
TABLE
  2
BLOCK_RECORD
  5
9
330
0
100
AcDbSymbolTable
 70
2
  0
BLOCK_RECORD
  5
17
330
9
100
AcDbSymbolTableRecord
100
AcDbBlockTableRecord
  2
*Model_Space
340
1A
 70
0
280
1
281
0
  0
BLOCK_RECORD
  5
1B
330
9
100
AcDbSymbolTableRecord
100
AcDbBlockTableRecord
  2
*Paper_Space
340
1E
 70
0
280
1
281
0
  0
ENDTAB
  0
ENDSEC
  0
SECTION
  2
BLOCKS
  0
BLOCK
  5
18
330
17
100
AcDbEntity
  8
0
100
AcDbBlockBegin
  2
*Model_Space
 70
0
 10
0.0
 20
0.0
 30
0.0
  3
*Model_Space
  1

  0
ENDBLK
  5
19
330
17
100
AcDbEntity
  8
0
100
AcDbBlockEnd
  0
BLOCK
  5
1C
330
1B
100
AcDbEntity
  8
0
100
AcDbBlockBegin
  2
*Paper_Space
 70
0
 10
0.0
 20
0.0
 30
0.0
  3
*Paper_Space
  1

  0
ENDBLK
  5
1D
330
1B
100
AcDbEntity
  8
0
100
AcDbBlockEnd
  0
ENDSEC
  0
SECTION
  2
ENTITIES
  0
LINE
  5
32
330
17
100
AcDbEntity
  8
BOUNDARY
100
AcDbLine
 10
14.0
 20
45.5
 30
0.0
 11
14.0
 21
35.32704346531078
 31
0.0
  0
LINE
  5
33
330
17
100
AcDbEntity
  8
BOUNDARY
100
AcDbLine
 10
-13.999999999999776
 20
45.5
 30
0.0
 11
14.000000000000195
 21
45.5
 31
0.0
  0
ARC
  5
34
330
17
100
AcDbEntity
  8
BOUNDARY
100
AcDbCircle
 10
0.0
 20
0.0
 30
0.0
 40
38.0
100
AcDbArc
 50
0.0
 51
68.38172757784186
  0
ARC
  5
35
330
17
100
AcDbEntity
  8
BOUNDARY
100
AcDbCircle
 10
0.0
 20
0.0
 30
0.0
 40
38.0
100
AcDbArc
 50
111.61827242215814
 51
360.0
  0
LINE
  5
36
330
17
100
AcDbEntity
  8
BOUNDARY
100
AcDbLine
 10
-14.0
 20
45.5
 30
0.0
 11
-14.0
 21
35.32704346531132
 31
0.0
  0
CIRCLE
  5
37
330
17
100
AcDbEntity
  8
BOUNDARY
100
AcDbCircle
 10
-15.870201811896777
 20
-21.84345884812358
 30
0.0
 40
3.1
  0
CIRCLE
  5
38
330
17
100
AcDbEntity
  8
BOUNDARY
100
AcDbCircle
 10
-21.843458848123582
 20
-15.870201811896772
 30
0.0
 40
3.1
  0
CIRCLE
  5
39
330
17
100
AcDbEntity
  8
BOUNDARY
100
AcDbCircle
 10
-8.343458848123584
 20
-25.678525939969145
 30
0.0
 40
3.1
  0
CIRCLE
  5
3A
330
17
100
AcDbEntity
  8
BOUNDARY
100
AcDbCircle
 10
-4.95981953654678e-15
 20
-27.0
 30
0.0
 40
3.1
  0
CIRCLE
  5
3B
330
17
100
AcDbEntity
  8
BOUNDARY
100
AcDbCircle
 10
0.0
 20
0.0
 30
0.0
 40
9.0
  0
CIRCLE
  5
3C
330
17
100
AcDbEntity
  8
BOUNDARY
100
AcDbCircle
 10
15.870201811896768
 20
-21.843458848123586
 30
0.0
 40
3.1
  0
CIRCLE
  5
3D
330
17
100
AcDbEntity
  8
BOUNDARY
100
AcDbCircle
 10
21.84345884812358
 20
-15.87020181189678
 30
0.0
 40
3.1
  0
CIRCLE
  5
3E
330
17
100
AcDbEntity
  8
BOUNDARY
100
AcDbCircle
 10
25.678525939969145
 20
-8.343458848123587
 30
0.0
 40
3.1
  0
CIRCLE
  5
3F
330
17
100
AcDbEntity
  8
BOUNDARY
100
AcDbCircle
 10
27.0
 20
0.0
 30
0.0
 40
3.1
  0
CIRCLE
  5
40
330
17
100
AcDbEntity
  8
BOUNDARY
100
AcDbCircle
 10
-27.0
 20
3.3065463576978537e-15
 30
0.0
 40
3.1
  0
CIRCLE
  5
41
330
17
100
AcDbEntity
  8
BOUNDARY
100
AcDbCircle
 10
-25.678525939969145
 20
8.343458848123582
 30
0.0
 40
3.1
  0
CIRCLE
  5
42
330
17
100
AcDbEntity
  8
BOUNDARY
100
AcDbCircle
 10
-21.84345884812358
 20
15.870201811896777
 30
0.0
 40
3.1
  0
CIRCLE
  5
43
330
17
100
AcDbEntity
  8
BOUNDARY
100
AcDbCircle
 10
-15.870201811896772
 20
21.843458848123582
 30
0.0
 40
3.1
  0
CIRCLE
  5
44
330
17
100
AcDbEntity
  8
BOUNDARY
100
AcDbCircle
 10
1.6532731788489269e-15
 20
27.0
 30
0.0
 40
3.1
  0
CIRCLE
  5
45
330
17
100
AcDbEntity
  8
BOUNDARY
100
AcDbCircle
 10
8.343458848123582
 20
25.678525939969145
 30
0.0
 40
3.1
  0
CIRCLE
  5
46
330
17
100
AcDbEntity
  8
BOUNDARY
100
AcDbCircle
 10
21.843458848123582
 20
15.870201811896775
 30
0.0
 40
3.1
  0
CIRCLE
  5
47
330
17
100
AcDbEntity
  8
BOUNDARY
100
AcDbCircle
 10
15.870201811896775
 20
21.843458848123582
 30
0.0
 40
3.1
  0
TEXT
  5
48
330
17
100
AcDbEntity
  8
NOTE
100
AcDbText
 10
-45.0
 20
65.0
 30
0.0
 40
2.4
  1
J4_OUTPUT_LOCAL_Z6.8
100
AcDbText
  0
LINE
  5
49
330
17
100
AcDbEntity
  8
BOUNDARY
100
AcDbLine
 10
194.0
 20
-4.0
 30
0.0
 11
194.0
 21
-14.34289729948825
 31
0.0
  0
LINE
  5
4A
330
17
100
AcDbEntity
  8
BOUNDARY
100
AcDbLine
 10
166.0
 20
-4.0
 30
0.0
 11
194.0
 21
-4.0
 31
0.0
  0
ARC
  5
4B
330
17
100
AcDbEntity
  8
BOUNDARY
100
AcDbCircle
 10
180.0
 20
-55.0
 30
0.0
 40
43.0
100
AcDbArc
 50
109.00080236291252
 51
70.99919763708617
  0
LINE
  5
4C
330
17
100
AcDbEntity
  8
BOUNDARY
100
AcDbLine
 10
166.0
 20
-4.0
 30
0.0
 11
166.0
 21
-14.342897299487753
 31
0.0
  0
CIRCLE
  5
4D
330
17
100
AcDbEntity
  8
BOUNDARY
100
AcDbCircle
 10
180.0
 20
-55.0
 30
0.0
 40
33.5
  0
CIRCLE
  5
4E
330
17
100
AcDbEntity
  8
BOUNDARY
100
AcDbCircle
 10
189.57630466879326
 20
-19.260744427304473
 30
0.0
 40
1.8000000000000036
  0
CIRCLE
  5
4F
330
17
100
AcDbEntity
  8
BOUNDARY
100
AcDbCircle
 10
170.42369533120672
 20
-19.260744427304473
 30
0.0
 40
1.8000000000000036
  0
CIRCLE
  5
50
330
17
100
AcDbEntity
  8
BOUNDARY
100
AcDbCircle
 10
206.16295090390227
 20
-28.837049096097743
 30
0.0
 40
1.8000000000000036
  0
CIRCLE
  5
51
330
17
100
AcDbEntity
  8
BOUNDARY
100
AcDbCircle
 10
215.73925557269553
 20
-45.42369533120673
 30
0.0
 40
1.8000000000000036
  0
CIRCLE
  5
52
330
17
100
AcDbEntity
  8
BOUNDARY
100
AcDbCircle
 10
153.83704909609776
 20
-28.83704909609774
 30
0.0
 40
1.8000000000000036
  0
CIRCLE
  5
53
330
17
100
AcDbEntity
  8
BOUNDARY
100
AcDbCircle
 10
144.26074442730447
 20
-45.42369533120672
 30
0.0
 40
1.8000000000000036
  0
CIRCLE
  5
54
330
17
100
AcDbEntity
  8
BOUNDARY
100
AcDbCircle
 10
153.83704909609773
 20
-81.16295090390226
 30
0.0
 40
1.8000000000000036
  0
CIRCLE
  5
55
330
17
100
AcDbEntity
  8
BOUNDARY
100
AcDbCircle
 10
170.42369533120674
 20
-90.73925557269553
 30
0.0
 40
1.8000000000000036
  0
CIRCLE
  5
56
330
17
100
AcDbEntity
  8
BOUNDARY
100
AcDbCircle
 10
144.26074442730447
 20
-64.57630466879327
 30
0.0
 40
1.8000000000000036
  0
CIRCLE
  5
57
330
17
100
AcDbEntity
  8
BOUNDARY
100
AcDbCircle
 10
189.57630466879326
 20
-90.73925557269553
 30
0.0
 40
1.8000000000000036
  0
CIRCLE
  5
58
330
17
100
AcDbEntity
  8
BOUNDARY
100
AcDbCircle
 10
206.16295090390224
 20
-81.16295090390227
 30
0.0
 40
1.8000000000000036
  0
CIRCLE
  5
59
330
17
100
AcDbEntity
  8
BOUNDARY
100
AcDbCircle
 10
215.73925557269553
 20
-64.57630466879327
 30
0.0
 40
1.8000000000000036
  0
TEXT
  5
5A
330
17
100
AcDbEntity
  8
NOTE
100
AcDbText
 10
135.0
 20
65.0
 30
0.0
 40
2.4
  1
J5_FIXED_WORLD_Z45.4
100
AcDbText
  0
LINE
  5
5B
330
17
100
AcDbEntity
  8
BOUNDARY
100
AcDbLine
 10
350.0
 20
-38.0
 30
0.0
 11
350.0
 21
-30.1
 31
0.0
  0
LINE
  5
5C
330
17
100
AcDbEntity
  8
BOUNDARY
100
AcDbLine
 10
360.0
 20
-38.0
 30
0.0
 11
350.0
 21
-38.0
 31
0.0
  0
LINE
  5
5D
330
17
100
AcDbEntity
  8
BOUNDARY
100
AcDbLine
 10
353.4
 20
-30.1
 30
0.0
 11
350.0
 21
-30.1
 31
0.0
  0
LINE
  5
5E
330
17
100
AcDbEntity
  8
BOUNDARY
100
AcDbLine
 10
350.0
 20
-23.9
 30
0.0
 11
350.0
 21
-9.0
 31
0.0
  0
LINE
  5
5F
330
17
100
AcDbEntity
  8
BOUNDARY
100
AcDbLine
 10
353.4
 20
-23.9
 30
0.0
 11
350.0
 21
-23.9
 31
0.0
  0
LINE
  5
60
330
17
100
AcDbEntity
  8
BOUNDARY
100
AcDbLine
 10
359.7
 20
-9.0
 30
0.0
 11
350.0
 21
-9.0
 31
0.0
  0
LINE
  5
61
330
17
100
AcDbEntity
  8
BOUNDARY
100
AcDbLine
 10
350.0
 20
9.0
 30
0.0
 11
350.0
 21
23.9
 31
0.0
  0
LINE
  5
62
330
17
100
AcDbEntity
  8
BOUNDARY
100
AcDbLine
 10
359.7
 20
9.0
 30
0.0
 11
350.0
 21
9.0
 31
0.0
  0
LINE
  5
63
330
17
100
AcDbEntity
  8
BOUNDARY
100
AcDbLine
 10
353.4
 20
23.9
 30
0.0
 11
350.0
 21
23.9
 31
0.0
  0
LINE
  5
64
330
17
100
AcDbEntity
  8
BOUNDARY
100
AcDbLine
 10
350.0
 20
30.1
 30
0.0
 11
350.0
 21
36.5
 31
0.0
  0
LINE
  5
65
330
17
100
AcDbEntity
  8
BOUNDARY
100
AcDbLine
 10
353.4
 20
30.1
 30
0.0
 11
350.0
 21
30.1
 31
0.0
  0
ARC
  5
66
330
17
100
AcDbEntity
  8
BOUNDARY
100
AcDbCircle
 10
348.0
 20
36.5
 30
0.0
 40
2.0
100
AcDbArc
 50
0.0
 51
90.0
  0
LINE
  5
67
330
17
100
AcDbEntity
  8
BOUNDARY
100
AcDbLine
 10
338.5
 20
38.5
 30
0.0
 11
348.0
 21
38.5
 31
0.0
  0
LINE
  5
68
330
17
100
AcDbEntity
  8
BOUNDARY
100
AcDbLine
 10
360.0
 20
-38.0
 30
0.0
 11
360.0
 21
-33.0
 31
0.0
  0
LINE
  5
69
330
17
100
AcDbEntity
  8
BOUNDARY
100
AcDbLine
 10
360.0
 20
38.0
 30
0.0
 11
356.0
 21
38.0
 31
0.0
  0
LINE
  5
6A
330
17
100
AcDbEntity
  8
BOUNDARY
100
AcDbLine
 10
360.0
 20
33.0
 30
0.0
 11
360.0
 21
38.0
 31
0.0
  0
LINE
  5
6B
330
17
100
AcDbEntity
  8
BOUNDARY
100
AcDbLine
 10
356.0
 20
45.5
 30
0.0
 11
356.0
 21
38.0
 31
0.0
  0
LINE
  5
6C
330
17
100
AcDbEntity
  8
BOUNDARY
100
AcDbLine
 10
353.4
 20
-30.1
 30
0.0
 11
353.4
 21
-28.9
 31
0.0
  0
LINE
  5
6D
330
17
100
AcDbEntity
  8
BOUNDARY
100
AcDbLine
 10
353.4
 20
-25.1
 30
0.0
 11
353.4
 21
-23.9
 31
0.0
  0
LINE
  5
6E
330
17
100
AcDbEntity
  8
BOUNDARY
100
AcDbLine
 10
359.7
 20
-24.5
 30
0.0
 11
359.7
 21
-9.0
 31
0.0
  0
LINE
  5
6F
330
17
100
AcDbEntity
  8
BOUNDARY
100
AcDbLine
 10
359.7
 20
9.0
 30
0.0
 11
359.7
 21
24.5
 31
0.0
  0
LINE
  5
70
330
17
100
AcDbEntity
  8
BOUNDARY
100
AcDbLine
 10
353.4
 20
23.9
 30
0.0
 11
353.4
 21
25.1
 31
0.0
  0
LINE
  5
71
330
17
100
AcDbEntity
  8
BOUNDARY
100
AcDbLine
 10
353.4
 20
28.9
 30
0.0
 11
353.4
 21
30.1
 31
0.0
  0
LINE
  5
72
330
17
100
AcDbEntity
  8
BOUNDARY
100
AcDbLine
 10
262.0
 20
38.5
 30
0.0
 11
271.5
 21
38.5
 31
0.0
  0
LINE
  5
73
330
17
100
AcDbEntity
  8
BOUNDARY
100
AcDbLine
 10
262.0
 20
38.5
 30
0.0
 11
262.0
 21
45.5
 31
0.0
  0
LINE
  5
74
330
17
100
AcDbEntity
  8
BOUNDARY
100
AcDbLine
 10
271.5
 20
38.5
 30
0.0
 11
271.5
 21
45.5
 31
0.0
  0
LINE
  5
75
330
17
100
AcDbEntity
  8
BOUNDARY
100
AcDbLine
 10
338.5
 20
38.5
 30
0.0
 11
338.5
 21
45.5
 31
0.0
  0
LINE
  5
76
330
17
100
AcDbEntity
  8
BOUNDARY
100
AcDbLine
 10
338.5
 20
45.5
 30
0.0
 11
356.0
 21
45.5
 31
0.0
  0
LINE
  5
77
330
17
100
AcDbEntity
  8
BOUNDARY
100
AcDbLine
 10
262.0
 20
45.5
 30
0.0
 11
271.5
 21
45.5
 31
0.0
  0
LINE
  5
78
330
17
100
AcDbEntity
  8
BOUNDARY
100
AcDbLine
 10
368.0
 20
-33.0
 30
0.0
 11
360.0
 21
-33.0
 31
0.0
  0
LINE
  5
79
330
17
100
AcDbEntity
  8
BOUNDARY
100
AcDbLine
 10
368.0
 20
33.0
 30
0.0
 11
360.0
 21
33.0
 31
0.0
  0
LINE
  5
7A
330
17
100
AcDbEntity
  8
BOUNDARY
100
AcDbLine
 10
353.6
 20
-28.7
 30
0.0
 11
353.4
 21
-28.9
 31
0.0
  0
LINE
  5
7B
330
17
100
AcDbEntity
  8
BOUNDARY
100
AcDbLine
 10
353.6
 20
-25.3
 30
0.0
 11
353.4
 21
-25.1
 31
0.0
  0
LINE
  5
7C
330
17
100
AcDbEntity
  8
BOUNDARY
100
AcDbLine
 10
360.0
 20
-24.5
 30
0.0
 11
359.7
 21
-24.5
 31
0.0
  0
LINE
  5
7D
330
17
100
AcDbEntity
  8
BOUNDARY
100
AcDbLine
 10
360.0
 20
24.5
 30
0.0
 11
359.7
 21
24.5
 31
0.0
  0
LINE
  5
7E
330
17
100
AcDbEntity
  8
BOUNDARY
100
AcDbLine
 10
353.6
 20
25.3
 30
0.0
 11
353.4
 21
25.1
 31
0.0
  0
LINE
  5
7F
330
17
100
AcDbEntity
  8
BOUNDARY
100
AcDbLine
 10
353.6
 20
28.7
 30
0.0
 11
353.4
 21
28.9
 31
0.0
  0
LINE
  5
80
330
17
100
AcDbEntity
  8
BOUNDARY
100
AcDbLine
 10
368.0
 20
-33.0
 30
0.0
 11
368.0
 21
-30.3
 31
0.0
  0
LINE
  5
81
330
17
100
AcDbEntity
  8
BOUNDARY
100
AcDbLine
 10
368.0
 20
30.3
 30
0.0
 11
368.0
 21
33.0
 31
0.0
  0
LINE
  5
82
330
17
100
AcDbEntity
  8
BOUNDARY
100
AcDbLine
 10
360.0
 20
-28.7
 30
0.0
 11
353.6
 21
-28.7
 31
0.0
  0
LINE
  5
83
330
17
100
AcDbEntity
  8
BOUNDARY
100
AcDbLine
 10
360.0
 20
-25.3
 30
0.0
 11
353.6
 21
-25.3
 31
0.0
  0
LINE
  5
84
330
17
100
AcDbEntity
  8
BOUNDARY
100
AcDbLine
 10
360.0
 20
24.5
 30
0.0
 11
360.0
 21
25.3
 31
0.0
  0
LINE
  5
85
330
17
100
AcDbEntity
  8
BOUNDARY
100
AcDbLine
 10
360.0
 20
-25.3
 30
0.0
 11
360.0
 21
-24.5
 31
0.0
  0
LINE
  5
86
330
17
100
AcDbEntity
  8
BOUNDARY
100
AcDbLine
 10
360.0
 20
25.3
 30
0.0
 11
353.6
 21
25.3
 31
0.0
  0
LINE
  5
87
330
17
100
AcDbEntity
  8
BOUNDARY
100
AcDbLine
 10
360.0
 20
28.7
 30
0.0
 11
353.6
 21
28.7
 31
0.0
  0
LINE
  5
88
330
17
100
AcDbEntity
  8
BOUNDARY
100
AcDbLine
 10
367.7
 20
-30.000000000000007
 30
0.0
 11
368.0
 21
-30.300000000000004
 31
0.0
  0
LINE
  5
89
330
17
100
AcDbEntity
  8
BOUNDARY
100
AcDbLine
 10
367.7
 20
30.000000000000007
 30
0.0
 11
368.0
 21
30.300000000000004
 31
0.0
  0
LINE
  5
8A
330
17
100
AcDbEntity
  8
BOUNDARY
100
AcDbLine
 10
360.0
 20
-29.9
 30
0.0
 11
360.0
 21
-28.7
 31
0.0
  0
ARC
  5
8B
330
17
100
AcDbEntity
  8
BOUNDARY
100
AcDbCircle
 10
360.1
 20
-29.9
 30
0.0
 40
0.1
100
AcDbArc
 50
180.0
 51
270.0
  0
LINE
  5
8C
330
17
100
AcDbEntity
  8
BOUNDARY
100
AcDbLine
 10
360.0
 20
28.7
 30
0.0
 11
360.0
 21
29.9
 31
0.0
  0
ARC
  5
8D
330
17
100
AcDbEntity
  8
BOUNDARY
100
AcDbCircle
 10
360.1
 20
29.9
 30
0.0
 40
0.1
100
AcDbArc
 50
90.0
 51
180.0
  0
LINE
  5
8E
330
17
100
AcDbEntity
  8
BOUNDARY
100
AcDbLine
 10
367.7
 20
30.0
 30
0.0
 11
360.1
 21
30.0
 31
0.0
  0
LINE
  5
8F
330
17
100
AcDbEntity
  8
BOUNDARY
100
AcDbLine
 10
367.7
 20
-30.0
 30
0.0
 11
360.1
 21
-30.0
 31
0.0
  0
TEXT
  5
90
330
17
100
AcDbEntity
  8
NOTE
100
AcDbText
 10
315.0
 20
65.0
 30
0.0
 40
2.4
  1
SIDE_X0
100
AcDbText
  0
LINE
  5
91
330
17
100
AcDbEntity
  8
BOUNDARY
100
AcDbLine
 10
530.0
 20
-36.660605559646726
 30
0.0
 11
530.0
 21
23.058245151171892
 31
0.0
  0
LINE
  5
92
330
17
100
AcDbEntity
  8
BOUNDARY
100
AcDbLine
 10
540.0
 20
-36.66060555964672
 30
0.0
 11
530.0
 21
-36.66060555964672
 31
0.0
  0
LINE
  5
93
330
17
100
AcDbEntity
  8
BOUNDARY
100
AcDbLine
 10
533.4
 20
23.058245151171892
 30
0.0
 11
530.0
 21
23.058245151171892
 31
0.0
  0
LINE
  5
94
330
17
100
AcDbEntity
  8
BOUNDARY
100
AcDbLine
 10
530.0
 20
28.298806728766397
 30
0.0
 11
530.0
 21
36.5
 31
0.0
  0
LINE
  5
95
330
17
100
AcDbEntity
  8
BOUNDARY
100
AcDbLine
 10
533.4
 20
28.298806728766397
 30
0.0
 11
530.0
 21
28.298806728766397
 31
0.0
  0
ARC
  5
96
330
17
100
AcDbEntity
  8
BOUNDARY
100
AcDbCircle
 10
528.0
 20
36.5
 30
0.0
 40
2.0
100
AcDbArc
 50
0.0
 51
90.0
  0
LINE
  5
97
330
17
100
AcDbEntity
  8
BOUNDARY
100
AcDbLine
 10
522.3856098074559
 20
38.5
 30
0.0
 11
528.0
 21
38.5
 31
0.0
  0
LINE
  5
98
330
17
100
AcDbEntity
  8
BOUNDARY
100
AcDbLine
 10
540.0
 20
-36.660605559646726
 30
0.0
 11
540.0
 21
-31.448370387032778
 31
0.0
  0
LINE
  5
99
330
17
100
AcDbEntity
  8
BOUNDARY
100
AcDbLine
 10
540.0
 20
36.66060555964672
 30
0.0
 11
536.0
 21
36.66060555964672
 31
0.0
  0
LINE
  5
9A
330
17
100
AcDbEntity
  8
BOUNDARY
100
AcDbLine
 10
540.0
 20
31.448370387032774
 30
0.0
 11
540.0
 21
36.66060555964672
 31
0.0
  0
LINE
  5
9B
330
17
100
AcDbEntity
  8
BOUNDARY
100
AcDbLine
 10
536.0
 20
45.5
 30
0.0
 11
536.0
 21
36.66060555964672
 31
0.0
  0
LINE
  5
9C
330
17
100
AcDbEntity
  8
BOUNDARY
100
AcDbLine
 10
533.4
 20
23.058245151171892
 30
0.0
 11
533.4
 21
24.748003821940802
 31
0.0
  0
LINE
  5
9D
330
17
100
AcDbEntity
  8
BOUNDARY
100
AcDbLine
 10
533.4
 20
26.609048057997487
 30
0.0
 11
533.4
 21
28.298806728766397
 31
0.0
  0
LINE
  5
9E
330
17
100
AcDbEntity
  8
BOUNDARY
100
AcDbLine
 10
443.17895266734706
 20
38.5
 30
0.0
 11
447.6143901925441
 21
38.5
 31
0.0
  0
LINE
  5
9F
330
17
100
AcDbEntity
  8
BOUNDARY
100
AcDbLine
 10
443.17895266734706
 20
38.5
 30
0.0
 11
443.17895266734706
 21
45.5
 31
0.0
  0
LINE
  5
A0
330
17
100
AcDbEntity
  8
BOUNDARY
100
AcDbLine
 10
447.6143901925441
 20
38.5
 30
0.0
 11
447.6143901925441
 21
45.3
 31
0.0
  0
LINE
  5
A1
330
17
100
AcDbEntity
  8
BOUNDARY
100
AcDbLine
 10
450.90709866206487
 20
38.5
 30
0.0
 11
453.0273554425037
 21
38.5
 31
0.0
  0
LINE
  5
A2
330
17
100
AcDbEntity
  8
BOUNDARY
100
AcDbLine
 10
450.90709866206487
 20
38.5
 30
0.0
 11
450.90709866206487
 21
45.3
 31
0.0
  0
LINE
  5
A3
330
17
100
AcDbEntity
  8
BOUNDARY
100
AcDbLine
 10
453.0273554425037
 20
38.5
 30
0.0
 11
453.0273554425037
 21
45.5
 31
0.0
  0
LINE
  5
A4
330
17
100
AcDbEntity
  8
BOUNDARY
100
AcDbLine
 10
516.9726445574963
 20
38.5
 30
0.0
 11
519.0929013379351
 21
38.5
 31
0.0
  0
LINE
  5
A5
330
17
100
AcDbEntity
  8
BOUNDARY
100
AcDbLine
 10
516.9726445574963
 20
38.5
 30
0.0
 11
516.9726445574963
 21
45.5
 31
0.0
  0
LINE
  5
A6
330
17
100
AcDbEntity
  8
BOUNDARY
100
AcDbLine
 10
519.0929013379351
 20
38.5
 30
0.0
 11
519.0929013379351
 21
45.3
 31
0.0
  0
LINE
  5
A7
330
17
100
AcDbEntity
  8
BOUNDARY
100
AcDbLine
 10
522.3856098074559
 20
38.5
 30
0.0
 11
522.3856098074559
 21
45.3
 31
0.0
  0
LINE
  5
A8
330
17
100
AcDbEntity
  8
BOUNDARY
100
AcDbLine
 10
522.5914116855309
 20
45.5
 30
0.0
 11
536.0
 21
45.5
 31
0.0
  0
LINE
  5
A9
330
17
100
AcDbEntity
  8
BOUNDARY
100
AcDbLine
 10
443.17895266734706
 20
45.5
 30
0.0
 11
447.40858831446906
 21
45.5
 31
0.0
  0
LINE
  5
AA
330
17
100
AcDbEntity
  8
BOUNDARY
100
AcDbLine
 10
447.6143901925441
 20
45.29999999999999
 30
0.0
 11
447.40858831446906
 21
45.499999999999986
 31
0.0
  0
LINE
  5
AB
330
17
100
AcDbEntity
  8
BOUNDARY
100
AcDbLine
 10
451.1129005401399
 20
45.5
 30
0.0
 11
453.0273554425037
 21
45.5
 31
0.0
  0
LINE
  5
AC
330
17
100
AcDbEntity
  8
BOUNDARY
100
AcDbLine
 10
451.1129005401399
 20
45.5
 30
0.0
 11
450.90709866206487
 21
45.3
 31
0.0
  0
LINE
  5
AD
330
17
100
AcDbEntity
  8
BOUNDARY
100
AcDbLine
 10
516.9726445574963
 20
45.5
 30
0.0
 11
518.8870994598601
 21
45.5
 31
0.0
  0
LINE
  5
AE
330
17
100
AcDbEntity
  8
BOUNDARY
100
AcDbLine
 10
519.0929013379351
 20
45.3
 30
0.0
 11
518.8870994598601
 21
45.499999999999986
 31
0.0
  0
LINE
  5
AF
330
17
100
AcDbEntity
  8
BOUNDARY
100
AcDbLine
 10
522.5914116855309
 20
45.49999999999999
 30
0.0
 11
522.3856098074559
 21
45.3
 31
0.0
  0
LINE
  5
B0
330
17
100
AcDbEntity
  8
BOUNDARY
100
AcDbLine
 10
548.0
 20
-31.448370387032774
 30
0.0
 11
540.0
 21
-31.448370387032774
 31
0.0
  0
LINE
  5
B1
330
17
100
AcDbEntity
  8
BOUNDARY
100
AcDbLine
 10
548.0
 20
31.448370387032774
 30
0.0
 11
540.0
 21
31.448370387032774
 31
0.0
  0
LINE
  5
B2
330
17
100
AcDbEntity
  8
BOUNDARY
100
AcDbLine
 10
539.7
 20
-22.36626924634505
 30
0.0
 11
539.7
 21
22.36626924634504
 31
0.0
  0
LINE
  5
B3
330
17
100
AcDbEntity
  8
BOUNDARY
100
AcDbLine
 10
540.0
 20
-22.36626924634504
 30
0.0
 11
539.7
 21
-22.36626924634504
 31
0.0
  0
LINE
  5
B4
330
17
100
AcDbEntity
  8
BOUNDARY
100
AcDbLine
 10
540.0
 20
22.36626924634504
 30
0.0
 11
539.7
 21
22.36626924634504
 31
0.0
  0
LINE
  5
B5
330
17
100
AcDbEntity
  8
BOUNDARY
100
AcDbLine
 10
533.6
 20
25.29659477844923
 30
0.0
 11
533.5656273336477
 21
25.164794533561434
 31
0.0
  0
LINE
  5
B6
330
17
100
AcDbEntity
  8
BOUNDARY
100
AcDbLine
 10
533.5656273336477
 20
25.164794533561434
 30
0.0
 11
533.5210222062631
 21
25.02996337340425
 31
0.0
  0
LINE
  5
B7
330
17
100
AcDbEntity
  8
BOUNDARY
100
AcDbLine
 10
533.5210222062631
 20
25.02996337340425
 30
0.0
 11
533.4659214562791
 21
24.891305820385657
 31
0.0
  0
LINE
  5
B8
330
17
100
AcDbEntity
  8
BOUNDARY
100
AcDbLine
 10
533.4659214562791
 20
24.891305820385657
 30
0.0
 11
533.4
 21
24.748003821940806
 31
0.0
  0
LINE
  5
B9
330
17
100
AcDbEntity
  8
BOUNDARY
100
AcDbLine
 10
533.4
 20
26.609048057997487
 30
0.0
 11
533.4659214562791
 21
26.46574605955263
 31
0.0
  0
LINE
  5
BA
330
17
100
AcDbEntity
  8
BOUNDARY
100
AcDbLine
 10
533.4659214562791
 20
26.46574605955263
 30
0.0
 11
533.5210222062631
 21
26.32708850653404
 31
0.0
  0
LINE
  5
BB
330
17
100
AcDbEntity
  8
BOUNDARY
100
AcDbLine
 10
533.5210222062631
 20
26.32708850653404
 30
0.0
 11
533.5656273336477
 21
26.192257346376852
 31
0.0
  0
LINE
  5
BC
330
17
100
AcDbEntity
  8
BOUNDARY
100
AcDbLine
 10
533.5656273336477
 20
26.192257346376852
 30
0.0
 11
533.6
 21
26.060457101489057
 31
0.0
  0
LINE
  5
BD
330
17
100
AcDbEntity
  8
BOUNDARY
100
AcDbLine
 10
548.0
 20
-31.448370387032778
 30
0.0
 11
548.0
 21
-28.602272636977645
 31
0.0
  0
LINE
  5
BE
330
17
100
AcDbEntity
  8
BOUNDARY
100
AcDbLine
 10
548.0
 20
28.602272636977645
 30
0.0
 11
548.0
 21
31.448370387032774
 31
0.0
  0
LINE
  5
BF
330
17
100
AcDbEntity
  8
BOUNDARY
100
AcDbLine
 10
540.0
 20
22.66969847039633
 30
0.0
 11
539.5
 21
22.66969847039633
 31
0.0
  0
LINE
  5
C0
330
17
100
AcDbEntity
  8
BOUNDARY
100
AcDbLine
 10
540.0
 20
22.36626924634504
 30
0.0
 11
540.0
 21
22.66969847039633
 31
0.0
  0
LINE
  5
C1
330
17
100
AcDbEntity
  8
BOUNDARY
100
AcDbLine
 10
539.5
 20
22.66969847039633
 30
0.0
 11
539.5
 21
25.29659477844923
 31
0.0
  0
LINE
  5
C2
330
17
100
AcDbEntity
  8
BOUNDARY
100
AcDbLine
 10
540.0
 20
-28.178183050012297
 30
0.0
 11
540.0
 21
-22.36626924634505
 31
0.0
  0
LINE
  5
C3
330
17
100
AcDbEntity
  8
BOUNDARY
100
AcDbLine
 10
540.0
 20
26.060457101489057
 30
0.0
 11
533.6
 21
26.060457101489057
 31
0.0
  0
LINE
  5
C4
330
17
100
AcDbEntity
  8
BOUNDARY
100
AcDbLine
 10
539.5
 20
25.296594778449233
 30
0.0
 11
533.6
 21
25.296594778449233
 31
0.0
  0
LINE
  5
C5
330
17
100
AcDbEntity
  8
BOUNDARY
100
AcDbLine
 10
548.0
 20
-28.602272636977652
 30
0.0
 11
547.7
 21
-28.284271247461973
 31
0.0
  0
LINE
  5
C6
330
17
100
AcDbEntity
  8
BOUNDARY
100
AcDbLine
 10
547.7
 20
28.28427124746191
 30
0.0
 11
548.0
 21
28.602272636977585
 31
0.0
  0
LINE
  5
C7
330
17
100
AcDbEntity
  8
BOUNDARY
100
AcDbLine
 10
540.1
 20
-28.284271247461906
 30
0.0
 11
540.0995862644684
 21
-28.284270339654398
 31
0.0
  0
LINE
  5
C8
330
17
100
AcDbEntity
  8
BOUNDARY
100
AcDbLine
 10
540.0995862644684
 20
-28.284270339654398
 30
0.0
 11
540.0991150359415
 21
-28.284267094040096
 31
0.0
  0
LINE
  5
C9
330
17
100
AcDbEntity
  8
BOUNDARY
100
AcDbLine
 10
540.0991150359415
 20
-28.284267094040096
 30
0.0
 11
540.0986438270667
 21
-28.284261493155594
 31
0.0
  0
LINE
  5
CA
330
17
100
AcDbEntity
  8
BOUNDARY
100
AcDbLine
 10
540.0986438270667
 20
-28.284261493155594
 30
0.0
 11
540.0981726483078
 21
-28.284253537125124
 31
0.0
  0
LINE
  5
CB
330
17
100
AcDbEntity
  8
BOUNDARY
100
AcDbLine
 10
540.0981726483078
 20
-28.284253537125124
 30
0.0
 11
540.0977015101281
 21
-28.284243226125128
 31
0.0
  0
LINE
  5
CC
330
17
100
AcDbEntity
  8
BOUNDARY
100
AcDbLine
 10
540.0977015101281
 20
-28.284243226125128
 30
0.0
 11
540.09723042299
 21
-28.284230560384298
 31
0.0
  0
LINE
  5
CD
330
17
100
AcDbEntity
  8
BOUNDARY
100
AcDbLine
 10
540.09723042299
 20
-28.284230560384298
 30
0.0
 11
540.0967593973547
 21
-28.284215540183546
 31
0.0
  0
LINE
  5
CE
330
17
100
AcDbEntity
  8
BOUNDARY
100
AcDbLine
 10
540.0967593973547
 20
-28.284215540183546
 30
0.0
 11
540.0962884436822
 21
-28.284198165856004
 31
0.0
  0
LINE
  5
CF
330
17
100
AcDbEntity
  8
BOUNDARY
100
AcDbLine
 10
540.0962884436822
 20
-28.284198165856004
 30
0.0
 11
540.0958175724305
 21
-28.284178437787006
 31
0.0
  0
LINE
  5
D0
330
17
100
AcDbEntity
  8
BOUNDARY
100
AcDbLine
 10
540.0958175724305
 20
-28.284178437787006
 30
0.0
 11
540.0953467940561
 21
-28.28415635641411
 31
0.0
  0
LINE
  5
D1
330
17
100
AcDbEntity
  8
BOUNDARY
100
AcDbLine
 10
540.0953467940561
 20
-28.28415635641411
 30
0.0
 11
540.0948761190136
 21
-28.284131922227044
 31
0.0
  0
LINE
  5
D2
330
17
100
AcDbEntity
  8
BOUNDARY
100
AcDbLine
 10
540.0948761190136
 20
-28.284131922227044
 30
0.0
 11
540.0944055577548
 21
-28.284105135767735
 31
0.0
  0
LINE
  5
D3
330
17
100
AcDbEntity
  8
BOUNDARY
100
AcDbLine
 10
540.0944055577548
 20
-28.284105135767735
 30
0.0
 11
540.0939351207295
 21
-28.284075997630282
 31
0.0
  0
LINE
  5
D4
330
17
100
AcDbEntity
  8
BOUNDARY
100
AcDbLine
 10
540.0939351207295
 20
-28.284075997630282
 30
0.0
 11
540.0934648183842
 21
-28.284044508460923
 31
0.0
  0
LINE
  5
D5
330
17
100
AcDbEntity
  8
BOUNDARY
100
AcDbLine
 10
540.0934648183842
 20
-28.284044508460923
 30
0.0
 11
540.092994661163
 21
-28.284010668958064
 31
0.0
  0
LINE
  5
D6
330
17
100
AcDbEntity
  8
BOUNDARY
100
AcDbLine
 10
540.092994661163
 20
-28.284010668958064
 30
0.0
 11
540.0925246595062
 21
-28.28397447987221
 31
0.0
  0
LINE
  5
D7
330
17
100
AcDbEntity
  8
BOUNDARY
100
AcDbLine
 10
540.0925246595062
 20
-28.28397447987221
 30
0.0
 11
540.0920548238512
 21
-28.283935942006018
 31
0.0
  0
LINE
  5
D8
330
17
100
AcDbEntity
  8
BOUNDARY
100
AcDbLine
 10
540.0920548238512
 20
-28.283935942006018
 30
0.0
 11
540.0915851646313
 21
-28.2838950562142
 31
0.0
  0
LINE
  5
D9
330
17
100
AcDbEntity
  8
BOUNDARY
100
AcDbLine
 10
540.0915851646313
 20
-28.2838950562142
 30
0.0
 11
540.0911156922759
 21
-28.28385182340356
 31
0.0
  0
LINE
  5
DA
330
17
100
AcDbEntity
  8
BOUNDARY
100
AcDbLine
 10
540.0911156922759
 20
-28.28385182340356
 30
0.0
 11
540.0906464172106
 21
-28.28380624453295
 31
0.0
  0
LINE
  5
DB
330
17
100
AcDbEntity
  8
BOUNDARY
100
AcDbLine
 10
540.0906464172106
 20
-28.28380624453295
 30
0.0
 11
540.0901773498563
 21
-28.283758320613277
 31
0.0
  0
LINE
  5
DC
330
17
100
AcDbEntity
  8
BOUNDARY
100
AcDbLine
 10
540.0901773498563
 20
-28.283758320613277
 30
0.0
 11
540.0897085006293
 21
-28.28370805270743
 31
0.0
  0
LINE
  5
DD
330
17
100
AcDbEntity
  8
BOUNDARY
100
AcDbLine
 10
540.0897085006293
 20
-28.28370805270743
 30
0.0
 11
540.0892398799411
 21
-28.2836554419303
 31
0.0
  0
LINE
  5
DE
330
17
100
AcDbEntity
  8
BOUNDARY
100
AcDbLine
 10
540.0892398799411
 20
-28.2836554419303
 30
0.0
 11
540.0887714981984
 21
-28.28360048944873
 31
0.0
  0
LINE
  5
DF
330
17
100
AcDbEntity
  8
BOUNDARY
100
AcDbLine
 10
540.0887714981984
 20
-28.28360048944873
 30
0.0
 11
540.0883033658022
 21
-28.28354319648153
 31
0.0
  0
LINE
  5
E0
330
17
100
AcDbEntity
  8
BOUNDARY
100
AcDbLine
 10
540.0883033658022
 20
-28.28354319648153
 30
0.0
 11
540.087835493148
 21
-28.28348356429939
 31
0.0
  0
LINE
  5
E1
330
17
100
AcDbEntity
  8
BOUNDARY
100
AcDbLine
 10
540.087835493148
 20
-28.28348356429939
 30
0.0
 11
540.0873678906258
 21
-28.283421594224894
 31
0.0
  0
LINE
  5
E2
330
17
100
AcDbEntity
  8
BOUNDARY
100
AcDbLine
 10
540.0873678906258
 20
-28.283421594224894
 30
0.0
 11
540.0869005686194
 21
-28.283357287632462
 31
0.0
  0
LINE
  5
E3
330
17
100
AcDbEntity
  8
BOUNDARY
100
AcDbLine
 10
540.0869005686194
 20
-28.283357287632462
 30
0.0
 11
540.0864335375065
 21
-28.283290645948377
 31
0.0
  0
LINE
  5
E4
330
17
100
AcDbEntity
  8
BOUNDARY
100
AcDbLine
 10
540.0864335375065
 20
-28.283290645948377
 30
0.0
 11
540.0859668076581
 21
-28.28322167065068
 31
0.0
  0
LINE
  5
E5
330
17
100
AcDbEntity
  8
BOUNDARY
100
AcDbLine
 10
540.0859668076581
 20
-28.28322167065068
 30
0.0
 11
540.0855003894388
 21
-28.28315036326917
 31
0.0
  0
LINE
  5
E6
330
17
100
AcDbEntity
  8
BOUNDARY
100
AcDbLine
 10
540.0855003894388
 20
-28.28315036326917
 30
0.0
 11
540.0850342932061
 21
-28.283076725385396
 31
0.0
  0
LINE
  5
E7
330
17
100
AcDbEntity
  8
BOUNDARY
100
AcDbLine
 10
540.0850342932061
 20
-28.283076725385396
 30
0.0
 11
540.0845685293104
 21
-28.283000758632557
 31
0.0
  0
LINE
  5
E8
330
17
100
AcDbEntity
  8
BOUNDARY
100
AcDbLine
 10
540.0845685293104
 20
-28.283000758632557
 30
0.0
 11
540.0841031080947
 21
-28.28292246469556
 31
0.0
  0
LINE
  5
E9
330
17
100
AcDbEntity
  8
BOUNDARY
100
AcDbLine
 10
540.0841031080947
 20
-28.28292246469556
 30
0.0
 11
540.0836380398945
 21
-28.282841845310873
 31
0.0
  0
LINE
  5
EA
330
17
100
AcDbEntity
  8
BOUNDARY
100
AcDbLine
 10
540.0836380398945
 20
-28.282841845310873
 30
0.0
 11
540.0831733350373
 21
-28.282758902266583
 31
0.0
  0
LINE
  5
EB
330
17
100
AcDbEntity
  8
BOUNDARY
100
AcDbLine
 10
540.0831733350373
 20
-28.282758902266583
 30
0.0
 11
540.0827090038424
 21
-28.282673637402276
 31
0.0
  0
LINE
  5
EC
330
17
100
AcDbEntity
  8
BOUNDARY
100
AcDbLine
 10
540.0827090038424
 20
-28.282673637402276
 30
0.0
 11
540.0822450566213
 21
-28.282586052609084
 31
0.0
  0
LINE
  5
ED
330
17
100
AcDbEntity
  8
BOUNDARY
100
AcDbLine
 10
540.0822450566213
 20
-28.282586052609084
 30
0.0
 11
540.0817815036767
 21
-28.28249614982957
 31
0.0
  0
LINE
  5
EE
330
17
100
AcDbEntity
  8
BOUNDARY
100
AcDbLine
 10
540.0817815036767
 20
-28.28249614982957
 30
0.0
 11
540.0813183553023
 21
-28.282403931057694
 31
0.0
  0
LINE
  5
EF
330
17
100
AcDbEntity
  8
BOUNDARY
100
AcDbLine
 10
540.0813183553023
 20
-28.282403931057694
 30
0.0
 11
540.0808556217831
 21
-28.282309398338814
 31
0.0
  0
LINE
  5
F0
330
17
100
AcDbEntity
  8
BOUNDARY
100
AcDbLine
 10
540.0808556217831
 20
-28.282309398338814
 30
0.0
 11
540.0803933133949
 21
-28.282212553769597
 31
0.0
  0
LINE
  5
F1
330
17
100
AcDbEntity
  8
BOUNDARY
100
AcDbLine
 10
540.0803933133949
 20
-28.282212553769597
 30
0.0
 11
540.0799314404039
 21
-28.282113399497984
 31
0.0
  0
LINE
  5
F2
330
17
100
AcDbEntity
  8
BOUNDARY
100
AcDbLine
 10
540.0799314404039
 20
-28.282113399497984
 30
0.0
 11
540.0794700130667
 21
-28.282011937723162
 31
0.0
  0
LINE
  5
F3
330
17
100
AcDbEntity
  8
BOUNDARY
100
AcDbLine
 10
540.0794700130667
 20
-28.282011937723162
 30
0.0
 11
540.0790090416302
 21
-28.281908170695488
 31
0.0
  0
LINE
  5
F4
330
17
100
AcDbEntity
  8
BOUNDARY
100
AcDbLine
 10
540.0790090416302
 20
-28.281908170695488
 30
0.0
 11
540.0785485363308
 21
-28.28180210071644
 31
0.0
  0
LINE
  5
F5
330
17
100
AcDbEntity
  8
BOUNDARY
100
AcDbLine
 10
540.0785485363308
 20
-28.28180210071644
 30
0.0
 11
540.0780885073948
 21
-28.281693730138617
 31
0.0
  0
LINE
  5
F6
330
17
100
AcDbEntity
  8
BOUNDARY
100
AcDbLine
 10
540.0780885073948
 20
-28.281693730138617
 30
0.0
 11
540.0776289650379
 21
-28.281583061365595
 31
0.0
  0
LINE
  5
F7
330
17
100
AcDbEntity
  8
BOUNDARY
100
AcDbLine
 10
540.0776289650379
 20
-28.281583061365595
 30
0.0
 11
540.077169919465
 21
-28.28147009685196
 31
0.0
  0
LINE
  5
F8
330
17
100
AcDbEntity
  8
BOUNDARY
100
AcDbLine
 10
540.077169919465
 20
-28.28147009685196
 30
0.0
 11
540.0767113808697
 21
-28.281354839103212
 31
0.0
  0
LINE
  5
F9
330
17
100
AcDbEntity
  8
BOUNDARY
100
AcDbLine
 10
540.0767113808697
 20
-28.281354839103212
 30
0.0
 11
540.0762533594348
 21
-28.281237290675715
 31
0.0
  0
LINE
  5
FA
330
17
100
AcDbEntity
  8
BOUNDARY
100
AcDbLine
 10
540.0762533594348
 20
-28.281237290675715
 30
0.0
 11
540.0757958653313
 21
-28.28111745417665
 31
0.0
  0
LINE
  5
FB
330
17
100
AcDbEntity
  8
BOUNDARY
100
AcDbLine
 10
540.0757958653313
 20
-28.28111745417665
 30
0.0
 11
540.0753389087185
 21
-28.280995332263924
 31
0.0
  0
LINE
  5
FC
330
17
100
AcDbEntity
  8
BOUNDARY
100
AcDbLine
 10
540.0753389087185
 20
-28.280995332263924
 30
0.0
 11
540.074882499744
 21
-28.280870927646166
 31
0.0
  0
LINE
  5
FD
330
17
100
AcDbEntity
  8
BOUNDARY
100
AcDbLine
 10
540.074882499744
 20
-28.280870927646166
 30
0.0
 11
540.0744266485431
 21
-28.280744243082637
 31
0.0
  0
LINE
  5
FE
330
17
100
AcDbEntity
  8
BOUNDARY
100
AcDbLine
 10
540.0744266485431
 20
-28.280744243082637
 30
0.0
 11
540.0739713652384
 21
-28.28061528138316
 31
0.0
  0
LINE
  5
FF
330
17
100
AcDbEntity
  8
BOUNDARY
100
AcDbLine
 10
540.0739713652384
 20
-28.28061528138316
 30
0.0
 11
540.0735166599405
 21
-28.28048404540806
 31
0.0
  0
LINE
  5
100
330
17
100
AcDbEntity
  8
BOUNDARY
100
AcDbLine
 10
540.0735166599405
 20
-28.28048404540806
 30
0.0
 11
540.0730625427467
 21
-28.280350538068134
 31
0.0
  0
LINE
  5
101
330
17
100
AcDbEntity
  8
BOUNDARY
100
AcDbLine
 10
540.0730625427467
 20
-28.280350538068134
 30
0.0
 11
540.0726090237414
 21
-28.280214762324537
 31
0.0
  0
LINE
  5
102
330
17
100
AcDbEntity
  8
BOUNDARY
100
AcDbLine
 10
540.0726090237414
 20
-28.280214762324537
 30
0.0
 11
540.0721561129957
 21
-28.280076721188763
 31
0.0
  0
LINE
  5
103
330
17
100
AcDbEntity
  8
BOUNDARY
100
AcDbLine
 10
540.0721561129957
 20
-28.280076721188763
 30
0.0
 11
540.0717038205671
 21
-28.27993641772255
 31
0.0
  0
LINE
  5
104
330
17
100
AcDbEntity
  8
BOUNDARY
100
AcDbLine
 10
540.0717038205671
 20
-28.27993641772255
 30
0.0
 11
540.0712521564997
 21
-28.279793855037795
 31
0.0
  0
LINE
  5
105
330
17
100
AcDbEntity
  8
BOUNDARY
100
AcDbLine
 10
540.0712521564997
 20
-28.279793855037795
 30
0.0
 11
540.0708011308232
 21
-28.279649036296544
 31
0.0
  0
LINE
  5
106
330
17
100
AcDbEntity
  8
BOUNDARY
100
AcDbLine
 10
540.0708011308232
 20
-28.279649036296544
 30
0.0
 11
540.0703507535534
 21
-28.279501964710878
 31
0.0
  0
LINE
  5
107
330
17
100
AcDbEntity
  8
BOUNDARY
100
AcDbLine
 10
540.0703507535534
 20
-28.279501964710878
 30
0.0
 11
540.0699010346916
 21
-28.279352643542847
 31
0.0
  0
LINE
  5
108
330
17
100
AcDbEntity
  8
BOUNDARY
100
AcDbLine
 10
540.0699010346916
 20
-28.279352643542847
 30
0.0
 11
540.0694519842245
 21
-28.279201076104393
 31
0.0
  0
LINE
  5
109
330
17
100
AcDbEntity
  8
BOUNDARY
100
AcDbLine
 10
540.0694519842245
 20
-28.279201076104393
 30
0.0
 11
540.0690036121242
 21
-28.2790472657573
 31
0.0
  0
LINE
  5
10A
330
17
100
AcDbEntity
  8
BOUNDARY
100
AcDbLine
 10
540.0690036121242
 20
-28.2790472657573
 30
0.0
 11
540.0685559283472
 21
-28.27889121591311
 31
0.0
  0
LINE
  5
10B
330
17
100
AcDbEntity
  8
BOUNDARY
100
AcDbLine
 10
540.0685559283472
 20
-28.27889121591311
 30
0.0
 11
540.0681089428351
 21
-28.278732930033026
 31
0.0
  0
LINE
  5
10C
330
17
100
AcDbEntity
  8
BOUNDARY
100
AcDbLine
 10
540.0681089428351
 20
-28.278732930033026
 30
0.0
 11
540.067662665514
 21
-28.27857241162787
 31
0.0
  0
LINE
  5
10D
330
17
100
AcDbEntity
  8
BOUNDARY
100
AcDbLine
 10
540.067662665514
 20
-28.27857241162787
 30
0.0
 11
540.0672171062943
 21
-28.278409664257975
 31
0.0
  0
LINE
  5
10E
330
17
100
AcDbEntity
  8
BOUNDARY
100
AcDbLine
 10
540.0672171062943
 20
-28.278409664257975
 30
0.0
 11
540.06677227507
 21
-28.27824469153313
 31
0.0
  0
LINE
  5
10F
330
17
100
AcDbEntity
  8
BOUNDARY
100
AcDbLine
 10
540.06677227507
 20
-28.27824469153313
 30
0.0
 11
540.0663281817194
 21
-28.27807749711248
 31
0.0
  0
LINE
  5
110
330
17
100
AcDbEntity
  8
BOUNDARY
100
AcDbLine
 10
540.0663281817194
 20
-28.27807749711248
 30
0.0
 11
540.0658848361045
 21
-28.277908084704467
 31
0.0
  0
LINE
  5
111
330
17
100
AcDbEntity
  8
BOUNDARY
100
AcDbLine
 10
540.0658848361045
 20
-28.277908084704467
 30
0.0
 11
540.0654422480703
 21
-28.277736458066737
 31
0.0
  0
LINE
  5
112
330
17
100
AcDbEntity
  8
BOUNDARY
100
AcDbLine
 10
540.0654422480703
 20
-28.277736458066737
 30
0.0
 11
540.0650004274452
 21
-28.277562621006034
 31
0.0
  0
LINE
  5
113
330
17
100
AcDbEntity
  8
BOUNDARY
100
AcDbLine
 10
540.0650004274452
 20
-28.277562621006034
 30
0.0
 11
540.0645593840405
 21
-28.27738657737816
 31
0.0
  0
LINE
  5
114
330
17
100
AcDbEntity
  8
BOUNDARY
100
AcDbLine
 10
540.0645593840405
 20
-28.27738657737816
 30
0.0
 11
540.0641191276503
 21
-28.277208331087873
 31
0.0
  0
LINE
  5
115
330
17
100
AcDbEntity
  8
BOUNDARY
100
AcDbLine
 10
540.0641191276503
 20
-28.277208331087873
 30
0.0
 11
540.0636796680511
 21
-28.277027886088764
 31
0.0
  0
LINE
  5
116
330
17
100
AcDbEntity
  8
BOUNDARY
100
AcDbLine
 10
540.0636796680511
 20
-28.277027886088764
 30
0.0
 11
540.063241015002
 21
-28.276845246383225
 31
0.0
  0
LINE
  5
117
330
17
100
AcDbEntity
  8
BOUNDARY
100
AcDbLine
 10
540.063241015002
 20
-28.276845246383225
 30
0.0
 11
540.0628031782436
 21
-28.27666041602233
 31
0.0
  0
LINE
  5
118
330
17
100
AcDbEntity
  8
BOUNDARY
100
AcDbLine
 10
540.0628031782436
 20
-28.27666041602233
 30
0.0
 11
540.0623661674991
 21
-28.27647339910577
 31
0.0
  0
LINE
  5
119
330
17
100
AcDbEntity
  8
BOUNDARY
100
AcDbLine
 10
540.0623661674991
 20
-28.27647339910577
 30
0.0
 11
540.061929992473
 21
-28.276284199781717
 31
0.0
  0
LINE
  5
11A
330
17
100
AcDbEntity
  8
BOUNDARY
100
AcDbLine
 10
540.061929992473
 20
-28.276284199781717
 30
0.0
 11
540.061494662851
 21
-28.27609282224677
 31
0.0
  0
LINE
  5
11B
330
17
100
AcDbEntity
  8
BOUNDARY
100
AcDbLine
 10
540.061494662851
 20
-28.27609282224677
 30
0.0
 11
540.0610601883005
 21
-28.27589927074586
 31
0.0
  0
LINE
  5
11C
330
17
100
AcDbEntity
  8
BOUNDARY
100
AcDbLine
 10
540.0610601883005
 20
-28.27589927074586
 30
0.0
 11
540.0606265784695
 21
-28.27570354957214
 31
0.0
  0
LINE
  5
11D
330
17
100
AcDbEntity
  8
BOUNDARY
100
AcDbLine
 10
540.0606265784695
 20
-28.27570354957214
 30
0.0
 11
540.0601938429872
 21
-28.275505663066888
 31
0.0
  0
LINE
  5
11E
330
17
100
AcDbEntity
  8
BOUNDARY
100
AcDbLine
 10
540.0601938429872
 20
-28.275505663066888
 30
0.0
 11
540.059761991463
 21
-28.27530561561943
 31
0.0
  0
LINE
  5
11F
330
17
100
AcDbEntity
  8
BOUNDARY
100
AcDbLine
 10
540.059761991463
 20
-28.27530561561943
 30
0.0
 11
540.059331033487
 21
-28.275103411667057
 31
0.0
  0
LINE
  5
120
330
17
100
AcDbEntity
  8
BOUNDARY
100
AcDbLine
 10
540.059331033487
 20
-28.275103411667057
 30
0.0
 11
540.0589009786291
 21
-28.274899055694874
 31
0.0
  0
LINE
  5
121
330
17
100
AcDbEntity
  8
BOUNDARY
100
AcDbLine
 10
540.0589009786291
 20
-28.274899055694874
 30
0.0
 11
540.0584718364395
 21
-28.274692552235734
 31
0.0
  0
LINE
  5
122
330
17
100
AcDbEntity
  8
BOUNDARY
100
AcDbLine
 10
540.0584718364395
 20
-28.274692552235734
 30
0.0
 11
540.0580436164479
 21
-28.27448390587015
 31
0.0
  0
LINE
  5
123
330
17
100
AcDbEntity
  8
BOUNDARY
100
AcDbLine
 10
540.0580436164479
 20
-28.27448390587015
 30
0.0
 11
540.0576163281637
 21
-28.274273121226173
 31
0.0
  0
LINE
  5
124
330
17
100
AcDbEntity
  8
BOUNDARY
100
AcDbLine
 10
540.0576163281637
 20
-28.274273121226173
 30
0.0
 11
540.0571899810753
 21
-28.274060202979285
 31
0.0
  0
LINE
  5
125
330
17
100
AcDbEntity
  8
BOUNDARY
100
AcDbLine
 10
540.0571899810753
 20
-28.274060202979285
 30
0.0
 11
540.0567645846506
 21
-28.273845155852314
 31
0.0
  0
LINE
  5
126
330
17
100
AcDbEntity
  8
BOUNDARY
100
AcDbLine
 10
540.0567645846506
 20
-28.273845155852314
 30
0.0
 11
540.0563401483362
 21
-28.273627984615324
 31
0.0
  0
LINE
  5
127
330
17
100
AcDbEntity
  8
BOUNDARY
100
AcDbLine
 10
540.0563401483362
 20
-28.273627984615324
 30
0.0
 11
540.0559166815572
 21
-28.273408694085493
 31
0.0
  0
LINE
  5
128
330
17
100
AcDbEntity
  8
BOUNDARY
100
AcDbLine
 10
540.0559166815572
 20
-28.273408694085493
 30
0.0
 11
540.0554941937174
 21
-28.27318728912704
 31
0.0
  0
LINE
  5
129
330
17
100
AcDbEntity
  8
BOUNDARY
100
AcDbLine
 10
540.0554941937174
 20
-28.27318728912704
 30
0.0
 11
540.0550726941989
 21
-28.27296377465109
 31
0.0
  0
LINE
  5
12A
330
17
100
AcDbEntity
  8
BOUNDARY
100
AcDbLine
 10
540.0550726941989
 20
-28.27296377465109
 30
0.0
 11
540.0546521923618
 21
-28.272738155615567
 31
0.0
  0
LINE
  5
12B
330
17
100
AcDbEntity
  8
BOUNDARY
100
AcDbLine
 10
540.0546521923618
 20
-28.272738155615567
 30
0.0
 11
540.0542326975437
 21
-28.2725104370251
 31
0.0
  0
LINE
  5
12C
330
17
100
AcDbEntity
  8
BOUNDARY
100
AcDbLine
 10
540.0542326975437
 20
-28.2725104370251
 30
0.0
 11
540.0538142190605
 21
-28.2722806239309
 31
0.0
  0
LINE
  5
12D
330
17
100
AcDbEntity
  8
BOUNDARY
100
AcDbLine
 10
540.0538142190605
 20
-28.2722806239309
 30
0.0
 11
540.0533967662051
 21
-28.272048721430643
 31
0.0
  0
LINE
  5
12E
330
17
100
AcDbEntity
  8
BOUNDARY
100
AcDbLine
 10
540.0533967662051
 20
-28.272048721430643
 30
0.0
 11
540.0529803482475
 21
-28.271814734668375
 31
0.0
  0
LINE
  5
12F
330
17
100
AcDbEntity
  8
BOUNDARY
100
AcDbLine
 10
540.0529803482475
 20
-28.271814734668375
 30
0.0
 11
540.0525649744351
 21
-28.2715786688344
 31
0.0
  0
LINE
  5
130
330
17
100
AcDbEntity
  8
BOUNDARY
100
AcDbLine
 10
540.0525649744351
 20
-28.2715786688344
 30
0.0
 11
540.0521506539917
 21
-28.271340529165123
 31
0.0
  0
LINE
  5
131
330
17
100
AcDbEntity
  8
BOUNDARY
100
AcDbLine
 10
540.0521506539917
 20
-28.271340529165123
 30
0.0
 11
540.0517373961183
 21
-28.271100320943
 31
0.0
  0
LINE
  5
132
330
17
100
AcDbEntity
  8
BOUNDARY
100
AcDbLine
 10
540.0517373961183
 20
-28.271100320943
 30
0.0
 11
540.0513252099917
 21
-28.270858049496358
 31
0.0
  0
LINE
  5
133
330
17
100
AcDbEntity
  8
BOUNDARY
100
AcDbLine
 10
540.0513252099917
 20
-28.270858049496358
 30
0.0
 11
540.0509141047651
 21
-28.270613720199318
 31
0.0
  0
LINE
  5
134
330
17
100
AcDbEntity
  8
BOUNDARY
100
AcDbLine
 10
540.0509141047651
 20
-28.270613720199318
 30
0.0
 11
540.0505040895678
 21
-28.270367338471683
 31
0.0
  0
LINE
  5
135
330
17
100
AcDbEntity
  8
BOUNDARY
100
AcDbLine
 10
540.0505040895678
 20
-28.270367338471683
 30
0.0
 11
540.0500951735048
 21
-28.270118909778756
 31
0.0
  0
LINE
  5
136
330
17
100
AcDbEntity
  8
BOUNDARY
100
AcDbLine
 10
540.0500951735048
 20
-28.270118909778756
 30
0.0
 11
540.0496873656568
 21
-28.269868439631292
 31
0.0
  0
LINE
  5
137
330
17
100
AcDbEntity
  8
BOUNDARY
100
AcDbLine
 10
540.0496873656568
 20
-28.269868439631292
 30
0.0
 11
540.0492806750799
 21
-28.26961593358536
 31
0.0
  0
LINE
  5
138
330
17
100
AcDbEntity
  8
BOUNDARY
100
AcDbLine
 10
540.0492806750799
 20
-28.26961593358536
 30
0.0
 11
540.048875110805
 21
-28.26936139724218
 31
0.0
  0
LINE
  5
139
330
17
100
AcDbEntity
  8
BOUNDARY
100
AcDbLine
 10
540.048875110805
 20
-28.26936139724218
 30
0.0
 11
540.0484706818386
 21
-28.26910483624802
 31
0.0
  0
LINE
  5
13A
330
17
100
AcDbEntity
  8
BOUNDARY
100
AcDbLine
 10
540.0484706818386
 20
-28.26910483624802
 30
0.0
 11
540.0480673971615
 21
-28.268846256294104
 31
0.0
  0
LINE
  5
13B
330
17
100
AcDbEntity
  8
BOUNDARY
100
AcDbLine
 10
540.0480673971615
 20
-28.268846256294104
 30
0.0
 11
540.0476652657293
 21
-28.268585663116443
 31
0.0
  0
LINE
  5
13C
330
17
100
AcDbEntity
  8
BOUNDARY
100
AcDbLine
 10
540.0476652657293
 20
-28.268585663116443
 30
0.0
 11
540.047264296472
 21
-28.268323062495725
 31
0.0
  0
LINE
  5
13D
330
17
100
AcDbEntity
  8
BOUNDARY
100
AcDbLine
 10
540.047264296472
 20
-28.268323062495725
 30
0.0
 11
540.0468644982938
 21
-28.268058460257194
 31
0.0
  0
LINE
  5
13E
330
17
100
AcDbEntity
  8
BOUNDARY
100
AcDbLine
 10
540.0468644982938
 20
-28.268058460257194
 30
0.0
 11
540.0464658800727
 21
-28.267791862270503
 31
0.0
  0
LINE
  5
13F
330
17
100
AcDbEntity
  8
BOUNDARY
100
AcDbLine
 10
540.0464658800727
 20
-28.267791862270503
 30
0.0
 11
540.0460684506606
 21
-28.26752327444961
 31
0.0
  0
LINE
  5
140
330
17
100
AcDbEntity
  8
BOUNDARY
100
AcDbLine
 10
540.0460684506606
 20
-28.26752327444961
 30
0.0
 11
540.0456722188834
 21
-28.26725270275261
 31
0.0
  0
LINE
  5
141
330
17
100
AcDbEntity
  8
BOUNDARY
100
AcDbLine
 10
540.0456722188834
 20
-28.26725270275261
 30
0.0
 11
540.0452771935396
 21
-28.26698015318164
 31
0.0
  0
LINE
  5
142
330
17
100
AcDbEntity
  8
BOUNDARY
100
AcDbLine
 10
540.0452771935396
 20
-28.26698015318164
 30
0.0
 11
540.0448833834017
 21
-28.266705631782738
 31
0.0
  0
LINE
  5
143
330
17
100
AcDbEntity
  8
BOUNDARY
100
AcDbLine
 10
540.0448833834017
 20
-28.266705631782738
 30
0.0
 11
540.0444907972147
 21
-28.26642914464569
 31
0.0
  0
LINE
  5
144
330
17
100
AcDbEntity
  8
BOUNDARY
100
AcDbLine
 10
540.0444907972147
 20
-28.26642914464569
 30
0.0
 11
540.0440994436966
 21
-28.266150697903907
 31
0.0
  0
LINE
  5
145
330
17
100
AcDbEntity
  8
BOUNDARY
100
AcDbLine
 10
540.0440994436966
 20
-28.266150697903907
 30
0.0
 11
540.0437093315381
 21
-28.26587029773431
 31
0.0
  0
LINE
  5
146
330
17
100
AcDbEntity
  8
BOUNDARY
100
AcDbLine
 10
540.0437093315381
 20
-28.26587029773431
 30
0.0
 11
540.0433204694023
 21
-28.265587950357137
 31
0.0
  0
LINE
  5
147
330
17
100
AcDbEntity
  8
BOUNDARY
100
AcDbLine
 10
540.0433204694023
 20
-28.265587950357137
 30
0.0
 11
540.0429328659242
 21
-28.265303662035887
 31
0.0
  0
LINE
  5
148
330
17
100
AcDbEntity
  8
BOUNDARY
100
AcDbLine
 10
540.0429328659242
 20
-28.265303662035887
 30
0.0
 11
540.0425465297114
 21
-28.265017439077102
 31
0.0
  0
LINE
  5
149
330
17
100
AcDbEntity
  8
BOUNDARY
100
AcDbLine
 10
540.0425465297114
 20
-28.265017439077102
 30
0.0
 11
540.042161469343
 21
-28.26472928783029
 31
0.0
  0
LINE
  5
14A
330
17
100
AcDbEntity
  8
BOUNDARY
100
AcDbLine
 10
540.042161469343
 20
-28.26472928783029
 30
0.0
 11
540.04177769337
 21
-28.264439214687727
 31
0.0
  0
LINE
  5
14B
330
17
100
AcDbEntity
  8
BOUNDARY
100
AcDbLine
 10
540.04177769337
 20
-28.264439214687727
 30
0.0
 11
540.0413952103146
 21
-28.26414722608437
 31
0.0
  0
LINE
  5
14C
330
17
100
AcDbEntity
  8
BOUNDARY
100
AcDbLine
 10
540.0413952103146
 20
-28.26414722608437
 30
0.0
 11
540.0410140286706
 21
-28.26385332849768
 31
0.0
  0
LINE
  5
14D
330
17
100
AcDbEntity
  8
BOUNDARY
100
AcDbLine
 10
540.0410140286706
 20
-28.26385332849768
 30
0.0
 11
540.0406341569025
 21
-28.263557528447485
 31
0.0
  0
LINE
  5
14E
330
17
100
AcDbEntity
  8
BOUNDARY
100
AcDbLine
 10
540.0406341569025
 20
-28.263557528447485
 30
0.0
 11
540.0402556034461
 21
-28.263259832495866
 31
0.0
  0
LINE
  5
14F
330
17
100
AcDbEntity
  8
BOUNDARY
100
AcDbLine
 10
540.0402556034461
 20
-28.263259832495866
 30
0.0
 11
540.0398783767077
 21
-28.262960247246934
 31
0.0
  0
LINE
  5
150
330
17
100
AcDbEntity
  8
BOUNDARY
100
AcDbLine
 10
540.0398783767077
 20
-28.262960247246934
 30
0.0
 11
540.0395024850644
 21
-28.262658779346786
 31
0.0
  0
LINE
  5
151
330
17
100
AcDbEntity
  8
BOUNDARY
100
AcDbLine
 10
540.0395024850644
 20
-28.262658779346786
 30
0.0
 11
540.0391279368633
 21
-28.262355435483293
 31
0.0
  0
LINE
  5
152
330
17
100
AcDbEntity
  8
BOUNDARY
100
AcDbLine
 10
540.0391279368633
 20
-28.262355435483293
 30
0.0
 11
540.0387547404218
 21
-28.26205022238596
 31
0.0
  0
LINE
  5
153
330
17
100
AcDbEntity
  8
BOUNDARY
100
AcDbLine
 10
540.0387547404218
 20
-28.26205022238596
 30
0.0
 11
540.0383829040275
 21
-28.26174314682577
 31
0.0
  0
LINE
  5
154
330
17
100
AcDbEntity
  8
BOUNDARY
100
AcDbLine
 10
540.0383829040275
 20
-28.26174314682577
 30
0.0
 11
540.0380124359373
 21
-28.26143421561508
 31
0.0
  0
LINE
  5
155
330
17
100
AcDbEntity
  8
BOUNDARY
100
AcDbLine
 10
540.0380124359373
 20
-28.26143421561508
 30
0.0
 11
540.0376433443782
 21
-28.26112343560741
 31
0.0
  0
LINE
  5
156
330
17
100
AcDbEntity
  8
BOUNDARY
100
AcDbLine
 10
540.0376433443782
 20
-28.26112343560741
 30
0.0
 11
540.0372756375466
 21
-28.26081081369736
 31
0.0
  0
LINE
  5
157
330
17
100
AcDbEntity
  8
BOUNDARY
100
AcDbLine
 10
540.0372756375466
 20
-28.26081081369736
 30
0.0
 11
540.0369093236078
 21
-28.260496356820354
 31
0.0
  0
LINE
  5
158
330
17
100
AcDbEntity
  8
BOUNDARY
100
AcDbLine
 10
540.0369093236078
 20
-28.260496356820354
 30
0.0
 11
540.0365444106965
 21
-28.260180071952608
 31
0.0
  0
LINE
  5
159
330
17
100
AcDbEntity
  8
BOUNDARY
100
AcDbLine
 10
540.0365444106965
 20
-28.260180071952608
 30
0.0
 11
540.0361809069161
 21
-28.25986196611089
 31
0.0
  0
LINE
  5
15A
330
17
100
AcDbEntity
  8
BOUNDARY
100
AcDbLine
 10
540.0361809069161
 20
-28.25986196611089
 30
0.0
 11
540.0358188203387
 21
-28.2595420463524
 31
0.0
  0
LINE
  5
15B
330
17
100
AcDbEntity
  8
BOUNDARY
100
AcDbLine
 10
540.0358188203387
 20
-28.2595420463524
 30
0.0
 11
540.0354581590052
 21
-28.259220319774595
 31
0.0
  0
LINE
  5
15C
330
17
100
AcDbEntity
  8
BOUNDARY
100
AcDbLine
 10
540.0354581590052
 20
-28.259220319774595
 30
0.0
 11
540.0350989309244
 21
-28.258896793515063
 31
0.0
  0
LINE
  5
15D
330
17
100
AcDbEntity
  8
BOUNDARY
100
AcDbLine
 10
540.0350989309244
 20
-28.258896793515063
 30
0.0
 11
540.0347411440738
 21
-28.258571474751324
 31
0.0
  0
LINE
  5
15E
330
17
100
AcDbEntity
  8
BOUNDARY
100
AcDbLine
 10
540.0347411440738
 20
-28.258571474751324
 30
0.0
 11
540.0343848063983
 21
-28.258244370700716
 31
0.0
  0
LINE
  5
15F
330
17
100
AcDbEntity
  8
BOUNDARY
100
AcDbLine
 10
540.0343848063983
 20
-28.258244370700716
 30
0.0
 11
540.0340299258112
 21
-28.257915488620185
 31
0.0
  0
LINE
  5
160
330
17
100
AcDbEntity
  8
BOUNDARY
100
AcDbLine
 10
540.0340299258112
 20
-28.257915488620185
 30
0.0
 11
540.0336765101931
 21
-28.25758483580618
 31
0.0
  0
LINE
  5
161
330
17
100
AcDbEntity
  8
BOUNDARY
100
AcDbLine
 10
540.0336765101931
 20
-28.25758483580618
 30
0.0
 11
540.0333245673921
 21
-28.25725241959443
 31
0.0
  0
LINE
  5
162
330
17
100
AcDbEntity
  8
BOUNDARY
100
AcDbLine
 10
540.0333245673921
 20
-28.25725241959443
 30
0.0
 11
540.0329741052237
 21
-28.256918247359845
 31
0.0
  0
LINE
  5
163
330
17
100
AcDbEntity
  8
BOUNDARY
100
AcDbLine
 10
540.0329741052237
 20
-28.256918247359845
 30
0.0
 11
540.0326251314705
 21
-28.256582326516316
 31
0.0
  0
LINE
  5
164
330
17
100
AcDbEntity
  8
BOUNDARY
100
AcDbLine
 10
540.0326251314705
 20
-28.256582326516316
 30
0.0
 11
540.0322776538819
 21
-28.256244664516547
 31
0.0
  0
LINE
  5
165
330
17
100
AcDbEntity
  8
BOUNDARY
100
AcDbLine
 10
540.0322776538819
 20
-28.256244664516547
 30
0.0
 11
540.0319316801742
 21
-28.255905268851897
 31
0.0
  0
LINE
  5
166
330
17
100
AcDbEntity
  8
BOUNDARY
100
AcDbLine
 10
540.0319316801742
 20
-28.255905268851897
 30
0.0
 11
540.0315872180304
 21
-28.255564147052233
 31
0.0
  0
LINE
  5
167
330
17
100
AcDbEntity
  8
BOUNDARY
100
AcDbLine
 10
540.0315872180304
 20
-28.255564147052233
 30
0.0
 11
540.0312442750998
 21
-28.255221306685733
 31
0.0
  0
LINE
  5
168
330
17
100
AcDbEntity
  8
BOUNDARY
100
AcDbLine
 10
540.0312442750998
 20
-28.255221306685733
 30
0.0
 11
540.0309028589978
 21
-28.254876755358758
 31
0.0
  0
LINE
  5
169
330
17
100
AcDbEntity
  8
BOUNDARY
100
AcDbLine
 10
540.0309028589978
 20
-28.254876755358758
 30
0.0
 11
540.0305629773063
 21
-28.25453050071563
 31
0.0
  0
LINE
  5
16A
330
17
100
AcDbEntity
  8
BOUNDARY
100
AcDbLine
 10
540.0305629773063
 20
-28.25453050071563
 30
0.0
 11
540.0302246375727
 21
-28.25418255043851
 31
0.0
  0
LINE
  5
16B
330
17
100
AcDbEntity
  8
BOUNDARY
100
AcDbLine
 10
540.0302246375727
 20
-28.25418255043851
 30
0.0
 11
540.0298878473106
 21
-28.253832912247216
 31
0.0
  0
LINE
  5
16C
330
17
100
AcDbEntity
  8
BOUNDARY
100
AcDbLine
 10
540.0298878473106
 20
-28.253832912247216
 30
0.0
 11
540.0295526139988
 21
-28.25348159389902
 31
0.0
  0
LINE
  5
16D
330
17
100
AcDbEntity
  8
BOUNDARY
100
AcDbLine
 10
540.0295526139988
 20
-28.25348159389902
 30
0.0
 11
540.0292189450818
 21
-28.25312860318854
 31
0.0
  0
LINE
  5
16E
330
17
100
AcDbEntity
  8
BOUNDARY
100
AcDbLine
 10
540.0292189450818
 20
-28.25312860318854
 30
0.0
 11
540.028886847969
 21
-28.25277394794749
 31
0.0
  0
LINE
  5
16F
330
17
100
AcDbEntity
  8
BOUNDARY
100
AcDbLine
 10
540.028886847969
 20
-28.25277394794749
 30
0.0
 11
540.0285563300355
 21
-28.252417636044576
 31
0.0
  0
LINE
  5
170
330
17
100
AcDbEntity
  8
BOUNDARY
100
AcDbLine
 10
540.0285563300355
 20
-28.252417636044576
 30
0.0
 11
540.0282273986206
 21
-28.252059675385283
 31
0.0
  0
LINE
  5
171
330
17
100
AcDbEntity
  8
BOUNDARY
100
AcDbLine
 10
540.0282273986206
 20
-28.252059675385283
 30
0.0
 11
540.0279000610291
 21
-28.251700073911717
 31
0.0
  0
LINE
  5
172
330
17
100
AcDbEntity
  8
BOUNDARY
100
AcDbLine
 10
540.0279000610291
 20
-28.251700073911717
 30
0.0
 11
540.0275743245297
 21
-28.251338839602404
 31
0.0
  0
LINE
  5
173
330
17
100
AcDbEntity
  8
BOUNDARY
100
AcDbLine
 10
540.0275743245297
 20
-28.251338839602404
 30
0.0
 11
540.027250196356
 21
-28.25097598047216
 31
0.0
  0
LINE
  5
174
330
17
100
AcDbEntity
  8
BOUNDARY
100
AcDbLine
 10
540.027250196356
 20
-28.25097598047216
 30
0.0
 11
540.0269276837059
 21
-28.250611504571864
 31
0.0
  0
LINE
  5
175
330
17
100
AcDbEntity
  8
BOUNDARY
100
AcDbLine
 10
540.0269276837059
 20
-28.250611504571864
 30
0.0
 11
540.0266067937413
 21
-28.2502454199883
 31
0.0
  0
LINE
  5
176
330
17
100
AcDbEntity
  8
BOUNDARY
100
AcDbLine
 10
540.0266067937413
 20
-28.2502454199883
 30
0.0
 11
540.0262875335878
 21
-28.249877734843995
 31
0.0
  0
LINE
  5
177
330
17
100
AcDbEntity
  8
BOUNDARY
100
AcDbLine
 10
540.0262875335878
 20
-28.249877734843995
 30
0.0
 11
540.0259699103354
 21
-28.24950845729701
 31
0.0
  0
LINE
  5
178
330
17
100
AcDbEntity
  8
BOUNDARY
100
AcDbLine
 10
540.0259699103354
 20
-28.24950845729701
 30
0.0
 11
540.0256539310373
 21
-28.249137595540784
 31
0.0
  0
LINE
  5
179
330
17
100
AcDbEntity
  8
BOUNDARY
100
AcDbLine
 10
540.0256539310373
 20
-28.249137595540784
 30
0.0
 11
540.0253396027102
 21
-28.248765157803923
 31
0.0
  0
LINE
  5
17A
330
17
100
AcDbEntity
  8
BOUNDARY
100
AcDbLine
 10
540.0253396027102
 20
-28.248765157803923
 30
0.0
 11
540.0250269323344
 21
-28.248391152350063
 31
0.0
  0
LINE
  5
17B
330
17
100
AcDbEntity
  8
BOUNDARY
100
AcDbLine
 10
540.0250269323344
 20
-28.248391152350063
 30
0.0
 11
540.0247159268531
 21
-28.248015587477642
 31
0.0
  0
LINE
  5
17C
330
17
100
AcDbEntity
  8
BOUNDARY
100
AcDbLine
 10
540.0247159268531
 20
-28.248015587477642
 30
0.0
 11
540.0244065931729
 21
-28.24763847151973
 31
0.0
  0
LINE
  5
17D
330
17
100
AcDbEntity
  8
BOUNDARY
100
AcDbLine
 10
540.0244065931729
 20
-28.24763847151973
 30
0.0
 11
540.0240989381628
 21
-28.247259812843872
 31
0.0
  0
LINE
  5
17E
330
17
100
AcDbEntity
  8
BOUNDARY
100
AcDbLine
 10
540.0240989381628
 20
-28.247259812843872
 30
0.0
 11
540.0237929686548
 21
-28.246879619851867
 31
0.0
  0
LINE
  5
17F
330
17
100
AcDbEntity
  8
BOUNDARY
100
AcDbLine
 10
540.0237929686548
 20
-28.246879619851867
 30
0.0
 11
540.0234886914435
 21
-28.246497900979584
 31
0.0
  0
LINE
  5
180
330
17
100
AcDbEntity
  8
BOUNDARY
100
AcDbLine
 10
540.0234886914435
 20
-28.246497900979584
 30
0.0
 11
540.0231861132859
 21
-28.246114664696798
 31
0.0
  0
LINE
  5
181
330
17
100
AcDbEntity
  8
BOUNDARY
100
AcDbLine
 10
540.0231861132859
 20
-28.246114664696798
 30
0.0
 11
540.0228852409011
 21
-28.245729919507014
 31
0.0
  0
LINE
  5
182
330
17
100
AcDbEntity
  8
BOUNDARY
100
AcDbLine
 10
540.0228852409011
 20
-28.245729919507014
 30
0.0
 11
540.0225860809705
 21
-28.245343673947193
 31
0.0
  0
LINE
  5
183
330
17
100
AcDbEntity
  8
BOUNDARY
100
AcDbLine
 10
540.0225860809705
 20
-28.245343673947193
 30
0.0
 11
540.0222886401375
 21
-28.24495593658771
 31
0.0
  0
LINE
  5
184
330
17
100
AcDbEntity
  8
BOUNDARY
100
AcDbLine
 10
540.0222886401375
 20
-28.24495593658771
 30
0.0
 11
540.0219929250071
 21
-28.244566716032015
 31
0.0
  0
LINE
  5
185
330
17
100
AcDbEntity
  8
BOUNDARY
100
AcDbLine
 10
540.0219929250071
 20
-28.244566716032015
 30
0.0
 11
540.0216989421461
 21
-28.244176020916523
 31
0.0
  0
LINE
  5
186
330
17
100
AcDbEntity
  8
BOUNDARY
100
AcDbLine
 10
540.0216989421461
 20
-28.244176020916523
 30
0.0
 11
540.0214066980831
 21
-28.243783859910426
 31
0.0
  0
LINE
  5
187
330
17
100
AcDbEntity
  8
BOUNDARY
100
AcDbLine
 10
540.0214066980831
 20
-28.243783859910426
 30
0.0
 11
540.0211161993076
 21
-28.243390241715463
 31
0.0
  0
LINE
  5
188
330
17
100
AcDbEntity
  8
BOUNDARY
100
AcDbLine
 10
540.0211161993076
 20
-28.243390241715463
 30
0.0
 11
540.0208274522705
 21
-28.242995175065747
 31
0.0
  0
LINE
  5
189
330
17
100
AcDbEntity
  8
BOUNDARY
100
AcDbLine
 10
540.0208274522705
 20
-28.242995175065747
 30
0.0
 11
540.0205404633842
 21
-28.242598668727602
 31
0.0
  0
LINE
  5
18A
330
17
100
AcDbEntity
  8
BOUNDARY
100
AcDbLine
 10
540.0205404633842
 20
-28.242598668727602
 30
0.0
 11
540.0202552390215
 21
-28.242200731499295
 31
0.0
  0
LINE
  5
18B
330
17
100
AcDbEntity
  8
BOUNDARY
100
AcDbLine
 10
540.0202552390215
 20
-28.242200731499295
 30
0.0
 11
540.0199717855163
 21
-28.241801372210926
 31
0.0
  0
LINE
  5
18C
330
17
100
AcDbEntity
  8
BOUNDARY
100
AcDbLine
 10
540.0199717855163
 20
-28.241801372210926
 30
0.0
 11
540.0196901091632
 21
-28.241400599724145
 31
0.0
  0
LINE
  5
18D
330
17
100
AcDbEntity
  8
BOUNDARY
100
AcDbLine
 10
540.0196901091632
 20
-28.241400599724145
 30
0.0
 11
540.0194102162172
 21
-28.240998422932044
 31
0.0
  0
LINE
  5
18E
330
17
100
AcDbEntity
  8
BOUNDARY
100
AcDbLine
 10
540.0194102162172
 20
-28.240998422932044
 30
0.0
 11
540.0191321128938
 21
-28.240594850758907
 31
0.0
  0
LINE
  5
18F
330
17
100
AcDbEntity
  8
BOUNDARY
100
AcDbLine
 10
540.0191321128938
 20
-28.240594850758907
 30
0.0
 11
540.0188558053686
 21
-28.240189892160007
 31
0.0
  0
LINE
  5
190
330
17
100
AcDbEntity
  8
BOUNDARY
100
AcDbLine
 10
540.0188558053686
 20
-28.240189892160007
 30
0.0
 11
540.0185812997777
 21
-28.23978355612144
 31
0.0
  0
LINE
  5
191
330
17
100
AcDbEntity
  8
BOUNDARY
100
AcDbLine
 10
540.0185812997777
 20
-28.23978355612144
 30
0.0
 11
540.0183086022166
 21
-28.23937585165991
 31
0.0
  0
LINE
  5
192
330
17
100
AcDbEntity
  8
BOUNDARY
100
AcDbLine
 10
540.0183086022166
 20
-28.23937585165991
 30
0.0
 11
540.0180377187412
 21
-28.238966787822534
 31
0.0
  0
LINE
  5
193
330
17
100
AcDbEntity
  8
BOUNDARY
100
AcDbLine
 10
540.0180377187412
 20
-28.238966787822534
 30
0.0
 11
540.0177686553669
 21
-28.238556373686606
 31
0.0
  0
LINE
  5
194
330
17
100
AcDbEntity
  8
BOUNDARY
100
AcDbLine
 10
540.0177686553669
 20
-28.238556373686606
 30
0.0
 11
540.0175014180685
 21
-28.23814461835948
 31
0.0
  0
LINE
  5
195
330
17
100
AcDbEntity
  8
BOUNDARY
100
AcDbLine
 10
540.0175014180685
 20
-28.23814461835948
 30
0.0
 11
540.0172360127806
 21
-28.23773153097827
 31
0.0
  0
LINE
  5
196
330
17
100
AcDbEntity
  8
BOUNDARY
100
AcDbLine
 10
540.0172360127806
 20
-28.23773153097827
 30
0.0
 11
540.0169724453968
 21
-28.23731712070971
 31
0.0
  0
LINE
  5
197
330
17
100
AcDbEntity
  8
BOUNDARY
100
AcDbLine
 10
540.0169724453968
 20
-28.23731712070971
 30
0.0
 11
540.0167107217702
 21
-28.236901396749953
 31
0.0
  0
LINE
  5
198
330
17
100
AcDbEntity
  8
BOUNDARY
100
AcDbLine
 10
540.0167107217702
 20
-28.236901396749953
 30
0.0
 11
540.0164508477127
 21
-28.236484368324316
 31
0.0
  0
LINE
  5
199
330
17
100
AcDbEntity
  8
BOUNDARY
100
AcDbLine
 10
540.0164508477127
 20
-28.236484368324316
 30
0.0
 11
540.0161928289951
 21
-28.236066044687124
 31
0.0
  0
LINE
  5
19A
330
17
100
AcDbEntity
  8
BOUNDARY
100
AcDbLine
 10
540.0161928289951
 20
-28.236066044687124
 30
0.0
 11
540.0159366713473
 21
-28.23564643512149
 31
0.0
  0
LINE
  5
19B
330
17
100
AcDbEntity
  8
BOUNDARY
100
AcDbLine
 10
540.0159366713473
 20
-28.23564643512149
 30
0.0
 11
540.0156823804575
 21
-28.235225548939127
 31
0.0
  0
LINE
  5
19C
330
17
100
AcDbEntity
  8
BOUNDARY
100
AcDbLine
 10
540.0156823804575
 20
-28.235225548939127
 30
0.0
 11
540.0154299619728
 21
-28.234803395480085
 31
0.0
  0
LINE
  5
19D
330
17
100
AcDbEntity
  8
BOUNDARY
100
AcDbLine
 10
540.0154299619728
 20
-28.234803395480085
 30
0.0
 11
540.0151794214985
 21
-28.234379984112614
 31
0.0
  0
LINE
  5
19E
330
17
100
AcDbEntity
  8
BOUNDARY
100
AcDbLine
 10
540.0151794214985
 20
-28.234379984112614
 30
0.0
 11
540.0149307645981
 21
-28.23395532423291
 31
0.0
  0
LINE
  5
19F
330
17
100
AcDbEntity
  8
BOUNDARY
100
AcDbLine
 10
540.0149307645981
 20
-28.23395532423291
 30
0.0
 11
540.0146839967936
 21
-28.233529425264926
 31
0.0
  0
LINE
  5
1A0
330
17
100
AcDbEntity
  8
BOUNDARY
100
AcDbLine
 10
540.0146839967936
 20
-28.233529425264926
 30
0.0
 11
540.0144391235648
 21
-28.233102296660164
 31
0.0
  0
LINE
  5
1A1
330
17
100
AcDbEntity
  8
BOUNDARY
100
AcDbLine
 10
540.0144391235648
 20
-28.233102296660164
 30
0.0
 11
540.0141961503494
 21
-28.232673947897467
 31
0.0
  0
LINE
  5
1A2
330
17
100
AcDbEntity
  8
BOUNDARY
100
AcDbLine
 10
540.0141961503494
 20
-28.232673947897467
 30
0.0
 11
540.0139550825431
 21
-28.23224438848278
 31
0.0
  0
LINE
  5
1A3
330
17
100
AcDbEntity
  8
BOUNDARY
100
AcDbLine
 10
540.0139550825431
 20
-28.23224438848278
 30
0.0
 11
540.0137159254992
 21
-28.231813627948995
 31
0.0
  0
LINE
  5
1A4
330
17
100
AcDbEntity
  8
BOUNDARY
100
AcDbLine
 10
540.0137159254992
 20
-28.231813627948995
 30
0.0
 11
540.0134786845286
 21
-28.23138167585568
 31
0.0
  0
LINE
  5
1A5
330
17
100
AcDbEntity
  8
BOUNDARY
100
AcDbLine
 10
540.0134786845286
 20
-28.23138167585568
 30
0.0
 11
540.0132433648995
 21
-28.23094854178891
 31
0.0
  0
LINE
  5
1A6
330
17
100
AcDbEntity
  8
BOUNDARY
100
AcDbLine
 10
540.0132433648995
 20
-28.23094854178891
 30
0.0
 11
540.0130099718376
 21
-28.230514235361028
 31
0.0
  0
LINE
  5
1A7
330
17
100
AcDbEntity
  8
BOUNDARY
100
AcDbLine
 10
540.0130099718376
 20
-28.230514235361028
 30
0.0
 11
540.0127785105257
 21
-28.230078766210468
 31
0.0
  0
LINE
  5
1A8
330
17
100
AcDbEntity
  8
BOUNDARY
100
AcDbLine
 10
540.0127785105257
 20
-28.230078766210468
 30
0.0
 11
540.0125489861039
 21
-28.229642144001485
 31
0.0
  0
LINE
  5
1A9
330
17
100
AcDbEntity
  8
BOUNDARY
100
AcDbLine
 10
540.0125489861039
 20
-28.229642144001485
 30
0.0
 11
540.0123214036689
 21
-28.229204378423997
 31
0.0
  0
LINE
  5
1AA
330
17
100
AcDbEntity
  8
BOUNDARY
100
AcDbLine
 10
540.0123214036689
 20
-28.229204378423997
 30
0.0
 11
540.0120957682748
 21
-28.228765479193335
 31
0.0
  0
LINE
  5
1AB
330
17
100
AcDbEntity
  8
BOUNDARY
100
AcDbLine
 10
540.0120957682748
 20
-28.228765479193335
 30
0.0
 11
540.0118720849321
 21
-28.228325456050044
 31
0.0
  0
LINE
  5
1AC
330
17
100
AcDbEntity
  8
BOUNDARY
100
AcDbLine
 10
540.0118720849321
 20
-28.228325456050044
 30
0.0
 11
540.0116503586079
 21
-28.227884318759667
 31
0.0
  0
LINE
  5
1AD
330
17
100
AcDbEntity
  8
BOUNDARY
100
AcDbLine
 10
540.0116503586079
 20
-28.227884318759667
 30
0.0
 11
540.0114305942261
 21
-28.22744207711252
 31
0.0
  0
LINE
  5
1AE
330
17
100
AcDbEntity
  8
BOUNDARY
100
AcDbLine
 10
540.0114305942261
 20
-28.22744207711252
 30
0.0
 11
540.0112127966669
 21
-28.226998740923463
 31
0.0
  0
LINE
  5
1AF
330
17
100
AcDbEntity
  8
BOUNDARY
100
AcDbLine
 10
540.0112127966669
 20
-28.226998740923463
 30
0.0
 11
540.0109969707669
 21
-28.226554320031727
 31
0.0
  0
LINE
  5
1B0
330
17
100
AcDbEntity
  8
BOUNDARY
100
AcDbLine
 10
540.0109969707669
 20
-28.226554320031727
 30
0.0
 11
540.0107831213187
 21
-28.226108824300656
 31
0.0
  0
LINE
  5
1B1
330
17
100
AcDbEntity
  8
BOUNDARY
100
AcDbLine
 10
540.0107831213187
 20
-28.226108824300656
 30
0.0
 11
540.0105712530714
 21
-28.22566226361749
 31
0.0
  0
LINE
  5
1B2
330
17
100
AcDbEntity
  8
BOUNDARY
100
AcDbLine
 10
540.0105712530714
 20
-28.22566226361749
 30
0.0
 11
540.0103613707296
 21
-28.22521464789317
 31
0.0
  0
LINE
  5
1B3
330
17
100
AcDbEntity
  8
BOUNDARY
100
AcDbLine
 10
540.0103613707296
 20
-28.22521464789317
 30
0.0
 11
540.0101534789542
 21
-28.2247659870621
 31
0.0
  0
LINE
  5
1B4
330
17
100
AcDbEntity
  8
BOUNDARY
100
AcDbLine
 10
540.0101534789542
 20
-28.2247659870621
 30
0.0
 11
540.0099475823617
 21
-28.22431629108194
 31
0.0
  0
LINE
  5
1B5
330
17
100
AcDbEntity
  8
BOUNDARY
100
AcDbLine
 10
540.0099475823617
 20
-28.22431629108194
 30
0.0
 11
540.0097436855245
 21
-28.22386556993336
 31
0.0
  0
LINE
  5
1B6
330
17
100
AcDbEntity
  8
BOUNDARY
100
AcDbLine
 10
540.0097436855245
 20
-28.22386556993336
 30
0.0
 11
540.0095417929704
 21
-28.22341383361984
 31
0.0
  0
LINE
  5
1B7
330
17
100
AcDbEntity
  8
BOUNDARY
100
AcDbLine
 10
540.0095417929704
 20
-28.22341383361984
 30
0.0
 11
540.0093419091826
 21
-28.222961092167463
 31
0.0
  0
LINE
  5
1B8
330
17
100
AcDbEntity
  8
BOUNDARY
100
AcDbLine
 10
540.0093419091826
 20
-28.222961092167463
 30
0.0
 11
540.0091440385999
 21
-28.22250735562465
 31
0.0
  0
LINE
  5
1B9
330
17
100
AcDbEntity
  8
BOUNDARY
100
AcDbLine
 10
540.0091440385999
 20
-28.22250735562465
 30
0.0
 11
540.0089481856164
 21
-28.22205263406198
 31
0.0
  0
LINE
  5
1BA
330
17
100
AcDbEntity
  8
BOUNDARY
100
AcDbLine
 10
540.0089481856164
 20
-28.22205263406198
 30
0.0
 11
540.0087543545814
 21
-28.221596937571935
 31
0.0
  0
LINE
  5
1BB
330
17
100
AcDbEntity
  8
BOUNDARY
100
AcDbLine
 10
540.0087543545814
 20
-28.221596937571935
 30
0.0
 11
540.0085625497989
 21
-28.22114027626869
 31
0.0
  0
LINE
  5
1BC
330
17
100
AcDbEntity
  8
BOUNDARY
100
AcDbLine
 10
540.0085625497989
 20
-28.22114027626869
 30
0.0
 11
540.0083727755285
 21
-28.220682660287906
 31
0.0
  0
LINE
  5
1BD
330
17
100
AcDbEntity
  8
BOUNDARY
100
AcDbLine
 10
540.0083727755285
 20
-28.220682660287906
 30
0.0
 11
540.0081850359844
 21
-28.220224099786456
 31
0.0
  0
LINE
  5
1BE
330
17
100
AcDbEntity
  8
BOUNDARY
100
AcDbLine
 10
540.0081850359844
 20
-28.220224099786456
 30
0.0
 11
540.0079993353356
 21
-28.219764604942274
 31
0.0
  0
LINE
  5
1BF
330
17
100
AcDbEntity
  8
BOUNDARY
100
AcDbLine
 10
540.0079993353356
 20
-28.219764604942274
 30
0.0
 11
540.0078156777058
 21
-28.21930418595404
 31
0.0
  0
LINE
  5
1C0
330
17
100
AcDbEntity
  8
BOUNDARY
100
AcDbLine
 10
540.0078156777058
 20
-28.21930418595404
 30
0.0
 11
540.0076340671736
 21
-28.21884285304104
 31
0.0
  0
LINE
  5
1C1
330
17
100
AcDbEntity
  8
BOUNDARY
100
AcDbLine
 10
540.0076340671736
 20
-28.21884285304104
 30
0.0
 11
540.0074545077719
 21
-28.21838061644288
 31
0.0
  0
LINE
  5
1C2
330
17
100
AcDbEntity
  8
BOUNDARY
100
AcDbLine
 10
540.0074545077719
 20
-28.21838061644288
 30
0.0
 11
540.0072770034878
 21
-28.21791748641928
 31
0.0
  0
LINE
  5
1C3
330
17
100
AcDbEntity
  8
BOUNDARY
100
AcDbLine
 10
540.0072770034878
 20
-28.21791748641928
 30
0.0
 11
540.0071015582636
 21
-28.21745347324987
 31
0.0
  0
LINE
  5
1C4
330
17
100
AcDbEntity
  8
BOUNDARY
100
AcDbLine
 10
540.0071015582636
 20
-28.21745347324987
 30
0.0
 11
540.0069281759949
 21
-28.216988587233896
 31
0.0
  0
LINE
  5
1C5
330
17
100
AcDbEntity
  8
BOUNDARY
100
AcDbLine
 10
540.0069281759949
 20
-28.216988587233896
 30
0.0
 11
540.0067568605319
 21
-28.21652283869008
 31
0.0
  0
LINE
  5
1C6
330
17
100
AcDbEntity
  8
BOUNDARY
100
AcDbLine
 10
540.0067568605319
 20
-28.21652283869008
 30
0.0
 11
540.0065876156793
 21
-28.216056237956305
 31
0.0
  0
LINE
  5
1C7
330
17
100
AcDbEntity
  8
BOUNDARY
100
AcDbLine
 10
540.0065876156793
 20
-28.216056237956305
 30
0.0
 11
540.0064204451952
 21
-28.21558879538946
 31
0.0
  0
LINE
  5
1C8
330
17
100
AcDbEntity
  8
BOUNDARY
100
AcDbLine
 10
540.0064204451952
 20
-28.21558879538946
 30
0.0
 11
540.0062553527919
 21
-28.21512052136516
 31
0.0
  0
LINE
  5
1C9
330
17
100
AcDbEntity
  8
BOUNDARY
100
AcDbLine
 10
540.0062553527919
 20
-28.21512052136516
 30
0.0
 11
540.0060923421355
 21
-28.214651426277538
 31
0.0
  0
LINE
  5
1CA
330
17
100
AcDbEntity
  8
BOUNDARY
100
AcDbLine
 10
540.0060923421355
 20
-28.214651426277538
 30
0.0
 11
540.0059314168461
 21
-28.214181520538997
 31
0.0
  0
LINE
  5
1CB
330
17
100
AcDbEntity
  8
BOUNDARY
100
AcDbLine
 10
540.0059314168461
 20
-28.214181520538997
 30
0.0
 11
540.005772580497
 21
-28.21371081458
 31
0.0
  0
LINE
  5
1CC
330
17
100
AcDbEntity
  8
BOUNDARY
100
AcDbLine
 10
540.005772580497
 20
-28.21371081458
 30
0.0
 11
540.0056158366157
 21
-28.213239318848846
 31
0.0
  0
LINE
  5
1CD
330
17
100
AcDbEntity
  8
BOUNDARY
100
AcDbLine
 10
540.0056158366157
 20
-28.213239318848846
 30
0.0
 11
540.0054611886828
 21
-28.212767043811397
 31
0.0
  0
LINE
  5
1CE
330
17
100
AcDbEntity
  8
BOUNDARY
100
AcDbLine
 10
540.0054611886828
 20
-28.212767043811397
 30
0.0
 11
540.0053086401325
 21
-28.21229399995088
 31
0.0
  0
LINE
  5
1CF
330
17
100
AcDbEntity
  8
BOUNDARY
100
AcDbLine
 10
540.0053086401325
 20
-28.21229399995088
 30
0.0
 11
540.0051581943524
 21
-28.211820197767665
 31
0.0
  0
LINE
  5
1D0
330
17
100
AcDbEntity
  8
BOUNDARY
100
AcDbLine
 10
540.0051581943524
 20
-28.211820197767665
 30
0.0
 11
540.0050098546833
 21
-28.211345647778977
 31
0.0
  0
LINE
  5
1D1
330
17
100
AcDbEntity
  8
BOUNDARY
100
AcDbLine
 10
540.0050098546833
 20
-28.211345647778977
 30
0.0
 11
540.0048636244195
 21
-28.210870360518744
 31
0.0
  0
LINE
  5
1D2
330
17
100
AcDbEntity
  8
BOUNDARY
100
AcDbLine
 10
540.0048636244195
 20
-28.210870360518744
 30
0.0
 11
540.0047195068081
 21
-28.21039434653727
 31
0.0
  0
LINE
  5
1D3
330
17
100
AcDbEntity
  8
BOUNDARY
100
AcDbLine
 10
540.0047195068081
 20
-28.21039434653727
 30
0.0
 11
540.0045775050495
 21
-28.209917616401096
 31
0.0
  0
LINE
  5
1D4
330
17
100
AcDbEntity
  8
BOUNDARY
100
AcDbLine
 10
540.0045775050495
 20
-28.209917616401096
 30
0.0
 11
540.0044376222972
 21
-28.20944018069269
 31
0.0
  0
LINE
  5
1D5
330
17
100
AcDbEntity
  8
BOUNDARY
100
AcDbLine
 10
540.0044376222972
 20
-28.20944018069269
 30
0.0
 11
540.0042998616574
 21
-28.20896205001026
 31
0.0
  0
LINE
  5
1D6
330
17
100
AcDbEntity
  8
BOUNDARY
100
AcDbLine
 10
540.0042998616574
 20
-28.20896205001026
 30
0.0
 11
540.0041642261892
 21
-28.208483234967474
 31
0.0
  0
LINE
  5
1D7
330
17
100
AcDbEntity
  8
BOUNDARY
100
AcDbLine
 10
540.0041642261892
 20
-28.208483234967474
 30
0.0
 11
540.0040307189048
 21
-28.208003746193288
 31
0.0
  0
LINE
  5
1D8
330
17
100
AcDbEntity
  8
BOUNDARY
100
AcDbLine
 10
540.0040307189048
 20
-28.208003746193288
 30
0.0
 11
540.0038993427688
 21
-28.207523594331647
 31
0.0
  0
LINE
  5
1D9
330
17
100
AcDbEntity
  8
BOUNDARY
100
AcDbLine
 10
540.0038993427688
 20
-28.207523594331647
 30
0.0
 11
540.0037701006987
 21
-28.207042790041278
 31
0.0
  0
LINE
  5
1DA
330
17
100
AcDbEntity
  8
BOUNDARY
100
AcDbLine
 10
540.0037701006987
 20
-28.207042790041278
 30
0.0
 11
540.0036429955644
 21
-28.206561343995478
 31
0.0
  0
LINE
  5
1DB
330
17
100
AcDbEntity
  8
BOUNDARY
100
AcDbLine
 10
540.0036429955644
 20
-28.206561343995478
 30
0.0
 11
540.0035180301886
 21
-28.20607926688181
 31
0.0
  0
LINE
  5
1DC
330
17
100
AcDbEntity
  8
BOUNDARY
100
AcDbLine
 10
540.0035180301886
 20
-28.20607926688181
 30
0.0
 11
540.0033952073463
 21
-28.205596569401948
 31
0.0
  0
LINE
  5
1DD
330
17
100
AcDbEntity
  8
BOUNDARY
100
AcDbLine
 10
540.0033952073463
 20
-28.205596569401948
 30
0.0
 11
540.003274529765
 21
-28.20511326227136
 31
0.0
  0
LINE
  5
1DE
330
17
100
AcDbEntity
  8
BOUNDARY
100
AcDbLine
 10
540.003274529765
 20
-28.20511326227136
 30
0.0
 11
540.0031560001245
 21
-28.204629356219147
 31
0.0
  0
LINE
  5
1DF
330
17
100
AcDbEntity
  8
BOUNDARY
100
AcDbLine
 10
540.0031560001245
 20
-28.204629356219147
 30
0.0
 11
540.0030396210569
 21
-28.204144861987732
 31
0.0
  0
LINE
  5
1E0
330
17
100
AcDbEntity
  8
BOUNDARY
100
AcDbLine
 10
540.0030396210569
 20
-28.204144861987732
 30
0.0
 11
540.0029253951467
 21
-28.203659790332686
 31
0.0
  0
LINE
  5
1E1
330
17
100
AcDbEntity
  8
BOUNDARY
100
AcDbLine
 10
540.0029253951467
 20
-28.203659790332686
 30
0.0
 11
540.0028133249303
 21
-28.20317415202244
 31
0.0
  0
LINE
  5
1E2
330
17
100
AcDbEntity
  8
BOUNDARY
100
AcDbLine
 10
540.0028133249303
 20
-28.20317415202244
 30
0.0
 11
540.0027034128966
 21
-28.202687957838073
 31
0.0
  0
LINE
  5
1E3
330
17
100
AcDbEntity
  8
BOUNDARY
100
AcDbLine
 10
540.0027034128966
 20
-28.202687957838073
 30
0.0
 11
540.0025956614861
 21
-28.202201218573066
 31
0.0
  0
LINE
  5
1E4
330
17
100
AcDbEntity
  8
BOUNDARY
100
AcDbLine
 10
540.0025956614861
 20
-28.202201218573066
 30
0.0
 11
540.0024900730918
 21
-28.201713945033067
 31
0.0
  0
LINE
  5
1E5
330
17
100
AcDbEntity
  8
BOUNDARY
100
AcDbLine
 10
540.0024900730918
 20
-28.201713945033067
 30
0.0
 11
540.0023866500585
 21
-28.201226148035648
 31
0.0
  0
LINE
  5
1E6
330
17
100
AcDbEntity
  8
BOUNDARY
100
AcDbLine
 10
540.0023866500585
 20
-28.201226148035648
 30
0.0
 11
540.0022853946826
 21
-28.20073783841006
 31
0.0
  0
LINE
  5
1E7
330
17
100
AcDbEntity
  8
BOUNDARY
100
AcDbLine
 10
540.0022853946826
 20
-28.20073783841006
 30
0.0
 11
540.002186309213
 21
-28.200249026996996
 31
0.0
  0
LINE
  5
1E8
330
17
100
AcDbEntity
  8
BOUNDARY
100
AcDbLine
 10
540.002186309213
 20
-28.200249026996996
 30
0.0
 11
540.0020893958497
 21
-28.19975972464835
 31
0.0
  0
LINE
  5
1E9
330
17
100
AcDbEntity
  8
BOUNDARY
100
AcDbLine
 10
540.0020893958497
 20
-28.19975972464835
 30
0.0
 11
540.0019946567451
 21
-28.199269942226973
 31
0.0
  0
LINE
  5
1EA
330
17
100
AcDbEntity
  8
BOUNDARY
100
AcDbLine
 10
540.0019946567451
 20
-28.199269942226973
 30
0.0
 11
540.0019020940027
 21
-28.19877969060647
 31
0.0
  0
LINE
  5
1EB
330
17
100
AcDbEntity
  8
BOUNDARY
100
AcDbLine
 10
540.0019020940027
 20
-28.19877969060647
 30
0.0
 11
540.0018117096783
 21
-28.198288980670892
 31
0.0
  0
LINE
  5
1EC
330
17
100
AcDbEntity
  8
BOUNDARY
100
AcDbLine
 10
540.0018117096783
 20
-28.198288980670892
 30
0.0
 11
540.0017235057791
 21
-28.197797823314517
 31
0.0
  0
LINE
  5
1ED
330
17
100
AcDbEntity
  8
BOUNDARY
100
AcDbLine
 10
540.0017235057791
 20
-28.197797823314517
 30
0.0
 11
540.0016374842634
 21
-28.19730622944167
 31
0.0
  0
LINE
  5
1EE
330
17
100
AcDbEntity
  8
BOUNDARY
100
AcDbLine
 10
540.0016374842634
 20
-28.19730622944167
 30
0.0
 11
540.0015536470418
 21
-28.19681420996638
 31
0.0
  0
LINE
  5
1EF
330
17
100
AcDbEntity
  8
BOUNDARY
100
AcDbLine
 10
540.0015536470418
 20
-28.19681420996638
 30
0.0
 11
540.0014719959757
 21
-28.19632177581222
 31
0.0
  0
LINE
  5
1F0
330
17
100
AcDbEntity
  8
BOUNDARY
100
AcDbLine
 10
540.0014719959757
 20
-28.19632177581222
 30
0.0
 11
540.0013925328788
 21
-28.19582893791202
 31
0.0
  0
LINE
  5
1F1
330
17
100
AcDbEntity
  8
BOUNDARY
100
AcDbLine
 10
540.0013925328788
 20
-28.19582893791202
 30
0.0
 11
540.0013152595152
 21
-28.19533570720764
 31
0.0
  0
LINE
  5
1F2
330
17
100
AcDbEntity
  8
BOUNDARY
100
AcDbLine
 10
540.0013152595152
 20
-28.19533570720764
 30
0.0
 11
540.0012401776012
 21
-28.19484209464973
 31
0.0
  0
LINE
  5
1F3
330
17
100
AcDbEntity
  8
BOUNDARY
100
AcDbLine
 10
540.0012401776012
 20
-28.19484209464973
 30
0.0
 11
540.0011672888038
 21
-28.19434811119747
 31
0.0
  0
LINE
  5
1F4
330
17
100
AcDbEntity
  8
BOUNDARY
100
AcDbLine
 10
540.0011672888038
 20
-28.19434811119747
 30
0.0
 11
540.001096594742
 21
-28.193853767818347
 31
0.0
  0
LINE
  5
1F5
330
17
100
AcDbEntity
  8
BOUNDARY
100
AcDbLine
 10
540.001096594742
 20
-28.193853767818347
 30
0.0
 11
540.0010280969854
 21
-28.19335907548791
 31
0.0
  0
LINE
  5
1F6
330
17
100
AcDbEntity
  8
BOUNDARY
100
AcDbLine
 10
540.0010280969854
 20
-28.19335907548791
 30
0.0
 11
540.0009617970551
 21
-28.192864045189502
 31
0.0
  0
LINE
  5
1F7
330
17
100
AcDbEntity
  8
BOUNDARY
100
AcDbLine
 10
540.0009617970551
 20
-28.192864045189502
 30
0.0
 11
540.0008976964235
 21
-28.192368687914055
 31
0.0
  0
LINE
  5
1F8
330
17
100
AcDbEntity
  8
BOUNDARY
100
AcDbLine
 10
540.0008976964235
 20
-28.192368687914055
 30
0.0
 11
540.0008357965141
 21
-28.19187301465981
 31
0.0
  0
LINE
  5
1F9
330
17
100
AcDbEntity
  8
BOUNDARY
100
AcDbLine
 10
540.0008357965141
 20
-28.19187301465981
 30
0.0
 11
540.0007760987014
 21
-28.19137703643209
 31
0.0
  0
LINE
  5
1FA
330
17
100
AcDbEntity
  8
BOUNDARY
100
AcDbLine
 10
540.0007760987014
 20
-28.19137703643209
 30
0.0
 11
540.000718604311
 21
-28.190880764243072
 31
0.0
  0
LINE
  5
1FB
330
17
100
AcDbEntity
  8
BOUNDARY
100
AcDbLine
 10
540.000718604311
 20
-28.190880764243072
 30
0.0
 11
540.0006633146198
 21
-28.190384209111485
 31
0.0
  0
LINE
  5
1FC
330
17
100
AcDbEntity
  8
BOUNDARY
100
AcDbLine
 10
540.0006633146198
 20
-28.190384209111485
 30
0.0
 11
540.0006102308556
 21
-28.189887382062455
 31
0.0
  0
LINE
  5
1FD
330
17
100
AcDbEntity
  8
BOUNDARY
100
AcDbLine
 10
540.0006102308556
 20
-28.189887382062455
 30
0.0
 11
540.0005593541971
 21
-28.18939029412718
 31
0.0
  0
LINE
  5
1FE
330
17
100
AcDbEntity
  8
BOUNDARY
100
AcDbLine
 10
540.0005593541971
 20
-28.18939029412718
 30
0.0
 11
540.0005106857741
 21
-28.18889295634271
 31
0.0
  0
LINE
  5
1FF
330
17
100
AcDbEntity
  8
BOUNDARY
100
AcDbLine
 10
540.0005106857741
 20
-28.18889295634271
 30
0.0
 11
540.0004642266674
 21
-28.188395379751732
 31
0.0
  0
LINE
  5
200
330
17
100
AcDbEntity
  8
BOUNDARY
100
AcDbLine
 10
540.0004642266674
 20
-28.188395379751732
 30
0.0
 11
540.0004199779088
 21
-28.18789757540227
 31
0.0
  0
LINE
  5
201
330
17
100
AcDbEntity
  8
BOUNDARY
100
AcDbLine
 10
540.0004199779088
 20
-28.18789757540227
 30
0.0
 11
540.0003779404807
 21
-28.187399554347515
 31
0.0
  0
LINE
  5
202
330
17
100
AcDbEntity
  8
BOUNDARY
100
AcDbLine
 10
540.0003779404807
 20
-28.187399554347515
 30
0.0
 11
540.0003381153167
 21
-28.186901327645483
 31
0.0
  0
LINE
  5
203
330
17
100
AcDbEntity
  8
BOUNDARY
100
AcDbLine
 10
540.0003381153167
 20
-28.186901327645483
 30
0.0
 11
540.0003005033013
 21
-28.186402906358857
 31
0.0
  0
LINE
  5
204
330
17
100
AcDbEntity
  8
BOUNDARY
100
AcDbLine
 10
540.0003005033013
 20
-28.186402906358857
 30
0.0
 11
540.0002651052696
 21
-28.185904301554704
 31
0.0
  0
LINE
  5
205
330
17
100
AcDbEntity
  8
BOUNDARY
100
AcDbLine
 10
540.0002651052696
 20
-28.185904301554704
 30
0.0
 11
540.0002319220077
 21
-28.185405524304212
 31
0.0
  0
LINE
  5
206
330
17
100
AcDbEntity
  8
BOUNDARY
100
AcDbLine
 10
540.0002319220077
 20
-28.185405524304212
 30
0.0
 11
540.0002009542525
 21
-28.18490658568248
 31
0.0
  0
LINE
  5
207
330
17
100
AcDbEntity
  8
BOUNDARY
100
AcDbLine
 10
540.0002009542525
 20
-28.18490658568248
 30
0.0
 11
540.0001722026916
 21
-28.184407496768248
 31
0.0
  0
LINE
  5
208
330
17
100
AcDbEntity
  8
BOUNDARY
100
AcDbLine
 10
540.0001722026916
 20
-28.184407496768248
 30
0.0
 11
540.0001456679637
 21
-28.183908268643666
 31
0.0
  0
LINE
  5
209
330
17
100
AcDbEntity
  8
BOUNDARY
100
AcDbLine
 10
540.0001456679637
 20
-28.183908268643666
 30
0.0
 11
540.0001213506578
 21
-28.183408912394032
 31
0.0
  0
LINE
  5
20A
330
17
100
AcDbEntity
  8
BOUNDARY
100
AcDbLine
 10
540.0001213506578
 20
-28.183408912394032
 30
0.0
 11
540.0000992513139
 21
-28.18290943910757
 31
0.0
  0
LINE
  5
20B
330
17
100
AcDbEntity
  8
BOUNDARY
100
AcDbLine
 10
540.0000992513139
 20
-28.18290943910757
 30
0.0
 11
540.000079370423
 21
-28.18240985987514
 31
0.0
  0
LINE
  5
20C
330
17
100
AcDbEntity
  8
BOUNDARY
100
AcDbLine
 10
540.000079370423
 20
-28.18240985987514
 30
0.0
 11
540.0000617084264
 21
-28.181910185790052
 31
0.0
  0
LINE
  5
20D
330
17
100
AcDbEntity
  8
BOUNDARY
100
AcDbLine
 10
540.0000617084264
 20
-28.181910185790052
 30
0.0
 11
540.0000462657163
 21
-28.181410427947775
 31
0.0
  0
LINE
  5
20E
330
17
100
AcDbEntity
  8
BOUNDARY
100
AcDbLine
 10
540.0000462657163
 20
-28.181410427947775
 30
0.0
 11
540.0000330426357
 21
-28.180910597445706
 31
0.0
  0
LINE
  5
20F
330
17
100
AcDbEntity
  8
BOUNDARY
100
AcDbLine
 10
540.0000330426357
 20
-28.180910597445706
 30
0.0
 11
540.0000220394783
 21
-28.180410705382908
 31
0.0
  0
LINE
  5
210
330
17
100
AcDbEntity
  8
BOUNDARY
100
AcDbLine
 10
540.0000220394783
 20
-28.180410705382908
 30
0.0
 11
540.0000132564883
 21
-28.179910762859897
 31
0.0
  0
LINE
  5
211
330
17
100
AcDbEntity
  8
BOUNDARY
100
AcDbLine
 10
540.0000132564883
 20
-28.179910762859897
 30
0.0
 11
540.0000066938608
 21
-28.17941078097837
 31
0.0
  0
LINE
  5
212
330
17
100
AcDbEntity
  8
BOUNDARY
100
AcDbLine
 10
540.0000066938608
 20
-28.17941078097837
 30
0.0
 11
540.0000023517414
 21
-28.178910770840943
 31
0.0
  0
LINE
  5
213
330
17
100
AcDbEntity
  8
BOUNDARY
100
AcDbLine
 10
540.0000023517414
 20
-28.178910770840943
 30
0.0
 11
540.0000002302268
 21
-28.178410743550966
 31
0.0
  0
LINE
  5
214
330
17
100
AcDbEntity
  8
BOUNDARY
100
AcDbLine
 10
540.0000002302268
 20
-28.178410743550966
 30
0.0
 11
540.0
 21
-28.178183050012297
 31
0.0
  0
LINE
  5
215
330
17
100
AcDbEntity
  8
BOUNDARY
100
AcDbLine
 10
540.0
 20
26.060457101489057
 30
0.0
 11
540.0
 21
28.17818305001229
 31
0.0
  0
LINE
  5
216
330
17
100
AcDbEntity
  8
BOUNDARY
100
AcDbLine
 10
540.1
 20
28.284271247461902
 30
0.0
 11
540.0995862645273
 21
28.284270339654665
 31
0.0
  0
LINE
  5
217
330
17
100
AcDbEntity
  8
BOUNDARY
100
AcDbLine
 10
540.0995862645273
 20
28.284270339654665
 30
0.0
 11
540.0991150360004
 21
28.284267094040654
 31
0.0
  0
LINE
  5
218
330
17
100
AcDbEntity
  8
BOUNDARY
100
AcDbLine
 10
540.0991150360004
 20
28.284267094040654
 30
0.0
 11
540.0986438271256
 21
28.284261493156446
 31
0.0
  0
LINE
  5
219
330
17
100
AcDbEntity
  8
BOUNDARY
100
AcDbLine
 10
540.0986438271256
 20
28.284261493156446
 30
0.0
 11
540.0981726483667
 21
28.284253537126265
 31
0.0
  0
LINE
  5
21A
330
17
100
AcDbEntity
  8
BOUNDARY
100
AcDbLine
 10
540.0981726483667
 20
28.284253537126265
 30
0.0
 11
540.097701510187
 21
28.284243226126566
 31
0.0
  0
LINE
  5
21B
330
17
100
AcDbEntity
  8
BOUNDARY
100
AcDbLine
 10
540.097701510187
 20
28.284243226126566
 30
0.0
 11
540.0972304230489
 21
28.28423056038603
 31
0.0
  0
LINE
  5
21C
330
17
100
AcDbEntity
  8
BOUNDARY
100
AcDbLine
 10
540.0972304230489
 20
28.28423056038603
 30
0.0
 11
540.0967593974136
 21
28.28421554018557
 31
0.0
  0
LINE
  5
21D
330
17
100
AcDbEntity
  8
BOUNDARY
100
AcDbLine
 10
540.0967593974136
 20
28.28421554018557
 30
0.0
 11
540.0962884437411
 21
28.28419816585832
 31
0.0
  0
LINE
  5
21E
330
17
100
AcDbEntity
  8
BOUNDARY
100
AcDbLine
 10
540.0962884437411
 20
28.28419816585832
 30
0.0
 11
540.0958175724894
 21
28.284178437789624
 31
0.0
  0
LINE
  5
21F
330
17
100
AcDbEntity
  8
BOUNDARY
100
AcDbLine
 10
540.0958175724894
 20
28.284178437789624
 30
0.0
 11
540.095346794115
 21
28.284156356417018
 31
0.0
  0
LINE
  5
220
330
17
100
AcDbEntity
  8
BOUNDARY
100
AcDbLine
 10
540.095346794115
 20
28.284156356417018
 30
0.0
 11
540.0948761190724
 21
28.284131922230248
 31
0.0
  0
LINE
  5
221
330
17
100
AcDbEntity
  8
BOUNDARY
100
AcDbLine
 10
540.0948761190724
 20
28.284131922230248
 30
0.0
 11
540.0944055578137
 21
28.28410513577123
 31
0.0
  0
LINE
  5
222
330
17
100
AcDbEntity
  8
BOUNDARY
100
AcDbLine
 10
540.0944055578137
 20
28.28410513577123
 30
0.0
 11
540.0939351207883
 21
28.284075997634073
 31
0.0
  0
LINE
  5
223
330
17
100
AcDbEntity
  8
BOUNDARY
100
AcDbLine
 10
540.0939351207883
 20
28.284075997634073
 30
0.0
 11
540.0934648184431
 21
28.284044508465005
 31
0.0
  0
LINE
  5
224
330
17
100
AcDbEntity
  8
BOUNDARY
100
AcDbLine
 10
540.0934648184431
 20
28.284044508465005
 30
0.0
 11
540.0929946612217
 21
28.284010668962438
 31
0.0
  0
LINE
  5
225
330
17
100
AcDbEntity
  8
BOUNDARY
100
AcDbLine
 10
540.0929946612217
 20
28.284010668962438
 30
0.0
 11
540.092524659565
 21
28.283974479876886
 31
0.0
  0
LINE
  5
226
330
17
100
AcDbEntity
  8
BOUNDARY
100
AcDbLine
 10
540.092524659565
 20
28.283974479876886
 30
0.0
 11
540.09205482391
 21
28.283935942010984
 31
0.0
  0
LINE
  5
227
330
17
100
AcDbEntity
  8
BOUNDARY
100
AcDbLine
 10
540.09205482391
 20
28.283935942010984
 30
0.0
 11
540.09158516469
 21
28.283895056219457
 31
0.0
  0
LINE
  5
228
330
17
100
AcDbEntity
  8
BOUNDARY
100
AcDbLine
 10
540.09158516469
 20
28.283895056219457
 30
0.0
 11
540.0911156923346
 21
28.283851823409115
 31
0.0
  0
LINE
  5
229
330
17
100
AcDbEntity
  8
BOUNDARY
100
AcDbLine
 10
540.0911156923346
 20
28.283851823409115
 30
0.0
 11
540.0906464172692
 21
28.2838062445388
 31
0.0
  0
LINE
  5
22A
330
17
100
AcDbEntity
  8
BOUNDARY
100
AcDbLine
 10
540.0906464172692
 20
28.2838062445388
 30
0.0
 11
540.0901773499148
 21
28.283758320619416
 31
0.0
  0
LINE
  5
22B
330
17
100
AcDbEntity
  8
BOUNDARY
100
AcDbLine
 10
540.0901773499148
 20
28.283758320619416
 30
0.0
 11
540.0897085006878
 21
28.28370805271386
 31
0.0
  0
LINE
  5
22C
330
17
100
AcDbEntity
  8
BOUNDARY
100
AcDbLine
 10
540.0897085006878
 20
28.28370805271386
 30
0.0
 11
540.0892398799997
 21
28.28365544193702
 31
0.0
  0
LINE
  5
22D
330
17
100
AcDbEntity
  8
BOUNDARY
100
AcDbLine
 10
540.0892398799997
 20
28.28365544193702
 30
0.0
 11
540.088771498257
 21
28.283600489455754
 31
0.0
  0
LINE
  5
22E
330
17
100
AcDbEntity
  8
BOUNDARY
100
AcDbLine
 10
540.088771498257
 20
28.283600489455754
 30
0.0
 11
540.0883033658606
 21
28.283543196488843
 31
0.0
  0
LINE
  5
22F
330
17
100
AcDbEntity
  8
BOUNDARY
100
AcDbLine
 10
540.0883033658606
 20
28.283543196488843
 30
0.0
 11
540.0878354932065
 21
28.28348356430699
 31
0.0
  0
LINE
  5
230
330
17
100
AcDbEntity
  8
BOUNDARY
100
AcDbLine
 10
540.0878354932065
 20
28.28348356430699
 30
0.0
 11
540.0873678906843
 21
28.283421594232784
 31
0.0
  0
LINE
  5
231
330
17
100
AcDbEntity
  8
BOUNDARY
100
AcDbLine
 10
540.0873678906843
 20
28.283421594232784
 30
0.0
 11
540.0869005686778
 21
28.283357287640655
 31
0.0
  0
LINE
  5
232
330
17
100
AcDbEntity
  8
BOUNDARY
100
AcDbLine
 10
540.0869005686778
 20
28.283357287640655
 30
0.0
 11
540.0864335375649
 21
28.28329064595686
 31
0.0
  0
LINE
  5
233
330
17
100
AcDbEntity
  8
BOUNDARY
100
AcDbLine
 10
540.0864335375649
 20
28.28329064595686
 30
0.0
 11
540.0859668077164
 21
28.283221670659454
 31
0.0
  0
LINE
  5
234
330
17
100
AcDbEntity
  8
BOUNDARY
100
AcDbLine
 10
540.0859668077164
 20
28.283221670659454
 30
0.0
 11
540.0855003894972
 21
28.28315036327824
 31
0.0
  0
LINE
  5
235
330
17
100
AcDbEntity
  8
BOUNDARY
100
AcDbLine
 10
540.0855003894972
 20
28.28315036327824
 30
0.0
 11
540.0850342932644
 21
28.28307672539475
 31
0.0
  0
LINE
  5
236
330
17
100
AcDbEntity
  8
BOUNDARY
100
AcDbLine
 10
540.0850342932644
 20
28.28307672539475
 30
0.0
 11
540.0845685293687
 21
28.28300075864221
 31
0.0
  0
LINE
  5
237
330
17
100
AcDbEntity
  8
BOUNDARY
100
AcDbLine
 10
540.0845685293687
 20
28.28300075864221
 30
0.0
 11
540.0841031081529
 21
28.282922464705493
 31
0.0
  0
LINE
  5
238
330
17
100
AcDbEntity
  8
BOUNDARY
100
AcDbLine
 10
540.0841031081529
 20
28.282922464705493
 30
0.0
 11
540.0836380399526
 21
28.2828418453211
 31
0.0
  0
LINE
  5
239
330
17
100
AcDbEntity
  8
BOUNDARY
100
AcDbLine
 10
540.0836380399526
 20
28.2828418453211
 30
0.0
 11
540.0831733350954
 21
28.282758902277095
 31
0.0
  0
LINE
  5
23A
330
17
100
AcDbEntity
  8
BOUNDARY
100
AcDbLine
 10
540.0831733350954
 20
28.282758902277095
 30
0.0
 11
540.0827090039005
 21
28.282673637413087
 31
0.0
  0
LINE
  5
23B
330
17
100
AcDbEntity
  8
BOUNDARY
100
AcDbLine
 10
540.0827090039005
 20
28.282673637413087
 30
0.0
 11
540.0822450566794
 21
28.28258605262019
 31
0.0
  0
LINE
  5
23C
330
17
100
AcDbEntity
  8
BOUNDARY
100
AcDbLine
 10
540.0822450566794
 20
28.28258605262019
 30
0.0
 11
540.0817815037346
 21
28.28249614984096
 31
0.0
  0
LINE
  5
23D
330
17
100
AcDbEntity
  8
BOUNDARY
100
AcDbLine
 10
540.0817815037346
 20
28.28249614984096
 30
0.0
 11
540.0813183553602
 21
28.282403931069368
 31
0.0
  0
LINE
  5
23E
330
17
100
AcDbEntity
  8
BOUNDARY
100
AcDbLine
 10
540.0813183553602
 20
28.282403931069368
 30
0.0
 11
540.0808556218409
 21
28.282309398350776
 31
0.0
  0
LINE
  5
23F
330
17
100
AcDbEntity
  8
BOUNDARY
100
AcDbLine
 10
540.0808556218409
 20
28.282309398350776
 30
0.0
 11
540.0803933134526
 21
28.282212553781847
 31
0.0
  0
LINE
  5
240
330
17
100
AcDbEntity
  8
BOUNDARY
100
AcDbLine
 10
540.0803933134526
 20
28.282212553781847
 30
0.0
 11
540.0799314404617
 21
28.28211339951053
 31
0.0
  0
LINE
  5
241
330
17
100
AcDbEntity
  8
BOUNDARY
100
AcDbLine
 10
540.0799314404617
 20
28.28211339951053
 30
0.0
 11
540.0794700131245
 21
28.28201193773599
 31
0.0
  0
LINE
  5
242
330
17
100
AcDbEntity
  8
BOUNDARY
100
AcDbLine
 10
540.0794700131245
 20
28.28201193773599
 30
0.0
 11
540.0790090416879
 21
28.281908170708608
 31
0.0
  0
LINE
  5
243
330
17
100
AcDbEntity
  8
BOUNDARY
100
AcDbLine
 10
540.0790090416879
 20
28.281908170708608
 30
0.0
 11
540.0785485363883
 21
28.281802100729855
 31
0.0
  0
LINE
  5
244
330
17
100
AcDbEntity
  8
BOUNDARY
100
AcDbLine
 10
540.0785485363883
 20
28.281802100729855
 30
0.0
 11
540.0780885074523
 21
28.281693730152313
 31
0.0
  0
LINE
  5
245
330
17
100
AcDbEntity
  8
BOUNDARY
100
AcDbLine
 10
540.0780885074523
 20
28.281693730152313
 30
0.0
 11
540.0776289650953
 21
28.281583061379582
 31
0.0
  0
LINE
  5
246
330
17
100
AcDbEntity
  8
BOUNDARY
100
AcDbLine
 10
540.0776289650953
 20
28.281583061379582
 30
0.0
 11
540.0771699195222
 21
28.281470096866233
 31
0.0
  0
LINE
  5
247
330
17
100
AcDbEntity
  8
BOUNDARY
100
AcDbLine
 10
540.0771699195222
 20
28.281470096866233
 30
0.0
 11
540.076711380927
 21
28.28135483911778
 31
0.0
  0
LINE
  5
248
330
17
100
AcDbEntity
  8
BOUNDARY
100
AcDbLine
 10
540.076711380927
 20
28.28135483911778
 30
0.0
 11
540.0762533594921
 21
28.281237290690566
 31
0.0
  0
LINE
  5
249
330
17
100
AcDbEntity
  8
BOUNDARY
100
AcDbLine
 10
540.0762533594921
 20
28.281237290690566
 30
0.0
 11
540.0757958653885
 21
28.281117454191776
 31
0.0
  0
LINE
  5
24A
330
17
100
AcDbEntity
  8
BOUNDARY
100
AcDbLine
 10
540.0757958653885
 20
28.281117454191776
 30
0.0
 11
540.0753389087756
 21
28.280995332279335
 31
0.0
  0
LINE
  5
24B
330
17
100
AcDbEntity
  8
BOUNDARY
100
AcDbLine
 10
540.0753389087756
 20
28.280995332279335
 30
0.0
 11
540.0748824998011
 21
28.280870927661866
 31
0.0
  0
LINE
  5
24C
330
17
100
AcDbEntity
  8
BOUNDARY
100
AcDbLine
 10
540.0748824998011
 20
28.280870927661866
 30
0.0
 11
540.0744266486
 21
28.28074424309862
 31
0.0
  0
LINE
  5
24D
330
17
100
AcDbEntity
  8
BOUNDARY
100
AcDbLine
 10
540.0744266486
 20
28.28074424309862
 30
0.0
 11
540.0739713652954
 21
28.280615281399427
 31
0.0
  0
LINE
  5
24E
330
17
100
AcDbEntity
  8
BOUNDARY
100
AcDbLine
 10
540.0739713652954
 20
28.280615281399427
 30
0.0
 11
540.0735166599974
 21
28.28048404542461
 31
0.0
  0
LINE
  5
24F
330
17
100
AcDbEntity
  8
BOUNDARY
100
AcDbLine
 10
540.0735166599974
 20
28.28048404542461
 30
0.0
 11
540.0730625428034
 21
28.280350538084967
 31
0.0
  0
LINE
  5
250
330
17
100
AcDbEntity
  8
BOUNDARY
100
AcDbLine
 10
540.0730625428034
 20
28.280350538084967
 30
0.0
 11
540.0726090237981
 21
28.28021476234166
 31
0.0
  0
LINE
  5
251
330
17
100
AcDbEntity
  8
BOUNDARY
100
AcDbLine
 10
540.0726090237981
 20
28.28021476234166
 30
0.0
 11
540.0721561130523
 21
28.280076721206168
 31
0.0
  0
LINE
  5
252
330
17
100
AcDbEntity
  8
BOUNDARY
100
AcDbLine
 10
540.0721561130523
 20
28.280076721206168
 30
0.0
 11
540.0717038206236
 21
28.27993641774023
 31
0.0
  0
LINE
  5
253
330
17
100
AcDbEntity
  8
BOUNDARY
100
AcDbLine
 10
540.0717038206236
 20
28.27993641774023
 30
0.0
 11
540.0712521565562
 21
28.27979385505576
 31
0.0
  0
LINE
  5
254
330
17
100
AcDbEntity
  8
BOUNDARY
100
AcDbLine
 10
540.0712521565562
 20
28.27979385505576
 30
0.0
 11
540.0708011308795
 21
28.279649036314797
 31
0.0
  0
LINE
  5
255
330
17
100
AcDbEntity
  8
BOUNDARY
100
AcDbLine
 10
540.0708011308795
 20
28.279649036314797
 30
0.0
 11
540.0703507536097
 21
28.279501964729413
 31
0.0
  0
LINE
  5
256
330
17
100
AcDbEntity
  8
BOUNDARY
100
AcDbLine
 10
540.0703507536097
 20
28.279501964729413
 30
0.0
 11
540.0699010347478
 21
28.27935264356166
 31
0.0
  0
LINE
  5
257
330
17
100
AcDbEntity
  8
BOUNDARY
100
AcDbLine
 10
540.0699010347478
 20
28.27935264356166
 30
0.0
 11
540.0694519842807
 21
28.27920107612349
 31
0.0
  0
LINE
  5
258
330
17
100
AcDbEntity
  8
BOUNDARY
100
AcDbLine
 10
540.0694519842807
 20
28.27920107612349
 30
0.0
 11
540.0690036121802
 21
28.27904726577668
 31
0.0
  0
LINE
  5
259
330
17
100
AcDbEntity
  8
BOUNDARY
100
AcDbLine
 10
540.0690036121802
 20
28.27904726577668
 30
0.0
 11
540.0685559284032
 21
28.278891215932763
 31
0.0
  0
LINE
  5
25A
330
17
100
AcDbEntity
  8
BOUNDARY
100
AcDbLine
 10
540.0685559284032
 20
28.278891215932763
 30
0.0
 11
540.068108942891
 21
28.27873293005296
 31
0.0
  0
LINE
  5
25B
330
17
100
AcDbEntity
  8
BOUNDARY
100
AcDbLine
 10
540.068108942891
 20
28.27873293005296
 30
0.0
 11
540.0676626655699
 21
28.278572411648085
 31
0.0
  0
LINE
  5
25C
330
17
100
AcDbEntity
  8
BOUNDARY
100
AcDbLine
 10
540.0676626655699
 20
28.278572411648085
 30
0.0
 11
540.0672171063499
 21
28.278409664278463
 31
0.0
  0
LINE
  5
25D
330
17
100
AcDbEntity
  8
BOUNDARY
100
AcDbLine
 10
540.0672171063499
 20
28.278409664278463
 30
0.0
 11
540.0667722751256
 21
28.278244691553898
 31
0.0
  0
LINE
  5
25E
330
17
100
AcDbEntity
  8
BOUNDARY
100
AcDbLine
 10
540.0667722751256
 20
28.278244691553898
 30
0.0
 11
540.0663281817749
 21
28.27807749713353
 31
0.0
  0
LINE
  5
25F
330
17
100
AcDbEntity
  8
BOUNDARY
100
AcDbLine
 10
540.0663281817749
 20
28.27807749713353
 30
0.0
 11
540.06588483616
 21
28.277908084725798
 31
0.0
  0
LINE
  5
260
330
17
100
AcDbEntity
  8
BOUNDARY
100
AcDbLine
 10
540.06588483616
 20
28.277908084725798
 30
0.0
 11
540.0654422481256
 21
28.277736458088338
 31
0.0
  0
LINE
  5
261
330
17
100
AcDbEntity
  8
BOUNDARY
100
AcDbLine
 10
540.0654422481256
 20
28.277736458088338
 30
0.0
 11
540.0650004275004
 21
28.277562621027915
 31
0.0
  0
LINE
  5
262
330
17
100
AcDbEntity
  8
BOUNDARY
100
AcDbLine
 10
540.0650004275004
 20
28.277562621027915
 30
0.0
 11
540.0645593840956
 21
28.277386577400314
 31
0.0
  0
LINE
  5
263
330
17
100
AcDbEntity
  8
BOUNDARY
100
AcDbLine
 10
540.0645593840956
 20
28.277386577400314
 30
0.0
 11
540.0641191277053
 21
28.277208331110298
 31
0.0
  0
LINE
  5
264
330
17
100
AcDbEntity
  8
BOUNDARY
100
AcDbLine
 10
540.0641191277053
 20
28.277208331110298
 30
0.0
 11
540.063679668106
 21
28.277027886111465
 31
0.0
  0
LINE
  5
265
330
17
100
AcDbEntity
  8
BOUNDARY
100
AcDbLine
 10
540.063679668106
 20
28.277027886111465
 30
0.0
 11
540.0632410150567
 21
28.276845246406204
 31
0.0
  0
LINE
  5
266
330
17
100
AcDbEntity
  8
BOUNDARY
100
AcDbLine
 10
540.0632410150567
 20
28.276845246406204
 30
0.0
 11
540.0628031782984
 21
28.276660416045587
 31
0.0
  0
LINE
  5
267
330
17
100
AcDbEntity
  8
BOUNDARY
100
AcDbLine
 10
540.0628031782984
 20
28.276660416045587
 30
0.0
 11
540.0623661675538
 21
28.276473399129298
 31
0.0
  0
LINE
  5
268
330
17
100
AcDbEntity
  8
BOUNDARY
100
AcDbLine
 10
540.0623661675538
 20
28.276473399129298
 30
0.0
 11
540.0619299925274
 21
28.27628419980552
 31
0.0
  0
LINE
  5
269
330
17
100
AcDbEntity
  8
BOUNDARY
100
AcDbLine
 10
540.0619299925274
 20
28.27628419980552
 30
0.0
 11
540.0614946629054
 21
28.276092822270847
 31
0.0
  0
LINE
  5
26A
330
17
100
AcDbEntity
  8
BOUNDARY
100
AcDbLine
 10
540.0614946629054
 20
28.276092822270847
 30
0.0
 11
540.0610601883548
 21
28.275899270770203
 31
0.0
  0
LINE
  5
26B
330
17
100
AcDbEntity
  8
BOUNDARY
100
AcDbLine
 10
540.0610601883548
 20
28.275899270770203
 30
0.0
 11
540.0606265785237
 21
28.275703549596745
 31
0.0
  0
LINE
  5
26C
330
17
100
AcDbEntity
  8
BOUNDARY
100
AcDbLine
 10
540.0606265785237
 20
28.275703549596745
 30
0.0
 11
540.0601938430412
 21
28.275505663091764
 31
0.0
  0
LINE
  5
26D
330
17
100
AcDbEntity
  8
BOUNDARY
100
AcDbLine
 10
540.0601938430412
 20
28.275505663091764
 30
0.0
 11
540.059761991517
 21
28.275305615644587
 31
0.0
  0
LINE
  5
26E
330
17
100
AcDbEntity
  8
BOUNDARY
100
AcDbLine
 10
540.059761991517
 20
28.275305615644587
 30
0.0
 11
540.0593310335408
 21
28.27510341169248
 31
0.0
  0
LINE
  5
26F
330
17
100
AcDbEntity
  8
BOUNDARY
100
AcDbLine
 10
540.0593310335408
 20
28.27510341169248
 30
0.0
 11
540.0589009786829
 21
28.274899055720567
 31
0.0
  0
LINE
  5
270
330
17
100
AcDbEntity
  8
BOUNDARY
100
AcDbLine
 10
540.0589009786829
 20
28.274899055720567
 30
0.0
 11
540.0584718364931
 21
28.2746925522617
 31
0.0
  0
LINE
  5
271
330
17
100
AcDbEntity
  8
BOUNDARY
100
AcDbLine
 10
540.0584718364931
 20
28.2746925522617
 30
0.0
 11
540.0580436165014
 21
28.274483905896382
 31
0.0
  0
LINE
  5
272
330
17
100
AcDbEntity
  8
BOUNDARY
100
AcDbLine
 10
540.0580436165014
 20
28.274483905896382
 30
0.0
 11
540.057616328217
 21
28.27427312125267
 31
0.0
  0
LINE
  5
273
330
17
100
AcDbEntity
  8
BOUNDARY
100
AcDbLine
 10
540.057616328217
 20
28.27427312125267
 30
0.0
 11
540.0571899811285
 21
28.274060203006044
 31
0.0
  0
LINE
  5
274
330
17
100
AcDbEntity
  8
BOUNDARY
100
AcDbLine
 10
540.0571899811285
 20
28.274060203006044
 30
0.0
 11
540.0567645847037
 21
28.273845155879343
 31
0.0
  0
LINE
  5
275
330
17
100
AcDbEntity
  8
BOUNDARY
100
AcDbLine
 10
540.0567645847037
 20
28.273845155879343
 30
0.0
 11
540.0563401483892
 21
28.273627984642612
 31
0.0
  0
LINE
  5
276
330
17
100
AcDbEntity
  8
BOUNDARY
100
AcDbLine
 10
540.0563401483892
 20
28.273627984642612
 30
0.0
 11
540.05591668161
 21
28.273408694113048
 31
0.0
  0
LINE
  5
277
330
17
100
AcDbEntity
  8
BOUNDARY
100
AcDbLine
 10
540.05591668161
 20
28.273408694113048
 30
0.0
 11
540.0554941937702
 21
28.273187289154862
 31
0.0
  0
LINE
  5
278
330
17
100
AcDbEntity
  8
BOUNDARY
100
AcDbLine
 10
540.0554941937702
 20
28.273187289154862
 30
0.0
 11
540.0550726942515
 21
28.272963774679177
 31
0.0
  0
LINE
  5
279
330
17
100
AcDbEntity
  8
BOUNDARY
100
AcDbLine
 10
540.0550726942515
 20
28.272963774679177
 30
0.0
 11
540.0546521924143
 21
28.272738155643918
 31
0.0
  0
LINE
  5
27A
330
17
100
AcDbEntity
  8
BOUNDARY
100
AcDbLine
 10
540.0546521924143
 20
28.272738155643918
 30
0.0
 11
540.0542326975961
 21
28.272510437053707
 31
0.0
  0
LINE
  5
27B
330
17
100
AcDbEntity
  8
BOUNDARY
100
AcDbLine
 10
540.0542326975961
 20
28.272510437053707
 30
0.0
 11
540.0538142191128
 21
28.27228062395977
 31
0.0
  0
LINE
  5
27C
330
17
100
AcDbEntity
  8
BOUNDARY
100
AcDbLine
 10
540.0538142191128
 20
28.27228062395977
 30
0.0
 11
540.0533967662572
 21
28.27204872145978
 31
0.0
  0
LINE
  5
27D
330
17
100
AcDbEntity
  8
BOUNDARY
100
AcDbLine
 10
540.0533967662572
 20
28.27204872145978
 30
0.0
 11
540.0529803482995
 21
28.271814734697774
 31
0.0
  0
LINE
  5
27E
330
17
100
AcDbEntity
  8
BOUNDARY
100
AcDbLine
 10
540.0529803482995
 20
28.271814734697774
 30
0.0
 11
540.0525649744869
 21
28.271578668864052
 31
0.0
  0
LINE
  5
27F
330
17
100
AcDbEntity
  8
BOUNDARY
100
AcDbLine
 10
540.0525649744869
 20
28.271578668864052
 30
0.0
 11
540.0521506540435
 21
28.271340529195037
 31
0.0
  0
LINE
  5
280
330
17
100
AcDbEntity
  8
BOUNDARY
100
AcDbLine
 10
540.0521506540435
 20
28.271340529195037
 30
0.0
 11
540.0517373961699
 21
28.27110032097317
 31
0.0
  0
LINE
  5
281
330
17
100
AcDbEntity
  8
BOUNDARY
100
AcDbLine
 10
540.0517373961699
 20
28.27110032097317
 30
0.0
 11
540.051325210043
 21
28.270858049526787
 31
0.0
  0
LINE
  5
282
330
17
100
AcDbEntity
  8
BOUNDARY
100
AcDbLine
 10
540.051325210043
 20
28.270858049526787
 30
0.0
 11
540.0509141048163
 21
28.270613720230006
 31
0.0
  0
LINE
  5
283
330
17
100
AcDbEntity
  8
BOUNDARY
100
AcDbLine
 10
540.0509141048163
 20
28.270613720230006
 30
0.0
 11
540.0505040896189
 21
28.270367338502616
 31
0.0
  0
LINE
  5
284
330
17
100
AcDbEntity
  8
BOUNDARY
100
AcDbLine
 10
540.0505040896189
 20
28.270367338502616
 30
0.0
 11
540.0500951735559
 21
28.27011890980995
 31
0.0
  0
LINE
  5
285
330
17
100
AcDbEntity
  8
BOUNDARY
100
AcDbLine
 10
540.0500951735559
 20
28.27011890980995
 30
0.0
 11
540.0496873657078
 21
28.26986843966275
 31
0.0
  0
LINE
  5
286
330
17
100
AcDbEntity
  8
BOUNDARY
100
AcDbLine
 10
540.0496873657078
 20
28.26986843966275
 30
0.0
 11
540.0492806751306
 21
28.269615933617068
 31
0.0
  0
LINE
  5
287
330
17
100
AcDbEntity
  8
BOUNDARY
100
AcDbLine
 10
540.0492806751306
 20
28.269615933617068
 30
0.0
 11
540.0488751108556
 21
28.269361397274135
 31
0.0
  0
LINE
  5
288
330
17
100
AcDbEntity
  8
BOUNDARY
100
AcDbLine
 10
540.0488751108556
 20
28.269361397274135
 30
0.0
 11
540.0484706818891
 21
28.269104836280228
 31
0.0
  0
LINE
  5
289
330
17
100
AcDbEntity
  8
BOUNDARY
100
AcDbLine
 10
540.0484706818891
 20
28.269104836280228
 30
0.0
 11
540.0480673972119
 21
28.268846256326565
 31
0.0
  0
LINE
  5
28A
330
17
100
AcDbEntity
  8
BOUNDARY
100
AcDbLine
 10
540.0480673972119
 20
28.268846256326565
 30
0.0
 11
540.0476652657795
 21
28.268585663149157
 31
0.0
  0
LINE
  5
28B
330
17
100
AcDbEntity
  8
BOUNDARY
100
AcDbLine
 10
540.0476652657795
 20
28.268585663149157
 30
0.0
 11
540.0472642965221
 21
28.26832306252869
 31
0.0
  0
LINE
  5
28C
330
17
100
AcDbEntity
  8
BOUNDARY
100
AcDbLine
 10
540.0472642965221
 20
28.26832306252869
 30
0.0
 11
540.0468644983437
 21
28.268058460290412
 31
0.0
  0
LINE
  5
28D
330
17
100
AcDbEntity
  8
BOUNDARY
100
AcDbLine
 10
540.0468644983437
 20
28.268058460290412
 30
0.0
 11
540.0464658801225
 21
28.26779186230397
 31
0.0
  0
LINE
  5
28E
330
17
100
AcDbEntity
  8
BOUNDARY
100
AcDbLine
 10
540.0464658801225
 20
28.26779186230397
 30
0.0
 11
540.0460684507103
 21
28.26752327448332
 31
0.0
  0
LINE
  5
28F
330
17
100
AcDbEntity
  8
BOUNDARY
100
AcDbLine
 10
540.0460684507103
 20
28.26752327448332
 30
0.0
 11
540.0456722189329
 21
28.267252702786568
 31
0.0
  0
LINE
  5
290
330
17
100
AcDbEntity
  8
BOUNDARY
100
AcDbLine
 10
540.0456722189329
 20
28.267252702786568
 30
0.0
 11
540.045277193589
 21
28.26698015321585
 31
0.0
  0
LINE
  5
291
330
17
100
AcDbEntity
  8
BOUNDARY
100
AcDbLine
 10
540.045277193589
 20
28.26698015321585
 30
0.0
 11
540.044883383451
 21
28.266705631817196
 31
0.0
  0
LINE
  5
292
330
17
100
AcDbEntity
  8
BOUNDARY
100
AcDbLine
 10
540.044883383451
 20
28.266705631817196
 30
0.0
 11
540.0444907972637
 21
28.266429144680387
 31
0.0
  0
LINE
  5
293
330
17
100
AcDbEntity
  8
BOUNDARY
100
AcDbLine
 10
540.0444907972637
 20
28.266429144680387
 30
0.0
 11
540.0440994437455
 21
28.266150697938855
 31
0.0
  0
LINE
  5
294
330
17
100
AcDbEntity
  8
BOUNDARY
100
AcDbLine
 10
540.0440994437455
 20
28.266150697938855
 30
0.0
 11
540.0437093315868
 21
28.265870297769496
 31
0.0
  0
LINE
  5
295
330
17
100
AcDbEntity
  8
BOUNDARY
100
AcDbLine
 10
540.0437093315868
 20
28.265870297769496
 30
0.0
 11
540.0433204694508
 21
28.265587950392568
 31
0.0
  0
LINE
  5
296
330
17
100
AcDbEntity
  8
BOUNDARY
100
AcDbLine
 10
540.0433204694508
 20
28.265587950392568
 30
0.0
 11
540.0429328659726
 21
28.26530366207156
 31
0.0
  0
LINE
  5
297
330
17
100
AcDbEntity
  8
BOUNDARY
100
AcDbLine
 10
540.0429328659726
 20
28.26530366207156
 30
0.0
 11
540.0425465297596
 21
28.26501743911302
 31
0.0
  0
LINE
  5
298
330
17
100
AcDbEntity
  8
BOUNDARY
100
AcDbLine
 10
540.0425465297596
 20
28.26501743911302
 30
0.0
 11
540.0421614693911
 21
28.26472928786644
 31
0.0
  0
LINE
  5
299
330
17
100
AcDbEntity
  8
BOUNDARY
100
AcDbLine
 10
540.0421614693911
 20
28.26472928786644
 30
0.0
 11
540.0417776934179
 21
28.26443921472412
 31
0.0
  0
LINE
  5
29A
330
17
100
AcDbEntity
  8
BOUNDARY
100
AcDbLine
 10
540.0417776934179
 20
28.26443921472412
 30
0.0
 11
540.0413952103623
 21
28.264147226121008
 31
0.0
  0
LINE
  5
29B
330
17
100
AcDbEntity
  8
BOUNDARY
100
AcDbLine
 10
540.0413952103623
 20
28.264147226121008
 30
0.0
 11
540.0410140287181
 21
28.26385332853455
 31
0.0
  0
LINE
  5
29C
330
17
100
AcDbEntity
  8
BOUNDARY
100
AcDbLine
 10
540.0410140287181
 20
28.26385332853455
 30
0.0
 11
540.04063415695
 21
28.2635575284846
 31
0.0
  0
LINE
  5
29D
330
17
100
AcDbEntity
  8
BOUNDARY
100
AcDbLine
 10
540.04063415695
 20
28.2635575284846
 30
0.0
 11
540.0402556034934
 21
28.2632598325332
 31
0.0
  0
LINE
  5
29E
330
17
100
AcDbEntity
  8
BOUNDARY
100
AcDbLine
 10
540.0402556034934
 20
28.2632598325332
 30
0.0
 11
540.0398783767549
 21
28.262960247284518
 31
0.0
  0
LINE
  5
29F
330
17
100
AcDbEntity
  8
BOUNDARY
100
AcDbLine
 10
540.0398783767549
 20
28.262960247284518
 30
0.0
 11
540.0395024851114
 21
28.26265877938461
 31
0.0
  0
LINE
  5
2A0
330
17
100
AcDbEntity
  8
BOUNDARY
100
AcDbLine
 10
540.0395024851114
 20
28.26265877938461
 30
0.0
 11
540.0391279369101
 21
28.262355435521346
 31
0.0
  0
LINE
  5
2A1
330
17
100
AcDbEntity
  8
BOUNDARY
100
AcDbLine
 10
540.0391279369101
 20
28.262355435521346
 30
0.0
 11
540.0387547404684
 21
28.26205022242424
 31
0.0
  0
LINE
  5
2A2
330
17
100
AcDbEntity
  8
BOUNDARY
100
AcDbLine
 10
540.0387547404684
 20
28.26205022242424
 30
0.0
 11
540.0383829040738
 21
28.261743146864287
 31
0.0
  0
LINE
  5
2A3
330
17
100
AcDbEntity
  8
BOUNDARY
100
AcDbLine
 10
540.0383829040738
 20
28.261743146864287
 30
0.0
 11
540.0380124359835
 21
28.261434215653825
 31
0.0
  0
LINE
  5
2A4
330
17
100
AcDbEntity
  8
BOUNDARY
100
AcDbLine
 10
540.0380124359835
 20
28.261434215653825
 30
0.0
 11
540.0376433444244
 21
28.261123435646397
 31
0.0
  0
LINE
  5
2A5
330
17
100
AcDbEntity
  8
BOUNDARY
100
AcDbLine
 10
540.0376433444244
 20
28.261123435646397
 30
0.0
 11
540.0372756375925
 21
28.260810813736562
 31
0.0
  0
LINE
  5
2A6
330
17
100
AcDbEntity
  8
BOUNDARY
100
AcDbLine
 10
540.0372756375925
 20
28.260810813736562
 30
0.0
 11
540.0369093236536
 21
28.260496356859793
 31
0.0
  0
LINE
  5
2A7
330
17
100
AcDbEntity
  8
BOUNDARY
100
AcDbLine
 10
540.0369093236536
 20
28.260496356859793
 30
0.0
 11
540.0365444107421
 21
28.260180071992277
 31
0.0
  0
LINE
  5
2A8
330
17
100
AcDbEntity
  8
BOUNDARY
100
AcDbLine
 10
540.0365444107421
 20
28.260180071992277
 30
0.0
 11
540.0361809069615
 21
28.259861966150783
 31
0.0
  0
LINE
  5
2A9
330
17
100
AcDbEntity
  8
BOUNDARY
100
AcDbLine
 10
540.0361809069615
 20
28.259861966150783
 30
0.0
 11
540.035818820384
 21
28.259542046392514
 31
0.0
  0
LINE
  5
2AA
330
17
100
AcDbEntity
  8
BOUNDARY
100
AcDbLine
 10
540.035818820384
 20
28.259542046392514
 30
0.0
 11
540.0354581590502
 21
28.25922031981494
 31
0.0
  0
LINE
  5
2AB
330
17
100
AcDbEntity
  8
BOUNDARY
100
AcDbLine
 10
540.0354581590502
 20
28.25922031981494
 30
0.0
 11
540.0350989309693
 21
28.258896793555632
 31
0.0
  0
LINE
  5
2AC
330
17
100
AcDbEntity
  8
BOUNDARY
100
AcDbLine
 10
540.0350989309693
 20
28.258896793555632
 30
0.0
 11
540.0347411441184
 21
28.25857147479212
 31
0.0
  0
LINE
  5
2AD
330
17
100
AcDbEntity
  8
BOUNDARY
100
AcDbLine
 10
540.0347411441184
 20
28.25857147479212
 30
0.0
 11
540.0343848064427
 21
28.258244370741732
 31
0.0
  0
LINE
  5
2AE
330
17
100
AcDbEntity
  8
BOUNDARY
100
AcDbLine
 10
540.0343848064427
 20
28.258244370741732
 30
0.0
 11
540.0340299258555
 21
28.25791548866143
 31
0.0
  0
LINE
  5
2AF
330
17
100
AcDbEntity
  8
BOUNDARY
100
AcDbLine
 10
540.0340299258555
 20
28.25791548866143
 30
0.0
 11
540.0336765102372
 21
28.257584835847638
 31
0.0
  0
LINE
  5
2B0
330
17
100
AcDbEntity
  8
BOUNDARY
100
AcDbLine
 10
540.0336765102372
 20
28.257584835847638
 30
0.0
 11
540.0333245674361
 21
28.257252419636114
 31
0.0
  0
LINE
  5
2B1
330
17
100
AcDbEntity
  8
BOUNDARY
100
AcDbLine
 10
540.0333245674361
 20
28.257252419636114
 30
0.0
 11
540.0329741052675
 21
28.256918247401753
 31
0.0
  0
LINE
  5
2B2
330
17
100
AcDbEntity
  8
BOUNDARY
100
AcDbLine
 10
540.0329741052675
 20
28.256918247401753
 30
0.0
 11
540.032625131514
 21
28.25658232655844
 31
0.0
  0
LINE
  5
2B3
330
17
100
AcDbEntity
  8
BOUNDARY
100
AcDbLine
 10
540.032625131514
 20
28.25658232655844
 30
0.0
 11
540.0322776539252
 21
28.256244664558878
 31
0.0
  0
LINE
  5
2B4
330
17
100
AcDbEntity
  8
BOUNDARY
100
AcDbLine
 10
540.0322776539252
 20
28.256244664558878
 30
0.0
 11
540.0319316802174
 21
28.25590526889445
 31
0.0
  0
LINE
  5
2B5
330
17
100
AcDbEntity
  8
BOUNDARY
100
AcDbLine
 10
540.0319316802174
 20
28.25590526889445
 30
0.0
 11
540.0315872180735
 21
28.255564147094997
 31
0.0
  0
LINE
  5
2B6
330
17
100
AcDbEntity
  8
BOUNDARY
100
AcDbLine
 10
540.0315872180735
 20
28.255564147094997
 30
0.0
 11
540.0312442751425
 21
28.255221306728718
 31
0.0
  0
LINE
  5
2B7
330
17
100
AcDbEntity
  8
BOUNDARY
100
AcDbLine
 10
540.0312442751425
 20
28.255221306728718
 30
0.0
 11
540.0309028590405
 21
28.254876755401952
 31
0.0
  0
LINE
  5
2B8
330
17
100
AcDbEntity
  8
BOUNDARY
100
AcDbLine
 10
540.0309028590405
 20
28.254876755401952
 30
0.0
 11
540.0305629773487
 21
28.25453050075904
 31
0.0
  0
LINE
  5
2B9
330
17
100
AcDbEntity
  8
BOUNDARY
100
AcDbLine
 10
540.0305629773487
 20
28.25453050075904
 30
0.0
 11
540.030224637615
 21
28.25418255048213
 31
0.0
  0
LINE
  5
2BA
330
17
100
AcDbEntity
  8
BOUNDARY
100
AcDbLine
 10
540.030224637615
 20
28.25418255048213
 30
0.0
 11
540.0298878473526
 21
28.253832912291045
 31
0.0
  0
LINE
  5
2BB
330
17
100
AcDbEntity
  8
BOUNDARY
100
AcDbLine
 10
540.0298878473526
 20
28.253832912291045
 30
0.0
 11
540.0295526140407
 21
28.253481593943064
 31
0.0
  0
LINE
  5
2BC
330
17
100
AcDbEntity
  8
BOUNDARY
100
AcDbLine
 10
540.0295526140407
 20
28.253481593943064
 30
0.0
 11
540.0292189451234
 21
28.253128603232785
 31
0.0
  0
LINE
  5
2BD
330
17
100
AcDbEntity
  8
BOUNDARY
100
AcDbLine
 10
540.0292189451234
 20
28.253128603232785
 30
0.0
 11
540.0288868480105
 21
28.252773947991944
 31
0.0
  0
LINE
  5
2BE
330
17
100
AcDbEntity
  8
BOUNDARY
100
AcDbLine
 10
540.0288868480105
 20
28.252773947991944
 30
0.0
 11
540.0285563300768
 21
28.252417636089238
 31
0.0
  0
LINE
  5
2BF
330
17
100
AcDbEntity
  8
BOUNDARY
100
AcDbLine
 10
540.0285563300768
 20
28.252417636089238
 30
0.0
 11
540.0282273986617
 21
28.25205967543015
 31
0.0
  0
LINE
  5
2C0
330
17
100
AcDbEntity
  8
BOUNDARY
100
AcDbLine
 10
540.0282273986617
 20
28.25205967543015
 30
0.0
 11
540.0279000610699
 21
28.25170007395679
 31
0.0
  0
LINE
  5
2C1
330
17
100
AcDbEntity
  8
BOUNDARY
100
AcDbLine
 10
540.0279000610699
 20
28.25170007395679
 30
0.0
 11
540.0275743245703
 21
28.251338839647683
 31
0.0
  0
LINE
  5
2C2
330
17
100
AcDbEntity
  8
BOUNDARY
100
AcDbLine
 10
540.0275743245703
 20
28.251338839647683
 30
0.0
 11
540.0272501963965
 21
28.25097598051764
 31
0.0
  0
LINE
  5
2C3
330
17
100
AcDbEntity
  8
BOUNDARY
100
AcDbLine
 10
540.0272501963965
 20
28.25097598051764
 30
0.0
 11
540.0269276837462
 21
28.25061150461754
 31
0.0
  0
LINE
  5
2C4
330
17
100
AcDbEntity
  8
BOUNDARY
100
AcDbLine
 10
540.0269276837462
 20
28.25061150461754
 30
0.0
 11
540.0266067937813
 21
28.250245420034183
 31
0.0
  0
LINE
  5
2C5
330
17
100
AcDbEntity
  8
BOUNDARY
100
AcDbLine
 10
540.0266067937813
 20
28.250245420034183
 30
0.0
 11
540.0262875336277
 21
28.249877734890077
 31
0.0
  0
LINE
  5
2C6
330
17
100
AcDbEntity
  8
BOUNDARY
100
AcDbLine
 10
540.0262875336277
 20
28.249877734890077
 30
0.0
 11
540.025969910375
 21
28.24950845734329
 31
0.0
  0
LINE
  5
2C7
330
17
100
AcDbEntity
  8
BOUNDARY
100
AcDbLine
 10
540.025969910375
 20
28.24950845734329
 30
0.0
 11
540.0256539310767
 21
28.249137595587264
 31
0.0
  0
LINE
  5
2C8
330
17
100
AcDbEntity
  8
BOUNDARY
100
AcDbLine
 10
540.0256539310767
 20
28.249137595587264
 30
0.0
 11
540.0253396027495
 21
28.248765157850602
 31
0.0
  0
LINE
  5
2C9
330
17
100
AcDbEntity
  8
BOUNDARY
100
AcDbLine
 10
540.0253396027495
 20
28.248765157850602
 30
0.0
 11
540.0250269323734
 21
28.248391152396938
 31
0.0
  0
LINE
  5
2CA
330
17
100
AcDbEntity
  8
BOUNDARY
100
AcDbLine
 10
540.0250269323734
 20
28.248391152396938
 30
0.0
 11
540.024715926892
 21
28.2480155875247
 31
0.0
  0
LINE
  5
2CB
330
17
100
AcDbEntity
  8
BOUNDARY
100
AcDbLine
 10
540.024715926892
 20
28.2480155875247
 30
0.0
 11
540.0244065932114
 21
28.247638471566994
 31
0.0
  0
LINE
  5
2CC
330
17
100
AcDbEntity
  8
BOUNDARY
100
AcDbLine
 10
540.0244065932114
 20
28.247638471566994
 30
0.0
 11
540.0240989382011
 21
28.24725981289133
 31
0.0
  0
LINE
  5
2CD
330
17
100
AcDbEntity
  8
BOUNDARY
100
AcDbLine
 10
540.0240989382011
 20
28.24725981289133
 30
0.0
 11
540.023792968693
 21
28.246879619899506
 31
0.0
  0
LINE
  5
2CE
330
17
100
AcDbEntity
  8
BOUNDARY
100
AcDbLine
 10
540.023792968693
 20
28.246879619899506
 30
0.0
 11
540.0234886914815
 21
28.246497901027414
 31
0.0
  0
LINE
  5
2CF
330
17
100
AcDbEntity
  8
BOUNDARY
100
AcDbLine
 10
540.0234886914815
 20
28.246497901027414
 30
0.0
 11
540.0231861133236
 21
28.246114664744827
 31
0.0
  0
LINE
  5
2D0
330
17
100
AcDbEntity
  8
BOUNDARY
100
AcDbLine
 10
540.0231861133236
 20
28.246114664744827
 30
0.0
 11
540.0228852409386
 21
28.24572991955522
 31
0.0
  0
LINE
  5
2D1
330
17
100
AcDbEntity
  8
BOUNDARY
100
AcDbLine
 10
540.0228852409386
 20
28.24572991955522
 30
0.0
 11
540.0225860810078
 21
28.2453436739956
 31
0.0
  0
LINE
  5
2D2
330
17
100
AcDbEntity
  8
BOUNDARY
100
AcDbLine
 10
540.0225860810078
 20
28.2453436739956
 30
0.0
 11
540.0222886401746
 21
28.244955936636295
 31
0.0
  0
LINE
  5
2D3
330
17
100
AcDbEntity
  8
BOUNDARY
100
AcDbLine
 10
540.0222886401746
 20
28.244955936636295
 30
0.0
 11
540.021992925044
 21
28.244566716080776
 31
0.0
  0
LINE
  5
2D4
330
17
100
AcDbEntity
  8
BOUNDARY
100
AcDbLine
 10
540.021992925044
 20
28.244566716080776
 30
0.0
 11
540.0216989421829
 21
28.244176020965472
 31
0.0
  0
LINE
  5
2D5
330
17
100
AcDbEntity
  8
BOUNDARY
100
AcDbLine
 10
540.0216989421829
 20
28.244176020965472
 30
0.0
 11
540.0214066981196
 21
28.243783859959553
 31
0.0
  0
LINE
  5
2D6
330
17
100
AcDbEntity
  8
BOUNDARY
100
AcDbLine
 10
540.0214066981196
 20
28.243783859959553
 30
0.0
 11
540.0211161993437
 21
28.243390241764775
 31
0.0
  0
LINE
  5
2D7
330
17
100
AcDbEntity
  8
BOUNDARY
100
AcDbLine
 10
540.0211161993437
 20
28.243390241764775
 30
0.0
 11
540.0208274523065
 21
28.242995175115247
 31
0.0
  0
LINE
  5
2D8
330
17
100
AcDbEntity
  8
BOUNDARY
100
AcDbLine
 10
540.0208274523065
 20
28.242995175115247
 30
0.0
 11
540.0205404634199
 21
28.242598668777283
 31
0.0
  0
LINE
  5
2D9
330
17
100
AcDbEntity
  8
BOUNDARY
100
AcDbLine
 10
540.0205404634199
 20
28.242598668777283
 30
0.0
 11
540.0202552390571
 21
28.242200731549154
 31
0.0
  0
LINE
  5
2DA
330
17
100
AcDbEntity
  8
BOUNDARY
100
AcDbLine
 10
540.0202552390571
 20
28.242200731549154
 30
0.0
 11
540.0199717855517
 21
28.241801372260955
 31
0.0
  0
LINE
  5
2DB
330
17
100
AcDbEntity
  8
BOUNDARY
100
AcDbLine
 10
540.0199717855517
 20
28.241801372260955
 30
0.0
 11
540.0196901091983
 21
28.241400599774355
 31
0.0
  0
LINE
  5
2DC
330
17
100
AcDbEntity
  8
BOUNDARY
100
AcDbLine
 10
540.0196901091983
 20
28.241400599774355
 30
0.0
 11
540.0194102162521
 21
28.240998422982436
 31
0.0
  0
LINE
  5
2DD
330
17
100
AcDbEntity
  8
BOUNDARY
100
AcDbLine
 10
540.0194102162521
 20
28.240998422982436
 30
0.0
 11
540.0191321129284
 21
28.240594850809465
 31
0.0
  0
LINE
  5
2DE
330
17
100
AcDbEntity
  8
BOUNDARY
100
AcDbLine
 10
540.0191321129284
 20
28.240594850809465
 30
0.0
 11
540.0188558054031
 21
28.240189892210736
 31
0.0
  0
LINE
  5
2DF
330
17
100
AcDbEntity
  8
BOUNDARY
100
AcDbLine
 10
540.0188558054031
 20
28.240189892210736
 30
0.0
 11
540.0185812998119
 21
28.239783556172345
 31
0.0
  0
LINE
  5
2E0
330
17
100
AcDbEntity
  8
BOUNDARY
100
AcDbLine
 10
540.0185812998119
 20
28.239783556172345
 30
0.0
 11
540.0183086022506
 21
28.239375851710985
 31
0.0
  0
LINE
  5
2E1
330
17
100
AcDbEntity
  8
BOUNDARY
100
AcDbLine
 10
540.0183086022506
 20
28.239375851710985
 30
0.0
 11
540.018037718775
 21
28.23896678787377
 31
0.0
  0
LINE
  5
2E2
330
17
100
AcDbEntity
  8
BOUNDARY
100
AcDbLine
 10
540.018037718775
 20
28.23896678787377
 30
0.0
 11
540.0177686554003
 21
28.238556373738017
 31
0.0
  0
LINE
  5
2E3
330
17
100
AcDbEntity
  8
BOUNDARY
100
AcDbLine
 10
540.0177686554003
 20
28.238556373738017
 30
0.0
 11
540.0175014181018
 21
28.238144618411052
 31
0.0
  0
LINE
  5
2E4
330
17
100
AcDbEntity
  8
BOUNDARY
100
AcDbLine
 10
540.0175014181018
 20
28.238144618411052
 30
0.0
 11
540.0172360128137
 21
28.237731531030008
 31
0.0
  0
LINE
  5
2E5
330
17
100
AcDbEntity
  8
BOUNDARY
100
AcDbLine
 10
540.0172360128137
 20
28.237731531030008
 30
0.0
 11
540.0169724454297
 21
28.23731712076162
 31
0.0
  0
LINE
  5
2E6
330
17
100
AcDbEntity
  8
BOUNDARY
100
AcDbLine
 10
540.0169724454297
 20
28.23731712076162
 30
0.0
 11
540.0167107218028
 21
28.236901396802022
 31
0.0
  0
LINE
  5
2E7
330
17
100
AcDbEntity
  8
BOUNDARY
100
AcDbLine
 10
540.0167107218028
 20
28.236901396802022
 30
0.0
 11
540.0164508477451
 21
28.236484368376548
 31
0.0
  0
LINE
  5
2E8
330
17
100
AcDbEntity
  8
BOUNDARY
100
AcDbLine
 10
540.0164508477451
 20
28.236484368376548
 30
0.0
 11
540.0161928290273
 21
28.23606604473952
 31
0.0
  0
LINE
  5
2E9
330
17
100
AcDbEntity
  8
BOUNDARY
100
AcDbLine
 10
540.0161928290273
 20
28.23606604473952
 30
0.0
 11
540.0159366713792
 21
28.235646435174058
 31
0.0
  0
LINE
  5
2EA
330
17
100
AcDbEntity
  8
BOUNDARY
100
AcDbLine
 10
540.0159366713792
 20
28.235646435174058
 30
0.0
 11
540.0156823804892
 21
28.235225548991842
 31
0.0
  0
LINE
  5
2EB
330
17
100
AcDbEntity
  8
BOUNDARY
100
AcDbLine
 10
540.0156823804892
 20
28.235225548991842
 30
0.0
 11
540.0154299620043
 21
28.23480339553296
 31
0.0
  0
LINE
  5
2EC
330
17
100
AcDbEntity
  8
BOUNDARY
100
AcDbLine
 10
540.0154299620043
 20
28.23480339553296
 30
0.0
 11
540.0151794215296
 21
28.23437998416564
 31
0.0
  0
LINE
  5
2ED
330
17
100
AcDbEntity
  8
BOUNDARY
100
AcDbLine
 10
540.0151794215296
 20
28.23437998416564
 30
0.0
 11
540.0149307646291
 21
28.233955324286093
 31
0.0
  0
LINE
  5
2EE
330
17
100
AcDbEntity
  8
BOUNDARY
100
AcDbLine
 10
540.0149307646291
 20
28.233955324286093
 30
0.0
 11
540.0146839968244
 21
28.233529425318263
 31
0.0
  0
LINE
  5
2EF
330
17
100
AcDbEntity
  8
BOUNDARY
100
AcDbLine
 10
540.0146839968244
 20
28.233529425318263
 30
0.0
 11
540.0144391235953
 21
28.233102296713657
 31
0.0
  0
LINE
  5
2F0
330
17
100
AcDbEntity
  8
BOUNDARY
100
AcDbLine
 10
540.0144391235953
 20
28.233102296713657
 30
0.0
 11
540.0141961503797
 21
28.23267394795111
 31
0.0
  0
LINE
  5
2F1
330
17
100
AcDbEntity
  8
BOUNDARY
100
AcDbLine
 10
540.0141961503797
 20
28.23267394795111
 30
0.0
 11
540.0139550825731
 21
28.23224438853658
 31
0.0
  0
LINE
  5
2F2
330
17
100
AcDbEntity
  8
BOUNDARY
100
AcDbLine
 10
540.0139550825731
 20
28.23224438853658
 30
0.0
 11
540.013715925529
 21
28.23181362800294
 31
0.0
  0
LINE
  5
2F3
330
17
100
AcDbEntity
  8
BOUNDARY
100
AcDbLine
 10
540.013715925529
 20
28.23181362800294
 30
0.0
 11
540.0134786845582
 21
28.23138167590977
 31
0.0
  0
LINE
  5
2F4
330
17
100
AcDbEntity
  8
BOUNDARY
100
AcDbLine
 10
540.0134786845582
 20
28.23138167590977
 30
0.0
 11
540.0132433649288
 21
28.230948541843144
 31
0.0
  0
LINE
  5
2F5
330
17
100
AcDbEntity
  8
BOUNDARY
100
AcDbLine
 10
540.0132433649288
 20
28.230948541843144
 30
0.0
 11
540.0130099718666
 21
28.23051423541542
 31
0.0
  0
LINE
  5
2F6
330
17
100
AcDbEntity
  8
BOUNDARY
100
AcDbLine
 10
540.0130099718666
 20
28.23051423541542
 30
0.0
 11
540.0127785105545
 21
28.230078766264995
 31
0.0
  0
LINE
  5
2F7
330
17
100
AcDbEntity
  8
BOUNDARY
100
AcDbLine
 10
540.0127785105545
 20
28.230078766264995
 30
0.0
 11
540.0125489861324
 21
28.229642144056157
 31
0.0
  0
LINE
  5
2F8
330
17
100
AcDbEntity
  8
BOUNDARY
100
AcDbLine
 10
540.0125489861324
 20
28.229642144056157
 30
0.0
 11
540.0123214036972
 21
28.229204378478812
 31
0.0
  0
LINE
  5
2F9
330
17
100
AcDbEntity
  8
BOUNDARY
100
AcDbLine
 10
540.0123214036972
 20
28.229204378478812
 30
0.0
 11
540.0120957683029
 21
28.228765479248292
 31
0.0
  0
LINE
  5
2FA
330
17
100
AcDbEntity
  8
BOUNDARY
100
AcDbLine
 10
540.0120957683029
 20
28.228765479248292
 30
0.0
 11
540.0118720849599
 21
28.228325456105146
 31
0.0
  0
LINE
  5
2FB
330
17
100
AcDbEntity
  8
BOUNDARY
100
AcDbLine
 10
540.0118720849599
 20
28.228325456105146
 30
0.0
 11
540.0116503586355
 21
28.22788431881491
 31
0.0
  0
LINE
  5
2FC
330
17
100
AcDbEntity
  8
BOUNDARY
100
AcDbLine
 10
540.0116503586355
 20
28.22788431881491
 30
0.0
 11
540.0114305942534
 21
28.227442077167893
 31
0.0
  0
LINE
  5
2FD
330
17
100
AcDbEntity
  8
BOUNDARY
100
AcDbLine
 10
540.0114305942534
 20
28.227442077167893
 30
0.0
 11
540.011212796694
 21
28.226998740978974
 31
0.0
  0
LINE
  5
2FE
330
17
100
AcDbEntity
  8
BOUNDARY
100
AcDbLine
 10
540.011212796694
 20
28.226998740978974
 30
0.0
 11
540.0109969707937
 21
28.226554320087374
 31
0.0
  0
LINE
  5
2FF
330
17
100
AcDbEntity
  8
BOUNDARY
100
AcDbLine
 10
540.0109969707937
 20
28.226554320087374
 30
0.0
 11
540.0107831213453
 21
28.22610882435643
 31
0.0
  0
LINE
  5
300
330
17
100
AcDbEntity
  8
BOUNDARY
100
AcDbLine
 10
540.0107831213453
 20
28.22610882435643
 30
0.0
 11
540.0105712530977
 21
28.225662263673403
 31
0.0
  0
LINE
  5
301
330
17
100
AcDbEntity
  8
BOUNDARY
100
AcDbLine
 10
540.0105712530977
 20
28.225662263673403
 30
0.0
 11
540.0103613707557
 21
28.225214647949215
 31
0.0
  0
LINE
  5
302
330
17
100
AcDbEntity
  8
BOUNDARY
100
AcDbLine
 10
540.0103613707557
 20
28.225214647949215
 30
0.0
 11
540.0101534789801
 21
28.224765987118275
 31
0.0
  0
LINE
  5
303
330
17
100
AcDbEntity
  8
BOUNDARY
100
AcDbLine
 10
540.0101534789801
 20
28.224765987118275
 30
0.0
 11
540.0099475823873
 21
28.22431629113824
 31
0.0
  0
LINE
  5
304
330
17
100
AcDbEntity
  8
BOUNDARY
100
AcDbLine
 10
540.0099475823873
 20
28.22431629113824
 30
0.0
 11
540.0097436855499
 21
28.223865569989783
 31
0.0
  0
LINE
  5
305
330
17
100
AcDbEntity
  8
BOUNDARY
100
AcDbLine
 10
540.0097436855499
 20
28.223865569989783
 30
0.0
 11
540.0095417929955
 21
28.223413833676396
 31
0.0
  0
LINE
  5
306
330
17
100
AcDbEntity
  8
BOUNDARY
100
AcDbLine
 10
540.0095417929955
 20
28.223413833676396
 30
0.0
 11
540.0093419092075
 21
28.222961092224143
 31
0.0
  0
LINE
  5
307
330
17
100
AcDbEntity
  8
BOUNDARY
100
AcDbLine
 10
540.0093419092075
 20
28.222961092224143
 30
0.0
 11
540.0091440386245
 21
28.22250735568146
 31
0.0
  0
LINE
  5
308
330
17
100
AcDbEntity
  8
BOUNDARY
100
AcDbLine
 10
540.0091440386245
 20
28.22250735568146
 30
0.0
 11
540.0089481856407
 21
28.222052634118914
 31
0.0
  0
LINE
  5
309
330
17
100
AcDbEntity
  8
BOUNDARY
100
AcDbLine
 10
540.0089481856407
 20
28.222052634118914
 30
0.0
 11
540.0087543546055
 21
28.221596937628988
 31
0.0
  0
LINE
  5
30A
330
17
100
AcDbEntity
  8
BOUNDARY
100
AcDbLine
 10
540.0087543546055
 20
28.221596937628988
 30
0.0
 11
540.0085625498227
 21
28.221140276325862
 31
0.0
  0
LINE
  5
30B
330
17
100
AcDbEntity
  8
BOUNDARY
100
AcDbLine
 10
540.0085625498227
 20
28.221140276325862
 30
0.0
 11
540.0083727755521
 21
28.220682660345194
 31
0.0
  0
LINE
  5
30C
330
17
100
AcDbEntity
  8
BOUNDARY
100
AcDbLine
 10
540.0083727755521
 20
28.220682660345194
 30
0.0
 11
540.0081850360077
 21
28.220224099843865
 31
0.0
  0
LINE
  5
30D
330
17
100
AcDbEntity
  8
BOUNDARY
100
AcDbLine
 10
540.0081850360077
 20
28.220224099843865
 30
0.0
 11
540.0079993353587
 21
28.219764604999792
 31
0.0
  0
LINE
  5
30E
330
17
100
AcDbEntity
  8
BOUNDARY
100
AcDbLine
 10
540.0079993353587
 20
28.219764604999792
 30
0.0
 11
540.0078156777287
 21
28.219304186011676
 31
0.0
  0
LINE
  5
30F
330
17
100
AcDbEntity
  8
BOUNDARY
100
AcDbLine
 10
540.0078156777287
 20
28.219304186011676
 30
0.0
 11
540.0076340671962
 21
28.21884285309879
 31
0.0
  0
LINE
  5
310
330
17
100
AcDbEntity
  8
BOUNDARY
100
AcDbLine
 10
540.0076340671962
 20
28.21884285309879
 30
0.0
 11
540.0074545077941
 21
28.218380616500742
 31
0.0
  0
LINE
  5
311
330
17
100
AcDbEntity
  8
BOUNDARY
100
AcDbLine
 10
540.0074545077941
 20
28.218380616500742
 30
0.0
 11
540.00727700351
 21
28.217917486477255
 31
0.0
  0
LINE
  5
312
330
17
100
AcDbEntity
  8
BOUNDARY
100
AcDbLine
 10
540.00727700351
 20
28.217917486477255
 30
0.0
 11
540.0071015582854
 21
28.21745347330795
 31
0.0
  0
LINE
  5
313
330
17
100
AcDbEntity
  8
BOUNDARY
100
AcDbLine
 10
540.0071015582854
 20
28.21745347330795
 30
0.0
 11
540.0069281760163
 21
28.21698858729209
 31
0.0
  0
LINE
  5
314
330
17
100
AcDbEntity
  8
BOUNDARY
100
AcDbLine
 10
540.0069281760163
 20
28.21698858729209
 30
0.0
 11
540.0067568605533
 21
28.21652283874838
 31
0.0
  0
LINE
  5
315
330
17
100
AcDbEntity
  8
BOUNDARY
100
AcDbLine
 10
540.0067568605533
 20
28.21652283874838
 30
0.0
 11
540.0065876157004
 21
28.216056238014716
 31
0.0
  0
LINE
  5
316
330
17
100
AcDbEntity
  8
BOUNDARY
100
AcDbLine
 10
540.0065876157004
 20
28.216056238014716
 30
0.0
 11
540.006420445216
 21
28.215588795447974
 31
0.0
  0
LINE
  5
317
330
17
100
AcDbEntity
  8
BOUNDARY
100
AcDbLine
 10
540.006420445216
 20
28.215588795447974
 30
0.0
 11
540.0062553528124
 21
28.21512052142378
 31
0.0
  0
LINE
  5
318
330
17
100
AcDbEntity
  8
BOUNDARY
100
AcDbLine
 10
540.0062553528124
 20
28.21512052142378
 30
0.0
 11
540.0060923421559
 21
28.214651426336253
 31
0.0
  0
LINE
  5
319
330
17
100
AcDbEntity
  8
BOUNDARY
100
AcDbLine
 10
540.0060923421559
 20
28.214651426336253
 30
0.0
 11
540.005931416866
 21
28.214181520597815
 31
0.0
  0
LINE
  5
31A
330
17
100
AcDbEntity
  8
BOUNDARY
100
AcDbLine
 10
540.005931416866
 20
28.214181520597815
 30
0.0
 11
540.0057725805168
 21
28.213710814638922
 31
0.0
  0
LINE
  5
31B
330
17
100
AcDbEntity
  8
BOUNDARY
100
AcDbLine
 10
540.0057725805168
 20
28.213710814638922
 30
0.0
 11
540.0056158366352
 21
28.213239318907863
 31
0.0
  0
LINE
  5
31C
330
17
100
AcDbEntity
  8
BOUNDARY
100
AcDbLine
 10
540.0056158366352
 20
28.213239318907863
 30
0.0
 11
540.0054611887019
 21
28.212767043870507
 31
0.0
  0
LINE
  5
31D
330
17
100
AcDbEntity
  8
BOUNDARY
100
AcDbLine
 10
540.0054611887019
 20
28.212767043870507
 30
0.0
 11
540.0053086401514
 21
28.212294000010086
 31
0.0
  0
LINE
  5
31E
330
17
100
AcDbEntity
  8
BOUNDARY
100
AcDbLine
 10
540.0053086401514
 20
28.212294000010086
 30
0.0
 11
540.005158194371
 21
28.211820197826963
 31
0.0
  0
LINE
  5
31F
330
17
100
AcDbEntity
  8
BOUNDARY
100
AcDbLine
 10
540.005158194371
 20
28.211820197826963
 30
0.0
 11
540.0050098547017
 21
28.211345647838378
 31
0.0
  0
LINE
  5
320
330
17
100
AcDbEntity
  8
BOUNDARY
100
AcDbLine
 10
540.0050098547017
 20
28.211345647838378
 30
0.0
 11
540.0048636244376
 21
28.210870360578227
 31
0.0
  0
LINE
  5
321
330
17
100
AcDbEntity
  8
BOUNDARY
100
AcDbLine
 10
540.0048636244376
 20
28.210870360578227
 30
0.0
 11
540.004719506826
 21
28.21039434659685
 31
0.0
  0
LINE
  5
322
330
17
100
AcDbEntity
  8
BOUNDARY
100
AcDbLine
 10
540.004719506826
 20
28.21039434659685
 30
0.0
 11
540.0045775050672
 21
28.209917616460764
 31
0.0
  0
LINE
  5
323
330
17
100
AcDbEntity
  8
BOUNDARY
100
AcDbLine
 10
540.0045775050672
 20
28.209917616460764
 30
0.0
 11
540.0044376223145
 21
28.209440180752445
 31
0.0
  0
LINE
  5
324
330
17
100
AcDbEntity
  8
BOUNDARY
100
AcDbLine
 10
540.0044376223145
 20
28.209440180752445
 30
0.0
 11
540.0042998616744
 21
28.2089620500701
 31
0.0
  0
LINE
  5
325
330
17
100
AcDbEntity
  8
BOUNDARY
100
AcDbLine
 10
540.0042998616744
 20
28.2089620500701
 30
0.0
 11
540.0041642262061
 21
28.208483235027398
 31
0.0
  0
LINE
  5
326
330
17
100
AcDbEntity
  8
BOUNDARY
100
AcDbLine
 10
540.0041642262061
 20
28.208483235027398
 30
0.0
 11
540.0040307189214
 21
28.208003746253294
 31
0.0
  0
LINE
  5
327
330
17
100
AcDbEntity
  8
BOUNDARY
100
AcDbLine
 10
540.0040307189214
 20
28.208003746253294
 30
0.0
 11
540.0038993427852
 21
28.207523594391734
 31
0.0
  0
LINE
  5
328
330
17
100
AcDbEntity
  8
BOUNDARY
100
AcDbLine
 10
540.0038993427852
 20
28.207523594391734
 30
0.0
 11
540.0037701007147
 21
28.20704279010145
 31
0.0
  0
LINE
  5
329
330
17
100
AcDbEntity
  8
BOUNDARY
100
AcDbLine
 10
540.0037701007147
 20
28.20704279010145
 30
0.0
 11
540.0036429955802
 21
28.206561344055725
 31
0.0
  0
LINE
  5
32A
330
17
100
AcDbEntity
  8
BOUNDARY
100
AcDbLine
 10
540.0036429955802
 20
28.206561344055725
 30
0.0
 11
540.0035180302042
 21
28.206079266942144
 31
0.0
  0
LINE
  5
32B
330
17
100
AcDbEntity
  8
BOUNDARY
100
AcDbLine
 10
540.0035180302042
 20
28.206079266942144
 30
0.0
 11
540.0033952073616
 21
28.20559656946235
 31
0.0
  0
LINE
  5
32C
330
17
100
AcDbEntity
  8
BOUNDARY
100
AcDbLine
 10
540.0033952073616
 20
28.20559656946235
 30
0.0
 11
540.00327452978
 21
28.205113262331842
 31
0.0
  0
LINE
  5
32D
330
17
100
AcDbEntity
  8
BOUNDARY
100
AcDbLine
 10
540.00327452978
 20
28.205113262331842
 30
0.0
 11
540.0031560001391
 21
28.2046293562797
 31
0.0
  0
LINE
  5
32E
330
17
100
AcDbEntity
  8
BOUNDARY
100
AcDbLine
 10
540.0031560001391
 20
28.2046293562797
 30
0.0
 11
540.0030396210714
 21
28.204144862048363
 31
0.0
  0
LINE
  5
32F
330
17
100
AcDbEntity
  8
BOUNDARY
100
AcDbLine
 10
540.0030396210714
 20
28.204144862048363
 30
0.0
 11
540.0029253951608
 21
28.20365979039338
 31
0.0
  0
LINE
  5
330
330
17
100
AcDbEntity
  8
BOUNDARY
100
AcDbLine
 10
540.0029253951608
 20
28.20365979039338
 30
0.0
 11
540.0028133249442
 21
28.203174152083207
 31
0.0
  0
LINE
  5
331
330
17
100
AcDbEntity
  8
BOUNDARY
100
AcDbLine
 10
540.0028133249442
 20
28.203174152083207
 30
0.0
 11
540.0027034129101
 21
28.20268795789891
 31
0.0
  0
LINE
  5
332
330
17
100
AcDbEntity
  8
BOUNDARY
100
AcDbLine
 10
540.0027034129101
 20
28.20268795789891
 30
0.0
 11
540.0025956614995
 21
28.20220121863397
 31
0.0
  0
LINE
  5
333
330
17
100
AcDbEntity
  8
BOUNDARY
100
AcDbLine
 10
540.0025956614995
 20
28.20220121863397
 30
0.0
 11
540.0024900731049
 21
28.20171394509404
 31
0.0
  0
LINE
  5
334
330
17
100
AcDbEntity
  8
BOUNDARY
100
AcDbLine
 10
540.0024900731049
 20
28.20171394509404
 30
0.0
 11
540.0023866500712
 21
28.201226148096687
 31
0.0
  0
LINE
  5
335
330
17
100
AcDbEntity
  8
BOUNDARY
100
AcDbLine
 10
540.0023866500712
 20
28.201226148096687
 30
0.0
 11
540.0022853946951
 21
28.20073783847116
 31
0.0
  0
LINE
  5
336
330
17
100
AcDbEntity
  8
BOUNDARY
100
AcDbLine
 10
540.0022853946951
 20
28.20073783847116
 30
0.0
 11
540.0021863092252
 21
28.200249027058156
 31
0.0
  0
LINE
  5
337
330
17
100
AcDbEntity
  8
BOUNDARY
100
AcDbLine
 10
540.0021863092252
 20
28.200249027058156
 30
0.0
 11
540.0020893958617
 21
28.19975972470957
 31
0.0
  0
LINE
  5
338
330
17
100
AcDbEntity
  8
BOUNDARY
100
AcDbLine
 10
540.0020893958617
 20
28.19975972470957
 30
0.0
 11
540.0019946567568
 21
28.19926994228826
 31
0.0
  0
LINE
  5
339
330
17
100
AcDbEntity
  8
BOUNDARY
100
AcDbLine
 10
540.0019946567568
 20
28.19926994228826
 30
0.0
 11
540.0019020940142
 21
28.19877969066781
 31
0.0
  0
LINE
  5
33A
330
17
100
AcDbEntity
  8
BOUNDARY
100
AcDbLine
 10
540.0019020940142
 20
28.19877969066781
 30
0.0
 11
540.0018117096896
 21
28.198288980732283
 31
0.0
  0
LINE
  5
33B
330
17
100
AcDbEntity
  8
BOUNDARY
100
AcDbLine
 10
540.0018117096896
 20
28.198288980732283
 30
0.0
 11
540.0017235057899
 21
28.19779782337597
 31
0.0
  0
LINE
  5
33C
330
17
100
AcDbEntity
  8
BOUNDARY
100
AcDbLine
 10
540.0017235057899
 20
28.19779782337597
 30
0.0
 11
540.001637484274
 21
28.197306229503173
 31
0.0
  0
LINE
  5
33D
330
17
100
AcDbEntity
  8
BOUNDARY
100
AcDbLine
 10
540.001637484274
 20
28.197306229503173
 30
0.0
 11
540.0015536470521
 21
28.196814210027938
 31
0.0
  0
LINE
  5
33E
330
17
100
AcDbEntity
  8
BOUNDARY
100
AcDbLine
 10
540.0015536470521
 20
28.196814210027938
 30
0.0
 11
540.0014719959859
 21
28.19632177587383
 31
0.0
  0
LINE
  5
33F
330
17
100
AcDbEntity
  8
BOUNDARY
100
AcDbLine
 10
540.0014719959859
 20
28.19632177587383
 30
0.0
 11
540.0013925328885
 21
28.19582893797368
 31
0.0
  0
LINE
  5
340
330
17
100
AcDbEntity
  8
BOUNDARY
100
AcDbLine
 10
540.0013925328885
 20
28.19582893797368
 30
0.0
 11
540.0013152595247
 21
28.19533570726935
 31
0.0
  0
LINE
  5
341
330
17
100
AcDbEntity
  8
BOUNDARY
100
AcDbLine
 10
540.0013152595247
 20
28.19533570726935
 30
0.0
 11
540.0012401776104
 21
28.194842094711483
 31
0.0
  0
LINE
  5
342
330
17
100
AcDbEntity
  8
BOUNDARY
100
AcDbLine
 10
540.0012401776104
 20
28.194842094711483
 30
0.0
 11
540.0011672888128
 21
28.194348111259266
 31
0.0
  0
LINE
  5
343
330
17
100
AcDbEntity
  8
BOUNDARY
100
AcDbLine
 10
540.0011672888128
 20
28.194348111259266
 30
0.0
 11
540.0010965947507
 21
28.19385376788019
 31
0.0
  0
LINE
  5
344
330
17
100
AcDbEntity
  8
BOUNDARY
100
AcDbLine
 10
540.0010965947507
 20
28.19385376788019
 30
0.0
 11
540.0010280969938
 21
28.193359075549793
 31
0.0
  0
LINE
  5
345
330
17
100
AcDbEntity
  8
BOUNDARY
100
AcDbLine
 10
540.0010280969938
 20
28.193359075549793
 30
0.0
 11
540.0009617970633
 21
28.19286404525143
 31
0.0
  0
LINE
  5
346
330
17
100
AcDbEntity
  8
BOUNDARY
100
AcDbLine
 10
540.0009617970633
 20
28.19286404525143
 30
0.0
 11
540.0008976964315
 21
28.192368687976025
 31
0.0
  0
LINE
  5
347
330
17
100
AcDbEntity
  8
BOUNDARY
100
AcDbLine
 10
540.0008976964315
 20
28.192368687976025
 30
0.0
 11
540.0008357965218
 21
28.191873014721814
 31
0.0
  0
LINE
  5
348
330
17
100
AcDbEntity
  8
BOUNDARY
100
AcDbLine
 10
540.0008357965218
 20
28.191873014721814
 30
0.0
 11
540.0007760987087
 21
28.19137703649414
 31
0.0
  0
LINE
  5
349
330
17
100
AcDbEntity
  8
BOUNDARY
100
AcDbLine
 10
540.0007760987087
 20
28.19137703649414
 30
0.0
 11
540.0007186043181
 21
28.19088076430515
 31
0.0
  0
LINE
  5
34A
330
17
100
AcDbEntity
  8
BOUNDARY
100
AcDbLine
 10
540.0007186043181
 20
28.19088076430515
 30
0.0
 11
540.0006633146266
 21
28.190384209173605
 31
0.0
  0
LINE
  5
34B
330
17
100
AcDbEntity
  8
BOUNDARY
100
AcDbLine
 10
540.0006633146266
 20
28.190384209173605
 30
0.0
 11
540.0006102308621
 21
28.189887382124603
 31
0.0
  0
LINE
  5
34C
330
17
100
AcDbEntity
  8
BOUNDARY
100
AcDbLine
 10
540.0006102308621
 20
28.189887382124603
 30
0.0
 11
540.0005593542033
 21
28.18939029418936
 31
0.0
  0
LINE
  5
34D
330
17
100
AcDbEntity
  8
BOUNDARY
100
AcDbLine
 10
540.0005593542033
 20
28.18939029418936
 30
0.0
 11
540.00051068578
 21
28.188892956404917
 31
0.0
  0
LINE
  5
34E
330
17
100
AcDbEntity
  8
BOUNDARY
100
AcDbLine
 10
540.00051068578
 20
28.188892956404917
 30
0.0
 11
540.0004642266731
 21
28.18839537981397
 31
0.0
  0
LINE
  5
34F
330
17
100
AcDbEntity
  8
BOUNDARY
100
AcDbLine
 10
540.0004642266731
 20
28.18839537981397
 30
0.0
 11
540.0004199779141
 21
28.18789757546454
 31
0.0
  0
LINE
  5
350
330
17
100
AcDbEntity
  8
BOUNDARY
100
AcDbLine
 10
540.0004199779141
 20
28.18789757546454
 30
0.0
 11
540.0003779404858
 21
28.187399554409808
 31
0.0
  0
LINE
  5
351
330
17
100
AcDbEntity
  8
BOUNDARY
100
AcDbLine
 10
540.0003779404858
 20
28.187399554409808
 30
0.0
 11
540.0003381153216
 21
28.1869013277078
 31
0.0
  0
LINE
  5
352
330
17
100
AcDbEntity
  8
BOUNDARY
100
AcDbLine
 10
540.0003381153216
 20
28.1869013277078
 30
0.0
 11
540.0003005033059
 21
28.186402906421204
 31
0.0
  0
LINE
  5
353
330
17
100
AcDbEntity
  8
BOUNDARY
100
AcDbLine
 10
540.0003005033059
 20
28.186402906421204
 30
0.0
 11
540.0002651052739
 21
28.18590430161707
 31
0.0
  0
LINE
  5
354
330
17
100
AcDbEntity
  8
BOUNDARY
100
AcDbLine
 10
540.0002651052739
 20
28.18590430161707
 30
0.0
 11
540.0002319220117
 21
28.1854055243666
 31
0.0
  0
LINE
  5
355
330
17
100
AcDbEntity
  8
BOUNDARY
100
AcDbLine
 10
540.0002319220117
 20
28.1854055243666
 30
0.0
 11
540.0002009542562
 21
28.184906585744887
 31
0.0
  0
LINE
  5
356
330
17
100
AcDbEntity
  8
BOUNDARY
100
AcDbLine
 10
540.0002009542562
 20
28.184906585744887
 30
0.0
 11
540.0001722026951
 21
28.184407496830676
 31
0.0
  0
LINE
  5
357
330
17
100
AcDbEntity
  8
BOUNDARY
100
AcDbLine
 10
540.0001722026951
 20
28.184407496830676
 30
0.0
 11
540.0001456679669
 21
28.18390826870611
 31
0.0
  0
LINE
  5
358
330
17
100
AcDbEntity
  8
BOUNDARY
100
AcDbLine
 10
540.0001456679669
 20
28.18390826870611
 30
0.0
 11
540.0001213506606
 21
28.18340891245649
 31
0.0
  0
LINE
  5
359
330
17
100
AcDbEntity
  8
BOUNDARY
100
AcDbLine
 10
540.0001213506606
 20
28.18340891245649
 30
0.0
 11
540.0000992513166
 21
28.18290943917004
 31
0.0
  0
LINE
  5
35A
330
17
100
AcDbEntity
  8
BOUNDARY
100
AcDbLine
 10
540.0000992513166
 20
28.18290943917004
 30
0.0
 11
540.0000793704254
 21
28.182409859937625
 31
0.0
  0
LINE
  5
35B
330
17
100
AcDbEntity
  8
BOUNDARY
100
AcDbLine
 10
540.0000793704254
 20
28.182409859937625
 30
0.0
 11
540.0000617084285
 21
28.18191018585255
 31
0.0
  0
LINE
  5
35C
330
17
100
AcDbEntity
  8
BOUNDARY
100
AcDbLine
 10
540.0000617084285
 20
28.18191018585255
 30
0.0
 11
540.0000462657181
 21
28.181410428010288
 31
0.0
  0
LINE
  5
35D
330
17
100
AcDbEntity
  8
BOUNDARY
100
AcDbLine
 10
540.0000462657181
 20
28.181410428010288
 30
0.0
 11
540.0000330426373
 21
28.18091059750822
 31
0.0
  0
LINE
  5
35E
330
17
100
AcDbEntity
  8
BOUNDARY
100
AcDbLine
 10
540.0000330426373
 20
28.18091059750822
 30
0.0
 11
540.0000220394795
 21
28.180410705445432
 31
0.0
  0
LINE
  5
35F
330
17
100
AcDbEntity
  8
BOUNDARY
100
AcDbLine
 10
540.0000220394795
 20
28.180410705445432
 30
0.0
 11
540.0000132564892
 21
28.17991076292242
 31
0.0
  0
LINE
  5
360
330
17
100
AcDbEntity
  8
BOUNDARY
100
AcDbLine
 10
540.0000132564892
 20
28.17991076292242
 30
0.0
 11
540.0000066938615
 21
28.179410781040893
 31
0.0
  0
LINE
  5
361
330
17
100
AcDbEntity
  8
BOUNDARY
100
AcDbLine
 10
540.0000066938615
 20
28.179410781040893
 30
0.0
 11
540.0000023517418
 21
28.178910770903478
 31
0.0
  0
LINE
  5
362
330
17
100
AcDbEntity
  8
BOUNDARY
100
AcDbLine
 10
540.0000023517418
 20
28.178910770903478
 30
0.0
 11
540.000000230227
 21
28.178410743613494
 31
0.0
  0
LINE
  5
363
330
17
100
AcDbEntity
  8
BOUNDARY
100
AcDbLine
 10
540.000000230227
 20
28.178410743613494
 30
0.0
 11
540.0
 21
28.178183050012294
 31
0.0
  0
LINE
  5
364
330
17
100
AcDbEntity
  8
BOUNDARY
100
AcDbLine
 10
547.7
 20
-28.284271247461902
 30
0.0
 11
540.1
 21
-28.284271247461902
 31
0.0
  0
LINE
  5
365
330
17
100
AcDbEntity
  8
BOUNDARY
100
AcDbLine
 10
547.7
 20
28.284271247461902
 30
0.0
 11
540.1
 21
28.284271247461902
 31
0.0
  0
TEXT
  5
366
330
17
100
AcDbEntity
  8
NOTE
100
AcDbText
 10
495.0
 20
65.0
 30
0.0
 40
2.4
  1
SIDE_X10
100
AcDbText
  0
TEXT
  5
367
330
17
100
AcDbEntity
  8
NOTE
100
AcDbText
 10
-45.0
 20
-120.0
 30
0.0
 40
2.1
  1
R5-LINK45-EROB01 / mm / NOT PRODUCTION RELEASE
100
AcDbText
  0
TEXT
  5
368
330
17
100
AcDbEntity
  8
NOTE
100
AcDbText
 10
-45.0
 20
-124.0
 30
0.0
 40
2.1
  1
O=J4 world(0,0,435), axis-Y; J5=(0,-55,50), axis+Z
100
AcDbText
  0
TEXT
  5
369
330
17
100
AcDbEntity
  8
NOTE
100
AcDbText
 10
-45.0
 20
-128.0
 30
0.0
 40
2.1
  1
J4 disc OD76, localz0..10; rearOD66/ID60+0..019,z-8..0,C.3/innerR.1
100
AcDbText
  0
TEXT
  5
36A
330
17
100
AcDbEntity
  8
NOTE
100
AcDbText
 10
-45.0
 20
-132.0
 30
0.0
 40
2.1
  1
CentreID18; rearreliefID49depth.3;16xID3.4PCD54nonuniform,CB6.2depth3.4floor6.6,C.2
100
AcDbText
  0
TEXT
  5
36B
330
17
100
AcDbEntity
  8
NOTE
100
AcDbText
 10
-45.0
 20
-136.0
 30
0.0
 40
2.1
  1
12 factoryhead reliefsID5.3depth.5; actual CSV coordinates authoritative
100
AcDbText
  0
TEXT
  5
36C
330
17
100
AcDbEntity
  8
NOTE
100
AcDbText
 10
-45.0
 20
-140.0
 30
0.0
 40
2.1
  1
J5 ring OD86/ID67, linkZ38.5..45.5, centreXY(0,-55);12xID3.4PCD74 at15+30k
100
AcDbText
  0
TEXT
  5
36D
330
17
100
AcDbEntity
  8
NOTE
100
AcDbText
 10
-45.0
 20
-144.0
 30
0.0
 40
2.1
  1
PostX+/-14,Y-10..-4,Z30.5..45.5;bridgeX+/-14,Y-24..-4,Z38.5..45.5
100
AcDbText
  0
TEXT
  5
36E
330
17
100
AcDbEntity
  8
NOTE
100
AcDbText
 10
-45.0
 20
-148.0
 30
0.0
 40
2.1
  1
Inside elbowR2 atY-10/Z38.5; ring bore cuts bridge; otheredges nominalsharp
100
AcDbText
  0
TEXT
  5
36F
330
17
100
AcDbEntity
  8
NOTE
100
AcDbText
 10
-45.0
 20
-152.0
 30
0.0
 40
2.1
  1
OEM M3x.35/fullthread/length/SKU TBD, outputeng>=3/fixedeng>=4mm
100
AcDbText
  0
TEXT
  5
370
330
17
100
AcDbEntity
  8
NOTE
100
AcDbText
 10
-45.0
 20
-156.0
 30
0.0
 40
2.1
  1
Head/cables/J3-L34/material/preload/FEA/thermal not validated
100
AcDbText
  0
ENDSEC
  0
SECTION
  2
OBJECTS
  0
DICTIONARY
  5
A
330
0
100
AcDbDictionary
281
1
  3
ACAD_COLOR
350
B
  3
ACAD_GROUP
350
C
  3
ACAD_LAYOUT
350
D
  3
ACAD_MATERIAL
350
E
  3
ACAD_MLEADERSTYLE
350
F
  3
ACAD_MLINESTYLE
350
10
  3
ACAD_PLOTSETTINGS
350
11
  3
ACAD_PLOTSTYLENAME
350
12
  3
ACAD_SCALELIST
350
14
  3
ACAD_TABLESTYLE
350
15
  3
ACAD_VISUALSTYLE
350
16
  3
EZDXF_META
350
2D
  0
DICTIONARY
  5
B
330
A
100
AcDbDictionary
281
1
  0
DICTIONARY
  5
C
330
A
100
AcDbDictionary
281
1
  0
DICTIONARY
  5
D
330
A
100
AcDbDictionary
281
1
  3
Model
350
1A
  3
Layout1
350
1E
  0
DICTIONARY
  5
E
330
A
100
AcDbDictionary
281
1
  3
ByBlock
350
1F
  3
ByLayer
350
20
  3
Global
350
21
  0
DICTIONARY
  5
F
330
A
100
AcDbDictionary
281
1
  3
Standard
350
2C
  0
DICTIONARY
  5
10
330
A
100
AcDbDictionary
281
1
  3
Standard
350
22
  0
DICTIONARY
  5
11
330
A
100
AcDbDictionary
281
1
  0
ACDBDICTIONARYWDFLT
  5
12
330
A
100
AcDbDictionary
281
1
  3
Normal
350
13
100
AcDbDictionaryWithDefault
340
13
  0
ACDBPLACEHOLDER
  5
13
330
12
  0
DICTIONARY
  5
14
330
A
100
AcDbDictionary
281
1
  0
DICTIONARY
  5
15
330
A
100
AcDbDictionary
281
1
  0
DICTIONARY
  5
16
330
A
100
AcDbDictionary
281
1
  0
LAYOUT
  5
1A
330
D
100
AcDbPlotSettings
  1

  4
A3
  6

 40
7.5
 41
20.0
 42
7.5
 43
20.0
 44
420.0
 45
297.0
 46
0.0
 47
0.0
 48
0.0
 49
0.0
140
0.0
141
0.0
142
1.0
143
1.0
 70
1024
 72
1
 73
0
 74
5
  7

 75
16
 76
0
 77
2
 78
300
147
1.0
148
0.0
149
0.0
100
AcDbLayout
  1
Model
 70
1
 71
0
 10
0.0
 20
0.0
 11
420.0
 21
297.0
 12
0.0
 22
0.0
 32
0.0
 14
1e+20
 24
1e+20
 34
1e+20
 15
-1e+20
 25
-1e+20
 35
-1e+20
146
0.0
 13
0.0
 23
0.0
 33
0.0
 16
1.0
 26
0.0
 36
0.0
 17
0.0
 27
1.0
 37
0.0
 76
1
330
17
  0
LAYOUT
  5
1E
330
D
100
AcDbPlotSettings
  1

  4
A3
  6

 40
7.5
 41
20.0
 42
7.5
 43
20.0
 44
420.0
 45
297.0
 46
0.0
 47
0.0
 48
0.0
 49
0.0
140
0.0
141
0.0
142
1.0
143
1.0
 70
0
 72
1
 73
0
 74
5
  7

 75
16
 76
0
 77
2
 78
300
147
1.0
148
0.0
149
0.0
100
AcDbLayout
  1
Layout1
 70
1
 71
1
 10
0.0
 20
0.0
 11
420.0
 21
297.0
 12
0.0
 22
0.0
 32
0.0
 14
1e+20
 24
1e+20
 34
1e+20
 15
-1e+20
 25
-1e+20
 35
-1e+20
146
0.0
 13
0.0
 23
0.0
 33
0.0
 16
1.0
 26
0.0
 36
0.0
 17
0.0
 27
1.0
 37
0.0
 76
1
330
1B
  0
MATERIAL
  5
1F
102
{ACAD_REACTORS
330
E
102
}
330
E
100
AcDbMaterial
  1
ByBlock
  2

 70
0
 40
1.0
 71
1
 41
1.0
 91
-1023410177
 42
1.0
 72
1
  3

 73
1
 74
1
 75
1
 44
0.5
 73
0
 45
1.0
 46
1.0
 77
1
  4

 78
1
 79
1
170
1
 48
1.0
171
1
  6

172
1
173
1
174
1
140
1.0
141
1.0
175
1
  7

176
1
177
1
178
1
143
1.0
179
1
  8

270
1
271
1
272
1
145
1.0
146
1.0
273
1
  9

274
1
275
1
276
1
 42
1.0
 72
1
  3

 73
1
 74
1
 75
1
 94
63
  0
MATERIAL
  5
20
102
{ACAD_REACTORS
330
E
102
}
330
E
100
AcDbMaterial
  1
ByLayer
  2

 70
0
 40
1.0
 71
1
 41
1.0
 91
-1023410177
 42
1.0
 72
1
  3

 73
1
 74
1
 75
1
 44
0.5
 73
0
 45
1.0
 46
1.0
 77
1
  4

 78
1
 79
1
170
1
 48
1.0
171
1
  6

172
1
173
1
174
1
140
1.0
141
1.0
175
1
  7

176
1
177
1
178
1
143
1.0
179
1
  8

270
1
271
1
272
1
145
1.0
146
1.0
273
1
  9

274
1
275
1
276
1
 42
1.0
 72
1
  3

 73
1
 74
1
 75
1
 94
63
  0
MATERIAL
  5
21
102
{ACAD_REACTORS
330
E
102
}
330
E
100
AcDbMaterial
  1
Global
  2

 70
0
 40
1.0
 71
1
 41
1.0
 91
-1023410177
 42
1.0
 72
1
  3

 73
1
 74
1
 75
1
 44
0.5
 73
0
 45
1.0
 46
1.0
 77
1
  4

 78
1
 79
1
170
1
 48
1.0
171
1
  6

172
1
173
1
174
1
140
1.0
141
1.0
175
1
  7

176
1
177
1
178
1
143
1.0
179
1
  8

270
1
271
1
272
1
145
1.0
146
1.0
273
1
  9

274
1
275
1
276
1
 42
1.0
 72
1
  3

 73
1
 74
1
 75
1
 94
63
  0
MLINESTYLE
  5
22
102
{ACAD_REACTORS
330
10
102
}
330
10
100
AcDbMlineStyle
  2
Standard
 70
0
  3

 62
256
 51
90.0
 52
90.0
 71
2
 49
0.5
 62
256
  6
BYLAYER
 49
-0.5
 62
256
  6
BYLAYER
  0
MLEADERSTYLE
  5
2C
102
{ACAD_REACTORS
330
F
102
}
330
F
100
AcDbMLeaderStyle
179
2
170
2
171
1
172
0
 90
2
 40
0.0
 41
0.0
173
1
 91
-1056964608
 92
-2
290
1
 42
2.0
291
1
 43
8.0
  3
Standard
 44
4.0
300

342
29
174
1
175
1
176
0
178
1
 93
-1056964608
 45
4.0
292
0
297
0
 46
4.0
 94
-1056964608
 47
1.0
 49
1.0
140
1.0
294
1
141
0.0
177
0
142
1.0
295
0
296
0
143
3.75
271
0
272
9
273
9
  0
DICTIONARY
  5
2D
330
A
100
AcDbDictionary
280
1
281
1
  3
CREATED_BY_EZDXF
350
2E
  3
WRITTEN_BY_EZDXF
350
373
  0
DICTIONARYVAR
  5
2E
330
2D
100
DictionaryVariables
280
0
  1
1.4.4 @ 2026-09-28T05:04:47.046039+00:00
  0
DICTIONARYVAR
  5
373
330
2D
100
DictionaryVariables
280
0
  1
1.4.4 @ 2026-09-28T05:04:47.053301+00:00
  0
ENDSEC
  0
EOF
