%TF.GenerationSoftware,KiCad,Pcbnew,10.0.6*%
%TF.CreationDate,2026-09-30T18:22:11-04:00*%
%TF.ProjectId,base-light-b04,62617365-2d6c-4696-9768-742d6230342e,rev?*%
%TF.SameCoordinates,Original*%
%TF.FileFunction,Legend,Top*%
%TF.FilePolarity,Positive*%
%FSLAX46Y46*%
G04 Gerber Fmt 4.6, Leading zero omitted, Abs format (unit mm)*
G04 Created by KiCad (PCBNEW 10.0.6) date 2026-09-30 18:22:11*
%MOMM*%
%LPD*%
G01*
G04 APERTURE LIST*
%ADD10C,0.120000*%
%ADD11C,0.150000*%
G04 APERTURE END LIST*
D10*
X6590475Y-9244807D02*
X6704761Y-9282902D01*
X6704761Y-9282902D02*
X6742856Y-9320998D01*
X6742856Y-9320998D02*
X6780952Y-9397188D01*
X6780952Y-9397188D02*
X6780952Y-9511474D01*
X6780952Y-9511474D02*
X6742856Y-9587664D01*
X6742856Y-9587664D02*
X6704761Y-9625760D01*
X6704761Y-9625760D02*
X6628571Y-9663855D01*
X6628571Y-9663855D02*
X6323809Y-9663855D01*
X6323809Y-9663855D02*
X6323809Y-8863855D01*
X6323809Y-8863855D02*
X6590475Y-8863855D01*
X6590475Y-8863855D02*
X6666666Y-8901950D01*
X6666666Y-8901950D02*
X6704761Y-8940045D01*
X6704761Y-8940045D02*
X6742856Y-9016236D01*
X6742856Y-9016236D02*
X6742856Y-9092426D01*
X6742856Y-9092426D02*
X6704761Y-9168617D01*
X6704761Y-9168617D02*
X6666666Y-9206712D01*
X6666666Y-9206712D02*
X6590475Y-9244807D01*
X6590475Y-9244807D02*
X6323809Y-9244807D01*
X7276190Y-8863855D02*
X7352380Y-8863855D01*
X7352380Y-8863855D02*
X7428571Y-8901950D01*
X7428571Y-8901950D02*
X7466666Y-8940045D01*
X7466666Y-8940045D02*
X7504761Y-9016236D01*
X7504761Y-9016236D02*
X7542856Y-9168617D01*
X7542856Y-9168617D02*
X7542856Y-9359093D01*
X7542856Y-9359093D02*
X7504761Y-9511474D01*
X7504761Y-9511474D02*
X7466666Y-9587664D01*
X7466666Y-9587664D02*
X7428571Y-9625760D01*
X7428571Y-9625760D02*
X7352380Y-9663855D01*
X7352380Y-9663855D02*
X7276190Y-9663855D01*
X7276190Y-9663855D02*
X7199999Y-9625760D01*
X7199999Y-9625760D02*
X7161904Y-9587664D01*
X7161904Y-9587664D02*
X7123809Y-9511474D01*
X7123809Y-9511474D02*
X7085713Y-9359093D01*
X7085713Y-9359093D02*
X7085713Y-9168617D01*
X7085713Y-9168617D02*
X7123809Y-9016236D01*
X7123809Y-9016236D02*
X7161904Y-8940045D01*
X7161904Y-8940045D02*
X7199999Y-8901950D01*
X7199999Y-8901950D02*
X7276190Y-8863855D01*
X8228571Y-9130521D02*
X8228571Y-9663855D01*
X8038095Y-8825760D02*
X7847618Y-9397188D01*
X7847618Y-9397188D02*
X8342857Y-9397188D01*
X9638095Y-9663855D02*
X9257143Y-9663855D01*
X9257143Y-9663855D02*
X9257143Y-8863855D01*
X9904762Y-9663855D02*
X9904762Y-8863855D01*
X10704761Y-8901950D02*
X10628571Y-8863855D01*
X10628571Y-8863855D02*
X10514285Y-8863855D01*
X10514285Y-8863855D02*
X10399999Y-8901950D01*
X10399999Y-8901950D02*
X10323809Y-8978140D01*
X10323809Y-8978140D02*
X10285714Y-9054331D01*
X10285714Y-9054331D02*
X10247618Y-9206712D01*
X10247618Y-9206712D02*
X10247618Y-9320998D01*
X10247618Y-9320998D02*
X10285714Y-9473379D01*
X10285714Y-9473379D02*
X10323809Y-9549569D01*
X10323809Y-9549569D02*
X10399999Y-9625760D01*
X10399999Y-9625760D02*
X10514285Y-9663855D01*
X10514285Y-9663855D02*
X10590476Y-9663855D01*
X10590476Y-9663855D02*
X10704761Y-9625760D01*
X10704761Y-9625760D02*
X10742857Y-9587664D01*
X10742857Y-9587664D02*
X10742857Y-9320998D01*
X10742857Y-9320998D02*
X10590476Y-9320998D01*
X11085714Y-9663855D02*
X11085714Y-8863855D01*
X11085714Y-9244807D02*
X11542857Y-9244807D01*
X11542857Y-9663855D02*
X11542857Y-8863855D01*
X11809523Y-8863855D02*
X12266666Y-8863855D01*
X12038094Y-9663855D02*
X12038094Y-8863855D01*
X12685714Y-8863855D02*
X12761904Y-8863855D01*
X12761904Y-8863855D02*
X12838095Y-8901950D01*
X12838095Y-8901950D02*
X12876190Y-8940045D01*
X12876190Y-8940045D02*
X12914285Y-9016236D01*
X12914285Y-9016236D02*
X12952380Y-9168617D01*
X12952380Y-9168617D02*
X12952380Y-9359093D01*
X12952380Y-9359093D02*
X12914285Y-9511474D01*
X12914285Y-9511474D02*
X12876190Y-9587664D01*
X12876190Y-9587664D02*
X12838095Y-9625760D01*
X12838095Y-9625760D02*
X12761904Y-9663855D01*
X12761904Y-9663855D02*
X12685714Y-9663855D01*
X12685714Y-9663855D02*
X12609523Y-9625760D01*
X12609523Y-9625760D02*
X12571428Y-9587664D01*
X12571428Y-9587664D02*
X12533333Y-9511474D01*
X12533333Y-9511474D02*
X12495237Y-9359093D01*
X12495237Y-9359093D02*
X12495237Y-9168617D01*
X12495237Y-9168617D02*
X12533333Y-9016236D01*
X12533333Y-9016236D02*
X12571428Y-8940045D01*
X12571428Y-8940045D02*
X12609523Y-8901950D01*
X12609523Y-8901950D02*
X12685714Y-8863855D01*
X13714285Y-9663855D02*
X13257142Y-9663855D01*
X13485714Y-9663855D02*
X13485714Y-8863855D01*
X13485714Y-8863855D02*
X13409523Y-8978140D01*
X13409523Y-8978140D02*
X13333333Y-9054331D01*
X13333333Y-9054331D02*
X13257142Y-9092426D01*
X11152381Y-1863855D02*
X11152381Y-1063855D01*
X11152381Y-1063855D02*
X11457143Y-1063855D01*
X11457143Y-1063855D02*
X11533333Y-1101950D01*
X11533333Y-1101950D02*
X11571428Y-1140045D01*
X11571428Y-1140045D02*
X11609524Y-1216236D01*
X11609524Y-1216236D02*
X11609524Y-1330521D01*
X11609524Y-1330521D02*
X11571428Y-1406712D01*
X11571428Y-1406712D02*
X11533333Y-1444807D01*
X11533333Y-1444807D02*
X11457143Y-1482902D01*
X11457143Y-1482902D02*
X11152381Y-1482902D01*
X12104762Y-1063855D02*
X12257143Y-1063855D01*
X12257143Y-1063855D02*
X12333333Y-1101950D01*
X12333333Y-1101950D02*
X12409524Y-1178140D01*
X12409524Y-1178140D02*
X12447619Y-1330521D01*
X12447619Y-1330521D02*
X12447619Y-1597188D01*
X12447619Y-1597188D02*
X12409524Y-1749569D01*
X12409524Y-1749569D02*
X12333333Y-1825760D01*
X12333333Y-1825760D02*
X12257143Y-1863855D01*
X12257143Y-1863855D02*
X12104762Y-1863855D01*
X12104762Y-1863855D02*
X12028571Y-1825760D01*
X12028571Y-1825760D02*
X11952381Y-1749569D01*
X11952381Y-1749569D02*
X11914285Y-1597188D01*
X11914285Y-1597188D02*
X11914285Y-1330521D01*
X11914285Y-1330521D02*
X11952381Y-1178140D01*
X11952381Y-1178140D02*
X12028571Y-1101950D01*
X12028571Y-1101950D02*
X12104762Y-1063855D01*
X12714285Y-1063855D02*
X12904761Y-1863855D01*
X12904761Y-1863855D02*
X13057142Y-1292426D01*
X13057142Y-1292426D02*
X13209523Y-1863855D01*
X13209523Y-1863855D02*
X13400000Y-1063855D01*
X13704762Y-1444807D02*
X13971428Y-1444807D01*
X14085714Y-1863855D02*
X13704762Y-1863855D01*
X13704762Y-1863855D02*
X13704762Y-1063855D01*
X13704762Y-1063855D02*
X14085714Y-1063855D01*
X14885715Y-1863855D02*
X14619048Y-1482902D01*
X14428572Y-1863855D02*
X14428572Y-1063855D01*
X14428572Y-1063855D02*
X14733334Y-1063855D01*
X14733334Y-1063855D02*
X14809524Y-1101950D01*
X14809524Y-1101950D02*
X14847619Y-1140045D01*
X14847619Y-1140045D02*
X14885715Y-1216236D01*
X14885715Y-1216236D02*
X14885715Y-1330521D01*
X14885715Y-1330521D02*
X14847619Y-1406712D01*
X14847619Y-1406712D02*
X14809524Y-1444807D01*
X14809524Y-1444807D02*
X14733334Y-1482902D01*
X14733334Y-1482902D02*
X14428572Y-1482902D01*
X24409524Y-1863855D02*
X24142857Y-1482902D01*
X23952381Y-1863855D02*
X23952381Y-1063855D01*
X23952381Y-1063855D02*
X24257143Y-1063855D01*
X24257143Y-1063855D02*
X24333333Y-1101950D01*
X24333333Y-1101950D02*
X24371428Y-1140045D01*
X24371428Y-1140045D02*
X24409524Y-1216236D01*
X24409524Y-1216236D02*
X24409524Y-1330521D01*
X24409524Y-1330521D02*
X24371428Y-1406712D01*
X24371428Y-1406712D02*
X24333333Y-1444807D01*
X24333333Y-1444807D02*
X24257143Y-1482902D01*
X24257143Y-1482902D02*
X23952381Y-1482902D01*
X24752381Y-1063855D02*
X24752381Y-1711474D01*
X24752381Y-1711474D02*
X24790476Y-1787664D01*
X24790476Y-1787664D02*
X24828571Y-1825760D01*
X24828571Y-1825760D02*
X24904762Y-1863855D01*
X24904762Y-1863855D02*
X25057143Y-1863855D01*
X25057143Y-1863855D02*
X25133333Y-1825760D01*
X25133333Y-1825760D02*
X25171428Y-1787664D01*
X25171428Y-1787664D02*
X25209524Y-1711474D01*
X25209524Y-1711474D02*
X25209524Y-1063855D01*
X25590476Y-1863855D02*
X25590476Y-1063855D01*
X25590476Y-1063855D02*
X26047619Y-1863855D01*
X26047619Y-1863855D02*
X26047619Y-1063855D01*
X35723809Y-1444807D02*
X35457143Y-1444807D01*
X35457143Y-1863855D02*
X35457143Y-1063855D01*
X35457143Y-1063855D02*
X35838095Y-1063855D01*
X36104761Y-1635283D02*
X36485714Y-1635283D01*
X36028571Y-1863855D02*
X36295238Y-1063855D01*
X36295238Y-1063855D02*
X36561904Y-1863855D01*
X36828571Y-1063855D02*
X36828571Y-1711474D01*
X36828571Y-1711474D02*
X36866666Y-1787664D01*
X36866666Y-1787664D02*
X36904761Y-1825760D01*
X36904761Y-1825760D02*
X36980952Y-1863855D01*
X36980952Y-1863855D02*
X37133333Y-1863855D01*
X37133333Y-1863855D02*
X37209523Y-1825760D01*
X37209523Y-1825760D02*
X37247618Y-1787664D01*
X37247618Y-1787664D02*
X37285714Y-1711474D01*
X37285714Y-1711474D02*
X37285714Y-1063855D01*
X38047618Y-1863855D02*
X37666666Y-1863855D01*
X37666666Y-1863855D02*
X37666666Y-1063855D01*
X38199999Y-1063855D02*
X38657142Y-1063855D01*
X38428570Y-1863855D02*
X38428570Y-1063855D01*
%TO.C,D2*%
D11*
X22500000Y-5000000D02*
X22500000Y-7000000D01*
%TO.C,D1*%
X10500000Y-5000000D02*
X10500000Y-7000000D01*
%TO.C,D3*%
X34500000Y-5000000D02*
X34500000Y-7000000D01*
%TD*%
M02*
