;TYPE=PLATED
;Layer: PTH_Through
;EasyEDA Pro Client v4.1.60, 2026-10-09 14:05:16
;Gerber Generator version 0.3
M48
METRIC,LZ,0000.00000
;Hole size 1 = 0.60000 METRIC
T01C0.60000
;Hole size 2 = 0.80000 METRIC
T02C0.80000
;Hole size 3 = 1.00000 METRIC
T03C1.00000
;Hole size 4 = 1.30000 METRIC
T04C1.30000
;Hole size 5 = 1.85000 METRIC
T05C1.85000
%
G05
G90
T01
X27.8Y-43.0
X50.9Y-17.0
X26.0Y-43.0
X50.9Y-11.0
X32.8Y-43.0
X56.8Y-13.0
X31.0Y-43.0
X55.0Y-13.0
X37.8Y-43.0
X61.8Y-13.0
X36.0Y-43.0
X60.0Y-13.0
X42.8Y-43.0
X66.8Y-13.0
X41.0Y-43.0
X65.0Y-13.0
T02
X23.57Y-49.64
X22.55Y-45.64
X21.53Y-49.64
X20.51Y-45.64
X19.49Y-49.64
X18.47Y-45.64
X17.45Y-49.64
X16.43Y-45.64
X54.43Y-6.36
X55.45Y-10.36
X56.47Y-6.36
X57.49Y-10.36
X58.51Y-6.36
X59.53Y-10.36
X60.55Y-6.36
X61.57Y-10.36
T03
X12.6Y-52.49G85X12.6Y-51.49
X27.4Y-52.49G85X27.4Y-51.49
X65.4Y-3.51G85X65.4Y-4.51
X50.6Y-3.51G85X50.6Y-4.51
T04
X100.31Y-36.2
X100.31Y-33.66
X100.31Y-28.58
X92.69Y-36.2
X92.69Y-33.66
X92.69Y-28.58
T05
X98.065Y-9.065
X98.065Y-14.935
X103.935Y-9.065
X103.935Y-14.935
X82.065Y-9.065
X82.065Y-14.935
X87.935Y-9.065
X87.935Y-14.935
X39.065Y-17.065
X39.065Y-22.935
X44.935Y-17.065
X44.935Y-22.935
M30