G04 Layer: TopSilkscreenLayer*
G04 EasyEDA Pro v4.1.60, 2026-10-09 14:05:16*
G04 Gerber Generator version 0.3*
G04 Scale: 100 percent, Rotated: No, Reflected: No*
G04 Dimensions in millimeters*
G04 Leading zeros omitted, absolute positions, 4 integers and 5 decimals*
G04 Generated by one-click*
G04 Object Configs: Pad,Via,Track,Text,Image,Dimension,BoardOutline,BoardCutout,CopperFilled,SolidRegion,FPCStiffener,Line,PlaneZone,ComponentProperty,ComponentSilkscreen,TearDrop*
G04 Layer Configs: 1,15,16,2,3,4,5,6,7,8,9,10,11,13,14,71,72,73,74,75,76,77,78,79,80,122,56*
G04 Copper Areas: 0*
%FSLAX45Y45*%
%MOMM*%
%ADD10C,0.15*%
%ADD11C,0.0551*%
G75*


G04 Text Start*
G54D10*
G01X1541336Y-3568212D02*
G01X1541336Y-3623838D01*
G01X1541336Y-3568212D02*
G01X1559878Y-3568212D01*
G01X1567752Y-3570752D01*
G01X1573086Y-3576086D01*
G01X1575626Y-3581420D01*
G01X1578420Y-3589294D01*
G01X1578420Y-3602756D01*
G01X1575626Y-3610630D01*
G01X1573086Y-3615964D01*
G01X1567752Y-3621298D01*
G01X1559878Y-3623838D01*
G01X1541336Y-3623838D01*
G01X1627442Y-3568212D02*
G01X1606106Y-3623838D01*
G01X1627442Y-3568212D02*
G01X1648778Y-3623838D01*
G01X1614234Y-3605296D02*
G01X1640650Y-3605296D01*
G01X1695006Y-3568212D02*
G01X1695006Y-3623838D01*
G01X1676464Y-3568212D02*
G01X1713802Y-3568212D01*
G01X1762824Y-3568212D02*
G01X1741488Y-3623838D01*
G01X1762824Y-3568212D02*
G01X1784160Y-3623838D01*
G01X1749616Y-3605296D02*
G01X1776032Y-3605296D01*
G01X1884744Y-3568212D02*
G01X1876616Y-3570752D01*
G01X1874076Y-3576086D01*
G01X1874076Y-3581420D01*
G01X1876616Y-3586754D01*
G01X1881950Y-3589294D01*
G01X1892618Y-3592088D01*
G01X1900746Y-3594628D01*
G01X1905826Y-3599962D01*
G01X1908620Y-3605296D01*
G01X1908620Y-3613170D01*
G01X1905826Y-3618504D01*
G01X1903286Y-3621298D01*
G01X1895412Y-3623838D01*
G01X1884744Y-3623838D01*
G01X1876616Y-3621298D01*
G01X1874076Y-3618504D01*
G01X1871536Y-3613170D01*
G01X1871536Y-3605296D01*
G01X1874076Y-3599962D01*
G01X1879410Y-3594628D01*
G01X1887284Y-3592088D01*
G01X1897952Y-3589294D01*
G01X1903286Y-3586754D01*
G01X1905826Y-3581420D01*
G01X1905826Y-3576086D01*
G01X1903286Y-3570752D01*
G01X1895412Y-3568212D01*
G01X1884744Y-3568212D01*
G01X1936306Y-3568212D02*
G01X1936306Y-3623838D01*
G01X1936306Y-3568212D02*
G01X1960182Y-3568212D01*
G01X1968310Y-3570752D01*
G01X1970850Y-3573546D01*
G01X1973644Y-3578626D01*
G01X1973644Y-3586754D01*
G01X1970850Y-3592088D01*
G01X1968310Y-3594628D01*
G01X1960182Y-3597422D01*
G01X1936306Y-3597422D01*
G01X2061020Y-3568212D02*
G01X2061020Y-3623838D01*
G01X2061020Y-3568212D02*
G01X2084896Y-3568212D01*
G01X2092770Y-3570752D01*
G01X2095310Y-3573546D01*
G01X2098104Y-3578626D01*
G01X2098104Y-3586754D01*
G01X2095310Y-3592088D01*
G01X2092770Y-3594628D01*
G01X2084896Y-3597422D01*
G01X2061020Y-3597422D01*
G01X2147126Y-3568212D02*
G01X2125790Y-3623838D01*
G01X2147126Y-3568212D02*
G01X2168462Y-3623838D01*
G01X2133918Y-3605296D02*
G01X2160334Y-3605296D01*
G01X2233486Y-3576086D02*
G01X2228152Y-3570752D01*
G01X2220024Y-3568212D01*
G01X2209610Y-3568212D01*
G01X2201482Y-3570752D01*
G01X2196148Y-3576086D01*
G01X2196148Y-3581420D01*
G01X2198942Y-3586754D01*
G01X2201482Y-3589294D01*
G01X2206816Y-3592088D01*
G01X2222818Y-3597422D01*
G01X2228152Y-3599962D01*
G01X2230692Y-3602756D01*
G01X2233486Y-3608090D01*
G01X2233486Y-3615964D01*
G01X2228152Y-3621298D01*
G01X2220024Y-3623838D01*
G01X2209610Y-3623838D01*
G01X2201482Y-3621298D01*
G01X2196148Y-3615964D01*
G01X2298510Y-3576086D02*
G01X2293176Y-3570752D01*
G01X2285048Y-3568212D01*
G01X2274634Y-3568212D01*
G01X2266506Y-3570752D01*
G01X2261172Y-3576086D01*
G01X2261172Y-3581420D01*
G01X2263966Y-3586754D01*
G01X2266506Y-3589294D01*
G01X2271840Y-3592088D01*
G01X2287842Y-3597422D01*
G01X2293176Y-3599962D01*
G01X2295716Y-3602756D01*
G01X2298510Y-3608090D01*
G01X2298510Y-3615964D01*
G01X2293176Y-3621298D01*
G01X2285048Y-3623838D01*
G01X2274634Y-3623838D01*
G01X2266506Y-3621298D01*
G01X2261172Y-3615964D01*
G01X2326196Y-3568212D02*
G01X2326196Y-3623838D01*
G01X2354136Y-3568212D02*
G01X2375218Y-3623838D01*
G01X2396554Y-3568212D02*
G01X2375218Y-3623838D01*
G01X2424240Y-3568212D02*
G01X2424240Y-3623838D01*
G01X2424240Y-3568212D02*
G01X2458784Y-3568212D01*
G01X2424240Y-3594628D02*
G01X2445576Y-3594628D01*
G01X2424240Y-3623838D02*
G01X2458784Y-3623838D01*
G01X2840802Y-1981420D02*
G01X2838262Y-1976086D01*
G01X2832928Y-1970752D01*
G01X2827594Y-1968212D01*
G01X2816926Y-1968212D01*
G01X2811592Y-1970752D01*
G01X2806258Y-1976086D01*
G01X2803718Y-1981420D01*
G01X2801178Y-1989294D01*
G01X2801178Y-2002756D01*
G01X2803718Y-2010630D01*
G01X2806258Y-2015964D01*
G01X2811592Y-2021298D01*
G01X2816926Y-2023838D01*
G01X2827594Y-2023838D01*
G01X2832928Y-2021298D01*
G01X2838262Y-2015964D01*
G01X2840802Y-2010630D01*
G01X2868488Y-1968212D02*
G01X2868488Y-2023838D01*
G01X2905826Y-1968212D02*
G01X2905826Y-2023838D01*
G01X2868488Y-1994628D02*
G01X2905826Y-1994628D01*
G01X2954848Y-1968212D02*
G01X2933512Y-2023838D01*
G01X2954848Y-1968212D02*
G01X2976184Y-2023838D01*
G01X2941640Y-2005296D02*
G01X2968056Y-2005296D01*
G01X3041208Y-1976086D02*
G01X3035874Y-1970752D01*
G01X3027746Y-1968212D01*
G01X3017332Y-1968212D01*
G01X3009204Y-1970752D01*
G01X3003870Y-1976086D01*
G01X3003870Y-1981420D01*
G01X3006664Y-1986754D01*
G01X3009204Y-1989294D01*
G01X3014538Y-1992088D01*
G01X3030540Y-1997422D01*
G01X3035874Y-1999962D01*
G01X3038414Y-2002756D01*
G01X3041208Y-2008090D01*
G01X3041208Y-2015964D01*
G01X3035874Y-2021298D01*
G01X3027746Y-2023838D01*
G01X3017332Y-2023838D01*
G01X3009204Y-2021298D01*
G01X3003870Y-2015964D01*
G01X3106232Y-1976086D02*
G01X3100898Y-1970752D01*
G01X3092770Y-1968212D01*
G01X3082356Y-1968212D01*
G01X3074228Y-1970752D01*
G01X3068894Y-1976086D01*
G01X3068894Y-1981420D01*
G01X3071688Y-1986754D01*
G01X3074228Y-1989294D01*
G01X3079562Y-1992088D01*
G01X3095564Y-1997422D01*
G01X3100898Y-1999962D01*
G01X3103438Y-2002756D01*
G01X3106232Y-2008090D01*
G01X3106232Y-2015964D01*
G01X3100898Y-2021298D01*
G01X3092770Y-2023838D01*
G01X3082356Y-2023838D01*
G01X3074228Y-2021298D01*
G01X3068894Y-2015964D01*
G01X3133918Y-1968212D02*
G01X3133918Y-2023838D01*
G01X3198942Y-1976086D02*
G01X3193608Y-1970752D01*
G01X3185734Y-1968212D01*
G01X3175066Y-1968212D01*
G01X3166938Y-1970752D01*
G01X3161858Y-1976086D01*
G01X3161858Y-1981420D01*
G01X3164398Y-1986754D01*
G01X3166938Y-1989294D01*
G01X3172272Y-1992088D01*
G01X3188274Y-1997422D01*
G01X3193608Y-1999962D01*
G01X3196148Y-2002756D01*
G01X3198942Y-2008090D01*
G01X3198942Y-2015964D01*
G01X3193608Y-2021298D01*
G01X3185734Y-2023838D01*
G01X3175066Y-2023838D01*
G01X3166938Y-2021298D01*
G01X3161858Y-2015964D01*
G01X5285964Y-2475738D02*
G01X5285964Y-2518156D01*
G01X5285964Y-2475738D02*
G01X5304252Y-2475738D01*
G01X5310094Y-2477770D01*
G01X5312126Y-2479802D01*
G01X5314158Y-2483866D01*
G01X5314158Y-2487930D01*
G01X5312126Y-2491994D01*
G01X5310094Y-2494026D01*
G01X5304252Y-2496058D01*
G01X5285964Y-2496058D02*
G01X5304252Y-2496058D01*
G01X5310094Y-2498090D01*
G01X5312126Y-2500122D01*
G01X5314158Y-2504186D01*
G01X5314158Y-2510282D01*
G01X5312126Y-2514092D01*
G01X5310094Y-2516124D01*
G01X5304252Y-2518156D01*
G01X5285964Y-2518156D01*
G01X5350988Y-2475738D02*
G01X5344892Y-2477770D01*
G01X5340828Y-2483866D01*
G01X5338796Y-2494026D01*
G01X5338796Y-2500122D01*
G01X5340828Y-2510282D01*
G01X5344892Y-2516124D01*
G01X5350988Y-2518156D01*
G01X5355052Y-2518156D01*
G01X5361148Y-2516124D01*
G01X5365212Y-2510282D01*
G01X5367244Y-2500122D01*
G01X5367244Y-2494026D01*
G01X5365212Y-2483866D01*
G01X5361148Y-2477770D01*
G01X5355052Y-2475738D01*
G01X5350988Y-2475738D01*
G01X5416266Y-2481834D02*
G01X5414234Y-2477770D01*
G01X5408138Y-2475738D01*
G01X5404074Y-2475738D01*
G01X5397978Y-2477770D01*
G01X5393914Y-2483866D01*
G01X5391882Y-2494026D01*
G01X5391882Y-2504186D01*
G01X5393914Y-2512314D01*
G01X5397978Y-2516124D01*
G01X5404074Y-2518156D01*
G01X5406106Y-2518156D01*
G01X5412202Y-2516124D01*
G01X5416266Y-2512314D01*
G01X5418298Y-2506218D01*
G01X5418298Y-2504186D01*
G01X5416266Y-2498090D01*
G01X5412202Y-2494026D01*
G01X5406106Y-2491994D01*
G01X5404074Y-2491994D01*
G01X5397978Y-2494026D01*
G01X5393914Y-2498090D01*
G01X5391882Y-2504186D01*
G01X5488656Y-2475738D02*
G01X5488656Y-2518156D01*
G01X5525486Y-2475738D02*
G01X5521422Y-2477770D01*
G01X5517358Y-2481834D01*
G01X5515326Y-2485898D01*
G01X5513294Y-2491994D01*
G01X5513294Y-2502154D01*
G01X5515326Y-2508250D01*
G01X5517358Y-2512314D01*
G01X5521422Y-2516124D01*
G01X5525486Y-2518156D01*
G01X5533614Y-2518156D01*
G01X5537678Y-2516124D01*
G01X5541742Y-2512314D01*
G01X5543774Y-2508250D01*
G01X5545806Y-2502154D01*
G01X5545806Y-2491994D01*
G01X5543774Y-2485898D01*
G01X5541742Y-2481834D01*
G01X5537678Y-2477770D01*
G01X5533614Y-2475738D01*
G01X5525486Y-2475738D01*
G01X5652740Y-2467610D02*
G01X5616164Y-2532380D01*
G01X5723098Y-2475738D02*
G01X5723098Y-2518156D01*
G01X5723098Y-2475738D02*
G01X5741386Y-2475738D01*
G01X5747482Y-2477770D01*
G01X5749514Y-2479802D01*
G01X5751546Y-2483866D01*
G01X5751546Y-2487930D01*
G01X5749514Y-2491994D01*
G01X5747482Y-2494026D01*
G01X5741386Y-2496058D01*
G01X5723098Y-2496058D01*
G01X5737322Y-2496058D02*
G01X5751546Y-2518156D01*
G01X5788376Y-2475738D02*
G01X5784312Y-2477770D01*
G01X5780248Y-2481834D01*
G01X5778216Y-2485898D01*
G01X5776184Y-2491994D01*
G01X5776184Y-2502154D01*
G01X5778216Y-2508250D01*
G01X5780248Y-2512314D01*
G01X5784312Y-2516124D01*
G01X5788376Y-2518156D01*
G01X5796504Y-2518156D01*
G01X5800568Y-2516124D01*
G01X5804632Y-2512314D01*
G01X5806664Y-2508250D01*
G01X5808696Y-2502154D01*
G01X5808696Y-2491994D01*
G01X5806664Y-2485898D01*
G01X5804632Y-2481834D01*
G01X5800568Y-2477770D01*
G01X5796504Y-2475738D01*
G01X5788376Y-2475738D01*
G01X5833334Y-2475738D02*
G01X5833334Y-2506218D01*
G01X5835366Y-2512314D01*
G01X5839430Y-2516124D01*
G01X5845526Y-2518156D01*
G01X5849590Y-2518156D01*
G01X5855686Y-2516124D01*
G01X5859750Y-2512314D01*
G01X5861782Y-2506218D01*
G01X5861782Y-2475738D01*
G01X5900644Y-2475738D02*
G01X5900644Y-2518156D01*
G01X5886420Y-2475738D02*
G01X5914868Y-2475738D01*
G01X5939506Y-2475738D02*
G01X5939506Y-2518156D01*
G01X5939506Y-2475738D02*
G01X5965922Y-2475738D01*
G01X5939506Y-2496058D02*
G01X5955762Y-2496058D01*
G01X5939506Y-2518156D02*
G01X5965922Y-2518156D01*
G01X6036280Y-2475738D02*
G01X6036280Y-2518156D01*
G01X6036280Y-2475738D02*
G01X6054568Y-2475738D01*
G01X6060664Y-2477770D01*
G01X6062696Y-2479802D01*
G01X6064728Y-2483866D01*
G01X6064728Y-2487930D01*
G01X6062696Y-2491994D01*
G01X6060664Y-2494026D01*
G01X6054568Y-2496058D01*
G01X6036280Y-2496058D01*
G01X6050504Y-2496058D02*
G01X6064728Y-2518156D01*
G01X6089366Y-2475738D02*
G01X6089366Y-2518156D01*
G01X6089366Y-2475738D02*
G01X6115782Y-2475738D01*
G01X6089366Y-2496058D02*
G01X6105622Y-2496058D01*
G01X6089366Y-2518156D02*
G01X6115782Y-2518156D01*
G01X6140420Y-2475738D02*
G01X6156676Y-2518156D01*
G01X6172932Y-2475738D02*
G01X6156676Y-2518156D01*
G01X6197570Y-2475738D02*
G01X6197570Y-2518156D01*
G01X6222462Y-2475738D02*
G01X6222462Y-2518156D01*
G01X6222462Y-2475738D02*
G01X6248878Y-2475738D01*
G01X6222462Y-2496058D02*
G01X6238718Y-2496058D01*
G01X6222462Y-2518156D02*
G01X6248878Y-2518156D01*
G01X6273516Y-2475738D02*
G01X6283676Y-2518156D01*
G01X6293836Y-2475738D02*
G01X6283676Y-2518156D01*
G01X6293836Y-2475738D02*
G01X6303996Y-2518156D01*
G01X6314156Y-2475738D02*
G01X6303996Y-2518156D01*
G01X8320355Y-1968212D02*
G01X8320355Y-2023838D01*
G01X8320355Y-1968212D02*
G01X8344231Y-1968212D01*
G01X8352105Y-1970752D01*
G01X8354645Y-1973546D01*
G01X8357439Y-1978626D01*
G01X8357439Y-1983960D01*
G01X8354645Y-1989294D01*
G01X8352105Y-1992088D01*
G01X8344231Y-1994628D01*
G01X8320355Y-1994628D01*
G01X8338897Y-1994628D02*
G01X8357439Y-2023838D01*
G01X8385125Y-1968212D02*
G01X8385125Y-2023838D01*
G01X8385125Y-1968212D02*
G01X8419669Y-1968212D01*
G01X8385125Y-1994628D02*
G01X8406461Y-1994628D01*
G01X8385125Y-2023838D02*
G01X8419669Y-2023838D01*
G01X8465897Y-1968212D02*
G01X8465897Y-2023838D01*
G01X8447355Y-1968212D02*
G01X8484693Y-1968212D01*
G01X8512379Y-1968212D02*
G01X8512379Y-2008090D01*
G01X8515173Y-2015964D01*
G01X8520507Y-2021298D01*
G01X8528381Y-2023838D01*
G01X8533715Y-2023838D01*
G01X8541589Y-2021298D01*
G01X8546923Y-2015964D01*
G01X8549717Y-2008090D01*
G01X8549717Y-1968212D01*
G01X8577403Y-1968212D02*
G01X8577403Y-2023838D01*
G01X8577403Y-1968212D02*
G01X8601279Y-1968212D01*
G01X8609407Y-1970752D01*
G01X8611947Y-1973546D01*
G01X8614741Y-1978626D01*
G01X8614741Y-1983960D01*
G01X8611947Y-1989294D01*
G01X8609407Y-1992088D01*
G01X8601279Y-1994628D01*
G01X8577403Y-1994628D01*
G01X8595945Y-1994628D02*
G01X8614741Y-2023838D01*
G01X8642427Y-1968212D02*
G01X8642427Y-2023838D01*
G01X8642427Y-1968212D02*
G01X8679765Y-2023838D01*
G01X8679765Y-1968212D02*
G01X8679765Y-2023838D01*
G01X9938973Y-4768212D02*
G01X9912557Y-4805296D01*
G01X9952181Y-4805296D01*
G01X9938973Y-4768212D02*
G01X9938973Y-4823838D01*
G01X9993329Y-4768212D02*
G01X9985201Y-4770752D01*
G01X9982661Y-4776086D01*
G01X9982661Y-4781420D01*
G01X9985201Y-4786754D01*
G01X9990535Y-4789294D01*
G01X10001203Y-4792088D01*
G01X10009077Y-4794628D01*
G01X10014411Y-4799962D01*
G01X10017205Y-4805296D01*
G01X10017205Y-4813170D01*
G01X10014411Y-4818504D01*
G01X10011871Y-4821298D01*
G01X10003743Y-4823838D01*
G01X9993329Y-4823838D01*
G01X9985201Y-4821298D01*
G01X9982661Y-4818504D01*
G01X9979867Y-4813170D01*
G01X9979867Y-4805296D01*
G01X9982661Y-4799962D01*
G01X9987995Y-4794628D01*
G01X9995869Y-4792088D01*
G01X10006537Y-4789294D01*
G01X10011871Y-4786754D01*
G01X10014411Y-4781420D01*
G01X10014411Y-4776086D01*
G01X10011871Y-4770752D01*
G01X10003743Y-4768212D01*
G01X9993329Y-4768212D01*
G01X10044891Y-4768212D02*
G01X10066227Y-4823838D01*
G01X10087563Y-4768212D02*
G01X10066227Y-4823838D01*
G01X9967472Y-1976086D02*
G01X9967472Y-2023838D01*
G01X9943596Y-1999962D02*
G01X9991348Y-1999962D01*
G01X10099806Y-1968212D02*
G01X10078724Y-2023838D01*
G01X10099806Y-1968212D02*
G01X10121142Y-2023838D01*
G01X10086598Y-2005296D02*
G01X10113014Y-2005296D01*
G01X10148828Y-1968212D02*
G01X10148828Y-2023838D01*
G01X10148828Y-1968212D02*
G01X10172704Y-1968212D01*
G01X10180832Y-1970752D01*
G01X10183372Y-1973546D01*
G01X10186166Y-1978626D01*
G01X10186166Y-1983960D01*
G01X10183372Y-1989294D01*
G01X10180832Y-1992088D01*
G01X10172704Y-1994628D01*
G01X10148828Y-1994628D01*
G01X10167370Y-1994628D02*
G01X10186166Y-2023838D01*
G01X10213852Y-1968212D02*
G01X10213852Y-2023838D01*
G01X10213852Y-1968212D02*
G01X10235188Y-2023838D01*
G01X10256524Y-1968212D02*
G01X10235188Y-2023838D01*
G01X10256524Y-1968212D02*
G01X10256524Y-2023838D01*
G04 Text End*

M02*

