G04 Layer: CustomLayer6*
G04 EasyEDA Pro v4.1.60, 2026-10-09 14:05:16*
G04 Gerber Generator version 0.3*
G04 Scale: 100 percent, Rotated: No, Reflected: No*
G04 Dimensions in millimeters*
G04 Leading zeros omitted, absolute positions, 4 integers and 5 decimals*
G04 Generated by one-click*
G04 Object Configs: Pad,Via,Track,Text,Image,Dimension,BoardOutline,BoardCutout,CopperFilled,SolidRegion,FPCStiffener,Line,PlaneZone,ComponentProperty,ComponentSilkscreen,TearDrop*
G04 Layer Configs: 1,15,16,2,3,4,5,6,7,8,9,10,11,13,14,71,72,73,74,75,76,77,78,79,80,122,56*
G04 Copper Areas: 0*
%FSLAX45Y45*%
%MOMM*%
%ADD10C,0.05*%
%ADD11C,0.3263*%
G75*


G04 PolygonModel Start*
G54D10*
G01X250000Y-250000D02*
G01X950000Y-250000D01*
G01X950000Y-950000D01*
G01X250000Y-950000D01*
G01X250000Y-250000D01*
G01X10650000Y-250000D02*
G01X11350000Y-250000D01*
G01X11350000Y-950000D01*
G01X10650000Y-950000D01*
G01X10650000Y-250000D01*
G01X10650000Y-4650000D02*
G01X11350000Y-4650000D01*
G01X11350000Y-5350000D01*
G01X10650000Y-5350000D01*
G01X10650000Y-4650000D01*
G01X250000Y-4650000D02*
G01X950000Y-4650000D01*
G01X950000Y-5350000D01*
G01X250000Y-5350000D01*
G01X250000Y-4650000D01*
G01X4450000Y-3450000D02*
G01X5150000Y-3450000D01*
G01X5150000Y-4150000D01*
G01X4450000Y-4150000D01*
G01X4450000Y-3450000D01*
G01X6450000Y-3450000D02*
G01X7150000Y-3450000D01*
G01X7150000Y-4150000D01*
G01X6450000Y-4150000D01*
G01X6450000Y-3450000D01*
G01X2900000Y-5640000D02*
G01X1100000Y-5640000D01*
G01X1100000Y-4200000D01*
G01X2900000Y-4200000D01*
G01X2900000Y-5640000D01*
G01X10600000Y-5650000D02*
G01X8700000Y-5650000D01*
G01X8700000Y-2625000D01*
G01X10600000Y-2625000D01*
G01X10600000Y-5650000D01*
G01X9600000Y-700000D02*
G01X10600000Y-700000D01*
G01X10600000Y-1700000D01*
G01X9600000Y-1700000D01*
G01X9600000Y-700000D01*
G01X8000000Y-700000D02*
G01X9000000Y-700000D01*
G01X9000000Y-1700000D01*
G01X8000000Y-1700000D01*
G01X8000000Y-700000D01*
G01X4900000Y40000D02*
G01X6700000Y40000D01*
G01X6700000Y-1400000D01*
G01X4900000Y-1400000D01*
G01X4900000Y40000D01*
G01X3700000Y-1500000D02*
G01X4700000Y-1500000D01*
G01X4700000Y-2500000D01*
G01X3700000Y-2500000D01*
G01X3700000Y-1500000D01*

M02*

