G04 Layer: TopAssemblyLayer*
G04 EasyEDA Pro v4.1.60, 2026-10-09 14:05:16*
G04 Gerber Generator version 0.3*
G04 Scale: 100 percent, Rotated: No, Reflected: No*
G04 Dimensions in millimeters*
G04 Leading zeros omitted, absolute positions, 4 integers and 5 decimals*
G04 Generated by one-click*
G04 Object Configs: Pad,Via,Track,Text,Image,Dimension,BoardOutline,BoardCutout,CopperFilled,SolidRegion,FPCStiffener,Line,PlaneZone,ComponentProperty,ComponentSilkscreen,TearDrop*
G04 Layer Configs: 1,15,16,2,3,4,5,6,7,8,9,10,11,13,14,71,72,73,74,75,76,77,78,79,80,122,56*
G04 Copper Areas: 0*
%FSLAX45Y45*%
%MOMM*%
%ADD10C,0.1*%
%ADD11C,0.12*%
%ADD12C,0.7713*%
G75*


G04 Text Start*
G54D10*
G01X454752Y-1027596D02*
G01X454752Y-1066966D01*
G01X454752Y-1027596D02*
G01X471516Y-1027596D01*
G01X477104Y-1029374D01*
G01X479136Y-1031152D01*
G01X480914Y-1034962D01*
G01X480914Y-1038772D01*
G01X479136Y-1042582D01*
G01X477104Y-1044360D01*
G01X471516Y-1046138D01*
G01X454752Y-1046138D02*
G01X471516Y-1046138D01*
G01X477104Y-1048170D01*
G01X479136Y-1049948D01*
G01X480914Y-1053758D01*
G01X480914Y-1059346D01*
G01X479136Y-1063156D01*
G01X477104Y-1064934D01*
G01X471516Y-1066966D01*
G01X454752Y-1066966D01*
G01X499964Y-1027596D02*
G01X499964Y-1066966D01*
G01X499964Y-1027596D02*
G01X516728Y-1027596D01*
G01X522316Y-1029374D01*
G01X524348Y-1031152D01*
G01X526126Y-1034962D01*
G01X526126Y-1038772D01*
G01X524348Y-1042582D01*
G01X522316Y-1044360D01*
G01X516728Y-1046138D01*
G01X499964Y-1046138D01*
G01X512918Y-1046138D02*
G01X526126Y-1066966D01*
G01X545176Y-1027596D02*
G01X545176Y-1066966D01*
G01X575402Y-1027596D02*
G01X569814Y-1029374D01*
G01X566004Y-1034962D01*
G01X564226Y-1044360D01*
G01X564226Y-1049948D01*
G01X566004Y-1059346D01*
G01X569814Y-1064934D01*
G01X575402Y-1066966D01*
G01X579212Y-1066966D01*
G01X584800Y-1064934D01*
G01X588610Y-1059346D01*
G01X590388Y-1049948D01*
G01X590388Y-1044360D01*
G01X588610Y-1034962D01*
G01X584800Y-1029374D01*
G01X579212Y-1027596D01*
G01X575402Y-1027596D01*
G01X609438Y-1034962D02*
G01X613248Y-1033184D01*
G01X618836Y-1027596D01*
G01X618836Y-1066966D01*
G01X637886Y-1079920D02*
G01X671668Y-1079920D01*
G01X690718Y-1027596D02*
G01X690718Y-1066966D01*
G01X716880Y-1027596D02*
G01X716880Y-1066966D01*
G01X690718Y-1046138D02*
G01X716880Y-1046138D01*
G01X735930Y-1034962D02*
G01X739740Y-1033184D01*
G01X745328Y-1027596D01*
G01X745328Y-1066966D01*
G54D11*
G01X568806Y-124468D02*
G01X568806Y-169172D01*
G01X598524Y-124468D02*
G01X598524Y-169172D01*
G01X568806Y-145804D02*
G01X598524Y-145804D01*
G01X620622Y-133104D02*
G01X624940Y-130818D01*
G01X631290Y-124468D01*
G01X631290Y-169172D01*
G54D10*
G01X10846370Y-1027596D02*
G01X10846370Y-1066966D01*
G01X10846370Y-1027596D02*
G01X10863134Y-1027596D01*
G01X10868722Y-1029374D01*
G01X10870754Y-1031152D01*
G01X10872532Y-1034962D01*
G01X10872532Y-1038772D01*
G01X10870754Y-1042582D01*
G01X10868722Y-1044360D01*
G01X10863134Y-1046138D01*
G01X10846370Y-1046138D02*
G01X10863134Y-1046138D01*
G01X10868722Y-1048170D01*
G01X10870754Y-1049948D01*
G01X10872532Y-1053758D01*
G01X10872532Y-1059346D01*
G01X10870754Y-1063156D01*
G01X10868722Y-1064934D01*
G01X10863134Y-1066966D01*
G01X10846370Y-1066966D01*
G01X10891582Y-1027596D02*
G01X10891582Y-1066966D01*
G01X10891582Y-1027596D02*
G01X10908346Y-1027596D01*
G01X10913934Y-1029374D01*
G01X10915966Y-1031152D01*
G01X10917744Y-1034962D01*
G01X10917744Y-1038772D01*
G01X10915966Y-1042582D01*
G01X10913934Y-1044360D01*
G01X10908346Y-1046138D01*
G01X10891582Y-1046138D01*
G01X10904536Y-1046138D02*
G01X10917744Y-1066966D01*
G01X10936794Y-1027596D02*
G01X10936794Y-1066966D01*
G01X10967020Y-1027596D02*
G01X10961432Y-1029374D01*
G01X10957622Y-1034962D01*
G01X10955844Y-1044360D01*
G01X10955844Y-1049948D01*
G01X10957622Y-1059346D01*
G01X10961432Y-1064934D01*
G01X10967020Y-1066966D01*
G01X10970830Y-1066966D01*
G01X10976418Y-1064934D01*
G01X10980228Y-1059346D01*
G01X10982006Y-1049948D01*
G01X10982006Y-1044360D01*
G01X10980228Y-1034962D01*
G01X10976418Y-1029374D01*
G01X10970830Y-1027596D01*
G01X10967020Y-1027596D01*
G01X11001056Y-1034962D02*
G01X11004866Y-1033184D01*
G01X11010454Y-1027596D01*
G01X11010454Y-1066966D01*
G01X11029504Y-1079920D02*
G01X11063286Y-1079920D01*
G01X11082336Y-1027596D02*
G01X11082336Y-1066966D01*
G01X11108498Y-1027596D02*
G01X11108498Y-1066966D01*
G01X11082336Y-1046138D02*
G01X11108498Y-1046138D01*
G01X11129326Y-1036994D02*
G01X11129326Y-1034962D01*
G01X11131358Y-1031152D01*
G01X11133136Y-1029374D01*
G01X11136946Y-1027596D01*
G01X11144312Y-1027596D01*
G01X11148122Y-1029374D01*
G01X11149900Y-1031152D01*
G01X11151932Y-1034962D01*
G01X11151932Y-1038772D01*
G01X11149900Y-1042582D01*
G01X11146344Y-1048170D01*
G01X11127548Y-1066966D01*
G01X11153710Y-1066966D01*
G54D11*
G01X10959154Y-124468D02*
G01X10959154Y-169172D01*
G01X10988872Y-124468D02*
G01X10988872Y-169172D01*
G01X10959154Y-145804D02*
G01X10988872Y-145804D01*
G01X11013256Y-135136D02*
G01X11013256Y-133104D01*
G01X11015288Y-128786D01*
G01X11017574Y-126500D01*
G01X11021638Y-124468D01*
G01X11030274Y-124468D01*
G01X11034338Y-126500D01*
G01X11036624Y-128786D01*
G01X11038656Y-133104D01*
G01X11038656Y-137168D01*
G01X11036624Y-141486D01*
G01X11032306Y-147836D01*
G01X11010970Y-169172D01*
G01X11040942Y-169172D01*
G54D10*
G01X10846370Y-5427596D02*
G01X10846370Y-5466966D01*
G01X10846370Y-5427596D02*
G01X10863134Y-5427596D01*
G01X10868722Y-5429374D01*
G01X10870754Y-5431152D01*
G01X10872532Y-5434962D01*
G01X10872532Y-5438772D01*
G01X10870754Y-5442582D01*
G01X10868722Y-5444360D01*
G01X10863134Y-5446138D01*
G01X10846370Y-5446138D02*
G01X10863134Y-5446138D01*
G01X10868722Y-5448170D01*
G01X10870754Y-5449948D01*
G01X10872532Y-5453758D01*
G01X10872532Y-5459346D01*
G01X10870754Y-5463156D01*
G01X10868722Y-5464934D01*
G01X10863134Y-5466966D01*
G01X10846370Y-5466966D01*
G01X10891582Y-5427596D02*
G01X10891582Y-5466966D01*
G01X10891582Y-5427596D02*
G01X10908346Y-5427596D01*
G01X10913934Y-5429374D01*
G01X10915966Y-5431152D01*
G01X10917744Y-5434962D01*
G01X10917744Y-5438772D01*
G01X10915966Y-5442582D01*
G01X10913934Y-5444360D01*
G01X10908346Y-5446138D01*
G01X10891582Y-5446138D01*
G01X10904536Y-5446138D02*
G01X10917744Y-5466966D01*
G01X10936794Y-5427596D02*
G01X10936794Y-5466966D01*
G01X10967020Y-5427596D02*
G01X10961432Y-5429374D01*
G01X10957622Y-5434962D01*
G01X10955844Y-5444360D01*
G01X10955844Y-5449948D01*
G01X10957622Y-5459346D01*
G01X10961432Y-5464934D01*
G01X10967020Y-5466966D01*
G01X10970830Y-5466966D01*
G01X10976418Y-5464934D01*
G01X10980228Y-5459346D01*
G01X10982006Y-5449948D01*
G01X10982006Y-5444360D01*
G01X10980228Y-5434962D01*
G01X10976418Y-5429374D01*
G01X10970830Y-5427596D01*
G01X10967020Y-5427596D01*
G01X11001056Y-5434962D02*
G01X11004866Y-5433184D01*
G01X11010454Y-5427596D01*
G01X11010454Y-5466966D01*
G01X11029504Y-5479920D02*
G01X11063286Y-5479920D01*
G01X11082336Y-5427596D02*
G01X11082336Y-5466966D01*
G01X11108498Y-5427596D02*
G01X11108498Y-5466966D01*
G01X11082336Y-5446138D02*
G01X11108498Y-5446138D01*
G01X11131358Y-5427596D02*
G01X11151932Y-5427596D01*
G01X11140502Y-5442582D01*
G01X11146344Y-5442582D01*
G01X11149900Y-5444360D01*
G01X11151932Y-5446138D01*
G01X11153710Y-5451980D01*
G01X11153710Y-5455536D01*
G01X11151932Y-5461124D01*
G01X11148122Y-5464934D01*
G01X11142534Y-5466966D01*
G01X11136946Y-5466966D01*
G01X11131358Y-5464934D01*
G01X11129326Y-5463156D01*
G01X11127548Y-5459346D01*
G54D11*
G01X10959154Y-4524468D02*
G01X10959154Y-4569172D01*
G01X10988872Y-4524468D02*
G01X10988872Y-4569172D01*
G01X10959154Y-4545804D02*
G01X10988872Y-4545804D01*
G01X11015288Y-4524468D02*
G01X11038656Y-4524468D01*
G01X11025956Y-4541486D01*
G01X11032306Y-4541486D01*
G01X11036624Y-4543518D01*
G01X11038656Y-4545804D01*
G01X11040942Y-4552154D01*
G01X11040942Y-4556472D01*
G01X11038656Y-4562822D01*
G01X11034338Y-4566886D01*
G01X11027988Y-4569172D01*
G01X11021638Y-4569172D01*
G01X11015288Y-4566886D01*
G01X11013256Y-4564854D01*
G01X11010970Y-4560536D01*
G54D10*
G01X445354Y-5427596D02*
G01X445354Y-5466966D01*
G01X445354Y-5427596D02*
G01X462118Y-5427596D01*
G01X467706Y-5429374D01*
G01X469738Y-5431152D01*
G01X471516Y-5434962D01*
G01X471516Y-5438772D01*
G01X469738Y-5442582D01*
G01X467706Y-5444360D01*
G01X462118Y-5446138D01*
G01X445354Y-5446138D02*
G01X462118Y-5446138D01*
G01X467706Y-5448170D01*
G01X469738Y-5449948D01*
G01X471516Y-5453758D01*
G01X471516Y-5459346D01*
G01X469738Y-5463156D01*
G01X467706Y-5464934D01*
G01X462118Y-5466966D01*
G01X445354Y-5466966D01*
G01X490566Y-5427596D02*
G01X490566Y-5466966D01*
G01X490566Y-5427596D02*
G01X507330Y-5427596D01*
G01X512918Y-5429374D01*
G01X514950Y-5431152D01*
G01X516728Y-5434962D01*
G01X516728Y-5438772D01*
G01X514950Y-5442582D01*
G01X512918Y-5444360D01*
G01X507330Y-5446138D01*
G01X490566Y-5446138D01*
G01X503520Y-5446138D02*
G01X516728Y-5466966D01*
G01X535778Y-5427596D02*
G01X535778Y-5466966D01*
G01X566004Y-5427596D02*
G01X560416Y-5429374D01*
G01X556606Y-5434962D01*
G01X554828Y-5444360D01*
G01X554828Y-5449948D01*
G01X556606Y-5459346D01*
G01X560416Y-5464934D01*
G01X566004Y-5466966D01*
G01X569814Y-5466966D01*
G01X575402Y-5464934D01*
G01X579212Y-5459346D01*
G01X580990Y-5449948D01*
G01X580990Y-5444360D01*
G01X579212Y-5434962D01*
G01X575402Y-5429374D01*
G01X569814Y-5427596D01*
G01X566004Y-5427596D01*
G01X600040Y-5434962D02*
G01X603850Y-5433184D01*
G01X609438Y-5427596D01*
G01X609438Y-5466966D01*
G01X628488Y-5479920D02*
G01X662270Y-5479920D01*
G01X681320Y-5427596D02*
G01X681320Y-5466966D01*
G01X707482Y-5427596D02*
G01X707482Y-5466966D01*
G01X681320Y-5446138D02*
G01X707482Y-5446138D01*
G01X745328Y-5427596D02*
G01X726532Y-5453758D01*
G01X754726Y-5453758D01*
G01X745328Y-5427596D02*
G01X745328Y-5466966D01*
G54D11*
G01X558138Y-4524468D02*
G01X558138Y-4569172D01*
G01X587856Y-4524468D02*
G01X587856Y-4569172D01*
G01X558138Y-4545804D02*
G01X587856Y-4545804D01*
G01X631290Y-4524468D02*
G01X609954Y-4554186D01*
G01X641958Y-4554186D01*
G01X631290Y-4524468D02*
G01X631290Y-4569172D01*
G54D10*
G01X4646370Y-4227596D02*
G01X4646370Y-4266966D01*
G01X4646370Y-4227596D02*
G01X4663134Y-4227596D01*
G01X4668722Y-4229374D01*
G01X4670754Y-4231152D01*
G01X4672532Y-4234962D01*
G01X4672532Y-4238772D01*
G01X4670754Y-4242582D01*
G01X4668722Y-4244360D01*
G01X4663134Y-4246138D01*
G01X4646370Y-4246138D02*
G01X4663134Y-4246138D01*
G01X4668722Y-4248170D01*
G01X4670754Y-4249948D01*
G01X4672532Y-4253758D01*
G01X4672532Y-4259346D01*
G01X4670754Y-4263156D01*
G01X4668722Y-4264934D01*
G01X4663134Y-4266966D01*
G01X4646370Y-4266966D01*
G01X4691582Y-4227596D02*
G01X4691582Y-4266966D01*
G01X4691582Y-4227596D02*
G01X4708346Y-4227596D01*
G01X4713934Y-4229374D01*
G01X4715966Y-4231152D01*
G01X4717744Y-4234962D01*
G01X4717744Y-4238772D01*
G01X4715966Y-4242582D01*
G01X4713934Y-4244360D01*
G01X4708346Y-4246138D01*
G01X4691582Y-4246138D01*
G01X4704536Y-4246138D02*
G01X4717744Y-4266966D01*
G01X4736794Y-4227596D02*
G01X4736794Y-4266966D01*
G01X4767020Y-4227596D02*
G01X4761432Y-4229374D01*
G01X4757622Y-4234962D01*
G01X4755844Y-4244360D01*
G01X4755844Y-4249948D01*
G01X4757622Y-4259346D01*
G01X4761432Y-4264934D01*
G01X4767020Y-4266966D01*
G01X4770830Y-4266966D01*
G01X4776418Y-4264934D01*
G01X4780228Y-4259346D01*
G01X4782006Y-4249948D01*
G01X4782006Y-4244360D01*
G01X4780228Y-4234962D01*
G01X4776418Y-4229374D01*
G01X4770830Y-4227596D01*
G01X4767020Y-4227596D01*
G01X4801056Y-4234962D02*
G01X4804866Y-4233184D01*
G01X4810454Y-4227596D01*
G01X4810454Y-4266966D01*
G01X4829504Y-4279920D02*
G01X4863286Y-4279920D01*
G01X4882336Y-4227596D02*
G01X4882336Y-4266966D01*
G01X4908498Y-4227596D02*
G01X4908498Y-4266966D01*
G01X4882336Y-4246138D02*
G01X4908498Y-4246138D01*
G01X4949900Y-4227596D02*
G01X4931358Y-4227596D01*
G01X4929326Y-4244360D01*
G01X4931358Y-4242582D01*
G01X4936946Y-4240550D01*
G01X4942534Y-4240550D01*
G01X4948122Y-4242582D01*
G01X4951932Y-4246138D01*
G01X4953710Y-4251980D01*
G01X4953710Y-4255536D01*
G01X4951932Y-4261124D01*
G01X4948122Y-4264934D01*
G01X4942534Y-4266966D01*
G01X4936946Y-4266966D01*
G01X4931358Y-4264934D01*
G01X4929326Y-4263156D01*
G01X4927548Y-4259346D01*
G54D11*
G01X4759154Y-3324468D02*
G01X4759154Y-3369172D01*
G01X4788872Y-3324468D02*
G01X4788872Y-3369172D01*
G01X4759154Y-3345804D02*
G01X4788872Y-3345804D01*
G01X4836624Y-3324468D02*
G01X4815288Y-3324468D01*
G01X4813256Y-3343518D01*
G01X4815288Y-3341486D01*
G01X4821638Y-3339454D01*
G01X4827988Y-3339454D01*
G01X4834338Y-3341486D01*
G01X4838656Y-3345804D01*
G01X4840942Y-3352154D01*
G01X4840942Y-3356472D01*
G01X4838656Y-3362822D01*
G01X4834338Y-3366886D01*
G01X4827988Y-3369172D01*
G01X4821638Y-3369172D01*
G01X4815288Y-3366886D01*
G01X4813256Y-3364854D01*
G01X4810970Y-3360536D01*
G54D10*
G01X6647259Y-4227596D02*
G01X6647259Y-4266966D01*
G01X6647259Y-4227596D02*
G01X6664023Y-4227596D01*
G01X6669611Y-4229374D01*
G01X6671643Y-4231152D01*
G01X6673421Y-4234962D01*
G01X6673421Y-4238772D01*
G01X6671643Y-4242582D01*
G01X6669611Y-4244360D01*
G01X6664023Y-4246138D01*
G01X6647259Y-4246138D02*
G01X6664023Y-4246138D01*
G01X6669611Y-4248170D01*
G01X6671643Y-4249948D01*
G01X6673421Y-4253758D01*
G01X6673421Y-4259346D01*
G01X6671643Y-4263156D01*
G01X6669611Y-4264934D01*
G01X6664023Y-4266966D01*
G01X6647259Y-4266966D01*
G01X6692471Y-4227596D02*
G01X6692471Y-4266966D01*
G01X6692471Y-4227596D02*
G01X6709235Y-4227596D01*
G01X6714823Y-4229374D01*
G01X6716855Y-4231152D01*
G01X6718633Y-4234962D01*
G01X6718633Y-4238772D01*
G01X6716855Y-4242582D01*
G01X6714823Y-4244360D01*
G01X6709235Y-4246138D01*
G01X6692471Y-4246138D01*
G01X6705425Y-4246138D02*
G01X6718633Y-4266966D01*
G01X6737683Y-4227596D02*
G01X6737683Y-4266966D01*
G01X6767909Y-4227596D02*
G01X6762321Y-4229374D01*
G01X6758511Y-4234962D01*
G01X6756733Y-4244360D01*
G01X6756733Y-4249948D01*
G01X6758511Y-4259346D01*
G01X6762321Y-4264934D01*
G01X6767909Y-4266966D01*
G01X6771719Y-4266966D01*
G01X6777307Y-4264934D01*
G01X6781117Y-4259346D01*
G01X6782895Y-4249948D01*
G01X6782895Y-4244360D01*
G01X6781117Y-4234962D01*
G01X6777307Y-4229374D01*
G01X6771719Y-4227596D01*
G01X6767909Y-4227596D01*
G01X6801945Y-4234962D02*
G01X6805755Y-4233184D01*
G01X6811343Y-4227596D01*
G01X6811343Y-4266966D01*
G01X6830393Y-4279920D02*
G01X6864175Y-4279920D01*
G01X6883225Y-4227596D02*
G01X6883225Y-4266966D01*
G01X6909387Y-4227596D02*
G01X6909387Y-4266966D01*
G01X6883225Y-4246138D02*
G01X6909387Y-4246138D01*
G01X6950789Y-4233184D02*
G01X6949011Y-4229374D01*
G01X6943423Y-4227596D01*
G01X6939613Y-4227596D01*
G01X6934025Y-4229374D01*
G01X6930215Y-4234962D01*
G01X6928437Y-4244360D01*
G01X6928437Y-4253758D01*
G01X6930215Y-4261124D01*
G01X6934025Y-4264934D01*
G01X6939613Y-4266966D01*
G01X6941391Y-4266966D01*
G01X6947233Y-4264934D01*
G01X6950789Y-4261124D01*
G01X6952821Y-4255536D01*
G01X6952821Y-4253758D01*
G01X6950789Y-4248170D01*
G01X6947233Y-4244360D01*
G01X6941391Y-4242582D01*
G01X6939613Y-4242582D01*
G01X6934025Y-4244360D01*
G01X6930215Y-4248170D01*
G01X6928437Y-4253758D01*
G54D11*
G01X6760297Y-3324468D02*
G01X6760297Y-3369172D01*
G01X6790015Y-3324468D02*
G01X6790015Y-3369172D01*
G01X6760297Y-3345804D02*
G01X6790015Y-3345804D01*
G01X6837767Y-3330818D02*
G01X6835481Y-3326500D01*
G01X6829131Y-3324468D01*
G01X6825067Y-3324468D01*
G01X6818717Y-3326500D01*
G01X6814399Y-3333104D01*
G01X6812113Y-3343518D01*
G01X6812113Y-3354186D01*
G01X6814399Y-3362822D01*
G01X6818717Y-3366886D01*
G01X6825067Y-3369172D01*
G01X6827099Y-3369172D01*
G01X6833449Y-3366886D01*
G01X6837767Y-3362822D01*
G01X6839799Y-3356472D01*
G01X6839799Y-3354186D01*
G01X6837767Y-3347836D01*
G01X6833449Y-3343518D01*
G01X6827099Y-3341486D01*
G01X6825067Y-3341486D01*
G01X6818717Y-3343518D01*
G01X6814399Y-3347836D01*
G01X6812113Y-3354186D01*
G54D10*
G01X1858435Y-4077596D02*
G01X1858435Y-4116966D01*
G01X1858435Y-4077596D02*
G01X1875199Y-4077596D01*
G01X1880787Y-4079374D01*
G01X1882819Y-4081152D01*
G01X1884597Y-4084962D01*
G01X1884597Y-4088772D01*
G01X1882819Y-4092582D01*
G01X1880787Y-4094360D01*
G01X1875199Y-4096138D01*
G01X1858435Y-4096138D02*
G01X1875199Y-4096138D01*
G01X1880787Y-4098170D01*
G01X1882819Y-4099948D01*
G01X1884597Y-4103758D01*
G01X1884597Y-4109346D01*
G01X1882819Y-4113156D01*
G01X1880787Y-4114934D01*
G01X1875199Y-4116966D01*
G01X1858435Y-4116966D01*
G01X1903647Y-4077596D02*
G01X1903647Y-4116966D01*
G01X1903647Y-4077596D02*
G01X1920411Y-4077596D01*
G01X1925999Y-4079374D01*
G01X1928031Y-4081152D01*
G01X1929809Y-4084962D01*
G01X1929809Y-4088772D01*
G01X1928031Y-4092582D01*
G01X1925999Y-4094360D01*
G01X1920411Y-4096138D01*
G01X1903647Y-4096138D01*
G01X1916601Y-4096138D02*
G01X1929809Y-4116966D01*
G01X1948859Y-4077596D02*
G01X1948859Y-4116966D01*
G01X1979085Y-4077596D02*
G01X1973497Y-4079374D01*
G01X1969687Y-4084962D01*
G01X1967909Y-4094360D01*
G01X1967909Y-4099948D01*
G01X1969687Y-4109346D01*
G01X1973497Y-4114934D01*
G01X1979085Y-4116966D01*
G01X1982895Y-4116966D01*
G01X1988483Y-4114934D01*
G01X1992293Y-4109346D01*
G01X1994071Y-4099948D01*
G01X1994071Y-4094360D01*
G01X1992293Y-4084962D01*
G01X1988483Y-4079374D01*
G01X1982895Y-4077596D01*
G01X1979085Y-4077596D01*
G01X2013121Y-4084962D02*
G01X2016931Y-4083184D01*
G01X2022519Y-4077596D01*
G01X2022519Y-4116966D01*
G01X2041569Y-4129920D02*
G01X2075351Y-4129920D01*
G01X2113197Y-4077596D02*
G01X2113197Y-4107568D01*
G01X2111165Y-4113156D01*
G01X2109387Y-4114934D01*
G01X2105577Y-4116966D01*
G01X2101767Y-4116966D01*
G01X2098211Y-4114934D01*
G01X2096179Y-4113156D01*
G01X2094401Y-4107568D01*
G01X2094401Y-4103758D01*
G01X2132247Y-4084962D02*
G01X2136057Y-4083184D01*
G01X2141645Y-4077596D01*
G01X2141645Y-4116966D01*
G54D11*
G01X1994206Y-5714468D02*
G01X1994206Y-5748504D01*
G01X1992174Y-5754854D01*
G01X1990142Y-5756886D01*
G01X1985824Y-5759172D01*
G01X1981506Y-5759172D01*
G01X1977188Y-5756886D01*
G01X1975156Y-5754854D01*
G01X1973124Y-5748504D01*
G01X1973124Y-5744186D01*
G01X2016304Y-5723104D02*
G01X2020622Y-5720818D01*
G01X2026972Y-5714468D01*
G01X2026972Y-5759172D01*
G54D10*
G01X9500053Y-2502596D02*
G01X9500053Y-2541966D01*
G01X9500053Y-2502596D02*
G01X9516817Y-2502596D01*
G01X9522405Y-2504374D01*
G01X9524437Y-2506152D01*
G01X9526215Y-2509962D01*
G01X9526215Y-2513772D01*
G01X9524437Y-2517582D01*
G01X9522405Y-2519360D01*
G01X9516817Y-2521138D01*
G01X9500053Y-2521138D02*
G01X9516817Y-2521138D01*
G01X9522405Y-2523170D01*
G01X9524437Y-2524948D01*
G01X9526215Y-2528758D01*
G01X9526215Y-2534346D01*
G01X9524437Y-2538156D01*
G01X9522405Y-2539934D01*
G01X9516817Y-2541966D01*
G01X9500053Y-2541966D01*
G01X9545265Y-2502596D02*
G01X9545265Y-2541966D01*
G01X9545265Y-2502596D02*
G01X9562029Y-2502596D01*
G01X9567617Y-2504374D01*
G01X9569649Y-2506152D01*
G01X9571427Y-2509962D01*
G01X9571427Y-2513772D01*
G01X9569649Y-2517582D01*
G01X9567617Y-2519360D01*
G01X9562029Y-2521138D01*
G01X9545265Y-2521138D01*
G01X9558219Y-2521138D02*
G01X9571427Y-2541966D01*
G01X9590477Y-2502596D02*
G01X9590477Y-2541966D01*
G01X9620703Y-2502596D02*
G01X9615115Y-2504374D01*
G01X9611305Y-2509962D01*
G01X9609527Y-2519360D01*
G01X9609527Y-2524948D01*
G01X9611305Y-2534346D01*
G01X9615115Y-2539934D01*
G01X9620703Y-2541966D01*
G01X9624513Y-2541966D01*
G01X9630101Y-2539934D01*
G01X9633911Y-2534346D01*
G01X9635689Y-2524948D01*
G01X9635689Y-2519360D01*
G01X9633911Y-2509962D01*
G01X9630101Y-2504374D01*
G01X9624513Y-2502596D01*
G01X9620703Y-2502596D01*
G01X9654739Y-2509962D02*
G01X9658549Y-2508184D01*
G01X9664137Y-2502596D01*
G01X9664137Y-2541966D01*
G01X9683187Y-2554920D02*
G01X9716969Y-2554920D01*
G01X9754815Y-2502596D02*
G01X9754815Y-2532568D01*
G01X9752783Y-2538156D01*
G01X9751005Y-2539934D01*
G01X9747195Y-2541966D01*
G01X9743385Y-2541966D01*
G01X9739829Y-2539934D01*
G01X9737797Y-2538156D01*
G01X9736019Y-2532568D01*
G01X9736019Y-2528758D01*
G01X9777675Y-2502596D02*
G01X9798249Y-2502596D01*
G01X9786819Y-2517582D01*
G01X9792661Y-2517582D01*
G01X9796217Y-2519360D01*
G01X9798249Y-2521138D01*
G01X9800027Y-2526980D01*
G01X9800027Y-2530536D01*
G01X9798249Y-2536124D01*
G01X9794439Y-2539934D01*
G01X9788851Y-2541966D01*
G01X9783263Y-2541966D01*
G01X9777675Y-2539934D01*
G01X9775643Y-2538156D01*
G01X9773865Y-2534346D01*
G54D11*
G01X9634554Y-5724468D02*
G01X9634554Y-5758504D01*
G01X9632522Y-5764854D01*
G01X9630490Y-5766886D01*
G01X9626172Y-5769172D01*
G01X9621854Y-5769172D01*
G01X9617536Y-5766886D01*
G01X9615504Y-5764854D01*
G01X9613472Y-5758504D01*
G01X9613472Y-5754186D01*
G01X9660970Y-5724468D02*
G01X9684338Y-5724468D01*
G01X9671638Y-5741486D01*
G01X9677988Y-5741486D01*
G01X9682306Y-5743518D01*
G01X9684338Y-5745804D01*
G01X9686624Y-5752154D01*
G01X9686624Y-5756472D01*
G01X9684338Y-5762822D01*
G01X9680020Y-5766886D01*
G01X9673670Y-5769172D01*
G01X9667320Y-5769172D01*
G01X9660970Y-5766886D01*
G01X9658938Y-5764854D01*
G01X9656652Y-5760536D01*
G54D10*
G01X9949037Y-1777596D02*
G01X9949037Y-1816966D01*
G01X9949037Y-1777596D02*
G01X9965801Y-1777596D01*
G01X9971389Y-1779374D01*
G01X9973421Y-1781152D01*
G01X9975199Y-1784962D01*
G01X9975199Y-1788772D01*
G01X9973421Y-1792582D01*
G01X9971389Y-1794360D01*
G01X9965801Y-1796138D01*
G01X9949037Y-1796138D02*
G01X9965801Y-1796138D01*
G01X9971389Y-1798170D01*
G01X9973421Y-1799948D01*
G01X9975199Y-1803758D01*
G01X9975199Y-1809346D01*
G01X9973421Y-1813156D01*
G01X9971389Y-1814934D01*
G01X9965801Y-1816966D01*
G01X9949037Y-1816966D01*
G01X9994249Y-1777596D02*
G01X9994249Y-1816966D01*
G01X9994249Y-1777596D02*
G01X10011013Y-1777596D01*
G01X10016601Y-1779374D01*
G01X10018633Y-1781152D01*
G01X10020411Y-1784962D01*
G01X10020411Y-1788772D01*
G01X10018633Y-1792582D01*
G01X10016601Y-1794360D01*
G01X10011013Y-1796138D01*
G01X9994249Y-1796138D01*
G01X10007203Y-1796138D02*
G01X10020411Y-1816966D01*
G01X10039461Y-1777596D02*
G01X10039461Y-1816966D01*
G01X10069687Y-1777596D02*
G01X10064099Y-1779374D01*
G01X10060289Y-1784962D01*
G01X10058511Y-1794360D01*
G01X10058511Y-1799948D01*
G01X10060289Y-1809346D01*
G01X10064099Y-1814934D01*
G01X10069687Y-1816966D01*
G01X10073497Y-1816966D01*
G01X10079085Y-1814934D01*
G01X10082895Y-1809346D01*
G01X10084673Y-1799948D01*
G01X10084673Y-1794360D01*
G01X10082895Y-1784962D01*
G01X10079085Y-1779374D01*
G01X10073497Y-1777596D01*
G01X10069687Y-1777596D01*
G01X10103723Y-1784962D02*
G01X10107533Y-1783184D01*
G01X10113121Y-1777596D01*
G01X10113121Y-1816966D01*
G01X10132171Y-1829920D02*
G01X10165953Y-1829920D01*
G01X10203799Y-1777596D02*
G01X10203799Y-1807568D01*
G01X10201767Y-1813156D01*
G01X10199989Y-1814934D01*
G01X10196179Y-1816966D01*
G01X10192369Y-1816966D01*
G01X10188813Y-1814934D01*
G01X10186781Y-1813156D01*
G01X10185003Y-1807568D01*
G01X10185003Y-1803758D01*
G01X10241645Y-1777596D02*
G01X10222849Y-1803758D01*
G01X10251043Y-1803758D01*
G01X10241645Y-1777596D02*
G01X10241645Y-1816966D01*
G54D11*
G01X10083538Y-574468D02*
G01X10083538Y-608504D01*
G01X10081506Y-614854D01*
G01X10079474Y-616886D01*
G01X10075156Y-619172D01*
G01X10070838Y-619172D01*
G01X10066520Y-616886D01*
G01X10064488Y-614854D01*
G01X10062456Y-608504D01*
G01X10062456Y-604186D01*
G01X10126972Y-574468D02*
G01X10105636Y-604186D01*
G01X10137640Y-604186D01*
G01X10126972Y-574468D02*
G01X10126972Y-619172D01*
G54D10*
G01X8350053Y-1777596D02*
G01X8350053Y-1816966D01*
G01X8350053Y-1777596D02*
G01X8366817Y-1777596D01*
G01X8372405Y-1779374D01*
G01X8374437Y-1781152D01*
G01X8376215Y-1784962D01*
G01X8376215Y-1788772D01*
G01X8374437Y-1792582D01*
G01X8372405Y-1794360D01*
G01X8366817Y-1796138D01*
G01X8350053Y-1796138D02*
G01X8366817Y-1796138D01*
G01X8372405Y-1798170D01*
G01X8374437Y-1799948D01*
G01X8376215Y-1803758D01*
G01X8376215Y-1809346D01*
G01X8374437Y-1813156D01*
G01X8372405Y-1814934D01*
G01X8366817Y-1816966D01*
G01X8350053Y-1816966D01*
G01X8395265Y-1777596D02*
G01X8395265Y-1816966D01*
G01X8395265Y-1777596D02*
G01X8412029Y-1777596D01*
G01X8417617Y-1779374D01*
G01X8419649Y-1781152D01*
G01X8421427Y-1784962D01*
G01X8421427Y-1788772D01*
G01X8419649Y-1792582D01*
G01X8417617Y-1794360D01*
G01X8412029Y-1796138D01*
G01X8395265Y-1796138D01*
G01X8408219Y-1796138D02*
G01X8421427Y-1816966D01*
G01X8440477Y-1777596D02*
G01X8440477Y-1816966D01*
G01X8470703Y-1777596D02*
G01X8465115Y-1779374D01*
G01X8461305Y-1784962D01*
G01X8459527Y-1794360D01*
G01X8459527Y-1799948D01*
G01X8461305Y-1809346D01*
G01X8465115Y-1814934D01*
G01X8470703Y-1816966D01*
G01X8474513Y-1816966D01*
G01X8480101Y-1814934D01*
G01X8483911Y-1809346D01*
G01X8485689Y-1799948D01*
G01X8485689Y-1794360D01*
G01X8483911Y-1784962D01*
G01X8480101Y-1779374D01*
G01X8474513Y-1777596D01*
G01X8470703Y-1777596D01*
G01X8504739Y-1784962D02*
G01X8508549Y-1783184D01*
G01X8514137Y-1777596D01*
G01X8514137Y-1816966D01*
G01X8533187Y-1829920D02*
G01X8566969Y-1829920D01*
G01X8604815Y-1777596D02*
G01X8604815Y-1807568D01*
G01X8602783Y-1813156D01*
G01X8601005Y-1814934D01*
G01X8597195Y-1816966D01*
G01X8593385Y-1816966D01*
G01X8589829Y-1814934D01*
G01X8587797Y-1813156D01*
G01X8586019Y-1807568D01*
G01X8586019Y-1803758D01*
G01X8646217Y-1777596D02*
G01X8627675Y-1777596D01*
G01X8625643Y-1794360D01*
G01X8627675Y-1792582D01*
G01X8633263Y-1790550D01*
G01X8638851Y-1790550D01*
G01X8644439Y-1792582D01*
G01X8648249Y-1796138D01*
G01X8650027Y-1801980D01*
G01X8650027Y-1805536D01*
G01X8648249Y-1811124D01*
G01X8644439Y-1814934D01*
G01X8638851Y-1816966D01*
G01X8633263Y-1816966D01*
G01X8627675Y-1814934D01*
G01X8625643Y-1813156D01*
G01X8623865Y-1809346D01*
G54D11*
G01X8484554Y-574468D02*
G01X8484554Y-608504D01*
G01X8482522Y-614854D01*
G01X8480490Y-616886D01*
G01X8476172Y-619172D01*
G01X8471854Y-619172D01*
G01X8467536Y-616886D01*
G01X8465504Y-614854D01*
G01X8463472Y-608504D01*
G01X8463472Y-604186D01*
G01X8532306Y-574468D02*
G01X8510970Y-574468D01*
G01X8508938Y-593518D01*
G01X8510970Y-591486D01*
G01X8517320Y-589454D01*
G01X8523670Y-589454D01*
G01X8530020Y-591486D01*
G01X8534338Y-595804D01*
G01X8536624Y-602154D01*
G01X8536624Y-606472D01*
G01X8534338Y-612822D01*
G01X8530020Y-616886D01*
G01X8523670Y-619172D01*
G01X8517320Y-619172D01*
G01X8510970Y-616886D01*
G01X8508938Y-614854D01*
G01X8506652Y-610536D01*
G54D10*
G01X5650053Y-1477596D02*
G01X5650053Y-1516966D01*
G01X5650053Y-1477596D02*
G01X5666817Y-1477596D01*
G01X5672405Y-1479374D01*
G01X5674437Y-1481152D01*
G01X5676215Y-1484962D01*
G01X5676215Y-1488772D01*
G01X5674437Y-1492582D01*
G01X5672405Y-1494360D01*
G01X5666817Y-1496138D01*
G01X5650053Y-1496138D02*
G01X5666817Y-1496138D01*
G01X5672405Y-1498170D01*
G01X5674437Y-1499948D01*
G01X5676215Y-1503758D01*
G01X5676215Y-1509346D01*
G01X5674437Y-1513156D01*
G01X5672405Y-1514934D01*
G01X5666817Y-1516966D01*
G01X5650053Y-1516966D01*
G01X5695265Y-1477596D02*
G01X5695265Y-1516966D01*
G01X5695265Y-1477596D02*
G01X5712029Y-1477596D01*
G01X5717617Y-1479374D01*
G01X5719649Y-1481152D01*
G01X5721427Y-1484962D01*
G01X5721427Y-1488772D01*
G01X5719649Y-1492582D01*
G01X5717617Y-1494360D01*
G01X5712029Y-1496138D01*
G01X5695265Y-1496138D01*
G01X5708219Y-1496138D02*
G01X5721427Y-1516966D01*
G01X5740477Y-1477596D02*
G01X5740477Y-1516966D01*
G01X5770703Y-1477596D02*
G01X5765115Y-1479374D01*
G01X5761305Y-1484962D01*
G01X5759527Y-1494360D01*
G01X5759527Y-1499948D01*
G01X5761305Y-1509346D01*
G01X5765115Y-1514934D01*
G01X5770703Y-1516966D01*
G01X5774513Y-1516966D01*
G01X5780101Y-1514934D01*
G01X5783911Y-1509346D01*
G01X5785689Y-1499948D01*
G01X5785689Y-1494360D01*
G01X5783911Y-1484962D01*
G01X5780101Y-1479374D01*
G01X5774513Y-1477596D01*
G01X5770703Y-1477596D01*
G01X5804739Y-1484962D02*
G01X5808549Y-1483184D01*
G01X5814137Y-1477596D01*
G01X5814137Y-1516966D01*
G01X5833187Y-1529920D02*
G01X5866969Y-1529920D01*
G01X5904815Y-1477596D02*
G01X5904815Y-1507568D01*
G01X5902783Y-1513156D01*
G01X5901005Y-1514934D01*
G01X5897195Y-1516966D01*
G01X5893385Y-1516966D01*
G01X5889829Y-1514934D01*
G01X5887797Y-1513156D01*
G01X5886019Y-1507568D01*
G01X5886019Y-1503758D01*
G01X5925643Y-1486994D02*
G01X5925643Y-1484962D01*
G01X5927675Y-1481152D01*
G01X5929453Y-1479374D01*
G01X5933263Y-1477596D01*
G01X5940629Y-1477596D01*
G01X5944439Y-1479374D01*
G01X5946217Y-1481152D01*
G01X5948249Y-1484962D01*
G01X5948249Y-1488772D01*
G01X5946217Y-1492582D01*
G01X5942661Y-1498170D01*
G01X5923865Y-1516966D01*
G01X5950027Y-1516966D01*
G54D11*
G01X5784554Y165532D02*
G01X5784554Y131496D01*
G01X5782522Y125146D01*
G01X5780490Y123114D01*
G01X5776172Y120828D01*
G01X5771854Y120828D01*
G01X5767536Y123114D01*
G01X5765504Y125146D01*
G01X5763472Y131496D01*
G01X5763472Y135814D01*
G01X5808938Y154864D02*
G01X5808938Y156896D01*
G01X5810970Y161214D01*
G01X5813256Y163500D01*
G01X5817320Y165532D01*
G01X5825956Y165532D01*
G01X5830020Y163500D01*
G01X5832306Y161214D01*
G01X5834338Y156896D01*
G01X5834338Y152832D01*
G01X5832306Y148514D01*
G01X5827988Y142164D01*
G01X5806652Y120828D01*
G01X5836624Y120828D01*
G54D10*
G01X4050942Y-2577596D02*
G01X4050942Y-2616966D01*
G01X4050942Y-2577596D02*
G01X4067706Y-2577596D01*
G01X4073294Y-2579374D01*
G01X4075326Y-2581152D01*
G01X4077104Y-2584962D01*
G01X4077104Y-2588772D01*
G01X4075326Y-2592582D01*
G01X4073294Y-2594360D01*
G01X4067706Y-2596138D01*
G01X4050942Y-2596138D02*
G01X4067706Y-2596138D01*
G01X4073294Y-2598170D01*
G01X4075326Y-2599948D01*
G01X4077104Y-2603758D01*
G01X4077104Y-2609346D01*
G01X4075326Y-2613156D01*
G01X4073294Y-2614934D01*
G01X4067706Y-2616966D01*
G01X4050942Y-2616966D01*
G01X4096154Y-2577596D02*
G01X4096154Y-2616966D01*
G01X4096154Y-2577596D02*
G01X4112918Y-2577596D01*
G01X4118506Y-2579374D01*
G01X4120538Y-2581152D01*
G01X4122316Y-2584962D01*
G01X4122316Y-2588772D01*
G01X4120538Y-2592582D01*
G01X4118506Y-2594360D01*
G01X4112918Y-2596138D01*
G01X4096154Y-2596138D01*
G01X4109108Y-2596138D02*
G01X4122316Y-2616966D01*
G01X4141366Y-2577596D02*
G01X4141366Y-2616966D01*
G01X4171592Y-2577596D02*
G01X4166004Y-2579374D01*
G01X4162194Y-2584962D01*
G01X4160416Y-2594360D01*
G01X4160416Y-2599948D01*
G01X4162194Y-2609346D01*
G01X4166004Y-2614934D01*
G01X4171592Y-2616966D01*
G01X4175402Y-2616966D01*
G01X4180990Y-2614934D01*
G01X4184800Y-2609346D01*
G01X4186578Y-2599948D01*
G01X4186578Y-2594360D01*
G01X4184800Y-2584962D01*
G01X4180990Y-2579374D01*
G01X4175402Y-2577596D01*
G01X4171592Y-2577596D01*
G01X4205628Y-2584962D02*
G01X4209438Y-2583184D01*
G01X4215026Y-2577596D01*
G01X4215026Y-2616966D01*
G01X4234076Y-2629920D02*
G01X4267858Y-2629920D01*
G01X4305704Y-2577596D02*
G01X4305704Y-2607568D01*
G01X4303672Y-2613156D01*
G01X4301894Y-2614934D01*
G01X4298084Y-2616966D01*
G01X4294274Y-2616966D01*
G01X4290718Y-2614934D01*
G01X4288686Y-2613156D01*
G01X4286908Y-2607568D01*
G01X4286908Y-2603758D01*
G01X4347106Y-2583184D02*
G01X4345328Y-2579374D01*
G01X4339740Y-2577596D01*
G01X4335930Y-2577596D01*
G01X4330342Y-2579374D01*
G01X4326532Y-2584962D01*
G01X4324754Y-2594360D01*
G01X4324754Y-2603758D01*
G01X4326532Y-2611124D01*
G01X4330342Y-2614934D01*
G01X4335930Y-2616966D01*
G01X4337708Y-2616966D01*
G01X4343550Y-2614934D01*
G01X4347106Y-2611124D01*
G01X4349138Y-2605536D01*
G01X4349138Y-2603758D01*
G01X4347106Y-2598170D01*
G01X4343550Y-2594360D01*
G01X4337708Y-2592582D01*
G01X4335930Y-2592582D01*
G01X4330342Y-2594360D01*
G01X4326532Y-2598170D01*
G01X4324754Y-2603758D01*
G54D11*
G01X4185697Y-1374468D02*
G01X4185697Y-1408504D01*
G01X4183665Y-1414854D01*
G01X4181633Y-1416886D01*
G01X4177315Y-1419172D01*
G01X4172997Y-1419172D01*
G01X4168679Y-1416886D01*
G01X4166647Y-1414854D01*
G01X4164615Y-1408504D01*
G01X4164615Y-1404186D01*
G01X4233449Y-1380818D02*
G01X4231163Y-1376500D01*
G01X4224813Y-1374468D01*
G01X4220749Y-1374468D01*
G01X4214399Y-1376500D01*
G01X4210081Y-1383104D01*
G01X4207795Y-1393518D01*
G01X4207795Y-1404186D01*
G01X4210081Y-1412822D01*
G01X4214399Y-1416886D01*
G01X4220749Y-1419172D01*
G01X4222781Y-1419172D01*
G01X4229131Y-1416886D01*
G01X4233449Y-1412822D01*
G01X4235481Y-1406472D01*
G01X4235481Y-1404186D01*
G01X4233449Y-1397836D01*
G01X4229131Y-1393518D01*
G01X4222781Y-1391486D01*
G01X4220749Y-1391486D01*
G01X4214399Y-1393518D01*
G01X4210081Y-1397836D01*
G01X4207795Y-1404186D01*
G04 Text End*

G04 PolygonModel Start*
G54D10*
G01X440000Y-440000D02*
G01X760000Y-440000D01*
G01X760000Y-760000D01*
G01X440000Y-760000D01*
G01X440000Y-440000D01*
G01X10840000Y-440000D02*
G01X11160000Y-440000D01*
G01X11160000Y-760000D01*
G01X10840000Y-760000D01*
G01X10840000Y-440000D01*
G01X10840000Y-4840000D02*
G01X11160000Y-4840000D01*
G01X11160000Y-5160000D01*
G01X10840000Y-5160000D01*
G01X10840000Y-4840000D01*
G01X440000Y-4840000D02*
G01X760000Y-4840000D01*
G01X760000Y-5160000D01*
G01X440000Y-5160000D01*
G01X440000Y-4840000D01*
G01X4640000Y-3640000D02*
G01X4960000Y-3640000D01*
G01X4960000Y-3960000D01*
G01X4640000Y-3960000D01*
G01X4640000Y-3640000D01*
G01X6640000Y-3640000D02*
G01X6960000Y-3640000D01*
G01X6960000Y-3960000D01*
G01X6640000Y-3960000D01*
G01X6640000Y-3640000D01*
G01X2750000Y-5600000D02*
G01X1250000Y-5600000D01*
G01X1250000Y-4255000D01*
G01X2750000Y-4255000D01*
G01X2750000Y-5600000D01*
G01X10552000Y-5600000D02*
G01X8748000Y-5600000D01*
G01X8748000Y-2675000D01*
G01X10552000Y-2675000D01*
G01X10552000Y-5600000D01*
G01X9750000Y-850000D02*
G01X10450000Y-850000D01*
G01X10450000Y-1550000D01*
G01X9750000Y-1550000D01*
G01X9750000Y-850000D01*
G01X8150000Y-850000D02*
G01X8850000Y-850000D01*
G01X8850000Y-1550000D01*
G01X8150000Y-1550000D01*
G01X8150000Y-850000D01*
G01X5050000Y0D02*
G01X6550000Y0D01*
G01X6550000Y-1345000D01*
G01X5050000Y-1345000D01*
G01X5050000Y0D01*
G01X3850000Y-1650000D02*
G01X4550000Y-1650000D01*
G01X4550000Y-2350000D01*
G01X3850000Y-2350000D01*
G01X3850000Y-1650000D01*

M02*

