G04 Layer: BottomLayer*
G04 EasyEDA Pro v4.1.60, 2026-10-09 14:05:16*
G04 Gerber Generator version 0.3*
G04 Scale: 100 percent, Rotated: No, Reflected: No*
G04 Dimensions in millimeters*
G04 Leading zeros omitted, absolute positions, 4 integers and 5 decimals*
G04 Generated by one-click*
G04 Object Configs: Pad,Via,Track,Text,Image,Dimension,BoardOutline,BoardCutout,CopperFilled,SolidRegion,FPCStiffener,Line,PlaneZone,ComponentProperty,ComponentSilkscreen,TearDrop*
G04 Layer Configs: 1,15,16,2,3,4,5,6,7,8,9,10,11,13,14,71,72,73,74,75,76,77,78,79,80,122,56*
G04 Copper Areas: 0*
%FSLAX45Y45*%
%MOMM*%
%ADD10C,3.2*%
%ADD11C,3.18*%
%ADD12C,1.3*%
%ADD13O,1.5X2.5*%
%ADD14C,2.7*%
%ADD15C,1.2*%
%ADD16C,2.4*%
%ADD17C,0.2426*%
%ADD18C,0.24*%
G75*


G04 Pad Start*
G54D10*
G01X600000Y-600000D03*
G01X11000000Y-600000D03*
G01X11000000Y-5000000D03*
G01X600000Y-5000000D03*
G01X4800000Y-3800000D03*
G01X6800000Y-3800000D03*
G54D11*
G01X2685000Y-4894000D03*
G01X1315000Y-4894000D03*
G54D12*
G01X2357000Y-4964000D03*
G01X2255000Y-4564000D03*
G01X2153000Y-4964000D03*
G01X2051000Y-4564000D03*
G01X1949000Y-4964000D03*
G01X1847000Y-4564000D03*
G01X1745000Y-4964000D03*
G01X1643000Y-4564000D03*
G54D13*
G01X1260000Y-5199000D03*
G01X2740000Y-5199000D03*
G54D14*
G01X10031000Y-3620000D03*
G01X10031000Y-3366000D03*
G01X10031000Y-2858000D03*
G01X9269000Y-3620000D03*
G01X9269000Y-3366000D03*
G01X9269000Y-2858000D03*
G54D10*
G01X9806500Y-906500D03*
G01X9806500Y-1493500D03*
G01X10393500Y-906500D03*
G01X10393500Y-1493500D03*
G01X8206500Y-906500D03*
G01X8206500Y-1493500D03*
G01X8793500Y-906500D03*
G01X8793500Y-1493500D03*
G54D11*
G01X5115000Y-706000D03*
G01X6485000Y-706000D03*
G54D12*
G01X5443000Y-636000D03*
G01X5545000Y-1036000D03*
G01X5647000Y-636000D03*
G01X5749000Y-1036000D03*
G01X5851000Y-636000D03*
G01X5953000Y-1036000D03*
G01X6055000Y-636000D03*
G01X6157000Y-1036000D03*
G54D13*
G01X6540000Y-401000D03*
G01X5060000Y-401000D03*
G54D10*
G01X3906500Y-1706500D03*
G01X3906500Y-2293500D03*
G01X4493500Y-1706500D03*
G01X4493500Y-2293500D03*
G04 Pad End*

G04 Via Start*
G54D15*
G01X2780000Y-4300000D03*
G01X5090000Y-1700000D03*
G01X2600000Y-4300000D03*
G01X5090000Y-1100000D03*
G01X3280000Y-4300000D03*
G01X5680000Y-1300000D03*
G01X3100000Y-4300000D03*
G01X5500000Y-1300000D03*
G01X3780000Y-4300000D03*
G01X6180000Y-1300000D03*
G01X3600000Y-4300000D03*
G01X6000000Y-1300000D03*
G01X4280000Y-4300000D03*
G01X6680000Y-1300000D03*
G01X4100000Y-4300000D03*
G01X6500000Y-1300000D03*
G04 Via End*

G04 Track Start*
G54D16*
G01X10030968Y-3620008D02*
G01X10030968Y-3366000D01*
G01X10030968Y-2858000D01*
G01X10030968Y-1493520D01*
G01X9806432Y-1493520D01*
G01X9806432Y-906526D01*
G01X10393426Y-906526D01*
G01X10393426Y-1493520D01*
G01X10030968Y-1493520D01*
G01X9268968Y-3620008D02*
G01X9268968Y-3366000D01*
G01X9268968Y-2858000D01*
G01X9268968Y-2000000D01*
G01X8793480Y-1524512D01*
G01X8793480Y-1493520D01*
G01X8206486Y-1493520D01*
G01X8206486Y-906526D01*
G01X8793480Y-906526D01*
G01X8793480Y-1493520D01*
G54D18*
G01X2357120Y-4963922D02*
G01X2780000Y-4300000D01*
G01X5442966Y-636016D02*
G01X5090000Y-1700000D01*
G01X2255012Y-4564126D02*
G01X2600000Y-4300000D01*
G01X5545074Y-1036066D02*
G01X5550000Y-1040000D01*
G01X2152904Y-4963922D02*
G01X2150000Y-4960000D01*
G01X5646928Y-636016D02*
G01X5650000Y-1290000D01*
G01X5680000Y-1300000D01*
G01X1847088Y-4564126D02*
G01X1850000Y-4560000D01*
G01X5952998Y-1036066D02*
G01X5950000Y-1040000D01*
G01X2051050Y-4564126D02*
G01X2580000Y-4200000D01*
G01X3650000Y-4200000D01*
G01X3780000Y-4300000D01*
G01X5749036Y-1036066D02*
G01X6180000Y-1300000D01*
G01X1948942Y-4963922D02*
G01X2700000Y-5370000D01*
G01X2840000Y-5340000D01*
G01X3600000Y-4300000D01*
G01X5850890Y-636016D02*
G01X5850000Y-640000D01*
G01X1744980Y-4963922D02*
G01X1740000Y-4960000D01*
G01X6055106Y-636016D02*
G01X6680000Y-1300000D01*
G01X1643126Y-4564126D02*
G01X1850000Y-4450000D01*
G01X2610000Y-4140000D01*
G01X2795015Y-4141581D01*
G01X2836225Y-4000195D01*
G01X2896222Y-4000708D01*
G01X2935009Y-4142778D01*
G01X2995007Y-4143291D01*
G01X3036217Y-4001904D01*
G01X3096215Y-4002417D01*
G01X3135002Y-4144487D01*
G01X3195000Y-4145000D01*
G01X3236210Y-4003614D01*
G01X3296208Y-4004127D01*
G01X3334995Y-4146197D01*
G01X3394993Y-4146709D01*
G01X3436203Y-4005323D01*
G01X3496200Y-4005836D01*
G01X3534988Y-4147906D01*
G01X3780000Y-4150000D02*
G01X3534988Y-4147906D01*
G01X3780000Y-4150000D02*
G01X4100000Y-4300000D01*
G01X6156960Y-1036066D02*
G01X6500000Y-1300000D01*
G04 Track End*

M02*

