G04 Layer: DrillDrawingLayer*
G04 EasyEDA Pro v4.1.60, 2026-10-09 14:05:16*
G04 Gerber Generator version 0.3*
G04 Scale: 100 percent, Rotated: No, Reflected: No*
G04 Dimensions in millimeters*
G04 Leading zeros omitted, absolute positions, 4 integers and 5 decimals*
G04 Generated by one-click*
G04 Object Configs: Pad,Via,Track,Text,Image,Dimension,BoardOutline,BoardCutout,CopperFilled,SolidRegion,FPCStiffener,Line,PlaneZone,ComponentProperty,ComponentSilkscreen,TearDrop*
G04 Layer Configs: 1,15,16,2,3,4,5,6,7,8,9,10,11,13,14,71,72,73,74,75,76,77,78,79,80,122,56*
G04 Copper Areas: 0*
%FSLAX45Y45*%
%MOMM*%
%AMIconRect*4,1,4,0.28,-0.28,-0.28,-0.28,-0.28,0.28,0.28,0.28,0.28,-0.28,0*4,0,4,0.233333,-0.233333,0.233333,0.233333,-0.233333,0.233333,-0.233333,-0.233333,0.233333,-0.233333,0*%
%AMIconTriangle*4,1,3,-0.339593,0.240473,0.339593,0.240473,0,-0.37884,-0.339593,0.240473,0*4,0,3,-0.265673,0.19404,0,-0.27342,0.266233,0.19404,-0.265673,0.19404,0*%
%AMIconStar6*4,1,12,0.12068,0.20888,0.298527,0.172713,0.241313,0,0.298527,-0.17206,0.12068,-0.208227,0,-0.344073,-0.120073,-0.208227,-0.298573,-0.17206,-0.240707,0,-0.298573,0.17206,-0.120073,0.20888,0,0.344073,0.12068,0.20888,0*4,0,12,-0.000467,0.273467,-0.090067,0.171733,-0.237533,0.136733,-0.193667,-0.007467,-0.237533,-0.1372,-0.090067,-0.171733,-0.000467,-0.273933,0.090067,-0.171733,0.237533,-0.1372,0.194133,0.007,0.237533,0.1372,0.090067,0.171267,-0.000467,0.273467,0*%
%AMIconStar4*4,1,8,-0.311733,0.311733,0,0.202533,0.311733,0.311733,0.202533,0,0.311733,-0.311733,0,-0.202533,-0.304407,-0.311733,-0.202533,0,-0.311733,0.311733,0*4,0,8,0.233333,-0.233333,0.1512,0,0.233333,0.233333,0,0.1512,-0.233333,0.233333,-0.1512,0,-0.233333,-0.233333,0,-0.1512,0.233333,-0.233333,0*%
%AMIconPlus*4,1,12,0.1736,-0.28,-0.1736,-0.28,-0.1736,-0.1736,-0.28,-0.1736,-0.28,0.1736,-0.1736,0.1736,-0.1736,0.28,0.1736,0.28,0.1736,0.1736,0.28,0.1736,0.28,-0.1736,0.1736,-0.1736,0.1736,-0.28,0*4,0,12,0.126933,-0.233333,0.126933,-0.126933,0.233333,-0.126933,0.233333,0.126933,0.126933,0.126933,0.126933,0.233333,-0.126933,0.233333,-0.126933,0.126933,-0.233333,0.126933,-0.233333,-0.126933,-0.126933,-0.126933,-0.126933,-0.233333,0.126933,-0.233333,0*%
%AMIconX*4,1,16,0.28,-0.28,0.076347,-0.28,0,-0.203653,-0.076347,-0.28,-0.28,-0.28,-0.28,-0.076347,-0.203653,0,-0.28,0.076347,-0.28,0.28,-0.076347,0.28,0,0.203653,0.076347,0.28,0.28,0.28,0.28,0.076347,0.203653,0,0.28,-0.076347,0.28,-0.28,0*4,0,16,0.23352,-0.23296,0.23352,-0.095853,0.137107,0.000093,0.23352,0.095853,0.23352,0.2331,0.095853,0.2331,0,0.137107,-0.095853,0.2331,-0.23352,0.2331,-0.23352,0.095853,-0.137107,0.000093,-0.23352,-0.095853,-0.23352,-0.23296,-0.095853,-0.23296,0,-0.137107,0.095853,-0.23296,0.23352,-0.23296,0*%
%ADD10IconRect*%
%ADD11C,0.616X0.522667*%
%ADD12IconTriangle*%
%ADD13IconStar6*%
%ADD14IconStar4*%
%ADD15IconPlus*%
%ADD16IconX*%
%ADD17C,0.2032*%
%ADD18C,0.254*%
G75*


G04 Drill Drawing Start*
G54D10*
G01X1315000Y-4894000D03*
G01X2685000Y-4894000D03*
G01X5115000Y-706000D03*
G01X6485000Y-706000D03*
G54D11*
G01X1260000Y-5199000D03*
G01X2740000Y-5199000D03*
G01X5060000Y-401000D03*
G01X6540000Y-401000D03*
G54D12*
G01X600000Y-5000000D03*
G01X600000Y-600000D03*
G01X4800000Y-3800000D03*
G01X6800000Y-3800000D03*
G01X11000000Y-5000000D03*
G01X11000000Y-600000D03*
G54D13*
G01X9269000Y-3620000D03*
G01X9269000Y-3366000D03*
G01X9269000Y-2858000D03*
G01X10031000Y-3620000D03*
G01X10031000Y-3366000D03*
G01X10031000Y-2858000D03*
G54D14*
G01X3906500Y-2293500D03*
G01X3906500Y-1706500D03*
G01X4493500Y-2293500D03*
G01X4493500Y-1706500D03*
G01X8206500Y-1493500D03*
G01X8206500Y-906500D03*
G01X8793500Y-1493500D03*
G01X8793500Y-906500D03*
G01X9806500Y-1493500D03*
G01X9806500Y-906500D03*
G01X10393500Y-1493500D03*
G01X10393500Y-906500D03*
G54D15*
G01X2600000Y-4300000D03*
G01X2780000Y-4300000D03*
G01X3100000Y-4300000D03*
G01X3280000Y-4300000D03*
G01X3600000Y-4300000D03*
G01X3780000Y-4300000D03*
G01X4100000Y-4300000D03*
G01X4280000Y-4300000D03*
G01X5090000Y-1700000D03*
G01X5090000Y-1100000D03*
G01X5500000Y-1300000D03*
G01X5680000Y-1300000D03*
G01X6000000Y-1300000D03*
G01X6180000Y-1300000D03*
G01X6500000Y-1300000D03*
G01X6680000Y-1300000D03*
G54D16*
G01X1643000Y-4564000D03*
G01X1745000Y-4964000D03*
G01X1847000Y-4564000D03*
G01X1949000Y-4964000D03*
G01X2051000Y-4564000D03*
G01X2153000Y-4964000D03*
G01X2255000Y-4564000D03*
G01X2357000Y-4964000D03*
G01X5443000Y-636000D03*
G01X5545000Y-1036000D03*
G01X5647000Y-636000D03*
G01X5749000Y-1036000D03*
G01X5851000Y-636000D03*
G01X5953000Y-1036000D03*
G01X6055000Y-636000D03*
G01X6157000Y-1036000D03*
G04 Drill Drawing End*

G04 Text Start*
G54D17*
G01X13900446Y-221706D02*
G01X13900446Y-341848D01*
G01X13900446Y-221706D02*
G01X13946166Y-341848D01*
G01X13991886Y-221706D02*
G01X13946166Y-341848D01*
G01X13991886Y-221706D02*
G01X13991886Y-341848D01*
G01X14108218Y-261838D02*
G01X14108218Y-341848D01*
G01X14108218Y-278856D02*
G01X14096788Y-267426D01*
G01X14085358Y-261838D01*
G01X14068340Y-261838D01*
G01X14056910Y-267426D01*
G01X14045480Y-278856D01*
G01X14039638Y-296128D01*
G01X14039638Y-307558D01*
G01X14045480Y-324576D01*
G01X14056910Y-336006D01*
G01X14068340Y-341848D01*
G01X14085358Y-341848D01*
G01X14096788Y-336006D01*
G01X14108218Y-324576D01*
G01X14155970Y-261838D02*
G01X14155970Y-341848D01*
G01X14155970Y-296128D02*
G01X14161812Y-278856D01*
G01X14173242Y-267426D01*
G01X14184672Y-261838D01*
G01X14201690Y-261838D01*
G01X14249442Y-221706D02*
G01X14249442Y-341848D01*
G01X14306592Y-261838D02*
G01X14249442Y-318988D01*
G01X14272302Y-296128D02*
G01X14312434Y-341848D01*
G01X15437726Y-250408D02*
G01X15431884Y-238978D01*
G01X15420454Y-227548D01*
G01X15409024Y-221706D01*
G01X15386164Y-221706D01*
G01X15374734Y-227548D01*
G01X15363304Y-238978D01*
G01X15357716Y-250408D01*
G01X15351874Y-267426D01*
G01X15351874Y-296128D01*
G01X15357716Y-313146D01*
G01X15363304Y-324576D01*
G01X15374734Y-336006D01*
G01X15386164Y-341848D01*
G01X15409024Y-341848D01*
G01X15420454Y-336006D01*
G01X15431884Y-324576D01*
G01X15437726Y-313146D01*
G01X15514180Y-261838D02*
G01X15502750Y-267426D01*
G01X15491320Y-278856D01*
G01X15485478Y-296128D01*
G01X15485478Y-307558D01*
G01X15491320Y-324576D01*
G01X15502750Y-336006D01*
G01X15514180Y-341848D01*
G01X15531198Y-341848D01*
G01X15542628Y-336006D01*
G01X15554058Y-324576D01*
G01X15559900Y-307558D01*
G01X15559900Y-296128D01*
G01X15554058Y-278856D01*
G01X15542628Y-267426D01*
G01X15531198Y-261838D01*
G01X15514180Y-261838D01*
G01X15607652Y-261838D02*
G01X15607652Y-318988D01*
G01X15613494Y-336006D01*
G01X15624924Y-341848D01*
G01X15641942Y-341848D01*
G01X15653372Y-336006D01*
G01X15670644Y-318988D01*
G01X15670644Y-261838D02*
G01X15670644Y-341848D01*
G01X15718396Y-261838D02*
G01X15718396Y-341848D01*
G01X15718396Y-284698D02*
G01X15735668Y-267426D01*
G01X15747098Y-261838D01*
G01X15764116Y-261838D01*
G01X15775546Y-267426D01*
G01X15781388Y-284698D01*
G01X15781388Y-341848D01*
G01X15846412Y-221706D02*
G01X15846412Y-318988D01*
G01X15852000Y-336006D01*
G01X15863430Y-341848D01*
G01X15874860Y-341848D01*
G01X15829140Y-261838D02*
G01X15869272Y-261838D01*
G01X16846047Y-238978D02*
G01X16834617Y-227548D01*
G01X16817599Y-221706D01*
G01X16794739Y-221706D01*
G01X16777467Y-227548D01*
G01X16766037Y-238978D01*
G01X16766037Y-250408D01*
G01X16771879Y-261838D01*
G01X16777467Y-267426D01*
G01X16788897Y-273268D01*
G01X16823187Y-284698D01*
G01X16834617Y-290286D01*
G01X16840459Y-296128D01*
G01X16846047Y-307558D01*
G01X16846047Y-324576D01*
G01X16834617Y-336006D01*
G01X16817599Y-341848D01*
G01X16794739Y-341848D01*
G01X16777467Y-336006D01*
G01X16766037Y-324576D01*
G01X16893799Y-221706D02*
G01X16899641Y-227548D01*
G01X16905229Y-221706D01*
G01X16899641Y-216118D01*
G01X16893799Y-221706D01*
G01X16899641Y-261838D02*
G01X16899641Y-341848D01*
G01X17015973Y-261838D02*
G01X16952981Y-341848D01*
G01X16952981Y-261838D02*
G01X17015973Y-261838D01*
G01X16952981Y-341848D02*
G01X17015973Y-341848D01*
G01X17063725Y-296128D02*
G01X17132305Y-296128D01*
G01X17132305Y-284698D01*
G01X17126717Y-273268D01*
G01X17120875Y-267426D01*
G01X17109445Y-261838D01*
G01X17092427Y-261838D01*
G01X17080997Y-267426D01*
G01X17069567Y-278856D01*
G01X17063725Y-296128D01*
G01X17063725Y-307558D01*
G01X17069567Y-324576D01*
G01X17080997Y-336006D01*
G01X17092427Y-341848D01*
G01X17109445Y-341848D01*
G01X17120875Y-336006D01*
G01X17132305Y-324576D01*
G01X20801227Y-221706D02*
G01X20801227Y-341848D01*
G01X20801227Y-221706D02*
G01X20852789Y-221706D01*
G01X20869807Y-227548D01*
G01X20875649Y-233136D01*
G01X20881237Y-244566D01*
G01X20881237Y-261838D01*
G01X20875649Y-273268D01*
G01X20869807Y-278856D01*
G01X20852789Y-284698D01*
G01X20801227Y-284698D01*
G01X20928989Y-221706D02*
G01X20928989Y-341848D01*
G01X21045321Y-261838D02*
G01X21045321Y-341848D01*
G01X21045321Y-278856D02*
G01X21033891Y-267426D01*
G01X21022461Y-261838D01*
G01X21005443Y-261838D01*
G01X20994013Y-267426D01*
G01X20982583Y-278856D01*
G01X20976741Y-296128D01*
G01X20976741Y-307558D01*
G01X20982583Y-324576D01*
G01X20994013Y-336006D01*
G01X21005443Y-341848D01*
G01X21022461Y-341848D01*
G01X21033891Y-336006D01*
G01X21045321Y-324576D01*
G01X21110345Y-221706D02*
G01X21110345Y-318988D01*
G01X21115933Y-336006D01*
G01X21127363Y-341848D01*
G01X21138793Y-341848D01*
G01X21093073Y-261838D02*
G01X21133205Y-261838D01*
G01X21186545Y-296128D02*
G01X21255125Y-296128D01*
G01X21255125Y-284698D01*
G01X21249537Y-273268D01*
G01X21243695Y-267426D01*
G01X21232265Y-261838D01*
G01X21215247Y-261838D01*
G01X21203817Y-267426D01*
G01X21192387Y-278856D01*
G01X21186545Y-296128D01*
G01X21186545Y-307558D01*
G01X21192387Y-324576D01*
G01X21203817Y-336006D01*
G01X21215247Y-341848D01*
G01X21232265Y-341848D01*
G01X21243695Y-336006D01*
G01X21255125Y-324576D01*
G01X21371457Y-221706D02*
G01X21371457Y-341848D01*
G01X21371457Y-278856D02*
G01X21360027Y-267426D01*
G01X21348597Y-261838D01*
G01X21331579Y-261838D01*
G01X21320149Y-267426D01*
G01X21308719Y-278856D01*
G01X21302877Y-296128D01*
G01X21302877Y-307558D01*
G01X21308719Y-324576D01*
G01X21320149Y-336006D01*
G01X21331579Y-341848D01*
G01X21348597Y-341848D01*
G01X21360027Y-336006D01*
G01X21371457Y-324576D01*
G01X22342644Y-238978D02*
G01X22331214Y-227548D01*
G01X22314196Y-221706D01*
G01X22291336Y-221706D01*
G01X22274064Y-227548D01*
G01X22262634Y-238978D01*
G01X22262634Y-250408D01*
G01X22268476Y-261838D01*
G01X22274064Y-267426D01*
G01X22285494Y-273268D01*
G01X22319784Y-284698D01*
G01X22331214Y-290286D01*
G01X22337056Y-296128D01*
G01X22342644Y-307558D01*
G01X22342644Y-324576D01*
G01X22331214Y-336006D01*
G01X22314196Y-341848D01*
G01X22291336Y-341848D01*
G01X22274064Y-336006D01*
G01X22262634Y-324576D01*
G01X22390396Y-221706D02*
G01X22390396Y-341848D01*
G01X22390396Y-284698D02*
G01X22407668Y-267426D01*
G01X22419098Y-261838D01*
G01X22436116Y-261838D01*
G01X22447546Y-267426D01*
G01X22453388Y-284698D01*
G01X22453388Y-341848D01*
G01X22569720Y-261838D02*
G01X22569720Y-341848D01*
G01X22569720Y-278856D02*
G01X22558290Y-267426D01*
G01X22546860Y-261838D01*
G01X22529842Y-261838D01*
G01X22518412Y-267426D01*
G01X22506982Y-278856D01*
G01X22501140Y-296128D01*
G01X22501140Y-307558D01*
G01X22506982Y-324576D01*
G01X22518412Y-336006D01*
G01X22529842Y-341848D01*
G01X22546860Y-341848D01*
G01X22558290Y-336006D01*
G01X22569720Y-324576D01*
G01X22617472Y-261838D02*
G01X22617472Y-381726D01*
G01X22617472Y-278856D02*
G01X22628902Y-267426D01*
G01X22640332Y-261838D01*
G01X22657604Y-261838D01*
G01X22669034Y-267426D01*
G01X22680464Y-278856D01*
G01X22686052Y-296128D01*
G01X22686052Y-307558D01*
G01X22680464Y-324576D01*
G01X22669034Y-336006D01*
G01X22657604Y-341848D01*
G01X22640332Y-341848D01*
G01X22628902Y-336006D01*
G01X22617472Y-324576D01*
G01X22733804Y-296128D02*
G01X22802384Y-296128D01*
G01X22802384Y-284698D01*
G01X22796796Y-273268D01*
G01X22790954Y-267426D01*
G01X22779524Y-261838D01*
G01X22762506Y-261838D01*
G01X22751076Y-267426D01*
G01X22739646Y-278856D01*
G01X22733804Y-296128D01*
G01X22733804Y-307558D01*
G01X22739646Y-324576D01*
G01X22751076Y-336006D01*
G01X22762506Y-341848D01*
G01X22779524Y-341848D01*
G01X22790954Y-336006D01*
G01X22802384Y-324576D01*
G01X23693815Y-221706D02*
G01X23739535Y-341848D01*
G01X23785255Y-221706D02*
G01X23739535Y-341848D01*
G01X23833007Y-221706D02*
G01X23838849Y-227548D01*
G01X23844437Y-221706D01*
G01X23838849Y-216118D01*
G01X23833007Y-221706D01*
G01X23838849Y-261838D02*
G01X23838849Y-341848D01*
G01X23960769Y-261838D02*
G01X23960769Y-341848D01*
G01X23960769Y-278856D02*
G01X23949339Y-267426D01*
G01X23937909Y-261838D01*
G01X23920891Y-261838D01*
G01X23909461Y-267426D01*
G01X23898031Y-278856D01*
G01X23892189Y-296128D01*
G01X23892189Y-307558D01*
G01X23898031Y-324576D01*
G01X23909461Y-336006D01*
G01X23920891Y-341848D01*
G01X23937909Y-341848D01*
G01X23949339Y-336006D01*
G01X23960769Y-324576D01*
G01X24111391Y-198846D02*
G01X24008521Y-381726D01*
G01X24159143Y-221706D02*
G01X24159143Y-341848D01*
G01X24159143Y-221706D02*
G01X24210705Y-221706D01*
G01X24227723Y-227548D01*
G01X24233565Y-233136D01*
G01X24239153Y-244566D01*
G01X24239153Y-261838D01*
G01X24233565Y-273268D01*
G01X24227723Y-278856D01*
G01X24210705Y-284698D01*
G01X24159143Y-284698D01*
G01X24355485Y-261838D02*
G01X24355485Y-341848D01*
G01X24355485Y-278856D02*
G01X24344055Y-267426D01*
G01X24332625Y-261838D01*
G01X24315607Y-261838D01*
G01X24304177Y-267426D01*
G01X24292747Y-278856D01*
G01X24286905Y-296128D01*
G01X24286905Y-307558D01*
G01X24292747Y-324576D01*
G01X24304177Y-336006D01*
G01X24315607Y-341848D01*
G01X24332625Y-341848D01*
G01X24344055Y-336006D01*
G01X24355485Y-324576D01*
G01X24471817Y-221706D02*
G01X24471817Y-341848D01*
G01X24471817Y-278856D02*
G01X24460387Y-267426D01*
G01X24448957Y-261838D01*
G01X24431939Y-261838D01*
G01X24420509Y-267426D01*
G01X24409079Y-278856D01*
G01X24403237Y-296128D01*
G01X24403237Y-307558D01*
G01X24409079Y-324576D01*
G01X24420509Y-336006D01*
G01X24431939Y-341848D01*
G01X24448957Y-341848D01*
G01X24460387Y-336006D01*
G01X24471817Y-324576D01*
G01X25362994Y-221706D02*
G01X25362994Y-341848D01*
G01X25362994Y-221706D02*
G01X25414556Y-221706D01*
G01X25431574Y-227548D01*
G01X25437416Y-233136D01*
G01X25443004Y-244566D01*
G01X25443004Y-261838D01*
G01X25437416Y-273268D01*
G01X25431574Y-278856D01*
G01X25414556Y-284698D01*
G01X25362994Y-284698D01*
G01X25559336Y-261838D02*
G01X25559336Y-341848D01*
G01X25559336Y-278856D02*
G01X25547906Y-267426D01*
G01X25536476Y-261838D01*
G01X25519458Y-261838D01*
G01X25508028Y-267426D01*
G01X25496598Y-278856D01*
G01X25490756Y-296128D01*
G01X25490756Y-307558D01*
G01X25496598Y-324576D01*
G01X25508028Y-336006D01*
G01X25519458Y-341848D01*
G01X25536476Y-341848D01*
G01X25547906Y-336006D01*
G01X25559336Y-324576D01*
G01X25675668Y-221706D02*
G01X25675668Y-341848D01*
G01X25675668Y-278856D02*
G01X25664238Y-267426D01*
G01X25652808Y-261838D01*
G01X25635790Y-261838D01*
G01X25624360Y-267426D01*
G01X25612930Y-278856D01*
G01X25607088Y-296128D01*
G01X25607088Y-307558D01*
G01X25612930Y-324576D01*
G01X25624360Y-336006D01*
G01X25635790Y-341848D01*
G01X25652808Y-341848D01*
G01X25664238Y-336006D01*
G01X25675668Y-324576D01*
G01X25931446Y-238978D02*
G01X25920016Y-227548D01*
G01X25902998Y-221706D01*
G01X25880138Y-221706D01*
G01X25862866Y-227548D01*
G01X25851436Y-238978D01*
G01X25851436Y-250408D01*
G01X25857278Y-261838D01*
G01X25862866Y-267426D01*
G01X25874296Y-273268D01*
G01X25908586Y-284698D01*
G01X25920016Y-290286D01*
G01X25925858Y-296128D01*
G01X25931446Y-307558D01*
G01X25931446Y-324576D01*
G01X25920016Y-336006D01*
G01X25902998Y-341848D01*
G01X25880138Y-341848D01*
G01X25862866Y-336006D01*
G01X25851436Y-324576D01*
G01X25979198Y-221706D02*
G01X25979198Y-341848D01*
G01X25979198Y-284698D02*
G01X25996470Y-267426D01*
G01X26007900Y-261838D01*
G01X26024918Y-261838D01*
G01X26036348Y-267426D01*
G01X26042190Y-284698D01*
G01X26042190Y-341848D01*
G01X26158522Y-261838D02*
G01X26158522Y-341848D01*
G01X26158522Y-278856D02*
G01X26147092Y-267426D01*
G01X26135662Y-261838D01*
G01X26118644Y-261838D01*
G01X26107214Y-267426D01*
G01X26095784Y-278856D01*
G01X26089942Y-296128D01*
G01X26089942Y-307558D01*
G01X26095784Y-324576D01*
G01X26107214Y-336006D01*
G01X26118644Y-341848D01*
G01X26135662Y-341848D01*
G01X26147092Y-336006D01*
G01X26158522Y-324576D01*
G01X26206274Y-261838D02*
G01X26206274Y-381726D01*
G01X26206274Y-278856D02*
G01X26217704Y-267426D01*
G01X26229134Y-261838D01*
G01X26246406Y-261838D01*
G01X26257836Y-267426D01*
G01X26269266Y-278856D01*
G01X26274854Y-296128D01*
G01X26274854Y-307558D01*
G01X26269266Y-324576D01*
G01X26257836Y-336006D01*
G01X26246406Y-341848D01*
G01X26229134Y-341848D01*
G01X26217704Y-336006D01*
G01X26206274Y-324576D01*
G01X26322606Y-296128D02*
G01X26391186Y-296128D01*
G01X26391186Y-284698D01*
G01X26385598Y-273268D01*
G01X26379756Y-267426D01*
G01X26368326Y-261838D01*
G01X26351308Y-261838D01*
G01X26339878Y-267426D01*
G01X26328448Y-278856D01*
G01X26322606Y-296128D01*
G01X26322606Y-307558D01*
G01X26328448Y-324576D01*
G01X26339878Y-336006D01*
G01X26351308Y-341848D01*
G01X26368326Y-341848D01*
G01X26379756Y-336006D01*
G01X26391186Y-324576D01*
G01X27282363Y-221706D02*
G01X27282363Y-341848D01*
G01X27282363Y-341848D02*
G01X27350943Y-341848D01*
G01X27467275Y-261838D02*
G01X27467275Y-341848D01*
G01X27467275Y-278856D02*
G01X27455845Y-267426D01*
G01X27444415Y-261838D01*
G01X27427397Y-261838D01*
G01X27415967Y-267426D01*
G01X27404537Y-278856D01*
G01X27398695Y-296128D01*
G01X27398695Y-307558D01*
G01X27404537Y-324576D01*
G01X27415967Y-336006D01*
G01X27427397Y-341848D01*
G01X27444415Y-341848D01*
G01X27455845Y-336006D01*
G01X27467275Y-324576D01*
G01X27520869Y-261838D02*
G01X27555159Y-341848D01*
G01X27589449Y-261838D02*
G01X27555159Y-341848D01*
G01X27543729Y-364708D01*
G01X27532299Y-376138D01*
G01X27520869Y-381726D01*
G01X27515027Y-381726D01*
G01X27637201Y-296128D02*
G01X27705781Y-296128D01*
G01X27705781Y-284698D01*
G01X27700193Y-273268D01*
G01X27694351Y-267426D01*
G01X27682921Y-261838D01*
G01X27665903Y-261838D01*
G01X27654473Y-267426D01*
G01X27643043Y-278856D01*
G01X27637201Y-296128D01*
G01X27637201Y-307558D01*
G01X27643043Y-324576D01*
G01X27654473Y-336006D01*
G01X27665903Y-341848D01*
G01X27682921Y-341848D01*
G01X27694351Y-336006D01*
G01X27705781Y-324576D01*
G01X27753533Y-261838D02*
G01X27753533Y-341848D01*
G01X27753533Y-296128D02*
G01X27759375Y-278856D01*
G01X27770805Y-267426D01*
G01X27782235Y-261838D01*
G01X27799253Y-261838D01*
G01X27975021Y-221706D02*
G01X27975021Y-341848D01*
G01X27975021Y-221706D02*
G01X28026583Y-221706D01*
G01X28043601Y-227548D01*
G01X28049443Y-233136D01*
G01X28055031Y-244566D01*
G01X28055031Y-261838D01*
G01X28049443Y-273268D01*
G01X28043601Y-278856D01*
G01X28026583Y-284698D01*
G01X27975021Y-284698D01*
G01X28171363Y-261838D02*
G01X28171363Y-341848D01*
G01X28171363Y-278856D02*
G01X28159933Y-267426D01*
G01X28148503Y-261838D01*
G01X28131485Y-261838D01*
G01X28120055Y-267426D01*
G01X28108625Y-278856D01*
G01X28102783Y-296128D01*
G01X28102783Y-307558D01*
G01X28108625Y-324576D01*
G01X28120055Y-336006D01*
G01X28131485Y-341848D01*
G01X28148503Y-341848D01*
G01X28159933Y-336006D01*
G01X28171363Y-324576D01*
G01X28219115Y-221706D02*
G01X28224957Y-227548D01*
G01X28230545Y-221706D01*
G01X28224957Y-216118D01*
G01X28219115Y-221706D01*
G01X28224957Y-261838D02*
G01X28224957Y-341848D01*
G01X28278297Y-261838D02*
G01X28278297Y-341848D01*
G01X28278297Y-296128D02*
G01X28284139Y-278856D01*
G01X28295569Y-267426D01*
G01X28306999Y-261838D01*
G01X28324017Y-261838D01*
G01X15409024Y-802277D02*
G01X15351874Y-882287D01*
G01X15437726Y-882287D01*
G01X15409024Y-802277D02*
G01X15409024Y-922419D01*
G01X16766037Y-825137D02*
G01X16777467Y-819549D01*
G01X16794739Y-802277D01*
G01X16794739Y-922419D01*
G01X16848333Y-830979D02*
G01X16848333Y-825137D01*
G01X16853921Y-813707D01*
G01X16859763Y-808119D01*
G01X16871193Y-802277D01*
G01X16894053Y-802277D01*
G01X16905483Y-808119D01*
G01X16911071Y-813707D01*
G01X16916913Y-825137D01*
G01X16916913Y-836567D01*
G01X16911071Y-847997D01*
G01X16899641Y-865269D01*
G01X16842491Y-922419D01*
G01X16922501Y-922419D01*
G01X17038833Y-802277D02*
G01X16981683Y-802277D01*
G01X16976095Y-853839D01*
G01X16981683Y-847997D01*
G01X16998955Y-842409D01*
G01X17015973Y-842409D01*
G01X17033245Y-847997D01*
G01X17044675Y-859427D01*
G01X17050263Y-876699D01*
G01X17050263Y-888129D01*
G01X17044675Y-905147D01*
G01X17033245Y-916577D01*
G01X17015973Y-922419D01*
G01X16998955Y-922419D01*
G01X16981683Y-916577D01*
G01X16976095Y-910989D01*
G01X16970253Y-899559D01*
G01X17103857Y-893717D02*
G01X17098015Y-899559D01*
G01X17103857Y-905147D01*
G01X17109445Y-899559D01*
G01X17103857Y-893717D01*
G01X17163039Y-830979D02*
G01X17163039Y-825137D01*
G01X17168627Y-813707D01*
G01X17174469Y-808119D01*
G01X17185899Y-802277D01*
G01X17208759Y-802277D01*
G01X17220189Y-808119D01*
G01X17225777Y-813707D01*
G01X17231619Y-825137D01*
G01X17231619Y-836567D01*
G01X17225777Y-847997D01*
G01X17214347Y-865269D01*
G01X17157197Y-922419D01*
G01X17237207Y-922419D01*
G01X17284959Y-842409D02*
G01X17347951Y-922419D01*
G01X17347951Y-842409D02*
G01X17284959Y-922419D01*
G01X17395703Y-825137D02*
G01X17407133Y-819549D01*
G01X17424405Y-802277D01*
G01X17424405Y-922419D01*
G01X17477999Y-830979D02*
G01X17477999Y-825137D01*
G01X17483587Y-813707D01*
G01X17489429Y-808119D01*
G01X17500859Y-802277D01*
G01X17523719Y-802277D01*
G01X17535149Y-808119D01*
G01X17540737Y-813707D01*
G01X17546579Y-825137D01*
G01X17546579Y-836567D01*
G01X17540737Y-847997D01*
G01X17529307Y-865269D01*
G01X17472157Y-922419D01*
G01X17552167Y-922419D01*
G01X17668499Y-802277D02*
G01X17611349Y-802277D01*
G01X17605761Y-853839D01*
G01X17611349Y-847997D01*
G01X17628621Y-842409D01*
G01X17645639Y-842409D01*
G01X17662911Y-847997D01*
G01X17674341Y-859427D01*
G01X17679929Y-876699D01*
G01X17679929Y-888129D01*
G01X17674341Y-905147D01*
G01X17662911Y-916577D01*
G01X17645639Y-922419D01*
G01X17628621Y-922419D01*
G01X17611349Y-916577D01*
G01X17605761Y-910989D01*
G01X17599919Y-899559D01*
G01X17733523Y-893717D02*
G01X17727681Y-899559D01*
G01X17733523Y-905147D01*
G01X17739111Y-899559D01*
G01X17733523Y-893717D01*
G01X17792705Y-830979D02*
G01X17792705Y-825137D01*
G01X17798293Y-813707D01*
G01X17804135Y-808119D01*
G01X17815565Y-802277D01*
G01X17838425Y-802277D01*
G01X17849855Y-808119D01*
G01X17855443Y-813707D01*
G01X17861285Y-825137D01*
G01X17861285Y-836567D01*
G01X17855443Y-847997D01*
G01X17844013Y-865269D01*
G01X17786863Y-922419D01*
G01X17866873Y-922419D01*
G01X17914625Y-842409D02*
G01X17914625Y-922419D01*
G01X17914625Y-865269D02*
G01X17931897Y-847997D01*
G01X17943327Y-842409D01*
G01X17960345Y-842409D01*
G01X17971775Y-847997D01*
G01X17977617Y-865269D01*
G01X17977617Y-922419D01*
G01X17977617Y-865269D02*
G01X17994635Y-847997D01*
G01X18006065Y-842409D01*
G01X18023337Y-842409D01*
G01X18034767Y-847997D01*
G01X18040355Y-865269D01*
G01X18040355Y-922419D01*
G01X18088107Y-802277D02*
G01X18093949Y-808119D01*
G01X18099537Y-802277D01*
G01X18093949Y-796689D01*
G01X18088107Y-802277D01*
G01X18093949Y-842409D02*
G01X18093949Y-922419D01*
G01X18147289Y-802277D02*
G01X18147289Y-922419D01*
G01X18235173Y-779417D02*
G01X18223743Y-790847D01*
G01X18212313Y-808119D01*
G01X18200883Y-830979D01*
G01X18195041Y-859427D01*
G01X18195041Y-882287D01*
G01X18200883Y-910989D01*
G01X18212313Y-933849D01*
G01X18223743Y-950867D01*
G01X18235173Y-962297D01*
G01X18294355Y-802277D02*
G01X18357347Y-802277D01*
G01X18323057Y-847997D01*
G01X18340075Y-847997D01*
G01X18351505Y-853839D01*
G01X18357347Y-859427D01*
G01X18362935Y-876699D01*
G01X18362935Y-888129D01*
G01X18357347Y-905147D01*
G01X18345917Y-916577D01*
G01X18328645Y-922419D01*
G01X18311627Y-922419D01*
G01X18294355Y-916577D01*
G01X18288767Y-910989D01*
G01X18282925Y-899559D01*
G01X18416529Y-893717D02*
G01X18410687Y-899559D01*
G01X18416529Y-905147D01*
G01X18422117Y-899559D01*
G01X18416529Y-893717D01*
G01X18469869Y-825137D02*
G01X18481299Y-819549D01*
G01X18498571Y-802277D01*
G01X18498571Y-922419D01*
G01X18575025Y-802277D02*
G01X18557753Y-808119D01*
G01X18552165Y-819549D01*
G01X18552165Y-830979D01*
G01X18557753Y-842409D01*
G01X18569183Y-847997D01*
G01X18592043Y-853839D01*
G01X18609315Y-859427D01*
G01X18620745Y-870857D01*
G01X18626333Y-882287D01*
G01X18626333Y-899559D01*
G01X18620745Y-910989D01*
G01X18614903Y-916577D01*
G01X18597885Y-922419D01*
G01X18575025Y-922419D01*
G01X18557753Y-916577D01*
G01X18552165Y-910989D01*
G01X18546323Y-899559D01*
G01X18546323Y-882287D01*
G01X18552165Y-870857D01*
G01X18563595Y-859427D01*
G01X18580613Y-853839D01*
G01X18603473Y-847997D01*
G01X18614903Y-842409D01*
G01X18620745Y-830979D01*
G01X18620745Y-819549D01*
G01X18614903Y-808119D01*
G01X18597885Y-802277D01*
G01X18575025Y-802277D01*
G01X18708375Y-802277D02*
G01X18691357Y-808119D01*
G01X18679927Y-825137D01*
G01X18674085Y-853839D01*
G01X18674085Y-870857D01*
G01X18679927Y-899559D01*
G01X18691357Y-916577D01*
G01X18708375Y-922419D01*
G01X18719805Y-922419D01*
G01X18737077Y-916577D01*
G01X18748507Y-899559D01*
G01X18754095Y-870857D01*
G01X18754095Y-853839D01*
G01X18748507Y-825137D01*
G01X18737077Y-808119D01*
G01X18719805Y-802277D01*
G01X18708375Y-802277D01*
G01X18801847Y-842409D02*
G01X18864839Y-922419D01*
G01X18864839Y-842409D02*
G01X18801847Y-922419D01*
G01X18924021Y-802277D02*
G01X18987013Y-802277D01*
G01X18952723Y-847997D01*
G01X18969741Y-847997D01*
G01X18981171Y-853839D01*
G01X18987013Y-859427D01*
G01X18992601Y-876699D01*
G01X18992601Y-888129D01*
G01X18987013Y-905147D01*
G01X18975583Y-916577D01*
G01X18958311Y-922419D01*
G01X18941293Y-922419D01*
G01X18924021Y-916577D01*
G01X18918433Y-910989D01*
G01X18912591Y-899559D01*
G01X19046195Y-893717D02*
G01X19040353Y-899559D01*
G01X19046195Y-905147D01*
G01X19051783Y-899559D01*
G01X19046195Y-893717D01*
G01X19099535Y-825137D02*
G01X19110965Y-819549D01*
G01X19128237Y-802277D01*
G01X19128237Y-922419D01*
G01X19204691Y-802277D02*
G01X19187419Y-808119D01*
G01X19181831Y-819549D01*
G01X19181831Y-830979D01*
G01X19187419Y-842409D01*
G01X19198849Y-847997D01*
G01X19221709Y-853839D01*
G01X19238981Y-859427D01*
G01X19250411Y-870857D01*
G01X19255999Y-882287D01*
G01X19255999Y-899559D01*
G01X19250411Y-910989D01*
G01X19244569Y-916577D01*
G01X19227551Y-922419D01*
G01X19204691Y-922419D01*
G01X19187419Y-916577D01*
G01X19181831Y-910989D01*
G01X19175989Y-899559D01*
G01X19175989Y-882287D01*
G01X19181831Y-870857D01*
G01X19193261Y-859427D01*
G01X19210279Y-853839D01*
G01X19233139Y-847997D01*
G01X19244569Y-842409D01*
G01X19250411Y-830979D01*
G01X19250411Y-819549D01*
G01X19244569Y-808119D01*
G01X19227551Y-802277D01*
G01X19204691Y-802277D01*
G01X19338041Y-802277D02*
G01X19321023Y-808119D01*
G01X19309593Y-825137D01*
G01X19303751Y-853839D01*
G01X19303751Y-870857D01*
G01X19309593Y-899559D01*
G01X19321023Y-916577D01*
G01X19338041Y-922419D01*
G01X19349471Y-922419D01*
G01X19366743Y-916577D01*
G01X19378173Y-899559D01*
G01X19383761Y-870857D01*
G01X19383761Y-853839D01*
G01X19378173Y-825137D01*
G01X19366743Y-808119D01*
G01X19349471Y-802277D01*
G01X19338041Y-802277D01*
G01X19431513Y-842409D02*
G01X19431513Y-922419D01*
G01X19431513Y-865269D02*
G01X19448785Y-847997D01*
G01X19460215Y-842409D01*
G01X19477233Y-842409D01*
G01X19488663Y-847997D01*
G01X19494505Y-865269D01*
G01X19494505Y-922419D01*
G01X19494505Y-865269D02*
G01X19511523Y-847997D01*
G01X19522953Y-842409D01*
G01X19540225Y-842409D01*
G01X19551655Y-847997D01*
G01X19557243Y-865269D01*
G01X19557243Y-922419D01*
G01X19604995Y-842409D02*
G01X19604995Y-922419D01*
G01X19604995Y-865269D02*
G01X19622267Y-847997D01*
G01X19633697Y-842409D01*
G01X19650715Y-842409D01*
G01X19662145Y-847997D01*
G01X19667987Y-865269D01*
G01X19667987Y-922419D01*
G01X19667987Y-865269D02*
G01X19685005Y-847997D01*
G01X19696435Y-842409D01*
G01X19713707Y-842409D01*
G01X19725137Y-847997D01*
G01X19730725Y-865269D01*
G01X19730725Y-922419D01*
G01X19778477Y-779417D02*
G01X19789907Y-790847D01*
G01X19801337Y-808119D01*
G01X19812767Y-830979D01*
G01X19818609Y-859427D01*
G01X19818609Y-882287D01*
G01X19812767Y-910989D01*
G01X19801337Y-933849D01*
G01X19789907Y-950867D01*
G01X19778477Y-962297D01*
G01X20801227Y-802277D02*
G01X20801227Y-922419D01*
G01X20801227Y-802277D02*
G01X20881237Y-922419D01*
G01X20881237Y-802277D02*
G01X20881237Y-922419D01*
G01X20928989Y-802277D02*
G01X20928989Y-922419D01*
G01X20928989Y-802277D02*
G01X20980551Y-802277D01*
G01X20997569Y-808119D01*
G01X21003411Y-813707D01*
G01X21008999Y-825137D01*
G01X21008999Y-842409D01*
G01X21003411Y-853839D01*
G01X20997569Y-859427D01*
G01X20980551Y-865269D01*
G01X20928989Y-865269D01*
G01X21096883Y-802277D02*
G01X21096883Y-922419D01*
G01X21056751Y-802277D02*
G01X21136761Y-802277D01*
G01X21184513Y-802277D02*
G01X21184513Y-922419D01*
G01X21264523Y-802277D02*
G01X21264523Y-922419D01*
G01X21184513Y-859427D02*
G01X21264523Y-859427D01*
G01X22262634Y-802277D02*
G01X22262634Y-922419D01*
G01X22262634Y-802277D02*
G01X22314196Y-802277D01*
G01X22331214Y-808119D01*
G01X22337056Y-813707D01*
G01X22342644Y-825137D01*
G01X22342644Y-836567D01*
G01X22337056Y-847997D01*
G01X22331214Y-853839D01*
G01X22314196Y-859427D01*
G01X22262634Y-859427D01*
G01X22302766Y-859427D02*
G01X22342644Y-922419D01*
G01X22419098Y-842409D02*
G01X22407668Y-847997D01*
G01X22396238Y-859427D01*
G01X22390396Y-876699D01*
G01X22390396Y-888129D01*
G01X22396238Y-905147D01*
G01X22407668Y-916577D01*
G01X22419098Y-922419D01*
G01X22436116Y-922419D01*
G01X22447546Y-916577D01*
G01X22458976Y-905147D01*
G01X22464818Y-888129D01*
G01X22464818Y-876699D01*
G01X22458976Y-859427D01*
G01X22447546Y-847997D01*
G01X22436116Y-842409D01*
G01X22419098Y-842409D01*
G01X22512570Y-842409D02*
G01X22512570Y-899559D01*
G01X22518412Y-916577D01*
G01X22529842Y-922419D01*
G01X22546860Y-922419D01*
G01X22558290Y-916577D01*
G01X22575562Y-899559D01*
G01X22575562Y-842409D02*
G01X22575562Y-922419D01*
G01X22623314Y-842409D02*
G01X22623314Y-922419D01*
G01X22623314Y-865269D02*
G01X22640586Y-847997D01*
G01X22652016Y-842409D01*
G01X22669034Y-842409D01*
G01X22680464Y-847997D01*
G01X22686306Y-865269D01*
G01X22686306Y-922419D01*
G01X22802638Y-802277D02*
G01X22802638Y-922419D01*
G01X22802638Y-859427D02*
G01X22791208Y-847997D01*
G01X22779778Y-842409D01*
G01X22762760Y-842409D01*
G01X22751330Y-847997D01*
G01X22739900Y-859427D01*
G01X22734058Y-876699D01*
G01X22734058Y-888129D01*
G01X22739900Y-905147D01*
G01X22751330Y-916577D01*
G01X22762760Y-922419D01*
G01X22779778Y-922419D01*
G01X22791208Y-916577D01*
G01X22802638Y-905147D01*
G01X23693815Y-802277D02*
G01X23693815Y-922419D01*
G01X23693815Y-802277D02*
G01X23745377Y-802277D01*
G01X23762395Y-808119D01*
G01X23768237Y-813707D01*
G01X23773825Y-825137D01*
G01X23773825Y-842409D01*
G01X23768237Y-853839D01*
G01X23762395Y-859427D01*
G01X23745377Y-865269D01*
G01X23693815Y-865269D01*
G01X23890157Y-842409D02*
G01X23890157Y-922419D01*
G01X23890157Y-859427D02*
G01X23878727Y-847997D01*
G01X23867297Y-842409D01*
G01X23850279Y-842409D01*
G01X23838849Y-847997D01*
G01X23827419Y-859427D01*
G01X23821577Y-876699D01*
G01X23821577Y-888129D01*
G01X23827419Y-905147D01*
G01X23838849Y-916577D01*
G01X23850279Y-922419D01*
G01X23867297Y-922419D01*
G01X23878727Y-916577D01*
G01X23890157Y-905147D01*
G01X24006489Y-802277D02*
G01X24006489Y-922419D01*
G01X24006489Y-859427D02*
G01X23995059Y-847997D01*
G01X23983629Y-842409D01*
G01X23966611Y-842409D01*
G01X23955181Y-847997D01*
G01X23943751Y-859427D01*
G01X23937909Y-876699D01*
G01X23937909Y-888129D01*
G01X23943751Y-905147D01*
G01X23955181Y-916577D01*
G01X23966611Y-922419D01*
G01X23983629Y-922419D01*
G01X23995059Y-916577D01*
G01X24006489Y-905147D01*
G01X25362994Y-802277D02*
G01X25362994Y-922419D01*
G01X25362994Y-802277D02*
G01X25414556Y-802277D01*
G01X25431574Y-808119D01*
G01X25437416Y-813707D01*
G01X25443004Y-825137D01*
G01X25443004Y-836567D01*
G01X25437416Y-847997D01*
G01X25431574Y-853839D01*
G01X25414556Y-859427D01*
G01X25362994Y-859427D01*
G01X25403126Y-859427D02*
G01X25443004Y-922419D01*
G01X25519458Y-842409D02*
G01X25508028Y-847997D01*
G01X25496598Y-859427D01*
G01X25490756Y-876699D01*
G01X25490756Y-888129D01*
G01X25496598Y-905147D01*
G01X25508028Y-916577D01*
G01X25519458Y-922419D01*
G01X25536476Y-922419D01*
G01X25547906Y-916577D01*
G01X25559336Y-905147D01*
G01X25565178Y-888129D01*
G01X25565178Y-876699D01*
G01X25559336Y-859427D01*
G01X25547906Y-847997D01*
G01X25536476Y-842409D01*
G01X25519458Y-842409D01*
G01X25612930Y-842409D02*
G01X25612930Y-899559D01*
G01X25618772Y-916577D01*
G01X25630202Y-922419D01*
G01X25647220Y-922419D01*
G01X25658650Y-916577D01*
G01X25675922Y-899559D01*
G01X25675922Y-842409D02*
G01X25675922Y-922419D01*
G01X25723674Y-842409D02*
G01X25723674Y-922419D01*
G01X25723674Y-865269D02*
G01X25740946Y-847997D01*
G01X25752376Y-842409D01*
G01X25769394Y-842409D01*
G01X25780824Y-847997D01*
G01X25786666Y-865269D01*
G01X25786666Y-922419D01*
G01X25902998Y-802277D02*
G01X25902998Y-922419D01*
G01X25902998Y-859427D02*
G01X25891568Y-847997D01*
G01X25880138Y-842409D01*
G01X25863120Y-842409D01*
G01X25851690Y-847997D01*
G01X25840260Y-859427D01*
G01X25834418Y-876699D01*
G01X25834418Y-888129D01*
G01X25840260Y-905147D01*
G01X25851690Y-916577D01*
G01X25863120Y-922419D01*
G01X25880138Y-922419D01*
G01X25891568Y-916577D01*
G01X25902998Y-905147D01*
G01X27322495Y-802277D02*
G01X27322495Y-922419D01*
G01X27282363Y-802277D02*
G01X27362373Y-802277D01*
G01X27438827Y-842409D02*
G01X27427397Y-847997D01*
G01X27415967Y-859427D01*
G01X27410125Y-876699D01*
G01X27410125Y-888129D01*
G01X27415967Y-905147D01*
G01X27427397Y-916577D01*
G01X27438827Y-922419D01*
G01X27455845Y-922419D01*
G01X27467275Y-916577D01*
G01X27478705Y-905147D01*
G01X27484547Y-888129D01*
G01X27484547Y-876699D01*
G01X27478705Y-859427D01*
G01X27467275Y-847997D01*
G01X27455845Y-842409D01*
G01X27438827Y-842409D01*
G01X27532299Y-842409D02*
G01X27532299Y-962297D01*
G01X27532299Y-859427D02*
G01X27543729Y-847997D01*
G01X27555159Y-842409D01*
G01X27572431Y-842409D01*
G01X27583861Y-847997D01*
G01X27595291Y-859427D01*
G01X27600879Y-876699D01*
G01X27600879Y-888129D01*
G01X27595291Y-905147D01*
G01X27583861Y-916577D01*
G01X27572431Y-922419D01*
G01X27555159Y-922419D01*
G01X27543729Y-916577D01*
G01X27532299Y-905147D01*
G01X27776647Y-802277D02*
G01X27776647Y-922419D01*
G01X27776647Y-922419D02*
G01X27845227Y-922419D01*
G01X27961559Y-842409D02*
G01X27961559Y-922419D01*
G01X27961559Y-859427D02*
G01X27950129Y-847997D01*
G01X27938699Y-842409D01*
G01X27921681Y-842409D01*
G01X27910251Y-847997D01*
G01X27898821Y-859427D01*
G01X27892979Y-876699D01*
G01X27892979Y-888129D01*
G01X27898821Y-905147D01*
G01X27910251Y-916577D01*
G01X27921681Y-922419D01*
G01X27938699Y-922419D01*
G01X27950129Y-916577D01*
G01X27961559Y-905147D01*
G01X28015153Y-842409D02*
G01X28049443Y-922419D01*
G01X28083733Y-842409D02*
G01X28049443Y-922419D01*
G01X28038013Y-945279D01*
G01X28026583Y-956709D01*
G01X28015153Y-962297D01*
G01X28009311Y-962297D01*
G01X28131485Y-876699D02*
G01X28200065Y-876699D01*
G01X28200065Y-865269D01*
G01X28194477Y-853839D01*
G01X28188635Y-847997D01*
G01X28177205Y-842409D01*
G01X28160187Y-842409D01*
G01X28148757Y-847997D01*
G01X28137327Y-859427D01*
G01X28131485Y-876699D01*
G01X28131485Y-888129D01*
G01X28137327Y-905147D01*
G01X28148757Y-916577D01*
G01X28160187Y-922419D01*
G01X28177205Y-922419D01*
G01X28188635Y-916577D01*
G01X28200065Y-905147D01*
G01X28247817Y-842409D02*
G01X28247817Y-922419D01*
G01X28247817Y-876699D02*
G01X28253659Y-859427D01*
G01X28265089Y-847997D01*
G01X28276519Y-842409D01*
G01X28293537Y-842409D01*
G01X28341289Y-870857D02*
G01X28444159Y-870857D01*
G01X28491911Y-802277D02*
G01X28491911Y-922419D01*
G01X28491911Y-802277D02*
G01X28543473Y-802277D01*
G01X28560491Y-808119D01*
G01X28566333Y-813707D01*
G01X28571921Y-825137D01*
G01X28571921Y-836567D01*
G01X28566333Y-847997D01*
G01X28560491Y-853839D01*
G01X28543473Y-859427D01*
G01X28491911Y-859427D02*
G01X28543473Y-859427D01*
G01X28560491Y-865269D01*
G01X28566333Y-870857D01*
G01X28571921Y-882287D01*
G01X28571921Y-899559D01*
G01X28566333Y-910989D01*
G01X28560491Y-916577D01*
G01X28543473Y-922419D01*
G01X28491911Y-922419D01*
G01X28648375Y-842409D02*
G01X28636945Y-847997D01*
G01X28625515Y-859427D01*
G01X28619673Y-876699D01*
G01X28619673Y-888129D01*
G01X28625515Y-905147D01*
G01X28636945Y-916577D01*
G01X28648375Y-922419D01*
G01X28665393Y-922419D01*
G01X28676823Y-916577D01*
G01X28688253Y-905147D01*
G01X28694095Y-888129D01*
G01X28694095Y-876699D01*
G01X28688253Y-859427D01*
G01X28676823Y-847997D01*
G01X28665393Y-842409D01*
G01X28648375Y-842409D01*
G01X28759119Y-802277D02*
G01X28759119Y-899559D01*
G01X28764707Y-916577D01*
G01X28776137Y-922419D01*
G01X28787567Y-922419D01*
G01X28741847Y-842409D02*
G01X28781979Y-842409D01*
G01X28852591Y-802277D02*
G01X28852591Y-899559D01*
G01X28858179Y-916577D01*
G01X28869609Y-922419D01*
G01X28881039Y-922419D01*
G01X28835319Y-842409D02*
G01X28875451Y-842409D01*
G01X28957493Y-842409D02*
G01X28946063Y-847997D01*
G01X28934633Y-859427D01*
G01X28928791Y-876699D01*
G01X28928791Y-888129D01*
G01X28934633Y-905147D01*
G01X28946063Y-916577D01*
G01X28957493Y-922419D01*
G01X28974511Y-922419D01*
G01X28985941Y-916577D01*
G01X28997371Y-905147D01*
G01X29003213Y-888129D01*
G01X29003213Y-876699D01*
G01X28997371Y-859427D01*
G01X28985941Y-847997D01*
G01X28974511Y-842409D01*
G01X28957493Y-842409D01*
G01X29050965Y-842409D02*
G01X29050965Y-922419D01*
G01X29050965Y-865269D02*
G01X29068237Y-847997D01*
G01X29079667Y-842409D01*
G01X29096685Y-842409D01*
G01X29108115Y-847997D01*
G01X29113957Y-865269D01*
G01X29113957Y-922419D01*
G01X29113957Y-865269D02*
G01X29130975Y-847997D01*
G01X29142405Y-842409D01*
G01X29159677Y-842409D01*
G01X29171107Y-847997D01*
G01X29176695Y-865269D01*
G01X29176695Y-922419D01*
G01X29352463Y-802277D02*
G01X29352463Y-922419D01*
G01X29352463Y-922419D02*
G01X29421043Y-922419D01*
G01X29537375Y-842409D02*
G01X29537375Y-922419D01*
G01X29537375Y-859427D02*
G01X29525945Y-847997D01*
G01X29514515Y-842409D01*
G01X29497497Y-842409D01*
G01X29486067Y-847997D01*
G01X29474637Y-859427D01*
G01X29468795Y-876699D01*
G01X29468795Y-888129D01*
G01X29474637Y-905147D01*
G01X29486067Y-916577D01*
G01X29497497Y-922419D01*
G01X29514515Y-922419D01*
G01X29525945Y-916577D01*
G01X29537375Y-905147D01*
G01X29590969Y-842409D02*
G01X29625259Y-922419D01*
G01X29659549Y-842409D02*
G01X29625259Y-922419D01*
G01X29613829Y-945279D01*
G01X29602399Y-956709D01*
G01X29590969Y-962297D01*
G01X29585127Y-962297D01*
G01X29707301Y-876699D02*
G01X29775881Y-876699D01*
G01X29775881Y-865269D01*
G01X29770293Y-853839D01*
G01X29764451Y-847997D01*
G01X29753021Y-842409D01*
G01X29736003Y-842409D01*
G01X29724573Y-847997D01*
G01X29713143Y-859427D01*
G01X29707301Y-876699D01*
G01X29707301Y-888129D01*
G01X29713143Y-905147D01*
G01X29724573Y-916577D01*
G01X29736003Y-922419D01*
G01X29753021Y-922419D01*
G01X29764451Y-916577D01*
G01X29775881Y-905147D01*
G01X29823633Y-842409D02*
G01X29823633Y-922419D01*
G01X29823633Y-876699D02*
G01X29829475Y-859427D01*
G01X29840905Y-847997D01*
G01X29852335Y-842409D01*
G01X29869353Y-842409D01*
G01X15409024Y-1382849D02*
G01X15351874Y-1462859D01*
G01X15437726Y-1462859D01*
G01X15409024Y-1382849D02*
G01X15409024Y-1502991D01*
G01X16777467Y-1382849D02*
G01X16840459Y-1382849D01*
G01X16806169Y-1428569D01*
G01X16823187Y-1428569D01*
G01X16834617Y-1434411D01*
G01X16840459Y-1439999D01*
G01X16846047Y-1457271D01*
G01X16846047Y-1468701D01*
G01X16840459Y-1485719D01*
G01X16829029Y-1497149D01*
G01X16811757Y-1502991D01*
G01X16794739Y-1502991D01*
G01X16777467Y-1497149D01*
G01X16771879Y-1491561D01*
G01X16766037Y-1480131D01*
G01X16968221Y-1422981D02*
G01X16962379Y-1439999D01*
G01X16950949Y-1451429D01*
G01X16933931Y-1457271D01*
G01X16928089Y-1457271D01*
G01X16911071Y-1451429D01*
G01X16899641Y-1439999D01*
G01X16893799Y-1422981D01*
G01X16893799Y-1417139D01*
G01X16899641Y-1400121D01*
G01X16911071Y-1388691D01*
G01X16928089Y-1382849D01*
G01X16933931Y-1382849D01*
G01X16950949Y-1388691D01*
G01X16962379Y-1400121D01*
G01X16968221Y-1422981D01*
G01X16968221Y-1451429D01*
G01X16962379Y-1480131D01*
G01X16950949Y-1497149D01*
G01X16933931Y-1502991D01*
G01X16922501Y-1502991D01*
G01X16905229Y-1497149D01*
G01X16899641Y-1485719D01*
G01X17021815Y-1474289D02*
G01X17015973Y-1480131D01*
G01X17021815Y-1485719D01*
G01X17027403Y-1480131D01*
G01X17021815Y-1474289D01*
G01X17132305Y-1382849D02*
G01X17075155Y-1462859D01*
G01X17161007Y-1462859D01*
G01X17132305Y-1382849D02*
G01X17132305Y-1502991D01*
G01X17208759Y-1422981D02*
G01X17271751Y-1502991D01*
G01X17271751Y-1422981D02*
G01X17208759Y-1502991D01*
G01X17399513Y-1382849D02*
G01X17342363Y-1502991D01*
G01X17319503Y-1382849D02*
G01X17399513Y-1382849D01*
G01X17475967Y-1382849D02*
G01X17458695Y-1388691D01*
G01X17453107Y-1400121D01*
G01X17453107Y-1411551D01*
G01X17458695Y-1422981D01*
G01X17470125Y-1428569D01*
G01X17492985Y-1434411D01*
G01X17510257Y-1439999D01*
G01X17521687Y-1451429D01*
G01X17527275Y-1462859D01*
G01X17527275Y-1480131D01*
G01X17521687Y-1491561D01*
G01X17515845Y-1497149D01*
G01X17498827Y-1502991D01*
G01X17475967Y-1502991D01*
G01X17458695Y-1497149D01*
G01X17453107Y-1491561D01*
G01X17447265Y-1480131D01*
G01X17447265Y-1462859D01*
G01X17453107Y-1451429D01*
G01X17464537Y-1439999D01*
G01X17481555Y-1434411D01*
G01X17504415Y-1428569D01*
G01X17515845Y-1422981D01*
G01X17521687Y-1411551D01*
G01X17521687Y-1400121D01*
G01X17515845Y-1388691D01*
G01X17498827Y-1382849D01*
G01X17475967Y-1382849D01*
G01X17580869Y-1474289D02*
G01X17575027Y-1480131D01*
G01X17580869Y-1485719D01*
G01X17586457Y-1480131D01*
G01X17580869Y-1474289D01*
G01X17714219Y-1382849D02*
G01X17657069Y-1502991D01*
G01X17634209Y-1382849D02*
G01X17714219Y-1382849D01*
G01X17761971Y-1422981D02*
G01X17761971Y-1502991D01*
G01X17761971Y-1445841D02*
G01X17779243Y-1428569D01*
G01X17790673Y-1422981D01*
G01X17807691Y-1422981D01*
G01X17819121Y-1428569D01*
G01X17824963Y-1445841D01*
G01X17824963Y-1502991D01*
G01X17824963Y-1445841D02*
G01X17841981Y-1428569D01*
G01X17853411Y-1422981D01*
G01X17870683Y-1422981D01*
G01X17882113Y-1428569D01*
G01X17887701Y-1445841D01*
G01X17887701Y-1502991D01*
G01X17935453Y-1382849D02*
G01X17941295Y-1388691D01*
G01X17946883Y-1382849D01*
G01X17941295Y-1377261D01*
G01X17935453Y-1382849D01*
G01X17941295Y-1422981D02*
G01X17941295Y-1502991D01*
G01X17994635Y-1382849D02*
G01X17994635Y-1502991D01*
G01X18082519Y-1359989D02*
G01X18071089Y-1371419D01*
G01X18059659Y-1388691D01*
G01X18048229Y-1411551D01*
G01X18042387Y-1439999D01*
G01X18042387Y-1462859D01*
G01X18048229Y-1491561D01*
G01X18059659Y-1514421D01*
G01X18071089Y-1531439D01*
G01X18082519Y-1542869D01*
G01X18130271Y-1405709D02*
G01X18141701Y-1400121D01*
G01X18158973Y-1382849D01*
G01X18158973Y-1502991D01*
G01X18212567Y-1474289D02*
G01X18206725Y-1480131D01*
G01X18212567Y-1485719D01*
G01X18218155Y-1480131D01*
G01X18212567Y-1474289D01*
G01X18300197Y-1382849D02*
G01X18283179Y-1388691D01*
G01X18271749Y-1405709D01*
G01X18265907Y-1434411D01*
G01X18265907Y-1451429D01*
G01X18271749Y-1480131D01*
G01X18283179Y-1497149D01*
G01X18300197Y-1502991D01*
G01X18311627Y-1502991D01*
G01X18328899Y-1497149D01*
G01X18340329Y-1480131D01*
G01X18345917Y-1451429D01*
G01X18345917Y-1434411D01*
G01X18340329Y-1405709D01*
G01X18328899Y-1388691D01*
G01X18311627Y-1382849D01*
G01X18300197Y-1382849D01*
G01X18427959Y-1382849D02*
G01X18410941Y-1388691D01*
G01X18399511Y-1405709D01*
G01X18393669Y-1434411D01*
G01X18393669Y-1451429D01*
G01X18399511Y-1480131D01*
G01X18410941Y-1497149D01*
G01X18427959Y-1502991D01*
G01X18439389Y-1502991D01*
G01X18456661Y-1497149D01*
G01X18468091Y-1480131D01*
G01X18473679Y-1451429D01*
G01X18473679Y-1434411D01*
G01X18468091Y-1405709D01*
G01X18456661Y-1388691D01*
G01X18439389Y-1382849D01*
G01X18427959Y-1382849D01*
G01X18555721Y-1382849D02*
G01X18538703Y-1388691D01*
G01X18527273Y-1405709D01*
G01X18521431Y-1434411D01*
G01X18521431Y-1451429D01*
G01X18527273Y-1480131D01*
G01X18538703Y-1497149D01*
G01X18555721Y-1502991D01*
G01X18567151Y-1502991D01*
G01X18584423Y-1497149D01*
G01X18595853Y-1480131D01*
G01X18601441Y-1451429D01*
G01X18601441Y-1434411D01*
G01X18595853Y-1405709D01*
G01X18584423Y-1388691D01*
G01X18567151Y-1382849D01*
G01X18555721Y-1382849D01*
G01X18649193Y-1422981D02*
G01X18712185Y-1502991D01*
G01X18712185Y-1422981D02*
G01X18649193Y-1502991D01*
G01X18765779Y-1411551D02*
G01X18765779Y-1405709D01*
G01X18771367Y-1394279D01*
G01X18777209Y-1388691D01*
G01X18788639Y-1382849D01*
G01X18811499Y-1382849D01*
G01X18822929Y-1388691D01*
G01X18828517Y-1394279D01*
G01X18834359Y-1405709D01*
G01X18834359Y-1417139D01*
G01X18828517Y-1428569D01*
G01X18817087Y-1445841D01*
G01X18759937Y-1502991D01*
G01X18839947Y-1502991D01*
G01X18893541Y-1474289D02*
G01X18887699Y-1480131D01*
G01X18893541Y-1485719D01*
G01X18899129Y-1480131D01*
G01X18893541Y-1474289D01*
G01X18981171Y-1382849D02*
G01X18964153Y-1388691D01*
G01X18952723Y-1405709D01*
G01X18946881Y-1434411D01*
G01X18946881Y-1451429D01*
G01X18952723Y-1480131D01*
G01X18964153Y-1497149D01*
G01X18981171Y-1502991D01*
G01X18992601Y-1502991D01*
G01X19009873Y-1497149D01*
G01X19021303Y-1480131D01*
G01X19026891Y-1451429D01*
G01X19026891Y-1434411D01*
G01X19021303Y-1405709D01*
G01X19009873Y-1388691D01*
G01X18992601Y-1382849D01*
G01X18981171Y-1382849D01*
G01X19108933Y-1382849D02*
G01X19091915Y-1388691D01*
G01X19080485Y-1405709D01*
G01X19074643Y-1434411D01*
G01X19074643Y-1451429D01*
G01X19080485Y-1480131D01*
G01X19091915Y-1497149D01*
G01X19108933Y-1502991D01*
G01X19120363Y-1502991D01*
G01X19137635Y-1497149D01*
G01X19149065Y-1480131D01*
G01X19154653Y-1451429D01*
G01X19154653Y-1434411D01*
G01X19149065Y-1405709D01*
G01X19137635Y-1388691D01*
G01X19120363Y-1382849D01*
G01X19108933Y-1382849D01*
G01X19236695Y-1382849D02*
G01X19219677Y-1388691D01*
G01X19208247Y-1405709D01*
G01X19202405Y-1434411D01*
G01X19202405Y-1451429D01*
G01X19208247Y-1480131D01*
G01X19219677Y-1497149D01*
G01X19236695Y-1502991D01*
G01X19248125Y-1502991D01*
G01X19265397Y-1497149D01*
G01X19276827Y-1480131D01*
G01X19282415Y-1451429D01*
G01X19282415Y-1434411D01*
G01X19276827Y-1405709D01*
G01X19265397Y-1388691D01*
G01X19248125Y-1382849D01*
G01X19236695Y-1382849D01*
G01X19330167Y-1422981D02*
G01X19330167Y-1502991D01*
G01X19330167Y-1445841D02*
G01X19347439Y-1428569D01*
G01X19358869Y-1422981D01*
G01X19375887Y-1422981D01*
G01X19387317Y-1428569D01*
G01X19393159Y-1445841D01*
G01X19393159Y-1502991D01*
G01X19393159Y-1445841D02*
G01X19410177Y-1428569D01*
G01X19421607Y-1422981D01*
G01X19438879Y-1422981D01*
G01X19450309Y-1428569D01*
G01X19455897Y-1445841D01*
G01X19455897Y-1502991D01*
G01X19503649Y-1422981D02*
G01X19503649Y-1502991D01*
G01X19503649Y-1445841D02*
G01X19520921Y-1428569D01*
G01X19532351Y-1422981D01*
G01X19549369Y-1422981D01*
G01X19560799Y-1428569D01*
G01X19566641Y-1445841D01*
G01X19566641Y-1502991D01*
G01X19566641Y-1445841D02*
G01X19583659Y-1428569D01*
G01X19595089Y-1422981D01*
G01X19612361Y-1422981D01*
G01X19623791Y-1428569D01*
G01X19629379Y-1445841D01*
G01X19629379Y-1502991D01*
G01X19677131Y-1359989D02*
G01X19688561Y-1371419D01*
G01X19699991Y-1388691D01*
G01X19711421Y-1411551D01*
G01X19717263Y-1439999D01*
G01X19717263Y-1462859D01*
G01X19711421Y-1491561D01*
G01X19699991Y-1514421D01*
G01X19688561Y-1531439D01*
G01X19677131Y-1542869D01*
G01X20801227Y-1382849D02*
G01X20801227Y-1502991D01*
G01X20801227Y-1382849D02*
G01X20852789Y-1382849D01*
G01X20869807Y-1388691D01*
G01X20875649Y-1394279D01*
G01X20881237Y-1405709D01*
G01X20881237Y-1422981D01*
G01X20875649Y-1434411D01*
G01X20869807Y-1439999D01*
G01X20852789Y-1445841D01*
G01X20801227Y-1445841D01*
G01X20969121Y-1382849D02*
G01X20969121Y-1502991D01*
G01X20928989Y-1382849D02*
G01X21008999Y-1382849D01*
G01X21056751Y-1382849D02*
G01X21056751Y-1502991D01*
G01X21136761Y-1382849D02*
G01X21136761Y-1502991D01*
G01X21056751Y-1439999D02*
G01X21136761Y-1439999D01*
G01X22342644Y-1400121D02*
G01X22331214Y-1388691D01*
G01X22314196Y-1382849D01*
G01X22291336Y-1382849D01*
G01X22274064Y-1388691D01*
G01X22262634Y-1400121D01*
G01X22262634Y-1411551D01*
G01X22268476Y-1422981D01*
G01X22274064Y-1428569D01*
G01X22285494Y-1434411D01*
G01X22319784Y-1445841D01*
G01X22331214Y-1451429D01*
G01X22337056Y-1457271D01*
G01X22342644Y-1468701D01*
G01X22342644Y-1485719D01*
G01X22331214Y-1497149D01*
G01X22314196Y-1502991D01*
G01X22291336Y-1502991D01*
G01X22274064Y-1497149D01*
G01X22262634Y-1485719D01*
G01X22390396Y-1382849D02*
G01X22390396Y-1502991D01*
G01X22466850Y-1422981D02*
G01X22455420Y-1428569D01*
G01X22443990Y-1439999D01*
G01X22438148Y-1457271D01*
G01X22438148Y-1468701D01*
G01X22443990Y-1485719D01*
G01X22455420Y-1497149D01*
G01X22466850Y-1502991D01*
G01X22483868Y-1502991D01*
G01X22495298Y-1497149D01*
G01X22506728Y-1485719D01*
G01X22512570Y-1468701D01*
G01X22512570Y-1457271D01*
G01X22506728Y-1439999D01*
G01X22495298Y-1428569D01*
G01X22483868Y-1422981D01*
G01X22466850Y-1422981D01*
G01X22577594Y-1382849D02*
G01X22577594Y-1480131D01*
G01X22583182Y-1497149D01*
G01X22594612Y-1502991D01*
G01X22606042Y-1502991D01*
G01X22560322Y-1422981D02*
G01X22600454Y-1422981D01*
G01X23693815Y-1382849D02*
G01X23693815Y-1502991D01*
G01X23693815Y-1382849D02*
G01X23745377Y-1382849D01*
G01X23762395Y-1388691D01*
G01X23768237Y-1394279D01*
G01X23773825Y-1405709D01*
G01X23773825Y-1422981D01*
G01X23768237Y-1434411D01*
G01X23762395Y-1439999D01*
G01X23745377Y-1445841D01*
G01X23693815Y-1445841D01*
G01X23890157Y-1422981D02*
G01X23890157Y-1502991D01*
G01X23890157Y-1439999D02*
G01X23878727Y-1428569D01*
G01X23867297Y-1422981D01*
G01X23850279Y-1422981D01*
G01X23838849Y-1428569D01*
G01X23827419Y-1439999D01*
G01X23821577Y-1457271D01*
G01X23821577Y-1468701D01*
G01X23827419Y-1485719D01*
G01X23838849Y-1497149D01*
G01X23850279Y-1502991D01*
G01X23867297Y-1502991D01*
G01X23878727Y-1497149D01*
G01X23890157Y-1485719D01*
G01X24006489Y-1382849D02*
G01X24006489Y-1502991D01*
G01X24006489Y-1439999D02*
G01X23995059Y-1428569D01*
G01X23983629Y-1422981D01*
G01X23966611Y-1422981D01*
G01X23955181Y-1428569D01*
G01X23943751Y-1439999D01*
G01X23937909Y-1457271D01*
G01X23937909Y-1468701D01*
G01X23943751Y-1485719D01*
G01X23955181Y-1497149D01*
G01X23966611Y-1502991D01*
G01X23983629Y-1502991D01*
G01X23995059Y-1497149D01*
G01X24006489Y-1485719D01*
G01X25397284Y-1382849D02*
G01X25385854Y-1388691D01*
G01X25374424Y-1400121D01*
G01X25368836Y-1411551D01*
G01X25362994Y-1428569D01*
G01X25362994Y-1457271D01*
G01X25368836Y-1474289D01*
G01X25374424Y-1485719D01*
G01X25385854Y-1497149D01*
G01X25397284Y-1502991D01*
G01X25420144Y-1502991D01*
G01X25431574Y-1497149D01*
G01X25443004Y-1485719D01*
G01X25448846Y-1474289D01*
G01X25454434Y-1457271D01*
G01X25454434Y-1428569D01*
G01X25448846Y-1411551D01*
G01X25443004Y-1400121D01*
G01X25431574Y-1388691D01*
G01X25420144Y-1382849D01*
G01X25397284Y-1382849D01*
G01X25502186Y-1422981D02*
G01X25536476Y-1502991D01*
G01X25570766Y-1422981D02*
G01X25536476Y-1502991D01*
G01X25687098Y-1422981D02*
G01X25687098Y-1502991D01*
G01X25687098Y-1439999D02*
G01X25675668Y-1428569D01*
G01X25664238Y-1422981D01*
G01X25647220Y-1422981D01*
G01X25635790Y-1428569D01*
G01X25624360Y-1439999D01*
G01X25618518Y-1457271D01*
G01X25618518Y-1468701D01*
G01X25624360Y-1485719D01*
G01X25635790Y-1497149D01*
G01X25647220Y-1502991D01*
G01X25664238Y-1502991D01*
G01X25675668Y-1497149D01*
G01X25687098Y-1485719D01*
G01X25734850Y-1382849D02*
G01X25734850Y-1502991D01*
G01X27322495Y-1382849D02*
G01X27322495Y-1502991D01*
G01X27282363Y-1382849D02*
G01X27362373Y-1382849D01*
G01X27438827Y-1422981D02*
G01X27427397Y-1428569D01*
G01X27415967Y-1439999D01*
G01X27410125Y-1457271D01*
G01X27410125Y-1468701D01*
G01X27415967Y-1485719D01*
G01X27427397Y-1497149D01*
G01X27438827Y-1502991D01*
G01X27455845Y-1502991D01*
G01X27467275Y-1497149D01*
G01X27478705Y-1485719D01*
G01X27484547Y-1468701D01*
G01X27484547Y-1457271D01*
G01X27478705Y-1439999D01*
G01X27467275Y-1428569D01*
G01X27455845Y-1422981D01*
G01X27438827Y-1422981D01*
G01X27532299Y-1422981D02*
G01X27532299Y-1542869D01*
G01X27532299Y-1439999D02*
G01X27543729Y-1428569D01*
G01X27555159Y-1422981D01*
G01X27572431Y-1422981D01*
G01X27583861Y-1428569D01*
G01X27595291Y-1439999D01*
G01X27600879Y-1457271D01*
G01X27600879Y-1468701D01*
G01X27595291Y-1485719D01*
G01X27583861Y-1497149D01*
G01X27572431Y-1502991D01*
G01X27555159Y-1502991D01*
G01X27543729Y-1497149D01*
G01X27532299Y-1485719D01*
G01X27776647Y-1382849D02*
G01X27776647Y-1502991D01*
G01X27776647Y-1502991D02*
G01X27845227Y-1502991D01*
G01X27961559Y-1422981D02*
G01X27961559Y-1502991D01*
G01X27961559Y-1439999D02*
G01X27950129Y-1428569D01*
G01X27938699Y-1422981D01*
G01X27921681Y-1422981D01*
G01X27910251Y-1428569D01*
G01X27898821Y-1439999D01*
G01X27892979Y-1457271D01*
G01X27892979Y-1468701D01*
G01X27898821Y-1485719D01*
G01X27910251Y-1497149D01*
G01X27921681Y-1502991D01*
G01X27938699Y-1502991D01*
G01X27950129Y-1497149D01*
G01X27961559Y-1485719D01*
G01X28015153Y-1422981D02*
G01X28049443Y-1502991D01*
G01X28083733Y-1422981D02*
G01X28049443Y-1502991D01*
G01X28038013Y-1525851D01*
G01X28026583Y-1537281D01*
G01X28015153Y-1542869D01*
G01X28009311Y-1542869D01*
G01X28131485Y-1457271D02*
G01X28200065Y-1457271D01*
G01X28200065Y-1445841D01*
G01X28194477Y-1434411D01*
G01X28188635Y-1428569D01*
G01X28177205Y-1422981D01*
G01X28160187Y-1422981D01*
G01X28148757Y-1428569D01*
G01X28137327Y-1439999D01*
G01X28131485Y-1457271D01*
G01X28131485Y-1468701D01*
G01X28137327Y-1485719D01*
G01X28148757Y-1497149D01*
G01X28160187Y-1502991D01*
G01X28177205Y-1502991D01*
G01X28188635Y-1497149D01*
G01X28200065Y-1485719D01*
G01X28247817Y-1422981D02*
G01X28247817Y-1502991D01*
G01X28247817Y-1457271D02*
G01X28253659Y-1439999D01*
G01X28265089Y-1428569D01*
G01X28276519Y-1422981D01*
G01X28293537Y-1422981D01*
G01X28341289Y-1451429D02*
G01X28444159Y-1451429D01*
G01X28491911Y-1382849D02*
G01X28491911Y-1502991D01*
G01X28491911Y-1382849D02*
G01X28543473Y-1382849D01*
G01X28560491Y-1388691D01*
G01X28566333Y-1394279D01*
G01X28571921Y-1405709D01*
G01X28571921Y-1417139D01*
G01X28566333Y-1428569D01*
G01X28560491Y-1434411D01*
G01X28543473Y-1439999D01*
G01X28491911Y-1439999D02*
G01X28543473Y-1439999D01*
G01X28560491Y-1445841D01*
G01X28566333Y-1451429D01*
G01X28571921Y-1462859D01*
G01X28571921Y-1480131D01*
G01X28566333Y-1491561D01*
G01X28560491Y-1497149D01*
G01X28543473Y-1502991D01*
G01X28491911Y-1502991D01*
G01X28648375Y-1422981D02*
G01X28636945Y-1428569D01*
G01X28625515Y-1439999D01*
G01X28619673Y-1457271D01*
G01X28619673Y-1468701D01*
G01X28625515Y-1485719D01*
G01X28636945Y-1497149D01*
G01X28648375Y-1502991D01*
G01X28665393Y-1502991D01*
G01X28676823Y-1497149D01*
G01X28688253Y-1485719D01*
G01X28694095Y-1468701D01*
G01X28694095Y-1457271D01*
G01X28688253Y-1439999D01*
G01X28676823Y-1428569D01*
G01X28665393Y-1422981D01*
G01X28648375Y-1422981D01*
G01X28759119Y-1382849D02*
G01X28759119Y-1480131D01*
G01X28764707Y-1497149D01*
G01X28776137Y-1502991D01*
G01X28787567Y-1502991D01*
G01X28741847Y-1422981D02*
G01X28781979Y-1422981D01*
G01X28852591Y-1382849D02*
G01X28852591Y-1480131D01*
G01X28858179Y-1497149D01*
G01X28869609Y-1502991D01*
G01X28881039Y-1502991D01*
G01X28835319Y-1422981D02*
G01X28875451Y-1422981D01*
G01X28957493Y-1422981D02*
G01X28946063Y-1428569D01*
G01X28934633Y-1439999D01*
G01X28928791Y-1457271D01*
G01X28928791Y-1468701D01*
G01X28934633Y-1485719D01*
G01X28946063Y-1497149D01*
G01X28957493Y-1502991D01*
G01X28974511Y-1502991D01*
G01X28985941Y-1497149D01*
G01X28997371Y-1485719D01*
G01X29003213Y-1468701D01*
G01X29003213Y-1457271D01*
G01X28997371Y-1439999D01*
G01X28985941Y-1428569D01*
G01X28974511Y-1422981D01*
G01X28957493Y-1422981D01*
G01X29050965Y-1422981D02*
G01X29050965Y-1502991D01*
G01X29050965Y-1445841D02*
G01X29068237Y-1428569D01*
G01X29079667Y-1422981D01*
G01X29096685Y-1422981D01*
G01X29108115Y-1428569D01*
G01X29113957Y-1445841D01*
G01X29113957Y-1502991D01*
G01X29113957Y-1445841D02*
G01X29130975Y-1428569D01*
G01X29142405Y-1422981D01*
G01X29159677Y-1422981D01*
G01X29171107Y-1428569D01*
G01X29176695Y-1445841D01*
G01X29176695Y-1502991D01*
G01X29352463Y-1382849D02*
G01X29352463Y-1502991D01*
G01X29352463Y-1502991D02*
G01X29421043Y-1502991D01*
G01X29537375Y-1422981D02*
G01X29537375Y-1502991D01*
G01X29537375Y-1439999D02*
G01X29525945Y-1428569D01*
G01X29514515Y-1422981D01*
G01X29497497Y-1422981D01*
G01X29486067Y-1428569D01*
G01X29474637Y-1439999D01*
G01X29468795Y-1457271D01*
G01X29468795Y-1468701D01*
G01X29474637Y-1485719D01*
G01X29486067Y-1497149D01*
G01X29497497Y-1502991D01*
G01X29514515Y-1502991D01*
G01X29525945Y-1497149D01*
G01X29537375Y-1485719D01*
G01X29590969Y-1422981D02*
G01X29625259Y-1502991D01*
G01X29659549Y-1422981D02*
G01X29625259Y-1502991D01*
G01X29613829Y-1525851D01*
G01X29602399Y-1537281D01*
G01X29590969Y-1542869D01*
G01X29585127Y-1542869D01*
G01X29707301Y-1457271D02*
G01X29775881Y-1457271D01*
G01X29775881Y-1445841D01*
G01X29770293Y-1434411D01*
G01X29764451Y-1428569D01*
G01X29753021Y-1422981D01*
G01X29736003Y-1422981D01*
G01X29724573Y-1428569D01*
G01X29713143Y-1439999D01*
G01X29707301Y-1457271D01*
G01X29707301Y-1468701D01*
G01X29713143Y-1485719D01*
G01X29724573Y-1497149D01*
G01X29736003Y-1502991D01*
G01X29753021Y-1502991D01*
G01X29764451Y-1497149D01*
G01X29775881Y-1485719D01*
G01X29823633Y-1422981D02*
G01X29823633Y-1502991D01*
G01X29823633Y-1457271D02*
G01X29829475Y-1439999D01*
G01X29840905Y-1428569D01*
G01X29852335Y-1422981D01*
G01X29869353Y-1422981D01*
G01X15420454Y-1980692D02*
G01X15414866Y-1969262D01*
G01X15397594Y-1963420D01*
G01X15386164Y-1963420D01*
G01X15369146Y-1969262D01*
G01X15357716Y-1986280D01*
G01X15351874Y-2014982D01*
G01X15351874Y-2043430D01*
G01X15357716Y-2066290D01*
G01X15369146Y-2077720D01*
G01X15386164Y-2083562D01*
G01X15392006Y-2083562D01*
G01X15409024Y-2077720D01*
G01X15420454Y-2066290D01*
G01X15426296Y-2049272D01*
G01X15426296Y-2043430D01*
G01X15420454Y-2026412D01*
G01X15409024Y-2014982D01*
G01X15392006Y-2009140D01*
G01X15386164Y-2009140D01*
G01X15369146Y-2014982D01*
G01X15357716Y-2026412D01*
G01X15351874Y-2043430D01*
G01X16766037Y-1986280D02*
G01X16777467Y-1980692D01*
G01X16794739Y-1963420D01*
G01X16794739Y-2083562D01*
G01X16848333Y-1992122D02*
G01X16848333Y-1986280D01*
G01X16853921Y-1974850D01*
G01X16859763Y-1969262D01*
G01X16871193Y-1963420D01*
G01X16894053Y-1963420D01*
G01X16905483Y-1969262D01*
G01X16911071Y-1974850D01*
G01X16916913Y-1986280D01*
G01X16916913Y-1997710D01*
G01X16911071Y-2009140D01*
G01X16899641Y-2026412D01*
G01X16842491Y-2083562D01*
G01X16922501Y-2083562D01*
G01X17038833Y-1980692D02*
G01X17033245Y-1969262D01*
G01X17015973Y-1963420D01*
G01X17004543Y-1963420D01*
G01X16987525Y-1969262D01*
G01X16976095Y-1986280D01*
G01X16970253Y-2014982D01*
G01X16970253Y-2043430D01*
G01X16976095Y-2066290D01*
G01X16987525Y-2077720D01*
G01X17004543Y-2083562D01*
G01X17010385Y-2083562D01*
G01X17027403Y-2077720D01*
G01X17038833Y-2066290D01*
G01X17044675Y-2049272D01*
G01X17044675Y-2043430D01*
G01X17038833Y-2026412D01*
G01X17027403Y-2014982D01*
G01X17010385Y-2009140D01*
G01X17004543Y-2009140D01*
G01X16987525Y-2014982D01*
G01X16976095Y-2026412D01*
G01X16970253Y-2043430D01*
G01X17098269Y-2054860D02*
G01X17092427Y-2060702D01*
G01X17098269Y-2066290D01*
G01X17103857Y-2060702D01*
G01X17098269Y-2054860D01*
G01X17185899Y-1963420D02*
G01X17168881Y-1969262D01*
G01X17157451Y-1986280D01*
G01X17151609Y-2014982D01*
G01X17151609Y-2032000D01*
G01X17157451Y-2060702D01*
G01X17168881Y-2077720D01*
G01X17185899Y-2083562D01*
G01X17197329Y-2083562D01*
G01X17214601Y-2077720D01*
G01X17226031Y-2060702D01*
G01X17231619Y-2032000D01*
G01X17231619Y-2014982D01*
G01X17226031Y-1986280D01*
G01X17214601Y-1969262D01*
G01X17197329Y-1963420D01*
G01X17185899Y-1963420D01*
G01X17279371Y-2003552D02*
G01X17342363Y-2083562D01*
G01X17342363Y-2003552D02*
G01X17279371Y-2083562D01*
G01X17390115Y-1986280D02*
G01X17401545Y-1980692D01*
G01X17418817Y-1963420D01*
G01X17418817Y-2083562D01*
G01X17472411Y-1992122D02*
G01X17472411Y-1986280D01*
G01X17477999Y-1974850D01*
G01X17483841Y-1969262D01*
G01X17495271Y-1963420D01*
G01X17518131Y-1963420D01*
G01X17529561Y-1969262D01*
G01X17535149Y-1974850D01*
G01X17540991Y-1986280D01*
G01X17540991Y-1997710D01*
G01X17535149Y-2009140D01*
G01X17523719Y-2026412D01*
G01X17466569Y-2083562D01*
G01X17546579Y-2083562D01*
G01X17662911Y-1980692D02*
G01X17657323Y-1969262D01*
G01X17640051Y-1963420D01*
G01X17628621Y-1963420D01*
G01X17611603Y-1969262D01*
G01X17600173Y-1986280D01*
G01X17594331Y-2014982D01*
G01X17594331Y-2043430D01*
G01X17600173Y-2066290D01*
G01X17611603Y-2077720D01*
G01X17628621Y-2083562D01*
G01X17634463Y-2083562D01*
G01X17651481Y-2077720D01*
G01X17662911Y-2066290D01*
G01X17668753Y-2049272D01*
G01X17668753Y-2043430D01*
G01X17662911Y-2026412D01*
G01X17651481Y-2014982D01*
G01X17634463Y-2009140D01*
G01X17628621Y-2009140D01*
G01X17611603Y-2014982D01*
G01X17600173Y-2026412D01*
G01X17594331Y-2043430D01*
G01X17722347Y-2054860D02*
G01X17716505Y-2060702D01*
G01X17722347Y-2066290D01*
G01X17727935Y-2060702D01*
G01X17722347Y-2054860D01*
G01X17809977Y-1963420D02*
G01X17792959Y-1969262D01*
G01X17781529Y-1986280D01*
G01X17775687Y-2014982D01*
G01X17775687Y-2032000D01*
G01X17781529Y-2060702D01*
G01X17792959Y-2077720D01*
G01X17809977Y-2083562D01*
G01X17821407Y-2083562D01*
G01X17838679Y-2077720D01*
G01X17850109Y-2060702D01*
G01X17855697Y-2032000D01*
G01X17855697Y-2014982D01*
G01X17850109Y-1986280D01*
G01X17838679Y-1969262D01*
G01X17821407Y-1963420D01*
G01X17809977Y-1963420D01*
G01X17903449Y-2003552D02*
G01X17903449Y-2083562D01*
G01X17903449Y-2026412D02*
G01X17920721Y-2009140D01*
G01X17932151Y-2003552D01*
G01X17949169Y-2003552D01*
G01X17960599Y-2009140D01*
G01X17966441Y-2026412D01*
G01X17966441Y-2083562D01*
G01X17966441Y-2026412D02*
G01X17983459Y-2009140D01*
G01X17994889Y-2003552D01*
G01X18012161Y-2003552D01*
G01X18023591Y-2009140D01*
G01X18029179Y-2026412D01*
G01X18029179Y-2083562D01*
G01X18076931Y-1963420D02*
G01X18082773Y-1969262D01*
G01X18088361Y-1963420D01*
G01X18082773Y-1957832D01*
G01X18076931Y-1963420D01*
G01X18082773Y-2003552D02*
G01X18082773Y-2083562D01*
G01X18136113Y-1963420D02*
G01X18136113Y-2083562D01*
G01X18223997Y-1940560D02*
G01X18212567Y-1951990D01*
G01X18201137Y-1969262D01*
G01X18189707Y-1992122D01*
G01X18183865Y-2020570D01*
G01X18183865Y-2043430D01*
G01X18189707Y-2072132D01*
G01X18201137Y-2094992D01*
G01X18212567Y-2112010D01*
G01X18223997Y-2123440D01*
G01X18283179Y-1963420D02*
G01X18346171Y-1963420D01*
G01X18311881Y-2009140D01*
G01X18328899Y-2009140D01*
G01X18340329Y-2014982D01*
G01X18346171Y-2020570D01*
G01X18351759Y-2037842D01*
G01X18351759Y-2049272D01*
G01X18346171Y-2066290D01*
G01X18334741Y-2077720D01*
G01X18317469Y-2083562D01*
G01X18300451Y-2083562D01*
G01X18283179Y-2077720D01*
G01X18277591Y-2072132D01*
G01X18271749Y-2060702D01*
G01X18405353Y-2054860D02*
G01X18399511Y-2060702D01*
G01X18405353Y-2066290D01*
G01X18410941Y-2060702D01*
G01X18405353Y-2054860D01*
G01X18464535Y-1992122D02*
G01X18464535Y-1986280D01*
G01X18470123Y-1974850D01*
G01X18475965Y-1969262D01*
G01X18487395Y-1963420D01*
G01X18510255Y-1963420D01*
G01X18521685Y-1969262D01*
G01X18527273Y-1974850D01*
G01X18533115Y-1986280D01*
G01X18533115Y-1997710D01*
G01X18527273Y-2009140D01*
G01X18515843Y-2026412D01*
G01X18458693Y-2083562D01*
G01X18538703Y-2083562D01*
G01X18620745Y-1963420D02*
G01X18603727Y-1969262D01*
G01X18592297Y-1986280D01*
G01X18586455Y-2014982D01*
G01X18586455Y-2032000D01*
G01X18592297Y-2060702D01*
G01X18603727Y-2077720D01*
G01X18620745Y-2083562D01*
G01X18632175Y-2083562D01*
G01X18649447Y-2077720D01*
G01X18660877Y-2060702D01*
G01X18666465Y-2032000D01*
G01X18666465Y-2014982D01*
G01X18660877Y-1986280D01*
G01X18649447Y-1969262D01*
G01X18632175Y-1963420D01*
G01X18620745Y-1963420D01*
G01X18748507Y-1963420D02*
G01X18731489Y-1969262D01*
G01X18720059Y-1986280D01*
G01X18714217Y-2014982D01*
G01X18714217Y-2032000D01*
G01X18720059Y-2060702D01*
G01X18731489Y-2077720D01*
G01X18748507Y-2083562D01*
G01X18759937Y-2083562D01*
G01X18777209Y-2077720D01*
G01X18788639Y-2060702D01*
G01X18794227Y-2032000D01*
G01X18794227Y-2014982D01*
G01X18788639Y-1986280D01*
G01X18777209Y-1969262D01*
G01X18759937Y-1963420D01*
G01X18748507Y-1963420D01*
G01X18841979Y-2003552D02*
G01X18904971Y-2083562D01*
G01X18904971Y-2003552D02*
G01X18841979Y-2083562D01*
G01X18964153Y-1963420D02*
G01X19027145Y-1963420D01*
G01X18992855Y-2009140D01*
G01X19009873Y-2009140D01*
G01X19021303Y-2014982D01*
G01X19027145Y-2020570D01*
G01X19032733Y-2037842D01*
G01X19032733Y-2049272D01*
G01X19027145Y-2066290D01*
G01X19015715Y-2077720D01*
G01X18998443Y-2083562D01*
G01X18981425Y-2083562D01*
G01X18964153Y-2077720D01*
G01X18958565Y-2072132D01*
G01X18952723Y-2060702D01*
G01X19086327Y-2054860D02*
G01X19080485Y-2060702D01*
G01X19086327Y-2066290D01*
G01X19091915Y-2060702D01*
G01X19086327Y-2054860D01*
G01X19145509Y-1992122D02*
G01X19145509Y-1986280D01*
G01X19151097Y-1974850D01*
G01X19156939Y-1969262D01*
G01X19168369Y-1963420D01*
G01X19191229Y-1963420D01*
G01X19202659Y-1969262D01*
G01X19208247Y-1974850D01*
G01X19214089Y-1986280D01*
G01X19214089Y-1997710D01*
G01X19208247Y-2009140D01*
G01X19196817Y-2026412D01*
G01X19139667Y-2083562D01*
G01X19219677Y-2083562D01*
G01X19301719Y-1963420D02*
G01X19284701Y-1969262D01*
G01X19273271Y-1986280D01*
G01X19267429Y-2014982D01*
G01X19267429Y-2032000D01*
G01X19273271Y-2060702D01*
G01X19284701Y-2077720D01*
G01X19301719Y-2083562D01*
G01X19313149Y-2083562D01*
G01X19330421Y-2077720D01*
G01X19341851Y-2060702D01*
G01X19347439Y-2032000D01*
G01X19347439Y-2014982D01*
G01X19341851Y-1986280D01*
G01X19330421Y-1969262D01*
G01X19313149Y-1963420D01*
G01X19301719Y-1963420D01*
G01X19429481Y-1963420D02*
G01X19412463Y-1969262D01*
G01X19401033Y-1986280D01*
G01X19395191Y-2014982D01*
G01X19395191Y-2032000D01*
G01X19401033Y-2060702D01*
G01X19412463Y-2077720D01*
G01X19429481Y-2083562D01*
G01X19440911Y-2083562D01*
G01X19458183Y-2077720D01*
G01X19469613Y-2060702D01*
G01X19475201Y-2032000D01*
G01X19475201Y-2014982D01*
G01X19469613Y-1986280D01*
G01X19458183Y-1969262D01*
G01X19440911Y-1963420D01*
G01X19429481Y-1963420D01*
G01X19522953Y-2003552D02*
G01X19522953Y-2083562D01*
G01X19522953Y-2026412D02*
G01X19540225Y-2009140D01*
G01X19551655Y-2003552D01*
G01X19568673Y-2003552D01*
G01X19580103Y-2009140D01*
G01X19585945Y-2026412D01*
G01X19585945Y-2083562D01*
G01X19585945Y-2026412D02*
G01X19602963Y-2009140D01*
G01X19614393Y-2003552D01*
G01X19631665Y-2003552D01*
G01X19643095Y-2009140D01*
G01X19648683Y-2026412D01*
G01X19648683Y-2083562D01*
G01X19696435Y-2003552D02*
G01X19696435Y-2083562D01*
G01X19696435Y-2026412D02*
G01X19713707Y-2009140D01*
G01X19725137Y-2003552D01*
G01X19742155Y-2003552D01*
G01X19753585Y-2009140D01*
G01X19759427Y-2026412D01*
G01X19759427Y-2083562D01*
G01X19759427Y-2026412D02*
G01X19776445Y-2009140D01*
G01X19787875Y-2003552D01*
G01X19805147Y-2003552D01*
G01X19816577Y-2009140D01*
G01X19822165Y-2026412D01*
G01X19822165Y-2083562D01*
G01X19869917Y-1940560D02*
G01X19881347Y-1951990D01*
G01X19892777Y-1969262D01*
G01X19904207Y-1992122D01*
G01X19910049Y-2020570D01*
G01X19910049Y-2043430D01*
G01X19904207Y-2072132D01*
G01X19892777Y-2094992D01*
G01X19881347Y-2112010D01*
G01X19869917Y-2123440D01*
G01X20801227Y-1963420D02*
G01X20801227Y-2083562D01*
G01X20801227Y-1963420D02*
G01X20881237Y-2083562D01*
G01X20881237Y-1963420D02*
G01X20881237Y-2083562D01*
G01X20928989Y-1963420D02*
G01X20928989Y-2083562D01*
G01X20928989Y-1963420D02*
G01X20980551Y-1963420D01*
G01X20997569Y-1969262D01*
G01X21003411Y-1974850D01*
G01X21008999Y-1986280D01*
G01X21008999Y-2003552D01*
G01X21003411Y-2014982D01*
G01X20997569Y-2020570D01*
G01X20980551Y-2026412D01*
G01X20928989Y-2026412D01*
G01X21096883Y-1963420D02*
G01X21096883Y-2083562D01*
G01X21056751Y-1963420D02*
G01X21136761Y-1963420D01*
G01X21184513Y-1963420D02*
G01X21184513Y-2083562D01*
G01X21264523Y-1963420D02*
G01X21264523Y-2083562D01*
G01X21184513Y-2020570D02*
G01X21264523Y-2020570D01*
G01X22262634Y-1963420D02*
G01X22262634Y-2083562D01*
G01X22262634Y-1963420D02*
G01X22314196Y-1963420D01*
G01X22331214Y-1969262D01*
G01X22337056Y-1974850D01*
G01X22342644Y-1986280D01*
G01X22342644Y-1997710D01*
G01X22337056Y-2009140D01*
G01X22331214Y-2014982D01*
G01X22314196Y-2020570D01*
G01X22262634Y-2020570D01*
G01X22302766Y-2020570D02*
G01X22342644Y-2083562D01*
G01X22419098Y-2003552D02*
G01X22407668Y-2009140D01*
G01X22396238Y-2020570D01*
G01X22390396Y-2037842D01*
G01X22390396Y-2049272D01*
G01X22396238Y-2066290D01*
G01X22407668Y-2077720D01*
G01X22419098Y-2083562D01*
G01X22436116Y-2083562D01*
G01X22447546Y-2077720D01*
G01X22458976Y-2066290D01*
G01X22464818Y-2049272D01*
G01X22464818Y-2037842D01*
G01X22458976Y-2020570D01*
G01X22447546Y-2009140D01*
G01X22436116Y-2003552D01*
G01X22419098Y-2003552D01*
G01X22512570Y-2003552D02*
G01X22512570Y-2060702D01*
G01X22518412Y-2077720D01*
G01X22529842Y-2083562D01*
G01X22546860Y-2083562D01*
G01X22558290Y-2077720D01*
G01X22575562Y-2060702D01*
G01X22575562Y-2003552D02*
G01X22575562Y-2083562D01*
G01X22623314Y-2003552D02*
G01X22623314Y-2083562D01*
G01X22623314Y-2026412D02*
G01X22640586Y-2009140D01*
G01X22652016Y-2003552D01*
G01X22669034Y-2003552D01*
G01X22680464Y-2009140D01*
G01X22686306Y-2026412D01*
G01X22686306Y-2083562D01*
G01X22802638Y-1963420D02*
G01X22802638Y-2083562D01*
G01X22802638Y-2020570D02*
G01X22791208Y-2009140D01*
G01X22779778Y-2003552D01*
G01X22762760Y-2003552D01*
G01X22751330Y-2009140D01*
G01X22739900Y-2020570D01*
G01X22734058Y-2037842D01*
G01X22734058Y-2049272D01*
G01X22739900Y-2066290D01*
G01X22751330Y-2077720D01*
G01X22762760Y-2083562D01*
G01X22779778Y-2083562D01*
G01X22791208Y-2077720D01*
G01X22802638Y-2066290D01*
G01X23693815Y-1963420D02*
G01X23693815Y-2083562D01*
G01X23693815Y-1963420D02*
G01X23745377Y-1963420D01*
G01X23762395Y-1969262D01*
G01X23768237Y-1974850D01*
G01X23773825Y-1986280D01*
G01X23773825Y-2003552D01*
G01X23768237Y-2014982D01*
G01X23762395Y-2020570D01*
G01X23745377Y-2026412D01*
G01X23693815Y-2026412D01*
G01X23890157Y-2003552D02*
G01X23890157Y-2083562D01*
G01X23890157Y-2020570D02*
G01X23878727Y-2009140D01*
G01X23867297Y-2003552D01*
G01X23850279Y-2003552D01*
G01X23838849Y-2009140D01*
G01X23827419Y-2020570D01*
G01X23821577Y-2037842D01*
G01X23821577Y-2049272D01*
G01X23827419Y-2066290D01*
G01X23838849Y-2077720D01*
G01X23850279Y-2083562D01*
G01X23867297Y-2083562D01*
G01X23878727Y-2077720D01*
G01X23890157Y-2066290D01*
G01X24006489Y-1963420D02*
G01X24006489Y-2083562D01*
G01X24006489Y-2020570D02*
G01X23995059Y-2009140D01*
G01X23983629Y-2003552D01*
G01X23966611Y-2003552D01*
G01X23955181Y-2009140D01*
G01X23943751Y-2020570D01*
G01X23937909Y-2037842D01*
G01X23937909Y-2049272D01*
G01X23943751Y-2066290D01*
G01X23955181Y-2077720D01*
G01X23966611Y-2083562D01*
G01X23983629Y-2083562D01*
G01X23995059Y-2077720D01*
G01X24006489Y-2066290D01*
G01X25362994Y-1963420D02*
G01X25362994Y-2083562D01*
G01X25362994Y-1963420D02*
G01X25414556Y-1963420D01*
G01X25431574Y-1969262D01*
G01X25437416Y-1974850D01*
G01X25443004Y-1986280D01*
G01X25443004Y-1997710D01*
G01X25437416Y-2009140D01*
G01X25431574Y-2014982D01*
G01X25414556Y-2020570D01*
G01X25362994Y-2020570D01*
G01X25403126Y-2020570D02*
G01X25443004Y-2083562D01*
G01X25519458Y-2003552D02*
G01X25508028Y-2009140D01*
G01X25496598Y-2020570D01*
G01X25490756Y-2037842D01*
G01X25490756Y-2049272D01*
G01X25496598Y-2066290D01*
G01X25508028Y-2077720D01*
G01X25519458Y-2083562D01*
G01X25536476Y-2083562D01*
G01X25547906Y-2077720D01*
G01X25559336Y-2066290D01*
G01X25565178Y-2049272D01*
G01X25565178Y-2037842D01*
G01X25559336Y-2020570D01*
G01X25547906Y-2009140D01*
G01X25536476Y-2003552D01*
G01X25519458Y-2003552D01*
G01X25612930Y-2003552D02*
G01X25612930Y-2060702D01*
G01X25618772Y-2077720D01*
G01X25630202Y-2083562D01*
G01X25647220Y-2083562D01*
G01X25658650Y-2077720D01*
G01X25675922Y-2060702D01*
G01X25675922Y-2003552D02*
G01X25675922Y-2083562D01*
G01X25723674Y-2003552D02*
G01X25723674Y-2083562D01*
G01X25723674Y-2026412D02*
G01X25740946Y-2009140D01*
G01X25752376Y-2003552D01*
G01X25769394Y-2003552D01*
G01X25780824Y-2009140D01*
G01X25786666Y-2026412D01*
G01X25786666Y-2083562D01*
G01X25902998Y-1963420D02*
G01X25902998Y-2083562D01*
G01X25902998Y-2020570D02*
G01X25891568Y-2009140D01*
G01X25880138Y-2003552D01*
G01X25863120Y-2003552D01*
G01X25851690Y-2009140D01*
G01X25840260Y-2020570D01*
G01X25834418Y-2037842D01*
G01X25834418Y-2049272D01*
G01X25840260Y-2066290D01*
G01X25851690Y-2077720D01*
G01X25863120Y-2083562D01*
G01X25880138Y-2083562D01*
G01X25891568Y-2077720D01*
G01X25902998Y-2066290D01*
G01X27322495Y-1963420D02*
G01X27322495Y-2083562D01*
G01X27282363Y-1963420D02*
G01X27362373Y-1963420D01*
G01X27438827Y-2003552D02*
G01X27427397Y-2009140D01*
G01X27415967Y-2020570D01*
G01X27410125Y-2037842D01*
G01X27410125Y-2049272D01*
G01X27415967Y-2066290D01*
G01X27427397Y-2077720D01*
G01X27438827Y-2083562D01*
G01X27455845Y-2083562D01*
G01X27467275Y-2077720D01*
G01X27478705Y-2066290D01*
G01X27484547Y-2049272D01*
G01X27484547Y-2037842D01*
G01X27478705Y-2020570D01*
G01X27467275Y-2009140D01*
G01X27455845Y-2003552D01*
G01X27438827Y-2003552D01*
G01X27532299Y-2003552D02*
G01X27532299Y-2123440D01*
G01X27532299Y-2020570D02*
G01X27543729Y-2009140D01*
G01X27555159Y-2003552D01*
G01X27572431Y-2003552D01*
G01X27583861Y-2009140D01*
G01X27595291Y-2020570D01*
G01X27600879Y-2037842D01*
G01X27600879Y-2049272D01*
G01X27595291Y-2066290D01*
G01X27583861Y-2077720D01*
G01X27572431Y-2083562D01*
G01X27555159Y-2083562D01*
G01X27543729Y-2077720D01*
G01X27532299Y-2066290D01*
G01X27776647Y-1963420D02*
G01X27776647Y-2083562D01*
G01X27776647Y-2083562D02*
G01X27845227Y-2083562D01*
G01X27961559Y-2003552D02*
G01X27961559Y-2083562D01*
G01X27961559Y-2020570D02*
G01X27950129Y-2009140D01*
G01X27938699Y-2003552D01*
G01X27921681Y-2003552D01*
G01X27910251Y-2009140D01*
G01X27898821Y-2020570D01*
G01X27892979Y-2037842D01*
G01X27892979Y-2049272D01*
G01X27898821Y-2066290D01*
G01X27910251Y-2077720D01*
G01X27921681Y-2083562D01*
G01X27938699Y-2083562D01*
G01X27950129Y-2077720D01*
G01X27961559Y-2066290D01*
G01X28015153Y-2003552D02*
G01X28049443Y-2083562D01*
G01X28083733Y-2003552D02*
G01X28049443Y-2083562D01*
G01X28038013Y-2106422D01*
G01X28026583Y-2117852D01*
G01X28015153Y-2123440D01*
G01X28009311Y-2123440D01*
G01X28131485Y-2037842D02*
G01X28200065Y-2037842D01*
G01X28200065Y-2026412D01*
G01X28194477Y-2014982D01*
G01X28188635Y-2009140D01*
G01X28177205Y-2003552D01*
G01X28160187Y-2003552D01*
G01X28148757Y-2009140D01*
G01X28137327Y-2020570D01*
G01X28131485Y-2037842D01*
G01X28131485Y-2049272D01*
G01X28137327Y-2066290D01*
G01X28148757Y-2077720D01*
G01X28160187Y-2083562D01*
G01X28177205Y-2083562D01*
G01X28188635Y-2077720D01*
G01X28200065Y-2066290D01*
G01X28247817Y-2003552D02*
G01X28247817Y-2083562D01*
G01X28247817Y-2037842D02*
G01X28253659Y-2020570D01*
G01X28265089Y-2009140D01*
G01X28276519Y-2003552D01*
G01X28293537Y-2003552D01*
G01X28341289Y-2032000D02*
G01X28444159Y-2032000D01*
G01X28491911Y-1963420D02*
G01X28491911Y-2083562D01*
G01X28491911Y-1963420D02*
G01X28543473Y-1963420D01*
G01X28560491Y-1969262D01*
G01X28566333Y-1974850D01*
G01X28571921Y-1986280D01*
G01X28571921Y-1997710D01*
G01X28566333Y-2009140D01*
G01X28560491Y-2014982D01*
G01X28543473Y-2020570D01*
G01X28491911Y-2020570D02*
G01X28543473Y-2020570D01*
G01X28560491Y-2026412D01*
G01X28566333Y-2032000D01*
G01X28571921Y-2043430D01*
G01X28571921Y-2060702D01*
G01X28566333Y-2072132D01*
G01X28560491Y-2077720D01*
G01X28543473Y-2083562D01*
G01X28491911Y-2083562D01*
G01X28648375Y-2003552D02*
G01X28636945Y-2009140D01*
G01X28625515Y-2020570D01*
G01X28619673Y-2037842D01*
G01X28619673Y-2049272D01*
G01X28625515Y-2066290D01*
G01X28636945Y-2077720D01*
G01X28648375Y-2083562D01*
G01X28665393Y-2083562D01*
G01X28676823Y-2077720D01*
G01X28688253Y-2066290D01*
G01X28694095Y-2049272D01*
G01X28694095Y-2037842D01*
G01X28688253Y-2020570D01*
G01X28676823Y-2009140D01*
G01X28665393Y-2003552D01*
G01X28648375Y-2003552D01*
G01X28759119Y-1963420D02*
G01X28759119Y-2060702D01*
G01X28764707Y-2077720D01*
G01X28776137Y-2083562D01*
G01X28787567Y-2083562D01*
G01X28741847Y-2003552D02*
G01X28781979Y-2003552D01*
G01X28852591Y-1963420D02*
G01X28852591Y-2060702D01*
G01X28858179Y-2077720D01*
G01X28869609Y-2083562D01*
G01X28881039Y-2083562D01*
G01X28835319Y-2003552D02*
G01X28875451Y-2003552D01*
G01X28957493Y-2003552D02*
G01X28946063Y-2009140D01*
G01X28934633Y-2020570D01*
G01X28928791Y-2037842D01*
G01X28928791Y-2049272D01*
G01X28934633Y-2066290D01*
G01X28946063Y-2077720D01*
G01X28957493Y-2083562D01*
G01X28974511Y-2083562D01*
G01X28985941Y-2077720D01*
G01X28997371Y-2066290D01*
G01X29003213Y-2049272D01*
G01X29003213Y-2037842D01*
G01X28997371Y-2020570D01*
G01X28985941Y-2009140D01*
G01X28974511Y-2003552D01*
G01X28957493Y-2003552D01*
G01X29050965Y-2003552D02*
G01X29050965Y-2083562D01*
G01X29050965Y-2026412D02*
G01X29068237Y-2009140D01*
G01X29079667Y-2003552D01*
G01X29096685Y-2003552D01*
G01X29108115Y-2009140D01*
G01X29113957Y-2026412D01*
G01X29113957Y-2083562D01*
G01X29113957Y-2026412D02*
G01X29130975Y-2009140D01*
G01X29142405Y-2003552D01*
G01X29159677Y-2003552D01*
G01X29171107Y-2009140D01*
G01X29176695Y-2026412D01*
G01X29176695Y-2083562D01*
G01X29352463Y-1963420D02*
G01X29352463Y-2083562D01*
G01X29352463Y-2083562D02*
G01X29421043Y-2083562D01*
G01X29537375Y-2003552D02*
G01X29537375Y-2083562D01*
G01X29537375Y-2020570D02*
G01X29525945Y-2009140D01*
G01X29514515Y-2003552D01*
G01X29497497Y-2003552D01*
G01X29486067Y-2009140D01*
G01X29474637Y-2020570D01*
G01X29468795Y-2037842D01*
G01X29468795Y-2049272D01*
G01X29474637Y-2066290D01*
G01X29486067Y-2077720D01*
G01X29497497Y-2083562D01*
G01X29514515Y-2083562D01*
G01X29525945Y-2077720D01*
G01X29537375Y-2066290D01*
G01X29590969Y-2003552D02*
G01X29625259Y-2083562D01*
G01X29659549Y-2003552D02*
G01X29625259Y-2083562D01*
G01X29613829Y-2106422D01*
G01X29602399Y-2117852D01*
G01X29590969Y-2123440D01*
G01X29585127Y-2123440D01*
G01X29707301Y-2037842D02*
G01X29775881Y-2037842D01*
G01X29775881Y-2026412D01*
G01X29770293Y-2014982D01*
G01X29764451Y-2009140D01*
G01X29753021Y-2003552D01*
G01X29736003Y-2003552D01*
G01X29724573Y-2009140D01*
G01X29713143Y-2020570D01*
G01X29707301Y-2037842D01*
G01X29707301Y-2049272D01*
G01X29713143Y-2066290D01*
G01X29724573Y-2077720D01*
G01X29736003Y-2083562D01*
G01X29753021Y-2083562D01*
G01X29764451Y-2077720D01*
G01X29775881Y-2066290D01*
G01X29823633Y-2003552D02*
G01X29823633Y-2083562D01*
G01X29823633Y-2037842D02*
G01X29829475Y-2020570D01*
G01X29840905Y-2009140D01*
G01X29852335Y-2003552D01*
G01X29869353Y-2003552D01*
G01X15420454Y-2561263D02*
G01X15414866Y-2549833D01*
G01X15397594Y-2543991D01*
G01X15386164Y-2543991D01*
G01X15369146Y-2549833D01*
G01X15357716Y-2566851D01*
G01X15351874Y-2595553D01*
G01X15351874Y-2624001D01*
G01X15357716Y-2646861D01*
G01X15369146Y-2658291D01*
G01X15386164Y-2664133D01*
G01X15392006Y-2664133D01*
G01X15409024Y-2658291D01*
G01X15420454Y-2646861D01*
G01X15426296Y-2629843D01*
G01X15426296Y-2624001D01*
G01X15420454Y-2606983D01*
G01X15409024Y-2595553D01*
G01X15392006Y-2589711D01*
G01X15386164Y-2589711D01*
G01X15369146Y-2595553D01*
G01X15357716Y-2606983D01*
G01X15351874Y-2624001D01*
G01X16834617Y-2543991D02*
G01X16777467Y-2543991D01*
G01X16771879Y-2595553D01*
G01X16777467Y-2589711D01*
G01X16794739Y-2584123D01*
G01X16811757Y-2584123D01*
G01X16829029Y-2589711D01*
G01X16840459Y-2601141D01*
G01X16846047Y-2618413D01*
G01X16846047Y-2629843D01*
G01X16840459Y-2646861D01*
G01X16829029Y-2658291D01*
G01X16811757Y-2664133D01*
G01X16794739Y-2664133D01*
G01X16777467Y-2658291D01*
G01X16771879Y-2652703D01*
G01X16766037Y-2641273D01*
G01X16893799Y-2566851D02*
G01X16905229Y-2561263D01*
G01X16922501Y-2543991D01*
G01X16922501Y-2664133D01*
G01X16976095Y-2635431D02*
G01X16970253Y-2641273D01*
G01X16976095Y-2646861D01*
G01X16981683Y-2641273D01*
G01X16976095Y-2635431D01*
G01X17035277Y-2572693D02*
G01X17035277Y-2566851D01*
G01X17040865Y-2555421D01*
G01X17046707Y-2549833D01*
G01X17058137Y-2543991D01*
G01X17080997Y-2543991D01*
G01X17092427Y-2549833D01*
G01X17098015Y-2555421D01*
G01X17103857Y-2566851D01*
G01X17103857Y-2578281D01*
G01X17098015Y-2589711D01*
G01X17086585Y-2606983D01*
G01X17029435Y-2664133D01*
G01X17109445Y-2664133D01*
G01X17157197Y-2584123D02*
G01X17220189Y-2664133D01*
G01X17220189Y-2584123D02*
G01X17157197Y-2664133D01*
G01X17336521Y-2543991D02*
G01X17279371Y-2543991D01*
G01X17273783Y-2595553D01*
G01X17279371Y-2589711D01*
G01X17296643Y-2584123D01*
G01X17313661Y-2584123D01*
G01X17330933Y-2589711D01*
G01X17342363Y-2601141D01*
G01X17347951Y-2618413D01*
G01X17347951Y-2629843D01*
G01X17342363Y-2646861D01*
G01X17330933Y-2658291D01*
G01X17313661Y-2664133D01*
G01X17296643Y-2664133D01*
G01X17279371Y-2658291D01*
G01X17273783Y-2652703D01*
G01X17267941Y-2641273D01*
G01X17395703Y-2566851D02*
G01X17407133Y-2561263D01*
G01X17424405Y-2543991D01*
G01X17424405Y-2664133D01*
G01X17477999Y-2635431D02*
G01X17472157Y-2641273D01*
G01X17477999Y-2646861D01*
G01X17483587Y-2641273D01*
G01X17477999Y-2635431D01*
G01X17537181Y-2572693D02*
G01X17537181Y-2566851D01*
G01X17542769Y-2555421D01*
G01X17548611Y-2549833D01*
G01X17560041Y-2543991D01*
G01X17582901Y-2543991D01*
G01X17594331Y-2549833D01*
G01X17599919Y-2555421D01*
G01X17605761Y-2566851D01*
G01X17605761Y-2578281D01*
G01X17599919Y-2589711D01*
G01X17588489Y-2606983D01*
G01X17531339Y-2664133D01*
G01X17611349Y-2664133D01*
G01X17659101Y-2584123D02*
G01X17659101Y-2664133D01*
G01X17659101Y-2606983D02*
G01X17676373Y-2589711D01*
G01X17687803Y-2584123D01*
G01X17704821Y-2584123D01*
G01X17716251Y-2589711D01*
G01X17722093Y-2606983D01*
G01X17722093Y-2664133D01*
G01X17722093Y-2606983D02*
G01X17739111Y-2589711D01*
G01X17750541Y-2584123D01*
G01X17767813Y-2584123D01*
G01X17779243Y-2589711D01*
G01X17784831Y-2606983D01*
G01X17784831Y-2664133D01*
G01X17832583Y-2543991D02*
G01X17838425Y-2549833D01*
G01X17844013Y-2543991D01*
G01X17838425Y-2538403D01*
G01X17832583Y-2543991D01*
G01X17838425Y-2584123D02*
G01X17838425Y-2664133D01*
G01X17891765Y-2543991D02*
G01X17891765Y-2664133D01*
G01X17979649Y-2521131D02*
G01X17968219Y-2532561D01*
G01X17956789Y-2549833D01*
G01X17945359Y-2572693D01*
G01X17939517Y-2601141D01*
G01X17939517Y-2624001D01*
G01X17945359Y-2652703D01*
G01X17956789Y-2675563D01*
G01X17968219Y-2692581D01*
G01X17979649Y-2704011D01*
G01X18027401Y-2566851D02*
G01X18038831Y-2561263D01*
G01X18056103Y-2543991D01*
G01X18056103Y-2664133D01*
G01X18109697Y-2635431D02*
G01X18103855Y-2641273D01*
G01X18109697Y-2646861D01*
G01X18115285Y-2641273D01*
G01X18109697Y-2635431D01*
G01X18174467Y-2543991D02*
G01X18237459Y-2543991D01*
G01X18203169Y-2589711D01*
G01X18220187Y-2589711D01*
G01X18231617Y-2595553D01*
G01X18237459Y-2601141D01*
G01X18243047Y-2618413D01*
G01X18243047Y-2629843D01*
G01X18237459Y-2646861D01*
G01X18226029Y-2658291D01*
G01X18208757Y-2664133D01*
G01X18191739Y-2664133D01*
G01X18174467Y-2658291D01*
G01X18168879Y-2652703D01*
G01X18163037Y-2641273D01*
G01X18325089Y-2543991D02*
G01X18308071Y-2549833D01*
G01X18296641Y-2566851D01*
G01X18290799Y-2595553D01*
G01X18290799Y-2612571D01*
G01X18296641Y-2641273D01*
G01X18308071Y-2658291D01*
G01X18325089Y-2664133D01*
G01X18336519Y-2664133D01*
G01X18353791Y-2658291D01*
G01X18365221Y-2641273D01*
G01X18370809Y-2612571D01*
G01X18370809Y-2595553D01*
G01X18365221Y-2566851D01*
G01X18353791Y-2549833D01*
G01X18336519Y-2543991D01*
G01X18325089Y-2543991D01*
G01X18452851Y-2543991D02*
G01X18435833Y-2549833D01*
G01X18424403Y-2566851D01*
G01X18418561Y-2595553D01*
G01X18418561Y-2612571D01*
G01X18424403Y-2641273D01*
G01X18435833Y-2658291D01*
G01X18452851Y-2664133D01*
G01X18464281Y-2664133D01*
G01X18481553Y-2658291D01*
G01X18492983Y-2641273D01*
G01X18498571Y-2612571D01*
G01X18498571Y-2595553D01*
G01X18492983Y-2566851D01*
G01X18481553Y-2549833D01*
G01X18464281Y-2543991D01*
G01X18452851Y-2543991D01*
G01X18546323Y-2584123D02*
G01X18609315Y-2664133D01*
G01X18609315Y-2584123D02*
G01X18546323Y-2664133D01*
G01X18657067Y-2566851D02*
G01X18668497Y-2561263D01*
G01X18685769Y-2543991D01*
G01X18685769Y-2664133D01*
G01X18739363Y-2635431D02*
G01X18733521Y-2641273D01*
G01X18739363Y-2646861D01*
G01X18744951Y-2641273D01*
G01X18739363Y-2635431D01*
G01X18804133Y-2543991D02*
G01X18867125Y-2543991D01*
G01X18832835Y-2589711D01*
G01X18849853Y-2589711D01*
G01X18861283Y-2595553D01*
G01X18867125Y-2601141D01*
G01X18872713Y-2618413D01*
G01X18872713Y-2629843D01*
G01X18867125Y-2646861D01*
G01X18855695Y-2658291D01*
G01X18838423Y-2664133D01*
G01X18821405Y-2664133D01*
G01X18804133Y-2658291D01*
G01X18798545Y-2652703D01*
G01X18792703Y-2641273D01*
G01X18954755Y-2543991D02*
G01X18937737Y-2549833D01*
G01X18926307Y-2566851D01*
G01X18920465Y-2595553D01*
G01X18920465Y-2612571D01*
G01X18926307Y-2641273D01*
G01X18937737Y-2658291D01*
G01X18954755Y-2664133D01*
G01X18966185Y-2664133D01*
G01X18983457Y-2658291D01*
G01X18994887Y-2641273D01*
G01X19000475Y-2612571D01*
G01X19000475Y-2595553D01*
G01X18994887Y-2566851D01*
G01X18983457Y-2549833D01*
G01X18966185Y-2543991D01*
G01X18954755Y-2543991D01*
G01X19082517Y-2543991D02*
G01X19065499Y-2549833D01*
G01X19054069Y-2566851D01*
G01X19048227Y-2595553D01*
G01X19048227Y-2612571D01*
G01X19054069Y-2641273D01*
G01X19065499Y-2658291D01*
G01X19082517Y-2664133D01*
G01X19093947Y-2664133D01*
G01X19111219Y-2658291D01*
G01X19122649Y-2641273D01*
G01X19128237Y-2612571D01*
G01X19128237Y-2595553D01*
G01X19122649Y-2566851D01*
G01X19111219Y-2549833D01*
G01X19093947Y-2543991D01*
G01X19082517Y-2543991D01*
G01X19175989Y-2584123D02*
G01X19175989Y-2664133D01*
G01X19175989Y-2606983D02*
G01X19193261Y-2589711D01*
G01X19204691Y-2584123D01*
G01X19221709Y-2584123D01*
G01X19233139Y-2589711D01*
G01X19238981Y-2606983D01*
G01X19238981Y-2664133D01*
G01X19238981Y-2606983D02*
G01X19255999Y-2589711D01*
G01X19267429Y-2584123D01*
G01X19284701Y-2584123D01*
G01X19296131Y-2589711D01*
G01X19301719Y-2606983D01*
G01X19301719Y-2664133D01*
G01X19349471Y-2584123D02*
G01X19349471Y-2664133D01*
G01X19349471Y-2606983D02*
G01X19366743Y-2589711D01*
G01X19378173Y-2584123D01*
G01X19395191Y-2584123D01*
G01X19406621Y-2589711D01*
G01X19412463Y-2606983D01*
G01X19412463Y-2664133D01*
G01X19412463Y-2606983D02*
G01X19429481Y-2589711D01*
G01X19440911Y-2584123D01*
G01X19458183Y-2584123D01*
G01X19469613Y-2589711D01*
G01X19475201Y-2606983D01*
G01X19475201Y-2664133D01*
G01X19522953Y-2521131D02*
G01X19534383Y-2532561D01*
G01X19545813Y-2549833D01*
G01X19557243Y-2572693D01*
G01X19563085Y-2601141D01*
G01X19563085Y-2624001D01*
G01X19557243Y-2652703D01*
G01X19545813Y-2675563D01*
G01X19534383Y-2692581D01*
G01X19522953Y-2704011D01*
G01X20801227Y-2543991D02*
G01X20801227Y-2664133D01*
G01X20801227Y-2543991D02*
G01X20852789Y-2543991D01*
G01X20869807Y-2549833D01*
G01X20875649Y-2555421D01*
G01X20881237Y-2566851D01*
G01X20881237Y-2584123D01*
G01X20875649Y-2595553D01*
G01X20869807Y-2601141D01*
G01X20852789Y-2606983D01*
G01X20801227Y-2606983D01*
G01X20969121Y-2543991D02*
G01X20969121Y-2664133D01*
G01X20928989Y-2543991D02*
G01X21008999Y-2543991D01*
G01X21056751Y-2543991D02*
G01X21056751Y-2664133D01*
G01X21136761Y-2543991D02*
G01X21136761Y-2664133D01*
G01X21056751Y-2601141D02*
G01X21136761Y-2601141D01*
G01X22262634Y-2543991D02*
G01X22262634Y-2664133D01*
G01X22262634Y-2543991D02*
G01X22314196Y-2543991D01*
G01X22331214Y-2549833D01*
G01X22337056Y-2555421D01*
G01X22342644Y-2566851D01*
G01X22342644Y-2578281D01*
G01X22337056Y-2589711D01*
G01X22331214Y-2595553D01*
G01X22314196Y-2601141D01*
G01X22262634Y-2601141D01*
G01X22302766Y-2601141D02*
G01X22342644Y-2664133D01*
G01X22419098Y-2584123D02*
G01X22407668Y-2589711D01*
G01X22396238Y-2601141D01*
G01X22390396Y-2618413D01*
G01X22390396Y-2629843D01*
G01X22396238Y-2646861D01*
G01X22407668Y-2658291D01*
G01X22419098Y-2664133D01*
G01X22436116Y-2664133D01*
G01X22447546Y-2658291D01*
G01X22458976Y-2646861D01*
G01X22464818Y-2629843D01*
G01X22464818Y-2618413D01*
G01X22458976Y-2601141D01*
G01X22447546Y-2589711D01*
G01X22436116Y-2584123D01*
G01X22419098Y-2584123D01*
G01X22512570Y-2584123D02*
G01X22512570Y-2641273D01*
G01X22518412Y-2658291D01*
G01X22529842Y-2664133D01*
G01X22546860Y-2664133D01*
G01X22558290Y-2658291D01*
G01X22575562Y-2641273D01*
G01X22575562Y-2584123D02*
G01X22575562Y-2664133D01*
G01X22623314Y-2584123D02*
G01X22623314Y-2664133D01*
G01X22623314Y-2606983D02*
G01X22640586Y-2589711D01*
G01X22652016Y-2584123D01*
G01X22669034Y-2584123D01*
G01X22680464Y-2589711D01*
G01X22686306Y-2606983D01*
G01X22686306Y-2664133D01*
G01X22802638Y-2543991D02*
G01X22802638Y-2664133D01*
G01X22802638Y-2601141D02*
G01X22791208Y-2589711D01*
G01X22779778Y-2584123D01*
G01X22762760Y-2584123D01*
G01X22751330Y-2589711D01*
G01X22739900Y-2601141D01*
G01X22734058Y-2618413D01*
G01X22734058Y-2629843D01*
G01X22739900Y-2646861D01*
G01X22751330Y-2658291D01*
G01X22762760Y-2664133D01*
G01X22779778Y-2664133D01*
G01X22791208Y-2658291D01*
G01X22802638Y-2646861D01*
G01X23693815Y-2543991D02*
G01X23693815Y-2664133D01*
G01X23693815Y-2543991D02*
G01X23745377Y-2543991D01*
G01X23762395Y-2549833D01*
G01X23768237Y-2555421D01*
G01X23773825Y-2566851D01*
G01X23773825Y-2584123D01*
G01X23768237Y-2595553D01*
G01X23762395Y-2601141D01*
G01X23745377Y-2606983D01*
G01X23693815Y-2606983D01*
G01X23890157Y-2584123D02*
G01X23890157Y-2664133D01*
G01X23890157Y-2601141D02*
G01X23878727Y-2589711D01*
G01X23867297Y-2584123D01*
G01X23850279Y-2584123D01*
G01X23838849Y-2589711D01*
G01X23827419Y-2601141D01*
G01X23821577Y-2618413D01*
G01X23821577Y-2629843D01*
G01X23827419Y-2646861D01*
G01X23838849Y-2658291D01*
G01X23850279Y-2664133D01*
G01X23867297Y-2664133D01*
G01X23878727Y-2658291D01*
G01X23890157Y-2646861D01*
G01X24006489Y-2543991D02*
G01X24006489Y-2664133D01*
G01X24006489Y-2601141D02*
G01X23995059Y-2589711D01*
G01X23983629Y-2584123D01*
G01X23966611Y-2584123D01*
G01X23955181Y-2589711D01*
G01X23943751Y-2601141D01*
G01X23937909Y-2618413D01*
G01X23937909Y-2629843D01*
G01X23943751Y-2646861D01*
G01X23955181Y-2658291D01*
G01X23966611Y-2664133D01*
G01X23983629Y-2664133D01*
G01X23995059Y-2658291D01*
G01X24006489Y-2646861D01*
G01X25362994Y-2543991D02*
G01X25362994Y-2664133D01*
G01X25362994Y-2543991D02*
G01X25414556Y-2543991D01*
G01X25431574Y-2549833D01*
G01X25437416Y-2555421D01*
G01X25443004Y-2566851D01*
G01X25443004Y-2578281D01*
G01X25437416Y-2589711D01*
G01X25431574Y-2595553D01*
G01X25414556Y-2601141D01*
G01X25362994Y-2601141D01*
G01X25403126Y-2601141D02*
G01X25443004Y-2664133D01*
G01X25519458Y-2584123D02*
G01X25508028Y-2589711D01*
G01X25496598Y-2601141D01*
G01X25490756Y-2618413D01*
G01X25490756Y-2629843D01*
G01X25496598Y-2646861D01*
G01X25508028Y-2658291D01*
G01X25519458Y-2664133D01*
G01X25536476Y-2664133D01*
G01X25547906Y-2658291D01*
G01X25559336Y-2646861D01*
G01X25565178Y-2629843D01*
G01X25565178Y-2618413D01*
G01X25559336Y-2601141D01*
G01X25547906Y-2589711D01*
G01X25536476Y-2584123D01*
G01X25519458Y-2584123D01*
G01X25612930Y-2584123D02*
G01X25612930Y-2641273D01*
G01X25618772Y-2658291D01*
G01X25630202Y-2664133D01*
G01X25647220Y-2664133D01*
G01X25658650Y-2658291D01*
G01X25675922Y-2641273D01*
G01X25675922Y-2584123D02*
G01X25675922Y-2664133D01*
G01X25723674Y-2584123D02*
G01X25723674Y-2664133D01*
G01X25723674Y-2606983D02*
G01X25740946Y-2589711D01*
G01X25752376Y-2584123D01*
G01X25769394Y-2584123D01*
G01X25780824Y-2589711D01*
G01X25786666Y-2606983D01*
G01X25786666Y-2664133D01*
G01X25902998Y-2543991D02*
G01X25902998Y-2664133D01*
G01X25902998Y-2601141D02*
G01X25891568Y-2589711D01*
G01X25880138Y-2584123D01*
G01X25863120Y-2584123D01*
G01X25851690Y-2589711D01*
G01X25840260Y-2601141D01*
G01X25834418Y-2618413D01*
G01X25834418Y-2629843D01*
G01X25840260Y-2646861D01*
G01X25851690Y-2658291D01*
G01X25863120Y-2664133D01*
G01X25880138Y-2664133D01*
G01X25891568Y-2658291D01*
G01X25902998Y-2646861D01*
G01X27322495Y-2543991D02*
G01X27322495Y-2664133D01*
G01X27282363Y-2543991D02*
G01X27362373Y-2543991D01*
G01X27438827Y-2584123D02*
G01X27427397Y-2589711D01*
G01X27415967Y-2601141D01*
G01X27410125Y-2618413D01*
G01X27410125Y-2629843D01*
G01X27415967Y-2646861D01*
G01X27427397Y-2658291D01*
G01X27438827Y-2664133D01*
G01X27455845Y-2664133D01*
G01X27467275Y-2658291D01*
G01X27478705Y-2646861D01*
G01X27484547Y-2629843D01*
G01X27484547Y-2618413D01*
G01X27478705Y-2601141D01*
G01X27467275Y-2589711D01*
G01X27455845Y-2584123D01*
G01X27438827Y-2584123D01*
G01X27532299Y-2584123D02*
G01X27532299Y-2704011D01*
G01X27532299Y-2601141D02*
G01X27543729Y-2589711D01*
G01X27555159Y-2584123D01*
G01X27572431Y-2584123D01*
G01X27583861Y-2589711D01*
G01X27595291Y-2601141D01*
G01X27600879Y-2618413D01*
G01X27600879Y-2629843D01*
G01X27595291Y-2646861D01*
G01X27583861Y-2658291D01*
G01X27572431Y-2664133D01*
G01X27555159Y-2664133D01*
G01X27543729Y-2658291D01*
G01X27532299Y-2646861D01*
G01X27776647Y-2543991D02*
G01X27776647Y-2664133D01*
G01X27776647Y-2664133D02*
G01X27845227Y-2664133D01*
G01X27961559Y-2584123D02*
G01X27961559Y-2664133D01*
G01X27961559Y-2601141D02*
G01X27950129Y-2589711D01*
G01X27938699Y-2584123D01*
G01X27921681Y-2584123D01*
G01X27910251Y-2589711D01*
G01X27898821Y-2601141D01*
G01X27892979Y-2618413D01*
G01X27892979Y-2629843D01*
G01X27898821Y-2646861D01*
G01X27910251Y-2658291D01*
G01X27921681Y-2664133D01*
G01X27938699Y-2664133D01*
G01X27950129Y-2658291D01*
G01X27961559Y-2646861D01*
G01X28015153Y-2584123D02*
G01X28049443Y-2664133D01*
G01X28083733Y-2584123D02*
G01X28049443Y-2664133D01*
G01X28038013Y-2686993D01*
G01X28026583Y-2698423D01*
G01X28015153Y-2704011D01*
G01X28009311Y-2704011D01*
G01X28131485Y-2618413D02*
G01X28200065Y-2618413D01*
G01X28200065Y-2606983D01*
G01X28194477Y-2595553D01*
G01X28188635Y-2589711D01*
G01X28177205Y-2584123D01*
G01X28160187Y-2584123D01*
G01X28148757Y-2589711D01*
G01X28137327Y-2601141D01*
G01X28131485Y-2618413D01*
G01X28131485Y-2629843D01*
G01X28137327Y-2646861D01*
G01X28148757Y-2658291D01*
G01X28160187Y-2664133D01*
G01X28177205Y-2664133D01*
G01X28188635Y-2658291D01*
G01X28200065Y-2646861D01*
G01X28247817Y-2584123D02*
G01X28247817Y-2664133D01*
G01X28247817Y-2618413D02*
G01X28253659Y-2601141D01*
G01X28265089Y-2589711D01*
G01X28276519Y-2584123D01*
G01X28293537Y-2584123D01*
G01X28341289Y-2612571D02*
G01X28444159Y-2612571D01*
G01X28491911Y-2543991D02*
G01X28491911Y-2664133D01*
G01X28491911Y-2543991D02*
G01X28543473Y-2543991D01*
G01X28560491Y-2549833D01*
G01X28566333Y-2555421D01*
G01X28571921Y-2566851D01*
G01X28571921Y-2578281D01*
G01X28566333Y-2589711D01*
G01X28560491Y-2595553D01*
G01X28543473Y-2601141D01*
G01X28491911Y-2601141D02*
G01X28543473Y-2601141D01*
G01X28560491Y-2606983D01*
G01X28566333Y-2612571D01*
G01X28571921Y-2624001D01*
G01X28571921Y-2641273D01*
G01X28566333Y-2652703D01*
G01X28560491Y-2658291D01*
G01X28543473Y-2664133D01*
G01X28491911Y-2664133D01*
G01X28648375Y-2584123D02*
G01X28636945Y-2589711D01*
G01X28625515Y-2601141D01*
G01X28619673Y-2618413D01*
G01X28619673Y-2629843D01*
G01X28625515Y-2646861D01*
G01X28636945Y-2658291D01*
G01X28648375Y-2664133D01*
G01X28665393Y-2664133D01*
G01X28676823Y-2658291D01*
G01X28688253Y-2646861D01*
G01X28694095Y-2629843D01*
G01X28694095Y-2618413D01*
G01X28688253Y-2601141D01*
G01X28676823Y-2589711D01*
G01X28665393Y-2584123D01*
G01X28648375Y-2584123D01*
G01X28759119Y-2543991D02*
G01X28759119Y-2641273D01*
G01X28764707Y-2658291D01*
G01X28776137Y-2664133D01*
G01X28787567Y-2664133D01*
G01X28741847Y-2584123D02*
G01X28781979Y-2584123D01*
G01X28852591Y-2543991D02*
G01X28852591Y-2641273D01*
G01X28858179Y-2658291D01*
G01X28869609Y-2664133D01*
G01X28881039Y-2664133D01*
G01X28835319Y-2584123D02*
G01X28875451Y-2584123D01*
G01X28957493Y-2584123D02*
G01X28946063Y-2589711D01*
G01X28934633Y-2601141D01*
G01X28928791Y-2618413D01*
G01X28928791Y-2629843D01*
G01X28934633Y-2646861D01*
G01X28946063Y-2658291D01*
G01X28957493Y-2664133D01*
G01X28974511Y-2664133D01*
G01X28985941Y-2658291D01*
G01X28997371Y-2646861D01*
G01X29003213Y-2629843D01*
G01X29003213Y-2618413D01*
G01X28997371Y-2601141D01*
G01X28985941Y-2589711D01*
G01X28974511Y-2584123D01*
G01X28957493Y-2584123D01*
G01X29050965Y-2584123D02*
G01X29050965Y-2664133D01*
G01X29050965Y-2606983D02*
G01X29068237Y-2589711D01*
G01X29079667Y-2584123D01*
G01X29096685Y-2584123D01*
G01X29108115Y-2589711D01*
G01X29113957Y-2606983D01*
G01X29113957Y-2664133D01*
G01X29113957Y-2606983D02*
G01X29130975Y-2589711D01*
G01X29142405Y-2584123D01*
G01X29159677Y-2584123D01*
G01X29171107Y-2589711D01*
G01X29176695Y-2606983D01*
G01X29176695Y-2664133D01*
G01X29352463Y-2543991D02*
G01X29352463Y-2664133D01*
G01X29352463Y-2664133D02*
G01X29421043Y-2664133D01*
G01X29537375Y-2584123D02*
G01X29537375Y-2664133D01*
G01X29537375Y-2601141D02*
G01X29525945Y-2589711D01*
G01X29514515Y-2584123D01*
G01X29497497Y-2584123D01*
G01X29486067Y-2589711D01*
G01X29474637Y-2601141D01*
G01X29468795Y-2618413D01*
G01X29468795Y-2629843D01*
G01X29474637Y-2646861D01*
G01X29486067Y-2658291D01*
G01X29497497Y-2664133D01*
G01X29514515Y-2664133D01*
G01X29525945Y-2658291D01*
G01X29537375Y-2646861D01*
G01X29590969Y-2584123D02*
G01X29625259Y-2664133D01*
G01X29659549Y-2584123D02*
G01X29625259Y-2664133D01*
G01X29613829Y-2686993D01*
G01X29602399Y-2698423D01*
G01X29590969Y-2704011D01*
G01X29585127Y-2704011D01*
G01X29707301Y-2618413D02*
G01X29775881Y-2618413D01*
G01X29775881Y-2606983D01*
G01X29770293Y-2595553D01*
G01X29764451Y-2589711D01*
G01X29753021Y-2584123D01*
G01X29736003Y-2584123D01*
G01X29724573Y-2589711D01*
G01X29713143Y-2601141D01*
G01X29707301Y-2618413D01*
G01X29707301Y-2629843D01*
G01X29713143Y-2646861D01*
G01X29724573Y-2658291D01*
G01X29736003Y-2664133D01*
G01X29753021Y-2664133D01*
G01X29764451Y-2658291D01*
G01X29775881Y-2646861D01*
G01X29823633Y-2584123D02*
G01X29823633Y-2664133D01*
G01X29823633Y-2618413D02*
G01X29829475Y-2601141D01*
G01X29840905Y-2589711D01*
G01X29852335Y-2584123D01*
G01X29869353Y-2584123D01*
G01X15351874Y-3147423D02*
G01X15363304Y-3141835D01*
G01X15380576Y-3124563D01*
G01X15380576Y-3244705D01*
G01X15434170Y-3153265D02*
G01X15434170Y-3147423D01*
G01X15439758Y-3135993D01*
G01X15445600Y-3130405D01*
G01X15457030Y-3124563D01*
G01X15479890Y-3124563D01*
G01X15491320Y-3130405D01*
G01X15496908Y-3135993D01*
G01X15502750Y-3147423D01*
G01X15502750Y-3158853D01*
G01X15496908Y-3170283D01*
G01X15485478Y-3187555D01*
G01X15428328Y-3244705D01*
G01X15508338Y-3244705D01*
G01X16846047Y-3124563D02*
G01X16788897Y-3244705D01*
G01X16766037Y-3124563D02*
G01X16846047Y-3124563D01*
G01X16899641Y-3153265D02*
G01X16899641Y-3147423D01*
G01X16905229Y-3135993D01*
G01X16911071Y-3130405D01*
G01X16922501Y-3124563D01*
G01X16945361Y-3124563D01*
G01X16956791Y-3130405D01*
G01X16962379Y-3135993D01*
G01X16968221Y-3147423D01*
G01X16968221Y-3158853D01*
G01X16962379Y-3170283D01*
G01X16950949Y-3187555D01*
G01X16893799Y-3244705D01*
G01X16973809Y-3244705D01*
G01X17027403Y-3216003D02*
G01X17021561Y-3221845D01*
G01X17027403Y-3227433D01*
G01X17032991Y-3221845D01*
G01X17027403Y-3216003D01*
G01X17109445Y-3124563D02*
G01X17092173Y-3130405D01*
G01X17086585Y-3141835D01*
G01X17086585Y-3153265D01*
G01X17092173Y-3164695D01*
G01X17103603Y-3170283D01*
G01X17126463Y-3176125D01*
G01X17143735Y-3181713D01*
G01X17155165Y-3193143D01*
G01X17160753Y-3204573D01*
G01X17160753Y-3221845D01*
G01X17155165Y-3233275D01*
G01X17149323Y-3238863D01*
G01X17132305Y-3244705D01*
G01X17109445Y-3244705D01*
G01X17092173Y-3238863D01*
G01X17086585Y-3233275D01*
G01X17080743Y-3221845D01*
G01X17080743Y-3204573D01*
G01X17086585Y-3193143D01*
G01X17098015Y-3181713D01*
G01X17115033Y-3176125D01*
G01X17137893Y-3170283D01*
G01X17149323Y-3164695D01*
G01X17155165Y-3153265D01*
G01X17155165Y-3141835D01*
G01X17149323Y-3130405D01*
G01X17132305Y-3124563D01*
G01X17109445Y-3124563D01*
G01X17208505Y-3164695D02*
G01X17271497Y-3244705D01*
G01X17271497Y-3164695D02*
G01X17208505Y-3244705D01*
G01X17399259Y-3124563D02*
G01X17342109Y-3244705D01*
G01X17319249Y-3124563D02*
G01X17399259Y-3124563D01*
G01X17452853Y-3153265D02*
G01X17452853Y-3147423D01*
G01X17458441Y-3135993D01*
G01X17464283Y-3130405D01*
G01X17475713Y-3124563D01*
G01X17498573Y-3124563D01*
G01X17510003Y-3130405D01*
G01X17515591Y-3135993D01*
G01X17521433Y-3147423D01*
G01X17521433Y-3158853D01*
G01X17515591Y-3170283D01*
G01X17504161Y-3187555D01*
G01X17447011Y-3244705D01*
G01X17527021Y-3244705D01*
G01X17580615Y-3216003D02*
G01X17574773Y-3221845D01*
G01X17580615Y-3227433D01*
G01X17586203Y-3221845D01*
G01X17580615Y-3216003D01*
G01X17662657Y-3124563D02*
G01X17645385Y-3130405D01*
G01X17639797Y-3141835D01*
G01X17639797Y-3153265D01*
G01X17645385Y-3164695D01*
G01X17656815Y-3170283D01*
G01X17679675Y-3176125D01*
G01X17696947Y-3181713D01*
G01X17708377Y-3193143D01*
G01X17713965Y-3204573D01*
G01X17713965Y-3221845D01*
G01X17708377Y-3233275D01*
G01X17702535Y-3238863D01*
G01X17685517Y-3244705D01*
G01X17662657Y-3244705D01*
G01X17645385Y-3238863D01*
G01X17639797Y-3233275D01*
G01X17633955Y-3221845D01*
G01X17633955Y-3204573D01*
G01X17639797Y-3193143D01*
G01X17651227Y-3181713D01*
G01X17668245Y-3176125D01*
G01X17691105Y-3170283D01*
G01X17702535Y-3164695D01*
G01X17708377Y-3153265D01*
G01X17708377Y-3141835D01*
G01X17702535Y-3130405D01*
G01X17685517Y-3124563D01*
G01X17662657Y-3124563D01*
G01X17761717Y-3164695D02*
G01X17761717Y-3244705D01*
G01X17761717Y-3187555D02*
G01X17778989Y-3170283D01*
G01X17790419Y-3164695D01*
G01X17807437Y-3164695D01*
G01X17818867Y-3170283D01*
G01X17824709Y-3187555D01*
G01X17824709Y-3244705D01*
G01X17824709Y-3187555D02*
G01X17841727Y-3170283D01*
G01X17853157Y-3164695D01*
G01X17870429Y-3164695D01*
G01X17881859Y-3170283D01*
G01X17887447Y-3187555D01*
G01X17887447Y-3244705D01*
G01X17935199Y-3124563D02*
G01X17941041Y-3130405D01*
G01X17946629Y-3124563D01*
G01X17941041Y-3118975D01*
G01X17935199Y-3124563D01*
G01X17941041Y-3164695D02*
G01X17941041Y-3244705D01*
G01X17994381Y-3124563D02*
G01X17994381Y-3244705D01*
G01X18082265Y-3101703D02*
G01X18070835Y-3113133D01*
G01X18059405Y-3130405D01*
G01X18047975Y-3153265D01*
G01X18042133Y-3181713D01*
G01X18042133Y-3204573D01*
G01X18047975Y-3233275D01*
G01X18059405Y-3256135D01*
G01X18070835Y-3273153D01*
G01X18082265Y-3284583D01*
G01X18130017Y-3147423D02*
G01X18141447Y-3141835D01*
G01X18158719Y-3124563D01*
G01X18158719Y-3244705D01*
G01X18212313Y-3216003D02*
G01X18206471Y-3221845D01*
G01X18212313Y-3227433D01*
G01X18217901Y-3221845D01*
G01X18212313Y-3216003D01*
G01X18294355Y-3124563D02*
G01X18277083Y-3130405D01*
G01X18271495Y-3141835D01*
G01X18271495Y-3153265D01*
G01X18277083Y-3164695D01*
G01X18288513Y-3170283D01*
G01X18311373Y-3176125D01*
G01X18328645Y-3181713D01*
G01X18340075Y-3193143D01*
G01X18345663Y-3204573D01*
G01X18345663Y-3221845D01*
G01X18340075Y-3233275D01*
G01X18334233Y-3238863D01*
G01X18317215Y-3244705D01*
G01X18294355Y-3244705D01*
G01X18277083Y-3238863D01*
G01X18271495Y-3233275D01*
G01X18265653Y-3221845D01*
G01X18265653Y-3204573D01*
G01X18271495Y-3193143D01*
G01X18282925Y-3181713D01*
G01X18299943Y-3176125D01*
G01X18322803Y-3170283D01*
G01X18334233Y-3164695D01*
G01X18340075Y-3153265D01*
G01X18340075Y-3141835D01*
G01X18334233Y-3130405D01*
G01X18317215Y-3124563D01*
G01X18294355Y-3124563D01*
G01X18461995Y-3124563D02*
G01X18404845Y-3124563D01*
G01X18399257Y-3176125D01*
G01X18404845Y-3170283D01*
G01X18422117Y-3164695D01*
G01X18439135Y-3164695D01*
G01X18456407Y-3170283D01*
G01X18467837Y-3181713D01*
G01X18473425Y-3198985D01*
G01X18473425Y-3210415D01*
G01X18467837Y-3227433D01*
G01X18456407Y-3238863D01*
G01X18439135Y-3244705D01*
G01X18422117Y-3244705D01*
G01X18404845Y-3238863D01*
G01X18399257Y-3233275D01*
G01X18393415Y-3221845D01*
G01X18555467Y-3124563D02*
G01X18538449Y-3130405D01*
G01X18527019Y-3147423D01*
G01X18521177Y-3176125D01*
G01X18521177Y-3193143D01*
G01X18527019Y-3221845D01*
G01X18538449Y-3238863D01*
G01X18555467Y-3244705D01*
G01X18566897Y-3244705D01*
G01X18584169Y-3238863D01*
G01X18595599Y-3221845D01*
G01X18601187Y-3193143D01*
G01X18601187Y-3176125D01*
G01X18595599Y-3147423D01*
G01X18584169Y-3130405D01*
G01X18566897Y-3124563D01*
G01X18555467Y-3124563D01*
G01X18648939Y-3164695D02*
G01X18711931Y-3244705D01*
G01X18711931Y-3164695D02*
G01X18648939Y-3244705D01*
G01X18759683Y-3147423D02*
G01X18771113Y-3141835D01*
G01X18788385Y-3124563D01*
G01X18788385Y-3244705D01*
G01X18841979Y-3216003D02*
G01X18836137Y-3221845D01*
G01X18841979Y-3227433D01*
G01X18847567Y-3221845D01*
G01X18841979Y-3216003D01*
G01X18924021Y-3124563D02*
G01X18906749Y-3130405D01*
G01X18901161Y-3141835D01*
G01X18901161Y-3153265D01*
G01X18906749Y-3164695D01*
G01X18918179Y-3170283D01*
G01X18941039Y-3176125D01*
G01X18958311Y-3181713D01*
G01X18969741Y-3193143D01*
G01X18975329Y-3204573D01*
G01X18975329Y-3221845D01*
G01X18969741Y-3233275D01*
G01X18963899Y-3238863D01*
G01X18946881Y-3244705D01*
G01X18924021Y-3244705D01*
G01X18906749Y-3238863D01*
G01X18901161Y-3233275D01*
G01X18895319Y-3221845D01*
G01X18895319Y-3204573D01*
G01X18901161Y-3193143D01*
G01X18912591Y-3181713D01*
G01X18929609Y-3176125D01*
G01X18952469Y-3170283D01*
G01X18963899Y-3164695D01*
G01X18969741Y-3153265D01*
G01X18969741Y-3141835D01*
G01X18963899Y-3130405D01*
G01X18946881Y-3124563D01*
G01X18924021Y-3124563D01*
G01X19091661Y-3124563D02*
G01X19034511Y-3124563D01*
G01X19028923Y-3176125D01*
G01X19034511Y-3170283D01*
G01X19051783Y-3164695D01*
G01X19068801Y-3164695D01*
G01X19086073Y-3170283D01*
G01X19097503Y-3181713D01*
G01X19103091Y-3198985D01*
G01X19103091Y-3210415D01*
G01X19097503Y-3227433D01*
G01X19086073Y-3238863D01*
G01X19068801Y-3244705D01*
G01X19051783Y-3244705D01*
G01X19034511Y-3238863D01*
G01X19028923Y-3233275D01*
G01X19023081Y-3221845D01*
G01X19185133Y-3124563D02*
G01X19168115Y-3130405D01*
G01X19156685Y-3147423D01*
G01X19150843Y-3176125D01*
G01X19150843Y-3193143D01*
G01X19156685Y-3221845D01*
G01X19168115Y-3238863D01*
G01X19185133Y-3244705D01*
G01X19196563Y-3244705D01*
G01X19213835Y-3238863D01*
G01X19225265Y-3221845D01*
G01X19230853Y-3193143D01*
G01X19230853Y-3176125D01*
G01X19225265Y-3147423D01*
G01X19213835Y-3130405D01*
G01X19196563Y-3124563D01*
G01X19185133Y-3124563D01*
G01X19278605Y-3164695D02*
G01X19278605Y-3244705D01*
G01X19278605Y-3187555D02*
G01X19295877Y-3170283D01*
G01X19307307Y-3164695D01*
G01X19324325Y-3164695D01*
G01X19335755Y-3170283D01*
G01X19341597Y-3187555D01*
G01X19341597Y-3244705D01*
G01X19341597Y-3187555D02*
G01X19358615Y-3170283D01*
G01X19370045Y-3164695D01*
G01X19387317Y-3164695D01*
G01X19398747Y-3170283D01*
G01X19404335Y-3187555D01*
G01X19404335Y-3244705D01*
G01X19452087Y-3164695D02*
G01X19452087Y-3244705D01*
G01X19452087Y-3187555D02*
G01X19469359Y-3170283D01*
G01X19480789Y-3164695D01*
G01X19497807Y-3164695D01*
G01X19509237Y-3170283D01*
G01X19515079Y-3187555D01*
G01X19515079Y-3244705D01*
G01X19515079Y-3187555D02*
G01X19532097Y-3170283D01*
G01X19543527Y-3164695D01*
G01X19560799Y-3164695D01*
G01X19572229Y-3170283D01*
G01X19577817Y-3187555D01*
G01X19577817Y-3244705D01*
G01X19625569Y-3101703D02*
G01X19636999Y-3113133D01*
G01X19648429Y-3130405D01*
G01X19659859Y-3153265D01*
G01X19665701Y-3181713D01*
G01X19665701Y-3204573D01*
G01X19659859Y-3233275D01*
G01X19648429Y-3256135D01*
G01X19636999Y-3273153D01*
G01X19625569Y-3284583D01*
G01X20801227Y-3124563D02*
G01X20801227Y-3244705D01*
G01X20801227Y-3124563D02*
G01X20852789Y-3124563D01*
G01X20869807Y-3130405D01*
G01X20875649Y-3135993D01*
G01X20881237Y-3147423D01*
G01X20881237Y-3164695D01*
G01X20875649Y-3176125D01*
G01X20869807Y-3181713D01*
G01X20852789Y-3187555D01*
G01X20801227Y-3187555D01*
G01X20969121Y-3124563D02*
G01X20969121Y-3244705D01*
G01X20928989Y-3124563D02*
G01X21008999Y-3124563D01*
G01X21056751Y-3124563D02*
G01X21056751Y-3244705D01*
G01X21136761Y-3124563D02*
G01X21136761Y-3244705D01*
G01X21056751Y-3181713D02*
G01X21136761Y-3181713D01*
G01X22262634Y-3124563D02*
G01X22262634Y-3244705D01*
G01X22262634Y-3124563D02*
G01X22314196Y-3124563D01*
G01X22331214Y-3130405D01*
G01X22337056Y-3135993D01*
G01X22342644Y-3147423D01*
G01X22342644Y-3158853D01*
G01X22337056Y-3170283D01*
G01X22331214Y-3176125D01*
G01X22314196Y-3181713D01*
G01X22262634Y-3181713D01*
G01X22302766Y-3181713D02*
G01X22342644Y-3244705D01*
G01X22419098Y-3164695D02*
G01X22407668Y-3170283D01*
G01X22396238Y-3181713D01*
G01X22390396Y-3198985D01*
G01X22390396Y-3210415D01*
G01X22396238Y-3227433D01*
G01X22407668Y-3238863D01*
G01X22419098Y-3244705D01*
G01X22436116Y-3244705D01*
G01X22447546Y-3238863D01*
G01X22458976Y-3227433D01*
G01X22464818Y-3210415D01*
G01X22464818Y-3198985D01*
G01X22458976Y-3181713D01*
G01X22447546Y-3170283D01*
G01X22436116Y-3164695D01*
G01X22419098Y-3164695D01*
G01X22512570Y-3164695D02*
G01X22512570Y-3221845D01*
G01X22518412Y-3238863D01*
G01X22529842Y-3244705D01*
G01X22546860Y-3244705D01*
G01X22558290Y-3238863D01*
G01X22575562Y-3221845D01*
G01X22575562Y-3164695D02*
G01X22575562Y-3244705D01*
G01X22623314Y-3164695D02*
G01X22623314Y-3244705D01*
G01X22623314Y-3187555D02*
G01X22640586Y-3170283D01*
G01X22652016Y-3164695D01*
G01X22669034Y-3164695D01*
G01X22680464Y-3170283D01*
G01X22686306Y-3187555D01*
G01X22686306Y-3244705D01*
G01X22802638Y-3124563D02*
G01X22802638Y-3244705D01*
G01X22802638Y-3181713D02*
G01X22791208Y-3170283D01*
G01X22779778Y-3164695D01*
G01X22762760Y-3164695D01*
G01X22751330Y-3170283D01*
G01X22739900Y-3181713D01*
G01X22734058Y-3198985D01*
G01X22734058Y-3210415D01*
G01X22739900Y-3227433D01*
G01X22751330Y-3238863D01*
G01X22762760Y-3244705D01*
G01X22779778Y-3244705D01*
G01X22791208Y-3238863D01*
G01X22802638Y-3227433D01*
G01X23693815Y-3124563D02*
G01X23693815Y-3244705D01*
G01X23693815Y-3124563D02*
G01X23745377Y-3124563D01*
G01X23762395Y-3130405D01*
G01X23768237Y-3135993D01*
G01X23773825Y-3147423D01*
G01X23773825Y-3164695D01*
G01X23768237Y-3176125D01*
G01X23762395Y-3181713D01*
G01X23745377Y-3187555D01*
G01X23693815Y-3187555D01*
G01X23890157Y-3164695D02*
G01X23890157Y-3244705D01*
G01X23890157Y-3181713D02*
G01X23878727Y-3170283D01*
G01X23867297Y-3164695D01*
G01X23850279Y-3164695D01*
G01X23838849Y-3170283D01*
G01X23827419Y-3181713D01*
G01X23821577Y-3198985D01*
G01X23821577Y-3210415D01*
G01X23827419Y-3227433D01*
G01X23838849Y-3238863D01*
G01X23850279Y-3244705D01*
G01X23867297Y-3244705D01*
G01X23878727Y-3238863D01*
G01X23890157Y-3227433D01*
G01X24006489Y-3124563D02*
G01X24006489Y-3244705D01*
G01X24006489Y-3181713D02*
G01X23995059Y-3170283D01*
G01X23983629Y-3164695D01*
G01X23966611Y-3164695D01*
G01X23955181Y-3170283D01*
G01X23943751Y-3181713D01*
G01X23937909Y-3198985D01*
G01X23937909Y-3210415D01*
G01X23943751Y-3227433D01*
G01X23955181Y-3238863D01*
G01X23966611Y-3244705D01*
G01X23983629Y-3244705D01*
G01X23995059Y-3238863D01*
G01X24006489Y-3227433D01*
G01X25362994Y-3124563D02*
G01X25362994Y-3244705D01*
G01X25362994Y-3124563D02*
G01X25414556Y-3124563D01*
G01X25431574Y-3130405D01*
G01X25437416Y-3135993D01*
G01X25443004Y-3147423D01*
G01X25443004Y-3158853D01*
G01X25437416Y-3170283D01*
G01X25431574Y-3176125D01*
G01X25414556Y-3181713D01*
G01X25362994Y-3181713D01*
G01X25403126Y-3181713D02*
G01X25443004Y-3244705D01*
G01X25519458Y-3164695D02*
G01X25508028Y-3170283D01*
G01X25496598Y-3181713D01*
G01X25490756Y-3198985D01*
G01X25490756Y-3210415D01*
G01X25496598Y-3227433D01*
G01X25508028Y-3238863D01*
G01X25519458Y-3244705D01*
G01X25536476Y-3244705D01*
G01X25547906Y-3238863D01*
G01X25559336Y-3227433D01*
G01X25565178Y-3210415D01*
G01X25565178Y-3198985D01*
G01X25559336Y-3181713D01*
G01X25547906Y-3170283D01*
G01X25536476Y-3164695D01*
G01X25519458Y-3164695D01*
G01X25612930Y-3164695D02*
G01X25612930Y-3221845D01*
G01X25618772Y-3238863D01*
G01X25630202Y-3244705D01*
G01X25647220Y-3244705D01*
G01X25658650Y-3238863D01*
G01X25675922Y-3221845D01*
G01X25675922Y-3164695D02*
G01X25675922Y-3244705D01*
G01X25723674Y-3164695D02*
G01X25723674Y-3244705D01*
G01X25723674Y-3187555D02*
G01X25740946Y-3170283D01*
G01X25752376Y-3164695D01*
G01X25769394Y-3164695D01*
G01X25780824Y-3170283D01*
G01X25786666Y-3187555D01*
G01X25786666Y-3244705D01*
G01X25902998Y-3124563D02*
G01X25902998Y-3244705D01*
G01X25902998Y-3181713D02*
G01X25891568Y-3170283D01*
G01X25880138Y-3164695D01*
G01X25863120Y-3164695D01*
G01X25851690Y-3170283D01*
G01X25840260Y-3181713D01*
G01X25834418Y-3198985D01*
G01X25834418Y-3210415D01*
G01X25840260Y-3227433D01*
G01X25851690Y-3238863D01*
G01X25863120Y-3244705D01*
G01X25880138Y-3244705D01*
G01X25891568Y-3238863D01*
G01X25902998Y-3227433D01*
G01X27322495Y-3124563D02*
G01X27322495Y-3244705D01*
G01X27282363Y-3124563D02*
G01X27362373Y-3124563D01*
G01X27438827Y-3164695D02*
G01X27427397Y-3170283D01*
G01X27415967Y-3181713D01*
G01X27410125Y-3198985D01*
G01X27410125Y-3210415D01*
G01X27415967Y-3227433D01*
G01X27427397Y-3238863D01*
G01X27438827Y-3244705D01*
G01X27455845Y-3244705D01*
G01X27467275Y-3238863D01*
G01X27478705Y-3227433D01*
G01X27484547Y-3210415D01*
G01X27484547Y-3198985D01*
G01X27478705Y-3181713D01*
G01X27467275Y-3170283D01*
G01X27455845Y-3164695D01*
G01X27438827Y-3164695D01*
G01X27532299Y-3164695D02*
G01X27532299Y-3284583D01*
G01X27532299Y-3181713D02*
G01X27543729Y-3170283D01*
G01X27555159Y-3164695D01*
G01X27572431Y-3164695D01*
G01X27583861Y-3170283D01*
G01X27595291Y-3181713D01*
G01X27600879Y-3198985D01*
G01X27600879Y-3210415D01*
G01X27595291Y-3227433D01*
G01X27583861Y-3238863D01*
G01X27572431Y-3244705D01*
G01X27555159Y-3244705D01*
G01X27543729Y-3238863D01*
G01X27532299Y-3227433D01*
G01X27776647Y-3124563D02*
G01X27776647Y-3244705D01*
G01X27776647Y-3244705D02*
G01X27845227Y-3244705D01*
G01X27961559Y-3164695D02*
G01X27961559Y-3244705D01*
G01X27961559Y-3181713D02*
G01X27950129Y-3170283D01*
G01X27938699Y-3164695D01*
G01X27921681Y-3164695D01*
G01X27910251Y-3170283D01*
G01X27898821Y-3181713D01*
G01X27892979Y-3198985D01*
G01X27892979Y-3210415D01*
G01X27898821Y-3227433D01*
G01X27910251Y-3238863D01*
G01X27921681Y-3244705D01*
G01X27938699Y-3244705D01*
G01X27950129Y-3238863D01*
G01X27961559Y-3227433D01*
G01X28015153Y-3164695D02*
G01X28049443Y-3244705D01*
G01X28083733Y-3164695D02*
G01X28049443Y-3244705D01*
G01X28038013Y-3267565D01*
G01X28026583Y-3278995D01*
G01X28015153Y-3284583D01*
G01X28009311Y-3284583D01*
G01X28131485Y-3198985D02*
G01X28200065Y-3198985D01*
G01X28200065Y-3187555D01*
G01X28194477Y-3176125D01*
G01X28188635Y-3170283D01*
G01X28177205Y-3164695D01*
G01X28160187Y-3164695D01*
G01X28148757Y-3170283D01*
G01X28137327Y-3181713D01*
G01X28131485Y-3198985D01*
G01X28131485Y-3210415D01*
G01X28137327Y-3227433D01*
G01X28148757Y-3238863D01*
G01X28160187Y-3244705D01*
G01X28177205Y-3244705D01*
G01X28188635Y-3238863D01*
G01X28200065Y-3227433D01*
G01X28247817Y-3164695D02*
G01X28247817Y-3244705D01*
G01X28247817Y-3198985D02*
G01X28253659Y-3181713D01*
G01X28265089Y-3170283D01*
G01X28276519Y-3164695D01*
G01X28293537Y-3164695D01*
G01X28341289Y-3193143D02*
G01X28444159Y-3193143D01*
G01X28491911Y-3124563D02*
G01X28491911Y-3244705D01*
G01X28491911Y-3124563D02*
G01X28543473Y-3124563D01*
G01X28560491Y-3130405D01*
G01X28566333Y-3135993D01*
G01X28571921Y-3147423D01*
G01X28571921Y-3158853D01*
G01X28566333Y-3170283D01*
G01X28560491Y-3176125D01*
G01X28543473Y-3181713D01*
G01X28491911Y-3181713D02*
G01X28543473Y-3181713D01*
G01X28560491Y-3187555D01*
G01X28566333Y-3193143D01*
G01X28571921Y-3204573D01*
G01X28571921Y-3221845D01*
G01X28566333Y-3233275D01*
G01X28560491Y-3238863D01*
G01X28543473Y-3244705D01*
G01X28491911Y-3244705D01*
G01X28648375Y-3164695D02*
G01X28636945Y-3170283D01*
G01X28625515Y-3181713D01*
G01X28619673Y-3198985D01*
G01X28619673Y-3210415D01*
G01X28625515Y-3227433D01*
G01X28636945Y-3238863D01*
G01X28648375Y-3244705D01*
G01X28665393Y-3244705D01*
G01X28676823Y-3238863D01*
G01X28688253Y-3227433D01*
G01X28694095Y-3210415D01*
G01X28694095Y-3198985D01*
G01X28688253Y-3181713D01*
G01X28676823Y-3170283D01*
G01X28665393Y-3164695D01*
G01X28648375Y-3164695D01*
G01X28759119Y-3124563D02*
G01X28759119Y-3221845D01*
G01X28764707Y-3238863D01*
G01X28776137Y-3244705D01*
G01X28787567Y-3244705D01*
G01X28741847Y-3164695D02*
G01X28781979Y-3164695D01*
G01X28852591Y-3124563D02*
G01X28852591Y-3221845D01*
G01X28858179Y-3238863D01*
G01X28869609Y-3244705D01*
G01X28881039Y-3244705D01*
G01X28835319Y-3164695D02*
G01X28875451Y-3164695D01*
G01X28957493Y-3164695D02*
G01X28946063Y-3170283D01*
G01X28934633Y-3181713D01*
G01X28928791Y-3198985D01*
G01X28928791Y-3210415D01*
G01X28934633Y-3227433D01*
G01X28946063Y-3238863D01*
G01X28957493Y-3244705D01*
G01X28974511Y-3244705D01*
G01X28985941Y-3238863D01*
G01X28997371Y-3227433D01*
G01X29003213Y-3210415D01*
G01X29003213Y-3198985D01*
G01X28997371Y-3181713D01*
G01X28985941Y-3170283D01*
G01X28974511Y-3164695D01*
G01X28957493Y-3164695D01*
G01X29050965Y-3164695D02*
G01X29050965Y-3244705D01*
G01X29050965Y-3187555D02*
G01X29068237Y-3170283D01*
G01X29079667Y-3164695D01*
G01X29096685Y-3164695D01*
G01X29108115Y-3170283D01*
G01X29113957Y-3187555D01*
G01X29113957Y-3244705D01*
G01X29113957Y-3187555D02*
G01X29130975Y-3170283D01*
G01X29142405Y-3164695D01*
G01X29159677Y-3164695D01*
G01X29171107Y-3170283D01*
G01X29176695Y-3187555D01*
G01X29176695Y-3244705D01*
G01X29352463Y-3124563D02*
G01X29352463Y-3244705D01*
G01X29352463Y-3244705D02*
G01X29421043Y-3244705D01*
G01X29537375Y-3164695D02*
G01X29537375Y-3244705D01*
G01X29537375Y-3181713D02*
G01X29525945Y-3170283D01*
G01X29514515Y-3164695D01*
G01X29497497Y-3164695D01*
G01X29486067Y-3170283D01*
G01X29474637Y-3181713D01*
G01X29468795Y-3198985D01*
G01X29468795Y-3210415D01*
G01X29474637Y-3227433D01*
G01X29486067Y-3238863D01*
G01X29497497Y-3244705D01*
G01X29514515Y-3244705D01*
G01X29525945Y-3238863D01*
G01X29537375Y-3227433D01*
G01X29590969Y-3164695D02*
G01X29625259Y-3244705D01*
G01X29659549Y-3164695D02*
G01X29625259Y-3244705D01*
G01X29613829Y-3267565D01*
G01X29602399Y-3278995D01*
G01X29590969Y-3284583D01*
G01X29585127Y-3284583D01*
G01X29707301Y-3198985D02*
G01X29775881Y-3198985D01*
G01X29775881Y-3187555D01*
G01X29770293Y-3176125D01*
G01X29764451Y-3170283D01*
G01X29753021Y-3164695D01*
G01X29736003Y-3164695D01*
G01X29724573Y-3170283D01*
G01X29713143Y-3181713D01*
G01X29707301Y-3198985D01*
G01X29707301Y-3210415D01*
G01X29713143Y-3227433D01*
G01X29724573Y-3238863D01*
G01X29736003Y-3244705D01*
G01X29753021Y-3244705D01*
G01X29764451Y-3238863D01*
G01X29775881Y-3227433D01*
G01X29823633Y-3164695D02*
G01X29823633Y-3244705D01*
G01X29823633Y-3198985D02*
G01X29829475Y-3181713D01*
G01X29840905Y-3170283D01*
G01X29852335Y-3164695D01*
G01X29869353Y-3164695D01*
G01X15351874Y-3727994D02*
G01X15363304Y-3722406D01*
G01X15380576Y-3705134D01*
G01X15380576Y-3825276D01*
G01X15496908Y-3722406D02*
G01X15491320Y-3710976D01*
G01X15474048Y-3705134D01*
G01X15462618Y-3705134D01*
G01X15445600Y-3710976D01*
G01X15434170Y-3727994D01*
G01X15428328Y-3756696D01*
G01X15428328Y-3785144D01*
G01X15434170Y-3808004D01*
G01X15445600Y-3819434D01*
G01X15462618Y-3825276D01*
G01X15468460Y-3825276D01*
G01X15485478Y-3819434D01*
G01X15496908Y-3808004D01*
G01X15502750Y-3790986D01*
G01X15502750Y-3785144D01*
G01X15496908Y-3768126D01*
G01X15485478Y-3756696D01*
G01X15468460Y-3750854D01*
G01X15462618Y-3750854D01*
G01X15445600Y-3756696D01*
G01X15434170Y-3768126D01*
G01X15428328Y-3785144D01*
G01X16771879Y-3733836D02*
G01X16771879Y-3727994D01*
G01X16777467Y-3716564D01*
G01X16783309Y-3710976D01*
G01X16794739Y-3705134D01*
G01X16817599Y-3705134D01*
G01X16829029Y-3710976D01*
G01X16834617Y-3716564D01*
G01X16840459Y-3727994D01*
G01X16840459Y-3739424D01*
G01X16834617Y-3750854D01*
G01X16823187Y-3768126D01*
G01X16766037Y-3825276D01*
G01X16846047Y-3825276D01*
G01X16905229Y-3705134D02*
G01X16968221Y-3705134D01*
G01X16933931Y-3750854D01*
G01X16950949Y-3750854D01*
G01X16962379Y-3756696D01*
G01X16968221Y-3762284D01*
G01X16973809Y-3779556D01*
G01X16973809Y-3790986D01*
G01X16968221Y-3808004D01*
G01X16956791Y-3819434D01*
G01X16939519Y-3825276D01*
G01X16922501Y-3825276D01*
G01X16905229Y-3819434D01*
G01X16899641Y-3813846D01*
G01X16893799Y-3802416D01*
G01X17027403Y-3796574D02*
G01X17021561Y-3802416D01*
G01X17027403Y-3808004D01*
G01X17032991Y-3802416D01*
G01X17027403Y-3796574D01*
G01X17149323Y-3722406D02*
G01X17143735Y-3710976D01*
G01X17126463Y-3705134D01*
G01X17115033Y-3705134D01*
G01X17098015Y-3710976D01*
G01X17086585Y-3727994D01*
G01X17080743Y-3756696D01*
G01X17080743Y-3785144D01*
G01X17086585Y-3808004D01*
G01X17098015Y-3819434D01*
G01X17115033Y-3825276D01*
G01X17120875Y-3825276D01*
G01X17137893Y-3819434D01*
G01X17149323Y-3808004D01*
G01X17155165Y-3790986D01*
G01X17155165Y-3785144D01*
G01X17149323Y-3768126D01*
G01X17137893Y-3756696D01*
G01X17120875Y-3750854D01*
G01X17115033Y-3750854D01*
G01X17098015Y-3756696D01*
G01X17086585Y-3768126D01*
G01X17080743Y-3785144D01*
G01X17202917Y-3745266D02*
G01X17202917Y-3825276D01*
G01X17202917Y-3768126D02*
G01X17220189Y-3750854D01*
G01X17231619Y-3745266D01*
G01X17248637Y-3745266D01*
G01X17260067Y-3750854D01*
G01X17265909Y-3768126D01*
G01X17265909Y-3825276D01*
G01X17265909Y-3768126D02*
G01X17282927Y-3750854D01*
G01X17294357Y-3745266D01*
G01X17311629Y-3745266D01*
G01X17323059Y-3750854D01*
G01X17328647Y-3768126D01*
G01X17328647Y-3825276D01*
G01X17376399Y-3705134D02*
G01X17382241Y-3710976D01*
G01X17387829Y-3705134D01*
G01X17382241Y-3699546D01*
G01X17376399Y-3705134D01*
G01X17382241Y-3745266D02*
G01X17382241Y-3825276D01*
G01X17435581Y-3705134D02*
G01X17435581Y-3825276D01*
G01X17523465Y-3682274D02*
G01X17512035Y-3693704D01*
G01X17500605Y-3710976D01*
G01X17489175Y-3733836D01*
G01X17483333Y-3762284D01*
G01X17483333Y-3785144D01*
G01X17489175Y-3813846D01*
G01X17500605Y-3836706D01*
G01X17512035Y-3853724D01*
G01X17523465Y-3865154D01*
G01X17605507Y-3705134D02*
G01X17588489Y-3710976D01*
G01X17577059Y-3727994D01*
G01X17571217Y-3756696D01*
G01X17571217Y-3773714D01*
G01X17577059Y-3802416D01*
G01X17588489Y-3819434D01*
G01X17605507Y-3825276D01*
G01X17616937Y-3825276D01*
G01X17634209Y-3819434D01*
G01X17645639Y-3802416D01*
G01X17651227Y-3773714D01*
G01X17651227Y-3756696D01*
G01X17645639Y-3727994D01*
G01X17634209Y-3710976D01*
G01X17616937Y-3705134D01*
G01X17605507Y-3705134D01*
G01X17704821Y-3796574D02*
G01X17698979Y-3802416D01*
G01X17704821Y-3808004D01*
G01X17710409Y-3802416D01*
G01X17704821Y-3796574D01*
G01X17826741Y-3722406D02*
G01X17821153Y-3710976D01*
G01X17803881Y-3705134D01*
G01X17792451Y-3705134D01*
G01X17775433Y-3710976D01*
G01X17764003Y-3727994D01*
G01X17758161Y-3756696D01*
G01X17758161Y-3785144D01*
G01X17764003Y-3808004D01*
G01X17775433Y-3819434D01*
G01X17792451Y-3825276D01*
G01X17798293Y-3825276D01*
G01X17815311Y-3819434D01*
G01X17826741Y-3808004D01*
G01X17832583Y-3790986D01*
G01X17832583Y-3785144D01*
G01X17826741Y-3768126D01*
G01X17815311Y-3756696D01*
G01X17798293Y-3750854D01*
G01X17792451Y-3750854D01*
G01X17775433Y-3756696D01*
G01X17764003Y-3768126D01*
G01X17758161Y-3785144D01*
G01X17914625Y-3705134D02*
G01X17897607Y-3710976D01*
G01X17886177Y-3727994D01*
G01X17880335Y-3756696D01*
G01X17880335Y-3773714D01*
G01X17886177Y-3802416D01*
G01X17897607Y-3819434D01*
G01X17914625Y-3825276D01*
G01X17926055Y-3825276D01*
G01X17943327Y-3819434D01*
G01X17954757Y-3802416D01*
G01X17960345Y-3773714D01*
G01X17960345Y-3756696D01*
G01X17954757Y-3727994D01*
G01X17943327Y-3710976D01*
G01X17926055Y-3705134D01*
G01X17914625Y-3705134D01*
G01X18042387Y-3705134D02*
G01X18025369Y-3710976D01*
G01X18013939Y-3727994D01*
G01X18008097Y-3756696D01*
G01X18008097Y-3773714D01*
G01X18013939Y-3802416D01*
G01X18025369Y-3819434D01*
G01X18042387Y-3825276D01*
G01X18053817Y-3825276D01*
G01X18071089Y-3819434D01*
G01X18082519Y-3802416D01*
G01X18088107Y-3773714D01*
G01X18088107Y-3756696D01*
G01X18082519Y-3727994D01*
G01X18071089Y-3710976D01*
G01X18053817Y-3705134D01*
G01X18042387Y-3705134D01*
G01X18135859Y-3745266D02*
G01X18135859Y-3825276D01*
G01X18135859Y-3768126D02*
G01X18153131Y-3750854D01*
G01X18164561Y-3745266D01*
G01X18181579Y-3745266D01*
G01X18193009Y-3750854D01*
G01X18198851Y-3768126D01*
G01X18198851Y-3825276D01*
G01X18198851Y-3768126D02*
G01X18215869Y-3750854D01*
G01X18227299Y-3745266D01*
G01X18244571Y-3745266D01*
G01X18256001Y-3750854D01*
G01X18261589Y-3768126D01*
G01X18261589Y-3825276D01*
G01X18309341Y-3745266D02*
G01X18309341Y-3825276D01*
G01X18309341Y-3768126D02*
G01X18326613Y-3750854D01*
G01X18338043Y-3745266D01*
G01X18355061Y-3745266D01*
G01X18366491Y-3750854D01*
G01X18372333Y-3768126D01*
G01X18372333Y-3825276D01*
G01X18372333Y-3768126D02*
G01X18389351Y-3750854D01*
G01X18400781Y-3745266D01*
G01X18418053Y-3745266D01*
G01X18429483Y-3750854D01*
G01X18435071Y-3768126D01*
G01X18435071Y-3825276D01*
G01X18482823Y-3682274D02*
G01X18494253Y-3693704D01*
G01X18505683Y-3710976D01*
G01X18517113Y-3733836D01*
G01X18522955Y-3762284D01*
G01X18522955Y-3785144D01*
G01X18517113Y-3813846D01*
G01X18505683Y-3836706D01*
G01X18494253Y-3853724D01*
G01X18482823Y-3865154D01*
G01X20801227Y-3705134D02*
G01X20801227Y-3825276D01*
G01X20801227Y-3705134D02*
G01X20852789Y-3705134D01*
G01X20869807Y-3710976D01*
G01X20875649Y-3716564D01*
G01X20881237Y-3727994D01*
G01X20881237Y-3745266D01*
G01X20875649Y-3756696D01*
G01X20869807Y-3762284D01*
G01X20852789Y-3768126D01*
G01X20801227Y-3768126D01*
G01X20969121Y-3705134D02*
G01X20969121Y-3825276D01*
G01X20928989Y-3705134D02*
G01X21008999Y-3705134D01*
G01X21056751Y-3705134D02*
G01X21056751Y-3825276D01*
G01X21136761Y-3705134D02*
G01X21136761Y-3825276D01*
G01X21056751Y-3762284D02*
G01X21136761Y-3762284D01*
G01X22262634Y-3705134D02*
G01X22262634Y-3825276D01*
G01X22262634Y-3705134D02*
G01X22314196Y-3705134D01*
G01X22331214Y-3710976D01*
G01X22337056Y-3716564D01*
G01X22342644Y-3727994D01*
G01X22342644Y-3739424D01*
G01X22337056Y-3750854D01*
G01X22331214Y-3756696D01*
G01X22314196Y-3762284D01*
G01X22262634Y-3762284D01*
G01X22302766Y-3762284D02*
G01X22342644Y-3825276D01*
G01X22419098Y-3745266D02*
G01X22407668Y-3750854D01*
G01X22396238Y-3762284D01*
G01X22390396Y-3779556D01*
G01X22390396Y-3790986D01*
G01X22396238Y-3808004D01*
G01X22407668Y-3819434D01*
G01X22419098Y-3825276D01*
G01X22436116Y-3825276D01*
G01X22447546Y-3819434D01*
G01X22458976Y-3808004D01*
G01X22464818Y-3790986D01*
G01X22464818Y-3779556D01*
G01X22458976Y-3762284D01*
G01X22447546Y-3750854D01*
G01X22436116Y-3745266D01*
G01X22419098Y-3745266D01*
G01X22512570Y-3745266D02*
G01X22512570Y-3802416D01*
G01X22518412Y-3819434D01*
G01X22529842Y-3825276D01*
G01X22546860Y-3825276D01*
G01X22558290Y-3819434D01*
G01X22575562Y-3802416D01*
G01X22575562Y-3745266D02*
G01X22575562Y-3825276D01*
G01X22623314Y-3745266D02*
G01X22623314Y-3825276D01*
G01X22623314Y-3768126D02*
G01X22640586Y-3750854D01*
G01X22652016Y-3745266D01*
G01X22669034Y-3745266D01*
G01X22680464Y-3750854D01*
G01X22686306Y-3768126D01*
G01X22686306Y-3825276D01*
G01X22802638Y-3705134D02*
G01X22802638Y-3825276D01*
G01X22802638Y-3762284D02*
G01X22791208Y-3750854D01*
G01X22779778Y-3745266D01*
G01X22762760Y-3745266D01*
G01X22751330Y-3750854D01*
G01X22739900Y-3762284D01*
G01X22734058Y-3779556D01*
G01X22734058Y-3790986D01*
G01X22739900Y-3808004D01*
G01X22751330Y-3819434D01*
G01X22762760Y-3825276D01*
G01X22779778Y-3825276D01*
G01X22791208Y-3819434D01*
G01X22802638Y-3808004D01*
G01X23693815Y-3705134D02*
G01X23739535Y-3825276D01*
G01X23785255Y-3705134D02*
G01X23739535Y-3825276D01*
G01X23833007Y-3705134D02*
G01X23838849Y-3710976D01*
G01X23844437Y-3705134D01*
G01X23838849Y-3699546D01*
G01X23833007Y-3705134D01*
G01X23838849Y-3745266D02*
G01X23838849Y-3825276D01*
G01X23960769Y-3745266D02*
G01X23960769Y-3825276D01*
G01X23960769Y-3762284D02*
G01X23949339Y-3750854D01*
G01X23937909Y-3745266D01*
G01X23920891Y-3745266D01*
G01X23909461Y-3750854D01*
G01X23898031Y-3762284D01*
G01X23892189Y-3779556D01*
G01X23892189Y-3790986D01*
G01X23898031Y-3808004D01*
G01X23909461Y-3819434D01*
G01X23920891Y-3825276D01*
G01X23937909Y-3825276D01*
G01X23949339Y-3819434D01*
G01X23960769Y-3808004D01*
G01X27322495Y-3705134D02*
G01X27322495Y-3825276D01*
G01X27282363Y-3705134D02*
G01X27362373Y-3705134D01*
G01X27438827Y-3745266D02*
G01X27427397Y-3750854D01*
G01X27415967Y-3762284D01*
G01X27410125Y-3779556D01*
G01X27410125Y-3790986D01*
G01X27415967Y-3808004D01*
G01X27427397Y-3819434D01*
G01X27438827Y-3825276D01*
G01X27455845Y-3825276D01*
G01X27467275Y-3819434D01*
G01X27478705Y-3808004D01*
G01X27484547Y-3790986D01*
G01X27484547Y-3779556D01*
G01X27478705Y-3762284D01*
G01X27467275Y-3750854D01*
G01X27455845Y-3745266D01*
G01X27438827Y-3745266D01*
G01X27532299Y-3745266D02*
G01X27532299Y-3865154D01*
G01X27532299Y-3762284D02*
G01X27543729Y-3750854D01*
G01X27555159Y-3745266D01*
G01X27572431Y-3745266D01*
G01X27583861Y-3750854D01*
G01X27595291Y-3762284D01*
G01X27600879Y-3779556D01*
G01X27600879Y-3790986D01*
G01X27595291Y-3808004D01*
G01X27583861Y-3819434D01*
G01X27572431Y-3825276D01*
G01X27555159Y-3825276D01*
G01X27543729Y-3819434D01*
G01X27532299Y-3808004D01*
G01X27776647Y-3705134D02*
G01X27776647Y-3825276D01*
G01X27776647Y-3825276D02*
G01X27845227Y-3825276D01*
G01X27961559Y-3745266D02*
G01X27961559Y-3825276D01*
G01X27961559Y-3762284D02*
G01X27950129Y-3750854D01*
G01X27938699Y-3745266D01*
G01X27921681Y-3745266D01*
G01X27910251Y-3750854D01*
G01X27898821Y-3762284D01*
G01X27892979Y-3779556D01*
G01X27892979Y-3790986D01*
G01X27898821Y-3808004D01*
G01X27910251Y-3819434D01*
G01X27921681Y-3825276D01*
G01X27938699Y-3825276D01*
G01X27950129Y-3819434D01*
G01X27961559Y-3808004D01*
G01X28015153Y-3745266D02*
G01X28049443Y-3825276D01*
G01X28083733Y-3745266D02*
G01X28049443Y-3825276D01*
G01X28038013Y-3848136D01*
G01X28026583Y-3859566D01*
G01X28015153Y-3865154D01*
G01X28009311Y-3865154D01*
G01X28131485Y-3779556D02*
G01X28200065Y-3779556D01*
G01X28200065Y-3768126D01*
G01X28194477Y-3756696D01*
G01X28188635Y-3750854D01*
G01X28177205Y-3745266D01*
G01X28160187Y-3745266D01*
G01X28148757Y-3750854D01*
G01X28137327Y-3762284D01*
G01X28131485Y-3779556D01*
G01X28131485Y-3790986D01*
G01X28137327Y-3808004D01*
G01X28148757Y-3819434D01*
G01X28160187Y-3825276D01*
G01X28177205Y-3825276D01*
G01X28188635Y-3819434D01*
G01X28200065Y-3808004D01*
G01X28247817Y-3745266D02*
G01X28247817Y-3825276D01*
G01X28247817Y-3779556D02*
G01X28253659Y-3762284D01*
G01X28265089Y-3750854D01*
G01X28276519Y-3745266D01*
G01X28293537Y-3745266D01*
G01X28341289Y-3773714D02*
G01X28444159Y-3773714D01*
G01X28491911Y-3705134D02*
G01X28491911Y-3825276D01*
G01X28491911Y-3705134D02*
G01X28543473Y-3705134D01*
G01X28560491Y-3710976D01*
G01X28566333Y-3716564D01*
G01X28571921Y-3727994D01*
G01X28571921Y-3739424D01*
G01X28566333Y-3750854D01*
G01X28560491Y-3756696D01*
G01X28543473Y-3762284D01*
G01X28491911Y-3762284D02*
G01X28543473Y-3762284D01*
G01X28560491Y-3768126D01*
G01X28566333Y-3773714D01*
G01X28571921Y-3785144D01*
G01X28571921Y-3802416D01*
G01X28566333Y-3813846D01*
G01X28560491Y-3819434D01*
G01X28543473Y-3825276D01*
G01X28491911Y-3825276D01*
G01X28648375Y-3745266D02*
G01X28636945Y-3750854D01*
G01X28625515Y-3762284D01*
G01X28619673Y-3779556D01*
G01X28619673Y-3790986D01*
G01X28625515Y-3808004D01*
G01X28636945Y-3819434D01*
G01X28648375Y-3825276D01*
G01X28665393Y-3825276D01*
G01X28676823Y-3819434D01*
G01X28688253Y-3808004D01*
G01X28694095Y-3790986D01*
G01X28694095Y-3779556D01*
G01X28688253Y-3762284D01*
G01X28676823Y-3750854D01*
G01X28665393Y-3745266D01*
G01X28648375Y-3745266D01*
G01X28759119Y-3705134D02*
G01X28759119Y-3802416D01*
G01X28764707Y-3819434D01*
G01X28776137Y-3825276D01*
G01X28787567Y-3825276D01*
G01X28741847Y-3745266D02*
G01X28781979Y-3745266D01*
G01X28852591Y-3705134D02*
G01X28852591Y-3802416D01*
G01X28858179Y-3819434D01*
G01X28869609Y-3825276D01*
G01X28881039Y-3825276D01*
G01X28835319Y-3745266D02*
G01X28875451Y-3745266D01*
G01X28957493Y-3745266D02*
G01X28946063Y-3750854D01*
G01X28934633Y-3762284D01*
G01X28928791Y-3779556D01*
G01X28928791Y-3790986D01*
G01X28934633Y-3808004D01*
G01X28946063Y-3819434D01*
G01X28957493Y-3825276D01*
G01X28974511Y-3825276D01*
G01X28985941Y-3819434D01*
G01X28997371Y-3808004D01*
G01X29003213Y-3790986D01*
G01X29003213Y-3779556D01*
G01X28997371Y-3762284D01*
G01X28985941Y-3750854D01*
G01X28974511Y-3745266D01*
G01X28957493Y-3745266D01*
G01X29050965Y-3745266D02*
G01X29050965Y-3825276D01*
G01X29050965Y-3768126D02*
G01X29068237Y-3750854D01*
G01X29079667Y-3745266D01*
G01X29096685Y-3745266D01*
G01X29108115Y-3750854D01*
G01X29113957Y-3768126D01*
G01X29113957Y-3825276D01*
G01X29113957Y-3768126D02*
G01X29130975Y-3750854D01*
G01X29142405Y-3745266D01*
G01X29159677Y-3745266D01*
G01X29171107Y-3750854D01*
G01X29176695Y-3768126D01*
G01X29176695Y-3825276D01*
G01X29352463Y-3705134D02*
G01X29352463Y-3825276D01*
G01X29352463Y-3825276D02*
G01X29421043Y-3825276D01*
G01X29537375Y-3745266D02*
G01X29537375Y-3825276D01*
G01X29537375Y-3762284D02*
G01X29525945Y-3750854D01*
G01X29514515Y-3745266D01*
G01X29497497Y-3745266D01*
G01X29486067Y-3750854D01*
G01X29474637Y-3762284D01*
G01X29468795Y-3779556D01*
G01X29468795Y-3790986D01*
G01X29474637Y-3808004D01*
G01X29486067Y-3819434D01*
G01X29497497Y-3825276D01*
G01X29514515Y-3825276D01*
G01X29525945Y-3819434D01*
G01X29537375Y-3808004D01*
G01X29590969Y-3745266D02*
G01X29625259Y-3825276D01*
G01X29659549Y-3745266D02*
G01X29625259Y-3825276D01*
G01X29613829Y-3848136D01*
G01X29602399Y-3859566D01*
G01X29590969Y-3865154D01*
G01X29585127Y-3865154D01*
G01X29707301Y-3779556D02*
G01X29775881Y-3779556D01*
G01X29775881Y-3768126D01*
G01X29770293Y-3756696D01*
G01X29764451Y-3750854D01*
G01X29753021Y-3745266D01*
G01X29736003Y-3745266D01*
G01X29724573Y-3750854D01*
G01X29713143Y-3762284D01*
G01X29707301Y-3779556D01*
G01X29707301Y-3790986D01*
G01X29713143Y-3808004D01*
G01X29724573Y-3819434D01*
G01X29736003Y-3825276D01*
G01X29753021Y-3825276D01*
G01X29764451Y-3819434D01*
G01X29775881Y-3808004D01*
G01X29823633Y-3745266D02*
G01X29823633Y-3825276D01*
G01X29823633Y-3779556D02*
G01X29829475Y-3762284D01*
G01X29840905Y-3750854D01*
G01X29852335Y-3745266D01*
G01X29869353Y-3745266D01*
G01X15351874Y-4308566D02*
G01X15363304Y-4302978D01*
G01X15380576Y-4285706D01*
G01X15380576Y-4405848D01*
G01X15496908Y-4302978D02*
G01X15491320Y-4291548D01*
G01X15474048Y-4285706D01*
G01X15462618Y-4285706D01*
G01X15445600Y-4291548D01*
G01X15434170Y-4308566D01*
G01X15428328Y-4337268D01*
G01X15428328Y-4365716D01*
G01X15434170Y-4388576D01*
G01X15445600Y-4400006D01*
G01X15462618Y-4405848D01*
G01X15468460Y-4405848D01*
G01X15485478Y-4400006D01*
G01X15496908Y-4388576D01*
G01X15502750Y-4371558D01*
G01X15502750Y-4365716D01*
G01X15496908Y-4348698D01*
G01X15485478Y-4337268D01*
G01X15468460Y-4331426D01*
G01X15462618Y-4331426D01*
G01X15445600Y-4337268D01*
G01X15434170Y-4348698D01*
G01X15428328Y-4365716D01*
G01X16777467Y-4285706D02*
G01X16840459Y-4285706D01*
G01X16806169Y-4331426D01*
G01X16823187Y-4331426D01*
G01X16834617Y-4337268D01*
G01X16840459Y-4342856D01*
G01X16846047Y-4360128D01*
G01X16846047Y-4371558D01*
G01X16840459Y-4388576D01*
G01X16829029Y-4400006D01*
G01X16811757Y-4405848D01*
G01X16794739Y-4405848D01*
G01X16777467Y-4400006D01*
G01X16771879Y-4394418D01*
G01X16766037Y-4382988D01*
G01X16893799Y-4308566D02*
G01X16905229Y-4302978D01*
G01X16922501Y-4285706D01*
G01X16922501Y-4405848D01*
G01X16976095Y-4377146D02*
G01X16970253Y-4382988D01*
G01X16976095Y-4388576D01*
G01X16981683Y-4382988D01*
G01X16976095Y-4377146D01*
G01X17098015Y-4285706D02*
G01X17040865Y-4285706D01*
G01X17035277Y-4337268D01*
G01X17040865Y-4331426D01*
G01X17058137Y-4325838D01*
G01X17075155Y-4325838D01*
G01X17092427Y-4331426D01*
G01X17103857Y-4342856D01*
G01X17109445Y-4360128D01*
G01X17109445Y-4371558D01*
G01X17103857Y-4388576D01*
G01X17092427Y-4400006D01*
G01X17075155Y-4405848D01*
G01X17058137Y-4405848D01*
G01X17040865Y-4400006D01*
G01X17035277Y-4394418D01*
G01X17029435Y-4382988D01*
G01X17157197Y-4325838D02*
G01X17220189Y-4405848D01*
G01X17220189Y-4325838D02*
G01X17157197Y-4405848D01*
G01X17279371Y-4285706D02*
G01X17342363Y-4285706D01*
G01X17308073Y-4331426D01*
G01X17325091Y-4331426D01*
G01X17336521Y-4337268D01*
G01X17342363Y-4342856D01*
G01X17347951Y-4360128D01*
G01X17347951Y-4371558D01*
G01X17342363Y-4388576D01*
G01X17330933Y-4400006D01*
G01X17313661Y-4405848D01*
G01X17296643Y-4405848D01*
G01X17279371Y-4400006D01*
G01X17273783Y-4394418D01*
G01X17267941Y-4382988D01*
G01X17395703Y-4308566D02*
G01X17407133Y-4302978D01*
G01X17424405Y-4285706D01*
G01X17424405Y-4405848D01*
G01X17477999Y-4377146D02*
G01X17472157Y-4382988D01*
G01X17477999Y-4388576D01*
G01X17483587Y-4382988D01*
G01X17477999Y-4377146D01*
G01X17599919Y-4285706D02*
G01X17542769Y-4285706D01*
G01X17537181Y-4337268D01*
G01X17542769Y-4331426D01*
G01X17560041Y-4325838D01*
G01X17577059Y-4325838D01*
G01X17594331Y-4331426D01*
G01X17605761Y-4342856D01*
G01X17611349Y-4360128D01*
G01X17611349Y-4371558D01*
G01X17605761Y-4388576D01*
G01X17594331Y-4400006D01*
G01X17577059Y-4405848D01*
G01X17560041Y-4405848D01*
G01X17542769Y-4400006D01*
G01X17537181Y-4394418D01*
G01X17531339Y-4382988D01*
G01X17659101Y-4325838D02*
G01X17659101Y-4405848D01*
G01X17659101Y-4348698D02*
G01X17676373Y-4331426D01*
G01X17687803Y-4325838D01*
G01X17704821Y-4325838D01*
G01X17716251Y-4331426D01*
G01X17722093Y-4348698D01*
G01X17722093Y-4405848D01*
G01X17722093Y-4348698D02*
G01X17739111Y-4331426D01*
G01X17750541Y-4325838D01*
G01X17767813Y-4325838D01*
G01X17779243Y-4331426D01*
G01X17784831Y-4348698D01*
G01X17784831Y-4405848D01*
G01X17832583Y-4285706D02*
G01X17838425Y-4291548D01*
G01X17844013Y-4285706D01*
G01X17838425Y-4280118D01*
G01X17832583Y-4285706D01*
G01X17838425Y-4325838D02*
G01X17838425Y-4405848D01*
G01X17891765Y-4285706D02*
G01X17891765Y-4405848D01*
G01X17979649Y-4262846D02*
G01X17968219Y-4274276D01*
G01X17956789Y-4291548D01*
G01X17945359Y-4314408D01*
G01X17939517Y-4342856D01*
G01X17939517Y-4365716D01*
G01X17945359Y-4394418D01*
G01X17956789Y-4417278D01*
G01X17968219Y-4434296D01*
G01X17979649Y-4445726D01*
G01X18061691Y-4285706D02*
G01X18044673Y-4291548D01*
G01X18033243Y-4308566D01*
G01X18027401Y-4337268D01*
G01X18027401Y-4354286D01*
G01X18033243Y-4382988D01*
G01X18044673Y-4400006D01*
G01X18061691Y-4405848D01*
G01X18073121Y-4405848D01*
G01X18090393Y-4400006D01*
G01X18101823Y-4382988D01*
G01X18107411Y-4354286D01*
G01X18107411Y-4337268D01*
G01X18101823Y-4308566D01*
G01X18090393Y-4291548D01*
G01X18073121Y-4285706D01*
G01X18061691Y-4285706D01*
G01X18161005Y-4377146D02*
G01X18155163Y-4382988D01*
G01X18161005Y-4388576D01*
G01X18166593Y-4382988D01*
G01X18161005Y-4377146D01*
G01X18243047Y-4285706D02*
G01X18225775Y-4291548D01*
G01X18220187Y-4302978D01*
G01X18220187Y-4314408D01*
G01X18225775Y-4325838D01*
G01X18237205Y-4331426D01*
G01X18260065Y-4337268D01*
G01X18277337Y-4342856D01*
G01X18288767Y-4354286D01*
G01X18294355Y-4365716D01*
G01X18294355Y-4382988D01*
G01X18288767Y-4394418D01*
G01X18282925Y-4400006D01*
G01X18265907Y-4405848D01*
G01X18243047Y-4405848D01*
G01X18225775Y-4400006D01*
G01X18220187Y-4394418D01*
G01X18214345Y-4382988D01*
G01X18214345Y-4365716D01*
G01X18220187Y-4354286D01*
G01X18231617Y-4342856D01*
G01X18248635Y-4337268D01*
G01X18271495Y-4331426D01*
G01X18282925Y-4325838D01*
G01X18288767Y-4314408D01*
G01X18288767Y-4302978D01*
G01X18282925Y-4291548D01*
G01X18265907Y-4285706D01*
G01X18243047Y-4285706D01*
G01X18376397Y-4285706D02*
G01X18359379Y-4291548D01*
G01X18347949Y-4308566D01*
G01X18342107Y-4337268D01*
G01X18342107Y-4354286D01*
G01X18347949Y-4382988D01*
G01X18359379Y-4400006D01*
G01X18376397Y-4405848D01*
G01X18387827Y-4405848D01*
G01X18405099Y-4400006D01*
G01X18416529Y-4382988D01*
G01X18422117Y-4354286D01*
G01X18422117Y-4337268D01*
G01X18416529Y-4308566D01*
G01X18405099Y-4291548D01*
G01X18387827Y-4285706D01*
G01X18376397Y-4285706D01*
G01X18504159Y-4285706D02*
G01X18487141Y-4291548D01*
G01X18475711Y-4308566D01*
G01X18469869Y-4337268D01*
G01X18469869Y-4354286D01*
G01X18475711Y-4382988D01*
G01X18487141Y-4400006D01*
G01X18504159Y-4405848D01*
G01X18515589Y-4405848D01*
G01X18532861Y-4400006D01*
G01X18544291Y-4382988D01*
G01X18549879Y-4354286D01*
G01X18549879Y-4337268D01*
G01X18544291Y-4308566D01*
G01X18532861Y-4291548D01*
G01X18515589Y-4285706D01*
G01X18504159Y-4285706D01*
G01X18597631Y-4325838D02*
G01X18660623Y-4405848D01*
G01X18660623Y-4325838D02*
G01X18597631Y-4405848D01*
G01X18742665Y-4285706D02*
G01X18725647Y-4291548D01*
G01X18714217Y-4308566D01*
G01X18708375Y-4337268D01*
G01X18708375Y-4354286D01*
G01X18714217Y-4382988D01*
G01X18725647Y-4400006D01*
G01X18742665Y-4405848D01*
G01X18754095Y-4405848D01*
G01X18771367Y-4400006D01*
G01X18782797Y-4382988D01*
G01X18788385Y-4354286D01*
G01X18788385Y-4337268D01*
G01X18782797Y-4308566D01*
G01X18771367Y-4291548D01*
G01X18754095Y-4285706D01*
G01X18742665Y-4285706D01*
G01X18841979Y-4377146D02*
G01X18836137Y-4382988D01*
G01X18841979Y-4388576D01*
G01X18847567Y-4382988D01*
G01X18841979Y-4377146D01*
G01X18924021Y-4285706D02*
G01X18906749Y-4291548D01*
G01X18901161Y-4302978D01*
G01X18901161Y-4314408D01*
G01X18906749Y-4325838D01*
G01X18918179Y-4331426D01*
G01X18941039Y-4337268D01*
G01X18958311Y-4342856D01*
G01X18969741Y-4354286D01*
G01X18975329Y-4365716D01*
G01X18975329Y-4382988D01*
G01X18969741Y-4394418D01*
G01X18963899Y-4400006D01*
G01X18946881Y-4405848D01*
G01X18924021Y-4405848D01*
G01X18906749Y-4400006D01*
G01X18901161Y-4394418D01*
G01X18895319Y-4382988D01*
G01X18895319Y-4365716D01*
G01X18901161Y-4354286D01*
G01X18912591Y-4342856D01*
G01X18929609Y-4337268D01*
G01X18952469Y-4331426D01*
G01X18963899Y-4325838D01*
G01X18969741Y-4314408D01*
G01X18969741Y-4302978D01*
G01X18963899Y-4291548D01*
G01X18946881Y-4285706D01*
G01X18924021Y-4285706D01*
G01X19057371Y-4285706D02*
G01X19040353Y-4291548D01*
G01X19028923Y-4308566D01*
G01X19023081Y-4337268D01*
G01X19023081Y-4354286D01*
G01X19028923Y-4382988D01*
G01X19040353Y-4400006D01*
G01X19057371Y-4405848D01*
G01X19068801Y-4405848D01*
G01X19086073Y-4400006D01*
G01X19097503Y-4382988D01*
G01X19103091Y-4354286D01*
G01X19103091Y-4337268D01*
G01X19097503Y-4308566D01*
G01X19086073Y-4291548D01*
G01X19068801Y-4285706D01*
G01X19057371Y-4285706D01*
G01X19185133Y-4285706D02*
G01X19168115Y-4291548D01*
G01X19156685Y-4308566D01*
G01X19150843Y-4337268D01*
G01X19150843Y-4354286D01*
G01X19156685Y-4382988D01*
G01X19168115Y-4400006D01*
G01X19185133Y-4405848D01*
G01X19196563Y-4405848D01*
G01X19213835Y-4400006D01*
G01X19225265Y-4382988D01*
G01X19230853Y-4354286D01*
G01X19230853Y-4337268D01*
G01X19225265Y-4308566D01*
G01X19213835Y-4291548D01*
G01X19196563Y-4285706D01*
G01X19185133Y-4285706D01*
G01X19278605Y-4325838D02*
G01X19278605Y-4405848D01*
G01X19278605Y-4348698D02*
G01X19295877Y-4331426D01*
G01X19307307Y-4325838D01*
G01X19324325Y-4325838D01*
G01X19335755Y-4331426D01*
G01X19341597Y-4348698D01*
G01X19341597Y-4405848D01*
G01X19341597Y-4348698D02*
G01X19358615Y-4331426D01*
G01X19370045Y-4325838D01*
G01X19387317Y-4325838D01*
G01X19398747Y-4331426D01*
G01X19404335Y-4348698D01*
G01X19404335Y-4405848D01*
G01X19452087Y-4325838D02*
G01X19452087Y-4405848D01*
G01X19452087Y-4348698D02*
G01X19469359Y-4331426D01*
G01X19480789Y-4325838D01*
G01X19497807Y-4325838D01*
G01X19509237Y-4331426D01*
G01X19515079Y-4348698D01*
G01X19515079Y-4405848D01*
G01X19515079Y-4348698D02*
G01X19532097Y-4331426D01*
G01X19543527Y-4325838D01*
G01X19560799Y-4325838D01*
G01X19572229Y-4331426D01*
G01X19577817Y-4348698D01*
G01X19577817Y-4405848D01*
G01X19625569Y-4262846D02*
G01X19636999Y-4274276D01*
G01X19648429Y-4291548D01*
G01X19659859Y-4314408D01*
G01X19665701Y-4342856D01*
G01X19665701Y-4365716D01*
G01X19659859Y-4394418D01*
G01X19648429Y-4417278D01*
G01X19636999Y-4434296D01*
G01X19625569Y-4445726D01*
G01X20801227Y-4285706D02*
G01X20801227Y-4405848D01*
G01X20801227Y-4285706D02*
G01X20852789Y-4285706D01*
G01X20869807Y-4291548D01*
G01X20875649Y-4297136D01*
G01X20881237Y-4308566D01*
G01X20881237Y-4325838D01*
G01X20875649Y-4337268D01*
G01X20869807Y-4342856D01*
G01X20852789Y-4348698D01*
G01X20801227Y-4348698D01*
G01X20969121Y-4285706D02*
G01X20969121Y-4405848D01*
G01X20928989Y-4285706D02*
G01X21008999Y-4285706D01*
G01X21056751Y-4285706D02*
G01X21056751Y-4405848D01*
G01X21136761Y-4285706D02*
G01X21136761Y-4405848D01*
G01X21056751Y-4342856D02*
G01X21136761Y-4342856D01*
G01X22262634Y-4285706D02*
G01X22262634Y-4405848D01*
G01X22262634Y-4285706D02*
G01X22314196Y-4285706D01*
G01X22331214Y-4291548D01*
G01X22337056Y-4297136D01*
G01X22342644Y-4308566D01*
G01X22342644Y-4319996D01*
G01X22337056Y-4331426D01*
G01X22331214Y-4337268D01*
G01X22314196Y-4342856D01*
G01X22262634Y-4342856D01*
G01X22302766Y-4342856D02*
G01X22342644Y-4405848D01*
G01X22419098Y-4325838D02*
G01X22407668Y-4331426D01*
G01X22396238Y-4342856D01*
G01X22390396Y-4360128D01*
G01X22390396Y-4371558D01*
G01X22396238Y-4388576D01*
G01X22407668Y-4400006D01*
G01X22419098Y-4405848D01*
G01X22436116Y-4405848D01*
G01X22447546Y-4400006D01*
G01X22458976Y-4388576D01*
G01X22464818Y-4371558D01*
G01X22464818Y-4360128D01*
G01X22458976Y-4342856D01*
G01X22447546Y-4331426D01*
G01X22436116Y-4325838D01*
G01X22419098Y-4325838D01*
G01X22512570Y-4325838D02*
G01X22512570Y-4382988D01*
G01X22518412Y-4400006D01*
G01X22529842Y-4405848D01*
G01X22546860Y-4405848D01*
G01X22558290Y-4400006D01*
G01X22575562Y-4382988D01*
G01X22575562Y-4325838D02*
G01X22575562Y-4405848D01*
G01X22623314Y-4325838D02*
G01X22623314Y-4405848D01*
G01X22623314Y-4348698D02*
G01X22640586Y-4331426D01*
G01X22652016Y-4325838D01*
G01X22669034Y-4325838D01*
G01X22680464Y-4331426D01*
G01X22686306Y-4348698D01*
G01X22686306Y-4405848D01*
G01X22802638Y-4285706D02*
G01X22802638Y-4405848D01*
G01X22802638Y-4342856D02*
G01X22791208Y-4331426D01*
G01X22779778Y-4325838D01*
G01X22762760Y-4325838D01*
G01X22751330Y-4331426D01*
G01X22739900Y-4342856D01*
G01X22734058Y-4360128D01*
G01X22734058Y-4371558D01*
G01X22739900Y-4388576D01*
G01X22751330Y-4400006D01*
G01X22762760Y-4405848D01*
G01X22779778Y-4405848D01*
G01X22791208Y-4400006D01*
G01X22802638Y-4388576D01*
G01X23693815Y-4285706D02*
G01X23693815Y-4405848D01*
G01X23693815Y-4285706D02*
G01X23745377Y-4285706D01*
G01X23762395Y-4291548D01*
G01X23768237Y-4297136D01*
G01X23773825Y-4308566D01*
G01X23773825Y-4325838D01*
G01X23768237Y-4337268D01*
G01X23762395Y-4342856D01*
G01X23745377Y-4348698D01*
G01X23693815Y-4348698D01*
G01X23890157Y-4325838D02*
G01X23890157Y-4405848D01*
G01X23890157Y-4342856D02*
G01X23878727Y-4331426D01*
G01X23867297Y-4325838D01*
G01X23850279Y-4325838D01*
G01X23838849Y-4331426D01*
G01X23827419Y-4342856D01*
G01X23821577Y-4360128D01*
G01X23821577Y-4371558D01*
G01X23827419Y-4388576D01*
G01X23838849Y-4400006D01*
G01X23850279Y-4405848D01*
G01X23867297Y-4405848D01*
G01X23878727Y-4400006D01*
G01X23890157Y-4388576D01*
G01X24006489Y-4285706D02*
G01X24006489Y-4405848D01*
G01X24006489Y-4342856D02*
G01X23995059Y-4331426D01*
G01X23983629Y-4325838D01*
G01X23966611Y-4325838D01*
G01X23955181Y-4331426D01*
G01X23943751Y-4342856D01*
G01X23937909Y-4360128D01*
G01X23937909Y-4371558D01*
G01X23943751Y-4388576D01*
G01X23955181Y-4400006D01*
G01X23966611Y-4405848D01*
G01X23983629Y-4405848D01*
G01X23995059Y-4400006D01*
G01X24006489Y-4388576D01*
G01X25362994Y-4285706D02*
G01X25362994Y-4405848D01*
G01X25362994Y-4285706D02*
G01X25414556Y-4285706D01*
G01X25431574Y-4291548D01*
G01X25437416Y-4297136D01*
G01X25443004Y-4308566D01*
G01X25443004Y-4319996D01*
G01X25437416Y-4331426D01*
G01X25431574Y-4337268D01*
G01X25414556Y-4342856D01*
G01X25362994Y-4342856D01*
G01X25403126Y-4342856D02*
G01X25443004Y-4405848D01*
G01X25519458Y-4325838D02*
G01X25508028Y-4331426D01*
G01X25496598Y-4342856D01*
G01X25490756Y-4360128D01*
G01X25490756Y-4371558D01*
G01X25496598Y-4388576D01*
G01X25508028Y-4400006D01*
G01X25519458Y-4405848D01*
G01X25536476Y-4405848D01*
G01X25547906Y-4400006D01*
G01X25559336Y-4388576D01*
G01X25565178Y-4371558D01*
G01X25565178Y-4360128D01*
G01X25559336Y-4342856D01*
G01X25547906Y-4331426D01*
G01X25536476Y-4325838D01*
G01X25519458Y-4325838D01*
G01X25612930Y-4325838D02*
G01X25612930Y-4382988D01*
G01X25618772Y-4400006D01*
G01X25630202Y-4405848D01*
G01X25647220Y-4405848D01*
G01X25658650Y-4400006D01*
G01X25675922Y-4382988D01*
G01X25675922Y-4325838D02*
G01X25675922Y-4405848D01*
G01X25723674Y-4325838D02*
G01X25723674Y-4405848D01*
G01X25723674Y-4348698D02*
G01X25740946Y-4331426D01*
G01X25752376Y-4325838D01*
G01X25769394Y-4325838D01*
G01X25780824Y-4331426D01*
G01X25786666Y-4348698D01*
G01X25786666Y-4405848D01*
G01X25902998Y-4285706D02*
G01X25902998Y-4405848D01*
G01X25902998Y-4342856D02*
G01X25891568Y-4331426D01*
G01X25880138Y-4325838D01*
G01X25863120Y-4325838D01*
G01X25851690Y-4331426D01*
G01X25840260Y-4342856D01*
G01X25834418Y-4360128D01*
G01X25834418Y-4371558D01*
G01X25840260Y-4388576D01*
G01X25851690Y-4400006D01*
G01X25863120Y-4405848D01*
G01X25880138Y-4405848D01*
G01X25891568Y-4400006D01*
G01X25902998Y-4388576D01*
G01X27322495Y-4285706D02*
G01X27322495Y-4405848D01*
G01X27282363Y-4285706D02*
G01X27362373Y-4285706D01*
G01X27438827Y-4325838D02*
G01X27427397Y-4331426D01*
G01X27415967Y-4342856D01*
G01X27410125Y-4360128D01*
G01X27410125Y-4371558D01*
G01X27415967Y-4388576D01*
G01X27427397Y-4400006D01*
G01X27438827Y-4405848D01*
G01X27455845Y-4405848D01*
G01X27467275Y-4400006D01*
G01X27478705Y-4388576D01*
G01X27484547Y-4371558D01*
G01X27484547Y-4360128D01*
G01X27478705Y-4342856D01*
G01X27467275Y-4331426D01*
G01X27455845Y-4325838D01*
G01X27438827Y-4325838D01*
G01X27532299Y-4325838D02*
G01X27532299Y-4445726D01*
G01X27532299Y-4342856D02*
G01X27543729Y-4331426D01*
G01X27555159Y-4325838D01*
G01X27572431Y-4325838D01*
G01X27583861Y-4331426D01*
G01X27595291Y-4342856D01*
G01X27600879Y-4360128D01*
G01X27600879Y-4371558D01*
G01X27595291Y-4388576D01*
G01X27583861Y-4400006D01*
G01X27572431Y-4405848D01*
G01X27555159Y-4405848D01*
G01X27543729Y-4400006D01*
G01X27532299Y-4388576D01*
G01X27776647Y-4285706D02*
G01X27776647Y-4405848D01*
G01X27776647Y-4405848D02*
G01X27845227Y-4405848D01*
G01X27961559Y-4325838D02*
G01X27961559Y-4405848D01*
G01X27961559Y-4342856D02*
G01X27950129Y-4331426D01*
G01X27938699Y-4325838D01*
G01X27921681Y-4325838D01*
G01X27910251Y-4331426D01*
G01X27898821Y-4342856D01*
G01X27892979Y-4360128D01*
G01X27892979Y-4371558D01*
G01X27898821Y-4388576D01*
G01X27910251Y-4400006D01*
G01X27921681Y-4405848D01*
G01X27938699Y-4405848D01*
G01X27950129Y-4400006D01*
G01X27961559Y-4388576D01*
G01X28015153Y-4325838D02*
G01X28049443Y-4405848D01*
G01X28083733Y-4325838D02*
G01X28049443Y-4405848D01*
G01X28038013Y-4428708D01*
G01X28026583Y-4440138D01*
G01X28015153Y-4445726D01*
G01X28009311Y-4445726D01*
G01X28131485Y-4360128D02*
G01X28200065Y-4360128D01*
G01X28200065Y-4348698D01*
G01X28194477Y-4337268D01*
G01X28188635Y-4331426D01*
G01X28177205Y-4325838D01*
G01X28160187Y-4325838D01*
G01X28148757Y-4331426D01*
G01X28137327Y-4342856D01*
G01X28131485Y-4360128D01*
G01X28131485Y-4371558D01*
G01X28137327Y-4388576D01*
G01X28148757Y-4400006D01*
G01X28160187Y-4405848D01*
G01X28177205Y-4405848D01*
G01X28188635Y-4400006D01*
G01X28200065Y-4388576D01*
G01X28247817Y-4325838D02*
G01X28247817Y-4405848D01*
G01X28247817Y-4360128D02*
G01X28253659Y-4342856D01*
G01X28265089Y-4331426D01*
G01X28276519Y-4325838D01*
G01X28293537Y-4325838D01*
G01X28341289Y-4354286D02*
G01X28444159Y-4354286D01*
G01X28491911Y-4285706D02*
G01X28491911Y-4405848D01*
G01X28491911Y-4285706D02*
G01X28543473Y-4285706D01*
G01X28560491Y-4291548D01*
G01X28566333Y-4297136D01*
G01X28571921Y-4308566D01*
G01X28571921Y-4319996D01*
G01X28566333Y-4331426D01*
G01X28560491Y-4337268D01*
G01X28543473Y-4342856D01*
G01X28491911Y-4342856D02*
G01X28543473Y-4342856D01*
G01X28560491Y-4348698D01*
G01X28566333Y-4354286D01*
G01X28571921Y-4365716D01*
G01X28571921Y-4382988D01*
G01X28566333Y-4394418D01*
G01X28560491Y-4400006D01*
G01X28543473Y-4405848D01*
G01X28491911Y-4405848D01*
G01X28648375Y-4325838D02*
G01X28636945Y-4331426D01*
G01X28625515Y-4342856D01*
G01X28619673Y-4360128D01*
G01X28619673Y-4371558D01*
G01X28625515Y-4388576D01*
G01X28636945Y-4400006D01*
G01X28648375Y-4405848D01*
G01X28665393Y-4405848D01*
G01X28676823Y-4400006D01*
G01X28688253Y-4388576D01*
G01X28694095Y-4371558D01*
G01X28694095Y-4360128D01*
G01X28688253Y-4342856D01*
G01X28676823Y-4331426D01*
G01X28665393Y-4325838D01*
G01X28648375Y-4325838D01*
G01X28759119Y-4285706D02*
G01X28759119Y-4382988D01*
G01X28764707Y-4400006D01*
G01X28776137Y-4405848D01*
G01X28787567Y-4405848D01*
G01X28741847Y-4325838D02*
G01X28781979Y-4325838D01*
G01X28852591Y-4285706D02*
G01X28852591Y-4382988D01*
G01X28858179Y-4400006D01*
G01X28869609Y-4405848D01*
G01X28881039Y-4405848D01*
G01X28835319Y-4325838D02*
G01X28875451Y-4325838D01*
G01X28957493Y-4325838D02*
G01X28946063Y-4331426D01*
G01X28934633Y-4342856D01*
G01X28928791Y-4360128D01*
G01X28928791Y-4371558D01*
G01X28934633Y-4388576D01*
G01X28946063Y-4400006D01*
G01X28957493Y-4405848D01*
G01X28974511Y-4405848D01*
G01X28985941Y-4400006D01*
G01X28997371Y-4388576D01*
G01X29003213Y-4371558D01*
G01X29003213Y-4360128D01*
G01X28997371Y-4342856D01*
G01X28985941Y-4331426D01*
G01X28974511Y-4325838D01*
G01X28957493Y-4325838D01*
G01X29050965Y-4325838D02*
G01X29050965Y-4405848D01*
G01X29050965Y-4348698D02*
G01X29068237Y-4331426D01*
G01X29079667Y-4325838D01*
G01X29096685Y-4325838D01*
G01X29108115Y-4331426D01*
G01X29113957Y-4348698D01*
G01X29113957Y-4405848D01*
G01X29113957Y-4348698D02*
G01X29130975Y-4331426D01*
G01X29142405Y-4325838D01*
G01X29159677Y-4325838D01*
G01X29171107Y-4331426D01*
G01X29176695Y-4348698D01*
G01X29176695Y-4405848D01*
G01X29352463Y-4285706D02*
G01X29352463Y-4405848D01*
G01X29352463Y-4405848D02*
G01X29421043Y-4405848D01*
G01X29537375Y-4325838D02*
G01X29537375Y-4405848D01*
G01X29537375Y-4342856D02*
G01X29525945Y-4331426D01*
G01X29514515Y-4325838D01*
G01X29497497Y-4325838D01*
G01X29486067Y-4331426D01*
G01X29474637Y-4342856D01*
G01X29468795Y-4360128D01*
G01X29468795Y-4371558D01*
G01X29474637Y-4388576D01*
G01X29486067Y-4400006D01*
G01X29497497Y-4405848D01*
G01X29514515Y-4405848D01*
G01X29525945Y-4400006D01*
G01X29537375Y-4388576D01*
G01X29590969Y-4325838D02*
G01X29625259Y-4405848D01*
G01X29659549Y-4325838D02*
G01X29625259Y-4405848D01*
G01X29613829Y-4428708D01*
G01X29602399Y-4440138D01*
G01X29590969Y-4445726D01*
G01X29585127Y-4445726D01*
G01X29707301Y-4360128D02*
G01X29775881Y-4360128D01*
G01X29775881Y-4348698D01*
G01X29770293Y-4337268D01*
G01X29764451Y-4331426D01*
G01X29753021Y-4325838D01*
G01X29736003Y-4325838D01*
G01X29724573Y-4331426D01*
G01X29713143Y-4342856D01*
G01X29707301Y-4360128D01*
G01X29707301Y-4371558D01*
G01X29713143Y-4388576D01*
G01X29724573Y-4400006D01*
G01X29736003Y-4405848D01*
G01X29753021Y-4405848D01*
G01X29764451Y-4400006D01*
G01X29775881Y-4388576D01*
G01X29823633Y-4325838D02*
G01X29823633Y-4405848D01*
G01X29823633Y-4360128D02*
G01X29829475Y-4342856D01*
G01X29840905Y-4331426D01*
G01X29852335Y-4325838D01*
G01X29869353Y-4325838D01*

G04 Image Start*
G36*
G01X14187262Y-2724604D02*
G01X14081649Y-2713123D01*
G01X14038774Y-2810329D01*
G01X13995899Y-2713123D01*
G01X13890286Y-2724604D01*
G01X13953049Y-2638879D01*
G01X13913327Y-2584624D01*
G01X13944819Y-2584624D01*
G01X13984520Y-2638879D01*
G01X13944819Y-2693133D01*
G01X14011647Y-2685869D01*
G01X14011647Y-2685869D01*
G01X14038774Y-2747362D01*
G01X14065901Y-2685869D01*
G01X14132729Y-2693133D01*
G01X14093028Y-2638879D01*
G01X14132703Y-2584650D01*
G01X14065876Y-2591914D01*
G01X14038774Y-2530395D01*
G01X14011647Y-2591889D01*
G01X13944819Y-2584624D01*
G01X13913327Y-2584624D01*
G01X13890286Y-2553154D01*
G01X13995924Y-2564634D01*
G01X14038774Y-2467429D01*
G01X14081649Y-2564634D01*
G01X14187262Y-2553154D01*
G01X14124499Y-2638879D01*
G01X14187262Y-2724604D01*
G37*
G36*
G01X14058269Y-1610299D02*
G01X14050529Y-1610887D01*
G01X14042686Y-1611086D01*
G01X14034843Y-1610887D01*
G01X14027102Y-1610299D01*
G01X14019475Y-1609330D01*
G01X14011970Y-1607990D01*
G01X13997364Y-1604235D01*
G01X13983362Y-1599110D01*
G01X13970040Y-1592693D01*
G01X13957474Y-1585060D01*
G01X13945742Y-1576287D01*
G01X13934920Y-1566452D01*
G01X13925084Y-1555629D01*
G01X13916311Y-1543897D01*
G01X13908678Y-1531332D01*
G01X13902261Y-1518010D01*
G01X13897137Y-1504008D01*
G01X13893382Y-1489402D01*
G01X13892042Y-1481896D01*
G01X13891072Y-1474269D01*
G01X13890484Y-1466529D01*
G01X13890286Y-1458686D01*
G01X13915686Y-1458686D01*
G01X13916343Y-1471652D01*
G01X13918270Y-1484248D01*
G01X13921405Y-1496410D01*
G01X13925682Y-1508072D01*
G01X13931037Y-1519172D01*
G01X13937405Y-1529643D01*
G01X13944723Y-1539423D01*
G01X13952925Y-1548446D01*
G01X13961949Y-1556649D01*
G01X13971728Y-1563966D01*
G01X13982200Y-1570335D01*
G01X13993299Y-1575690D01*
G01X14004962Y-1579966D01*
G01X14017123Y-1583101D01*
G01X14017123Y-1583101D01*
G01X14029719Y-1585029D01*
G01X14042686Y-1585686D01*
G01X14055652Y-1585029D01*
G01X14068248Y-1583101D01*
G01X14080410Y-1579966D01*
G01X14092072Y-1575690D01*
G01X14103172Y-1570335D01*
G01X14113643Y-1563966D01*
G01X14123423Y-1556649D01*
G01X14132446Y-1548446D01*
G01X14140649Y-1539423D01*
G01X14147966Y-1529643D01*
G01X14154335Y-1519172D01*
G01X14159690Y-1508072D01*
G01X14163966Y-1496410D01*
G01X14167101Y-1484248D01*
G01X14169029Y-1471652D01*
G01X14169686Y-1458686D01*
G01X14169029Y-1445719D01*
G01X14167101Y-1433123D01*
G01X14163966Y-1420962D01*
G01X14159690Y-1409299D01*
G01X14154335Y-1398200D01*
G01X14147966Y-1387728D01*
G01X14140649Y-1377949D01*
G01X14132446Y-1368925D01*
G01X14123423Y-1360723D01*
G01X14113643Y-1353405D01*
G01X14103172Y-1347037D01*
G01X14092072Y-1341682D01*
G01X14080410Y-1337405D01*
G01X14068248Y-1334271D01*
G01X14055652Y-1332343D01*
G01X14042686Y-1331686D01*
G01X14029719Y-1332343D01*
G01X14017123Y-1334271D01*
G01X14004962Y-1337405D01*
G01X13993299Y-1341682D01*
G01X13982200Y-1347037D01*
G01X13971728Y-1353405D01*
G01X13961949Y-1360723D01*
G01X13952925Y-1368925D01*
G01X13944723Y-1377949D01*
G01X13937405Y-1387728D01*
G01X13931037Y-1398200D01*
G01X13925682Y-1409299D01*
G01X13921405Y-1420962D01*
G01X13918270Y-1433123D01*
G01X13916343Y-1445719D01*
G01X13915686Y-1458686D01*
G01X13890286Y-1458686D01*
G01X13890484Y-1450843D01*
G01X13891072Y-1443102D01*
G01X13892042Y-1435475D01*
G01X13893382Y-1427970D01*
G01X13897137Y-1413364D01*
G01X13902261Y-1399362D01*
G01X13908678Y-1386040D01*
G01X13916311Y-1373474D01*
G01X13925084Y-1361742D01*
G01X13934920Y-1350920D01*
G01X13945742Y-1341084D01*
G01X13957474Y-1332311D01*
G01X13970040Y-1324678D01*
G01X13983362Y-1318261D01*
G01X13997364Y-1313137D01*
G01X14011970Y-1309382D01*
G01X14019475Y-1308042D01*
G01X14027102Y-1307072D01*
G01X14034843Y-1306484D01*
G01X14042686Y-1306286D01*
G01X14050529Y-1306484D01*
G01X14058269Y-1307072D01*
G01X14065896Y-1308042D01*
G01X14073402Y-1309382D01*
G01X14088008Y-1313137D01*
G01X14102010Y-1318261D01*
G01X14115332Y-1324678D01*
G01X14127897Y-1332311D01*
G01X14139629Y-1341084D01*
G01X14150452Y-1350920D01*
G01X14160287Y-1361742D01*
G01X14169060Y-1373474D01*
G01X14176693Y-1386040D01*
G01X14183110Y-1399362D01*
G01X14188235Y-1413364D01*
G01X14191990Y-1427970D01*
G01X14193330Y-1435475D01*
G01X14194299Y-1443102D01*
G01X14194887Y-1450843D01*
G01X14195086Y-1458686D01*
G01X14194887Y-1466529D01*
G01X14194299Y-1474269D01*
G01X14193330Y-1481896D01*
G01X14191990Y-1489402D01*
G01X14188235Y-1504008D01*
G01X14183110Y-1518010D01*
G01X14176693Y-1531332D01*
G01X14169060Y-1543897D01*
G01X14160287Y-1555629D01*
G01X14150452Y-1566452D01*
G01X14139629Y-1576287D01*
G01X14127897Y-1585060D01*
G01X14115332Y-1592693D01*
G01X14102010Y-1599110D01*
G01X14088008Y-1604235D01*
G01X14073402Y-1607990D01*
G01X14065896Y-1609330D01*
G01X14058269Y-1610299D01*
G37*
G36*
G01X14195086Y-3850237D02*
G01X14111977Y-3850237D01*
G01X14111977Y-3933371D01*
G01X13973420Y-3933371D01*
G01X13973420Y-3850263D01*
G01X13890286Y-3850263D01*
G01X13890286Y-3737106D01*
G01X13915686Y-3737106D01*
G01X13915686Y-3824837D01*
G01X13998820Y-3824837D01*
G01X13998820Y-3907971D01*
G01X13998820Y-3907971D01*
G01X14086551Y-3907971D01*
G01X14086551Y-3824863D01*
G01X14169686Y-3824863D01*
G01X14169686Y-3737106D01*
G01X14086551Y-3737106D01*
G01X14086551Y-3653971D01*
G01X13998820Y-3653971D01*
G01X13998820Y-3737106D01*
G01X13915686Y-3737106D01*
G01X13890286Y-3737106D01*
G01X13890286Y-3711706D01*
G01X13973420Y-3711706D01*
G01X13973420Y-3628571D01*
G01X14111951Y-3628571D01*
G01X14111951Y-3711706D01*
G01X14195086Y-3711706D01*
G01X14195086Y-3850237D01*
G37*
G36*
G01X14195086Y-3048000D02*
G01X14125058Y-3200400D01*
G01X14195086Y-3352800D01*
G01X14042686Y-3282772D01*
G01X13890286Y-3352800D01*
G01X13914048Y-3301086D01*
G01X13942000Y-3301086D01*
G01X14032068Y-3259684D01*
G01X14042686Y-3254807D01*
G01X14053303Y-3259684D01*
G01X14143371Y-3301086D01*
G01X14101969Y-3211017D01*
G01X14097092Y-3200400D01*
G01X14101969Y-3189783D01*
G01X14143371Y-3099714D01*
G01X14053303Y-3141116D01*
G01X14042686Y-3145993D01*
G01X14032068Y-3141116D01*
G01X13942000Y-3099714D01*
G01X13983402Y-3189783D01*
G01X13988279Y-3200400D01*
G01X13988279Y-3200400D01*
G01X13983402Y-3211017D01*
G01X13942000Y-3301086D01*
G01X13914048Y-3301086D01*
G01X13960313Y-3200400D01*
G01X13890286Y-3048000D01*
G01X14042686Y-3118028D01*
G01X14195086Y-3048000D01*
G37*
G36*
G01X13890286Y-1886857D02*
G01X14195086Y-1886857D01*
G01X14042686Y-2150814D01*
G01X13904951Y-1912257D01*
G01X13934278Y-1912257D01*
G01X14042686Y-2100014D01*
G01X14151093Y-1912257D01*
G01X14151093Y-1912257D01*
G01X13934278Y-1912257D01*
G01X13904951Y-1912257D01*
G01X13890286Y-1886857D01*
G37*
G36*
G01X14169686Y-4488543D02*
G01X14068086Y-4488543D01*
G01X14029986Y-4412343D01*
G01X13991886Y-4488543D01*
G01X13890286Y-4488543D01*
G01X13890286Y-4463143D01*
G01X13915686Y-4463143D01*
G01X13976188Y-4463143D01*
G01X14007253Y-4400989D01*
G01X14029986Y-4355548D01*
G01X14052719Y-4400989D01*
G01X14083783Y-4463143D01*
G01X14144286Y-4463143D01*
G01X14144286Y-4402640D01*
G01X14082132Y-4371550D01*
G01X14036691Y-4348843D01*
G01X14082132Y-4326135D01*
G01X14144286Y-4295046D01*
G01X14144286Y-4234543D01*
G01X14083783Y-4234543D01*
G01X14052719Y-4296697D01*
G01X14029986Y-4342137D01*
G01X14007253Y-4296697D01*
G01X13976188Y-4234543D01*
G01X13915686Y-4234543D01*
G01X13915686Y-4295046D01*
G01X13977839Y-4326135D01*
G01X14023280Y-4348843D01*
G01X13977839Y-4371550D01*
G01X13915686Y-4402640D01*
G01X13915686Y-4463143D01*
G01X13915686Y-4463143D01*
G01X13890286Y-4463143D01*
G01X13890286Y-4386943D01*
G01X13966486Y-4348843D01*
G01X13890286Y-4310743D01*
G01X13890286Y-4209143D01*
G01X13991886Y-4209143D01*
G01X14029986Y-4285343D01*
G01X14068086Y-4209143D01*
G01X14169686Y-4209143D01*
G01X14169686Y-4310743D01*
G01X14093486Y-4348843D01*
G01X14169686Y-4386943D01*
G01X14169686Y-4488543D01*
G37*
G36*
G01X13890286Y-725714D02*
G01X14169686Y-725714D01*
G01X14169686Y-1005114D01*
G01X13890286Y-1005114D01*
G01X13890286Y-751114D01*
G01X13915686Y-751114D01*
G01X13915686Y-979714D01*
G01X14144286Y-979714D01*
G01X14144286Y-751114D01*
G01X14144286Y-751114D01*
G01X13915686Y-751114D01*
G01X13890286Y-751114D01*
G01X13890286Y-725714D01*
G37*

G04 PolygonModel Start*
G54D18*
G01X13600000Y-4644571D02*
G01X30460085Y-4644571D01*
G01X13600000Y-4064000D02*
G01X30460085Y-4064000D01*
G01X13600000Y-3483429D02*
G01X30460085Y-3483429D01*
G01X13600000Y-2902857D02*
G01X30460085Y-2902857D01*
G01X13600000Y-2322286D02*
G01X30460085Y-2322286D01*
G01X13600000Y-1741714D02*
G01X30460085Y-1741714D01*
G01X13600000Y-1161143D02*
G01X30460085Y-1161143D01*
G01X13600000Y-580571D02*
G01X30460085Y-580571D01*
G01X13600000Y0D02*
G01X30460085Y0D01*
G01X13600000Y0D02*
G01X13600000Y-4644571D01*
G01X15051429Y0D02*
G01X15051429Y-4644571D01*
G01X16465592Y0D02*
G01X16465592Y-4644571D01*
G01X20500781Y0D02*
G01X20500781Y-4644571D01*
G01X21962188Y0D02*
G01X21962188Y-4644571D01*
G01X23393369Y0D02*
G01X23393369Y-4644571D01*
G01X25062548Y0D02*
G01X25062548Y-4644571D01*
G01X26981917Y0D02*
G01X26981917Y-4644571D01*
G01X30460085Y0D02*
G01X30460085Y-4644571D01*

M02*

