G04 Layer: BottomSolderMaskLayer*
G04 EasyEDA Pro v4.1.60, 2026-10-09 14:05:16*
G04 Gerber Generator version 0.3*
G04 Scale: 100 percent, Rotated: No, Reflected: No*
G04 Dimensions in millimeters*
G04 Leading zeros omitted, absolute positions, 4 integers and 5 decimals*
G04 Generated by one-click*
G04 Object Configs: Pad,Via,Track,Text,Image,Dimension,BoardOutline,BoardCutout,CopperFilled,SolidRegion,FPCStiffener,Line,PlaneZone,ComponentProperty,ComponentSilkscreen,TearDrop*
G04 Layer Configs: 1,15,16,2,3,4,5,6,7,8,9,10,11,13,14,71,72,73,74,75,76,77,78,79,80,122,56*
G04 Copper Areas: 0*
%FSLAX45Y45*%
%MOMM*%
%ADD10C,3.2*%
%ADD11C,3.18*%
%ADD12C,1.3*%
%ADD13O,1.5X2.5*%
%ADD14C,2.7*%
%ADD15C,0.4941*%
G75*


G04 Pad Start*
G54D10*
G01X600000Y-600000D03*
G01X11000000Y-600000D03*
G01X11000000Y-5000000D03*
G01X600000Y-5000000D03*
G01X4800000Y-3800000D03*
G01X6800000Y-3800000D03*
G54D11*
G01X2685000Y-4894000D03*
G01X1315000Y-4894000D03*
G54D12*
G01X2357000Y-4964000D03*
G01X2255000Y-4564000D03*
G01X2153000Y-4964000D03*
G01X2051000Y-4564000D03*
G01X1949000Y-4964000D03*
G01X1847000Y-4564000D03*
G01X1745000Y-4964000D03*
G01X1643000Y-4564000D03*
G54D13*
G01X1260000Y-5199000D03*
G01X2740000Y-5199000D03*
G54D14*
G01X10031000Y-3620000D03*
G01X10031000Y-3366000D03*
G01X10031000Y-2858000D03*
G01X9269000Y-3620000D03*
G01X9269000Y-3366000D03*
G01X9269000Y-2858000D03*
G54D10*
G01X9806500Y-906500D03*
G01X9806500Y-1493500D03*
G01X10393500Y-906500D03*
G01X10393500Y-1493500D03*
G01X8206500Y-906500D03*
G01X8206500Y-1493500D03*
G01X8793500Y-906500D03*
G01X8793500Y-1493500D03*
G54D11*
G01X5115000Y-706000D03*
G01X6485000Y-706000D03*
G54D12*
G01X5443000Y-636000D03*
G01X5545000Y-1036000D03*
G01X5647000Y-636000D03*
G01X5749000Y-1036000D03*
G01X5851000Y-636000D03*
G01X5953000Y-1036000D03*
G01X6055000Y-636000D03*
G01X6157000Y-1036000D03*
G54D13*
G01X6540000Y-401000D03*
G01X5060000Y-401000D03*
G54D10*
G01X3906500Y-1706500D03*
G01X3906500Y-2293500D03*
G01X4493500Y-1706500D03*
G01X4493500Y-2293500D03*
G04 Pad End*

M02*

