<svg xmlns="http://www.w3.org/2000/svg" width="1300" height="580" viewBox="0 0 1300 580">
<style>text{font-family:Arial,sans-serif;fill:#163443} .wire{stroke:#276979;fill:none;stroke-width:1.5} .box{fill:#f1f6f8;stroke:#163443;stroke-width:1.5}</style>
<rect width="1300" height="580" fill="white"/>
<text x="30" y="38" font-size="25" font-weight="bold">UPPER PETAL / HLIO-R03 ELECTRICAL COUPON</text>
<text x="30" y="64" font-size="14">Front coordinates unchanged. Rear rectangles are reservations, NOT copper / footprints / final arm assembly data.</text>
<polygon points="67.0,390.4 221.0,445.6 893.0,372.0 1201.0,316.8 1201.0,243.2 893.0,188.0 221.0,114.4 67.0,169.60000000000002" fill="#eef4f7" stroke="#173744"/>
<rect x="899.8568191626644" y="50" width="240.0" height="460" fill="#b06666" opacity=".16"/>
<rect x="113" y="356" width="24" height="8" fill="#f3b54a" stroke="#aa741e"/>
<rect x="113" y="316" width="24" height="8" fill="#f3b54a" stroke="#aa741e"/>
<rect x="113" y="276" width="24" height="8" fill="#f3b54a" stroke="#aa741e"/>
<rect x="113" y="236" width="24" height="8" fill="#f3b54a" stroke="#aa741e"/>
<rect x="113" y="196" width="24" height="8" fill="#f3b54a" stroke="#aa741e"/>
<rect x="153" y="396" width="24" height="8" fill="#f3b54a" stroke="#aa741e"/>
<rect x="153" y="356" width="24" height="8" fill="#f3b54a" stroke="#aa741e"/>
<rect x="153" y="316" width="24" height="8" fill="#f3b54a" stroke="#aa741e"/>
<rect x="153" y="276" width="24" height="8" fill="#f3b54a" stroke="#aa741e"/>
<rect x="153" y="236" width="24" height="8" fill="#f3b54a" stroke="#aa741e"/>
<rect x="153" y="196" width="24" height="8" fill="#f3b54a" stroke="#aa741e"/>
<rect x="153" y="156" width="24" height="8" fill="#f3b54a" stroke="#aa741e"/>
<rect x="193" y="396" width="24" height="8" fill="#f3b54a" stroke="#aa741e"/>
<rect x="193" y="356" width="24" height="8" fill="#f3b54a" stroke="#aa741e"/>
<rect x="193" y="316" width="24" height="8" fill="#f3b54a" stroke="#aa741e"/>
<rect x="193" y="276" width="24" height="8" fill="#f3b54a" stroke="#aa741e"/>
<rect x="193" y="236" width="24" height="8" fill="#f3b54a" stroke="#aa741e"/>
<rect x="193" y="196" width="24" height="8" fill="#f3b54a" stroke="#aa741e"/>
<rect x="193" y="156" width="24" height="8" fill="#f3b54a" stroke="#aa741e"/>
<rect x="233" y="396" width="24" height="8" fill="#f3b54a" stroke="#aa741e"/>
<rect x="233" y="356" width="24" height="8" fill="#f3b54a" stroke="#aa741e"/>
<rect x="233" y="316" width="24" height="8" fill="#f3b54a" stroke="#aa741e"/>
<rect x="233" y="276" width="24" height="8" fill="#f3b54a" stroke="#aa741e"/>
<rect x="233" y="236" width="24" height="8" fill="#f3b54a" stroke="#aa741e"/>
<rect x="233" y="196" width="24" height="8" fill="#f3b54a" stroke="#aa741e"/>
<rect x="233" y="156" width="24" height="8" fill="#f3b54a" stroke="#aa741e"/>
<rect x="273" y="396" width="24" height="8" fill="#f3b54a" stroke="#aa741e"/>
<rect x="273" y="356" width="24" height="8" fill="#f3b54a" stroke="#aa741e"/>
<rect x="273" y="316" width="24" height="8" fill="#f3b54a" stroke="#aa741e"/>
<rect x="273" y="276" width="24" height="8" fill="#f3b54a" stroke="#aa741e"/>
<rect x="273" y="236" width="24" height="8" fill="#f3b54a" stroke="#aa741e"/>
<rect x="273" y="196" width="24" height="8" fill="#f3b54a" stroke="#aa741e"/>
<rect x="273" y="156" width="24" height="8" fill="#f3b54a" stroke="#aa741e"/>
<rect x="313" y="396" width="24" height="8" fill="#f3b54a" stroke="#aa741e"/>
<rect x="313" y="356" width="24" height="8" fill="#f3b54a" stroke="#aa741e"/>
<rect x="313" y="316" width="24" height="8" fill="#f3b54a" stroke="#aa741e"/>
<rect x="313" y="276" width="24" height="8" fill="#f3b54a" stroke="#aa741e"/>
<rect x="313" y="236" width="24" height="8" fill="#f3b54a" stroke="#aa741e"/>
<rect x="313" y="196" width="24" height="8" fill="#f3b54a" stroke="#aa741e"/>
<rect x="313" y="156" width="24" height="8" fill="#f3b54a" stroke="#aa741e"/>
<rect x="353" y="396" width="24" height="8" fill="#f3b54a" stroke="#aa741e"/>
<rect x="353" y="356" width="24" height="8" fill="#f3b54a" stroke="#aa741e"/>
<rect x="353" y="316" width="24" height="8" fill="#f3b54a" stroke="#aa741e"/>
<rect x="353" y="276" width="24" height="8" fill="#f3b54a" stroke="#aa741e"/>
<rect x="353" y="236" width="24" height="8" fill="#f3b54a" stroke="#aa741e"/>
<rect x="353" y="196" width="24" height="8" fill="#f3b54a" stroke="#aa741e"/>
<rect x="353" y="156" width="24" height="8" fill="#f3b54a" stroke="#aa741e"/>
<rect x="393" y="396" width="24" height="8" fill="#f3b54a" stroke="#aa741e"/>
<rect x="393" y="356" width="24" height="8" fill="#f3b54a" stroke="#aa741e"/>
<rect x="393" y="316" width="24" height="8" fill="#f3b54a" stroke="#aa741e"/>
<rect x="393" y="276" width="24" height="8" fill="#f3b54a" stroke="#aa741e"/>
<rect x="393" y="236" width="24" height="8" fill="#f3b54a" stroke="#aa741e"/>
<rect x="393" y="196" width="24" height="8" fill="#f3b54a" stroke="#aa741e"/>
<rect x="393" y="156" width="24" height="8" fill="#f3b54a" stroke="#aa741e"/>
<rect x="433" y="396" width="24" height="8" fill="#f3b54a" stroke="#aa741e"/>
<rect x="433" y="356" width="24" height="8" fill="#f3b54a" stroke="#aa741e"/>
<rect x="433" y="316" width="24" height="8" fill="#f3b54a" stroke="#aa741e"/>
<rect x="433" y="276" width="24" height="8" fill="#f3b54a" stroke="#aa741e"/>
<rect x="433" y="236" width="24" height="8" fill="#f3b54a" stroke="#aa741e"/>
<rect x="433" y="196" width="24" height="8" fill="#f3b54a" stroke="#aa741e"/>
<rect x="433" y="156" width="24" height="8" fill="#f3b54a" stroke="#aa741e"/>
<rect x="473" y="356" width="24" height="8" fill="#f3b54a" stroke="#aa741e"/>
<rect x="473" y="316" width="24" height="8" fill="#f3b54a" stroke="#aa741e"/>
<rect x="473" y="276" width="24" height="8" fill="#f3b54a" stroke="#aa741e"/>
<rect x="473" y="236" width="24" height="8" fill="#f3b54a" stroke="#aa741e"/>
<rect x="473" y="196" width="24" height="8" fill="#f3b54a" stroke="#aa741e"/>
<rect x="513" y="356" width="24" height="8" fill="#f3b54a" stroke="#aa741e"/>
<rect x="513" y="316" width="24" height="8" fill="#f3b54a" stroke="#aa741e"/>
<rect x="513" y="276" width="24" height="8" fill="#f3b54a" stroke="#aa741e"/>
<rect x="513" y="236" width="24" height="8" fill="#f3b54a" stroke="#aa741e"/>
<rect x="513" y="196" width="24" height="8" fill="#f3b54a" stroke="#aa741e"/>
<rect x="553" y="356" width="24" height="8" fill="#f3b54a" stroke="#aa741e"/>
<rect x="553" y="316" width="24" height="8" fill="#f3b54a" stroke="#aa741e"/>
<rect x="553" y="276" width="24" height="8" fill="#f3b54a" stroke="#aa741e"/>
<rect x="553" y="236" width="24" height="8" fill="#f3b54a" stroke="#aa741e"/>
<rect x="553" y="196" width="24" height="8" fill="#f3b54a" stroke="#aa741e"/>
<rect x="593" y="356" width="24" height="8" fill="#f3b54a" stroke="#aa741e"/>
<rect x="593" y="316" width="24" height="8" fill="#f3b54a" stroke="#aa741e"/>
<rect x="593" y="276" width="24" height="8" fill="#f3b54a" stroke="#aa741e"/>
<rect x="593" y="236" width="24" height="8" fill="#f3b54a" stroke="#aa741e"/>
<rect x="593" y="196" width="24" height="8" fill="#f3b54a" stroke="#aa741e"/>
<rect x="633" y="356" width="24" height="8" fill="#f3b54a" stroke="#aa741e"/>
<rect x="633" y="316" width="24" height="8" fill="#f3b54a" stroke="#aa741e"/>
<rect x="633" y="276" width="24" height="8" fill="#f3b54a" stroke="#aa741e"/>
<rect x="633" y="236" width="24" height="8" fill="#f3b54a" stroke="#aa741e"/>
<rect x="633" y="196" width="24" height="8" fill="#f3b54a" stroke="#aa741e"/>
<rect x="673" y="356" width="24" height="8" fill="#f3b54a" stroke="#aa741e"/>
<rect x="673" y="316" width="24" height="8" fill="#f3b54a" stroke="#aa741e"/>
<rect x="673" y="276" width="24" height="8" fill="#f3b54a" stroke="#aa741e"/>
<rect x="673" y="236" width="24" height="8" fill="#f3b54a" stroke="#aa741e"/>
<rect x="673" y="196" width="24" height="8" fill="#f3b54a" stroke="#aa741e"/>
<rect x="713" y="356" width="24" height="8" fill="#f3b54a" stroke="#aa741e"/>
<rect x="713" y="316" width="24" height="8" fill="#f3b54a" stroke="#aa741e"/>
<rect x="713" y="276" width="24" height="8" fill="#f3b54a" stroke="#aa741e"/>
<rect x="713" y="236" width="24" height="8" fill="#f3b54a" stroke="#aa741e"/>
<rect x="713" y="196" width="24" height="8" fill="#f3b54a" stroke="#aa741e"/>
<rect x="753" y="356" width="24" height="8" fill="#f3b54a" stroke="#aa741e"/>
<rect x="753" y="316" width="24" height="8" fill="#f3b54a" stroke="#aa741e"/>
<rect x="753" y="276" width="24" height="8" fill="#f3b54a" stroke="#aa741e"/>
<rect x="753" y="236" width="24" height="8" fill="#f3b54a" stroke="#aa741e"/>
<rect x="753" y="196" width="24" height="8" fill="#f3b54a" stroke="#aa741e"/>
<rect x="793" y="356" width="24" height="8" fill="#f3b54a" stroke="#aa741e"/>
<rect x="793" y="316" width="24" height="8" fill="#f3b54a" stroke="#aa741e"/>
<rect x="793" y="276" width="24" height="8" fill="#f3b54a" stroke="#aa741e"/>
<rect x="793" y="236" width="24" height="8" fill="#f3b54a" stroke="#aa741e"/>
<rect x="793" y="196" width="24" height="8" fill="#f3b54a" stroke="#aa741e"/>
<rect x="833" y="316" width="24" height="8" fill="#f3b54a" stroke="#aa741e"/>
<rect x="833" y="276" width="24" height="8" fill="#f3b54a" stroke="#aa741e"/>
<rect x="833" y="236" width="24" height="8" fill="#f3b54a" stroke="#aa741e"/>
<rect x="873" y="316" width="24" height="8" fill="#f3b54a" stroke="#aa741e"/>
<rect x="873" y="276" width="24" height="8" fill="#f3b54a" stroke="#aa741e"/>
<rect x="873" y="236" width="24" height="8" fill="#f3b54a" stroke="#aa741e"/>
<rect x="1153" y="276" width="24" height="8" fill="#f3b54a" stroke="#aa741e"/>
<rect x="85.0" y="185.0" width="80" height="190" fill="none" stroke="#1b7b89" stroke-dasharray="5 3"/>
<text x="85.0" y="179.0" font-size="12">J1</text>
<rect x="285.0" y="250.0" width="60" height="60" fill="none" stroke="#1b7b89" stroke-dasharray="5 3"/>
<text x="285.0" y="244.0" font-size="12">U1</text>
<rect x="305.0" y="215.0" width="260" height="130" fill="none" stroke="#1b7b89" stroke-dasharray="5 3"/>
<text x="305.0" y="209.0" font-size="12">rear passives</text>
<rect x="625.0" y="260.0" width="40" height="40" fill="none" stroke="#1b7b89" stroke-dasharray="5 3"/>
<text x="625.0" y="254.0" font-size="12">NTC</text>
<text x="35" y="514" font-size="15">Reference polygon area 2552.82 mm2. No mounting holes. Preserve all 113 SW/CS identities.</text>
<text x="35" y="541" font-size="15">Contact band is a physical integration hold: do not place PCB over the gripping pad or treat the light as a load path.</text>
</svg>