<?xml version="1.0" standalone="no"?>
 <!DOCTYPE svg PUBLIC "-//W3C//DTD SVG 1.1//EN" 
 "http://www.w3.org/Graphics/SVG/1.1/DTD/svg11.dtd"> 
<svg
  xmlns:svg="http://www.w3.org/2000/svg"
  xmlns="http://www.w3.org/2000/svg"
  xmlns:xlink="http://www.w3.org/1999/xlink"
  xmlns:inkscape="http://www.inkscape.org/namespaces/inkscape"
  version="1.1"
  width="50.9778mm" height="25.1968mm" viewBox="0.0000 0.0000 50.9778 25.1968">
<title>SVG Image created as petal-In3_Cu.svg date 2026-09-27T18:36:28 </title>
  <desc>Image generated by PCBNEW </desc>
<g style="fill:#000000; fill-opacity:1.0000;stroke:#000000; stroke-opacity:1.0000;
stroke-linecap:round; stroke-linejoin:round;"
 transform="translate(0 0) scale(1 1)">
</g>
<g style="fill:#4FCBCB; fill-opacity:1.0000; stroke:none;">
<circle cx="18.2000" cy="7.6000" r="0.2500" /> 
<circle cx="25.6000" cy="7.6000" r="0.2500" /> 
<circle cx="34.2000" cy="15.1000" r="0.2500" /> 
<circle cx="38.4000" cy="10.0000" r="0.2500" /> 
<circle cx="10.2000" cy="7.6000" r="0.2500" /> 
<circle cx="31.0000" cy="19.6000" r="0.2500" /> 
<circle cx="31.3000" cy="15.3000" r="0.2500" /> 
<circle cx="26.6000" cy="10.2000" r="0.2500" /> 
<circle cx="24.6000" cy="14.6000" r="0.2500" /> 
<circle cx="27.0000" cy="19.6000" r="0.2500" /> 
<circle cx="22.4000" cy="13.4000" r="0.2500" /> 
<circle cx="14.2000" cy="13.6000" r="0.2500" /> 
<circle cx="18.2000" cy="15.6000" r="0.2500" /> 
<circle cx="10.9000" cy="16.5000" r="0.2500" /> 
<circle cx="33.0000" cy="19.6000" r="0.2500" /> 
<circle cx="25.3000" cy="20.2000" r="0.2500" /> 
<circle cx="12.7000" cy="12.6000" r="0.2500" /> 
<circle cx="11.1000" cy="11.0000" r="0.2500" /> 
<circle cx="19.7000" cy="20.5000" r="0.2500" /> 
<circle cx="24.6000" cy="15.6000" r="0.2500" /> 
<circle cx="15.0000" cy="16.9000" r="0.2500" /> 
<circle cx="18.5000" cy="14.3000" r="0.2500" /> 
<circle cx="20.9000" cy="15.1000" r="0.2500" /> 
<circle cx="25.3000" cy="17.9000" r="0.2500" /> 
<circle cx="30.0000" cy="19.6000" r="0.2500" /> 
<circle cx="18.2000" cy="3.6000" r="0.2500" /> 
<circle cx="10.2000" cy="3.6000" r="0.2500" /> 
<circle cx="25.6000" cy="3.6000" r="0.2500" /> 
<circle cx="33.0000" cy="9.6000" r="0.2500" /> 
<circle cx="47.4000" cy="9.6000" r="0.2500" /> 
<circle cx="39.8000" cy="14.3000" r="0.2500" /> 
<circle cx="24.6000" cy="13.6000" r="0.2500" /> 
<circle cx="6.2000" cy="13.6000" r="0.2500" /> 
<circle cx="32.1000" cy="10.3000" r="0.2500" /> 
<circle cx="28.0000" cy="6.9000" r="0.2500" /> 
<circle cx="18.3000" cy="19.1000" r="0.2500" /> 
<circle cx="25.0000" cy="19.6000" r="0.2500" /> 
<circle cx="46.2000" cy="17.6000" r="0.2500" /> 
<circle cx="27.0000" cy="6.9000" r="0.2500" /> 
<circle cx="34.2000" cy="17.6000" r="0.2500" /> 
<circle cx="2.2000" cy="13.6000" r="0.2500" /> 
<circle cx="32.0000" cy="19.6000" r="0.2500" /> 
<circle cx="13.0000" cy="14.6000" r="0.2500" /> 
<circle cx="23.1000" cy="13.6000" r="0.2500" /> 
<circle cx="21.1000" cy="20.8000" r="0.2500" /> 
<circle cx="15.0000" cy="12.9000" r="0.2500" /> 
<circle cx="25.6000" cy="11.6000" r="0.2500" /> 
<circle cx="21.4000" cy="17.1000" r="0.2500" /> 
<circle cx="10.2000" cy="11.6000" r="0.2500" /> 
<circle cx="18.2000" cy="11.6000" r="0.2500" /> 
<circle cx="29.0000" cy="19.6000" r="0.2500" /> 
<circle cx="14.2000" cy="21.6000" r="0.2500" /> 
<circle cx="22.2000" cy="21.6000" r="0.2500" /> 
<circle cx="27.0000" cy="16.9000" r="0.2500" /> 
<circle cx="31.4000" cy="9.6000" r="0.2500" /> 
<circle cx="14.2000" cy="9.6000" r="0.2500" /> 
<circle cx="42.2000" cy="9.6000" r="0.2500" /> 
<circle cx="22.2000" cy="9.6000" r="0.2500" /> 
<circle cx="32.7000" cy="9.0000" r="0.2500" /> 
<circle cx="43.4000" cy="17.6000" r="0.2500" /> 
<circle cx="9.3000" cy="14.2000" r="0.2500" /> 
<circle cx="28.2000" cy="17.6000" r="0.2500" /> 
<circle cx="20.7000" cy="4.7000" r="0.2500" /> 
<circle cx="42.8000" cy="7.9000" r="0.2500" /> 
<circle cx="23.1000" cy="17.2000" r="0.2500" /> 
<circle cx="9.5000" cy="9.2000" r="0.2500" /> 
<circle cx="22.2000" cy="6.3000" r="0.2500" /> 
<circle cx="14.2000" cy="17.6000" r="0.2500" /> 
<circle cx="9.5000" cy="12.0000" r="0.2500" /> 
<circle cx="26.9000" cy="3.8000" r="0.2500" /> 
<circle cx="14.2000" cy="5.6000" r="0.2500" /> 
<circle cx="22.2000" cy="5.6000" r="0.2500" /> 
<circle cx="26.0000" cy="6.9000" r="0.2500" /> 
<circle cx="34.0000" cy="19.6000" r="0.2500" /> 
<circle cx="18.8000" cy="19.6000" r="0.2500" /> 
<circle cx="26.4000" cy="20.4000" r="0.2500" /> 
<circle cx="37.0000" cy="8.8000" r="0.2500" /> 
<circle cx="21.9000" cy="10.7000" r="0.2500" /> 
<circle cx="18.3000" cy="6.2000" r="0.2500" /> 
<circle cx="16.9000" cy="10.6000" r="0.2500" /> 
<circle cx="21.2000" cy="9.4750" r="0.2500" /> 
<circle cx="35.6000" cy="5.8000" r="0.2500" /> 
<circle cx="27.8062" cy="5.7500" r="0.2500" /> 
<circle cx="41.3500" cy="9.4062" r="0.2500" /> 
<circle cx="21.9500" cy="11.7938" r="0.2500" /> 
<circle cx="34.3000" cy="5.4000" r="0.2500" /> 
<circle cx="42.4000" cy="17.9000" r="0.2500" /> 
<circle cx="29.8000" cy="11.5000" r="0.3000" /> 
<circle cx="17.3250" cy="5.1250" r="0.2500" /> 
<circle cx="42.4000" cy="15.6000" r="0.2500" /> 
<circle cx="44.6000" cy="7.1000" r="0.2500" /> 
<circle cx="28.2000" cy="11.5000" r="0.3000" /> 
<circle cx="24.6500" cy="20.4000" r="0.2500" /> 
<circle cx="28.2000" cy="13.7000" r="0.3000" /> 
<circle cx="2.4062" cy="10.4500" r="0.2500" /> 
<circle cx="1.3500" cy="13.2062" r="0.2500" /> 
<circle cx="24.7000" cy="5.4000" r="0.2500" /> 
<circle cx="29.8000" cy="13.7000" r="0.3000" /> 
<circle cx="39.0111" cy="13.0250" r="0.2500" /> 
<circle cx="20.4312" cy="17.3250" r="0.2500" /> 
<circle cx="24.6500" cy="18.1000" r="0.2500" /> 
<circle cx="22.9062" cy="14.6500" r="0.2500" /> 
<circle cx="39.6000" cy="18.6000" r="0.2500" /> 
<circle cx="17.3250" cy="20.0750" r="0.2500" /> 
<circle cx="37.0000" cy="9.8000" r="0.2500" /> 
<circle cx="18.3000" cy="6.9000" r="0.2500" /> 
<circle cx="29.5000" cy="5.2000" r="0.2500" /> 
<circle cx="38.8000" cy="7.9000" r="0.2500" /> 
<circle cx="17.4000" cy="12.2000" r="0.2500" /> 
<circle cx="19.8000" cy="18.2000" r="0.2500" /> 
<circle cx="20.9000" cy="12.6000" r="0.2500" /> 
<circle cx="17.0000" cy="16.3000" r="0.2500" /> 
<circle cx="22.4000" cy="11.3000" r="0.2500" /> 
<circle cx="21.8000" cy="18.6000" r="0.2500" /> 
<circle cx="16.6000" cy="13.2000" r="0.2500" /> 
<circle cx="21.2000" cy="15.7250" r="0.2500" /> 
<circle cx="23.0000" cy="18.8000" r="0.2500" /> 
<circle cx="21.2000" cy="13.2250" r="0.2500" /> 
<circle cx="24.3000" cy="10.2000" r="0.2500" /> 
<circle cx="25.9000" cy="5.4000" r="0.2500" /> 
<circle cx="37.0000" cy="10.8000" r="0.2500" /> 
<circle cx="30.5000" cy="5.4000" r="0.2500" /> 
<circle cx="21.2000" cy="11.9750" r="0.2500" /> 
<circle cx="7.3000" cy="13.5000" r="0.2500" /> 
<circle cx="22.9000" cy="21.8000" r="0.2500" /> 
<circle cx="37.0000" cy="12.8000" r="0.2500" /> 
<circle cx="38.2000" cy="14.6000" r="0.2500" /> 
<circle cx="17.5000" cy="14.6000" r="0.2500" /> 
<circle cx="34.9000" cy="20.1000" r="0.2500" /> 
<circle cx="3.2000" cy="10.1000" r="0.2500" /> 
<circle cx="21.2000" cy="6.9750" r="0.2500" /> 
<circle cx="38.9000" cy="11.6000" r="0.2500" /> 
<circle cx="25.4000" cy="8.9000" r="0.2500" /> 
<circle cx="29.4000" cy="8.9000" r="0.2500" /> 
<circle cx="32.4000" cy="7.9000" r="0.2500" /> 
<circle cx="39.0000" cy="8.9000" r="0.2500" /> 
<circle cx="37.0000" cy="6.8000" r="0.2500" /> 
<circle cx="25.3000" cy="6.9000" r="0.2500" /> 
<circle cx="37.0000" cy="7.8000" r="0.2500" /> 
<circle cx="32.7000" cy="5.3000" r="0.2500" /> 
<circle cx="37.0000" cy="11.8000" r="0.2500" /> 
<circle cx="40.5000" cy="10.3000" r="0.2500" /> 
</g>
<g style="fill:none; 
stroke:#4FCBCB; stroke-width:0.1500; stroke-opacity:1; 
stroke-linecap:round; stroke-linejoin:round;">
<path d="M47.4000 9.6000
L44.3000 9.1000
" />
<path d="M36.4000 9.3000
L33.0000 9.6000
" />
<path d="M40.9000 8.9000
L39.0000 9.4000
" />
<path d="M39.0000 9.4000
L36.4000 9.3000
" />
<path d="M44.3000 9.1000
L40.9000 8.9000
" />
<path d="M38.0000 14.1000
L39.6000 14.2000
" />
<path d="M37.8000 14.3000
L38.0000 14.1000
" />
<path d="M39.6000 14.2000
L39.8000 14.3000
" />
<path d="M24.6000 13.6000
L28.5000 14.3000
" />
<path d="M28.5000 14.3000
L37.8000 14.3000
" />
<path d="M7.2000 13.0000
L21.4000 10.2000
" />
<path d="M23.7000 9.9000
L25.2000 8.4000
" />
<path d="M21.4000 10.2000
L23.7000 9.9000
" />
<path d="M27.3000 7.3000
L28.0000 6.9000
" />
<path d="M25.2000 8.4000
L27.3000 7.3000
" />
<path d="M6.2000 13.6000
L7.2000 13.0000
" />
<path d="M28.5000 6.7000
L28.5000 7.1000
" />
<path d="M28.7000 6.5000
L28.5000 6.7000
" />
<path d="M24.5000 10.7000
L22.1000 12.3000
" />
<path d="M21.8000 12.3000
L21.2000 11.9750
" />
<path d="M28.5000 7.1000
L24.5000 10.7000
" />
<path d="M30.5000 5.4000
L28.7000 6.5000
" />
<path d="M22.1000 12.3000
L21.8000 12.3000
" />
<path d="M21.2000 6.9750
L18.3000 8.1000
" />
<path d="M7.6000 9.6000
L6.3000 10.0000
" />
<path d="M8.7000 8.7000
L7.6000 9.6000
" />
<path d="M18.3000 8.1000
L8.7000 8.7000
" />
<path d="M6.3000 10.0000
L3.2000 10.1000
" />
</g>
<g style="fill:none; 
stroke:#D0D2CD; stroke-width:0.0500; stroke-opacity:1; 
stroke-linecap:round; stroke-linejoin:round;">
<path d="M0.0000 0.0000
L0.0000 25.2000
" />
<path d="M0.0000 25.2000
L45.0000 19.8000
" />
<path d="M45.0000 5.4000
L0.0000 0.0000
" />
<path d="M45.0000 19.8000
L51.0000 18.6218
" />
<path d="M51.0000 6.5782
L45.0000 5.4000
" />
<path d="M51.0000 18.6218
L51.0000 6.5782
" />
</g>
<g style="fill:#FFFFFF; fill-opacity:1.0000; stroke:none;">
<circle cx="18.2000" cy="7.6000" r="0.1250" /> 
<circle cx="25.6000" cy="7.6000" r="0.1250" /> 
<circle cx="34.2000" cy="15.1000" r="0.1250" /> 
<circle cx="38.4000" cy="10.0000" r="0.1250" /> 
<circle cx="10.2000" cy="7.6000" r="0.1250" /> 
<circle cx="31.0000" cy="19.6000" r="0.1250" /> 
<circle cx="31.3000" cy="15.3000" r="0.1250" /> 
<circle cx="26.6000" cy="10.2000" r="0.1250" /> 
<circle cx="24.6000" cy="14.6000" r="0.1250" /> 
<circle cx="27.0000" cy="19.6000" r="0.1250" /> 
<circle cx="22.4000" cy="13.4000" r="0.1250" /> 
<circle cx="14.2000" cy="13.6000" r="0.1250" /> 
<circle cx="18.2000" cy="15.6000" r="0.1250" /> 
<circle cx="10.9000" cy="16.5000" r="0.1250" /> 
<circle cx="33.0000" cy="19.6000" r="0.1250" /> 
<circle cx="25.3000" cy="20.2000" r="0.1250" /> 
<circle cx="12.7000" cy="12.6000" r="0.1250" /> 
<circle cx="11.1000" cy="11.0000" r="0.1250" /> 
<circle cx="19.7000" cy="20.5000" r="0.1250" /> 
<circle cx="24.6000" cy="15.6000" r="0.1250" /> 
<circle cx="15.0000" cy="16.9000" r="0.1250" /> 
<circle cx="18.5000" cy="14.3000" r="0.1250" /> 
<circle cx="20.9000" cy="15.1000" r="0.1250" /> 
<circle cx="25.3000" cy="17.9000" r="0.1250" /> 
<circle cx="30.0000" cy="19.6000" r="0.1250" /> 
<circle cx="18.2000" cy="3.6000" r="0.1250" /> 
<circle cx="10.2000" cy="3.6000" r="0.1250" /> 
<circle cx="25.6000" cy="3.6000" r="0.1250" /> 
<circle cx="33.0000" cy="9.6000" r="0.1250" /> 
<circle cx="47.4000" cy="9.6000" r="0.1250" /> 
<circle cx="39.8000" cy="14.3000" r="0.1250" /> 
<circle cx="24.6000" cy="13.6000" r="0.1250" /> 
<circle cx="6.2000" cy="13.6000" r="0.1250" /> 
<circle cx="32.1000" cy="10.3000" r="0.1250" /> 
<circle cx="28.0000" cy="6.9000" r="0.1250" /> 
<circle cx="18.3000" cy="19.1000" r="0.1250" /> 
<circle cx="25.0000" cy="19.6000" r="0.1250" /> 
<circle cx="46.2000" cy="17.6000" r="0.1250" /> 
<circle cx="27.0000" cy="6.9000" r="0.1250" /> 
<circle cx="34.2000" cy="17.6000" r="0.1250" /> 
<circle cx="2.2000" cy="13.6000" r="0.1250" /> 
<circle cx="32.0000" cy="19.6000" r="0.1250" /> 
<circle cx="13.0000" cy="14.6000" r="0.1250" /> 
<circle cx="23.1000" cy="13.6000" r="0.1250" /> 
<circle cx="21.1000" cy="20.8000" r="0.1250" /> 
<circle cx="15.0000" cy="12.9000" r="0.1250" /> 
<circle cx="25.6000" cy="11.6000" r="0.1250" /> 
<circle cx="21.4000" cy="17.1000" r="0.1250" /> 
<circle cx="10.2000" cy="11.6000" r="0.1250" /> 
<circle cx="18.2000" cy="11.6000" r="0.1250" /> 
<circle cx="29.0000" cy="19.6000" r="0.1250" /> 
<circle cx="14.2000" cy="21.6000" r="0.1250" /> 
<circle cx="22.2000" cy="21.6000" r="0.1250" /> 
<circle cx="27.0000" cy="16.9000" r="0.1250" /> 
<circle cx="31.4000" cy="9.6000" r="0.1250" /> 
<circle cx="14.2000" cy="9.6000" r="0.1250" /> 
<circle cx="42.2000" cy="9.6000" r="0.1250" /> 
<circle cx="22.2000" cy="9.6000" r="0.1250" /> 
<circle cx="32.7000" cy="9.0000" r="0.1250" /> 
<circle cx="43.4000" cy="17.6000" r="0.1250" /> 
<circle cx="9.3000" cy="14.2000" r="0.1250" /> 
<circle cx="28.2000" cy="17.6000" r="0.1250" /> 
<circle cx="20.7000" cy="4.7000" r="0.1250" /> 
<circle cx="42.8000" cy="7.9000" r="0.1250" /> 
<circle cx="23.1000" cy="17.2000" r="0.1250" /> 
<circle cx="9.5000" cy="9.2000" r="0.1250" /> 
<circle cx="22.2000" cy="6.3000" r="0.1250" /> 
<circle cx="14.2000" cy="17.6000" r="0.1250" /> 
<circle cx="9.5000" cy="12.0000" r="0.1250" /> 
<circle cx="26.9000" cy="3.8000" r="0.1250" /> 
<circle cx="14.2000" cy="5.6000" r="0.1250" /> 
<circle cx="22.2000" cy="5.6000" r="0.1250" /> 
<circle cx="26.0000" cy="6.9000" r="0.1250" /> 
<circle cx="34.0000" cy="19.6000" r="0.1250" /> 
<circle cx="18.8000" cy="19.6000" r="0.1250" /> 
<circle cx="26.4000" cy="20.4000" r="0.1250" /> 
<circle cx="37.0000" cy="8.8000" r="0.1250" /> 
<circle cx="21.9000" cy="10.7000" r="0.1250" /> 
<circle cx="18.3000" cy="6.2000" r="0.1250" /> 
<circle cx="16.9000" cy="10.6000" r="0.1250" /> 
<circle cx="21.2000" cy="9.4750" r="0.1250" /> 
<circle cx="35.6000" cy="5.8000" r="0.1250" /> 
<circle cx="27.8062" cy="5.7500" r="0.1250" /> 
<circle cx="41.3500" cy="9.4062" r="0.1250" /> 
<circle cx="21.9500" cy="11.7938" r="0.1250" /> 
<circle cx="34.3000" cy="5.4000" r="0.1250" /> 
<circle cx="42.4000" cy="17.9000" r="0.1250" /> 
<circle cx="29.8000" cy="11.5000" r="0.1500" /> 
<circle cx="17.3250" cy="5.1250" r="0.1250" /> 
<circle cx="42.4000" cy="15.6000" r="0.1250" /> 
<circle cx="44.6000" cy="7.1000" r="0.1250" /> 
<circle cx="28.2000" cy="11.5000" r="0.1500" /> 
<circle cx="24.6500" cy="20.4000" r="0.1250" /> 
<circle cx="28.2000" cy="13.7000" r="0.1500" /> 
<circle cx="2.4062" cy="10.4500" r="0.1250" /> 
<circle cx="1.3500" cy="13.2062" r="0.1250" /> 
<circle cx="24.7000" cy="5.4000" r="0.1250" /> 
<circle cx="29.8000" cy="13.7000" r="0.1500" /> 
<circle cx="39.0111" cy="13.0250" r="0.1250" /> 
<circle cx="20.4312" cy="17.3250" r="0.1250" /> 
<circle cx="24.6500" cy="18.1000" r="0.1250" /> 
<circle cx="22.9062" cy="14.6500" r="0.1250" /> 
<circle cx="39.6000" cy="18.6000" r="0.1250" /> 
<circle cx="17.3250" cy="20.0750" r="0.1250" /> 
<circle cx="37.0000" cy="9.8000" r="0.1250" /> 
<circle cx="18.3000" cy="6.9000" r="0.1250" /> 
<circle cx="29.5000" cy="5.2000" r="0.1250" /> 
<circle cx="38.8000" cy="7.9000" r="0.1250" /> 
<circle cx="17.4000" cy="12.2000" r="0.1250" /> 
<circle cx="19.8000" cy="18.2000" r="0.1250" /> 
<circle cx="20.9000" cy="12.6000" r="0.1250" /> 
<circle cx="17.0000" cy="16.3000" r="0.1250" /> 
<circle cx="22.4000" cy="11.3000" r="0.1250" /> 
<circle cx="21.8000" cy="18.6000" r="0.1250" /> 
<circle cx="16.6000" cy="13.2000" r="0.1250" /> 
<circle cx="21.2000" cy="15.7250" r="0.1250" /> 
<circle cx="23.0000" cy="18.8000" r="0.1250" /> 
<circle cx="21.2000" cy="13.2250" r="0.1250" /> 
<circle cx="24.3000" cy="10.2000" r="0.1250" /> 
<circle cx="25.9000" cy="5.4000" r="0.1250" /> 
<circle cx="37.0000" cy="10.8000" r="0.1250" /> 
<circle cx="30.5000" cy="5.4000" r="0.1250" /> 
<circle cx="21.2000" cy="11.9750" r="0.1250" /> 
<circle cx="7.3000" cy="13.5000" r="0.1250" /> 
<circle cx="22.9000" cy="21.8000" r="0.1250" /> 
<circle cx="37.0000" cy="12.8000" r="0.1250" /> 
<circle cx="38.2000" cy="14.6000" r="0.1250" /> 
<circle cx="17.5000" cy="14.6000" r="0.1250" /> 
<circle cx="34.9000" cy="20.1000" r="0.1250" /> 
<circle cx="3.2000" cy="10.1000" r="0.1250" /> 
<circle cx="21.2000" cy="6.9750" r="0.1250" /> 
<circle cx="38.9000" cy="11.6000" r="0.1250" /> 
<circle cx="25.4000" cy="8.9000" r="0.1250" /> 
<circle cx="29.4000" cy="8.9000" r="0.1250" /> 
<circle cx="32.4000" cy="7.9000" r="0.1250" /> 
<circle cx="39.0000" cy="8.9000" r="0.1250" /> 
<circle cx="37.0000" cy="6.8000" r="0.1250" /> 
<circle cx="25.3000" cy="6.9000" r="0.1250" /> 
<circle cx="37.0000" cy="7.8000" r="0.1250" /> 
<circle cx="32.7000" cy="5.3000" r="0.1250" /> 
<circle cx="37.0000" cy="11.8000" r="0.1250" /> 
<circle cx="40.5000" cy="10.3000" r="0.1250" /> 
</g>
<g style="fill:#000000; fill-opacity:1.0000; stroke:none;">
<circle cx="6.0000" cy="18.6000" r="1.2000" /> 
<circle cx="45.0000" cy="12.6000" r="1.2000" /> 
<circle cx="6.0000" cy="6.6000" r="1.2000" /> 
</g> 
</svg>
