  0
SECTION
  2
HEADER
  9
$ACADVER
  1
AC1024
  9
$ACADMAINTVER
 70
6
  9
$DWGCODEPAGE
  3
ANSI_1252
  9
$LASTSAVEDBY
  1
ezdxf
  9
$INSBASE
 10
0.0
 20
0.0
 30
0.0
  9
$EXTMIN
 10
1e+20
 20
1e+20
 30
1e+20
  9
$EXTMAX
 10
-1e+20
 20
-1e+20
 30
-1e+20
  9
$LIMMIN
 10
0.0
 20
0.0
  9
$LIMMAX
 10
420.0
 20
297.0
  9
$ORTHOMODE
 70
0
  9
$REGENMODE
 70
1
  9
$FILLMODE
 70
1
  9
$QTEXTMODE
 70
0
  9
$MIRRTEXT
 70
1
  9
$LTSCALE
 40
1.0
  9
$ATTMODE
 70
1
  9
$TEXTSIZE
 40
2.5
  9
$TRACEWID
 40
1.0
  9
$TEXTSTYLE
  7
Standard
  9
$CLAYER
  8
0
  9
$CELTYPE
  6
ByLayer
  9
$CECOLOR
 62
256
  9
$CELTSCALE
 40
1.0
  9
$DISPSILH
 70
0
  9
$DIMSCALE
 40
1.0
  9
$DIMASZ
 40
2.5
  9
$DIMEXO
 40
0.625
  9
$DIMDLI
 40
3.75
  9
$DIMRND
 40
0.0
  9
$DIMDLE
 40
0.0
  9
$DIMEXE
 40
1.25
  9
$DIMTP
 40
0.0
  9
$DIMTM
 40
0.0
  9
$DIMTXT
 40
2.5
  9
$DIMCEN
 40
2.5
  9
$DIMTSZ
 40
0.0
  9
$DIMTOL
 70
0
  9
$DIMLIM
 70
0
  9
$DIMTIH
 70
0
  9
$DIMTOH
 70
0
  9
$DIMSE1
 70
0
  9
$DIMSE2
 70
0
  9
$DIMTAD
 70
1
  9
$DIMZIN
 70
8
  9
$DIMBLK
  1

  9
$DIMASO
 70
1
  9
$DIMSHO
 70
1
  9
$DIMPOST
  1

  9
$DIMAPOST
  1

  9
$DIMALT
 70
0
  9
$DIMALTD
 70
3
  9
$DIMALTF
 40
0.03937007874
  9
$DIMLFAC
 40
1.0
  9
$DIMTOFL
 70
1
  9
$DIMTVP
 40
0.0
  9
$DIMTIX
 70
0
  9
$DIMSOXD
 70
0
  9
$DIMSAH
 70
0
  9
$DIMBLK1
  1

  9
$DIMBLK2
  1

  9
$DIMSTYLE
  2
ISO-25
  9
$DIMCLRD
 70
0
  9
$DIMCLRE
 70
0
  9
$DIMCLRT
 70
0
  9
$DIMTFAC
 40
1.0
  9
$DIMGAP
 40
0.625
  9
$DIMJUST
 70
0
  9
$DIMSD1
 70
0
  9
$DIMSD2
 70
0
  9
$DIMTOLJ
 70
0
  9
$DIMTZIN
 70
8
  9
$DIMALTZ
 70
0
  9
$DIMALTTZ
 70
0
  9
$DIMUPT
 70
0
  9
$DIMDEC
 70
2
  9
$DIMTDEC
 70
2
  9
$DIMALTU
 70
2
  9
$DIMALTTD
 70
3
  9
$DIMTXSTY
  7
Standard
  9
$DIMAUNIT
 70
0
  9
$DIMADEC
 70
0
  9
$DIMALTRND
 40
0.0
  9
$DIMAZIN
 70
0
  9
$DIMDSEP
 70
44
  9
$DIMATFIT
 70
3
  9
$DIMFRAC
 70
0
  9
$DIMLDRBLK
  1

  9
$DIMLUNIT
 70
2
  9
$DIMLWD
 70
-2
  9
$DIMLWE
 70
-2
  9
$DIMTMOVE
 70
0
  9
$DIMFXL
 40
1.0
  9
$DIMFXLON
 70
0
  9
$DIMJOGANG
 40
0.785398163397
  9
$DIMTFILL
 70
0
  9
$DIMTFILLCLR
 70
0
  9
$DIMARCSYM
 70
0
  9
$DIMLTYPE
  6

  9
$DIMLTEX1
  6

  9
$DIMLTEX2
  6

  9
$DIMTXTDIRECTION
 70
0
  9
$LUNITS
 70
2
  9
$LUPREC
 70
4
  9
$SKETCHINC
 40
1.0
  9
$FILLETRAD
 40
10.0
  9
$AUNITS
 70
0
  9
$AUPREC
 70
2
  9
$MENU
  1
.
  9
$ELEVATION
 40
0.0
  9
$PELEVATION
 40
0.0
  9
$THICKNESS
 40
0.0
  9
$LIMCHECK
 70
0
  9
$CHAMFERA
 40
0.0
  9
$CHAMFERB
 40
0.0
  9
$CHAMFERC
 40
0.0
  9
$CHAMFERD
 40
0.0
  9
$SKPOLY
 70
0
  9
$TDCREATE
 40
2461311.627638889
  9
$TDUCREATE
 40
2458532.153996898
  9
$TDUPDATE
 40
2461311.627650463
  9
$TDUUPDATE
 40
2458532.1544311
  9
$TDINDWG
 40
0.0
  9
$TDUSRTIMER
 40
0.0
  9
$USRTIMER
 70
1
  9
$ANGBASE
 50
0.0
  9
$ANGDIR
 70
0
  9
$PDMODE
 70
0
  9
$PDSIZE
 40
0.0
  9
$PLINEWID
 40
0.0
  9
$SPLFRAME
 70
0
  9
$SPLINETYPE
 70
6
  9
$SPLINESEGS
 70
8
  9
$HANDSEED
  5
2B5
  9
$SURFTAB1
 70
6
  9
$SURFTAB2
 70
6
  9
$SURFTYPE
 70
6
  9
$SURFU
 70
6
  9
$SURFV
 70
6
  9
$UCSBASE
  2

  9
$UCSNAME
  2

  9
$UCSORG
 10
0.0
 20
0.0
 30
0.0
  9
$UCSXDIR
 10
1.0
 20
0.0
 30
0.0
  9
$UCSYDIR
 10
0.0
 20
1.0
 30
0.0
  9
$UCSORTHOREF
  2

  9
$UCSORTHOVIEW
 70
0
  9
$UCSORGTOP
 10
0.0
 20
0.0
 30
0.0
  9
$UCSORGBOTTOM
 10
0.0
 20
0.0
 30
0.0
  9
$UCSORGLEFT
 10
0.0
 20
0.0
 30
0.0
  9
$UCSORGRIGHT
 10
0.0
 20
0.0
 30
0.0
  9
$UCSORGFRONT
 10
0.0
 20
0.0
 30
0.0
  9
$UCSORGBACK
 10
0.0
 20
0.0
 30
0.0
  9
$PUCSBASE
  2

  9
$PUCSNAME
  2

  9
$PUCSORG
 10
0.0
 20
0.0
 30
0.0
  9
$PUCSXDIR
 10
1.0
 20
0.0
 30
0.0
  9
$PUCSYDIR
 10
0.0
 20
1.0
 30
0.0
  9
$PUCSORTHOREF
  2

  9
$PUCSORTHOVIEW
 70
0
  9
$PUCSORGTOP
 10
0.0
 20
0.0
 30
0.0
  9
$PUCSORGBOTTOM
 10
0.0
 20
0.0
 30
0.0
  9
$PUCSORGLEFT
 10
0.0
 20
0.0
 30
0.0
  9
$PUCSORGRIGHT
 10
0.0
 20
0.0
 30
0.0
  9
$PUCSORGFRONT
 10
0.0
 20
0.0
 30
0.0
  9
$PUCSORGBACK
 10
0.0
 20
0.0
 30
0.0
  9
$USERI1
 70
0
  9
$USERI2
 70
0
  9
$USERI3
 70
0
  9
$USERI4
 70
0
  9
$USERI5
 70
0
  9
$USERR1
 40
0.0
  9
$USERR2
 40
0.0
  9
$USERR3
 40
0.0
  9
$USERR4
 40
0.0
  9
$USERR5
 40
0.0
  9
$WORLDVIEW
 70
1
  9
$SHADEDGE
 70
3
  9
$SHADEDIF
 70
70
  9
$TILEMODE
 70
1
  9
$MAXACTVP
 70
64
  9
$PINSBASE
 10
0.0
 20
0.0
 30
0.0
  9
$PLIMCHECK
 70
0
  9
$PEXTMIN
 10
1e+20
 20
1e+20
 30
1e+20
  9
$PEXTMAX
 10
-1e+20
 20
-1e+20
 30
-1e+20
  9
$PLIMMIN
 10
0.0
 20
0.0
  9
$PLIMMAX
 10
420.0
 20
297.0
  9
$UNITMODE
 70
0
  9
$VISRETAIN
 70
1
  9
$PLINEGEN
 70
0
  9
$PSLTSCALE
 70
1
  9
$TREEDEPTH
 70
3020
  9
$CMLSTYLE
  2
Standard
  9
$CMLJUST
 70
0
  9
$CMLSCALE
 40
20.0
  9
$PROXYGRAPHICS
 70
1
  9
$MEASUREMENT
 70
1
  9
$CELWEIGHT
370
-1
  9
$ENDCAPS
280
0
  9
$JOINSTYLE
280
0
  9
$LWDISPLAY
290
0
  9
$INSUNITS
 70
4
  9
$HYPERLINKBASE
  1

  9
$STYLESHEET
  1

  9
$XEDIT
290
1
  9
$CEPSNTYPE
380
0
  9
$PSTYLEMODE
290
1
  9
$FINGERPRINTGUID
  2
{16EB5DF1-ACEC-470B-802B-F0ED1ADFB44E}
  9
$VERSIONGUID
  2
{B3B10109-FAB9-4AEC-A00E-F8F8F8584BD1}
  9
$EXTNAMES
290
1
  9
$PSVPSCALE
 40
0.0
  9
$OLESTARTUP
290
0
  9
$SORTENTS
280
127
  9
$INDEXCTL
280
0
  9
$HIDETEXT
280
1
  9
$XCLIPFRAME
280
1
  9
$HALOGAP
280
0
  9
$OBSCOLOR
 70
257
  9
$OBSLTYPE
280
0
  9
$INTERSECTIONDISPLAY
280
0
  9
$INTERSECTIONCOLOR
 70
257
  9
$DIMASSOC
280
2
  9
$PROJECTNAME
  1

  9
$CAMERADISPLAY
290
0
  9
$LENSLENGTH
 40
50.0
  9
$CAMERAHEIGHT
 40
0.0
  9
$STEPSPERSEC
 40
24.0
  9
$STEPSIZE
 40
100.0
  9
$3DDWFPREC
 40
2.0
  9
$PSOLWIDTH
 40
0.005
  9
$PSOLHEIGHT
 40
0.08
  9
$LOFTANG1
 40
1.570796326795
  9
$LOFTANG2
 40
1.570796326795
  9
$LOFTMAG1
 40
0.0
  9
$LOFTMAG2
 40
0.0
  9
$LOFTPARAM
 70
7
  9
$LOFTNORMALS
280
1
  9
$LATITUDE
 40
37.795
  9
$LONGITUDE
 40
-122.394
  9
$NORTHDIRECTION
 40
0.0
  9
$TIMEZONE
 70
-8000
  9
$LIGHTGLYPHDISPLAY
280
1
  9
$TILEMODELIGHTSYNCH
280
1
  9
$CMATERIAL
347
20
  9
$SOLIDHIST
280
0
  9
$SHOWHIST
280
1
  9
$DWFFRAME
280
2
  9
$DGNFRAME
280
2
  9
$REALWORLDSCALE
290
1
  9
$INTERFERECOLOR
 62
256
  9
$CSHADOW
280
0
  9
$SHADOWPLANELOCATION
 40
0.0
  0
ENDSEC
  0
SECTION
  2
CLASSES
  0
CLASS
  1
ACDBDICTIONARYWDFLT
  2
AcDbDictionaryWithDefault
  3
ObjectDBX Classes
 90
0
 91
0
280
0
281
0
  0
CLASS
  1
SUN
  2
AcDbSun
  3
SCENEOE
 90
1153
 91
0
280
0
281
0
  0
CLASS
  1
VISUALSTYLE
  2
AcDbVisualStyle
  3
ObjectDBX Classes
 90
4095
 91
0
280
0
281
0
  0
CLASS
  1
MATERIAL
  2
AcDbMaterial
  3
ObjectDBX Classes
 90
1153
 91
0
280
0
281
0
  0
CLASS
  1
SCALE
  2
AcDbScale
  3
ObjectDBX Classes
 90
1153
 91
0
280
0
281
0
  0
CLASS
  1
TABLESTYLE
  2
AcDbTableStyle
  3
ObjectDBX Classes
 90
4095
 91
0
280
0
281
0
  0
CLASS
  1
MLEADERSTYLE
  2
AcDbMLeaderStyle
  3
ACDB_MLEADERSTYLE_CLASS
 90
4095
 91
0
280
0
281
0
  0
CLASS
  1
DICTIONARYVAR
  2
AcDbDictionaryVar
  3
ObjectDBX Classes
 90
0
 91
0
280
0
281
0
  0
CLASS
  1
CELLSTYLEMAP
  2
AcDbCellStyleMap
  3
ObjectDBX Classes
 90
1152
 91
0
280
0
281
0
  0
CLASS
  1
MENTALRAYRENDERSETTINGS
  2
AcDbMentalRayRenderSettings
  3
SCENEOE
 90
1024
 91
0
280
0
281
0
  0
CLASS
  1
ACDBDETAILVIEWSTYLE
  2
AcDbDetailViewStyle
  3
ObjectDBX Classes
 90
1025
 91
0
280
0
281
0
  0
CLASS
  1
ACDBSECTIONVIEWSTYLE
  2
AcDbSectionViewStyle
  3
ObjectDBX Classes
 90
1025
 91
0
280
0
281
0
  0
CLASS
  1
RASTERVARIABLES
  2
AcDbRasterVariables
  3
ISM
 90
0
 91
0
280
0
281
0
  0
CLASS
  1
ACDBPLACEHOLDER
  2
AcDbPlaceHolder
  3
ObjectDBX Classes
 90
0
 91
0
280
0
281
0
  0
CLASS
  1
LAYOUT
  2
AcDbLayout
  3
ObjectDBX Classes
 90
0
 91
0
280
0
281
0
  0
ENDSEC
  0
SECTION
  2
TABLES
  0
TABLE
  2
VPORT
  5
8
330
0
100
AcDbSymbolTable
 70
1
  0
VPORT
  5
23
330
8
100
AcDbSymbolTableRecord
100
AcDbViewportTableRecord
  2
*Active
 70
0
 10
0.0
 20
0.0
 11
1.0
 21
1.0
 12
0.0
 22
0.0
 13
0.0
 23
0.0
 14
0.5
 24
0.5
 15
0.5
 25
0.5
 16
0.0
 26
0.0
 36
1.0
 17
0.0
 27
0.0
 37
0.0
 40
1000.0
 41
1.34
 42
50.0
 43
0.0
 44
0.0
 50
0.0
 51
0.0
 71
0
 72
1000
 73
1
 74
3
 75
0
 76
0
 77
0
 78
0
281
0
 65
0
146
0.0
  0
ENDTAB
  0
TABLE
  2
LTYPE
  5
2
330
0
100
AcDbSymbolTable
 70
3
  0
LTYPE
  5
24
330
2
100
AcDbSymbolTableRecord
100
AcDbLinetypeTableRecord
  2
ByBlock
 70
0
  3

 72
65
 73
0
 40
0.0
  0
LTYPE
  5
25
330
2
100
AcDbSymbolTableRecord
100
AcDbLinetypeTableRecord
  2
ByLayer
 70
0
  3

 72
65
 73
0
 40
0.0
  0
LTYPE
  5
26
330
2
100
AcDbSymbolTableRecord
100
AcDbLinetypeTableRecord
  2
Continuous
 70
0
  3

 72
65
 73
0
 40
0.0
  0
ENDTAB
  0
TABLE
  2
LAYER
  5
1
330
0
100
AcDbSymbolTable
 70
9
  0
LAYER
  5
27
330
1
100
AcDbSymbolTableRecord
100
AcDbLayerTableRecord
  2
0
 70
0
 62
7
  6
Continuous
370
-3
390
13
347
21
  0
LAYER
  5
28
330
1
100
AcDbSymbolTableRecord
100
AcDbLayerTableRecord
  2
Defpoints
 70
0
 62
7
  6
Continuous
290
0
370
-3
390
13
347
21
  0
LAYER
  5
2F
330
1
100
AcDbSymbolTableRecord
100
AcDbLayerTableRecord
  2
STRUCTURE
 70
0
 62
8
  6
Continuous
370
-3
390
13
347
21
  0
LAYER
  5
30
330
1
100
AcDbSymbolTableRecord
100
AcDbLayerTableRecord
  2
WINDOW
 70
0
 62
3
  6
Continuous
370
-3
390
13
347
21
  0
LAYER
  5
31
330
1
100
AcDbSymbolTableRecord
100
AcDbLayerTableRecord
  2
LED_LAND_ENVELOPE
 70
0
 62
2
  6
Continuous
370
-3
390
13
347
21
  0
LAYER
  5
32
330
1
100
AcDbSymbolTableRecord
100
AcDbLayerTableRecord
  2
CONTACT_RESERVE
 70
0
 62
4
  6
Continuous
370
-3
390
13
347
21
  0
LAYER
  5
33
330
1
100
AcDbSymbolTableRecord
100
AcDbLayerTableRecord
  2
PAD
 70
0
 62
5
  6
Continuous
370
-3
390
13
347
21
  0
LAYER
  5
34
330
1
100
AcDbSymbolTableRecord
100
AcDbLayerTableRecord
  2
CAMERA_PROXY
 70
0
 62
6
  6
Continuous
370
-3
390
13
347
21
  0
LAYER
  5
35
330
1
100
AcDbSymbolTableRecord
100
AcDbLayerTableRecord
  2
ANNOTATION
 70
0
 62
7
  6
Continuous
370
-3
390
13
347
21
  0
ENDTAB
  0
TABLE
  2
STYLE
  5
5
330
0
100
AcDbSymbolTable
 70
1
  0
STYLE
  5
29
330
5
100
AcDbSymbolTableRecord
100
AcDbTextStyleTableRecord
  2
Standard
 70
0
 40
0.0
 41
1.0
 50
0.0
 71
0
 42
2.5
  3
txt
  4

  0
ENDTAB
  0
TABLE
  2
VIEW
  5
7
330
0
100
AcDbSymbolTable
 70
0
  0
ENDTAB
  0
TABLE
  2
UCS
  5
6
330
0
100
AcDbSymbolTable
 70
0
  0
ENDTAB
  0
TABLE
  2
APPID
  5
3
330
0
100
AcDbSymbolTable
 70
3
  0
APPID
  5
2A
330
3
100
AcDbSymbolTableRecord
100
AcDbRegAppTableRecord
  2
ACAD
 70
0
  0
APPID
  5
2B2
330
3
100
AcDbSymbolTableRecord
100
AcDbRegAppTableRecord
  2
HATCHBACKGROUNDCOLOR
 70
0
  0
APPID
  5
2B3
330
3
100
AcDbSymbolTableRecord
100
AcDbRegAppTableRecord
  2
EZDXF
 70
0
  0
ENDTAB
  0
TABLE
  2
DIMSTYLE
  5
4
330
0
100
AcDbSymbolTable
 70
1
100
AcDbDimStyleTable
  0
DIMSTYLE
105
2B
330
4
100
AcDbSymbolTableRecord
100
AcDbDimStyleTableRecord
  2
Standard
 70
0
 40
1.0
 41
2.5
 42
0.625
 43
3.75
 44
1.25
 45
0.0
 46
0.0
 47
0.0
 48
0.0
 49
2.5
140
2.5
141
2.5
142
0.0
143
0.03937007874
144
1.0
145
0.0
146
1.0
147
0.625
148
0.0
 69
0
 70
0
 71
0
 72
0
 73
0
 74
0
 75
0
 76
0
 77
1
 78
8
 79
3
170
0
171
3
172
1
173
0
174
0
175
0
176
0
177
0
178
0
179
2
271
2
272
2
273
2
274
3
275
0
276
0
277
2
278
44
279
0
280
0
281
0
282
0
283
0
284
8
285
0
286
0
288
0
289
3
290
0
371
-2
372
-2
  0
ENDTAB
  0
TABLE
  2
BLOCK_RECORD
  5
9
330
0
100
AcDbSymbolTable
 70
2
  0
BLOCK_RECORD
  5
17
330
9
100
AcDbSymbolTableRecord
100
AcDbBlockTableRecord
  2
*Model_Space
340
1A
 70
0
280
1
281
0
  0
BLOCK_RECORD
  5
1B
330
9
100
AcDbSymbolTableRecord
100
AcDbBlockTableRecord
  2
*Paper_Space
340
1E
 70
0
280
1
281
0
  0
ENDTAB
  0
ENDSEC
  0
SECTION
  2
BLOCKS
  0
BLOCK
  5
18
330
17
100
AcDbEntity
  8
0
100
AcDbBlockBegin
  2
*Model_Space
 70
0
 10
0.0
 20
0.0
 30
0.0
  3
*Model_Space
  1

  0
ENDBLK
  5
19
330
17
100
AcDbEntity
  8
0
100
AcDbBlockEnd
  0
BLOCK
  5
1C
330
1B
100
AcDbEntity
  8
0
100
AcDbBlockBegin
  2
*Paper_Space
 70
0
 10
0.0
 20
0.0
 30
0.0
  3
*Paper_Space
  1

  0
ENDBLK
  5
1D
330
1B
100
AcDbEntity
  8
0
100
AcDbBlockEnd
  0
ENDSEC
  0
SECTION
  2
ENTITIES
  0
CIRCLE
  5
36
330
17
100
AcDbEntity
  8
STRUCTURE
100
AcDbCircle
 10
0.0
 20
0.0
 30
0.0
 40
45.0
  0
CIRCLE
  5
37
330
17
100
AcDbEntity
  8
WINDOW
100
AcDbCircle
 10
0.0
 20
0.0
 30
0.0
 40
31.0
  0
CIRCLE
  5
38
330
17
100
AcDbEntity
  8
CAMERA_PROXY
100
AcDbCircle
 10
0.0
 20
-50.0
 30
0.0
 40
13.0
  0
CIRCLE
  5
39
330
17
100
AcDbEntity
  8
CAMERA_PROXY
100
AcDbCircle
 10
0.0
 20
-50.0
 30
0.0
 40
8.0
  0
CIRCLE
  5
3A
330
17
100
AcDbEntity
  8
CAMERA_PROXY
100
AcDbCircle
 10
0.0
 20
50.0
 30
0.0
 40
13.0
  0
CIRCLE
  5
3B
330
17
100
AcDbEntity
  8
CAMERA_PROXY
100
AcDbCircle
 10
0.0
 20
50.0
 30
0.0
 40
8.0
  0
LWPOLYLINE
  5
3C
330
17
100
AcDbEntity
  8
STRUCTURE
100
AcDbPolyline
 90
8
 70
1
 10
64.46446243970942
 20
29.97648215450394
 10
91.17553265238608
 20
35.763979721972774
 10
146.50729818259683
 20
88.54660681943525
 10
173.3411551042957
 20
118.56700193185497
 10
170.70270349708088
 20
122.33510133558434
 10
133.31504014652276
 20
107.38710383808206
 10
64.79101658023797
 20
73.44497375926639
 10
50.216823760749435
 20
50.3242189346425
  0
LWPOLYLINE
  5
3D
330
17
100
AcDbEntity
  8
WINDOW
100
AcDbPolyline
 90
8
 70
1
 10
78.58149416360463
 20
41.54600311721179
 10
94.36257757431288
 20
45.85736095254266
 10
145.18807237898943
 20
90.43065652129994
 10
167.2518134144326
 20
112.61853004538739
 10
163.03029084288892
 20
118.64748909135437
 10
134.63426595013016
 20
105.5030541362174
 10
75.36572600236623
 20
72.98767665939408
 10
65.91692644897353
 20
59.632880255112724
  0
LWPOLYLINE
  5
3E
330
17
100
AcDbEntity
  8
CONTACT_RESERVE
100
AcDbPolyline
 90
4
 70
1
 10
144.95821464026662
 20
91.9543773324212
 10
164.61786370320243
 20
105.72021180484631
 10
155.64712823867205
 20
118.53174977752616
 10
135.98747917573627
 20
104.76591530510103
  0
LWPOLYLINE
  5
3F
330
17
100
AcDbEntity
  8
PAD
100
AcDbPolyline
 90
4
 70
1
 10
146.47500541751788
 20
95.0185159941083
 10
161.21974221471973
 20
105.34289184842712
 10
158.3518600329645
 20
109.43865206987209
 10
143.60712323576263
 20
99.11427621555325
  0
LWPOLYLINE
  5
40
330
17
100
AcDbEntity
  8
PAD
100
AcDbPolyline
 90
4
 70
1
 10
142.2534828459742
 20
101.04747504007527
 10
156.99821964317601
 20
111.3718508943941
 10
154.1303374614208
 20
115.46761111583905
 10
139.38560066421894
 20
105.14323526152023
  0
LWPOLYLINE
  5
41
330
17
100
AcDbEntity
  8
LED_LAND_ENVELOPE
100
AcDbPolyline
 90
4
 70
1
 10
80.83535177536723
 20
46.34701612134954
 10
82.80131668166081
 20
47.72359956859205
 10
82.34245553257998
 20
48.37892120402324
 10
80.3764906262864
 20
47.00233775678073
  0
LWPOLYLINE
  5
42
330
17
100
AcDbEntity
  8
LED_LAND_ENVELOPE
100
AcDbPolyline
 90
4
 70
1
 10
78.54104602996304
 20
49.623624298505504
 10
80.50701093625662
 20
51.000207745748014
 10
80.04814978717579
 20
51.65552938117921
 10
78.08218488088221
 20
50.2789459339367
  0
LWPOLYLINE
  5
43
330
17
100
AcDbEntity
  8
LED_LAND_ENVELOPE
100
AcDbPolyline
 90
4
 70
1
 10
76.24674028455885
 20
52.900232475661475
 10
78.21270519085243
 20
54.276815922903985
 10
77.7538440417716
 20
54.93213755833518
 10
75.78787913547802
 20
53.55555411109267
  0
LWPOLYLINE
  5
44
330
17
100
AcDbEntity
  8
LED_LAND_ENVELOPE
100
AcDbPolyline
 90
4
 70
1
 10
73.95243453915468
 20
56.17684065281745
 10
75.91839944544826
 20
57.55342410005996
 10
75.45953829636741
 20
58.20874573549115
 10
73.49357339007383
 20
56.83216228824864
  0
LWPOLYLINE
  5
45
330
17
100
AcDbEntity
  8
LED_LAND_ENVELOPE
100
AcDbPolyline
 90
4
 70
1
 10
71.65812879375049
 20
59.45344882997341
 10
73.62409370004407
 20
60.83003227721592
 10
73.16523255096322
 20
61.48535391264711
 10
71.19926764466965
 20
60.108770465404604
  0
LWPOLYLINE
  5
46
330
17
100
AcDbEntity
  8
LED_LAND_ENVELOPE
100
AcDbPolyline
 90
4
 70
1
 10
86.40626569792738
 20
45.36471368959776
 10
88.37223060422096
 20
46.74129713684027
 10
87.91336945514013
 20
47.39661877227146
 10
85.94740454884655
 20
46.02003532502895
  0
LWPOLYLINE
  5
47
330
17
100
AcDbEntity
  8
LED_LAND_ENVELOPE
100
AcDbPolyline
 90
4
 70
1
 10
84.1119599525232
 20
48.64132186675373
 10
86.07792485881677
 20
50.01790531399624
 10
85.61906370973594
 20
50.67322694942743
 10
83.65309880344236
 20
49.29664350218492
  0
LWPOLYLINE
  5
48
330
17
100
AcDbEntity
  8
LED_LAND_ENVELOPE
100
AcDbPolyline
 90
4
 70
1
 10
81.817654207119
 20
51.91793004390969
 10
83.78361911341258
 20
53.2945134911522
 10
83.32475796433175
 20
53.949835126583395
 10
81.35879305803817
 20
52.573251679340885
  0
LWPOLYLINE
  5
49
330
17
100
AcDbEntity
  8
LED_LAND_ENVELOPE
100
AcDbPolyline
 90
4
 70
1
 10
79.52334846171483
 20
55.194538221065656
 10
81.48931336800841
 20
56.571121668308166
 10
81.03045221892756
 20
57.22644330373936
 10
79.06448731263399
 20
55.84985985649685
  0
LWPOLYLINE
  5
4A
330
17
100
AcDbEntity
  8
LED_LAND_ENVELOPE
100
AcDbPolyline
 90
4
 70
1
 10
77.22904271631064
 20
58.47114639822163
 10
79.19500762260422
 20
59.84772984546414
 10
78.73614647352338
 20
60.50305148089533
 10
76.7701815672298
 20
59.12646803365282
  0
LWPOLYLINE
  5
4B
330
17
100
AcDbEntity
  8
LED_LAND_ENVELOPE
100
AcDbPolyline
 90
4
 70
1
 10
74.93473697090646
 20
61.7477545753776
 10
76.90070187720004
 20
63.12433802262011
 10
76.4418407281192
 20
63.7796596580513
 10
74.47587582182562
 20
62.40307621080879
  0
LWPOLYLINE
  5
4C
330
17
100
AcDbEntity
  8
LED_LAND_ENVELOPE
100
AcDbPolyline
 90
4
 70
1
 10
72.64043122550228
 20
65.02436275253356
 10
74.60639613179586
 20
66.40094619977607
 10
74.14753498271502
 20
67.05626783520727
 10
72.18157007642144
 20
65.67968438796476
  0
LWPOLYLINE
  5
4D
330
17
100
AcDbEntity
  8
LED_LAND_ENVELOPE
100
AcDbPolyline
 90
4
 70
1
 10
89.68287387508335
 20
47.659019435001944
 10
91.64883878137692
 20
49.035602882244454
 10
91.18997763229609
 20
49.69092451767565
 10
89.22401272600251
 20
48.31434107043314
  0
LWPOLYLINE
  5
4E
330
17
100
AcDbEntity
  8
LED_LAND_ENVELOPE
100
AcDbPolyline
 90
4
 70
1
 10
87.38856812967916
 20
50.93562761215791
 10
89.35453303597274
 20
52.312211059400425
 10
88.8956718868919
 20
52.96753269483162
 10
86.92970698059833
 20
51.5909492475891
  0
LWPOLYLINE
  5
4F
330
17
100
AcDbEntity
  8
LED_LAND_ENVELOPE
100
AcDbPolyline
 90
4
 70
1
 10
85.09426238427498
 20
54.21223578931388
 10
87.06022729056856
 20
55.58881923655639
 10
86.60136614148772
 20
56.24414087198758
 10
84.63540123519414
 20
54.86755742474507
  0
LWPOLYLINE
  5
50
330
17
100
AcDbEntity
  8
LED_LAND_ENVELOPE
100
AcDbPolyline
 90
4
 70
1
 10
82.7999566388708
 20
57.488843966469844
 10
84.76592154516437
 20
58.865427413712354
 10
84.30706039608354
 20
59.52074904914355
 10
82.34109548978995
 20
58.14416560190104
  0
LWPOLYLINE
  5
51
330
17
100
AcDbEntity
  8
LED_LAND_ENVELOPE
100
AcDbPolyline
 90
4
 70
1
 10
80.50565089346661
 20
60.76545214362581
 10
82.4716157997602
 20
62.142035590868325
 10
82.01275465067935
 20
62.79735722629952
 10
80.04678974438578
 20
61.420773779057
  0
LWPOLYLINE
  5
52
330
17
100
AcDbEntity
  8
LED_LAND_ENVELOPE
100
AcDbPolyline
 90
4
 70
1
 10
78.21134514806243
 20
64.04206032078179
 10
80.17731005435601
 20
65.4186437680243
 10
79.71844890527517
 20
66.07396540345549
 10
77.75248399898159
 20
64.69738195621298
  0
LWPOLYLINE
  5
53
330
17
100
AcDbEntity
  8
LED_LAND_ENVELOPE
100
AcDbPolyline
 90
4
 70
1
 10
75.91703940265825
 20
67.31866849793775
 10
77.88300430895183
 20
68.69525194518026
 10
77.424143159871
 20
69.35057358061145
 10
75.4581782535774
 20
67.97399013336894
  0
LWPOLYLINE
  5
54
330
17
100
AcDbEntity
  8
LED_LAND_ENVELOPE
100
AcDbPolyline
 90
4
 70
1
 10
92.95948205223931
 20
49.953325180406125
 10
94.92544695853289
 20
51.329908627648635
 10
94.46658580945206
 20
51.985230263079835
 10
92.50062090315848
 20
50.60864681583732
  0
LWPOLYLINE
  5
55
330
17
100
AcDbEntity
  8
LED_LAND_ENVELOPE
100
AcDbPolyline
 90
4
 70
1
 10
90.66517630683512
 20
53.22993335756209
 10
92.63114121312871
 20
54.606516804804606
 10
92.17228006404787
 20
55.2618384402358
 10
90.20631515775429
 20
53.88525499299328
  0
LWPOLYLINE
  5
56
330
17
100
AcDbEntity
  8
LED_LAND_ENVELOPE
100
AcDbPolyline
 90
4
 70
1
 10
88.37087056143095
 20
56.50654153471805
 10
90.33683546772453
 20
57.88312498196058
 10
89.8779743186437
 20
58.53844661739177
 10
87.9120094123501
 20
57.161863170149246
  0
LWPOLYLINE
  5
57
330
17
100
AcDbEntity
  8
LED_LAND_ENVELOPE
100
AcDbPolyline
 90
4
 70
1
 10
86.07656481602676
 20
59.783149711874024
 10
88.04252972232035
 20
61.15973315911654
 10
87.5836685732395
 20
61.815054794547734
 10
85.61770366694591
 20
60.43847134730522
  0
LWPOLYLINE
  5
58
330
17
100
AcDbEntity
  8
LED_LAND_ENVELOPE
100
AcDbPolyline
 90
4
 70
1
 10
83.78225907062257
 20
63.059757889029996
 10
85.74822397691617
 20
64.4363413362725
 10
85.28936282783532
 20
65.0916629717037
 10
83.32339792154174
 20
63.71507952446119
  0
LWPOLYLINE
  5
59
330
17
100
AcDbEntity
  8
LED_LAND_ENVELOPE
100
AcDbPolyline
 90
4
 70
1
 10
81.4879533252184
 20
66.33636606618596
 10
83.45391823151198
 20
67.71294951342847
 10
82.99505708243115
 20
68.36827114885966
 10
81.02909217613755
 20
66.99168770161715
  0
LWPOLYLINE
  5
5A
330
17
100
AcDbEntity
  8
LED_LAND_ENVELOPE
100
AcDbPolyline
 90
4
 70
1
 10
79.19364757981421
 20
69.61297424334192
 10
81.15961248610779
 20
70.98955769058443
 10
80.70075133702696
 20
71.64487932601564
 10
78.73478643073337
 20
70.26829587877312
  0
LWPOLYLINE
  5
5B
330
17
100
AcDbEntity
  8
LED_LAND_ENVELOPE
100
AcDbPolyline
 90
4
 70
1
 10
96.23609022939527
 20
52.247630925810306
 10
98.20205513568887
 20
53.62421437305282
 10
97.74319398660802
 20
54.279536008484015
 10
95.77722908031444
 20
52.9029525612415
  0
LWPOLYLINE
  5
5C
330
17
100
AcDbEntity
  8
LED_LAND_ENVELOPE
100
AcDbPolyline
 90
4
 70
1
 10
93.94178448399109
 20
55.52423910296628
 10
95.90774939028468
 20
56.90082255020879
 10
95.44888824120385
 20
57.55614418563998
 10
93.48292333491025
 20
56.17956073839747
  0
LWPOLYLINE
  5
5D
330
17
100
AcDbEntity
  8
LED_LAND_ENVELOPE
100
AcDbPolyline
 90
4
 70
1
 10
91.64747873858691
 20
58.80084728012224
 10
93.6134436448805
 20
60.17743072736476
 10
93.15458249579966
 20
60.83275236279595
 10
91.18861758950607
 20
59.456168915553434
  0
LWPOLYLINE
  5
5E
330
17
100
AcDbEntity
  8
LED_LAND_ENVELOPE
100
AcDbPolyline
 90
4
 70
1
 10
89.35317299318272
 20
62.077455457278205
 10
91.31913789947632
 20
63.45403890452073
 10
90.86027675039549
 20
64.10936053995192
 10
88.89431184410189
 20
62.7327770927094
  0
LWPOLYLINE
  5
5F
330
17
100
AcDbEntity
  8
LED_LAND_ENVELOPE
100
AcDbPolyline
 90
4
 70
1
 10
87.05886724777855
 20
65.35406363443417
 10
89.02483215407213
 20
66.7306470816767
 10
88.5659710049913
 20
67.38596871710789
 10
86.6000060986977
 20
66.00938526986536
  0
LWPOLYLINE
  5
60
330
17
100
AcDbEntity
  8
LED_LAND_ENVELOPE
100
AcDbPolyline
 90
4
 70
1
 10
84.76456150237436
 20
68.63067181159015
 10
86.73052640866794
 20
70.00725525883266
 10
86.27166525958711
 20
70.66257689426385
 10
84.30570035329352
 20
69.28599344702134
  0
LWPOLYLINE
  5
61
330
17
100
AcDbEntity
  8
LED_LAND_ENVELOPE
100
AcDbPolyline
 90
4
 70
1
 10
82.47025575697018
 20
71.90727998874611
 10
84.43622066326375
 20
73.28386343598862
 10
83.97735951418292
 20
73.93918507141981
 10
82.01139460788934
 20
72.5626016241773
  0
LWPOLYLINE
  5
62
330
17
100
AcDbEntity
  8
LED_LAND_ENVELOPE
100
AcDbPolyline
 90
4
 70
1
 10
99.51269840655124
 20
54.541936671214486
 10
101.47866331284483
 20
55.91852011845701
 10
101.01980216376398
 20
56.5738417538882
 10
99.0538372574704
 20
55.197258306645686
  0
LWPOLYLINE
  5
63
330
17
100
AcDbEntity
  8
LED_LAND_ENVELOPE
100
AcDbPolyline
 90
4
 70
1
 10
97.21839266114705
 20
57.81854484837046
 10
99.18435756744064
 20
59.195128295612975
 10
98.72549641835981
 20
59.85044993104417
 10
96.75953151206622
 20
58.47386648380165
  0
LWPOLYLINE
  5
64
330
17
100
AcDbEntity
  8
LED_LAND_ENVELOPE
100
AcDbPolyline
 90
4
 70
1
 10
94.92408691574288
 20
61.09515302552643
 10
96.89005182203647
 20
62.47173647276894
 10
96.43119067295562
 20
63.12705810820013
 10
94.46522576666203
 20
61.75047466095762
  0
LWPOLYLINE
  5
65
330
17
100
AcDbEntity
  8
LED_LAND_ENVELOPE
100
AcDbPolyline
 90
4
 70
1
 10
92.62978117033869
 20
64.37176120268239
 10
94.59574607663228
 20
65.74834464992492
 10
94.13688492755145
 20
66.40366628535611
 10
92.17092002125786
 20
65.02708283811359
  0
LWPOLYLINE
  5
66
330
17
100
AcDbEntity
  8
LED_LAND_ENVELOPE
100
AcDbPolyline
 90
4
 70
1
 10
90.33547542493451
 20
67.64836937983836
 10
92.3014403312281
 20
69.02495282708088
 10
91.84257918214726
 20
69.68027446251207
 10
89.87661427585367
 20
68.30369101526955
  0
LWPOLYLINE
  5
67
330
17
100
AcDbEntity
  8
LED_LAND_ENVELOPE
100
AcDbPolyline
 90
4
 70
1
 10
88.04116967953033
 20
70.92497755699432
 10
90.0071345858239
 20
72.30156100423685
 10
89.54827343674307
 20
72.95688263966804
 10
87.58230853044948
 20
71.58029919242551
  0
LWPOLYLINE
  5
68
330
17
100
AcDbEntity
  8
LED_LAND_ENVELOPE
100
AcDbPolyline
 90
4
 70
1
 10
85.74686393412614
 20
74.20158573415029
 10
87.71282884041972
 20
75.57816918139281
 10
87.25396769133889
 20
76.233490816824
 10
85.28800278504531
 20
74.85690736958148
  0
LWPOLYLINE
  5
69
330
17
100
AcDbEntity
  8
LED_LAND_ENVELOPE
100
AcDbPolyline
 90
4
 70
1
 10
102.78930658370722
 20
56.836242416618674
 10
104.75527149000081
 20
58.21282586386119
 10
104.29641034091996
 20
58.86814749929239
 10
102.33044543462637
 20
57.49156405204987
  0
LWPOLYLINE
  5
6A
330
17
100
AcDbEntity
  8
LED_LAND_ENVELOPE
100
AcDbPolyline
 90
4
 70
1
 10
100.49500083830303
 20
60.11285059377464
 10
102.46096574459662
 20
61.48943404101716
 10
102.00210459551579
 20
62.144755676448355
 10
100.0361396892222
 20
60.76817222920583
  0
LWPOLYLINE
  5
6B
330
17
100
AcDbEntity
  8
LED_LAND_ENVELOPE
100
AcDbPolyline
 90
4
 70
1
 10
98.20069509289885
 20
63.38945877093061
 10
100.16665999919243
 20
64.76604221817313
 10
99.7077988501116
 20
65.42136385360432
 10
97.74183394381801
 20
64.04478040636181
  0
LWPOLYLINE
  5
6C
330
17
100
AcDbEntity
  8
LED_LAND_ENVELOPE
100
AcDbPolyline
 90
4
 70
1
 10
95.90638934749467
 20
66.66606694808658
 10
97.87235425378825
 20
68.04265039532909
 10
97.41349310470741
 20
68.69797203076028
 10
95.44752819841383
 20
67.32138858351777
  0
LWPOLYLINE
  5
6D
330
17
100
AcDbEntity
  8
LED_LAND_ENVELOPE
100
AcDbPolyline
 90
4
 70
1
 10
93.61208360209048
 20
69.94267512524254
 10
95.57804850838406
 20
71.31925857248507
 10
95.11918735930323
 20
71.97458020791626
 10
93.15322245300965
 20
70.59799676067374
  0
LWPOLYLINE
  5
6E
330
17
100
AcDbEntity
  8
LED_LAND_ENVELOPE
100
AcDbPolyline
 90
4
 70
1
 10
91.31777785668629
 20
73.21928330239851
 10
93.28374276297987
 20
74.59586674964103
 10
92.82488161389904
 20
75.25118838507223
 10
90.85891670760546
 20
73.8746049378297
  0
LWPOLYLINE
  5
6F
330
17
100
AcDbEntity
  8
LED_LAND_ENVELOPE
100
AcDbPolyline
 90
4
 70
1
 10
89.0234721112821
 20
76.49589147955447
 10
90.9894370175757
 20
77.872474926797
 10
90.53057586849485
 20
78.52779656222819
 10
88.56461096220127
 20
77.15121311498567
  0
LWPOLYLINE
  5
70
330
17
100
AcDbEntity
  8
LED_LAND_ENVELOPE
100
AcDbPolyline
 90
4
 70
1
 10
106.06591476086318
 20
59.13054816202286
 10
108.03187966715677
 20
60.50713160926537
 10
107.57301851807593
 20
61.16245324469657
 10
105.60705361178233
 20
59.785869797454055
  0
LWPOLYLINE
  5
71
330
17
100
AcDbEntity
  8
LED_LAND_ENVELOPE
100
AcDbPolyline
 90
4
 70
1
 10
103.77160901545899
 20
62.407156339178826
 10
105.73757392175258
 20
63.78373978642134
 10
105.27871277267175
 20
64.43906142185253
 10
103.31274786637816
 20
63.06247797461002
  0
LWPOLYLINE
  5
72
330
17
100
AcDbEntity
  8
LED_LAND_ENVELOPE
100
AcDbPolyline
 90
4
 70
1
 10
101.47730327005482
 20
65.68376451633479
 10
103.4432681763484
 20
67.06034796357731
 10
102.98440702726757
 20
67.7156695990085
 10
101.01844212097397
 20
66.33908615176598
  0
LWPOLYLINE
  5
73
330
17
100
AcDbEntity
  8
LED_LAND_ENVELOPE
100
AcDbPolyline
 90
4
 70
1
 10
99.18299752465063
 20
68.96037269349077
 10
101.14896243094421
 20
70.33695614073328
 10
100.69010128186338
 20
70.99227777616447
 10
98.7241363755698
 20
69.61569432892196
  0
LWPOLYLINE
  5
74
330
17
100
AcDbEntity
  8
LED_LAND_ENVELOPE
100
AcDbPolyline
 90
4
 70
1
 10
96.88869177924644
 20
72.23698087064673
 10
98.85465668554002
 20
73.61356431788924
 10
98.39579553645919
 20
74.26888595332045
 10
96.42983063016561
 20
72.89230250607793
  0
LWPOLYLINE
  5
75
330
17
100
AcDbEntity
  8
LED_LAND_ENVELOPE
100
AcDbPolyline
 90
4
 70
1
 10
94.59438603384226
 20
75.5135890478027
 10
96.56035094013583
 20
76.89017249504522
 10
96.101489791055
 20
77.54549413047641
 10
94.13552488476142
 20
76.16891068323389
  0
LWPOLYLINE
  5
76
330
17
100
AcDbEntity
  8
LED_LAND_ENVELOPE
100
AcDbPolyline
 90
4
 70
1
 10
92.30008028843807
 20
78.79019722495866
 10
94.26604519473166
 20
80.16678067220118
 10
93.80718404565081
 20
80.82210230763238
 10
91.84121913935724
 20
79.44551886038985
  0
LWPOLYLINE
  5
77
330
17
100
AcDbEntity
  8
LED_LAND_ENVELOPE
100
AcDbPolyline
 90
4
 70
1
 10
109.34252293801916
 20
61.42485390742704
 10
111.30848784431274
 20
62.80143735466956
 10
110.8496266952319
 20
63.45675899010075
 10
108.88366178893831
 20
62.08017554285824
  0
LWPOLYLINE
  5
78
330
17
100
AcDbEntity
  8
LED_LAND_ENVELOPE
100
AcDbPolyline
 90
4
 70
1
 10
107.04821719261497
 20
64.70146208458301
 10
109.01418209890855
 20
66.07804553182552
 10
108.55532094982772
 20
66.73336716725672
 10
106.58935604353414
 20
65.3567837200142
  0
LWPOLYLINE
  5
79
330
17
100
AcDbEntity
  8
LED_LAND_ENVELOPE
100
AcDbPolyline
 90
4
 70
1
 10
104.75391144721078
 20
67.97807026173898
 10
106.71987635350436
 20
69.35465370898149
 10
106.26101520442353
 20
70.00997534441268
 10
104.29505029812995
 20
68.63339189717017
  0
LWPOLYLINE
  5
7A
330
17
100
AcDbEntity
  8
LED_LAND_ENVELOPE
100
AcDbPolyline
 90
4
 70
1
 10
102.4596057018066
 20
71.25467843889494
 10
104.42557060810017
 20
72.63126188613745
 10
103.96670945901934
 20
73.28658352156864
 10
102.00074455272576
 20
71.91000007432613
  0
LWPOLYLINE
  5
7B
330
17
100
AcDbEntity
  8
LED_LAND_ENVELOPE
100
AcDbPolyline
 90
4
 70
1
 10
100.16529995640241
 20
74.53128661605092
 10
102.131264862696
 20
75.90787006329342
 10
101.67240371361515
 20
76.56319169872462
 10
99.70643880732158
 20
75.18660825148211
  0
LWPOLYLINE
  5
7C
330
17
100
AcDbEntity
  8
LED_LAND_ENVELOPE
100
AcDbPolyline
 90
4
 70
1
 10
97.87099421099822
 20
77.80789479320688
 10
99.83695911729181
 20
79.1844782404494
 10
99.37809796821098
 20
79.83979987588059
 10
97.41213306191739
 20
78.46321642863808
  0
LWPOLYLINE
  5
7D
330
17
100
AcDbEntity
  8
LED_LAND_ENVELOPE
100
AcDbPolyline
 90
4
 70
1
 10
95.57668846559405
 20
81.08450297036285
 10
97.54265337188764
 20
82.46108641760536
 10
97.08379222280679
 20
83.11640805303655
 10
95.1178273165132
 20
81.73982460579404
  0
LWPOLYLINE
  5
7E
330
17
100
AcDbEntity
  8
LED_LAND_ENVELOPE
100
AcDbPolyline
 90
4
 70
1
 10
110.32482536977093
 20
66.99576782998719
 10
112.29079027606451
 20
68.37235127722971
 10
111.83192912698368
 20
69.0276729126609
 10
109.8659642206901
 20
67.65108946541838
  0
LWPOLYLINE
  5
7F
330
17
100
AcDbEntity
  8
LED_LAND_ENVELOPE
100
AcDbPolyline
 90
4
 70
1
 10
108.03051962436675
 20
70.27237600714317
 10
109.99648453066033
 20
71.64895945438568
 10
109.5376233815795
 20
72.30428108981687
 10
107.57165847528591
 20
70.92769764257436
  0
LWPOLYLINE
  5
80
330
17
100
AcDbEntity
  8
LED_LAND_ENVELOPE
100
AcDbPolyline
 90
4
 70
1
 10
105.73621387896256
 20
73.54898418429913
 10
107.70217878525614
 20
74.92556763154164
 10
107.2433176361753
 20
75.58088926697283
 10
105.27735272988173
 20
74.20430581973032
  0
LWPOLYLINE
  5
81
330
17
100
AcDbEntity
  8
LED_LAND_ENVELOPE
100
AcDbPolyline
 90
4
 70
1
 10
103.44190813355837
 20
76.8255923614551
 10
105.40787303985196
 20
78.2021758086976
 10
104.94901189077112
 20
78.85749744412881
 10
102.98304698447754
 20
77.4809139968863
  0
LWPOLYLINE
  5
82
330
17
100
AcDbEntity
  8
LED_LAND_ENVELOPE
100
AcDbPolyline
 90
4
 70
1
 10
101.14760238815418
 20
80.10220053861107
 10
103.11356729444778
 20
81.47878398585358
 10
102.65470614536694
 20
82.13410562128477
 10
100.68874123907335
 20
80.75752217404226
  0
LWPOLYLINE
  5
83
330
17
100
AcDbEntity
  8
LED_LAND_ENVELOPE
100
AcDbPolyline
 90
4
 70
1
 10
113.6014335469269
 20
69.29007357539138
 10
115.56739845322048
 20
70.6666570226339
 10
115.10853730413965
 20
71.32197865806509
 10
113.14257239784607
 20
69.94539521082257
  0
LWPOLYLINE
  5
84
330
17
100
AcDbEntity
  8
LED_LAND_ENVELOPE
100
AcDbPolyline
 90
4
 70
1
 10
111.30712780152271
 20
72.56668175254734
 10
113.27309270781629
 20
73.94326519978986
 10
112.81423155873546
 20
74.59858683522106
 10
110.84826665244188
 20
73.22200338797855
  0
LWPOLYLINE
  5
85
330
17
100
AcDbEntity
  8
LED_LAND_ENVELOPE
100
AcDbPolyline
 90
4
 70
1
 10
109.01282205611852
 20
75.84328992970332
 10
110.9787869624121
 20
77.21987337694583
 10
110.51992581333127
 20
77.87519501237702
 10
108.55396090703769
 20
76.49861156513451
  0
LWPOLYLINE
  5
86
330
17
100
AcDbEntity
  8
LED_LAND_ENVELOPE
100
AcDbPolyline
 90
4
 70
1
 10
106.71851631071435
 20
79.11989810685928
 10
108.68448121700793
 20
80.49648155410179
 10
108.22562006792708
 20
81.15180318953298
 10
106.2596551616335
 20
79.77521974229049
  0
LWPOLYLINE
  5
87
330
17
100
AcDbEntity
  8
LED_LAND_ENVELOPE
100
AcDbPolyline
 90
4
 70
1
 10
104.42421056531016
 20
82.39650628401526
 10
106.39017547160374
 20
83.77308973125776
 10
105.93131432252291
 20
84.42841136668895
 10
103.96534941622933
 20
83.05182791944645
  0
LWPOLYLINE
  5
88
330
17
100
AcDbEntity
  8
LED_LAND_ENVELOPE
100
AcDbPolyline
 90
4
 70
1
 10
116.87804172408286
 20
71.58437932079556
 10
118.84400663037644
 20
72.96096276803809
 10
118.38514548129561
 20
73.61628440346928
 10
116.41918057500203
 20
72.23970095622676
  0
LWPOLYLINE
  5
89
330
17
100
AcDbEntity
  8
LED_LAND_ENVELOPE
100
AcDbPolyline
 90
4
 70
1
 10
114.58373597867867
 20
74.86098749795153
 10
116.54970088497227
 20
76.23757094519405
 10
116.09083973589142
 20
76.89289258062524
 10
114.12487482959784
 20
75.51630913338272
  0
LWPOLYLINE
  5
8A
330
17
100
AcDbEntity
  8
LED_LAND_ENVELOPE
100
AcDbPolyline
 90
4
 70
1
 10
112.28943023327449
 20
78.13759567510749
 10
114.25539513956808
 20
79.51417912235001
 10
113.79653399048725
 20
80.16950075778121
 10
111.83056908419366
 20
78.79291731053868
  0
LWPOLYLINE
  5
8B
330
17
100
AcDbEntity
  8
LED_LAND_ENVELOPE
100
AcDbPolyline
 90
4
 70
1
 10
109.99512448787031
 20
81.41420385226346
 10
111.9610893941639
 20
82.79078729950598
 10
111.50222824508306
 20
83.44610893493717
 10
109.53626333878947
 20
82.06952548769466
  0
LWPOLYLINE
  5
8C
330
17
100
AcDbEntity
  8
LED_LAND_ENVELOPE
100
AcDbPolyline
 90
4
 70
1
 10
107.70081874246613
 20
84.69081202941943
 10
109.66678364875972
 20
86.06739547666194
 10
109.20792249967889
 20
86.72271711209314
 10
107.2419575933853
 20
85.34613366485063
  0
LWPOLYLINE
  5
8D
330
17
100
AcDbEntity
  8
LED_LAND_ENVELOPE
100
AcDbPolyline
 90
4
 70
1
 10
120.15464990123883
 20
73.87868506619975
 10
122.12061480753242
 20
75.25526851344226
 10
121.66175365845157
 20
75.91059014887345
 10
119.695788752158
 20
74.53400670163094
  0
LWPOLYLINE
  5
8E
330
17
100
AcDbEntity
  8
LED_LAND_ENVELOPE
100
AcDbPolyline
 90
4
 70
1
 10
117.86034415583464
 20
77.15529324335571
 10
119.82630906212823
 20
78.53187669059822
 10
119.36744791304739
 20
79.18719832602943
 10
117.4014830067538
 20
77.81061487878691
  0
LWPOLYLINE
  5
8F
330
17
100
AcDbEntity
  8
LED_LAND_ENVELOPE
100
AcDbPolyline
 90
4
 70
1
 10
115.56603841043045
 20
80.43190142051168
 10
117.53200331672404
 20
81.8084848677542
 10
117.07314216764321
 20
82.4638065031854
 10
115.10717726134962
 20
81.08722305594287
  0
LWPOLYLINE
  5
90
330
17
100
AcDbEntity
  8
LED_LAND_ENVELOPE
100
AcDbPolyline
 90
4
 70
1
 10
113.27173266502628
 20
83.70850959766764
 10
115.23769757131987
 20
85.08509304491017
 10
114.77883642223902
 20
85.74041468034136
 10
112.81287151594543
 20
84.36383123309885
  0
LWPOLYLINE
  5
91
330
17
100
AcDbEntity
  8
LED_LAND_ENVELOPE
100
AcDbPolyline
 90
4
 70
1
 10
110.97742691962209
 20
86.98511777482362
 10
112.94339182591568
 20
88.36170122206613
 10
112.48453067683485
 20
89.01702285749732
 10
110.51856577054126
 20
87.64043941025481
  0
LWPOLYLINE
  5
92
330
17
100
AcDbEntity
  8
LED_LAND_ENVELOPE
100
AcDbPolyline
 90
4
 70
1
 10
123.4312580783948
 20
76.17299081160394
 10
125.39722298468838
 20
77.54957425884645
 10
124.93836183560755
 20
78.20489589427764
 10
122.97239692931396
 20
76.82831244703513
  0
LWPOLYLINE
  5
93
330
17
100
AcDbEntity
  8
LED_LAND_ENVELOPE
100
AcDbPolyline
 90
4
 70
1
 10
121.13695233299062
 20
79.4495989887599
 10
123.1029172392842
 20
80.82618243600241
 10
122.64405609020336
 20
81.48150407143362
 10
120.67809118390977
 20
80.1049206241911
  0
LWPOLYLINE
  5
94
330
17
100
AcDbEntity
  8
LED_LAND_ENVELOPE
100
AcDbPolyline
 90
4
 70
1
 10
118.84264658758643
 20
82.72620716591587
 10
120.80861149388002
 20
84.10279061315839
 10
120.34975034479919
 20
84.75811224858958
 10
118.3837854385056
 20
83.38152880134706
  0
LWPOLYLINE
  5
95
330
17
100
AcDbEntity
  8
LED_LAND_ENVELOPE
100
AcDbPolyline
 90
4
 70
1
 10
116.54834084218226
 20
86.00281534307183
 10
118.51430574847583
 20
87.37939879031435
 10
118.055444599395
 20
88.03472042574555
 10
116.08947969310141
 20
86.65813697850302
  0
LWPOLYLINE
  5
96
330
17
100
AcDbEntity
  8
LED_LAND_ENVELOPE
100
AcDbPolyline
 90
4
 70
1
 10
114.25403509677807
 20
89.2794235202278
 10
116.22000000307165
 20
90.65600696747032
 10
115.76113885399081
 20
91.31132860290151
 10
113.79517394769724
 20
89.93474515565899
  0
LWPOLYLINE
  5
97
330
17
100
AcDbEntity
  8
LED_LAND_ENVELOPE
100
AcDbPolyline
 90
4
 70
1
 10
126.70786625555077
 20
78.46729655700813
 10
128.67383116184436
 20
79.84388000425062
 10
128.2149700127635
 20
80.49920163968181
 10
126.24900510646992
 20
79.12261819243932
  0
LWPOLYLINE
  5
98
330
17
100
AcDbEntity
  8
LED_LAND_ENVELOPE
100
AcDbPolyline
 90
4
 70
1
 10
124.41356051014658
 20
81.74390473416409
 10
126.37952541644017
 20
83.12048818140659
 10
125.92066426735934
 20
83.77580981683779
 10
123.95469936106575
 20
82.39922636959528
  0
LWPOLYLINE
  5
99
330
17
100
AcDbEntity
  8
LED_LAND_ENVELOPE
100
AcDbPolyline
 90
4
 70
1
 10
122.1192547647424
 20
85.02051291132005
 10
124.08521967103599
 20
86.39709635856256
 10
123.62635852195515
 20
87.05241799399376
 10
121.66039361566156
 20
85.67583454675125
  0
LWPOLYLINE
  5
9A
330
17
100
AcDbEntity
  8
LED_LAND_ENVELOPE
100
AcDbPolyline
 90
4
 70
1
 10
119.82494901933822
 20
88.29712108847602
 10
121.7909139256318
 20
89.67370453571853
 10
121.33205277655097
 20
90.32902617114974
 10
119.36608787025737
 20
88.95244272390721
  0
LWPOLYLINE
  5
9B
330
17
100
AcDbEntity
  8
LED_LAND_ENVELOPE
100
AcDbPolyline
 90
4
 70
1
 10
117.53064327393403
 20
91.57372926563198
 10
119.49660818022761
 20
92.9503127128745
 10
119.03774703114678
 20
93.6056343483057
 10
117.0717821248532
 20
92.22905090106318
  0
LWPOLYLINE
  5
9C
330
17
100
AcDbEntity
  8
LED_LAND_ENVELOPE
100
AcDbPolyline
 90
4
 70
1
 10
129.98447443270675
 20
80.7616023024123
 10
131.95043933900033
 20
82.13818574965481
 10
131.4915781899195
 20
82.793507385086
 10
129.5256132836259
 20
81.41692393784349
  0
LWPOLYLINE
  5
9D
330
17
100
AcDbEntity
  8
LED_LAND_ENVELOPE
100
AcDbPolyline
 90
4
 70
1
 10
127.69016868730255
 20
84.03821047956826
 10
129.65613359359614
 20
85.41479392681077
 10
129.1972724445153
 20
86.07011556224198
 10
127.23130753822171
 20
84.69353211499947
  0
LWPOLYLINE
  5
9E
330
17
100
AcDbEntity
  8
LED_LAND_ENVELOPE
100
AcDbPolyline
 90
4
 70
1
 10
125.39586294189836
 20
87.31481865672424
 10
127.36182784819195
 20
88.69140210396675
 10
126.90296669911112
 20
89.34672373939794
 10
124.93700179281753
 20
87.97014029215543
  0
LWPOLYLINE
  5
9F
330
17
100
AcDbEntity
  8
LED_LAND_ENVELOPE
100
AcDbPolyline
 90
4
 70
1
 10
123.10155719649417
 20
90.5914268338802
 10
125.06752210278776
 20
91.96801028112272
 10
124.60866095370693
 20
92.62333191655392
 10
122.64269604741334
 20
91.2467484693114
  0
LWPOLYLINE
  5
A0
330
17
100
AcDbEntity
  8
LED_LAND_ENVELOPE
100
AcDbPolyline
 90
4
 70
1
 10
120.80725145109
 20
93.86803501103617
 10
122.77321635738359
 20
95.2446184582787
 10
122.31435520830274
 20
95.89994009370989
 10
120.34839030200916
 20
94.52335664646736
  0
LWPOLYLINE
  5
A1
330
17
100
AcDbEntity
  8
LED_LAND_ENVELOPE
100
AcDbPolyline
 90
4
 70
1
 10
133.2610826098627
 20
83.05590804781649
 10
135.2270475161563
 20
84.432491495059
 10
134.76818636707543
 20
85.08781313049019
 10
132.80222146078188
 20
83.71122968324768
  0
LWPOLYLINE
  5
A2
330
17
100
AcDbEntity
  8
LED_LAND_ENVELOPE
100
AcDbPolyline
 90
4
 70
1
 10
130.96677686445852
 20
86.33251622497245
 10
132.9327417707521
 20
87.70909967221496
 10
132.47388062167127
 20
88.36442130764615
 10
130.5079157153777
 20
86.98783786040366
  0
LWPOLYLINE
  5
A3
330
17
100
AcDbEntity
  8
LED_LAND_ENVELOPE
100
AcDbPolyline
 90
4
 70
1
 10
128.67247111905434
 20
89.60912440212843
 10
130.63843602534791
 20
90.98570784937093
 10
130.17957487626708
 20
91.64102948480212
 10
128.2136099699735
 20
90.26444603755962
  0
LWPOLYLINE
  5
A4
330
17
100
AcDbEntity
  8
LED_LAND_ENVELOPE
100
AcDbPolyline
 90
4
 70
1
 10
126.37816537365015
 20
92.8857325792844
 10
128.34413027994373
 20
94.26231602652689
 10
127.8852691308629
 20
94.9176376619581
 10
125.91930422456932
 20
93.54105421471559
  0
LWPOLYLINE
  5
A5
330
17
100
AcDbEntity
  8
LED_LAND_ENVELOPE
100
AcDbPolyline
 90
4
 70
1
 10
124.08385962824597
 20
96.16234075644036
 10
126.04982453453955
 20
97.53892420368287
 10
125.5909633854587
 20
98.19424583911406
 10
123.62499847916513
 20
96.81766239187155
  0
LWPOLYLINE
  5
A6
330
17
100
AcDbEntity
  8
LED_LAND_ENVELOPE
100
AcDbPolyline
 90
4
 70
1
 10
136.53769078701868
 20
85.35021379322066
 10
138.50365569331225
 20
86.72679724046318
 10
138.04479454423142
 20
87.38211887589438
 10
136.07882963793782
 20
86.00553542865185
  0
LWPOLYLINE
  5
A7
330
17
100
AcDbEntity
  8
LED_LAND_ENVELOPE
100
AcDbPolyline
 90
4
 70
1
 10
134.2433850416145
 20
88.62682197037662
 10
136.20934994790807
 20
90.00340541761915
 10
135.75048879882723
 20
90.65872705305034
 10
133.78452389253366
 20
89.28214360580783
  0
LWPOLYLINE
  5
A8
330
17
100
AcDbEntity
  8
LED_LAND_ENVELOPE
100
AcDbPolyline
 90
4
 70
1
 10
131.9490792962103
 20
91.9034301475326
 10
133.91504420250388
 20
93.28001359477511
 10
133.45618305342305
 20
93.9353352302063
 10
131.49021814712947
 20
92.5587517829638
  0
LWPOLYLINE
  5
A9
330
17
100
AcDbEntity
  8
LED_LAND_ENVELOPE
100
AcDbPolyline
 90
4
 70
1
 10
129.6547735508061
 20
95.18003832468857
 10
131.6207384570997
 20
96.55662177193108
 10
131.16187730801886
 20
97.21194340736228
 10
129.19591240172528
 20
95.83535996011977
  0
LWPOLYLINE
  5
AA
330
17
100
AcDbEntity
  8
LED_LAND_ENVELOPE
100
AcDbPolyline
 90
4
 70
1
 10
127.36046780540194
 20
98.45664650184455
 10
129.32643271169553
 20
99.83322994908706
 10
128.86757156261467
 20
100.48855158451825
 10
126.90160665632109
 20
99.11196813727574
  0
LWPOLYLINE
  5
AB
330
17
100
AcDbEntity
  8
LED_LAND_ENVELOPE
100
AcDbPolyline
 90
4
 70
1
 10
137.51999321877045
 20
90.92112771578081
 10
139.48595812506403
 20
92.29771116302334
 10
139.0270969759832
 20
92.95303279845453
 10
137.06113206968962
 20
91.57644935121202
  0
LWPOLYLINE
  5
AC
330
17
100
AcDbEntity
  8
LED_LAND_ENVELOPE
100
AcDbPolyline
 90
4
 70
1
 10
135.22568747336626
 20
94.19773589293679
 10
137.19165237965984
 20
95.5743193401793
 10
136.732791230579
 20
96.2296409756105
 10
134.76682632428543
 20
94.85305752836798
  0
LWPOLYLINE
  5
AD
330
17
100
AcDbEntity
  8
LED_LAND_ENVELOPE
100
AcDbPolyline
 90
4
 70
1
 10
132.93138172796208
 20
97.47434407009276
 10
134.89734663425565
 20
98.85092751733526
 10
134.43848548517482
 20
99.50624915276646
 10
132.47252057888124
 20
98.12966570552396
  0
LWPOLYLINE
  5
AE
330
17
100
AcDbEntity
  8
LED_LAND_ENVELOPE
100
AcDbPolyline
 90
4
 70
1
 10
140.79660139592642
 20
93.215433461185
 10
142.76256630222002
 20
94.59201690842752
 10
142.30370515313916
 20
95.24733854385872
 10
140.33774024684558
 20
93.8707550966162
  0
LWPOLYLINE
  5
AF
330
17
100
AcDbEntity
  8
LED_LAND_ENVELOPE
100
AcDbPolyline
 90
4
 70
1
 10
138.50229565052223
 20
96.49204163834096
 10
140.46826055681584
 20
97.86862508558349
 10
140.00939940773497
 20
98.52394672101468
 10
138.0434345014414
 20
97.14736327377216
  0
LWPOLYLINE
  5
B0
330
17
100
AcDbEntity
  8
LED_LAND_ENVELOPE
100
AcDbPolyline
 90
4
 70
1
 10
136.20798990511804
 20
99.76864981549693
 10
138.17395481141165
 20
101.14523326273945
 10
137.7150936623308
 20
101.80055489817065
 10
135.7491287560372
 20
100.42397145092814
  0
LWPOLYLINE
  5
B1
330
17
100
AcDbEntity
  8
LED_LAND_ENVELOPE
100
AcDbPolyline
 90
4
 70
1
 10
161.438552890614
 20
112.55218185617025
 10
163.40451779690756
 20
113.92876530341277
 10
162.94565664782675
 20
114.58408693884397
 10
160.97969174153317
 20
113.20750349160144
  0
LWPOLYLINE
  5
B2
330
17
100
AcDbEntity
  8
STRUCTURE
100
AcDbPolyline
 90
8
 70
1
 10
-50.21682376074944
 20
50.324218934642495
 10
-64.79101658023798
 20
73.44497375926639
 10
-133.3150401465228
 20
107.38710383808204
 10
-170.7027034970809
 20
122.33510133558433
 10
-173.34115510429572
 20
118.56700193185496
 10
-146.50729818259686
 20
88.54660681943523
 10
-91.1755326523861
 20
35.76397972197276
 10
-64.46446243970942
 20
29.976482154503934
  0
LWPOLYLINE
  5
B3
330
17
100
AcDbEntity
  8
WINDOW
100
AcDbPolyline
 90
8
 70
1
 10
-65.91692644897354
 20
59.632880255112724
 10
-75.36572600236624
 20
72.98767665939405
 10
-134.63426595013019
 20
105.50305413621737
 10
-163.03029084288892
 20
118.64748909135434
 10
-167.2518134144326
 20
112.61853004538736
 10
-145.18807237898943
 20
90.43065652129991
 10
-94.3625775743129
 20
45.857360952542656
 10
-78.58149416360463
 20
41.54600311721178
  0
LWPOLYLINE
  5
B4
330
17
100
AcDbEntity
  8
CONTACT_RESERVE
100
AcDbPolyline
 90
4
 70
1
 10
-135.9874791757363
 20
104.76591530510102
 10
-155.64712823867208
 20
118.53174977752613
 10
-164.61786370320243
 20
105.72021180484629
 10
-144.95821464026665
 20
91.95437733242119
  0
LWPOLYLINE
  5
B5
330
17
100
AcDbEntity
  8
PAD
100
AcDbPolyline
 90
4
 70
1
 10
-139.38560066421897
 20
105.1432352615202
 10
-154.13033746142082
 20
115.46761111583903
 10
-156.99821964317604
 20
111.37185089439407
 10
-142.2534828459742
 20
101.04747504007526
  0
LWPOLYLINE
  5
B6
330
17
100
AcDbEntity
  8
PAD
100
AcDbPolyline
 90
4
 70
1
 10
-143.60712323576266
 20
99.11427621555322
 10
-158.3518600329645
 20
109.43865206987206
 10
-161.21974221471976
 20
105.3428918484271
 10
-146.4750054175179
 20
95.01851599410827
  0
LWPOLYLINE
  5
B7
330
17
100
AcDbEntity
  8
LED_LAND_ENVELOPE
100
AcDbPolyline
 90
4
 70
1
 10
-71.19926764466966
 20
60.1087704654046
 10
-73.16523255096324
 20
61.4853539126471
 10
-73.62409370004409
 20
60.830032277215906
 10
-71.6581287937505
 20
59.4534488299734
  0
LWPOLYLINE
  5
B8
330
17
100
AcDbEntity
  8
LED_LAND_ENVELOPE
100
AcDbPolyline
 90
4
 70
1
 10
-73.49357339007385
 20
56.832162288248625
 10
-75.45953829636743
 20
58.208745735491135
 10
-75.91839944544827
 20
57.55342410005994
 10
-73.9524345391547
 20
56.17684065281743
  0
LWPOLYLINE
  5
B9
330
17
100
AcDbEntity
  8
LED_LAND_ENVELOPE
100
AcDbPolyline
 90
4
 70
1
 10
-75.78787913547804
 20
53.55555411109266
 10
-77.75384404177161
 20
54.93213755833517
 10
-78.21270519085245
 20
54.27681592290398
 10
-76.24674028455887
 20
52.90023247566147
  0
LWPOLYLINE
  5
BA
330
17
100
AcDbEntity
  8
LED_LAND_ENVELOPE
100
AcDbPolyline
 90
4
 70
1
 10
-78.08218488088221
 20
50.27894593393669
 10
-80.04814978717579
 20
51.6555293811792
 10
-80.50701093625663
 20
51.00020774574801
 10
-78.54104602996306
 20
49.6236242985055
  0
LWPOLYLINE
  5
BB
330
17
100
AcDbEntity
  8
LED_LAND_ENVELOPE
100
AcDbPolyline
 90
4
 70
1
 10
-80.3764906262864
 20
47.002337756780726
 10
-82.34245553257998
 20
48.37892120402323
 10
-82.80131668166081
 20
47.723599568592036
 10
-80.83535177536723
 20
46.34701612134953
  0
LWPOLYLINE
  5
BC
330
17
100
AcDbEntity
  8
LED_LAND_ENVELOPE
100
AcDbPolyline
 90
4
 70
1
 10
-72.18157007642145
 20
65.67968438796474
 10
-74.14753498271503
 20
67.05626783520725
 10
-74.60639613179586
 20
66.40094619977606
 10
-72.64043122550228
 20
65.02436275253355
  0
LWPOLYLINE
  5
BD
330
17
100
AcDbEntity
  8
LED_LAND_ENVELOPE
100
AcDbPolyline
 90
4
 70
1
 10
-74.47587582182564
 20
62.40307621080878
 10
-76.44184072811922
 20
63.77965965805129
 10
-76.90070187720005
 20
63.124338022620094
 10
-74.93473697090647
 20
61.747754575377584
  0
LWPOLYLINE
  5
BE
330
17
100
AcDbEntity
  8
LED_LAND_ENVELOPE
100
AcDbPolyline
 90
4
 70
1
 10
-76.77018156722981
 20
59.12646803365281
 10
-78.73614647352339
 20
60.50305148089532
 10
-79.19500762260424
 20
59.84772984546413
 10
-77.22904271631066
 20
58.47114639822162
  0
LWPOLYLINE
  5
BF
330
17
100
AcDbEntity
  8
LED_LAND_ENVELOPE
100
AcDbPolyline
 90
4
 70
1
 10
-79.064487312634
 20
55.84985985649684
 10
-81.03045221892758
 20
57.22644330373935
 10
-81.48931336800842
 20
56.57112166830816
 10
-79.52334846171485
 20
55.19453822106565
  0
LWPOLYLINE
  5
C0
330
17
100
AcDbEntity
  8
LED_LAND_ENVELOPE
100
AcDbPolyline
 90
4
 70
1
 10
-81.35879305803819
 20
52.57325167934087
 10
-83.32475796433177
 20
53.94983512658338
 10
-83.7836191134126
 20
53.29451349115219
 10
-81.81765420711902
 20
51.91793004390968
  0
LWPOLYLINE
  5
C1
330
17
100
AcDbEntity
  8
LED_LAND_ENVELOPE
100
AcDbPolyline
 90
4
 70
1
 10
-83.65309880344236
 20
49.29664350218491
 10
-85.61906370973594
 20
50.673226949427416
 10
-86.07792485881679
 20
50.01790531399622
 10
-84.11195995252321
 20
48.641321866753714
  0
LWPOLYLINE
  5
C2
330
17
100
AcDbEntity
  8
LED_LAND_ENVELOPE
100
AcDbPolyline
 90
4
 70
1
 10
-85.94740454884655
 20
46.02003532502894
 10
-87.91336945514013
 20
47.39661877227145
 10
-88.37223060422096
 20
46.74129713684025
 10
-86.40626569792738
 20
45.36471368959774
  0
LWPOLYLINE
  5
C3
330
17
100
AcDbEntity
  8
LED_LAND_ENVELOPE
100
AcDbPolyline
 90
4
 70
1
 10
-75.45817825357742
 20
67.97399013336893
 10
-77.424143159871
 20
69.35057358061144
 10
-77.88300430895184
 20
68.69525194518025
 10
-75.91703940265825
 20
67.31866849793774
  0
LWPOLYLINE
  5
C4
330
17
100
AcDbEntity
  8
LED_LAND_ENVELOPE
100
AcDbPolyline
 90
4
 70
1
 10
-77.7524839989816
 20
64.69738195621296
 10
-79.71844890527518
 20
66.07396540345547
 10
-80.17731005435601
 20
65.41864376802428
 10
-78.21134514806243
 20
64.04206032078177
  0
LWPOLYLINE
  5
C5
330
17
100
AcDbEntity
  8
LED_LAND_ENVELOPE
100
AcDbPolyline
 90
4
 70
1
 10
-80.04678974438579
 20
61.420773779056994
 10
-82.01275465067937
 20
62.79735722629951
 10
-82.4716157997602
 20
62.14203559086832
 10
-80.50565089346662
 20
60.7654521436258
  0
LWPOLYLINE
  5
C6
330
17
100
AcDbEntity
  8
LED_LAND_ENVELOPE
100
AcDbPolyline
 90
4
 70
1
 10
-82.34109548978996
 20
58.14416560190102
 10
-84.30706039608356
 20
59.52074904914354
 10
-84.76592154516439
 20
58.86542741371235
 10
-82.79995663887081
 20
57.48884396646983
  0
LWPOLYLINE
  5
C7
330
17
100
AcDbEntity
  8
LED_LAND_ENVELOPE
100
AcDbPolyline
 90
4
 70
1
 10
-84.63540123519415
 20
54.86755742474506
 10
-86.60136614148773
 20
56.24414087198757
 10
-87.06022729056858
 20
55.588819236556375
 10
-85.094262384275
 20
54.212235789313866
  0
LWPOLYLINE
  5
C8
330
17
100
AcDbEntity
  8
LED_LAND_ENVELOPE
100
AcDbPolyline
 90
4
 70
1
 10
-86.92970698059834
 20
51.590949247589094
 10
-88.89567188689192
 20
52.967532694831604
 10
-89.35453303597276
 20
52.31221105940041
 10
-87.38856812967917
 20
50.9356276121579
  0
LWPOLYLINE
  5
C9
330
17
100
AcDbEntity
  8
LED_LAND_ENVELOPE
100
AcDbPolyline
 90
4
 70
1
 10
-89.22401272600251
 20
48.31434107043312
 10
-91.18997763229609
 20
49.69092451767564
 10
-91.64883878137694
 20
49.03560288224445
 10
-89.68287387508336
 20
47.65901943500193
  0
LWPOLYLINE
  5
CA
330
17
100
AcDbEntity
  8
LED_LAND_ENVELOPE
100
AcDbPolyline
 90
4
 70
1
 10
-78.73478643073338
 20
70.2682958787731
 10
-80.70075133702697
 20
71.64487932601563
 10
-81.1596124861078
 20
70.98955769058443
 10
-79.19364757981421
 20
69.61297424334191
  0
LWPOLYLINE
  5
CB
330
17
100
AcDbEntity
  8
LED_LAND_ENVELOPE
100
AcDbPolyline
 90
4
 70
1
 10
-81.02909217613757
 20
66.99168770161714
 10
-82.99505708243115
 20
68.36827114885966
 10
-83.45391823151199
 20
67.71294951342847
 10
-81.4879533252184
 20
66.33636606618595
  0
LWPOLYLINE
  5
CC
330
17
100
AcDbEntity
  8
LED_LAND_ENVELOPE
100
AcDbPolyline
 90
4
 70
1
 10
-83.32339792154175
 20
63.715079524461174
 10
-85.28936282783533
 20
65.09166297170368
 10
-85.74822397691617
 20
64.43634133627249
 10
-83.78225907062259
 20
63.05975788902998
  0
LWPOLYLINE
  5
CD
330
17
100
AcDbEntity
  8
LED_LAND_ENVELOPE
100
AcDbPolyline
 90
4
 70
1
 10
-85.61770366694593
 20
60.43847134730521
 10
-87.58366857323952
 20
61.81505479454772
 10
-88.04252972232035
 20
61.15973315911653
 10
-86.07656481602677
 20
59.78314971187402
  0
LWPOLYLINE
  5
CE
330
17
100
AcDbEntity
  8
LED_LAND_ENVELOPE
100
AcDbPolyline
 90
4
 70
1
 10
-87.91200941235012
 20
57.16186317014924
 10
-89.87797431864371
 20
58.538446617391756
 10
-90.33683546772454
 20
57.88312498196056
 10
-88.37087056143096
 20
56.506541534718046
  0
LWPOLYLINE
  5
CF
330
17
100
AcDbEntity
  8
LED_LAND_ENVELOPE
100
AcDbPolyline
 90
4
 70
1
 10
-90.2063151577543
 20
53.88525499299327
 10
-92.1722800640479
 20
55.261838440235785
 10
-92.63114121312873
 20
54.60651680480459
 10
-90.66517630683514
 20
53.229933357562075
  0
LWPOLYLINE
  5
D0
330
17
100
AcDbEntity
  8
LED_LAND_ENVELOPE
100
AcDbPolyline
 90
4
 70
1
 10
-92.50062090315848
 20
50.608646815837304
 10
-94.46658580945207
 20
51.98523026307981
 10
-94.92544695853292
 20
51.32990862764862
 10
-92.95948205223932
 20
49.95332518040611
  0
LWPOLYLINE
  5
D1
330
17
100
AcDbEntity
  8
LED_LAND_ENVELOPE
100
AcDbPolyline
 90
4
 70
1
 10
-82.01139460788934
 20
72.56260162417729
 10
-83.97735951418294
 20
73.93918507141981
 10
-84.43622066326377
 20
73.28386343598862
 10
-82.47025575697019
 20
71.9072799887461
  0
LWPOLYLINE
  5
D2
330
17
100
AcDbEntity
  8
LED_LAND_ENVELOPE
100
AcDbPolyline
 90
4
 70
1
 10
-84.30570035329353
 20
69.28599344702133
 10
-86.27166525958711
 20
70.66257689426384
 10
-86.73052640866796
 20
70.00725525883264
 10
-84.76456150237436
 20
68.63067181159013
  0
LWPOLYLINE
  5
D3
330
17
100
AcDbEntity
  8
LED_LAND_ENVELOPE
100
AcDbPolyline
 90
4
 70
1
 10
-86.60000609869772
 20
66.00938526986536
 10
-88.5659710049913
 20
67.38596871710787
 10
-89.02483215407213
 20
66.73064708167668
 10
-87.05886724777855
 20
65.35406363443417
  0
LWPOLYLINE
  5
D4
330
17
100
AcDbEntity
  8
LED_LAND_ENVELOPE
100
AcDbPolyline
 90
4
 70
1
 10
-88.8943118441019
 20
62.73277709270939
 10
-90.86027675039549
 20
64.10936053995191
 10
-91.31913789947632
 20
63.454038904520715
 10
-89.35317299318274
 20
62.0774554572782
  0
LWPOLYLINE
  5
D5
330
17
100
AcDbEntity
  8
LED_LAND_ENVELOPE
100
AcDbPolyline
 90
4
 70
1
 10
-91.1886175895061
 20
59.45616891555342
 10
-93.15458249579967
 20
60.83275236279594
 10
-93.6134436448805
 20
60.177430727364744
 10
-91.64747873858693
 20
58.80084728012223
  0
LWPOLYLINE
  5
D6
330
17
100
AcDbEntity
  8
LED_LAND_ENVELOPE
100
AcDbPolyline
 90
4
 70
1
 10
-93.48292333491027
 20
56.179560738397456
 10
-95.44888824120386
 20
57.556144185639965
 10
-95.90774939028469
 20
56.90082255020877
 10
-93.94178448399111
 20
55.52423910296626
  0
LWPOLYLINE
  5
D7
330
17
100
AcDbEntity
  8
LED_LAND_ENVELOPE
100
AcDbPolyline
 90
4
 70
1
 10
-95.77722908031444
 20
52.90295256124149
 10
-97.74319398660803
 20
54.279536008484
 10
-98.20205513568888
 20
53.62421437305281
 10
-96.23609022939529
 20
52.2476309258103
  0
LWPOLYLINE
  5
D8
330
17
100
AcDbEntity
  8
LED_LAND_ENVELOPE
100
AcDbPolyline
 90
4
 70
1
 10
-85.28800278504532
 20
74.85690736958148
 10
-87.2539676913389
 20
76.233490816824
 10
-87.71282884041975
 20
75.5781691813928
 10
-85.74686393412615
 20
74.20158573415029
  0
LWPOLYLINE
  5
D9
330
17
100
AcDbEntity
  8
LED_LAND_ENVELOPE
100
AcDbPolyline
 90
4
 70
1
 10
-87.5823085304495
 20
71.58029919242551
 10
-89.54827343674309
 20
72.95688263966802
 10
-90.00713458582392
 20
72.30156100423683
 10
-88.04116967953034
 20
70.92497755699432
  0
LWPOLYLINE
  5
DA
330
17
100
AcDbEntity
  8
LED_LAND_ENVELOPE
100
AcDbPolyline
 90
4
 70
1
 10
-89.87661427585368
 20
68.30369101526955
 10
-91.84257918214726
 20
69.68027446251206
 10
-92.30144033122811
 20
69.02495282708087
 10
-90.33547542493451
 20
67.64836937983836
  0
LWPOLYLINE
  5
DB
330
17
100
AcDbEntity
  8
LED_LAND_ENVELOPE
100
AcDbPolyline
 90
4
 70
1
 10
-92.17092002125787
 20
65.02708283811357
 10
-94.13688492755145
 20
66.40366628535608
 10
-94.59574607663228
 20
65.74834464992489
 10
-92.6297811703387
 20
64.37176120268238
  0
LWPOLYLINE
  5
DC
330
17
100
AcDbEntity
  8
LED_LAND_ENVELOPE
100
AcDbPolyline
 90
4
 70
1
 10
-94.46522576666206
 20
61.75047466095761
 10
-96.43119067295564
 20
63.12705810820012
 10
-96.89005182203647
 20
62.471736472768924
 10
-94.92408691574289
 20
61.095153025526415
  0
LWPOLYLINE
  5
DD
330
17
100
AcDbEntity
  8
LED_LAND_ENVELOPE
100
AcDbPolyline
 90
4
 70
1
 10
-96.75953151206625
 20
58.47386648380164
 10
-98.72549641835982
 20
59.85044993104415
 10
-99.18435756744066
 20
59.19512829561296
 10
-97.21839266114708
 20
57.81854484837045
  0
LWPOLYLINE
  5
DE
330
17
100
AcDbEntity
  8
LED_LAND_ENVELOPE
100
AcDbPolyline
 90
4
 70
1
 10
-99.05383725747042
 20
55.19725830664567
 10
-101.01980216376401
 20
56.57384175388819
 10
-101.47866331284484
 20
55.918520118456996
 10
-99.51269840655127
 20
54.54193667121448
  0
LWPOLYLINE
  5
DF
330
17
100
AcDbEntity
  8
LED_LAND_ENVELOPE
100
AcDbPolyline
 90
4
 70
1
 10
-88.56461096220129
 20
77.15121311498567
 10
-90.53057586849486
 20
78.52779656222818
 10
-90.98943701757571
 20
77.87247492679698
 10
-89.02347211128213
 20
76.49589147955447
  0
LWPOLYLINE
  5
E0
330
17
100
AcDbEntity
  8
LED_LAND_ENVELOPE
100
AcDbPolyline
 90
4
 70
1
 10
-90.85891670760547
 20
73.8746049378297
 10
-92.82488161389905
 20
75.25118838507221
 10
-93.28374276297988
 20
74.595866749641
 10
-91.3177778566863
 20
73.21928330239851
  0
LWPOLYLINE
  5
E1
330
17
100
AcDbEntity
  8
LED_LAND_ENVELOPE
100
AcDbPolyline
 90
4
 70
1
 10
-93.15322245300965
 20
70.59799676067372
 10
-95.11918735930323
 20
71.97458020791623
 10
-95.57804850838407
 20
71.31925857248504
 10
-93.6120836020905
 20
69.94267512524253
  0
LWPOLYLINE
  5
E2
330
17
100
AcDbEntity
  8
LED_LAND_ENVELOPE
100
AcDbPolyline
 90
4
 70
1
 10
-95.44752819841383
 20
67.32138858351776
 10
-97.41349310470741
 20
68.69797203076027
 10
-97.87235425378825
 20
68.04265039532908
 10
-95.90638934749467
 20
66.66606694808657
  0
LWPOLYLINE
  5
E3
330
17
100
AcDbEntity
  8
LED_LAND_ENVELOPE
100
AcDbPolyline
 90
4
 70
1
 10
-97.74183394381802
 20
64.0447804063618
 10
-99.7077988501116
 20
65.4213638536043
 10
-100.16665999919243
 20
64.76604221817311
 10
-98.20069509289885
 20
63.3894587709306
  0
LWPOLYLINE
  5
E4
330
17
100
AcDbEntity
  8
LED_LAND_ENVELOPE
100
AcDbPolyline
 90
4
 70
1
 10
-100.03613968922221
 20
60.768172229205824
 10
-102.00210459551579
 20
62.14475567644834
 10
-102.46096574459662
 20
61.48943404101715
 10
-100.49500083830304
 20
60.11285059377463
  0
LWPOLYLINE
  5
E5
330
17
100
AcDbEntity
  8
LED_LAND_ENVELOPE
100
AcDbPolyline
 90
4
 70
1
 10
-102.3304454346264
 20
57.49156405204985
 10
-104.29641034091998
 20
58.86814749929237
 10
-104.75527149000081
 20
58.21282586386118
 10
-102.78930658370723
 20
56.83624241661866
  0
LWPOLYLINE
  5
E6
330
17
100
AcDbEntity
  8
LED_LAND_ENVELOPE
100
AcDbPolyline
 90
4
 70
1
 10
-91.84121913935725
 20
79.44551886038985
 10
-93.80718404565084
 20
80.82210230763236
 10
-94.26604519473167
 20
80.16678067220116
 10
-92.3000802884381
 20
78.79019722495866
  0
LWPOLYLINE
  5
E7
330
17
100
AcDbEntity
  8
LED_LAND_ENVELOPE
100
AcDbPolyline
 90
4
 70
1
 10
-94.13552488476144
 20
76.16891068323389
 10
-96.10148979105503
 20
77.54549413047638
 10
-96.56035094013586
 20
76.89017249504519
 10
-94.59438603384227
 20
75.51358904780268
  0
LWPOLYLINE
  5
E8
330
17
100
AcDbEntity
  8
LED_LAND_ENVELOPE
100
AcDbPolyline
 90
4
 70
1
 10
-96.42983063016561
 20
72.89230250607791
 10
-98.3957955364592
 20
74.26888595332042
 10
-98.85465668554005
 20
73.61356431788923
 10
-96.88869177924646
 20
72.23698087064672
  0
LWPOLYLINE
  5
E9
330
17
100
AcDbEntity
  8
LED_LAND_ENVELOPE
100
AcDbPolyline
 90
4
 70
1
 10
-98.7241363755698
 20
69.61569432892195
 10
-100.69010128186339
 20
70.99227777616446
 10
-101.14896243094422
 20
70.33695614073326
 10
-99.18299752465063
 20
68.96037269349075
  0
LWPOLYLINE
  5
EA
330
17
100
AcDbEntity
  8
LED_LAND_ENVELOPE
100
AcDbPolyline
 90
4
 70
1
 10
-101.01844212097399
 20
66.33908615176597
 10
-102.98440702726757
 20
67.71566959900849
 10
-103.44326817634841
 20
67.0603479635773
 10
-101.47730327005482
 20
65.68376451633478
  0
LWPOLYLINE
  5
EB
330
17
100
AcDbEntity
  8
LED_LAND_ENVELOPE
100
AcDbPolyline
 90
4
 70
1
 10
-103.31274786637817
 20
63.062477974610005
 10
-105.27871277267175
 20
64.43906142185253
 10
-105.73757392175258
 20
63.78373978642133
 10
-103.771609015459
 20
62.40715633917881
  0
LWPOLYLINE
  5
EC
330
17
100
AcDbEntity
  8
LED_LAND_ENVELOPE
100
AcDbPolyline
 90
4
 70
1
 10
-105.60705361178236
 20
59.78586979745404
 10
-107.57301851807594
 20
61.16245324469655
 10
-108.03187966715677
 20
60.50713160926536
 10
-106.0659147608632
 20
59.13054816202285
  0
LWPOLYLINE
  5
ED
330
17
100
AcDbEntity
  8
LED_LAND_ENVELOPE
100
AcDbPolyline
 90
4
 70
1
 10
-95.11782731651323
 20
81.73982460579404
 10
-97.0837922228068
 20
83.11640805303654
 10
-97.54265337188764
 20
82.46108641760534
 10
-95.57668846559406
 20
81.08450297036283
  0
LWPOLYLINE
  5
EE
330
17
100
AcDbEntity
  8
LED_LAND_ENVELOPE
100
AcDbPolyline
 90
4
 70
1
 10
-97.41213306191742
 20
78.46321642863806
 10
-99.378097968211
 20
79.83979987588057
 10
-99.83695911729183
 20
79.18447824044938
 10
-97.87099421099825
 20
77.80789479320687
  0
LWPOLYLINE
  5
EF
330
17
100
AcDbEntity
  8
LED_LAND_ENVELOPE
100
AcDbPolyline
 90
4
 70
1
 10
-99.70643880732159
 20
75.1866082514821
 10
-101.67240371361517
 20
76.56319169872461
 10
-102.13126486269601
 20
75.90787006329342
 10
-100.16529995640244
 20
74.53128661605089
  0
LWPOLYLINE
  5
F0
330
17
100
AcDbEntity
  8
LED_LAND_ENVELOPE
100
AcDbPolyline
 90
4
 70
1
 10
-102.00074455272578
 20
71.91000007432612
 10
-103.96670945901936
 20
73.28658352156864
 10
-104.42557060810019
 20
72.63126188613745
 10
-102.45960570180661
 20
71.25467843889493
  0
LWPOLYLINE
  5
F1
330
17
100
AcDbEntity
  8
LED_LAND_ENVELOPE
100
AcDbPolyline
 90
4
 70
1
 10
-104.29505029812995
 20
68.63339189717016
 10
-106.26101520442353
 20
70.00997534441267
 10
-106.71987635350438
 20
69.35465370898147
 10
-104.7539114472108
 20
67.97807026173896
  0
LWPOLYLINE
  5
F2
330
17
100
AcDbEntity
  8
LED_LAND_ENVELOPE
100
AcDbPolyline
 90
4
 70
1
 10
-106.58935604353414
 20
65.35678372001419
 10
-108.55532094982772
 20
66.7333671672567
 10
-109.01418209890855
 20
66.07804553182551
 10
-107.04821719261497
 20
64.701462084583
  0
LWPOLYLINE
  5
F3
330
17
100
AcDbEntity
  8
LED_LAND_ENVELOPE
100
AcDbPolyline
 90
4
 70
1
 10
-108.88366178893833
 20
62.08017554285823
 10
-110.8496266952319
 20
63.45675899010074
 10
-111.30848784431274
 20
62.801437354669545
 10
-109.34252293801916
 20
61.424853907427035
  0
LWPOLYLINE
  5
F4
330
17
100
AcDbEntity
  8
LED_LAND_ENVELOPE
100
AcDbPolyline
 90
4
 70
1
 10
-100.68874123907338
 20
80.75752217404224
 10
-102.65470614536696
 20
82.13410562128476
 10
-103.11356729444779
 20
81.47878398585357
 10
-101.14760238815421
 20
80.10220053861104
  0
LWPOLYLINE
  5
F5
330
17
100
AcDbEntity
  8
LED_LAND_ENVELOPE
100
AcDbPolyline
 90
4
 70
1
 10
-102.98304698447755
 20
77.48091399688627
 10
-104.94901189077115
 20
78.8574974441288
 10
-105.40787303985198
 20
78.2021758086976
 10
-103.4419081335584
 20
76.82559236145508
  0
LWPOLYLINE
  5
F6
330
17
100
AcDbEntity
  8
LED_LAND_ENVELOPE
100
AcDbPolyline
 90
4
 70
1
 10
-105.27735272988174
 20
74.20430581973031
 10
-107.24331763617533
 20
75.58088926697283
 10
-107.70217878525617
 20
74.92556763154164
 10
-105.73621387896257
 20
73.54898418429912
  0
LWPOLYLINE
  5
F7
330
17
100
AcDbEntity
  8
LED_LAND_ENVELOPE
100
AcDbPolyline
 90
4
 70
1
 10
-107.57165847528591
 20
70.92769764257434
 10
-109.53762338157951
 20
72.30428108981687
 10
-109.99648453066035
 20
71.64895945438566
 10
-108.03051962436676
 20
70.27237600714315
  0
LWPOLYLINE
  5
F8
330
17
100
AcDbEntity
  8
LED_LAND_ENVELOPE
100
AcDbPolyline
 90
4
 70
1
 10
-109.8659642206901
 20
67.65108946541838
 10
-111.8319291269837
 20
69.02767291266089
 10
-112.29079027606453
 20
68.3723512772297
 10
-110.32482536977093
 20
66.99576782998719
  0
LWPOLYLINE
  5
F9
330
17
100
AcDbEntity
  8
LED_LAND_ENVELOPE
100
AcDbPolyline
 90
4
 70
1
 10
-103.96534941622934
 20
83.05182791944642
 10
-105.93131432252292
 20
84.42841136668895
 10
-106.39017547160375
 20
83.77308973125776
 10
-104.42421056531018
 20
82.39650628401523
  0
LWPOLYLINE
  5
FA
330
17
100
AcDbEntity
  8
LED_LAND_ENVELOPE
100
AcDbPolyline
 90
4
 70
1
 10
-106.25965516163353
 20
79.77521974229046
 10
-108.22562006792711
 20
81.15180318953298
 10
-108.68448121700794
 20
80.49648155410178
 10
-106.71851631071436
 20
79.11989810685927
  0
LWPOLYLINE
  5
FB
330
17
100
AcDbEntity
  8
LED_LAND_ENVELOPE
100
AcDbPolyline
 90
4
 70
1
 10
-108.55396090703772
 20
76.4986115651345
 10
-110.5199258133313
 20
77.875195012377
 10
-110.97878696241213
 20
77.21987337694581
 10
-109.01282205611855
 20
75.8432899297033
  0
LWPOLYLINE
  5
FC
330
17
100
AcDbEntity
  8
LED_LAND_ENVELOPE
100
AcDbPolyline
 90
4
 70
1
 10
-110.8482666524419
 20
73.22200338797853
 10
-112.81423155873547
 20
74.59858683522104
 10
-113.27309270781632
 20
73.94326519978983
 10
-111.30712780152274
 20
72.56668175254734
  0
LWPOLYLINE
  5
FD
330
17
100
AcDbEntity
  8
LED_LAND_ENVELOPE
100
AcDbPolyline
 90
4
 70
1
 10
-113.14257239784608
 20
69.94539521082257
 10
-115.10853730413966
 20
71.32197865806506
 10
-115.56739845322049
 20
70.66665702263387
 10
-113.60143354692691
 20
69.29007357539138
  0
LWPOLYLINE
  5
FE
330
17
100
AcDbEntity
  8
LED_LAND_ENVELOPE
100
AcDbPolyline
 90
4
 70
1
 10
-107.24195759338531
 20
85.34613366485061
 10
-109.20792249967889
 20
86.72271711209314
 10
-109.66678364875972
 20
86.06739547666194
 10
-107.70081874246614
 20
84.69081202941942
  0
LWPOLYLINE
  5
FF
330
17
100
AcDbEntity
  8
LED_LAND_ENVELOPE
100
AcDbPolyline
 90
4
 70
1
 10
-109.5362633387895
 20
82.06952548769465
 10
-111.50222824508307
 20
83.44610893493717
 10
-111.9610893941639
 20
82.79078729950596
 10
-109.99512448787033
 20
81.41420385226346
  0
LWPOLYLINE
  5
100
330
17
100
AcDbEntity
  8
LED_LAND_ENVELOPE
100
AcDbPolyline
 90
4
 70
1
 10
-111.83056908419368
 20
78.79291731053868
 10
-113.79653399048726
 20
80.1695007577812
 10
-114.2553951395681
 20
79.51417912235
 10
-112.28943023327452
 20
78.13759567510749
  0
LWPOLYLINE
  5
101
330
17
100
AcDbEntity
  8
LED_LAND_ENVELOPE
100
AcDbPolyline
 90
4
 70
1
 10
-114.12487482959786
 20
75.51630913338272
 10
-116.09083973589145
 20
76.89289258062523
 10
-116.54970088497228
 20
76.23757094519402
 10
-114.5837359786787
 20
74.86098749795151
  0
LWPOLYLINE
  5
102
330
17
100
AcDbEntity
  8
LED_LAND_ENVELOPE
100
AcDbPolyline
 90
4
 70
1
 10
-116.41918057500204
 20
72.23970095622674
 10
-118.38514548129564
 20
73.61628440346925
 10
-118.84400663037647
 20
72.96096276803806
 10
-116.87804172408288
 20
71.58437932079555
  0
LWPOLYLINE
  5
103
330
17
100
AcDbEntity
  8
LED_LAND_ENVELOPE
100
AcDbPolyline
 90
4
 70
1
 10
-110.51856577054127
 20
87.6404394102548
 10
-112.48453067683485
 20
89.01702285749731
 10
-112.94339182591568
 20
88.36170122206612
 10
-110.9774269196221
 20
86.9851177748236
  0
LWPOLYLINE
  5
104
330
17
100
AcDbEntity
  8
LED_LAND_ENVELOPE
100
AcDbPolyline
 90
4
 70
1
 10
-112.81287151594546
 20
84.36383123309884
 10
-114.77883642223904
 20
85.74041468034135
 10
-115.23769757131987
 20
85.08509304491014
 10
-113.27173266502629
 20
83.70850959766764
  0
LWPOLYLINE
  5
105
330
17
100
AcDbEntity
  8
LED_LAND_ENVELOPE
100
AcDbPolyline
 90
4
 70
1
 10
-115.10717726134965
 20
81.08722305594287
 10
-117.07314216764323
 20
82.46380650318537
 10
-117.53200331672406
 20
81.80848486775417
 10
-115.56603841043048
 20
80.43190142051168
  0
LWPOLYLINE
  5
106
330
17
100
AcDbEntity
  8
LED_LAND_ENVELOPE
100
AcDbPolyline
 90
4
 70
1
 10
-117.40148300675384
 20
77.81061487878691
 10
-119.36744791304741
 20
79.1871983260294
 10
-119.82630906212825
 20
78.53187669059821
 10
-117.86034415583467
 20
77.1552932433557
  0
LWPOLYLINE
  5
107
330
17
100
AcDbEntity
  8
LED_LAND_ENVELOPE
100
AcDbPolyline
 90
4
 70
1
 10
-119.69578875215802
 20
74.53400670163093
 10
-121.6617536584516
 20
75.91059014887344
 10
-122.12061480753243
 20
75.25526851344225
 10
-120.15464990123886
 20
73.87868506619974
  0
LWPOLYLINE
  5
108
330
17
100
AcDbEntity
  8
LED_LAND_ENVELOPE
100
AcDbPolyline
 90
4
 70
1
 10
-113.79517394769724
 20
89.93474515565899
 10
-115.76113885399083
 20
91.3113286029015
 10
-116.22000000307166
 20
90.6560069674703
 10
-114.25403509677807
 20
89.2794235202278
  0
LWPOLYLINE
  5
109
330
17
100
AcDbEntity
  8
LED_LAND_ENVELOPE
100
AcDbPolyline
 90
4
 70
1
 10
-116.08947969310142
 20
86.65813697850302
 10
-118.055444599395
 20
88.03472042574553
 10
-118.51430574847585
 20
87.37939879031433
 10
-116.54834084218226
 20
86.00281534307182
  0
LWPOLYLINE
  5
10A
330
17
100
AcDbEntity
  8
LED_LAND_ENVELOPE
100
AcDbPolyline
 90
4
 70
1
 10
-118.38378543850561
 20
83.38152880134705
 10
-120.34975034479919
 20
84.75811224858955
 10
-120.80861149388002
 20
84.10279061315836
 10
-118.84264658758644
 20
82.72620716591585
  0
LWPOLYLINE
  5
10B
330
17
100
AcDbEntity
  8
LED_LAND_ENVELOPE
100
AcDbPolyline
 90
4
 70
1
 10
-120.6780911839098
 20
80.10492062419108
 10
-122.64405609020338
 20
81.48150407143359
 10
-123.10291723928421
 20
80.8261824360024
 10
-121.13695233299063
 20
79.44959898875987
  0
LWPOLYLINE
  5
10C
330
17
100
AcDbEntity
  8
LED_LAND_ENVELOPE
100
AcDbPolyline
 90
4
 70
1
 10
-122.97239692931399
 20
76.8283124470351
 10
-124.93836183560757
 20
78.20489589427763
 10
-125.3972229846884
 20
77.54957425884643
 10
-123.43125807839482
 20
76.17299081160391
  0
LWPOLYLINE
  5
10D
330
17
100
AcDbEntity
  8
LED_LAND_ENVELOPE
100
AcDbPolyline
 90
4
 70
1
 10
-117.07178212485321
 20
92.22905090106316
 10
-119.0377470311468
 20
93.60563434830567
 10
-119.49660818022762
 20
92.95031271287448
 10
-117.53064327393405
 20
91.57372926563197
  0
LWPOLYLINE
  5
10E
330
17
100
AcDbEntity
  8
LED_LAND_ENVELOPE
100
AcDbPolyline
 90
4
 70
1
 10
-119.36608787025739
 20
88.9524427239072
 10
-121.33205277655097
 20
90.3290261711497
 10
-121.7909139256318
 20
89.67370453571851
 10
-119.82494901933823
 20
88.29712108847599
  0
LWPOLYLINE
  5
10F
330
17
100
AcDbEntity
  8
LED_LAND_ENVELOPE
100
AcDbPolyline
 90
4
 70
1
 10
-121.66039361566158
 20
85.67583454675122
 10
-123.62635852195515
 20
87.05241799399374
 10
-124.08521967103599
 20
86.39709635856255
 10
-122.11925476474241
 20
85.02051291132003
  0
LWPOLYLINE
  5
110
330
17
100
AcDbEntity
  8
LED_LAND_ENVELOPE
100
AcDbPolyline
 90
4
 70
1
 10
-123.95469936106576
 20
82.39922636959525
 10
-125.92066426735934
 20
83.77580981683778
 10
-126.37952541644017
 20
83.12048818140659
 10
-124.4135605101466
 20
81.74390473416406
  0
LWPOLYLINE
  5
111
330
17
100
AcDbEntity
  8
LED_LAND_ENVELOPE
100
AcDbPolyline
 90
4
 70
1
 10
-126.24900510646995
 20
79.12261819243929
 10
-128.21497001276353
 20
80.49920163968181
 10
-128.67383116184436
 20
79.84388000425062
 10
-126.70786625555078
 20
78.4672965570081
  0
LWPOLYLINE
  5
112
330
17
100
AcDbEntity
  8
LED_LAND_ENVELOPE
100
AcDbPolyline
 90
4
 70
1
 10
-120.34839030200918
 20
94.52335664646735
 10
-122.31435520830274
 20
95.89994009370986
 10
-122.7732163573836
 20
95.24461845827867
 10
-120.80725145109001
 20
93.86803501103616
  0
LWPOLYLINE
  5
113
330
17
100
AcDbEntity
  8
LED_LAND_ENVELOPE
100
AcDbPolyline
 90
4
 70
1
 10
-122.64269604741335
 20
91.24674846931138
 10
-124.60866095370693
 20
92.6233319165539
 10
-125.06752210278776
 20
91.9680102811227
 10
-123.10155719649418
 20
90.59142683388018
  0
LWPOLYLINE
  5
114
330
17
100
AcDbEntity
  8
LED_LAND_ENVELOPE
100
AcDbPolyline
 90
4
 70
1
 10
-124.93700179281754
 20
87.9701402921554
 10
-126.90296669911112
 20
89.34672373939793
 10
-127.36182784819195
 20
88.69140210396674
 10
-125.39586294189837
 20
87.31481865672421
  0
LWPOLYLINE
  5
115
330
17
100
AcDbEntity
  8
LED_LAND_ENVELOPE
100
AcDbPolyline
 90
4
 70
1
 10
-127.23130753822173
 20
84.69353211499944
 10
-129.1972724445153
 20
86.07011556224197
 10
-129.65613359359614
 20
85.41479392681076
 10
-127.69016868730256
 20
84.03821047956825
  0
LWPOLYLINE
  5
116
330
17
100
AcDbEntity
  8
LED_LAND_ENVELOPE
100
AcDbPolyline
 90
4
 70
1
 10
-129.52561328362592
 20
81.41692393784348
 10
-131.4915781899195
 20
82.79350738508599
 10
-131.95043933900033
 20
82.1381857496548
 10
-129.98447443270675
 20
80.76160230241229
  0
LWPOLYLINE
  5
117
330
17
100
AcDbEntity
  8
LED_LAND_ENVELOPE
100
AcDbPolyline
 90
4
 70
1
 10
-123.62499847916513
 20
96.81766239187152
 10
-125.59096338545874
 20
98.19424583911405
 10
-126.04982453453957
 20
97.53892420368285
 10
-124.08385962824599
 20
96.16234075644033
  0
LWPOLYLINE
  5
118
330
17
100
AcDbEntity
  8
LED_LAND_ENVELOPE
100
AcDbPolyline
 90
4
 70
1
 10
-125.91930422456932
 20
93.54105421471556
 10
-127.88526913086292
 20
94.91763766195808
 10
-128.34413027994376
 20
94.26231602652689
 10
-126.37816537365015
 20
92.88573257928437
  0
LWPOLYLINE
  5
119
330
17
100
AcDbEntity
  8
LED_LAND_ENVELOPE
100
AcDbPolyline
 90
4
 70
1
 10
-128.2136099699735
 20
90.2644460375596
 10
-130.1795748762671
 20
91.64102948480212
 10
-130.63843602534794
 20
90.98570784937093
 10
-128.67247111905434
 20
89.6091244021284
  0
LWPOLYLINE
  5
11A
330
17
100
AcDbEntity
  8
LED_LAND_ENVELOPE
100
AcDbPolyline
 90
4
 70
1
 10
-130.5079157153777
 20
86.98783786040363
 10
-132.4738806216713
 20
88.36442130764615
 10
-132.93274177075213
 20
87.70909967221495
 10
-130.96677686445852
 20
86.33251622497244
  0
LWPOLYLINE
  5
11B
330
17
100
AcDbEntity
  8
LED_LAND_ENVELOPE
100
AcDbPolyline
 90
4
 70
1
 10
-132.80222146078188
 20
83.71122968324767
 10
-134.76818636707546
 20
85.08781313049018
 10
-135.22704751615632
 20
84.43249149505898
 10
-133.2610826098627
 20
83.05590804781647
  0
LWPOLYLINE
  5
11C
330
17
100
AcDbEntity
  8
LED_LAND_ENVELOPE
100
AcDbPolyline
 90
4
 70
1
 10
-126.90160665632112
 20
99.11196813727571
 10
-128.8675715626147
 20
100.48855158451823
 10
-129.32643271169553
 20
99.83322994908704
 10
-127.36046780540195
 20
98.45664650184452
  0
LWPOLYLINE
  5
11D
330
17
100
AcDbEntity
  8
LED_LAND_ENVELOPE
100
AcDbPolyline
 90
4
 70
1
 10
-129.1959124017253
 20
95.83535996011975
 10
-131.1618773080189
 20
97.21194340736227
 10
-131.62073845709972
 20
96.55662177193106
 10
-129.65477355080614
 20
95.18003832468855
  0
LWPOLYLINE
  5
11E
330
17
100
AcDbEntity
  8
LED_LAND_ENVELOPE
100
AcDbPolyline
 90
4
 70
1
 10
-131.4902181471295
 20
92.55875178296378
 10
-133.45618305342308
 20
93.93533523020629
 10
-133.9150442025039
 20
93.2800135947751
 10
-131.94907929621033
 20
91.90343014753259
  0
LWPOLYLINE
  5
11F
330
17
100
AcDbEntity
  8
LED_LAND_ENVELOPE
100
AcDbPolyline
 90
4
 70
1
 10
-133.78452389253368
 20
89.28214360580782
 10
-135.75048879882726
 20
90.65872705305033
 10
-136.2093499479081
 20
90.00340541761912
 10
-134.24338504161452
 20
88.62682197037662
  0
LWPOLYLINE
  5
120
330
17
100
AcDbEntity
  8
LED_LAND_ENVELOPE
100
AcDbPolyline
 90
4
 70
1
 10
-136.07882963793784
 20
86.00553542865185
 10
-138.04479454423142
 20
87.38211887589435
 10
-138.50365569331228
 20
86.72679724046316
 10
-136.5376907870187
 20
85.35021379322066
  0
LWPOLYLINE
  5
121
330
17
100
AcDbEntity
  8
LED_LAND_ENVELOPE
100
AcDbPolyline
 90
4
 70
1
 10
-132.47252057888127
 20
98.12966570552393
 10
-134.43848548517485
 20
99.50624915276646
 10
-134.89734663425568
 20
98.85092751733525
 10
-132.9313817279621
 20
97.47434407009274
  0
LWPOLYLINE
  5
122
330
17
100
AcDbEntity
  8
LED_LAND_ENVELOPE
100
AcDbPolyline
 90
4
 70
1
 10
-134.76682632428546
 20
94.85305752836797
 10
-136.73279123057904
 20
96.22964097561048
 10
-137.19165237965987
 20
95.57431934017929
 10
-135.2256874733663
 20
94.19773589293678
  0
LWPOLYLINE
  5
123
330
17
100
AcDbEntity
  8
LED_LAND_ENVELOPE
100
AcDbPolyline
 90
4
 70
1
 10
-137.06113206968965
 20
91.576449351212
 10
-139.02709697598323
 20
92.95303279845452
 10
-139.48595812506406
 20
92.29771116302331
 10
-137.51999321877048
 20
90.9211277157808
  0
LWPOLYLINE
  5
124
330
17
100
AcDbEntity
  8
LED_LAND_ENVELOPE
100
AcDbPolyline
 90
4
 70
1
 10
-135.74912875603724
 20
100.42397145092812
 10
-137.71509366233082
 20
101.80055489817063
 10
-138.17395481141165
 20
101.14523326273942
 10
-136.20798990511807
 20
99.76864981549693
  0
LWPOLYLINE
  5
125
330
17
100
AcDbEntity
  8
LED_LAND_ENVELOPE
100
AcDbPolyline
 90
4
 70
1
 10
-138.04343450144142
 20
97.14736327377216
 10
-140.009399407735
 20
98.52394672101465
 10
-140.46826055681584
 20
97.86862508558346
 10
-138.50229565052226
 20
96.49204163834096
  0
LWPOLYLINE
  5
126
330
17
100
AcDbEntity
  8
LED_LAND_ENVELOPE
100
AcDbPolyline
 90
4
 70
1
 10
-140.3377402468456
 20
93.8707550966162
 10
-142.3037051531392
 20
95.24733854385869
 10
-142.76256630222002
 20
94.5920169084275
 10
-140.79660139592644
 20
93.21543346118499
  0
LWPOLYLINE
  5
127
330
17
100
AcDbEntity
  8
LED_LAND_ENVELOPE
100
AcDbPolyline
 90
4
 70
1
 10
-160.9796917415332
 20
113.20750349160143
 10
-162.94565664782675
 20
114.58408693884394
 10
-163.40451779690758
 20
113.92876530341275
 10
-161.43855289061403
 20
112.55218185617024
  0
LWPOLYLINE
  5
128
330
17
100
AcDbEntity
  8
STRUCTURE
100
AcDbPolyline
 90
8
 70
1
 10
-56.37055259619158
 20
-42.62439676992508
 10
-74.95331880577405
 20
-49.49747468305832
 10
-106.7731239591687
 20
-94.04520189781081
 10
-121.4809450078489
 20
-118.93536059557727
 10
-118.93536059557732
 20
-121.48094500784885
 10
-94.04520189781084
 20
-106.77312395916867
 10
-49.49747468305834
 20
-74.95331880577403
 10
-42.62439676992509
 20
-56.370552596191565
  0
LWPOLYLINE
  5
129
330
17
100
AcDbEntity
  8
WINDOW
100
AcDbPolyline
 90
8
 70
1
 10
-64.79926542793523
 20
-52.58046024903167
 10
-75.63214131571313
 20
-57.3039335473578
 10
-105.50033175303291
 20
-95.3179941039466
 10
-118.00197964441108
 20
-113.92904458477653
 10
-113.92904458477656
 20
-118.00197964441105
 10
-95.31799410394663
 20
-105.5003317530329
 10
-57.30393354735782
 20
-75.63214131571311
 10
-52.58046024903169
 20
-64.79926542793521
  0
LWPOLYLINE
  5
12A
330
17
100
AcDbEntity
  8
CONTACT_RESERVE
100
AcDbPolyline
 90
4
 70
1
 10
-92.13178015887881
 20
-83.47679315715544
 10
-109.10234290735596
 20
-100.44735590563258
 10
-100.4473559056326
 20
-109.10234290735592
 10
-83.47679315715547
 20
-92.13178015887878
  0
LWPOLYLINE
  5
12B
330
17
100
AcDbEntity
  8
PAD
100
AcDbPolyline
 90
4
 70
1
 10
-93.7298414843604
 20
-86.12137251879312
 10
-106.45776354571827
 20
-98.84929458015098
 10
-102.92222963978553
 20
-102.38482848608372
 10
-90.19430757842767
 20
-89.65690642472586
  0
LWPOLYLINE
  5
12C
330
17
100
AcDbEntity
  8
PAD
100
AcDbPolyline
 90
4
 70
1
 10
-89.65690642472589
 20
-90.19430757842764
 10
-102.38482848608375
 20
-102.9222296397855
 10
-98.84929458015101
 20
-106.45776354571824
 10
-86.12137251879315
 20
-93.72984148436038
  0
LWPOLYLINE
  5
12D
330
17
100
AcDbEntity
  8
LED_LAND_ENVELOPE
100
AcDbPolyline
 90
4
 70
1
 10
-63.07392488184005
 20
-56.851385207398415
 10
-64.77098115668777
 20
-58.548441482246126
 10
-64.20529573173853
 20
-59.11412690719537
 10
-62.50823945689081
 20
-57.41707063234765
  0
LWPOLYLINE
  5
12E
330
17
100
AcDbEntity
  8
LED_LAND_ENVELOPE
100
AcDbPolyline
 90
4
 70
1
 10
-60.24549775709386
 20
-59.67981233214461
 10
-61.942554031941576
 20
-61.37686860699232
 10
-61.37686860699234
 20
-61.942554031941555
 10
-59.67981233214462
 20
-60.245497757093844
  0
LWPOLYLINE
  5
12F
330
17
100
AcDbEntity
  8
LED_LAND_ENVELOPE
100
AcDbPolyline
 90
4
 70
1
 10
-57.417070632347674
 20
-62.50823945689079
 10
-59.114126907195384
 20
-64.20529573173852
 10
-58.54844148224615
 20
-64.77098115668775
 10
-56.85138520739843
 20
-63.073924881840036
  0
LWPOLYLINE
  5
130
330
17
100
AcDbEntity
  8
LED_LAND_ENVELOPE
100
AcDbPolyline
 90
4
 70
1
 10
-68.73077913133244
 20
-56.851385207398415
 10
-70.42783540618015
 20
-58.548441482246126
 10
-69.86214998123091
 20
-59.11412690719536
 10
-68.16509370638319
 20
-57.41707063234765
  0
LWPOLYLINE
  5
131
330
17
100
AcDbEntity
  8
LED_LAND_ENVELOPE
100
AcDbPolyline
 90
4
 70
1
 10
-65.90235200658624
 20
-59.67981233214461
 10
-67.59940828143395
 20
-61.37686860699232
 10
-67.03372285648472
 20
-61.942554031941555
 10
-65.336666581637
 20
-60.245497757093844
  0
LWPOLYLINE
  5
132
330
17
100
AcDbEntity
  8
LED_LAND_ENVELOPE
100
AcDbPolyline
 90
4
 70
1
 10
-63.07392488184005
 20
-62.50823945689079
 10
-64.77098115668777
 20
-64.20529573173852
 10
-64.20529573173853
 20
-64.77098115668775
 10
-62.50823945689081
 20
-63.07392488184003
  0
LWPOLYLINE
  5
133
330
17
100
AcDbEntity
  8
LED_LAND_ENVELOPE
100
AcDbPolyline
 90
4
 70
1
 10
-60.24549775709386
 20
-65.33666658163699
 10
-61.942554031941576
 20
-67.0337228564847
 10
-61.37686860699234
 20
-67.59940828143394
 10
-59.67981233214462
 20
-65.90235200658623
  0
LWPOLYLINE
  5
134
330
17
100
AcDbEntity
  8
LED_LAND_ENVELOPE
100
AcDbPolyline
 90
4
 70
1
 10
-57.417070632347674
 20
-68.16509370638317
 10
-59.114126907195384
 20
-69.86214998123089
 10
-58.54844148224615
 20
-70.42783540618012
 10
-56.85138520739844
 20
-68.73077913133241
  0
LWPOLYLINE
  5
135
330
17
100
AcDbEntity
  8
LED_LAND_ENVELOPE
100
AcDbPolyline
 90
4
 70
1
 10
-71.55920625607862
 20
-59.67981233214461
 10
-73.25626253092634
 20
-61.37686860699232
 10
-72.6905771059771
 20
-61.942554031941555
 10
-70.99352083112939
 20
-60.245497757093844
  0
LWPOLYLINE
  5
136
330
17
100
AcDbEntity
  8
LED_LAND_ENVELOPE
100
AcDbPolyline
 90
4
 70
1
 10
-68.73077913133244
 20
-62.50823945689079
 10
-70.42783540618015
 20
-64.2052957317385
 10
-69.86214998123091
 20
-64.77098115668774
 10
-68.16509370638319
 20
-63.073924881840036
  0
LWPOLYLINE
  5
137
330
17
100
AcDbEntity
  8
LED_LAND_ENVELOPE
100
AcDbPolyline
 90
4
 70
1
 10
-65.90235200658624
 20
-65.33666658163699
 10
-67.59940828143395
 20
-67.0337228564847
 10
-67.03372285648472
 20
-67.59940828143394
 10
-65.336666581637
 20
-65.90235200658623
  0
LWPOLYLINE
  5
138
330
17
100
AcDbEntity
  8
LED_LAND_ENVELOPE
100
AcDbPolyline
 90
4
 70
1
 10
-63.07392488184005
 20
-68.16509370638317
 10
-64.77098115668777
 20
-69.86214998123089
 10
-64.20529573173853
 20
-70.42783540618012
 10
-62.50823945689081
 20
-68.73077913133241
  0
LWPOLYLINE
  5
139
330
17
100
AcDbEntity
  8
LED_LAND_ENVELOPE
100
AcDbPolyline
 90
4
 70
1
 10
-60.24549775709386
 20
-70.99352083112936
 10
-61.942554031941576
 20
-72.69057710597707
 10
-61.37686860699234
 20
-73.25626253092632
 10
-59.67981233214462
 20
-71.55920625607861
  0
LWPOLYLINE
  5
13A
330
17
100
AcDbEntity
  8
LED_LAND_ENVELOPE
100
AcDbPolyline
 90
4
 70
1
 10
-74.38763338082481
 20
-62.50823945689079
 10
-76.08468965567252
 20
-64.2052957317385
 10
-75.51900423072328
 20
-64.77098115668774
 10
-73.82194795587557
 20
-63.07392488184003
  0
LWPOLYLINE
  5
13B
330
17
100
AcDbEntity
  8
LED_LAND_ENVELOPE
100
AcDbPolyline
 90
4
 70
1
 10
-71.55920625607862
 20
-65.33666658163699
 10
-73.25626253092634
 20
-67.0337228564847
 10
-72.6905771059771
 20
-67.59940828143394
 10
-70.99352083112939
 20
-65.90235200658623
  0
LWPOLYLINE
  5
13C
330
17
100
AcDbEntity
  8
LED_LAND_ENVELOPE
100
AcDbPolyline
 90
4
 70
1
 10
-68.73077913133244
 20
-68.16509370638317
 10
-70.42783540618015
 20
-69.86214998123089
 10
-69.86214998123091
 20
-70.42783540618012
 10
-68.1650937063832
 20
-68.73077913133241
  0
LWPOLYLINE
  5
13D
330
17
100
AcDbEntity
  8
LED_LAND_ENVELOPE
100
AcDbPolyline
 90
4
 70
1
 10
-65.90235200658624
 20
-70.99352083112936
 10
-67.59940828143397
 20
-72.69057710597708
 10
-67.03372285648472
 20
-73.25626253092632
 10
-65.336666581637
 20
-71.5592062560786
  0
LWPOLYLINE
  5
13E
330
17
100
AcDbEntity
  8
LED_LAND_ENVELOPE
100
AcDbPolyline
 90
4
 70
1
 10
-63.07392488184006
 20
-73.82194795587556
 10
-64.77098115668777
 20
-75.51900423072327
 10
-64.20529573173853
 20
-76.0846896556725
 10
-62.50823945689082
 20
-74.3876333808248
  0
LWPOLYLINE
  5
13F
330
17
100
AcDbEntity
  8
LED_LAND_ENVELOPE
100
AcDbPolyline
 90
4
 70
1
 10
-77.21606050557101
 20
-65.33666658163699
 10
-78.91311678041872
 20
-67.0337228564847
 10
-78.34743135546948
 20
-67.59940828143394
 10
-76.65037508062177
 20
-65.90235200658623
  0
LWPOLYLINE
  5
140
330
17
100
AcDbEntity
  8
LED_LAND_ENVELOPE
100
AcDbPolyline
 90
4
 70
1
 10
-74.38763338082481
 20
-68.16509370638317
 10
-76.08468965567253
 20
-69.86214998123089
 10
-75.51900423072328
 20
-70.42783540618012
 10
-73.82194795587557
 20
-68.73077913133241
  0
LWPOLYLINE
  5
141
330
17
100
AcDbEntity
  8
LED_LAND_ENVELOPE
100
AcDbPolyline
 90
4
 70
1
 10
-71.55920625607862
 20
-70.99352083112936
 10
-73.25626253092634
 20
-72.69057710597708
 10
-72.6905771059771
 20
-73.25626253092632
 10
-70.99352083112939
 20
-71.5592062560786
  0
LWPOLYLINE
  5
142
330
17
100
AcDbEntity
  8
LED_LAND_ENVELOPE
100
AcDbPolyline
 90
4
 70
1
 10
-68.73077913133244
 20
-73.82194795587556
 10
-70.42783540618015
 20
-75.51900423072327
 10
-69.86214998123091
 20
-76.0846896556725
 10
-68.1650937063832
 20
-74.3876333808248
  0
LWPOLYLINE
  5
143
330
17
100
AcDbEntity
  8
LED_LAND_ENVELOPE
100
AcDbPolyline
 90
4
 70
1
 10
-65.90235200658624
 20
-76.65037508062174
 10
-67.59940828143397
 20
-78.34743135546947
 10
-67.03372285648473
 20
-78.9131167804187
 10
-65.336666581637
 20
-77.216060505571
  0
LWPOLYLINE
  5
144
330
17
100
AcDbEntity
  8
LED_LAND_ENVELOPE
100
AcDbPolyline
 90
4
 70
1
 10
-80.04448763031719
 20
-68.16509370638317
 10
-81.74154390516492
 20
-69.86214998123089
 10
-81.17585848021568
 20
-70.42783540618012
 10
-79.47880220536796
 20
-68.73077913133241
  0
LWPOLYLINE
  5
145
330
17
100
AcDbEntity
  8
LED_LAND_ENVELOPE
100
AcDbPolyline
 90
4
 70
1
 10
-77.21606050557101
 20
-70.99352083112936
 10
-78.91311678041872
 20
-72.69057710597708
 10
-78.34743135546948
 20
-73.25626253092632
 10
-76.65037508062176
 20
-71.5592062560786
  0
LWPOLYLINE
  5
146
330
17
100
AcDbEntity
  8
LED_LAND_ENVELOPE
100
AcDbPolyline
 90
4
 70
1
 10
-74.38763338082481
 20
-73.82194795587554
 10
-76.08468965567253
 20
-75.51900423072327
 10
-75.5190042307233
 20
-76.0846896556725
 10
-73.82194795587557
 20
-74.38763338082478
  0
LWPOLYLINE
  5
147
330
17
100
AcDbEntity
  8
LED_LAND_ENVELOPE
100
AcDbPolyline
 90
4
 70
1
 10
-71.55920625607862
 20
-76.65037508062174
 10
-73.25626253092634
 20
-78.34743135546947
 10
-72.6905771059771
 20
-78.9131167804187
 10
-70.99352083112939
 20
-77.21606050557098
  0
LWPOLYLINE
  5
148
330
17
100
AcDbEntity
  8
LED_LAND_ENVELOPE
100
AcDbPolyline
 90
4
 70
1
 10
-68.73077913133244
 20
-79.47880220536793
 10
-70.42783540618015
 20
-81.17585848021565
 10
-69.86214998123091
 20
-81.74154390516489
 10
-68.1650937063832
 20
-80.04448763031718
  0
LWPOLYLINE
  5
149
330
17
100
AcDbEntity
  8
LED_LAND_ENVELOPE
100
AcDbPolyline
 90
4
 70
1
 10
-82.87291475506339
 20
-70.99352083112936
 10
-84.5699710299111
 20
-72.69057710597707
 10
-84.00428560496186
 20
-73.25626253092632
 10
-82.30722933011414
 20
-71.5592062560786
  0
LWPOLYLINE
  5
14A
330
17
100
AcDbEntity
  8
LED_LAND_ENVELOPE
100
AcDbPolyline
 90
4
 70
1
 10
-80.04448763031719
 20
-73.82194795587554
 10
-81.74154390516492
 20
-75.51900423072327
 10
-81.17585848021568
 20
-76.0846896556725
 10
-79.47880220536796
 20
-74.38763338082478
  0
LWPOLYLINE
  5
14B
330
17
100
AcDbEntity
  8
LED_LAND_ENVELOPE
100
AcDbPolyline
 90
4
 70
1
 10
-77.216060505571
 20
-76.65037508062174
 10
-78.91311678041872
 20
-78.34743135546947
 10
-78.34743135546948
 20
-78.9131167804187
 10
-76.65037508062176
 20
-77.21606050557098
  0
LWPOLYLINE
  5
14C
330
17
100
AcDbEntity
  8
LED_LAND_ENVELOPE
100
AcDbPolyline
 90
4
 70
1
 10
-74.38763338082481
 20
-79.47880220536794
 10
-76.08468965567253
 20
-81.17585848021565
 10
-75.5190042307233
 20
-81.74154390516489
 10
-73.82194795587557
 20
-80.04448763031718
  0
LWPOLYLINE
  5
14D
330
17
100
AcDbEntity
  8
LED_LAND_ENVELOPE
100
AcDbPolyline
 90
4
 70
1
 10
-71.55920625607862
 20
-82.30722933011413
 10
-73.25626253092634
 20
-84.00428560496184
 10
-72.6905771059771
 20
-84.56997102991107
 10
-70.99352083112939
 20
-82.87291475506336
  0
LWPOLYLINE
  5
14E
330
17
100
AcDbEntity
  8
LED_LAND_ENVELOPE
100
AcDbPolyline
 90
4
 70
1
 10
-85.70134187980958
 20
-73.82194795587554
 10
-87.39839815465729
 20
-75.51900423072327
 10
-86.83271272970805
 20
-76.0846896556725
 10
-85.13565645486034
 20
-74.38763338082478
  0
LWPOLYLINE
  5
14F
330
17
100
AcDbEntity
  8
LED_LAND_ENVELOPE
100
AcDbPolyline
 90
4
 70
1
 10
-82.87291475506339
 20
-76.65037508062174
 10
-84.5699710299111
 20
-78.34743135546947
 10
-84.00428560496186
 20
-78.9131167804187
 10
-82.30722933011415
 20
-77.21606050557098
  0
LWPOLYLINE
  5
150
330
17
100
AcDbEntity
  8
LED_LAND_ENVELOPE
100
AcDbPolyline
 90
4
 70
1
 10
-80.04448763031719
 20
-79.47880220536793
 10
-81.74154390516492
 20
-81.17585848021565
 10
-81.17585848021568
 20
-81.74154390516489
 10
-79.47880220536796
 20
-80.04448763031716
  0
LWPOLYLINE
  5
151
330
17
100
AcDbEntity
  8
LED_LAND_ENVELOPE
100
AcDbPolyline
 90
4
 70
1
 10
-77.21606050557101
 20
-82.30722933011413
 10
-78.91311678041872
 20
-84.00428560496184
 10
-78.34743135546948
 20
-84.56997102991107
 10
-76.65037508062176
 20
-82.87291475506336
  0
LWPOLYLINE
  5
152
330
17
100
AcDbEntity
  8
LED_LAND_ENVELOPE
100
AcDbPolyline
 90
4
 70
1
 10
-74.38763338082481
 20
-85.13565645486031
 10
-76.08468965567253
 20
-86.83271272970804
 10
-75.5190042307233
 20
-87.39839815465727
 10
-73.82194795587557
 20
-85.70134187980955
  0
LWPOLYLINE
  5
153
330
17
100
AcDbEntity
  8
LED_LAND_ENVELOPE
100
AcDbPolyline
 90
4
 70
1
 10
-88.52976900455576
 20
-76.65037508062173
 10
-90.22682527940349
 20
-78.34743135546947
 10
-89.66113985445423
 20
-78.9131167804187
 10
-87.96408357960652
 20
-77.21606050557098
  0
LWPOLYLINE
  5
154
330
17
100
AcDbEntity
  8
LED_LAND_ENVELOPE
100
AcDbPolyline
 90
4
 70
1
 10
-85.70134187980958
 20
-79.47880220536793
 10
-87.39839815465729
 20
-81.17585848021565
 10
-86.83271272970805
 20
-81.74154390516489
 10
-85.13565645486034
 20
-80.04448763031716
  0
LWPOLYLINE
  5
155
330
17
100
AcDbEntity
  8
LED_LAND_ENVELOPE
100
AcDbPolyline
 90
4
 70
1
 10
-82.87291475506339
 20
-82.30722933011413
 10
-84.5699710299111
 20
-84.00428560496184
 10
-84.00428560496186
 20
-84.56997102991107
 10
-82.30722933011415
 20
-82.87291475506336
  0
LWPOLYLINE
  5
156
330
17
100
AcDbEntity
  8
LED_LAND_ENVELOPE
100
AcDbPolyline
 90
4
 70
1
 10
-80.04448763031719
 20
-85.13565645486031
 10
-81.74154390516492
 20
-86.83271272970804
 10
-81.17585848021568
 20
-87.39839815465727
 10
-79.47880220536796
 20
-85.70134187980955
  0
LWPOLYLINE
  5
157
330
17
100
AcDbEntity
  8
LED_LAND_ENVELOPE
100
AcDbPolyline
 90
4
 70
1
 10
-77.21606050557101
 20
-87.9640835796065
 10
-78.91311678041872
 20
-89.66113985445423
 10
-78.34743135546948
 20
-90.22682527940347
 10
-76.65037508062177
 20
-88.52976900455573
  0
LWPOLYLINE
  5
158
330
17
100
AcDbEntity
  8
LED_LAND_ENVELOPE
100
AcDbPolyline
 90
4
 70
1
 10
-88.52976900455576
 20
-82.30722933011413
 10
-90.22682527940349
 20
-84.00428560496184
 10
-89.66113985445425
 20
-84.56997102991107
 10
-87.96408357960652
 20
-82.87291475506336
  0
LWPOLYLINE
  5
159
330
17
100
AcDbEntity
  8
LED_LAND_ENVELOPE
100
AcDbPolyline
 90
4
 70
1
 10
-85.70134187980958
 20
-85.13565645486031
 10
-87.39839815465729
 20
-86.83271272970802
 10
-86.83271272970805
 20
-87.39839815465726
 10
-85.13565645486034
 20
-85.70134187980955
  0
LWPOLYLINE
  5
15A
330
17
100
AcDbEntity
  8
LED_LAND_ENVELOPE
100
AcDbPolyline
 90
4
 70
1
 10
-82.87291475506339
 20
-87.9640835796065
 10
-84.5699710299111
 20
-89.66113985445422
 10
-84.00428560496186
 20
-90.22682527940346
 10
-82.30722933011415
 20
-88.52976900455573
  0
LWPOLYLINE
  5
15B
330
17
100
AcDbEntity
  8
LED_LAND_ENVELOPE
100
AcDbPolyline
 90
4
 70
1
 10
-105.50033175303291
 20
-104.93464632808363
 10
-107.19738802788063
 20
-106.63170260293137
 10
-106.6317026029314
 20
-107.1973880278806
 10
-104.93464632808367
 20
-105.50033175303287
  0
LWPOLYLINE
  5
15C
330
17
100
AcDbEntity
  8
LED_LAND_ENVELOPE
100
AcDbPolyline
 90
4
 70
1
 10
-108.32875887777911
 20
-107.76307345282983
 10
-110.02581515262682
 20
-109.46012972767755
 10
-109.46012972767758
 20
-110.02581515262679
 10
-107.76307345282987
 20
-108.32875887777907
  0
LWPOLYLINE
  5
15D
330
17
100
AcDbEntity
  8
LED_LAND_ENVELOPE
100
AcDbPolyline
 90
4
 70
1
 10
-111.1571860025253
 20
-110.59150057757603
 10
-112.854242277373
 20
-112.28855685242374
 10
-112.28855685242377
 20
-112.85424227737298
 10
-110.59150057757606
 20
-111.15718600252526
  0
LWPOLYLINE
  5
15E
330
17
100
AcDbEntity
  8
STRUCTURE
100
AcDbPolyline
 90
8
 70
1
 10
42.62439676992507
 20
-56.37055259619157
 10
49.49747468305831
 20
-74.95331880577405
 10
94.04520189781078
 20
-106.7731239591687
 10
118.93536059557727
 20
-121.4809450078489
 10
121.48094500784885
 20
-118.93536059557732
 10
106.77312395916866
 20
-94.04520189781084
 10
74.95331880577402
 20
-49.49747468305834
 10
56.37055259619156
 20
-42.6243967699251
  0
LWPOLYLINE
  5
15F
330
17
100
AcDbEntity
  8
WINDOW
100
AcDbPolyline
 90
8
 70
1
 10
52.58046024903166
 20
-64.79926542793523
 10
57.30393354735779
 20
-75.63214131571313
 10
95.31799410394657
 20
-105.50033175303291
 10
113.9290445847765
 20
-118.00197964441108
 10
118.00197964441102
 20
-113.92904458477656
 10
105.50033175303287
 20
-95.31799410394663
 10
75.63214131571311
 20
-57.30393354735783
 10
64.7992654279352
 20
-52.58046024903169
  0
LWPOLYLINE
  5
160
330
17
100
AcDbEntity
  8
CONTACT_RESERVE
100
AcDbPolyline
 90
4
 70
1
 10
83.47679315715543
 20
-92.13178015887881
 10
100.44735590563256
 20
-109.10234290735596
 10
109.1023429073559
 20
-100.4473559056326
 10
92.13178015887877
 20
-83.47679315715547
  0
LWPOLYLINE
  5
161
330
17
100
AcDbEntity
  8
PAD
100
AcDbPolyline
 90
4
 70
1
 10
86.12137251879312
 20
-93.7298414843604
 10
98.84929458015097
 20
-106.45776354571827
 10
102.3848284860837
 20
-102.92222963978553
 10
89.65690642472586
 20
-90.19430757842767
  0
LWPOLYLINE
  5
162
330
17
100
AcDbEntity
  8
PAD
100
AcDbPolyline
 90
4
 70
1
 10
90.19430757842764
 20
-89.65690642472589
 10
102.92222963978548
 20
-102.38482848608375
 10
106.45776354571822
 20
-98.84929458015101
 10
93.72984148436038
 20
-86.12137251879315
  0
LWPOLYLINE
  5
163
330
17
100
AcDbEntity
  8
LED_LAND_ENVELOPE
100
AcDbPolyline
 90
4
 70
1
 10
56.85138520739841
 20
-63.07392488184005
 10
58.54844148224612
 20
-64.77098115668777
 10
59.114126907195356
 20
-64.20529573173853
 10
57.417070632347645
 20
-62.50823945689081
  0
LWPOLYLINE
  5
164
330
17
100
AcDbEntity
  8
LED_LAND_ENVELOPE
100
AcDbPolyline
 90
4
 70
1
 10
59.67981233214459
 20
-60.24549775709386
 10
61.37686860699231
 20
-61.942554031941576
 10
61.94255403194155
 20
-61.37686860699234
 10
60.24549775709383
 20
-59.67981233214462
  0
LWPOLYLINE
  5
165
330
17
100
AcDbEntity
  8
LED_LAND_ENVELOPE
100
AcDbPolyline
 90
4
 70
1
 10
62.508239456890784
 20
-57.417070632347674
 10
64.2052957317385
 20
-59.114126907195384
 10
64.77098115668774
 20
-58.54844148224615
 10
63.07392488184003
 20
-56.85138520739844
  0
LWPOLYLINE
  5
166
330
17
100
AcDbEntity
  8
LED_LAND_ENVELOPE
100
AcDbPolyline
 90
4
 70
1
 10
56.8513852073984
 20
-68.73077913133243
 10
58.54844148224612
 20
-70.42783540618015
 10
59.114126907195356
 20
-69.86214998123091
 10
57.417070632347645
 20
-68.16509370638319
  0
LWPOLYLINE
  5
167
330
17
100
AcDbEntity
  8
LED_LAND_ENVELOPE
100
AcDbPolyline
 90
4
 70
1
 10
59.67981233214459
 20
-65.90235200658624
 10
61.3768686069923
 20
-67.59940828143395
 10
61.94255403194155
 20
-67.03372285648472
 10
60.24549775709383
 20
-65.336666581637
  0
LWPOLYLINE
  5
168
330
17
100
AcDbEntity
  8
LED_LAND_ENVELOPE
100
AcDbPolyline
 90
4
 70
1
 10
62.508239456890784
 20
-63.07392488184005
 10
64.2052957317385
 20
-64.77098115668777
 10
64.77098115668774
 20
-64.20529573173853
 10
63.07392488184002
 20
-62.50823945689081
  0
LWPOLYLINE
  5
169
330
17
100
AcDbEntity
  8
LED_LAND_ENVELOPE
100
AcDbPolyline
 90
4
 70
1
 10
65.33666658163698
 20
-60.24549775709386
 10
67.03372285648469
 20
-61.942554031941576
 10
67.59940828143392
 20
-61.37686860699234
 10
65.90235200658621
 20
-59.67981233214462
  0
LWPOLYLINE
  5
16A
330
17
100
AcDbEntity
  8
LED_LAND_ENVELOPE
100
AcDbPolyline
 90
4
 70
1
 10
68.16509370638317
 20
-57.417070632347674
 10
69.86214998123089
 20
-59.114126907195384
 10
70.42783540618012
 20
-58.54844148224615
 10
68.73077913133241
 20
-56.85138520739844
  0
LWPOLYLINE
  5
16B
330
17
100
AcDbEntity
  8
LED_LAND_ENVELOPE
100
AcDbPolyline
 90
4
 70
1
 10
59.67981233214459
 20
-71.55920625607862
 10
61.37686860699231
 20
-73.25626253092634
 10
61.94255403194155
 20
-72.6905771059771
 10
60.24549775709383
 20
-70.99352083112939
  0
LWPOLYLINE
  5
16C
330
17
100
AcDbEntity
  8
LED_LAND_ENVELOPE
100
AcDbPolyline
 90
4
 70
1
 10
62.508239456890784
 20
-68.73077913133244
 10
64.2052957317385
 20
-70.42783540618015
 10
64.77098115668774
 20
-69.86214998123091
 10
63.07392488184002
 20
-68.16509370638319
  0
LWPOLYLINE
  5
16D
330
17
100
AcDbEntity
  8
LED_LAND_ENVELOPE
100
AcDbPolyline
 90
4
 70
1
 10
65.33666658163698
 20
-65.90235200658624
 10
67.03372285648469
 20
-67.59940828143395
 10
67.59940828143392
 20
-67.03372285648472
 10
65.90235200658621
 20
-65.336666581637
  0
LWPOLYLINE
  5
16E
330
17
100
AcDbEntity
  8
LED_LAND_ENVELOPE
100
AcDbPolyline
 90
4
 70
1
 10
68.16509370638317
 20
-63.07392488184005
 10
69.86214998123089
 20
-64.77098115668777
 10
70.42783540618012
 20
-64.20529573173853
 10
68.73077913133241
 20
-62.50823945689081
  0
LWPOLYLINE
  5
16F
330
17
100
AcDbEntity
  8
LED_LAND_ENVELOPE
100
AcDbPolyline
 90
4
 70
1
 10
70.99352083112936
 20
-60.245497757093865
 10
72.69057710597707
 20
-61.942554031941576
 10
73.2562625309263
 20
-61.37686860699234
 10
71.5592062560786
 20
-59.67981233214462
  0
LWPOLYLINE
  5
170
330
17
100
AcDbEntity
  8
LED_LAND_ENVELOPE
100
AcDbPolyline
 90
4
 70
1
 10
62.508239456890784
 20
-74.38763338082481
 10
64.2052957317385
 20
-76.08468965567252
 10
64.77098115668774
 20
-75.51900423072328
 10
63.07392488184002
 20
-73.82194795587557
  0
LWPOLYLINE
  5
171
330
17
100
AcDbEntity
  8
LED_LAND_ENVELOPE
100
AcDbPolyline
 90
4
 70
1
 10
65.33666658163698
 20
-71.55920625607862
 10
67.03372285648469
 20
-73.25626253092634
 10
67.59940828143392
 20
-72.6905771059771
 10
65.90235200658621
 20
-70.99352083112939
  0
LWPOLYLINE
  5
172
330
17
100
AcDbEntity
  8
LED_LAND_ENVELOPE
100
AcDbPolyline
 90
4
 70
1
 10
68.16509370638316
 20
-68.73077913133244
 10
69.86214998123089
 20
-70.42783540618015
 10
70.42783540618012
 20
-69.86214998123091
 10
68.7307791313324
 20
-68.1650937063832
  0
LWPOLYLINE
  5
173
330
17
100
AcDbEntity
  8
LED_LAND_ENVELOPE
100
AcDbPolyline
 90
4
 70
1
 10
70.99352083112936
 20
-65.90235200658624
 10
72.69057710597707
 20
-67.59940828143397
 10
73.2562625309263
 20
-67.03372285648472
 10
71.5592062560786
 20
-65.336666581637
  0
LWPOLYLINE
  5
174
330
17
100
AcDbEntity
  8
LED_LAND_ENVELOPE
100
AcDbPolyline
 90
4
 70
1
 10
73.82194795587554
 20
-63.07392488184006
 10
75.51900423072325
 20
-64.77098115668777
 10
76.08468965567249
 20
-64.20529573173853
 10
74.38763338082478
 20
-62.50823945689082
  0
LWPOLYLINE
  5
175
330
17
100
AcDbEntity
  8
LED_LAND_ENVELOPE
100
AcDbPolyline
 90
4
 70
1
 10
65.33666658163698
 20
-77.21606050557101
 10
67.03372285648469
 20
-78.91311678041872
 10
67.59940828143392
 20
-78.34743135546948
 10
65.90235200658621
 20
-76.65037508062177
  0
LWPOLYLINE
  5
176
330
17
100
AcDbEntity
  8
LED_LAND_ENVELOPE
100
AcDbPolyline
 90
4
 70
1
 10
68.16509370638316
 20
-74.38763338082481
 10
69.86214998123089
 20
-76.08468965567253
 10
70.42783540618012
 20
-75.51900423072328
 10
68.7307791313324
 20
-73.82194795587557
  0
LWPOLYLINE
  5
177
330
17
100
AcDbEntity
  8
LED_LAND_ENVELOPE
100
AcDbPolyline
 90
4
 70
1
 10
70.99352083112936
 20
-71.55920625607862
 10
72.69057710597707
 20
-73.25626253092634
 10
73.2562625309263
 20
-72.6905771059771
 10
71.5592062560786
 20
-70.99352083112939
  0
LWPOLYLINE
  5
178
330
17
100
AcDbEntity
  8
LED_LAND_ENVELOPE
100
AcDbPolyline
 90
4
 70
1
 10
73.82194795587554
 20
-68.73077913133244
 10
75.51900423072325
 20
-70.42783540618015
 10
76.08468965567249
 20
-69.86214998123091
 10
74.38763338082478
 20
-68.1650937063832
  0
LWPOLYLINE
  5
179
330
17
100
AcDbEntity
  8
LED_LAND_ENVELOPE
100
AcDbPolyline
 90
4
 70
1
 10
76.65037508062173
 20
-65.90235200658624
 10
78.34743135546945
 20
-67.59940828143397
 10
78.91311678041869
 20
-67.03372285648473
 10
77.21606050557098
 20
-65.336666581637
  0
LWPOLYLINE
  5
17A
330
17
100
AcDbEntity
  8
LED_LAND_ENVELOPE
100
AcDbPolyline
 90
4
 70
1
 10
68.16509370638316
 20
-80.04448763031719
 10
69.86214998123087
 20
-81.74154390516492
 10
70.42783540618012
 20
-81.17585848021568
 10
68.7307791313324
 20
-79.47880220536796
  0
LWPOLYLINE
  5
17B
330
17
100
AcDbEntity
  8
LED_LAND_ENVELOPE
100
AcDbPolyline
 90
4
 70
1
 10
70.99352083112935
 20
-77.21606050557101
 10
72.69057710597707
 20
-78.91311678041872
 10
73.2562625309263
 20
-78.34743135546948
 10
71.55920625607858
 20
-76.65037508062176
  0
LWPOLYLINE
  5
17C
330
17
100
AcDbEntity
  8
LED_LAND_ENVELOPE
100
AcDbPolyline
 90
4
 70
1
 10
73.82194795587554
 20
-74.38763338082481
 10
75.51900423072325
 20
-76.08468965567253
 10
76.08468965567249
 20
-75.5190042307233
 10
74.38763338082478
 20
-73.82194795587557
  0
LWPOLYLINE
  5
17D
330
17
100
AcDbEntity
  8
LED_LAND_ENVELOPE
100
AcDbPolyline
 90
4
 70
1
 10
76.65037508062173
 20
-71.55920625607862
 10
78.34743135546945
 20
-73.25626253092634
 10
78.91311678041869
 20
-72.6905771059771
 10
77.21606050557097
 20
-70.99352083112939
  0
LWPOLYLINE
  5
17E
330
17
100
AcDbEntity
  8
LED_LAND_ENVELOPE
100
AcDbPolyline
 90
4
 70
1
 10
79.47880220536791
 20
-68.73077913133244
 10
81.17585848021564
 20
-70.42783540618015
 10
81.74154390516487
 20
-69.86214998123091
 10
80.04448763031716
 20
-68.1650937063832
  0
LWPOLYLINE
  5
17F
330
17
100
AcDbEntity
  8
LED_LAND_ENVELOPE
100
AcDbPolyline
 90
4
 70
1
 10
70.99352083112935
 20
-82.87291475506338
 10
72.69057710597707
 20
-84.5699710299111
 10
73.2562625309263
 20
-84.00428560496186
 10
71.5592062560786
 20
-82.30722933011414
  0
LWPOLYLINE
  5
180
330
17
100
AcDbEntity
  8
LED_LAND_ENVELOPE
100
AcDbPolyline
 90
4
 70
1
 10
73.82194795587554
 20
-80.04448763031719
 10
75.51900423072325
 20
-81.74154390516492
 10
76.08468965567249
 20
-81.17585848021568
 10
74.38763338082478
 20
-79.47880220536796
  0
LWPOLYLINE
  5
181
330
17
100
AcDbEntity
  8
LED_LAND_ENVELOPE
100
AcDbPolyline
 90
4
 70
1
 10
76.65037508062173
 20
-77.216060505571
 10
78.34743135546945
 20
-78.91311678041872
 10
78.91311678041869
 20
-78.34743135546948
 10
77.21606050557097
 20
-76.65037508062176
  0
LWPOLYLINE
  5
182
330
17
100
AcDbEntity
  8
LED_LAND_ENVELOPE
100
AcDbPolyline
 90
4
 70
1
 10
79.47880220536793
 20
-74.38763338082481
 10
81.17585848021564
 20
-76.08468965567253
 10
81.74154390516487
 20
-75.5190042307233
 10
80.04448763031716
 20
-73.82194795587557
  0
LWPOLYLINE
  5
183
330
17
100
AcDbEntity
  8
LED_LAND_ENVELOPE
100
AcDbPolyline
 90
4
 70
1
 10
82.30722933011411
 20
-71.55920625607862
 10
84.00428560496184
 20
-73.25626253092634
 10
84.56997102991107
 20
-72.6905771059771
 10
82.87291475506335
 20
-70.99352083112939
  0
LWPOLYLINE
  5
184
330
17
100
AcDbEntity
  8
LED_LAND_ENVELOPE
100
AcDbPolyline
 90
4
 70
1
 10
73.82194795587554
 20
-85.70134187980958
 10
75.51900423072325
 20
-87.39839815465729
 10
76.08468965567249
 20
-86.83271272970805
 10
74.38763338082478
 20
-85.13565645486034
  0
LWPOLYLINE
  5
185
330
17
100
AcDbEntity
  8
LED_LAND_ENVELOPE
100
AcDbPolyline
 90
4
 70
1
 10
76.65037508062173
 20
-82.87291475506339
 10
78.34743135546944
 20
-84.5699710299111
 10
78.91311678041868
 20
-84.00428560496186
 10
77.21606050557097
 20
-82.30722933011415
  0
LWPOLYLINE
  5
186
330
17
100
AcDbEntity
  8
LED_LAND_ENVELOPE
100
AcDbPolyline
 90
4
 70
1
 10
79.47880220536791
 20
-80.04448763031719
 10
81.17585848021564
 20
-81.74154390516492
 10
81.74154390516487
 20
-81.17585848021568
 10
80.04448763031715
 20
-79.47880220536796
  0
LWPOLYLINE
  5
187
330
17
100
AcDbEntity
  8
LED_LAND_ENVELOPE
100
AcDbPolyline
 90
4
 70
1
 10
82.30722933011411
 20
-77.21606050557101
 10
84.00428560496184
 20
-78.91311678041872
 10
84.56997102991107
 20
-78.34743135546948
 10
82.87291475506335
 20
-76.65037508062176
  0
LWPOLYLINE
  5
188
330
17
100
AcDbEntity
  8
LED_LAND_ENVELOPE
100
AcDbPolyline
 90
4
 70
1
 10
85.13565645486031
 20
-74.38763338082481
 10
86.83271272970802
 20
-76.08468965567253
 10
87.39839815465726
 20
-75.5190042307233
 10
85.70134187980955
 20
-73.82194795587557
  0
LWPOLYLINE
  5
189
330
17
100
AcDbEntity
  8
LED_LAND_ENVELOPE
100
AcDbPolyline
 90
4
 70
1
 10
76.65037508062173
 20
-88.52976900455576
 10
78.34743135546944
 20
-90.22682527940347
 10
78.91311678041869
 20
-89.66113985445423
 10
77.21606050557097
 20
-87.96408357960652
  0
LWPOLYLINE
  5
18A
330
17
100
AcDbEntity
  8
LED_LAND_ENVELOPE
100
AcDbPolyline
 90
4
 70
1
 10
79.47880220536791
 20
-85.70134187980958
 10
81.17585848021564
 20
-87.39839815465729
 10
81.74154390516487
 20
-86.83271272970805
 10
80.04448763031715
 20
-85.13565645486034
  0
LWPOLYLINE
  5
18B
330
17
100
AcDbEntity
  8
LED_LAND_ENVELOPE
100
AcDbPolyline
 90
4
 70
1
 10
82.30722933011411
 20
-82.87291475506339
 10
84.00428560496184
 20
-84.5699710299111
 10
84.56997102991107
 20
-84.00428560496186
 10
82.87291475506335
 20
-82.30722933011415
  0
LWPOLYLINE
  5
18C
330
17
100
AcDbEntity
  8
LED_LAND_ENVELOPE
100
AcDbPolyline
 90
4
 70
1
 10
85.13565645486031
 20
-80.04448763031719
 10
86.83271272970802
 20
-81.74154390516492
 10
87.39839815465726
 20
-81.17585848021568
 10
85.70134187980955
 20
-79.47880220536796
  0
LWPOLYLINE
  5
18D
330
17
100
AcDbEntity
  8
LED_LAND_ENVELOPE
100
AcDbPolyline
 90
4
 70
1
 10
87.9640835796065
 20
-77.21606050557101
 10
89.6611398544542
 20
-78.91311678041872
 10
90.22682527940344
 20
-78.34743135546948
 10
88.52976900455573
 20
-76.65037508062177
  0
LWPOLYLINE
  5
18E
330
17
100
AcDbEntity
  8
LED_LAND_ENVELOPE
100
AcDbPolyline
 90
4
 70
1
 10
82.3072293301141
 20
-88.52976900455576
 10
84.00428560496182
 20
-90.22682527940349
 10
84.56997102991106
 20
-89.66113985445425
 10
82.87291475506333
 20
-87.96408357960652
  0
LWPOLYLINE
  5
18F
330
17
100
AcDbEntity
  8
LED_LAND_ENVELOPE
100
AcDbPolyline
 90
4
 70
1
 10
85.1356564548603
 20
-85.70134187980958
 10
86.83271272970802
 20
-87.39839815465729
 10
87.39839815465726
 20
-86.83271272970805
 10
85.70134187980953
 20
-85.13565645486034
  0
LWPOLYLINE
  5
190
330
17
100
AcDbEntity
  8
LED_LAND_ENVELOPE
100
AcDbPolyline
 90
4
 70
1
 10
87.9640835796065
 20
-82.87291475506339
 10
89.6611398544542
 20
-84.5699710299111
 10
90.22682527940344
 20
-84.00428560496186
 10
88.52976900455573
 20
-82.30722933011415
  0
LWPOLYLINE
  5
191
330
17
100
AcDbEntity
  8
LED_LAND_ENVELOPE
100
AcDbPolyline
 90
4
 70
1
 10
104.93464632808363
 20
-105.50033175303291
 10
106.63170260293134
 20
-107.19738802788063
 10
107.19738802788058
 20
-106.6317026029314
 10
105.50033175303287
 20
-104.93464632808367
  0
LWPOLYLINE
  5
192
330
17
100
AcDbEntity
  8
LED_LAND_ENVELOPE
100
AcDbPolyline
 90
4
 70
1
 10
107.76307345282981
 20
-108.32875887777911
 10
109.46012972767753
 20
-110.02581515262682
 10
110.02581515262676
 20
-109.46012972767758
 10
108.32875887777905
 20
-107.76307345282987
  0
LWPOLYLINE
  5
193
330
17
100
AcDbEntity
  8
LED_LAND_ENVELOPE
100
AcDbPolyline
 90
4
 70
1
 10
110.591500577576
 20
-111.1571860025253
 10
112.28855685242372
 20
-112.854242277373
 10
112.85424227737296
 20
-112.28855685242377
 10
111.15718600252524
 20
-110.59150057757606
  0
LWPOLYLINE
  5
194
330
17
100
AcDbEntity
  8
LED_LAND_ENVELOPE
100
AcDbPolyline
 90
4
 70
1
 10
-28.2
 20
-6.4
 10
-25.8
 20
-6.4
 10
-25.8
 20
-5.6
 10
-28.2
 20
-5.6
  0
LWPOLYLINE
  5
195
330
17
100
AcDbEntity
  8
LED_LAND_ENVELOPE
100
AcDbPolyline
 90
4
 70
1
 10
-28.2
 20
-0.4
 10
-25.8
 20
-0.4
 10
-25.8
 20
0.4
 10
-28.2
 20
0.4
  0
LWPOLYLINE
  5
196
330
17
100
AcDbEntity
  8
LED_LAND_ENVELOPE
100
AcDbPolyline
 90
4
 70
1
 10
-28.2
 20
5.6
 10
-25.8
 20
5.6
 10
-25.8
 20
6.4
 10
-28.2
 20
6.4
  0
LWPOLYLINE
  5
197
330
17
100
AcDbEntity
  8
LED_LAND_ENVELOPE
100
AcDbPolyline
 90
4
 70
1
 10
-25.2
 20
-9.4
 10
-22.8
 20
-9.4
 10
-22.8
 20
-8.6
 10
-25.2
 20
-8.6
  0
LWPOLYLINE
  5
198
330
17
100
AcDbEntity
  8
LED_LAND_ENVELOPE
100
AcDbPolyline
 90
4
 70
1
 10
-25.2
 20
-3.4
 10
-22.8
 20
-3.4
 10
-22.8
 20
-2.6
 10
-25.2
 20
-2.6
  0
LWPOLYLINE
  5
199
330
17
100
AcDbEntity
  8
LED_LAND_ENVELOPE
100
AcDbPolyline
 90
4
 70
1
 10
-25.2
 20
2.6
 10
-22.8
 20
2.6
 10
-22.8
 20
3.4
 10
-25.2
 20
3.4
  0
LWPOLYLINE
  5
19A
330
17
100
AcDbEntity
  8
LED_LAND_ENVELOPE
100
AcDbPolyline
 90
4
 70
1
 10
-25.2
 20
8.6
 10
-22.8
 20
8.6
 10
-22.8
 20
9.4
 10
-25.2
 20
9.4
  0
LWPOLYLINE
  5
19B
330
17
100
AcDbEntity
  8
LED_LAND_ENVELOPE
100
AcDbPolyline
 90
4
 70
1
 10
-22.2
 20
-18.4
 10
-19.8
 20
-18.4
 10
-19.8
 20
-17.6
 10
-22.2
 20
-17.6
  0
LWPOLYLINE
  5
19C
330
17
100
AcDbEntity
  8
LED_LAND_ENVELOPE
100
AcDbPolyline
 90
4
 70
1
 10
-22.2
 20
-12.4
 10
-19.8
 20
-12.4
 10
-19.8
 20
-11.6
 10
-22.2
 20
-11.6
  0
LWPOLYLINE
  5
19D
330
17
100
AcDbEntity
  8
LED_LAND_ENVELOPE
100
AcDbPolyline
 90
4
 70
1
 10
-22.2
 20
-6.4
 10
-19.8
 20
-6.4
 10
-19.8
 20
-5.6
 10
-22.2
 20
-5.6
  0
LWPOLYLINE
  5
19E
330
17
100
AcDbEntity
  8
LED_LAND_ENVELOPE
100
AcDbPolyline
 90
4
 70
1
 10
-22.2
 20
-0.4
 10
-19.8
 20
-0.4
 10
-19.8
 20
0.4
 10
-22.2
 20
0.4
  0
LWPOLYLINE
  5
19F
330
17
100
AcDbEntity
  8
LED_LAND_ENVELOPE
100
AcDbPolyline
 90
4
 70
1
 10
-22.2
 20
5.6
 10
-19.8
 20
5.6
 10
-19.8
 20
6.4
 10
-22.2
 20
6.4
  0
LWPOLYLINE
  5
1A0
330
17
100
AcDbEntity
  8
LED_LAND_ENVELOPE
100
AcDbPolyline
 90
4
 70
1
 10
-22.2
 20
11.6
 10
-19.8
 20
11.6
 10
-19.8
 20
12.4
 10
-22.2
 20
12.4
  0
LWPOLYLINE
  5
1A1
330
17
100
AcDbEntity
  8
LED_LAND_ENVELOPE
100
AcDbPolyline
 90
4
 70
1
 10
-22.2
 20
17.6
 10
-19.8
 20
17.6
 10
-19.8
 20
18.4
 10
-22.2
 20
18.4
  0
LWPOLYLINE
  5
1A2
330
17
100
AcDbEntity
  8
LED_LAND_ENVELOPE
100
AcDbPolyline
 90
4
 70
1
 10
-19.2
 20
-18.4
 10
-16.8
 20
-18.4
 10
-16.8
 20
-17.6
 10
-19.2
 20
-17.6
  0
LWPOLYLINE
  5
1A3
330
17
100
AcDbEntity
  8
LED_LAND_ENVELOPE
100
AcDbPolyline
 90
4
 70
1
 10
-19.2
 20
-12.4
 10
-16.8
 20
-12.4
 10
-16.8
 20
-11.6
 10
-19.2
 20
-11.6
  0
LWPOLYLINE
  5
1A4
330
17
100
AcDbEntity
  8
LED_LAND_ENVELOPE
100
AcDbPolyline
 90
4
 70
1
 10
-19.2
 20
-6.4
 10
-16.8
 20
-6.4
 10
-16.8
 20
-5.6
 10
-19.2
 20
-5.6
  0
LWPOLYLINE
  5
1A5
330
17
100
AcDbEntity
  8
LED_LAND_ENVELOPE
100
AcDbPolyline
 90
4
 70
1
 10
-19.2
 20
-0.4
 10
-16.8
 20
-0.4
 10
-16.8
 20
0.4
 10
-19.2
 20
0.4
  0
LWPOLYLINE
  5
1A6
330
17
100
AcDbEntity
  8
LED_LAND_ENVELOPE
100
AcDbPolyline
 90
4
 70
1
 10
-19.2
 20
5.6
 10
-16.8
 20
5.6
 10
-16.8
 20
6.4
 10
-19.2
 20
6.4
  0
LWPOLYLINE
  5
1A7
330
17
100
AcDbEntity
  8
LED_LAND_ENVELOPE
100
AcDbPolyline
 90
4
 70
1
 10
-19.2
 20
11.6
 10
-16.8
 20
11.6
 10
-16.8
 20
12.4
 10
-19.2
 20
12.4
  0
LWPOLYLINE
  5
1A8
330
17
100
AcDbEntity
  8
LED_LAND_ENVELOPE
100
AcDbPolyline
 90
4
 70
1
 10
-19.2
 20
17.6
 10
-16.8
 20
17.6
 10
-16.8
 20
18.4
 10
-19.2
 20
18.4
  0
LWPOLYLINE
  5
1A9
330
17
100
AcDbEntity
  8
LED_LAND_ENVELOPE
100
AcDbPolyline
 90
4
 70
1
 10
-16.2
 20
-24.4
 10
-13.8
 20
-24.4
 10
-13.8
 20
-23.6
 10
-16.2
 20
-23.6
  0
LWPOLYLINE
  5
1AA
330
17
100
AcDbEntity
  8
LED_LAND_ENVELOPE
100
AcDbPolyline
 90
4
 70
1
 10
-16.2
 20
-18.4
 10
-13.8
 20
-18.4
 10
-13.8
 20
-17.6
 10
-16.2
 20
-17.6
  0
LWPOLYLINE
  5
1AB
330
17
100
AcDbEntity
  8
LED_LAND_ENVELOPE
100
AcDbPolyline
 90
4
 70
1
 10
-16.2
 20
-12.4
 10
-13.8
 20
-12.4
 10
-13.8
 20
-11.6
 10
-16.2
 20
-11.6
  0
LWPOLYLINE
  5
1AC
330
17
100
AcDbEntity
  8
LED_LAND_ENVELOPE
100
AcDbPolyline
 90
4
 70
1
 10
-16.2
 20
-6.4
 10
-13.8
 20
-6.4
 10
-13.8
 20
-5.6
 10
-16.2
 20
-5.6
  0
LWPOLYLINE
  5
1AD
330
17
100
AcDbEntity
  8
LED_LAND_ENVELOPE
100
AcDbPolyline
 90
4
 70
1
 10
-16.2
 20
-0.4
 10
-13.8
 20
-0.4
 10
-13.8
 20
0.4
 10
-16.2
 20
0.4
  0
LWPOLYLINE
  5
1AE
330
17
100
AcDbEntity
  8
LED_LAND_ENVELOPE
100
AcDbPolyline
 90
4
 70
1
 10
-16.2
 20
5.6
 10
-13.8
 20
5.6
 10
-13.8
 20
6.4
 10
-16.2
 20
6.4
  0
LWPOLYLINE
  5
1AF
330
17
100
AcDbEntity
  8
LED_LAND_ENVELOPE
100
AcDbPolyline
 90
4
 70
1
 10
-16.2
 20
11.6
 10
-13.8
 20
11.6
 10
-13.8
 20
12.4
 10
-16.2
 20
12.4
  0
LWPOLYLINE
  5
1B0
330
17
100
AcDbEntity
  8
LED_LAND_ENVELOPE
100
AcDbPolyline
 90
4
 70
1
 10
-16.2
 20
17.6
 10
-13.8
 20
17.6
 10
-13.8
 20
18.4
 10
-16.2
 20
18.4
  0
LWPOLYLINE
  5
1B1
330
17
100
AcDbEntity
  8
LED_LAND_ENVELOPE
100
AcDbPolyline
 90
4
 70
1
 10
-16.2
 20
23.6
 10
-13.8
 20
23.6
 10
-13.8
 20
24.4
 10
-16.2
 20
24.4
  0
LWPOLYLINE
  5
1B2
330
17
100
AcDbEntity
  8
LED_LAND_ENVELOPE
100
AcDbPolyline
 90
4
 70
1
 10
-13.2
 20
-21.4
 10
-10.8
 20
-21.4
 10
-10.8
 20
-20.6
 10
-13.2
 20
-20.6
  0
LWPOLYLINE
  5
1B3
330
17
100
AcDbEntity
  8
LED_LAND_ENVELOPE
100
AcDbPolyline
 90
4
 70
1
 10
-13.2
 20
-15.4
 10
-10.8
 20
-15.4
 10
-10.8
 20
-14.6
 10
-13.2
 20
-14.6
  0
LWPOLYLINE
  5
1B4
330
17
100
AcDbEntity
  8
LED_LAND_ENVELOPE
100
AcDbPolyline
 90
4
 70
1
 10
-13.2
 20
-9.4
 10
-10.8
 20
-9.4
 10
-10.8
 20
-8.6
 10
-13.2
 20
-8.6
  0
LWPOLYLINE
  5
1B5
330
17
100
AcDbEntity
  8
LED_LAND_ENVELOPE
100
AcDbPolyline
 90
4
 70
1
 10
-13.2
 20
-3.4
 10
-10.8
 20
-3.4
 10
-10.8
 20
-2.6
 10
-13.2
 20
-2.6
  0
LWPOLYLINE
  5
1B6
330
17
100
AcDbEntity
  8
LED_LAND_ENVELOPE
100
AcDbPolyline
 90
4
 70
1
 10
-13.2
 20
2.6
 10
-10.8
 20
2.6
 10
-10.8
 20
3.4
 10
-13.2
 20
3.4
  0
LWPOLYLINE
  5
1B7
330
17
100
AcDbEntity
  8
LED_LAND_ENVELOPE
100
AcDbPolyline
 90
4
 70
1
 10
-13.2
 20
8.6
 10
-10.8
 20
8.6
 10
-10.8
 20
9.4
 10
-13.2
 20
9.4
  0
LWPOLYLINE
  5
1B8
330
17
100
AcDbEntity
  8
LED_LAND_ENVELOPE
100
AcDbPolyline
 90
4
 70
1
 10
-13.2
 20
14.6
 10
-10.8
 20
14.6
 10
-10.8
 20
15.4
 10
-13.2
 20
15.4
  0
LWPOLYLINE
  5
1B9
330
17
100
AcDbEntity
  8
LED_LAND_ENVELOPE
100
AcDbPolyline
 90
4
 70
1
 10
-13.2
 20
20.6
 10
-10.8
 20
20.6
 10
-10.8
 20
21.4
 10
-13.2
 20
21.4
  0
LWPOLYLINE
  5
1BA
330
17
100
AcDbEntity
  8
LED_LAND_ENVELOPE
100
AcDbPolyline
 90
4
 70
1
 10
-10.2
 20
-27.4
 10
-7.8
 20
-27.4
 10
-7.8
 20
-26.6
 10
-10.2
 20
-26.6
  0
LWPOLYLINE
  5
1BB
330
17
100
AcDbEntity
  8
LED_LAND_ENVELOPE
100
AcDbPolyline
 90
4
 70
1
 10
-10.2
 20
-21.4
 10
-7.8
 20
-21.4
 10
-7.8
 20
-20.6
 10
-10.2
 20
-20.6
  0
LWPOLYLINE
  5
1BC
330
17
100
AcDbEntity
  8
LED_LAND_ENVELOPE
100
AcDbPolyline
 90
4
 70
1
 10
-10.2
 20
-15.4
 10
-7.8
 20
-15.4
 10
-7.8
 20
-14.6
 10
-10.2
 20
-14.6
  0
LWPOLYLINE
  5
1BD
330
17
100
AcDbEntity
  8
LED_LAND_ENVELOPE
100
AcDbPolyline
 90
4
 70
1
 10
-10.2
 20
-9.4
 10
-7.8
 20
-9.4
 10
-7.8
 20
-8.6
 10
-10.2
 20
-8.6
  0
LWPOLYLINE
  5
1BE
330
17
100
AcDbEntity
  8
LED_LAND_ENVELOPE
100
AcDbPolyline
 90
4
 70
1
 10
-10.2
 20
-3.4
 10
-7.8
 20
-3.4
 10
-7.8
 20
-2.6
 10
-10.2
 20
-2.6
  0
LWPOLYLINE
  5
1BF
330
17
100
AcDbEntity
  8
LED_LAND_ENVELOPE
100
AcDbPolyline
 90
4
 70
1
 10
-10.2
 20
2.6
 10
-7.8
 20
2.6
 10
-7.8
 20
3.4
 10
-10.2
 20
3.4
  0
LWPOLYLINE
  5
1C0
330
17
100
AcDbEntity
  8
LED_LAND_ENVELOPE
100
AcDbPolyline
 90
4
 70
1
 10
-10.2
 20
8.6
 10
-7.8
 20
8.6
 10
-7.8
 20
9.4
 10
-10.2
 20
9.4
  0
LWPOLYLINE
  5
1C1
330
17
100
AcDbEntity
  8
LED_LAND_ENVELOPE
100
AcDbPolyline
 90
4
 70
1
 10
-10.2
 20
14.6
 10
-7.8
 20
14.6
 10
-7.8
 20
15.4
 10
-10.2
 20
15.4
  0
LWPOLYLINE
  5
1C2
330
17
100
AcDbEntity
  8
LED_LAND_ENVELOPE
100
AcDbPolyline
 90
4
 70
1
 10
-10.2
 20
20.6
 10
-7.8
 20
20.6
 10
-7.8
 20
21.4
 10
-10.2
 20
21.4
  0
LWPOLYLINE
  5
1C3
330
17
100
AcDbEntity
  8
LED_LAND_ENVELOPE
100
AcDbPolyline
 90
4
 70
1
 10
-10.2
 20
26.6
 10
-7.8
 20
26.6
 10
-7.8
 20
27.4
 10
-10.2
 20
27.4
  0
LWPOLYLINE
  5
1C4
330
17
100
AcDbEntity
  8
LED_LAND_ENVELOPE
100
AcDbPolyline
 90
4
 70
1
 10
-7.2
 20
-24.4
 10
-4.8
 20
-24.4
 10
-4.8
 20
-23.6
 10
-7.2
 20
-23.6
  0
LWPOLYLINE
  5
1C5
330
17
100
AcDbEntity
  8
LED_LAND_ENVELOPE
100
AcDbPolyline
 90
4
 70
1
 10
-7.2
 20
-18.4
 10
-4.8
 20
-18.4
 10
-4.8
 20
-17.6
 10
-7.2
 20
-17.6
  0
LWPOLYLINE
  5
1C6
330
17
100
AcDbEntity
  8
LED_LAND_ENVELOPE
100
AcDbPolyline
 90
4
 70
1
 10
-7.2
 20
-12.4
 10
-4.8
 20
-12.4
 10
-4.8
 20
-11.6
 10
-7.2
 20
-11.6
  0
LWPOLYLINE
  5
1C7
330
17
100
AcDbEntity
  8
LED_LAND_ENVELOPE
100
AcDbPolyline
 90
4
 70
1
 10
-7.2
 20
-6.4
 10
-4.8
 20
-6.4
 10
-4.8
 20
-5.6
 10
-7.2
 20
-5.6
  0
LWPOLYLINE
  5
1C8
330
17
100
AcDbEntity
  8
LED_LAND_ENVELOPE
100
AcDbPolyline
 90
4
 70
1
 10
-7.2
 20
-0.4
 10
-4.8
 20
-0.4
 10
-4.8
 20
0.4
 10
-7.2
 20
0.4
  0
LWPOLYLINE
  5
1C9
330
17
100
AcDbEntity
  8
LED_LAND_ENVELOPE
100
AcDbPolyline
 90
4
 70
1
 10
-7.2
 20
5.6
 10
-4.8
 20
5.6
 10
-4.8
 20
6.4
 10
-7.2
 20
6.4
  0
LWPOLYLINE
  5
1CA
330
17
100
AcDbEntity
  8
LED_LAND_ENVELOPE
100
AcDbPolyline
 90
4
 70
1
 10
-7.2
 20
11.6
 10
-4.8
 20
11.6
 10
-4.8
 20
12.4
 10
-7.2
 20
12.4
  0
LWPOLYLINE
  5
1CB
330
17
100
AcDbEntity
  8
LED_LAND_ENVELOPE
100
AcDbPolyline
 90
4
 70
1
 10
-7.2
 20
17.6
 10
-4.8
 20
17.6
 10
-4.8
 20
18.4
 10
-7.2
 20
18.4
  0
LWPOLYLINE
  5
1CC
330
17
100
AcDbEntity
  8
LED_LAND_ENVELOPE
100
AcDbPolyline
 90
4
 70
1
 10
-7.2
 20
23.6
 10
-4.8
 20
23.6
 10
-4.8
 20
24.4
 10
-7.2
 20
24.4
  0
LWPOLYLINE
  5
1CD
330
17
100
AcDbEntity
  8
LED_LAND_ENVELOPE
100
AcDbPolyline
 90
4
 70
1
 10
-4.2
 20
-27.4
 10
-1.8
 20
-27.4
 10
-1.8
 20
-26.6
 10
-4.2
 20
-26.6
  0
LWPOLYLINE
  5
1CE
330
17
100
AcDbEntity
  8
LED_LAND_ENVELOPE
100
AcDbPolyline
 90
4
 70
1
 10
-4.2
 20
-21.4
 10
-1.8
 20
-21.4
 10
-1.8
 20
-20.6
 10
-4.2
 20
-20.6
  0
LWPOLYLINE
  5
1CF
330
17
100
AcDbEntity
  8
LED_LAND_ENVELOPE
100
AcDbPolyline
 90
4
 70
1
 10
-4.2
 20
-15.4
 10
-1.8
 20
-15.4
 10
-1.8
 20
-14.6
 10
-4.2
 20
-14.6
  0
LWPOLYLINE
  5
1D0
330
17
100
AcDbEntity
  8
LED_LAND_ENVELOPE
100
AcDbPolyline
 90
4
 70
1
 10
-4.2
 20
-9.4
 10
-1.8
 20
-9.4
 10
-1.8
 20
-8.6
 10
-4.2
 20
-8.6
  0
LWPOLYLINE
  5
1D1
330
17
100
AcDbEntity
  8
LED_LAND_ENVELOPE
100
AcDbPolyline
 90
4
 70
1
 10
-4.2
 20
-3.4
 10
-1.8
 20
-3.4
 10
-1.8
 20
-2.6
 10
-4.2
 20
-2.6
  0
LWPOLYLINE
  5
1D2
330
17
100
AcDbEntity
  8
LED_LAND_ENVELOPE
100
AcDbPolyline
 90
4
 70
1
 10
-4.2
 20
2.6
 10
-1.8
 20
2.6
 10
-1.8
 20
3.4
 10
-4.2
 20
3.4
  0
LWPOLYLINE
  5
1D3
330
17
100
AcDbEntity
  8
LED_LAND_ENVELOPE
100
AcDbPolyline
 90
4
 70
1
 10
-4.2
 20
8.6
 10
-1.8
 20
8.6
 10
-1.8
 20
9.4
 10
-4.2
 20
9.4
  0
LWPOLYLINE
  5
1D4
330
17
100
AcDbEntity
  8
LED_LAND_ENVELOPE
100
AcDbPolyline
 90
4
 70
1
 10
-4.2
 20
14.6
 10
-1.8
 20
14.6
 10
-1.8
 20
15.4
 10
-4.2
 20
15.4
  0
LWPOLYLINE
  5
1D5
330
17
100
AcDbEntity
  8
LED_LAND_ENVELOPE
100
AcDbPolyline
 90
4
 70
1
 10
-4.2
 20
20.6
 10
-1.8
 20
20.6
 10
-1.8
 20
21.4
 10
-4.2
 20
21.4
  0
LWPOLYLINE
  5
1D6
330
17
100
AcDbEntity
  8
LED_LAND_ENVELOPE
100
AcDbPolyline
 90
4
 70
1
 10
-4.2
 20
26.6
 10
-1.8
 20
26.6
 10
-1.8
 20
27.4
 10
-4.2
 20
27.4
  0
LWPOLYLINE
  5
1D7
330
17
100
AcDbEntity
  8
LED_LAND_ENVELOPE
100
AcDbPolyline
 90
4
 70
1
 10
-1.2
 20
-24.4
 10
1.2
 20
-24.4
 10
1.2
 20
-23.6
 10
-1.2
 20
-23.6
  0
LWPOLYLINE
  5
1D8
330
17
100
AcDbEntity
  8
LED_LAND_ENVELOPE
100
AcDbPolyline
 90
4
 70
1
 10
-1.2
 20
-18.4
 10
1.2
 20
-18.4
 10
1.2
 20
-17.6
 10
-1.2
 20
-17.6
  0
LWPOLYLINE
  5
1D9
330
17
100
AcDbEntity
  8
LED_LAND_ENVELOPE
100
AcDbPolyline
 90
4
 70
1
 10
-1.2
 20
-12.4
 10
1.2
 20
-12.4
 10
1.2
 20
-11.6
 10
-1.2
 20
-11.6
  0
LWPOLYLINE
  5
1DA
330
17
100
AcDbEntity
  8
LED_LAND_ENVELOPE
100
AcDbPolyline
 90
4
 70
1
 10
-1.2
 20
-6.4
 10
1.2
 20
-6.4
 10
1.2
 20
-5.6
 10
-1.2
 20
-5.6
  0
LWPOLYLINE
  5
1DB
330
17
100
AcDbEntity
  8
LED_LAND_ENVELOPE
100
AcDbPolyline
 90
4
 70
1
 10
-1.2
 20
-0.4
 10
1.2
 20
-0.4
 10
1.2
 20
0.4
 10
-1.2
 20
0.4
  0
LWPOLYLINE
  5
1DC
330
17
100
AcDbEntity
  8
LED_LAND_ENVELOPE
100
AcDbPolyline
 90
4
 70
1
 10
-1.2
 20
5.6
 10
1.2
 20
5.6
 10
1.2
 20
6.4
 10
-1.2
 20
6.4
  0
LWPOLYLINE
  5
1DD
330
17
100
AcDbEntity
  8
LED_LAND_ENVELOPE
100
AcDbPolyline
 90
4
 70
1
 10
-1.2
 20
11.6
 10
1.2
 20
11.6
 10
1.2
 20
12.4
 10
-1.2
 20
12.4
  0
LWPOLYLINE
  5
1DE
330
17
100
AcDbEntity
  8
LED_LAND_ENVELOPE
100
AcDbPolyline
 90
4
 70
1
 10
-1.2
 20
17.6
 10
1.2
 20
17.6
 10
1.2
 20
18.4
 10
-1.2
 20
18.4
  0
LWPOLYLINE
  5
1DF
330
17
100
AcDbEntity
  8
LED_LAND_ENVELOPE
100
AcDbPolyline
 90
4
 70
1
 10
-1.2
 20
23.6
 10
1.2
 20
23.6
 10
1.2
 20
24.4
 10
-1.2
 20
24.4
  0
LWPOLYLINE
  5
1E0
330
17
100
AcDbEntity
  8
LED_LAND_ENVELOPE
100
AcDbPolyline
 90
4
 70
1
 10
1.8
 20
-27.4
 10
4.2
 20
-27.4
 10
4.2
 20
-26.6
 10
1.8
 20
-26.6
  0
LWPOLYLINE
  5
1E1
330
17
100
AcDbEntity
  8
LED_LAND_ENVELOPE
100
AcDbPolyline
 90
4
 70
1
 10
1.8
 20
-21.4
 10
4.2
 20
-21.4
 10
4.2
 20
-20.6
 10
1.8
 20
-20.6
  0
LWPOLYLINE
  5
1E2
330
17
100
AcDbEntity
  8
LED_LAND_ENVELOPE
100
AcDbPolyline
 90
4
 70
1
 10
1.8
 20
-15.4
 10
4.2
 20
-15.4
 10
4.2
 20
-14.6
 10
1.8
 20
-14.6
  0
LWPOLYLINE
  5
1E3
330
17
100
AcDbEntity
  8
LED_LAND_ENVELOPE
100
AcDbPolyline
 90
4
 70
1
 10
1.8
 20
-9.4
 10
4.2
 20
-9.4
 10
4.2
 20
-8.6
 10
1.8
 20
-8.6
  0
LWPOLYLINE
  5
1E4
330
17
100
AcDbEntity
  8
LED_LAND_ENVELOPE
100
AcDbPolyline
 90
4
 70
1
 10
1.8
 20
-3.4
 10
4.2
 20
-3.4
 10
4.2
 20
-2.6
 10
1.8
 20
-2.6
  0
LWPOLYLINE
  5
1E5
330
17
100
AcDbEntity
  8
LED_LAND_ENVELOPE
100
AcDbPolyline
 90
4
 70
1
 10
1.8
 20
2.6
 10
4.2
 20
2.6
 10
4.2
 20
3.4
 10
1.8
 20
3.4
  0
LWPOLYLINE
  5
1E6
330
17
100
AcDbEntity
  8
LED_LAND_ENVELOPE
100
AcDbPolyline
 90
4
 70
1
 10
1.8
 20
8.6
 10
4.2
 20
8.6
 10
4.2
 20
9.4
 10
1.8
 20
9.4
  0
LWPOLYLINE
  5
1E7
330
17
100
AcDbEntity
  8
LED_LAND_ENVELOPE
100
AcDbPolyline
 90
4
 70
1
 10
1.8
 20
14.6
 10
4.2
 20
14.6
 10
4.2
 20
15.4
 10
1.8
 20
15.4
  0
LWPOLYLINE
  5
1E8
330
17
100
AcDbEntity
  8
LED_LAND_ENVELOPE
100
AcDbPolyline
 90
4
 70
1
 10
1.8
 20
20.6
 10
4.2
 20
20.6
 10
4.2
 20
21.4
 10
1.8
 20
21.4
  0
LWPOLYLINE
  5
1E9
330
17
100
AcDbEntity
  8
LED_LAND_ENVELOPE
100
AcDbPolyline
 90
4
 70
1
 10
1.8
 20
26.6
 10
4.2
 20
26.6
 10
4.2
 20
27.4
 10
1.8
 20
27.4
  0
LWPOLYLINE
  5
1EA
330
17
100
AcDbEntity
  8
LED_LAND_ENVELOPE
100
AcDbPolyline
 90
4
 70
1
 10
4.8
 20
-24.4
 10
7.2
 20
-24.4
 10
7.2
 20
-23.6
 10
4.8
 20
-23.6
  0
LWPOLYLINE
  5
1EB
330
17
100
AcDbEntity
  8
LED_LAND_ENVELOPE
100
AcDbPolyline
 90
4
 70
1
 10
4.8
 20
-18.4
 10
7.2
 20
-18.4
 10
7.2
 20
-17.6
 10
4.8
 20
-17.6
  0
LWPOLYLINE
  5
1EC
330
17
100
AcDbEntity
  8
LED_LAND_ENVELOPE
100
AcDbPolyline
 90
4
 70
1
 10
4.8
 20
-12.4
 10
7.2
 20
-12.4
 10
7.2
 20
-11.6
 10
4.8
 20
-11.6
  0
LWPOLYLINE
  5
1ED
330
17
100
AcDbEntity
  8
LED_LAND_ENVELOPE
100
AcDbPolyline
 90
4
 70
1
 10
4.8
 20
-6.4
 10
7.2
 20
-6.4
 10
7.2
 20
-5.6
 10
4.8
 20
-5.6
  0
LWPOLYLINE
  5
1EE
330
17
100
AcDbEntity
  8
LED_LAND_ENVELOPE
100
AcDbPolyline
 90
4
 70
1
 10
4.8
 20
-0.4
 10
7.2
 20
-0.4
 10
7.2
 20
0.4
 10
4.8
 20
0.4
  0
LWPOLYLINE
  5
1EF
330
17
100
AcDbEntity
  8
LED_LAND_ENVELOPE
100
AcDbPolyline
 90
4
 70
1
 10
4.8
 20
5.6
 10
7.2
 20
5.6
 10
7.2
 20
6.4
 10
4.8
 20
6.4
  0
LWPOLYLINE
  5
1F0
330
17
100
AcDbEntity
  8
LED_LAND_ENVELOPE
100
AcDbPolyline
 90
4
 70
1
 10
4.8
 20
11.6
 10
7.2
 20
11.6
 10
7.2
 20
12.4
 10
4.8
 20
12.4
  0
LWPOLYLINE
  5
1F1
330
17
100
AcDbEntity
  8
LED_LAND_ENVELOPE
100
AcDbPolyline
 90
4
 70
1
 10
4.8
 20
17.6
 10
7.2
 20
17.6
 10
7.2
 20
18.4
 10
4.8
 20
18.4
  0
LWPOLYLINE
  5
1F2
330
17
100
AcDbEntity
  8
LED_LAND_ENVELOPE
100
AcDbPolyline
 90
4
 70
1
 10
4.8
 20
23.6
 10
7.2
 20
23.6
 10
7.2
 20
24.4
 10
4.8
 20
24.4
  0
LWPOLYLINE
  5
1F3
330
17
100
AcDbEntity
  8
LED_LAND_ENVELOPE
100
AcDbPolyline
 90
4
 70
1
 10
7.8
 20
-27.4
 10
10.2
 20
-27.4
 10
10.2
 20
-26.6
 10
7.8
 20
-26.6
  0
LWPOLYLINE
  5
1F4
330
17
100
AcDbEntity
  8
LED_LAND_ENVELOPE
100
AcDbPolyline
 90
4
 70
1
 10
7.8
 20
-21.4
 10
10.2
 20
-21.4
 10
10.2
 20
-20.6
 10
7.8
 20
-20.6
  0
LWPOLYLINE
  5
1F5
330
17
100
AcDbEntity
  8
LED_LAND_ENVELOPE
100
AcDbPolyline
 90
4
 70
1
 10
7.8
 20
-15.4
 10
10.2
 20
-15.4
 10
10.2
 20
-14.6
 10
7.8
 20
-14.6
  0
LWPOLYLINE
  5
1F6
330
17
100
AcDbEntity
  8
LED_LAND_ENVELOPE
100
AcDbPolyline
 90
4
 70
1
 10
7.8
 20
-9.4
 10
10.2
 20
-9.4
 10
10.2
 20
-8.6
 10
7.8
 20
-8.6
  0
LWPOLYLINE
  5
1F7
330
17
100
AcDbEntity
  8
LED_LAND_ENVELOPE
100
AcDbPolyline
 90
4
 70
1
 10
7.8
 20
-3.4
 10
10.2
 20
-3.4
 10
10.2
 20
-2.6
 10
7.8
 20
-2.6
  0
LWPOLYLINE
  5
1F8
330
17
100
AcDbEntity
  8
LED_LAND_ENVELOPE
100
AcDbPolyline
 90
4
 70
1
 10
7.8
 20
2.6
 10
10.2
 20
2.6
 10
10.2
 20
3.4
 10
7.8
 20
3.4
  0
LWPOLYLINE
  5
1F9
330
17
100
AcDbEntity
  8
LED_LAND_ENVELOPE
100
AcDbPolyline
 90
4
 70
1
 10
7.8
 20
8.6
 10
10.2
 20
8.6
 10
10.2
 20
9.4
 10
7.8
 20
9.4
  0
LWPOLYLINE
  5
1FA
330
17
100
AcDbEntity
  8
LED_LAND_ENVELOPE
100
AcDbPolyline
 90
4
 70
1
 10
7.8
 20
14.6
 10
10.2
 20
14.6
 10
10.2
 20
15.4
 10
7.8
 20
15.4
  0
LWPOLYLINE
  5
1FB
330
17
100
AcDbEntity
  8
LED_LAND_ENVELOPE
100
AcDbPolyline
 90
4
 70
1
 10
7.8
 20
20.6
 10
10.2
 20
20.6
 10
10.2
 20
21.4
 10
7.8
 20
21.4
  0
LWPOLYLINE
  5
1FC
330
17
100
AcDbEntity
  8
LED_LAND_ENVELOPE
100
AcDbPolyline
 90
4
 70
1
 10
7.8
 20
26.6
 10
10.2
 20
26.6
 10
10.2
 20
27.4
 10
7.8
 20
27.4
  0
LWPOLYLINE
  5
1FD
330
17
100
AcDbEntity
  8
LED_LAND_ENVELOPE
100
AcDbPolyline
 90
4
 70
1
 10
10.8
 20
-21.4
 10
13.2
 20
-21.4
 10
13.2
 20
-20.6
 10
10.8
 20
-20.6
  0
LWPOLYLINE
  5
1FE
330
17
100
AcDbEntity
  8
LED_LAND_ENVELOPE
100
AcDbPolyline
 90
4
 70
1
 10
10.8
 20
-15.4
 10
13.2
 20
-15.4
 10
13.2
 20
-14.6
 10
10.8
 20
-14.6
  0
LWPOLYLINE
  5
1FF
330
17
100
AcDbEntity
  8
LED_LAND_ENVELOPE
100
AcDbPolyline
 90
4
 70
1
 10
10.8
 20
-9.4
 10
13.2
 20
-9.4
 10
13.2
 20
-8.6
 10
10.8
 20
-8.6
  0
LWPOLYLINE
  5
200
330
17
100
AcDbEntity
  8
LED_LAND_ENVELOPE
100
AcDbPolyline
 90
4
 70
1
 10
10.8
 20
-3.4
 10
13.2
 20
-3.4
 10
13.2
 20
-2.6
 10
10.8
 20
-2.6
  0
LWPOLYLINE
  5
201
330
17
100
AcDbEntity
  8
LED_LAND_ENVELOPE
100
AcDbPolyline
 90
4
 70
1
 10
10.8
 20
2.6
 10
13.2
 20
2.6
 10
13.2
 20
3.4
 10
10.8
 20
3.4
  0
LWPOLYLINE
  5
202
330
17
100
AcDbEntity
  8
LED_LAND_ENVELOPE
100
AcDbPolyline
 90
4
 70
1
 10
10.8
 20
8.6
 10
13.2
 20
8.6
 10
13.2
 20
9.4
 10
10.8
 20
9.4
  0
LWPOLYLINE
  5
203
330
17
100
AcDbEntity
  8
LED_LAND_ENVELOPE
100
AcDbPolyline
 90
4
 70
1
 10
10.8
 20
14.6
 10
13.2
 20
14.6
 10
13.2
 20
15.4
 10
10.8
 20
15.4
  0
LWPOLYLINE
  5
204
330
17
100
AcDbEntity
  8
LED_LAND_ENVELOPE
100
AcDbPolyline
 90
4
 70
1
 10
10.8
 20
20.6
 10
13.2
 20
20.6
 10
13.2
 20
21.4
 10
10.8
 20
21.4
  0
LWPOLYLINE
  5
205
330
17
100
AcDbEntity
  8
LED_LAND_ENVELOPE
100
AcDbPolyline
 90
4
 70
1
 10
13.8
 20
-24.4
 10
16.2
 20
-24.4
 10
16.2
 20
-23.6
 10
13.8
 20
-23.6
  0
LWPOLYLINE
  5
206
330
17
100
AcDbEntity
  8
LED_LAND_ENVELOPE
100
AcDbPolyline
 90
4
 70
1
 10
13.8
 20
-18.4
 10
16.2
 20
-18.4
 10
16.2
 20
-17.6
 10
13.8
 20
-17.6
  0
LWPOLYLINE
  5
207
330
17
100
AcDbEntity
  8
LED_LAND_ENVELOPE
100
AcDbPolyline
 90
4
 70
1
 10
13.8
 20
-12.4
 10
16.2
 20
-12.4
 10
16.2
 20
-11.6
 10
13.8
 20
-11.6
  0
LWPOLYLINE
  5
208
330
17
100
AcDbEntity
  8
LED_LAND_ENVELOPE
100
AcDbPolyline
 90
4
 70
1
 10
13.8
 20
-6.4
 10
16.2
 20
-6.4
 10
16.2
 20
-5.6
 10
13.8
 20
-5.6
  0
LWPOLYLINE
  5
209
330
17
100
AcDbEntity
  8
LED_LAND_ENVELOPE
100
AcDbPolyline
 90
4
 70
1
 10
13.8
 20
-0.4
 10
16.2
 20
-0.4
 10
16.2
 20
0.4
 10
13.8
 20
0.4
  0
LWPOLYLINE
  5
20A
330
17
100
AcDbEntity
  8
LED_LAND_ENVELOPE
100
AcDbPolyline
 90
4
 70
1
 10
13.8
 20
5.6
 10
16.2
 20
5.6
 10
16.2
 20
6.4
 10
13.8
 20
6.4
  0
LWPOLYLINE
  5
20B
330
17
100
AcDbEntity
  8
LED_LAND_ENVELOPE
100
AcDbPolyline
 90
4
 70
1
 10
13.8
 20
11.6
 10
16.2
 20
11.6
 10
16.2
 20
12.4
 10
13.8
 20
12.4
  0
LWPOLYLINE
  5
20C
330
17
100
AcDbEntity
  8
LED_LAND_ENVELOPE
100
AcDbPolyline
 90
4
 70
1
 10
13.8
 20
17.6
 10
16.2
 20
17.6
 10
16.2
 20
18.4
 10
13.8
 20
18.4
  0
LWPOLYLINE
  5
20D
330
17
100
AcDbEntity
  8
LED_LAND_ENVELOPE
100
AcDbPolyline
 90
4
 70
1
 10
13.8
 20
23.6
 10
16.2
 20
23.6
 10
16.2
 20
24.4
 10
13.8
 20
24.4
  0
LWPOLYLINE
  5
20E
330
17
100
AcDbEntity
  8
LED_LAND_ENVELOPE
100
AcDbPolyline
 90
4
 70
1
 10
16.8
 20
-18.4
 10
19.2
 20
-18.4
 10
19.2
 20
-17.6
 10
16.8
 20
-17.6
  0
LWPOLYLINE
  5
20F
330
17
100
AcDbEntity
  8
LED_LAND_ENVELOPE
100
AcDbPolyline
 90
4
 70
1
 10
16.8
 20
-12.4
 10
19.2
 20
-12.4
 10
19.2
 20
-11.6
 10
16.8
 20
-11.6
  0
LWPOLYLINE
  5
210
330
17
100
AcDbEntity
  8
LED_LAND_ENVELOPE
100
AcDbPolyline
 90
4
 70
1
 10
16.8
 20
-6.4
 10
19.2
 20
-6.4
 10
19.2
 20
-5.6
 10
16.8
 20
-5.6
  0
LWPOLYLINE
  5
211
330
17
100
AcDbEntity
  8
LED_LAND_ENVELOPE
100
AcDbPolyline
 90
4
 70
1
 10
16.8
 20
-0.4
 10
19.2
 20
-0.4
 10
19.2
 20
0.4
 10
16.8
 20
0.4
  0
LWPOLYLINE
  5
212
330
17
100
AcDbEntity
  8
LED_LAND_ENVELOPE
100
AcDbPolyline
 90
4
 70
1
 10
16.8
 20
5.6
 10
19.2
 20
5.6
 10
19.2
 20
6.4
 10
16.8
 20
6.4
  0
LWPOLYLINE
  5
213
330
17
100
AcDbEntity
  8
LED_LAND_ENVELOPE
100
AcDbPolyline
 90
4
 70
1
 10
16.8
 20
11.6
 10
19.2
 20
11.6
 10
19.2
 20
12.4
 10
16.8
 20
12.4
  0
LWPOLYLINE
  5
214
330
17
100
AcDbEntity
  8
LED_LAND_ENVELOPE
100
AcDbPolyline
 90
4
 70
1
 10
16.8
 20
17.6
 10
19.2
 20
17.6
 10
19.2
 20
18.4
 10
16.8
 20
18.4
  0
LWPOLYLINE
  5
215
330
17
100
AcDbEntity
  8
LED_LAND_ENVELOPE
100
AcDbPolyline
 90
4
 70
1
 10
19.8
 20
-18.4
 10
22.2
 20
-18.4
 10
22.2
 20
-17.6
 10
19.8
 20
-17.6
  0
LWPOLYLINE
  5
216
330
17
100
AcDbEntity
  8
LED_LAND_ENVELOPE
100
AcDbPolyline
 90
4
 70
1
 10
19.8
 20
-12.4
 10
22.2
 20
-12.4
 10
22.2
 20
-11.6
 10
19.8
 20
-11.6
  0
LWPOLYLINE
  5
217
330
17
100
AcDbEntity
  8
LED_LAND_ENVELOPE
100
AcDbPolyline
 90
4
 70
1
 10
19.8
 20
-6.4
 10
22.2
 20
-6.4
 10
22.2
 20
-5.6
 10
19.8
 20
-5.6
  0
LWPOLYLINE
  5
218
330
17
100
AcDbEntity
  8
LED_LAND_ENVELOPE
100
AcDbPolyline
 90
4
 70
1
 10
19.8
 20
-0.4
 10
22.2
 20
-0.4
 10
22.2
 20
0.4
 10
19.8
 20
0.4
  0
LWPOLYLINE
  5
219
330
17
100
AcDbEntity
  8
LED_LAND_ENVELOPE
100
AcDbPolyline
 90
4
 70
1
 10
19.8
 20
5.6
 10
22.2
 20
5.6
 10
22.2
 20
6.4
 10
19.8
 20
6.4
  0
LWPOLYLINE
  5
21A
330
17
100
AcDbEntity
  8
LED_LAND_ENVELOPE
100
AcDbPolyline
 90
4
 70
1
 10
19.8
 20
11.6
 10
22.2
 20
11.6
 10
22.2
 20
12.4
 10
19.8
 20
12.4
  0
LWPOLYLINE
  5
21B
330
17
100
AcDbEntity
  8
LED_LAND_ENVELOPE
100
AcDbPolyline
 90
4
 70
1
 10
19.8
 20
17.6
 10
22.2
 20
17.6
 10
22.2
 20
18.4
 10
19.8
 20
18.4
  0
LWPOLYLINE
  5
21C
330
17
100
AcDbEntity
  8
LED_LAND_ENVELOPE
100
AcDbPolyline
 90
4
 70
1
 10
22.8
 20
-9.4
 10
25.2
 20
-9.4
 10
25.2
 20
-8.6
 10
22.8
 20
-8.6
  0
LWPOLYLINE
  5
21D
330
17
100
AcDbEntity
  8
LED_LAND_ENVELOPE
100
AcDbPolyline
 90
4
 70
1
 10
22.8
 20
-3.4
 10
25.2
 20
-3.4
 10
25.2
 20
-2.6
 10
22.8
 20
-2.6
  0
LWPOLYLINE
  5
21E
330
17
100
AcDbEntity
  8
LED_LAND_ENVELOPE
100
AcDbPolyline
 90
4
 70
1
 10
22.8
 20
2.6
 10
25.2
 20
2.6
 10
25.2
 20
3.4
 10
22.8
 20
3.4
  0
LWPOLYLINE
  5
21F
330
17
100
AcDbEntity
  8
LED_LAND_ENVELOPE
100
AcDbPolyline
 90
4
 70
1
 10
22.8
 20
8.6
 10
25.2
 20
8.6
 10
25.2
 20
9.4
 10
22.8
 20
9.4
  0
LWPOLYLINE
  5
220
330
17
100
AcDbEntity
  8
LED_LAND_ENVELOPE
100
AcDbPolyline
 90
4
 70
1
 10
25.8
 20
-6.4
 10
28.2
 20
-6.4
 10
28.2
 20
-5.6
 10
25.8
 20
-5.6
  0
LWPOLYLINE
  5
221
330
17
100
AcDbEntity
  8
LED_LAND_ENVELOPE
100
AcDbPolyline
 90
4
 70
1
 10
25.8
 20
-0.4
 10
28.2
 20
-0.4
 10
28.2
 20
0.4
 10
25.8
 20
0.4
  0
LWPOLYLINE
  5
222
330
17
100
AcDbEntity
  8
LED_LAND_ENVELOPE
100
AcDbPolyline
 90
4
 70
1
 10
25.8
 20
5.6
 10
28.2
 20
5.6
 10
28.2
 20
6.4
 10
25.8
 20
6.4
  0
LWPOLYLINE
  5
223
330
17
100
AcDbEntity
  8
LED_LAND_ENVELOPE
100
AcDbPolyline
 90
4
 70
1
 10
-28.2
 20
-3.4
 10
-25.8
 20
-3.4
 10
-25.8
 20
-2.6
 10
-28.2
 20
-2.6
  0
LWPOLYLINE
  5
224
330
17
100
AcDbEntity
  8
LED_LAND_ENVELOPE
100
AcDbPolyline
 90
4
 70
1
 10
-28.2
 20
2.6
 10
-25.8
 20
2.6
 10
-25.8
 20
3.4
 10
-28.2
 20
3.4
  0
LWPOLYLINE
  5
225
330
17
100
AcDbEntity
  8
LED_LAND_ENVELOPE
100
AcDbPolyline
 90
4
 70
1
 10
-25.2
 20
-12.4
 10
-22.8
 20
-12.4
 10
-22.8
 20
-11.6
 10
-25.2
 20
-11.6
  0
LWPOLYLINE
  5
226
330
17
100
AcDbEntity
  8
LED_LAND_ENVELOPE
100
AcDbPolyline
 90
4
 70
1
 10
-25.2
 20
-6.4
 10
-22.8
 20
-6.4
 10
-22.8
 20
-5.6
 10
-25.2
 20
-5.6
  0
LWPOLYLINE
  5
227
330
17
100
AcDbEntity
  8
LED_LAND_ENVELOPE
100
AcDbPolyline
 90
4
 70
1
 10
-25.2
 20
-0.4
 10
-22.8
 20
-0.4
 10
-22.8
 20
0.4
 10
-25.2
 20
0.4
  0
LWPOLYLINE
  5
228
330
17
100
AcDbEntity
  8
LED_LAND_ENVELOPE
100
AcDbPolyline
 90
4
 70
1
 10
-25.2
 20
5.6
 10
-22.8
 20
5.6
 10
-22.8
 20
6.4
 10
-25.2
 20
6.4
  0
LWPOLYLINE
  5
229
330
17
100
AcDbEntity
  8
LED_LAND_ENVELOPE
100
AcDbPolyline
 90
4
 70
1
 10
-25.2
 20
11.6
 10
-22.8
 20
11.6
 10
-22.8
 20
12.4
 10
-25.2
 20
12.4
  0
LWPOLYLINE
  5
22A
330
17
100
AcDbEntity
  8
LED_LAND_ENVELOPE
100
AcDbPolyline
 90
4
 70
1
 10
-22.2
 20
-15.4
 10
-19.8
 20
-15.4
 10
-19.8
 20
-14.6
 10
-22.2
 20
-14.6
  0
LWPOLYLINE
  5
22B
330
17
100
AcDbEntity
  8
LED_LAND_ENVELOPE
100
AcDbPolyline
 90
4
 70
1
 10
-22.2
 20
-9.4
 10
-19.8
 20
-9.4
 10
-19.8
 20
-8.6
 10
-22.2
 20
-8.6
  0
LWPOLYLINE
  5
22C
330
17
100
AcDbEntity
  8
LED_LAND_ENVELOPE
100
AcDbPolyline
 90
4
 70
1
 10
-22.2
 20
-3.4
 10
-19.8
 20
-3.4
 10
-19.8
 20
-2.6
 10
-22.2
 20
-2.6
  0
LWPOLYLINE
  5
22D
330
17
100
AcDbEntity
  8
LED_LAND_ENVELOPE
100
AcDbPolyline
 90
4
 70
1
 10
-22.2
 20
2.6
 10
-19.8
 20
2.6
 10
-19.8
 20
3.4
 10
-22.2
 20
3.4
  0
LWPOLYLINE
  5
22E
330
17
100
AcDbEntity
  8
LED_LAND_ENVELOPE
100
AcDbPolyline
 90
4
 70
1
 10
-22.2
 20
8.6
 10
-19.8
 20
8.6
 10
-19.8
 20
9.4
 10
-22.2
 20
9.4
  0
LWPOLYLINE
  5
22F
330
17
100
AcDbEntity
  8
LED_LAND_ENVELOPE
100
AcDbPolyline
 90
4
 70
1
 10
-22.2
 20
14.6
 10
-19.8
 20
14.6
 10
-19.8
 20
15.4
 10
-22.2
 20
15.4
  0
LWPOLYLINE
  5
230
330
17
100
AcDbEntity
  8
LED_LAND_ENVELOPE
100
AcDbPolyline
 90
4
 70
1
 10
-19.2
 20
-21.4
 10
-16.8
 20
-21.4
 10
-16.8
 20
-20.6
 10
-19.2
 20
-20.6
  0
LWPOLYLINE
  5
231
330
17
100
AcDbEntity
  8
LED_LAND_ENVELOPE
100
AcDbPolyline
 90
4
 70
1
 10
-19.2
 20
-15.4
 10
-16.8
 20
-15.4
 10
-16.8
 20
-14.6
 10
-19.2
 20
-14.6
  0
LWPOLYLINE
  5
232
330
17
100
AcDbEntity
  8
LED_LAND_ENVELOPE
100
AcDbPolyline
 90
4
 70
1
 10
-19.2
 20
-9.4
 10
-16.8
 20
-9.4
 10
-16.8
 20
-8.6
 10
-19.2
 20
-8.6
  0
LWPOLYLINE
  5
233
330
17
100
AcDbEntity
  8
LED_LAND_ENVELOPE
100
AcDbPolyline
 90
4
 70
1
 10
-19.2
 20
-3.4
 10
-16.8
 20
-3.4
 10
-16.8
 20
-2.6
 10
-19.2
 20
-2.6
  0
LWPOLYLINE
  5
234
330
17
100
AcDbEntity
  8
LED_LAND_ENVELOPE
100
AcDbPolyline
 90
4
 70
1
 10
-19.2
 20
2.6
 10
-16.8
 20
2.6
 10
-16.8
 20
3.4
 10
-19.2
 20
3.4
  0
LWPOLYLINE
  5
235
330
17
100
AcDbEntity
  8
LED_LAND_ENVELOPE
100
AcDbPolyline
 90
4
 70
1
 10
-19.2
 20
8.6
 10
-16.8
 20
8.6
 10
-16.8
 20
9.4
 10
-19.2
 20
9.4
  0
LWPOLYLINE
  5
236
330
17
100
AcDbEntity
  8
LED_LAND_ENVELOPE
100
AcDbPolyline
 90
4
 70
1
 10
-19.2
 20
14.6
 10
-16.8
 20
14.6
 10
-16.8
 20
15.4
 10
-19.2
 20
15.4
  0
LWPOLYLINE
  5
237
330
17
100
AcDbEntity
  8
LED_LAND_ENVELOPE
100
AcDbPolyline
 90
4
 70
1
 10
-19.2
 20
20.6
 10
-16.8
 20
20.6
 10
-16.8
 20
21.4
 10
-19.2
 20
21.4
  0
LWPOLYLINE
  5
238
330
17
100
AcDbEntity
  8
LED_LAND_ENVELOPE
100
AcDbPolyline
 90
4
 70
1
 10
-16.2
 20
-21.4
 10
-13.8
 20
-21.4
 10
-13.8
 20
-20.6
 10
-16.2
 20
-20.6
  0
LWPOLYLINE
  5
239
330
17
100
AcDbEntity
  8
LED_LAND_ENVELOPE
100
AcDbPolyline
 90
4
 70
1
 10
-16.2
 20
-15.4
 10
-13.8
 20
-15.4
 10
-13.8
 20
-14.6
 10
-16.2
 20
-14.6
  0
LWPOLYLINE
  5
23A
330
17
100
AcDbEntity
  8
LED_LAND_ENVELOPE
100
AcDbPolyline
 90
4
 70
1
 10
-16.2
 20
-9.4
 10
-13.8
 20
-9.4
 10
-13.8
 20
-8.6
 10
-16.2
 20
-8.6
  0
LWPOLYLINE
  5
23B
330
17
100
AcDbEntity
  8
LED_LAND_ENVELOPE
100
AcDbPolyline
 90
4
 70
1
 10
-16.2
 20
-3.4
 10
-13.8
 20
-3.4
 10
-13.8
 20
-2.6
 10
-16.2
 20
-2.6
  0
LWPOLYLINE
  5
23C
330
17
100
AcDbEntity
  8
LED_LAND_ENVELOPE
100
AcDbPolyline
 90
4
 70
1
 10
-16.2
 20
2.6
 10
-13.8
 20
2.6
 10
-13.8
 20
3.4
 10
-16.2
 20
3.4
  0
LWPOLYLINE
  5
23D
330
17
100
AcDbEntity
  8
LED_LAND_ENVELOPE
100
AcDbPolyline
 90
4
 70
1
 10
-16.2
 20
8.6
 10
-13.8
 20
8.6
 10
-13.8
 20
9.4
 10
-16.2
 20
9.4
  0
LWPOLYLINE
  5
23E
330
17
100
AcDbEntity
  8
LED_LAND_ENVELOPE
100
AcDbPolyline
 90
4
 70
1
 10
-16.2
 20
14.6
 10
-13.8
 20
14.6
 10
-13.8
 20
15.4
 10
-16.2
 20
15.4
  0
LWPOLYLINE
  5
23F
330
17
100
AcDbEntity
  8
LED_LAND_ENVELOPE
100
AcDbPolyline
 90
4
 70
1
 10
-16.2
 20
20.6
 10
-13.8
 20
20.6
 10
-13.8
 20
21.4
 10
-16.2
 20
21.4
  0
LWPOLYLINE
  5
240
330
17
100
AcDbEntity
  8
LED_LAND_ENVELOPE
100
AcDbPolyline
 90
4
 70
1
 10
-13.2
 20
-24.4
 10
-10.8
 20
-24.4
 10
-10.8
 20
-23.6
 10
-13.2
 20
-23.6
  0
LWPOLYLINE
  5
241
330
17
100
AcDbEntity
  8
LED_LAND_ENVELOPE
100
AcDbPolyline
 90
4
 70
1
 10
-13.2
 20
-18.4
 10
-10.8
 20
-18.4
 10
-10.8
 20
-17.6
 10
-13.2
 20
-17.6
  0
LWPOLYLINE
  5
242
330
17
100
AcDbEntity
  8
LED_LAND_ENVELOPE
100
AcDbPolyline
 90
4
 70
1
 10
-13.2
 20
-12.4
 10
-10.8
 20
-12.4
 10
-10.8
 20
-11.6
 10
-13.2
 20
-11.6
  0
LWPOLYLINE
  5
243
330
17
100
AcDbEntity
  8
LED_LAND_ENVELOPE
100
AcDbPolyline
 90
4
 70
1
 10
-13.2
 20
-6.4
 10
-10.8
 20
-6.4
 10
-10.8
 20
-5.6
 10
-13.2
 20
-5.6
  0
LWPOLYLINE
  5
244
330
17
100
AcDbEntity
  8
LED_LAND_ENVELOPE
100
AcDbPolyline
 90
4
 70
1
 10
-13.2
 20
-0.4
 10
-10.8
 20
-0.4
 10
-10.8
 20
0.4
 10
-13.2
 20
0.4
  0
LWPOLYLINE
  5
245
330
17
100
AcDbEntity
  8
LED_LAND_ENVELOPE
100
AcDbPolyline
 90
4
 70
1
 10
-13.2
 20
5.6
 10
-10.8
 20
5.6
 10
-10.8
 20
6.4
 10
-13.2
 20
6.4
  0
LWPOLYLINE
  5
246
330
17
100
AcDbEntity
  8
LED_LAND_ENVELOPE
100
AcDbPolyline
 90
4
 70
1
 10
-13.2
 20
11.6
 10
-10.8
 20
11.6
 10
-10.8
 20
12.4
 10
-13.2
 20
12.4
  0
LWPOLYLINE
  5
247
330
17
100
AcDbEntity
  8
LED_LAND_ENVELOPE
100
AcDbPolyline
 90
4
 70
1
 10
-13.2
 20
17.6
 10
-10.8
 20
17.6
 10
-10.8
 20
18.4
 10
-13.2
 20
18.4
  0
LWPOLYLINE
  5
248
330
17
100
AcDbEntity
  8
LED_LAND_ENVELOPE
100
AcDbPolyline
 90
4
 70
1
 10
-13.2
 20
23.6
 10
-10.8
 20
23.6
 10
-10.8
 20
24.4
 10
-13.2
 20
24.4
  0
LWPOLYLINE
  5
249
330
17
100
AcDbEntity
  8
LED_LAND_ENVELOPE
100
AcDbPolyline
 90
4
 70
1
 10
-10.2
 20
-24.4
 10
-7.8
 20
-24.4
 10
-7.8
 20
-23.6
 10
-10.2
 20
-23.6
  0
LWPOLYLINE
  5
24A
330
17
100
AcDbEntity
  8
LED_LAND_ENVELOPE
100
AcDbPolyline
 90
4
 70
1
 10
-10.2
 20
-18.4
 10
-7.8
 20
-18.4
 10
-7.8
 20
-17.6
 10
-10.2
 20
-17.6
  0
LWPOLYLINE
  5
24B
330
17
100
AcDbEntity
  8
LED_LAND_ENVELOPE
100
AcDbPolyline
 90
4
 70
1
 10
-10.2
 20
-12.4
 10
-7.8
 20
-12.4
 10
-7.8
 20
-11.6
 10
-10.2
 20
-11.6
  0
LWPOLYLINE
  5
24C
330
17
100
AcDbEntity
  8
LED_LAND_ENVELOPE
100
AcDbPolyline
 90
4
 70
1
 10
-10.2
 20
-6.4
 10
-7.8
 20
-6.4
 10
-7.8
 20
-5.6
 10
-10.2
 20
-5.6
  0
LWPOLYLINE
  5
24D
330
17
100
AcDbEntity
  8
LED_LAND_ENVELOPE
100
AcDbPolyline
 90
4
 70
1
 10
-10.2
 20
-0.4
 10
-7.8
 20
-0.4
 10
-7.8
 20
0.4
 10
-10.2
 20
0.4
  0
LWPOLYLINE
  5
24E
330
17
100
AcDbEntity
  8
LED_LAND_ENVELOPE
100
AcDbPolyline
 90
4
 70
1
 10
-10.2
 20
5.6
 10
-7.8
 20
5.6
 10
-7.8
 20
6.4
 10
-10.2
 20
6.4
  0
LWPOLYLINE
  5
24F
330
17
100
AcDbEntity
  8
LED_LAND_ENVELOPE
100
AcDbPolyline
 90
4
 70
1
 10
-10.2
 20
11.6
 10
-7.8
 20
11.6
 10
-7.8
 20
12.4
 10
-10.2
 20
12.4
  0
LWPOLYLINE
  5
250
330
17
100
AcDbEntity
  8
LED_LAND_ENVELOPE
100
AcDbPolyline
 90
4
 70
1
 10
-10.2
 20
17.6
 10
-7.8
 20
17.6
 10
-7.8
 20
18.4
 10
-10.2
 20
18.4
  0
LWPOLYLINE
  5
251
330
17
100
AcDbEntity
  8
LED_LAND_ENVELOPE
100
AcDbPolyline
 90
4
 70
1
 10
-10.2
 20
23.6
 10
-7.8
 20
23.6
 10
-7.8
 20
24.4
 10
-10.2
 20
24.4
  0
LWPOLYLINE
  5
252
330
17
100
AcDbEntity
  8
LED_LAND_ENVELOPE
100
AcDbPolyline
 90
4
 70
1
 10
-7.2
 20
-27.4
 10
-4.8
 20
-27.4
 10
-4.8
 20
-26.6
 10
-7.2
 20
-26.6
  0
LWPOLYLINE
  5
253
330
17
100
AcDbEntity
  8
LED_LAND_ENVELOPE
100
AcDbPolyline
 90
4
 70
1
 10
-7.2
 20
-21.4
 10
-4.8
 20
-21.4
 10
-4.8
 20
-20.6
 10
-7.2
 20
-20.6
  0
LWPOLYLINE
  5
254
330
17
100
AcDbEntity
  8
LED_LAND_ENVELOPE
100
AcDbPolyline
 90
4
 70
1
 10
-7.2
 20
-15.4
 10
-4.8
 20
-15.4
 10
-4.8
 20
-14.6
 10
-7.2
 20
-14.6
  0
LWPOLYLINE
  5
255
330
17
100
AcDbEntity
  8
LED_LAND_ENVELOPE
100
AcDbPolyline
 90
4
 70
1
 10
-7.2
 20
-9.4
 10
-4.8
 20
-9.4
 10
-4.8
 20
-8.6
 10
-7.2
 20
-8.6
  0
LWPOLYLINE
  5
256
330
17
100
AcDbEntity
  8
LED_LAND_ENVELOPE
100
AcDbPolyline
 90
4
 70
1
 10
-7.2
 20
-3.4
 10
-4.8
 20
-3.4
 10
-4.8
 20
-2.6
 10
-7.2
 20
-2.6
  0
LWPOLYLINE
  5
257
330
17
100
AcDbEntity
  8
LED_LAND_ENVELOPE
100
AcDbPolyline
 90
4
 70
1
 10
-7.2
 20
2.6
 10
-4.8
 20
2.6
 10
-4.8
 20
3.4
 10
-7.2
 20
3.4
  0
LWPOLYLINE
  5
258
330
17
100
AcDbEntity
  8
LED_LAND_ENVELOPE
100
AcDbPolyline
 90
4
 70
1
 10
-7.2
 20
8.6
 10
-4.8
 20
8.6
 10
-4.8
 20
9.4
 10
-7.2
 20
9.4
  0
LWPOLYLINE
  5
259
330
17
100
AcDbEntity
  8
LED_LAND_ENVELOPE
100
AcDbPolyline
 90
4
 70
1
 10
-7.2
 20
14.6
 10
-4.8
 20
14.6
 10
-4.8
 20
15.4
 10
-7.2
 20
15.4
  0
LWPOLYLINE
  5
25A
330
17
100
AcDbEntity
  8
LED_LAND_ENVELOPE
100
AcDbPolyline
 90
4
 70
1
 10
-7.2
 20
20.6
 10
-4.8
 20
20.6
 10
-4.8
 20
21.4
 10
-7.2
 20
21.4
  0
LWPOLYLINE
  5
25B
330
17
100
AcDbEntity
  8
LED_LAND_ENVELOPE
100
AcDbPolyline
 90
4
 70
1
 10
-7.2
 20
26.6
 10
-4.8
 20
26.6
 10
-4.8
 20
27.4
 10
-7.2
 20
27.4
  0
LWPOLYLINE
  5
25C
330
17
100
AcDbEntity
  8
LED_LAND_ENVELOPE
100
AcDbPolyline
 90
4
 70
1
 10
-4.2
 20
-24.4
 10
-1.8
 20
-24.4
 10
-1.8
 20
-23.6
 10
-4.2
 20
-23.6
  0
LWPOLYLINE
  5
25D
330
17
100
AcDbEntity
  8
LED_LAND_ENVELOPE
100
AcDbPolyline
 90
4
 70
1
 10
-4.2
 20
-18.4
 10
-1.8
 20
-18.4
 10
-1.8
 20
-17.6
 10
-4.2
 20
-17.6
  0
LWPOLYLINE
  5
25E
330
17
100
AcDbEntity
  8
LED_LAND_ENVELOPE
100
AcDbPolyline
 90
4
 70
1
 10
-4.2
 20
-12.4
 10
-1.8
 20
-12.4
 10
-1.8
 20
-11.6
 10
-4.2
 20
-11.6
  0
LWPOLYLINE
  5
25F
330
17
100
AcDbEntity
  8
LED_LAND_ENVELOPE
100
AcDbPolyline
 90
4
 70
1
 10
-4.2
 20
-6.4
 10
-1.8
 20
-6.4
 10
-1.8
 20
-5.6
 10
-4.2
 20
-5.6
  0
LWPOLYLINE
  5
260
330
17
100
AcDbEntity
  8
LED_LAND_ENVELOPE
100
AcDbPolyline
 90
4
 70
1
 10
-4.2
 20
-0.4
 10
-1.8
 20
-0.4
 10
-1.8
 20
0.4
 10
-4.2
 20
0.4
  0
LWPOLYLINE
  5
261
330
17
100
AcDbEntity
  8
LED_LAND_ENVELOPE
100
AcDbPolyline
 90
4
 70
1
 10
-4.2
 20
5.6
 10
-1.8
 20
5.6
 10
-1.8
 20
6.4
 10
-4.2
 20
6.4
  0
LWPOLYLINE
  5
262
330
17
100
AcDbEntity
  8
LED_LAND_ENVELOPE
100
AcDbPolyline
 90
4
 70
1
 10
-4.2
 20
11.6
 10
-1.8
 20
11.6
 10
-1.8
 20
12.4
 10
-4.2
 20
12.4
  0
LWPOLYLINE
  5
263
330
17
100
AcDbEntity
  8
LED_LAND_ENVELOPE
100
AcDbPolyline
 90
4
 70
1
 10
-4.2
 20
17.6
 10
-1.8
 20
17.6
 10
-1.8
 20
18.4
 10
-4.2
 20
18.4
  0
LWPOLYLINE
  5
264
330
17
100
AcDbEntity
  8
LED_LAND_ENVELOPE
100
AcDbPolyline
 90
4
 70
1
 10
-4.2
 20
23.6
 10
-1.8
 20
23.6
 10
-1.8
 20
24.4
 10
-4.2
 20
24.4
  0
LWPOLYLINE
  5
265
330
17
100
AcDbEntity
  8
LED_LAND_ENVELOPE
100
AcDbPolyline
 90
4
 70
1
 10
-1.2
 20
-27.4
 10
1.2
 20
-27.4
 10
1.2
 20
-26.6
 10
-1.2
 20
-26.6
  0
LWPOLYLINE
  5
266
330
17
100
AcDbEntity
  8
LED_LAND_ENVELOPE
100
AcDbPolyline
 90
4
 70
1
 10
-1.2
 20
-21.4
 10
1.2
 20
-21.4
 10
1.2
 20
-20.6
 10
-1.2
 20
-20.6
  0
LWPOLYLINE
  5
267
330
17
100
AcDbEntity
  8
LED_LAND_ENVELOPE
100
AcDbPolyline
 90
4
 70
1
 10
-1.2
 20
-15.4
 10
1.2
 20
-15.4
 10
1.2
 20
-14.6
 10
-1.2
 20
-14.6
  0
LWPOLYLINE
  5
268
330
17
100
AcDbEntity
  8
LED_LAND_ENVELOPE
100
AcDbPolyline
 90
4
 70
1
 10
-1.2
 20
-9.4
 10
1.2
 20
-9.4
 10
1.2
 20
-8.6
 10
-1.2
 20
-8.6
  0
LWPOLYLINE
  5
269
330
17
100
AcDbEntity
  8
LED_LAND_ENVELOPE
100
AcDbPolyline
 90
4
 70
1
 10
-1.2
 20
-3.4
 10
1.2
 20
-3.4
 10
1.2
 20
-2.6
 10
-1.2
 20
-2.6
  0
LWPOLYLINE
  5
26A
330
17
100
AcDbEntity
  8
LED_LAND_ENVELOPE
100
AcDbPolyline
 90
4
 70
1
 10
-1.2
 20
2.6
 10
1.2
 20
2.6
 10
1.2
 20
3.4
 10
-1.2
 20
3.4
  0
LWPOLYLINE
  5
26B
330
17
100
AcDbEntity
  8
LED_LAND_ENVELOPE
100
AcDbPolyline
 90
4
 70
1
 10
-1.2
 20
8.6
 10
1.2
 20
8.6
 10
1.2
 20
9.4
 10
-1.2
 20
9.4
  0
LWPOLYLINE
  5
26C
330
17
100
AcDbEntity
  8
LED_LAND_ENVELOPE
100
AcDbPolyline
 90
4
 70
1
 10
-1.2
 20
14.6
 10
1.2
 20
14.6
 10
1.2
 20
15.4
 10
-1.2
 20
15.4
  0
LWPOLYLINE
  5
26D
330
17
100
AcDbEntity
  8
LED_LAND_ENVELOPE
100
AcDbPolyline
 90
4
 70
1
 10
-1.2
 20
20.6
 10
1.2
 20
20.6
 10
1.2
 20
21.4
 10
-1.2
 20
21.4
  0
LWPOLYLINE
  5
26E
330
17
100
AcDbEntity
  8
LED_LAND_ENVELOPE
100
AcDbPolyline
 90
4
 70
1
 10
-1.2
 20
26.6
 10
1.2
 20
26.6
 10
1.2
 20
27.4
 10
-1.2
 20
27.4
  0
LWPOLYLINE
  5
26F
330
17
100
AcDbEntity
  8
LED_LAND_ENVELOPE
100
AcDbPolyline
 90
4
 70
1
 10
1.8
 20
-24.4
 10
4.2
 20
-24.4
 10
4.2
 20
-23.6
 10
1.8
 20
-23.6
  0
LWPOLYLINE
  5
270
330
17
100
AcDbEntity
  8
LED_LAND_ENVELOPE
100
AcDbPolyline
 90
4
 70
1
 10
1.8
 20
-18.4
 10
4.2
 20
-18.4
 10
4.2
 20
-17.6
 10
1.8
 20
-17.6
  0
LWPOLYLINE
  5
271
330
17
100
AcDbEntity
  8
LED_LAND_ENVELOPE
100
AcDbPolyline
 90
4
 70
1
 10
1.8
 20
-12.4
 10
4.2
 20
-12.4
 10
4.2
 20
-11.6
 10
1.8
 20
-11.6
  0
LWPOLYLINE
  5
272
330
17
100
AcDbEntity
  8
LED_LAND_ENVELOPE
100
AcDbPolyline
 90
4
 70
1
 10
1.8
 20
-6.4
 10
4.2
 20
-6.4
 10
4.2
 20
-5.6
 10
1.8
 20
-5.6
  0
LWPOLYLINE
  5
273
330
17
100
AcDbEntity
  8
LED_LAND_ENVELOPE
100
AcDbPolyline
 90
4
 70
1
 10
1.8
 20
-0.4
 10
4.2
 20
-0.4
 10
4.2
 20
0.4
 10
1.8
 20
0.4
  0
LWPOLYLINE
  5
274
330
17
100
AcDbEntity
  8
LED_LAND_ENVELOPE
100
AcDbPolyline
 90
4
 70
1
 10
1.8
 20
5.6
 10
4.2
 20
5.6
 10
4.2
 20
6.4
 10
1.8
 20
6.4
  0
LWPOLYLINE
  5
275
330
17
100
AcDbEntity
  8
LED_LAND_ENVELOPE
100
AcDbPolyline
 90
4
 70
1
 10
1.8
 20
11.6
 10
4.2
 20
11.6
 10
4.2
 20
12.4
 10
1.8
 20
12.4
  0
LWPOLYLINE
  5
276
330
17
100
AcDbEntity
  8
LED_LAND_ENVELOPE
100
AcDbPolyline
 90
4
 70
1
 10
1.8
 20
17.6
 10
4.2
 20
17.6
 10
4.2
 20
18.4
 10
1.8
 20
18.4
  0
LWPOLYLINE
  5
277
330
17
100
AcDbEntity
  8
LED_LAND_ENVELOPE
100
AcDbPolyline
 90
4
 70
1
 10
1.8
 20
23.6
 10
4.2
 20
23.6
 10
4.2
 20
24.4
 10
1.8
 20
24.4
  0
LWPOLYLINE
  5
278
330
17
100
AcDbEntity
  8
LED_LAND_ENVELOPE
100
AcDbPolyline
 90
4
 70
1
 10
4.8
 20
-27.4
 10
7.2
 20
-27.4
 10
7.2
 20
-26.6
 10
4.8
 20
-26.6
  0
LWPOLYLINE
  5
279
330
17
100
AcDbEntity
  8
LED_LAND_ENVELOPE
100
AcDbPolyline
 90
4
 70
1
 10
4.8
 20
-21.4
 10
7.2
 20
-21.4
 10
7.2
 20
-20.6
 10
4.8
 20
-20.6
  0
LWPOLYLINE
  5
27A
330
17
100
AcDbEntity
  8
LED_LAND_ENVELOPE
100
AcDbPolyline
 90
4
 70
1
 10
4.8
 20
-15.4
 10
7.2
 20
-15.4
 10
7.2
 20
-14.6
 10
4.8
 20
-14.6
  0
LWPOLYLINE
  5
27B
330
17
100
AcDbEntity
  8
LED_LAND_ENVELOPE
100
AcDbPolyline
 90
4
 70
1
 10
4.8
 20
-9.4
 10
7.2
 20
-9.4
 10
7.2
 20
-8.6
 10
4.8
 20
-8.6
  0
LWPOLYLINE
  5
27C
330
17
100
AcDbEntity
  8
LED_LAND_ENVELOPE
100
AcDbPolyline
 90
4
 70
1
 10
4.8
 20
-3.4
 10
7.2
 20
-3.4
 10
7.2
 20
-2.6
 10
4.8
 20
-2.6
  0
LWPOLYLINE
  5
27D
330
17
100
AcDbEntity
  8
LED_LAND_ENVELOPE
100
AcDbPolyline
 90
4
 70
1
 10
4.8
 20
2.6
 10
7.2
 20
2.6
 10
7.2
 20
3.4
 10
4.8
 20
3.4
  0
LWPOLYLINE
  5
27E
330
17
100
AcDbEntity
  8
LED_LAND_ENVELOPE
100
AcDbPolyline
 90
4
 70
1
 10
4.8
 20
8.6
 10
7.2
 20
8.6
 10
7.2
 20
9.4
 10
4.8
 20
9.4
  0
LWPOLYLINE
  5
27F
330
17
100
AcDbEntity
  8
LED_LAND_ENVELOPE
100
AcDbPolyline
 90
4
 70
1
 10
4.8
 20
14.6
 10
7.2
 20
14.6
 10
7.2
 20
15.4
 10
4.8
 20
15.4
  0
LWPOLYLINE
  5
280
330
17
100
AcDbEntity
  8
LED_LAND_ENVELOPE
100
AcDbPolyline
 90
4
 70
1
 10
4.8
 20
20.6
 10
7.2
 20
20.6
 10
7.2
 20
21.4
 10
4.8
 20
21.4
  0
LWPOLYLINE
  5
281
330
17
100
AcDbEntity
  8
LED_LAND_ENVELOPE
100
AcDbPolyline
 90
4
 70
1
 10
4.8
 20
26.6
 10
7.2
 20
26.6
 10
7.2
 20
27.4
 10
4.8
 20
27.4
  0
LWPOLYLINE
  5
282
330
17
100
AcDbEntity
  8
LED_LAND_ENVELOPE
100
AcDbPolyline
 90
4
 70
1
 10
7.8
 20
-24.4
 10
10.2
 20
-24.4
 10
10.2
 20
-23.6
 10
7.8
 20
-23.6
  0
LWPOLYLINE
  5
283
330
17
100
AcDbEntity
  8
LED_LAND_ENVELOPE
100
AcDbPolyline
 90
4
 70
1
 10
7.8
 20
-18.4
 10
10.2
 20
-18.4
 10
10.2
 20
-17.6
 10
7.8
 20
-17.6
  0
LWPOLYLINE
  5
284
330
17
100
AcDbEntity
  8
LED_LAND_ENVELOPE
100
AcDbPolyline
 90
4
 70
1
 10
7.8
 20
-12.4
 10
10.2
 20
-12.4
 10
10.2
 20
-11.6
 10
7.8
 20
-11.6
  0
LWPOLYLINE
  5
285
330
17
100
AcDbEntity
  8
LED_LAND_ENVELOPE
100
AcDbPolyline
 90
4
 70
1
 10
7.8
 20
-6.4
 10
10.2
 20
-6.4
 10
10.2
 20
-5.6
 10
7.8
 20
-5.6
  0
LWPOLYLINE
  5
286
330
17
100
AcDbEntity
  8
LED_LAND_ENVELOPE
100
AcDbPolyline
 90
4
 70
1
 10
7.8
 20
-0.4
 10
10.2
 20
-0.4
 10
10.2
 20
0.4
 10
7.8
 20
0.4
  0
LWPOLYLINE
  5
287
330
17
100
AcDbEntity
  8
LED_LAND_ENVELOPE
100
AcDbPolyline
 90
4
 70
1
 10
7.8
 20
5.6
 10
10.2
 20
5.6
 10
10.2
 20
6.4
 10
7.8
 20
6.4
  0
LWPOLYLINE
  5
288
330
17
100
AcDbEntity
  8
LED_LAND_ENVELOPE
100
AcDbPolyline
 90
4
 70
1
 10
7.8
 20
11.6
 10
10.2
 20
11.6
 10
10.2
 20
12.4
 10
7.8
 20
12.4
  0
LWPOLYLINE
  5
289
330
17
100
AcDbEntity
  8
LED_LAND_ENVELOPE
100
AcDbPolyline
 90
4
 70
1
 10
7.8
 20
17.6
 10
10.2
 20
17.6
 10
10.2
 20
18.4
 10
7.8
 20
18.4
  0
LWPOLYLINE
  5
28A
330
17
100
AcDbEntity
  8
LED_LAND_ENVELOPE
100
AcDbPolyline
 90
4
 70
1
 10
7.8
 20
23.6
 10
10.2
 20
23.6
 10
10.2
 20
24.4
 10
7.8
 20
24.4
  0
LWPOLYLINE
  5
28B
330
17
100
AcDbEntity
  8
LED_LAND_ENVELOPE
100
AcDbPolyline
 90
4
 70
1
 10
10.8
 20
-24.4
 10
13.2
 20
-24.4
 10
13.2
 20
-23.6
 10
10.8
 20
-23.6
  0
LWPOLYLINE
  5
28C
330
17
100
AcDbEntity
  8
LED_LAND_ENVELOPE
100
AcDbPolyline
 90
4
 70
1
 10
10.8
 20
-18.4
 10
13.2
 20
-18.4
 10
13.2
 20
-17.6
 10
10.8
 20
-17.6
  0
LWPOLYLINE
  5
28D
330
17
100
AcDbEntity
  8
LED_LAND_ENVELOPE
100
AcDbPolyline
 90
4
 70
1
 10
10.8
 20
-12.4
 10
13.2
 20
-12.4
 10
13.2
 20
-11.6
 10
10.8
 20
-11.6
  0
LWPOLYLINE
  5
28E
330
17
100
AcDbEntity
  8
LED_LAND_ENVELOPE
100
AcDbPolyline
 90
4
 70
1
 10
10.8
 20
-6.4
 10
13.2
 20
-6.4
 10
13.2
 20
-5.6
 10
10.8
 20
-5.6
  0
LWPOLYLINE
  5
28F
330
17
100
AcDbEntity
  8
LED_LAND_ENVELOPE
100
AcDbPolyline
 90
4
 70
1
 10
10.8
 20
-0.4
 10
13.2
 20
-0.4
 10
13.2
 20
0.4
 10
10.8
 20
0.4
  0
LWPOLYLINE
  5
290
330
17
100
AcDbEntity
  8
LED_LAND_ENVELOPE
100
AcDbPolyline
 90
4
 70
1
 10
10.8
 20
5.6
 10
13.2
 20
5.6
 10
13.2
 20
6.4
 10
10.8
 20
6.4
  0
LWPOLYLINE
  5
291
330
17
100
AcDbEntity
  8
LED_LAND_ENVELOPE
100
AcDbPolyline
 90
4
 70
1
 10
10.8
 20
11.6
 10
13.2
 20
11.6
 10
13.2
 20
12.4
 10
10.8
 20
12.4
  0
LWPOLYLINE
  5
292
330
17
100
AcDbEntity
  8
LED_LAND_ENVELOPE
100
AcDbPolyline
 90
4
 70
1
 10
10.8
 20
17.6
 10
13.2
 20
17.6
 10
13.2
 20
18.4
 10
10.8
 20
18.4
  0
LWPOLYLINE
  5
293
330
17
100
AcDbEntity
  8
LED_LAND_ENVELOPE
100
AcDbPolyline
 90
4
 70
1
 10
10.8
 20
23.6
 10
13.2
 20
23.6
 10
13.2
 20
24.4
 10
10.8
 20
24.4
  0
LWPOLYLINE
  5
294
330
17
100
AcDbEntity
  8
LED_LAND_ENVELOPE
100
AcDbPolyline
 90
4
 70
1
 10
13.8
 20
-21.4
 10
16.2
 20
-21.4
 10
16.2
 20
-20.6
 10
13.8
 20
-20.6
  0
LWPOLYLINE
  5
295
330
17
100
AcDbEntity
  8
LED_LAND_ENVELOPE
100
AcDbPolyline
 90
4
 70
1
 10
13.8
 20
-15.4
 10
16.2
 20
-15.4
 10
16.2
 20
-14.6
 10
13.8
 20
-14.6
  0
LWPOLYLINE
  5
296
330
17
100
AcDbEntity
  8
LED_LAND_ENVELOPE
100
AcDbPolyline
 90
4
 70
1
 10
13.8
 20
-9.4
 10
16.2
 20
-9.4
 10
16.2
 20
-8.6
 10
13.8
 20
-8.6
  0
LWPOLYLINE
  5
297
330
17
100
AcDbEntity
  8
LED_LAND_ENVELOPE
100
AcDbPolyline
 90
4
 70
1
 10
13.8
 20
-3.4
 10
16.2
 20
-3.4
 10
16.2
 20
-2.6
 10
13.8
 20
-2.6
  0
LWPOLYLINE
  5
298
330
17
100
AcDbEntity
  8
LED_LAND_ENVELOPE
100
AcDbPolyline
 90
4
 70
1
 10
13.8
 20
2.6
 10
16.2
 20
2.6
 10
16.2
 20
3.4
 10
13.8
 20
3.4
  0
LWPOLYLINE
  5
299
330
17
100
AcDbEntity
  8
LED_LAND_ENVELOPE
100
AcDbPolyline
 90
4
 70
1
 10
13.8
 20
8.6
 10
16.2
 20
8.6
 10
16.2
 20
9.4
 10
13.8
 20
9.4
  0
LWPOLYLINE
  5
29A
330
17
100
AcDbEntity
  8
LED_LAND_ENVELOPE
100
AcDbPolyline
 90
4
 70
1
 10
13.8
 20
14.6
 10
16.2
 20
14.6
 10
16.2
 20
15.4
 10
13.8
 20
15.4
  0
LWPOLYLINE
  5
29B
330
17
100
AcDbEntity
  8
LED_LAND_ENVELOPE
100
AcDbPolyline
 90
4
 70
1
 10
13.8
 20
20.6
 10
16.2
 20
20.6
 10
16.2
 20
21.4
 10
13.8
 20
21.4
  0
LWPOLYLINE
  5
29C
330
17
100
AcDbEntity
  8
LED_LAND_ENVELOPE
100
AcDbPolyline
 90
4
 70
1
 10
16.8
 20
-21.4
 10
19.2
 20
-21.4
 10
19.2
 20
-20.6
 10
16.8
 20
-20.6
  0
LWPOLYLINE
  5
29D
330
17
100
AcDbEntity
  8
LED_LAND_ENVELOPE
100
AcDbPolyline
 90
4
 70
1
 10
16.8
 20
-15.4
 10
19.2
 20
-15.4
 10
19.2
 20
-14.6
 10
16.8
 20
-14.6
  0
LWPOLYLINE
  5
29E
330
17
100
AcDbEntity
  8
LED_LAND_ENVELOPE
100
AcDbPolyline
 90
4
 70
1
 10
16.8
 20
-9.4
 10
19.2
 20
-9.4
 10
19.2
 20
-8.6
 10
16.8
 20
-8.6
  0
LWPOLYLINE
  5
29F
330
17
100
AcDbEntity
  8
LED_LAND_ENVELOPE
100
AcDbPolyline
 90
4
 70
1
 10
16.8
 20
-3.4
 10
19.2
 20
-3.4
 10
19.2
 20
-2.6
 10
16.8
 20
-2.6
  0
LWPOLYLINE
  5
2A0
330
17
100
AcDbEntity
  8
LED_LAND_ENVELOPE
100
AcDbPolyline
 90
4
 70
1
 10
16.8
 20
2.6
 10
19.2
 20
2.6
 10
19.2
 20
3.4
 10
16.8
 20
3.4
  0
LWPOLYLINE
  5
2A1
330
17
100
AcDbEntity
  8
LED_LAND_ENVELOPE
100
AcDbPolyline
 90
4
 70
1
 10
16.8
 20
8.6
 10
19.2
 20
8.6
 10
19.2
 20
9.4
 10
16.8
 20
9.4
  0
LWPOLYLINE
  5
2A2
330
17
100
AcDbEntity
  8
LED_LAND_ENVELOPE
100
AcDbPolyline
 90
4
 70
1
 10
16.8
 20
14.6
 10
19.2
 20
14.6
 10
19.2
 20
15.4
 10
16.8
 20
15.4
  0
LWPOLYLINE
  5
2A3
330
17
100
AcDbEntity
  8
LED_LAND_ENVELOPE
100
AcDbPolyline
 90
4
 70
1
 10
16.8
 20
20.6
 10
19.2
 20
20.6
 10
19.2
 20
21.4
 10
16.8
 20
21.4
  0
LWPOLYLINE
  5
2A4
330
17
100
AcDbEntity
  8
LED_LAND_ENVELOPE
100
AcDbPolyline
 90
4
 70
1
 10
19.8
 20
-15.4
 10
22.2
 20
-15.4
 10
22.2
 20
-14.6
 10
19.8
 20
-14.6
  0
LWPOLYLINE
  5
2A5
330
17
100
AcDbEntity
  8
LED_LAND_ENVELOPE
100
AcDbPolyline
 90
4
 70
1
 10
19.8
 20
-9.4
 10
22.2
 20
-9.4
 10
22.2
 20
-8.6
 10
19.8
 20
-8.6
  0
LWPOLYLINE
  5
2A6
330
17
100
AcDbEntity
  8
LED_LAND_ENVELOPE
100
AcDbPolyline
 90
4
 70
1
 10
19.8
 20
-3.4
 10
22.2
 20
-3.4
 10
22.2
 20
-2.6
 10
19.8
 20
-2.6
  0
LWPOLYLINE
  5
2A7
330
17
100
AcDbEntity
  8
LED_LAND_ENVELOPE
100
AcDbPolyline
 90
4
 70
1
 10
19.8
 20
2.6
 10
22.2
 20
2.6
 10
22.2
 20
3.4
 10
19.8
 20
3.4
  0
LWPOLYLINE
  5
2A8
330
17
100
AcDbEntity
  8
LED_LAND_ENVELOPE
100
AcDbPolyline
 90
4
 70
1
 10
19.8
 20
8.6
 10
22.2
 20
8.6
 10
22.2
 20
9.4
 10
19.8
 20
9.4
  0
LWPOLYLINE
  5
2A9
330
17
100
AcDbEntity
  8
LED_LAND_ENVELOPE
100
AcDbPolyline
 90
4
 70
1
 10
19.8
 20
14.6
 10
22.2
 20
14.6
 10
22.2
 20
15.4
 10
19.8
 20
15.4
  0
LWPOLYLINE
  5
2AA
330
17
100
AcDbEntity
  8
LED_LAND_ENVELOPE
100
AcDbPolyline
 90
4
 70
1
 10
22.8
 20
-12.4
 10
25.2
 20
-12.4
 10
25.2
 20
-11.6
 10
22.8
 20
-11.6
  0
LWPOLYLINE
  5
2AB
330
17
100
AcDbEntity
  8
LED_LAND_ENVELOPE
100
AcDbPolyline
 90
4
 70
1
 10
22.8
 20
-6.4
 10
25.2
 20
-6.4
 10
25.2
 20
-5.6
 10
22.8
 20
-5.6
  0
LWPOLYLINE
  5
2AC
330
17
100
AcDbEntity
  8
LED_LAND_ENVELOPE
100
AcDbPolyline
 90
4
 70
1
 10
22.8
 20
-0.4
 10
25.2
 20
-0.4
 10
25.2
 20
0.4
 10
22.8
 20
0.4
  0
LWPOLYLINE
  5
2AD
330
17
100
AcDbEntity
  8
LED_LAND_ENVELOPE
100
AcDbPolyline
 90
4
 70
1
 10
22.8
 20
5.6
 10
25.2
 20
5.6
 10
25.2
 20
6.4
 10
22.8
 20
6.4
  0
LWPOLYLINE
  5
2AE
330
17
100
AcDbEntity
  8
LED_LAND_ENVELOPE
100
AcDbPolyline
 90
4
 70
1
 10
22.8
 20
11.6
 10
25.2
 20
11.6
 10
25.2
 20
12.4
 10
22.8
 20
12.4
  0
LWPOLYLINE
  5
2AF
330
17
100
AcDbEntity
  8
LED_LAND_ENVELOPE
100
AcDbPolyline
 90
4
 70
1
 10
25.8
 20
-3.4
 10
28.2
 20
-3.4
 10
28.2
 20
-2.6
 10
25.8
 20
-2.6
  0
LWPOLYLINE
  5
2B0
330
17
100
AcDbEntity
  8
LED_LAND_ENVELOPE
100
AcDbPolyline
 90
4
 70
1
 10
25.8
 20
2.6
 10
28.2
 20
2.6
 10
28.2
 20
3.4
 10
25.8
 20
3.4
  0
TEXT
  5
2B1
330
17
100
AcDbEntity
  8
ANNOTATION
100
AcDbText
 10
-175.0
 20
-145.0
 30
0.0
 40
3.0
  1
HLIO-01 / mm / FRONT PROJECTION ONLY / NOT PCB OR MANUFACTURING RELEASE
 11
-175.0
 21
-145.0
 31
0.0
100
AcDbText
  0
ENDSEC
  0
SECTION
  2
OBJECTS
  0
DICTIONARY
  5
A
330
0
100
AcDbDictionary
281
1
  3
ACAD_COLOR
350
B
  3
ACAD_GROUP
350
C
  3
ACAD_LAYOUT
350
D
  3
ACAD_MATERIAL
350
E
  3
ACAD_MLEADERSTYLE
350
F
  3
ACAD_MLINESTYLE
350
10
  3
ACAD_PLOTSETTINGS
350
11
  3
ACAD_PLOTSTYLENAME
350
12
  3
ACAD_SCALELIST
350
14
  3
ACAD_TABLESTYLE
350
15
  3
ACAD_VISUALSTYLE
350
16
  3
EZDXF_META
350
2D
  0
DICTIONARY
  5
B
330
A
100
AcDbDictionary
281
1
  0
DICTIONARY
  5
C
330
A
100
AcDbDictionary
281
1
  0
DICTIONARY
  5
D
330
A
100
AcDbDictionary
281
1
  3
Model
350
1A
  3
Layout1
350
1E
  0
DICTIONARY
  5
E
330
A
100
AcDbDictionary
281
1
  3
ByBlock
350
1F
  3
ByLayer
350
20
  3
Global
350
21
  0
DICTIONARY
  5
F
330
A
100
AcDbDictionary
281
1
  3
Standard
350
2C
  0
DICTIONARY
  5
10
330
A
100
AcDbDictionary
281
1
  3
Standard
350
22
  0
DICTIONARY
  5
11
330
A
100
AcDbDictionary
281
1
  0
ACDBDICTIONARYWDFLT
  5
12
330
A
100
AcDbDictionary
281
1
  3
Normal
350
13
100
AcDbDictionaryWithDefault
340
13
  0
ACDBPLACEHOLDER
  5
13
330
12
  0
DICTIONARY
  5
14
330
A
100
AcDbDictionary
281
1
  0
DICTIONARY
  5
15
330
A
100
AcDbDictionary
281
1
  0
DICTIONARY
  5
16
330
A
100
AcDbDictionary
281
1
  0
LAYOUT
  5
1A
330
D
100
AcDbPlotSettings
  1

  4
A3
  6

 40
7.5
 41
20.0
 42
7.5
 43
20.0
 44
420.0
 45
297.0
 46
0.0
 47
0.0
 48
0.0
 49
0.0
140
0.0
141
0.0
142
1.0
143
1.0
 70
1024
 72
1
 73
0
 74
5
  7

 75
16
 76
0
 77
2
 78
300
147
1.0
148
0.0
149
0.0
100
AcDbLayout
  1
Model
 70
1
 71
0
 10
0.0
 20
0.0
 11
420.0
 21
297.0
 12
0.0
 22
0.0
 32
0.0
 14
1e+20
 24
1e+20
 34
1e+20
 15
-1e+20
 25
-1e+20
 35
-1e+20
146
0.0
 13
0.0
 23
0.0
 33
0.0
 16
1.0
 26
0.0
 36
0.0
 17
0.0
 27
1.0
 37
0.0
 76
1
330
17
  0
LAYOUT
  5
1E
330
D
100
AcDbPlotSettings
  1

  4
A3
  6

 40
7.5
 41
20.0
 42
7.5
 43
20.0
 44
420.0
 45
297.0
 46
0.0
 47
0.0
 48
0.0
 49
0.0
140
0.0
141
0.0
142
1.0
143
1.0
 70
0
 72
1
 73
0
 74
5
  7

 75
16
 76
0
 77
2
 78
300
147
1.0
148
0.0
149
0.0
100
AcDbLayout
  1
Layout1
 70
1
 71
1
 10
0.0
 20
0.0
 11
420.0
 21
297.0
 12
0.0
 22
0.0
 32
0.0
 14
1e+20
 24
1e+20
 34
1e+20
 15
-1e+20
 25
-1e+20
 35
-1e+20
146
0.0
 13
0.0
 23
0.0
 33
0.0
 16
1.0
 26
0.0
 36
0.0
 17
0.0
 27
1.0
 37
0.0
 76
1
330
1B
  0
MATERIAL
  5
1F
102
{ACAD_REACTORS
330
E
102
}
330
E
100
AcDbMaterial
  1
ByBlock
  2

 70
0
 40
1.0
 71
1
 41
1.0
 91
-1023410177
 42
1.0
 72
1
  3

 73
1
 74
1
 75
1
 44
0.5
 73
0
 45
1.0
 46
1.0
 77
1
  4

 78
1
 79
1
170
1
 48
1.0
171
1
  6

172
1
173
1
174
1
140
1.0
141
1.0
175
1
  7

176
1
177
1
178
1
143
1.0
179
1
  8

270
1
271
1
272
1
145
1.0
146
1.0
273
1
  9

274
1
275
1
276
1
 42
1.0
 72
1
  3

 73
1
 74
1
 75
1
 94
63
  0
MATERIAL
  5
20
102
{ACAD_REACTORS
330
E
102
}
330
E
100
AcDbMaterial
  1
ByLayer
  2

 70
0
 40
1.0
 71
1
 41
1.0
 91
-1023410177
 42
1.0
 72
1
  3

 73
1
 74
1
 75
1
 44
0.5
 73
0
 45
1.0
 46
1.0
 77
1
  4

 78
1
 79
1
170
1
 48
1.0
171
1
  6

172
1
173
1
174
1
140
1.0
141
1.0
175
1
  7

176
1
177
1
178
1
143
1.0
179
1
  8

270
1
271
1
272
1
145
1.0
146
1.0
273
1
  9

274
1
275
1
276
1
 42
1.0
 72
1
  3

 73
1
 74
1
 75
1
 94
63
  0
MATERIAL
  5
21
102
{ACAD_REACTORS
330
E
102
}
330
E
100
AcDbMaterial
  1
Global
  2

 70
0
 40
1.0
 71
1
 41
1.0
 91
-1023410177
 42
1.0
 72
1
  3

 73
1
 74
1
 75
1
 44
0.5
 73
0
 45
1.0
 46
1.0
 77
1
  4

 78
1
 79
1
170
1
 48
1.0
171
1
  6

172
1
173
1
174
1
140
1.0
141
1.0
175
1
  7

176
1
177
1
178
1
143
1.0
179
1
  8

270
1
271
1
272
1
145
1.0
146
1.0
273
1
  9

274
1
275
1
276
1
 42
1.0
 72
1
  3

 73
1
 74
1
 75
1
 94
63
  0
MLINESTYLE
  5
22
102
{ACAD_REACTORS
330
10
102
}
330
10
100
AcDbMlineStyle
  2
Standard
 70
0
  3

 62
256
 51
90.0
 52
90.0
 71
2
 49
0.5
 62
256
  6
BYLAYER
 49
-0.5
 62
256
  6
BYLAYER
  0
MLEADERSTYLE
  5
2C
102
{ACAD_REACTORS
330
F
102
}
330
F
100
AcDbMLeaderStyle
179
2
170
2
171
1
172
0
 90
2
 40
0.0
 41
0.0
173
1
 91
-1056964608
 92
-2
290
1
 42
2.0
291
1
 43
8.0
  3
Standard
 44
4.0
300

342
29
174
1
175
1
176
0
178
1
 93
-1056964608
 45
4.0
292
0
297
0
 46
4.0
 94
-1056964608
 47
1.0
 49
1.0
140
1.0
294
1
141
0.0
177
0
142
1.0
295
0
296
0
143
3.75
271
0
272
9
273
9
  0
DICTIONARY
  5
2D
330
A
100
AcDbDictionary
280
1
281
1
  3
CREATED_BY_EZDXF
350
2E
  3
WRITTEN_BY_EZDXF
350
2B4
  0
DICTIONARYVAR
  5
2E
330
2D
100
DictionaryVariables
280
0
  1
1.4.4 @ 2026-09-27T19:03:48.922849+00:00
  0
DICTIONARYVAR
  5
2B4
330
2D
100
DictionaryVariables
280
0
  1
1.4.4 @ 2026-09-27T19:03:49.302660+00:00
  0
ENDSEC
  0
EOF
