%TF.GenerationSoftware,KiCad,Pcbnew,10.0.6*%
%TF.CreationDate,2026-09-30T17:59:13-04:00*%
%TF.ProjectId,base-b04,62617365-2d62-4303-942e-6b696361645f,rev?*%
%TF.SameCoordinates,Original*%
%TF.FileFunction,Legend,Top*%
%TF.FilePolarity,Positive*%
%FSLAX46Y46*%
G04 Gerber Fmt 4.6, Leading zero omitted, Abs format (unit mm)*
G04 Created by KiCad (PCBNEW 10.0.6) date 2026-09-30 17:59:13*
%MOMM*%
%LPD*%
G01*
G04 APERTURE LIST*
%ADD10C,0.120000*%
G04 APERTURE END LIST*
D10*
X10733333Y-40363855D02*
X10276190Y-40363855D01*
X10504762Y-40363855D02*
X10504762Y-39563855D01*
X10504762Y-39563855D02*
X10428571Y-39678140D01*
X10428571Y-39678140D02*
X10352381Y-39754331D01*
X10352381Y-39754331D02*
X10276190Y-39792426D01*
X11076191Y-40059093D02*
X11685715Y-40059093D01*
X11380953Y-40363855D02*
X11380953Y-39754331D01*
X11528571Y-26363855D02*
X11071428Y-26363855D01*
X11300000Y-26363855D02*
X11300000Y-25563855D01*
X11300000Y-25563855D02*
X11223809Y-25678140D01*
X11223809Y-25678140D02*
X11147619Y-25754331D01*
X11147619Y-25754331D02*
X11071428Y-25792426D01*
X12938096Y-26363855D02*
X12671429Y-25982902D01*
X12480953Y-26363855D02*
X12480953Y-25563855D01*
X12480953Y-25563855D02*
X12785715Y-25563855D01*
X12785715Y-25563855D02*
X12861905Y-25601950D01*
X12861905Y-25601950D02*
X12900000Y-25640045D01*
X12900000Y-25640045D02*
X12938096Y-25716236D01*
X12938096Y-25716236D02*
X12938096Y-25830521D01*
X12938096Y-25830521D02*
X12900000Y-25906712D01*
X12900000Y-25906712D02*
X12861905Y-25944807D01*
X12861905Y-25944807D02*
X12785715Y-25982902D01*
X12785715Y-25982902D02*
X12480953Y-25982902D01*
X13280953Y-26059093D02*
X13890477Y-26059093D01*
X13585715Y-26363855D02*
X13585715Y-25754331D01*
X14352381Y-4863855D02*
X14085714Y-4482902D01*
X13895238Y-4863855D02*
X13895238Y-4063855D01*
X13895238Y-4063855D02*
X14200000Y-4063855D01*
X14200000Y-4063855D02*
X14276190Y-4101950D01*
X14276190Y-4101950D02*
X14314285Y-4140045D01*
X14314285Y-4140045D02*
X14352381Y-4216236D01*
X14352381Y-4216236D02*
X14352381Y-4330521D01*
X14352381Y-4330521D02*
X14314285Y-4406712D01*
X14314285Y-4406712D02*
X14276190Y-4444807D01*
X14276190Y-4444807D02*
X14200000Y-4482902D01*
X14200000Y-4482902D02*
X13895238Y-4482902D01*
X14695238Y-4063855D02*
X14695238Y-4711474D01*
X14695238Y-4711474D02*
X14733333Y-4787664D01*
X14733333Y-4787664D02*
X14771428Y-4825760D01*
X14771428Y-4825760D02*
X14847619Y-4863855D01*
X14847619Y-4863855D02*
X15000000Y-4863855D01*
X15000000Y-4863855D02*
X15076190Y-4825760D01*
X15076190Y-4825760D02*
X15114285Y-4787664D01*
X15114285Y-4787664D02*
X15152381Y-4711474D01*
X15152381Y-4711474D02*
X15152381Y-4063855D01*
X15533333Y-4863855D02*
X15533333Y-4063855D01*
X15533333Y-4063855D02*
X15990476Y-4863855D01*
X15990476Y-4863855D02*
X15990476Y-4063855D01*
X17857142Y-4444807D02*
X17590476Y-4444807D01*
X17590476Y-4863855D02*
X17590476Y-4063855D01*
X17590476Y-4063855D02*
X17971428Y-4063855D01*
X18238094Y-4635283D02*
X18619047Y-4635283D01*
X18161904Y-4863855D02*
X18428571Y-4063855D01*
X18428571Y-4063855D02*
X18695237Y-4863855D01*
X18961904Y-4063855D02*
X18961904Y-4711474D01*
X18961904Y-4711474D02*
X18999999Y-4787664D01*
X18999999Y-4787664D02*
X19038094Y-4825760D01*
X19038094Y-4825760D02*
X19114285Y-4863855D01*
X19114285Y-4863855D02*
X19266666Y-4863855D01*
X19266666Y-4863855D02*
X19342856Y-4825760D01*
X19342856Y-4825760D02*
X19380951Y-4787664D01*
X19380951Y-4787664D02*
X19419047Y-4711474D01*
X19419047Y-4711474D02*
X19419047Y-4063855D01*
X20180951Y-4863855D02*
X19799999Y-4863855D01*
X19799999Y-4863855D02*
X19799999Y-4063855D01*
X20333332Y-4063855D02*
X20790475Y-4063855D01*
X20561903Y-4863855D02*
X20561903Y-4063855D01*
X22238094Y-4140045D02*
X22276190Y-4101950D01*
X22276190Y-4101950D02*
X22352380Y-4063855D01*
X22352380Y-4063855D02*
X22542856Y-4063855D01*
X22542856Y-4063855D02*
X22619047Y-4101950D01*
X22619047Y-4101950D02*
X22657142Y-4140045D01*
X22657142Y-4140045D02*
X22695237Y-4216236D01*
X22695237Y-4216236D02*
X22695237Y-4292426D01*
X22695237Y-4292426D02*
X22657142Y-4406712D01*
X22657142Y-4406712D02*
X22199999Y-4863855D01*
X22199999Y-4863855D02*
X22695237Y-4863855D01*
X23380952Y-4330521D02*
X23380952Y-4863855D01*
X23190476Y-4025760D02*
X22999999Y-4597188D01*
X22999999Y-4597188D02*
X23495238Y-4597188D01*
X23685714Y-4063855D02*
X23952381Y-4863855D01*
X23952381Y-4863855D02*
X24219047Y-4063855D01*
X39323810Y-47287664D02*
X39285714Y-47325760D01*
X39285714Y-47325760D02*
X39171429Y-47363855D01*
X39171429Y-47363855D02*
X39095238Y-47363855D01*
X39095238Y-47363855D02*
X38980952Y-47325760D01*
X38980952Y-47325760D02*
X38904762Y-47249569D01*
X38904762Y-47249569D02*
X38866667Y-47173379D01*
X38866667Y-47173379D02*
X38828571Y-47020998D01*
X38828571Y-47020998D02*
X38828571Y-46906712D01*
X38828571Y-46906712D02*
X38866667Y-46754331D01*
X38866667Y-46754331D02*
X38904762Y-46678140D01*
X38904762Y-46678140D02*
X38980952Y-46601950D01*
X38980952Y-46601950D02*
X39095238Y-46563855D01*
X39095238Y-46563855D02*
X39171429Y-46563855D01*
X39171429Y-46563855D02*
X39285714Y-46601950D01*
X39285714Y-46601950D02*
X39323810Y-46640045D01*
X40123810Y-47287664D02*
X40085714Y-47325760D01*
X40085714Y-47325760D02*
X39971429Y-47363855D01*
X39971429Y-47363855D02*
X39895238Y-47363855D01*
X39895238Y-47363855D02*
X39780952Y-47325760D01*
X39780952Y-47325760D02*
X39704762Y-47249569D01*
X39704762Y-47249569D02*
X39666667Y-47173379D01*
X39666667Y-47173379D02*
X39628571Y-47020998D01*
X39628571Y-47020998D02*
X39628571Y-46906712D01*
X39628571Y-46906712D02*
X39666667Y-46754331D01*
X39666667Y-46754331D02*
X39704762Y-46678140D01*
X39704762Y-46678140D02*
X39780952Y-46601950D01*
X39780952Y-46601950D02*
X39895238Y-46563855D01*
X39895238Y-46563855D02*
X39971429Y-46563855D01*
X39971429Y-46563855D02*
X40085714Y-46601950D01*
X40085714Y-46601950D02*
X40123810Y-46640045D01*
X40466667Y-47059093D02*
X41076191Y-47059093D01*
X41723809Y-46944807D02*
X41838095Y-46982902D01*
X41838095Y-46982902D02*
X41876190Y-47020998D01*
X41876190Y-47020998D02*
X41914286Y-47097188D01*
X41914286Y-47097188D02*
X41914286Y-47211474D01*
X41914286Y-47211474D02*
X41876190Y-47287664D01*
X41876190Y-47287664D02*
X41838095Y-47325760D01*
X41838095Y-47325760D02*
X41761905Y-47363855D01*
X41761905Y-47363855D02*
X41457143Y-47363855D01*
X41457143Y-47363855D02*
X41457143Y-46563855D01*
X41457143Y-46563855D02*
X41723809Y-46563855D01*
X41723809Y-46563855D02*
X41800000Y-46601950D01*
X41800000Y-46601950D02*
X41838095Y-46640045D01*
X41838095Y-46640045D02*
X41876190Y-46716236D01*
X41876190Y-46716236D02*
X41876190Y-46792426D01*
X41876190Y-46792426D02*
X41838095Y-46868617D01*
X41838095Y-46868617D02*
X41800000Y-46906712D01*
X41800000Y-46906712D02*
X41723809Y-46944807D01*
X41723809Y-46944807D02*
X41457143Y-46944807D01*
X42409524Y-46982902D02*
X42409524Y-47363855D01*
X42142857Y-46563855D02*
X42409524Y-46982902D01*
X42409524Y-46982902D02*
X42676190Y-46563855D01*
X42942857Y-47059093D02*
X43552381Y-47059093D01*
X43933333Y-47363855D02*
X43933333Y-46563855D01*
X43933333Y-46563855D02*
X44390476Y-47363855D01*
X44390476Y-47363855D02*
X44390476Y-46563855D01*
X45228571Y-47287664D02*
X45190475Y-47325760D01*
X45190475Y-47325760D02*
X45076190Y-47363855D01*
X45076190Y-47363855D02*
X44999999Y-47363855D01*
X44999999Y-47363855D02*
X44885713Y-47325760D01*
X44885713Y-47325760D02*
X44809523Y-47249569D01*
X44809523Y-47249569D02*
X44771428Y-47173379D01*
X44771428Y-47173379D02*
X44733332Y-47020998D01*
X44733332Y-47020998D02*
X44733332Y-46906712D01*
X44733332Y-46906712D02*
X44771428Y-46754331D01*
X44771428Y-46754331D02*
X44809523Y-46678140D01*
X44809523Y-46678140D02*
X44885713Y-46601950D01*
X44885713Y-46601950D02*
X44999999Y-46563855D01*
X44999999Y-46563855D02*
X45076190Y-46563855D01*
X45076190Y-46563855D02*
X45190475Y-46601950D01*
X45190475Y-46601950D02*
X45228571Y-46640045D01*
X46752380Y-47135283D02*
X47133333Y-47135283D01*
X46676190Y-47363855D02*
X46942857Y-46563855D01*
X46942857Y-46563855D02*
X47209523Y-47363855D01*
X47819047Y-46830521D02*
X47819047Y-47363855D01*
X47476190Y-46830521D02*
X47476190Y-47249569D01*
X47476190Y-47249569D02*
X47514285Y-47325760D01*
X47514285Y-47325760D02*
X47590475Y-47363855D01*
X47590475Y-47363855D02*
X47704761Y-47363855D01*
X47704761Y-47363855D02*
X47780952Y-47325760D01*
X47780952Y-47325760D02*
X47819047Y-47287664D01*
X48200000Y-47363855D02*
X48200000Y-46830521D01*
X48200000Y-46982902D02*
X48238095Y-46906712D01*
X48238095Y-46906712D02*
X48276190Y-46868617D01*
X48276190Y-46868617D02*
X48352381Y-46830521D01*
X48352381Y-46830521D02*
X48428571Y-46830521D01*
X48809523Y-47363855D02*
X48733333Y-47325760D01*
X48733333Y-47325760D02*
X48695238Y-47287664D01*
X48695238Y-47287664D02*
X48657142Y-47211474D01*
X48657142Y-47211474D02*
X48657142Y-46982902D01*
X48657142Y-46982902D02*
X48695238Y-46906712D01*
X48695238Y-46906712D02*
X48733333Y-46868617D01*
X48733333Y-46868617D02*
X48809523Y-46830521D01*
X48809523Y-46830521D02*
X48923809Y-46830521D01*
X48923809Y-46830521D02*
X49000000Y-46868617D01*
X49000000Y-46868617D02*
X49038095Y-46906712D01*
X49038095Y-46906712D02*
X49076190Y-46982902D01*
X49076190Y-46982902D02*
X49076190Y-47211474D01*
X49076190Y-47211474D02*
X49038095Y-47287664D01*
X49038095Y-47287664D02*
X49000000Y-47325760D01*
X49000000Y-47325760D02*
X48923809Y-47363855D01*
X48923809Y-47363855D02*
X48809523Y-47363855D01*
X49419048Y-47363855D02*
X49419048Y-46830521D01*
X49419048Y-46906712D02*
X49457143Y-46868617D01*
X49457143Y-46868617D02*
X49533333Y-46830521D01*
X49533333Y-46830521D02*
X49647619Y-46830521D01*
X49647619Y-46830521D02*
X49723810Y-46868617D01*
X49723810Y-46868617D02*
X49761905Y-46944807D01*
X49761905Y-46944807D02*
X49761905Y-47363855D01*
X49761905Y-46944807D02*
X49800000Y-46868617D01*
X49800000Y-46868617D02*
X49876191Y-46830521D01*
X49876191Y-46830521D02*
X49990476Y-46830521D01*
X49990476Y-46830521D02*
X50066667Y-46868617D01*
X50066667Y-46868617D02*
X50104762Y-46944807D01*
X50104762Y-46944807D02*
X50104762Y-47363855D01*
X50485715Y-47363855D02*
X50485715Y-46830521D01*
X50485715Y-46563855D02*
X50447619Y-46601950D01*
X50447619Y-46601950D02*
X50485715Y-46640045D01*
X50485715Y-46640045D02*
X50523810Y-46601950D01*
X50523810Y-46601950D02*
X50485715Y-46563855D01*
X50485715Y-46563855D02*
X50485715Y-46640045D01*
X50790476Y-47363855D02*
X51209524Y-46830521D01*
X50790476Y-46830521D02*
X51209524Y-47363855D01*
X65190475Y-12563855D02*
X64809523Y-12563855D01*
X64809523Y-12563855D02*
X64771427Y-12944807D01*
X64771427Y-12944807D02*
X64809523Y-12906712D01*
X64809523Y-12906712D02*
X64885713Y-12868617D01*
X64885713Y-12868617D02*
X65076189Y-12868617D01*
X65076189Y-12868617D02*
X65152380Y-12906712D01*
X65152380Y-12906712D02*
X65190475Y-12944807D01*
X65190475Y-12944807D02*
X65228570Y-13020998D01*
X65228570Y-13020998D02*
X65228570Y-13211474D01*
X65228570Y-13211474D02*
X65190475Y-13287664D01*
X65190475Y-13287664D02*
X65152380Y-13325760D01*
X65152380Y-13325760D02*
X65076189Y-13363855D01*
X65076189Y-13363855D02*
X64885713Y-13363855D01*
X64885713Y-13363855D02*
X64809523Y-13325760D01*
X64809523Y-13325760D02*
X64771427Y-13287664D01*
X65457142Y-12563855D02*
X65723809Y-13363855D01*
X65723809Y-13363855D02*
X65990475Y-12563855D01*
X66752380Y-12563855D02*
X67209523Y-12563855D01*
X66980951Y-13363855D02*
X66980951Y-12563855D01*
X67476190Y-12944807D02*
X67742856Y-12944807D01*
X67857142Y-13363855D02*
X67476190Y-13363855D01*
X67476190Y-13363855D02*
X67476190Y-12563855D01*
X67476190Y-12563855D02*
X67857142Y-12563855D01*
X68161904Y-13325760D02*
X68276190Y-13363855D01*
X68276190Y-13363855D02*
X68466666Y-13363855D01*
X68466666Y-13363855D02*
X68542857Y-13325760D01*
X68542857Y-13325760D02*
X68580952Y-13287664D01*
X68580952Y-13287664D02*
X68619047Y-13211474D01*
X68619047Y-13211474D02*
X68619047Y-13135283D01*
X68619047Y-13135283D02*
X68580952Y-13059093D01*
X68580952Y-13059093D02*
X68542857Y-13020998D01*
X68542857Y-13020998D02*
X68466666Y-12982902D01*
X68466666Y-12982902D02*
X68314285Y-12944807D01*
X68314285Y-12944807D02*
X68238095Y-12906712D01*
X68238095Y-12906712D02*
X68200000Y-12868617D01*
X68200000Y-12868617D02*
X68161904Y-12792426D01*
X68161904Y-12792426D02*
X68161904Y-12716236D01*
X68161904Y-12716236D02*
X68200000Y-12640045D01*
X68200000Y-12640045D02*
X68238095Y-12601950D01*
X68238095Y-12601950D02*
X68314285Y-12563855D01*
X68314285Y-12563855D02*
X68504762Y-12563855D01*
X68504762Y-12563855D02*
X68619047Y-12601950D01*
X68847619Y-12563855D02*
X69304762Y-12563855D01*
X69076190Y-13363855D02*
X69076190Y-12563855D01*
X66342856Y-17640045D02*
X66380952Y-17601950D01*
X66380952Y-17601950D02*
X66457142Y-17563855D01*
X66457142Y-17563855D02*
X66647618Y-17563855D01*
X66647618Y-17563855D02*
X66723809Y-17601950D01*
X66723809Y-17601950D02*
X66761904Y-17640045D01*
X66761904Y-17640045D02*
X66799999Y-17716236D01*
X66799999Y-17716236D02*
X66799999Y-17792426D01*
X66799999Y-17792426D02*
X66761904Y-17906712D01*
X66761904Y-17906712D02*
X66304761Y-18363855D01*
X66304761Y-18363855D02*
X66799999Y-18363855D01*
X67752381Y-18363855D02*
X67752381Y-17563855D01*
X67752381Y-17563855D02*
X68057143Y-17563855D01*
X68057143Y-17563855D02*
X68133333Y-17601950D01*
X68133333Y-17601950D02*
X68171428Y-17640045D01*
X68171428Y-17640045D02*
X68209524Y-17716236D01*
X68209524Y-17716236D02*
X68209524Y-17830521D01*
X68209524Y-17830521D02*
X68171428Y-17906712D01*
X68171428Y-17906712D02*
X68133333Y-17944807D01*
X68133333Y-17944807D02*
X68057143Y-17982902D01*
X68057143Y-17982902D02*
X67752381Y-17982902D01*
X69085714Y-17563855D02*
X69580952Y-17563855D01*
X69580952Y-17563855D02*
X69314286Y-17868617D01*
X69314286Y-17868617D02*
X69428571Y-17868617D01*
X69428571Y-17868617D02*
X69504762Y-17906712D01*
X69504762Y-17906712D02*
X69542857Y-17944807D01*
X69542857Y-17944807D02*
X69580952Y-18020998D01*
X69580952Y-18020998D02*
X69580952Y-18211474D01*
X69580952Y-18211474D02*
X69542857Y-18287664D01*
X69542857Y-18287664D02*
X69504762Y-18325760D01*
X69504762Y-18325760D02*
X69428571Y-18363855D01*
X69428571Y-18363855D02*
X69200000Y-18363855D01*
X69200000Y-18363855D02*
X69123809Y-18325760D01*
X69123809Y-18325760D02*
X69085714Y-18287664D01*
X70990477Y-18363855D02*
X70723810Y-17982902D01*
X70533334Y-18363855D02*
X70533334Y-17563855D01*
X70533334Y-17563855D02*
X70838096Y-17563855D01*
X70838096Y-17563855D02*
X70914286Y-17601950D01*
X70914286Y-17601950D02*
X70952381Y-17640045D01*
X70952381Y-17640045D02*
X70990477Y-17716236D01*
X70990477Y-17716236D02*
X70990477Y-17830521D01*
X70990477Y-17830521D02*
X70952381Y-17906712D01*
X70952381Y-17906712D02*
X70914286Y-17944807D01*
X70914286Y-17944807D02*
X70838096Y-17982902D01*
X70838096Y-17982902D02*
X70533334Y-17982902D01*
X72285715Y-17830521D02*
X72285715Y-18363855D01*
X72095239Y-17525760D02*
X71904762Y-18097188D01*
X71904762Y-18097188D02*
X72400001Y-18097188D01*
X73580953Y-17944807D02*
X73314287Y-17944807D01*
X73314287Y-18363855D02*
X73314287Y-17563855D01*
X73314287Y-17563855D02*
X73695239Y-17563855D01*
X75204761Y-32363855D02*
X74747618Y-32363855D01*
X74976190Y-32363855D02*
X74976190Y-31563855D01*
X74976190Y-31563855D02*
X74899999Y-31678140D01*
X74899999Y-31678140D02*
X74823809Y-31754331D01*
X74823809Y-31754331D02*
X74747618Y-31792426D01*
X76576190Y-31601950D02*
X76500000Y-31563855D01*
X76500000Y-31563855D02*
X76385714Y-31563855D01*
X76385714Y-31563855D02*
X76271428Y-31601950D01*
X76271428Y-31601950D02*
X76195238Y-31678140D01*
X76195238Y-31678140D02*
X76157143Y-31754331D01*
X76157143Y-31754331D02*
X76119047Y-31906712D01*
X76119047Y-31906712D02*
X76119047Y-32020998D01*
X76119047Y-32020998D02*
X76157143Y-32173379D01*
X76157143Y-32173379D02*
X76195238Y-32249569D01*
X76195238Y-32249569D02*
X76271428Y-32325760D01*
X76271428Y-32325760D02*
X76385714Y-32363855D01*
X76385714Y-32363855D02*
X76461905Y-32363855D01*
X76461905Y-32363855D02*
X76576190Y-32325760D01*
X76576190Y-32325760D02*
X76614286Y-32287664D01*
X76614286Y-32287664D02*
X76614286Y-32020998D01*
X76614286Y-32020998D02*
X76461905Y-32020998D01*
X76957143Y-32363855D02*
X76957143Y-31563855D01*
X76957143Y-31563855D02*
X77414286Y-32363855D01*
X77414286Y-32363855D02*
X77414286Y-31563855D01*
X77795238Y-32363855D02*
X77795238Y-31563855D01*
X77795238Y-31563855D02*
X77985714Y-31563855D01*
X77985714Y-31563855D02*
X78100000Y-31601950D01*
X78100000Y-31601950D02*
X78176190Y-31678140D01*
X78176190Y-31678140D02*
X78214285Y-31754331D01*
X78214285Y-31754331D02*
X78252381Y-31906712D01*
X78252381Y-31906712D02*
X78252381Y-32020998D01*
X78252381Y-32020998D02*
X78214285Y-32173379D01*
X78214285Y-32173379D02*
X78176190Y-32249569D01*
X78176190Y-32249569D02*
X78100000Y-32325760D01*
X78100000Y-32325760D02*
X77985714Y-32363855D01*
X77985714Y-32363855D02*
X77795238Y-32363855D01*
X14142857Y-44789712D02*
X14142857Y-45456379D01*
X13904762Y-44408760D02*
X13666667Y-45123045D01*
X13666667Y-45123045D02*
X14285714Y-45123045D01*
X14809524Y-44884950D02*
X14714286Y-44837331D01*
X14714286Y-44837331D02*
X14666667Y-44789712D01*
X14666667Y-44789712D02*
X14619048Y-44694474D01*
X14619048Y-44694474D02*
X14619048Y-44646855D01*
X14619048Y-44646855D02*
X14666667Y-44551617D01*
X14666667Y-44551617D02*
X14714286Y-44503998D01*
X14714286Y-44503998D02*
X14809524Y-44456379D01*
X14809524Y-44456379D02*
X15000000Y-44456379D01*
X15000000Y-44456379D02*
X15095238Y-44503998D01*
X15095238Y-44503998D02*
X15142857Y-44551617D01*
X15142857Y-44551617D02*
X15190476Y-44646855D01*
X15190476Y-44646855D02*
X15190476Y-44694474D01*
X15190476Y-44694474D02*
X15142857Y-44789712D01*
X15142857Y-44789712D02*
X15095238Y-44837331D01*
X15095238Y-44837331D02*
X15000000Y-44884950D01*
X15000000Y-44884950D02*
X14809524Y-44884950D01*
X14809524Y-44884950D02*
X14714286Y-44932569D01*
X14714286Y-44932569D02*
X14666667Y-44980188D01*
X14666667Y-44980188D02*
X14619048Y-45075426D01*
X14619048Y-45075426D02*
X14619048Y-45265902D01*
X14619048Y-45265902D02*
X14666667Y-45361140D01*
X14666667Y-45361140D02*
X14714286Y-45408760D01*
X14714286Y-45408760D02*
X14809524Y-45456379D01*
X14809524Y-45456379D02*
X15000000Y-45456379D01*
X15000000Y-45456379D02*
X15095238Y-45408760D01*
X15095238Y-45408760D02*
X15142857Y-45361140D01*
X15142857Y-45361140D02*
X15190476Y-45265902D01*
X15190476Y-45265902D02*
X15190476Y-45075426D01*
X15190476Y-45075426D02*
X15142857Y-44980188D01*
X15142857Y-44980188D02*
X15095238Y-44932569D01*
X15095238Y-44932569D02*
X15000000Y-44884950D01*
X15476191Y-44456379D02*
X15809524Y-45456379D01*
X15809524Y-45456379D02*
X16142857Y-44456379D01*
X17238096Y-45456379D02*
X17238096Y-44456379D01*
X17714286Y-45456379D02*
X17714286Y-44456379D01*
X17714286Y-44456379D02*
X18285714Y-45456379D01*
X18285714Y-45456379D02*
X18285714Y-44456379D01*
X41738095Y-2932569D02*
X41880952Y-2980188D01*
X41880952Y-2980188D02*
X41928571Y-3027807D01*
X41928571Y-3027807D02*
X41976190Y-3123045D01*
X41976190Y-3123045D02*
X41976190Y-3265902D01*
X41976190Y-3265902D02*
X41928571Y-3361140D01*
X41928571Y-3361140D02*
X41880952Y-3408760D01*
X41880952Y-3408760D02*
X41785714Y-3456379D01*
X41785714Y-3456379D02*
X41404762Y-3456379D01*
X41404762Y-3456379D02*
X41404762Y-2456379D01*
X41404762Y-2456379D02*
X41738095Y-2456379D01*
X41738095Y-2456379D02*
X41833333Y-2503998D01*
X41833333Y-2503998D02*
X41880952Y-2551617D01*
X41880952Y-2551617D02*
X41928571Y-2646855D01*
X41928571Y-2646855D02*
X41928571Y-2742093D01*
X41928571Y-2742093D02*
X41880952Y-2837331D01*
X41880952Y-2837331D02*
X41833333Y-2884950D01*
X41833333Y-2884950D02*
X41738095Y-2932569D01*
X41738095Y-2932569D02*
X41404762Y-2932569D01*
X42595238Y-2456379D02*
X42690476Y-2456379D01*
X42690476Y-2456379D02*
X42785714Y-2503998D01*
X42785714Y-2503998D02*
X42833333Y-2551617D01*
X42833333Y-2551617D02*
X42880952Y-2646855D01*
X42880952Y-2646855D02*
X42928571Y-2837331D01*
X42928571Y-2837331D02*
X42928571Y-3075426D01*
X42928571Y-3075426D02*
X42880952Y-3265902D01*
X42880952Y-3265902D02*
X42833333Y-3361140D01*
X42833333Y-3361140D02*
X42785714Y-3408760D01*
X42785714Y-3408760D02*
X42690476Y-3456379D01*
X42690476Y-3456379D02*
X42595238Y-3456379D01*
X42595238Y-3456379D02*
X42500000Y-3408760D01*
X42500000Y-3408760D02*
X42452381Y-3361140D01*
X42452381Y-3361140D02*
X42404762Y-3265902D01*
X42404762Y-3265902D02*
X42357143Y-3075426D01*
X42357143Y-3075426D02*
X42357143Y-2837331D01*
X42357143Y-2837331D02*
X42404762Y-2646855D01*
X42404762Y-2646855D02*
X42452381Y-2551617D01*
X42452381Y-2551617D02*
X42500000Y-2503998D01*
X42500000Y-2503998D02*
X42595238Y-2456379D01*
X43785714Y-2789712D02*
X43785714Y-3456379D01*
X43547619Y-2408760D02*
X43309524Y-3123045D01*
X43309524Y-3123045D02*
X43928571Y-3123045D01*
X45023810Y-3408760D02*
X45166667Y-3456379D01*
X45166667Y-3456379D02*
X45404762Y-3456379D01*
X45404762Y-3456379D02*
X45500000Y-3408760D01*
X45500000Y-3408760D02*
X45547619Y-3361140D01*
X45547619Y-3361140D02*
X45595238Y-3265902D01*
X45595238Y-3265902D02*
X45595238Y-3170664D01*
X45595238Y-3170664D02*
X45547619Y-3075426D01*
X45547619Y-3075426D02*
X45500000Y-3027807D01*
X45500000Y-3027807D02*
X45404762Y-2980188D01*
X45404762Y-2980188D02*
X45214286Y-2932569D01*
X45214286Y-2932569D02*
X45119048Y-2884950D01*
X45119048Y-2884950D02*
X45071429Y-2837331D01*
X45071429Y-2837331D02*
X45023810Y-2742093D01*
X45023810Y-2742093D02*
X45023810Y-2646855D01*
X45023810Y-2646855D02*
X45071429Y-2551617D01*
X45071429Y-2551617D02*
X45119048Y-2503998D01*
X45119048Y-2503998D02*
X45214286Y-2456379D01*
X45214286Y-2456379D02*
X45452381Y-2456379D01*
X45452381Y-2456379D02*
X45595238Y-2503998D01*
X46023810Y-2932569D02*
X46357143Y-2932569D01*
X46500000Y-3456379D02*
X46023810Y-3456379D01*
X46023810Y-3456379D02*
X46023810Y-2456379D01*
X46023810Y-2456379D02*
X46500000Y-2456379D01*
X47500000Y-3456379D02*
X47166667Y-2980188D01*
X46928572Y-3456379D02*
X46928572Y-2456379D01*
X46928572Y-2456379D02*
X47309524Y-2456379D01*
X47309524Y-2456379D02*
X47404762Y-2503998D01*
X47404762Y-2503998D02*
X47452381Y-2551617D01*
X47452381Y-2551617D02*
X47500000Y-2646855D01*
X47500000Y-2646855D02*
X47500000Y-2789712D01*
X47500000Y-2789712D02*
X47452381Y-2884950D01*
X47452381Y-2884950D02*
X47404762Y-2932569D01*
X47404762Y-2932569D02*
X47309524Y-2980188D01*
X47309524Y-2980188D02*
X46928572Y-2980188D01*
X47785715Y-2456379D02*
X48119048Y-3456379D01*
X48119048Y-3456379D02*
X48452381Y-2456379D01*
X48785715Y-3456379D02*
X48785715Y-2456379D01*
X49833333Y-3361140D02*
X49785714Y-3408760D01*
X49785714Y-3408760D02*
X49642857Y-3456379D01*
X49642857Y-3456379D02*
X49547619Y-3456379D01*
X49547619Y-3456379D02*
X49404762Y-3408760D01*
X49404762Y-3408760D02*
X49309524Y-3313521D01*
X49309524Y-3313521D02*
X49261905Y-3218283D01*
X49261905Y-3218283D02*
X49214286Y-3027807D01*
X49214286Y-3027807D02*
X49214286Y-2884950D01*
X49214286Y-2884950D02*
X49261905Y-2694474D01*
X49261905Y-2694474D02*
X49309524Y-2599236D01*
X49309524Y-2599236D02*
X49404762Y-2503998D01*
X49404762Y-2503998D02*
X49547619Y-2456379D01*
X49547619Y-2456379D02*
X49642857Y-2456379D01*
X49642857Y-2456379D02*
X49785714Y-2503998D01*
X49785714Y-2503998D02*
X49833333Y-2551617D01*
X50261905Y-2932569D02*
X50595238Y-2932569D01*
X50738095Y-3456379D02*
X50261905Y-3456379D01*
X50261905Y-3456379D02*
X50261905Y-2456379D01*
X50261905Y-2456379D02*
X50738095Y-2456379D01*
X51357143Y-2456379D02*
X51452381Y-2456379D01*
X51452381Y-2456379D02*
X51547619Y-2503998D01*
X51547619Y-2503998D02*
X51595238Y-2551617D01*
X51595238Y-2551617D02*
X51642857Y-2646855D01*
X51642857Y-2646855D02*
X51690476Y-2837331D01*
X51690476Y-2837331D02*
X51690476Y-3075426D01*
X51690476Y-3075426D02*
X51642857Y-3265902D01*
X51642857Y-3265902D02*
X51595238Y-3361140D01*
X51595238Y-3361140D02*
X51547619Y-3408760D01*
X51547619Y-3408760D02*
X51452381Y-3456379D01*
X51452381Y-3456379D02*
X51357143Y-3456379D01*
X51357143Y-3456379D02*
X51261905Y-3408760D01*
X51261905Y-3408760D02*
X51214286Y-3361140D01*
X51214286Y-3361140D02*
X51166667Y-3265902D01*
X51166667Y-3265902D02*
X51119048Y-3075426D01*
X51119048Y-3075426D02*
X51119048Y-2837331D01*
X51119048Y-2837331D02*
X51166667Y-2646855D01*
X51166667Y-2646855D02*
X51214286Y-2551617D01*
X51214286Y-2551617D02*
X51261905Y-2503998D01*
X51261905Y-2503998D02*
X51357143Y-2456379D01*
X52642857Y-3456379D02*
X52071429Y-3456379D01*
X52357143Y-3456379D02*
X52357143Y-2456379D01*
X52357143Y-2456379D02*
X52261905Y-2599236D01*
X52261905Y-2599236D02*
X52166667Y-2694474D01*
X52166667Y-2694474D02*
X52071429Y-2742093D01*
M02*
