M48
; DRILL file KiCad 10.0.6 date 2026-09-30T17:59:13
; FORMAT={-:-/ absolute / metric / decimal}
; #@! TF.CreationDate,2026-09-30T17:59:13-04:00
; #@! TF.GenerationSoftware,Kicad,Pcbnew,10.0.6
; #@! TF.FileFunction,Plated,1,2,PTH
FMAT,2
METRIC
; #@! TA.AperFunction,Plated,PTH,ViaDrill
T1C0.300
; #@! TA.AperFunction,Plated,PTH,ComponentDrill
T2C0.800
; #@! TA.AperFunction,Plated,PTH,ComponentDrill
T3C1.000
; #@! TA.AperFunction,Plated,PTH,ComponentDrill
T4C1.200
%
G90
G05
T1
X13.5Y-12.572
X22.2Y-19.086
X22.974Y-7.884
X24.15Y-42.5
X28.9Y-40.5
X29.15Y-42.888
X33.0Y-31.55
X33.0Y-36.55
X34.0Y-32.365
X34.0Y-40.039
X34.373Y-34.899
X35.0Y-28.0
X38.35Y-32.7
X38.35Y-34.0
X38.35Y-35.3
X38.96Y-26.986
X39.65Y-32.7
X39.65Y-34.0
X39.65Y-35.3
X41.754Y-40.096
X43.255Y-41.895
X43.593Y-34.635
X44.0Y-27.373
X44.2Y-43.947
X46.868Y-45.114
X59.59Y-11.984
X62.614Y-16.14
X66.0Y-29.55
X66.0Y-34.55
T2
X27.0Y-11.0
X27.0Y-13.54
X27.0Y-22.0
X27.0Y-24.54
X34.62Y-11.0
X34.62Y-13.54
X34.62Y-22.0
X34.62Y-24.54
T3
X73.0Y-21.5
X73.0Y-24.0
X73.0Y-26.5
X73.0Y-29.0
T4
X8.0Y-13.57
X8.0Y-17.38
X8.0Y-21.19
X8.0Y-25.0
X8.0Y-34.19
X8.0Y-38.0
M30
