  0
SECTION
  2
HEADER
  9
$ACADVER
  1
AC1027
  9
$ACADMAINTVER
 70
105
  9
$DWGCODEPAGE
  3
ANSI_1252
  9
$LASTSAVEDBY
  1
ezdxf
  9
$REQUIREDVERSIONS
160
0
  9
$INSBASE
 10
0.0
 20
0.0
 30
0.0
  9
$EXTMIN
 10
1e+20
 20
1e+20
 30
1e+20
  9
$EXTMAX
 10
-1e+20
 20
-1e+20
 30
-1e+20
  9
$LIMMIN
 10
0.0
 20
0.0
  9
$LIMMAX
 10
420.0
 20
297.0
  9
$ORTHOMODE
 70
0
  9
$REGENMODE
 70
1
  9
$FILLMODE
 70
1
  9
$QTEXTMODE
 70
0
  9
$MIRRTEXT
 70
1
  9
$LTSCALE
 40
1.0
  9
$ATTMODE
 70
1
  9
$TEXTSIZE
 40
2.5
  9
$TRACEWID
 40
1.0
  9
$TEXTSTYLE
  7
Standard
  9
$CLAYER
  8
0
  9
$CELTYPE
  6
ByLayer
  9
$CECOLOR
 62
256
  9
$CELTSCALE
 40
1.0
  9
$DISPSILH
 70
0
  9
$DIMSCALE
 40
1.0
  9
$DIMASZ
 40
2.5
  9
$DIMEXO
 40
0.625
  9
$DIMDLI
 40
3.75
  9
$DIMRND
 40
0.0
  9
$DIMDLE
 40
0.0
  9
$DIMEXE
 40
1.25
  9
$DIMTP
 40
0.0
  9
$DIMTM
 40
0.0
  9
$DIMTXT
 40
2.5
  9
$DIMCEN
 40
2.5
  9
$DIMTSZ
 40
0.0
  9
$DIMTOL
 70
0
  9
$DIMLIM
 70
0
  9
$DIMTIH
 70
0
  9
$DIMTOH
 70
0
  9
$DIMSE1
 70
0
  9
$DIMSE2
 70
0
  9
$DIMTAD
 70
1
  9
$DIMZIN
 70
8
  9
$DIMBLK
  1

  9
$DIMASO
 70
1
  9
$DIMSHO
 70
1
  9
$DIMPOST
  1

  9
$DIMAPOST
  1

  9
$DIMALT
 70
0
  9
$DIMALTD
 70
3
  9
$DIMALTF
 40
0.03937007874
  9
$DIMLFAC
 40
1.0
  9
$DIMTOFL
 70
1
  9
$DIMTVP
 40
0.0
  9
$DIMTIX
 70
0
  9
$DIMSOXD
 70
0
  9
$DIMSAH
 70
0
  9
$DIMBLK1
  1

  9
$DIMBLK2
  1

  9
$DIMSTYLE
  2
ISO-25
  9
$DIMCLRD
 70
0
  9
$DIMCLRE
 70
0
  9
$DIMCLRT
 70
0
  9
$DIMTFAC
 40
1.0
  9
$DIMGAP
 40
0.625
  9
$DIMJUST
 70
0
  9
$DIMSD1
 70
0
  9
$DIMSD2
 70
0
  9
$DIMTOLJ
 70
0
  9
$DIMTZIN
 70
8
  9
$DIMALTZ
 70
0
  9
$DIMALTTZ
 70
0
  9
$DIMUPT
 70
0
  9
$DIMDEC
 70
2
  9
$DIMTDEC
 70
2
  9
$DIMALTU
 70
2
  9
$DIMALTTD
 70
3
  9
$DIMTXSTY
  7
Standard
  9
$DIMAUNIT
 70
0
  9
$DIMADEC
 70
0
  9
$DIMALTRND
 40
0.0
  9
$DIMAZIN
 70
0
  9
$DIMDSEP
 70
44
  9
$DIMATFIT
 70
3
  9
$DIMFRAC
 70
0
  9
$DIMLDRBLK
  1

  9
$DIMLUNIT
 70
2
  9
$DIMLWD
 70
-2
  9
$DIMLWE
 70
-2
  9
$DIMTMOVE
 70
0
  9
$DIMFXL
 40
1.0
  9
$DIMFXLON
 70
0
  9
$DIMJOGANG
 40
0.785398163397
  9
$DIMTFILL
 70
0
  9
$DIMTFILLCLR
 70
0
  9
$DIMARCSYM
 70
0
  9
$DIMLTYPE
  6

  9
$DIMLTEX1
  6

  9
$DIMLTEX2
  6

  9
$DIMTXTDIRECTION
 70
0
  9
$LUNITS
 70
2
  9
$LUPREC
 70
4
  9
$SKETCHINC
 40
1.0
  9
$FILLETRAD
 40
10.0
  9
$AUNITS
 70
0
  9
$AUPREC
 70
2
  9
$MENU
  1
.
  9
$ELEVATION
 40
0.0
  9
$PELEVATION
 40
0.0
  9
$THICKNESS
 40
0.0
  9
$LIMCHECK
 70
0
  9
$CHAMFERA
 40
0.0
  9
$CHAMFERB
 40
0.0
  9
$CHAMFERC
 40
0.0
  9
$CHAMFERD
 40
0.0
  9
$SKPOLY
 70
0
  9
$TDCREATE
 40
2461312.019976852
  9
$TDUCREATE
 40
2458532.153996898
  9
$TDUPDATE
 40
2461312.019976852
  9
$TDUUPDATE
 40
2458532.1544311
  9
$TDINDWG
 40
0.0
  9
$TDUSRTIMER
 40
0.0
  9
$USRTIMER
 70
1
  9
$ANGBASE
 50
0.0
  9
$ANGDIR
 70
0
  9
$PDMODE
 70
0
  9
$PDSIZE
 40
0.0
  9
$PLINEWID
 40
0.0
  9
$SPLFRAME
 70
0
  9
$SPLINETYPE
 70
6
  9
$SPLINESEGS
 70
8
  9
$HANDSEED
  5
348
  9
$SURFTAB1
 70
6
  9
$SURFTAB2
 70
6
  9
$SURFTYPE
 70
6
  9
$SURFU
 70
6
  9
$SURFV
 70
6
  9
$UCSBASE
  2

  9
$UCSNAME
  2

  9
$UCSORG
 10
0.0
 20
0.0
 30
0.0
  9
$UCSXDIR
 10
1.0
 20
0.0
 30
0.0
  9
$UCSYDIR
 10
0.0
 20
1.0
 30
0.0
  9
$UCSORTHOREF
  2

  9
$UCSORTHOVIEW
 70
0
  9
$UCSORGTOP
 10
0.0
 20
0.0
 30
0.0
  9
$UCSORGBOTTOM
 10
0.0
 20
0.0
 30
0.0
  9
$UCSORGLEFT
 10
0.0
 20
0.0
 30
0.0
  9
$UCSORGRIGHT
 10
0.0
 20
0.0
 30
0.0
  9
$UCSORGFRONT
 10
0.0
 20
0.0
 30
0.0
  9
$UCSORGBACK
 10
0.0
 20
0.0
 30
0.0
  9
$PUCSBASE
  2

  9
$PUCSNAME
  2

  9
$PUCSORG
 10
0.0
 20
0.0
 30
0.0
  9
$PUCSXDIR
 10
1.0
 20
0.0
 30
0.0
  9
$PUCSYDIR
 10
0.0
 20
1.0
 30
0.0
  9
$PUCSORTHOREF
  2

  9
$PUCSORTHOVIEW
 70
0
  9
$PUCSORGTOP
 10
0.0
 20
0.0
 30
0.0
  9
$PUCSORGBOTTOM
 10
0.0
 20
0.0
 30
0.0
  9
$PUCSORGLEFT
 10
0.0
 20
0.0
 30
0.0
  9
$PUCSORGRIGHT
 10
0.0
 20
0.0
 30
0.0
  9
$PUCSORGFRONT
 10
0.0
 20
0.0
 30
0.0
  9
$PUCSORGBACK
 10
0.0
 20
0.0
 30
0.0
  9
$USERI1
 70
0
  9
$USERI2
 70
0
  9
$USERI3
 70
0
  9
$USERI4
 70
0
  9
$USERI5
 70
0
  9
$USERR1
 40
0.0
  9
$USERR2
 40
0.0
  9
$USERR3
 40
0.0
  9
$USERR4
 40
0.0
  9
$USERR5
 40
0.0
  9
$WORLDVIEW
 70
1
  9
$SHADEDGE
 70
3
  9
$SHADEDIF
 70
70
  9
$TILEMODE
 70
1
  9
$MAXACTVP
 70
64
  9
$PINSBASE
 10
0.0
 20
0.0
 30
0.0
  9
$PLIMCHECK
 70
0
  9
$PEXTMIN
 10
1e+20
 20
1e+20
 30
1e+20
  9
$PEXTMAX
 10
-1e+20
 20
-1e+20
 30
-1e+20
  9
$PLIMMIN
 10
0.0
 20
0.0
  9
$PLIMMAX
 10
420.0
 20
297.0
  9
$UNITMODE
 70
0
  9
$VISRETAIN
 70
1
  9
$PLINEGEN
 70
0
  9
$PSLTSCALE
 70
1
  9
$TREEDEPTH
 70
3020
  9
$CMLSTYLE
  2
Standard
  9
$CMLJUST
 70
0
  9
$CMLSCALE
 40
20.0
  9
$PROXYGRAPHICS
 70
1
  9
$MEASUREMENT
 70
1
  9
$CELWEIGHT
370
-1
  9
$ENDCAPS
280
0
  9
$JOINSTYLE
280
0
  9
$LWDISPLAY
290
0
  9
$INSUNITS
 70
4
  9
$HYPERLINKBASE
  1

  9
$STYLESHEET
  1

  9
$XEDIT
290
1
  9
$CEPSNTYPE
380
0
  9
$PSTYLEMODE
290
1
  9
$FINGERPRINTGUID
  2
{8D91BC5B-E2CB-4FFE-81EA-498A94FBB51D}
  9
$VERSIONGUID
  2
{4E2825F7-2522-4E61-9EEE-4BA7FA559F5F}
  9
$EXTNAMES
290
1
  9
$PSVPSCALE
 40
0.0
  9
$OLESTARTUP
290
0
  9
$SORTENTS
280
127
  9
$INDEXCTL
280
0
  9
$HIDETEXT
280
1
  9
$XCLIPFRAME
280
1
  9
$HALOGAP
280
0
  9
$OBSCOLOR
 70
257
  9
$OBSLTYPE
280
0
  9
$INTERSECTIONDISPLAY
280
0
  9
$INTERSECTIONCOLOR
 70
257
  9
$DIMASSOC
280
2
  9
$PROJECTNAME
  1

  9
$CAMERADISPLAY
290
0
  9
$LENSLENGTH
 40
50.0
  9
$CAMERAHEIGHT
 40
0.0
  9
$STEPSPERSEC
 40
24.0
  9
$STEPSIZE
 40
100.0
  9
$3DDWFPREC
 40
2.0
  9
$PSOLWIDTH
 40
0.005
  9
$PSOLHEIGHT
 40
0.08
  9
$LOFTANG1
 40
1.570796326795
  9
$LOFTANG2
 40
1.570796326795
  9
$LOFTMAG1
 40
0.0
  9
$LOFTMAG2
 40
0.0
  9
$LOFTPARAM
 70
7
  9
$LOFTNORMALS
280
1
  9
$LATITUDE
 40
37.795
  9
$LONGITUDE
 40
-122.394
  9
$NORTHDIRECTION
 40
0.0
  9
$TIMEZONE
 70
-8000
  9
$LIGHTGLYPHDISPLAY
280
1
  9
$TILEMODELIGHTSYNCH
280
1
  9
$CMATERIAL
347
20
  9
$SOLIDHIST
280
0
  9
$SHOWHIST
280
1
  9
$DWFFRAME
280
2
  9
$DGNFRAME
280
2
  9
$REALWORLDSCALE
290
1
  9
$INTERFERECOLOR
 62
256
  9
$CSHADOW
280
0
  9
$SHADOWPLANELOCATION
 40
0.0
  0
ENDSEC
  0
SECTION
  2
CLASSES
  0
CLASS
  1
ACDBDICTIONARYWDFLT
  2
AcDbDictionaryWithDefault
  3
ObjectDBX Classes
 90
0
 91
0
280
0
281
0
  0
CLASS
  1
SUN
  2
AcDbSun
  3
SCENEOE
 90
1153
 91
0
280
0
281
0
  0
CLASS
  1
VISUALSTYLE
  2
AcDbVisualStyle
  3
ObjectDBX Classes
 90
4095
 91
0
280
0
281
0
  0
CLASS
  1
MATERIAL
  2
AcDbMaterial
  3
ObjectDBX Classes
 90
1153
 91
0
280
0
281
0
  0
CLASS
  1
SCALE
  2
AcDbScale
  3
ObjectDBX Classes
 90
1153
 91
0
280
0
281
0
  0
CLASS
  1
TABLESTYLE
  2
AcDbTableStyle
  3
ObjectDBX Classes
 90
4095
 91
0
280
0
281
0
  0
CLASS
  1
MLEADERSTYLE
  2
AcDbMLeaderStyle
  3
ACDB_MLEADERSTYLE_CLASS
 90
4095
 91
0
280
0
281
0
  0
CLASS
  1
DICTIONARYVAR
  2
AcDbDictionaryVar
  3
ObjectDBX Classes
 90
0
 91
0
280
0
281
0
  0
CLASS
  1
CELLSTYLEMAP
  2
AcDbCellStyleMap
  3
ObjectDBX Classes
 90
1152
 91
0
280
0
281
0
  0
CLASS
  1
MENTALRAYRENDERSETTINGS
  2
AcDbMentalRayRenderSettings
  3
SCENEOE
 90
1024
 91
0
280
0
281
0
  0
CLASS
  1
ACDBDETAILVIEWSTYLE
  2
AcDbDetailViewStyle
  3
ObjectDBX Classes
 90
1025
 91
0
280
0
281
0
  0
CLASS
  1
ACDBSECTIONVIEWSTYLE
  2
AcDbSectionViewStyle
  3
ObjectDBX Classes
 90
1025
 91
0
280
0
281
0
  0
CLASS
  1
RASTERVARIABLES
  2
AcDbRasterVariables
  3
ISM
 90
0
 91
0
280
0
281
0
  0
CLASS
  1
ACDBPLACEHOLDER
  2
AcDbPlaceHolder
  3
ObjectDBX Classes
 90
0
 91
0
280
0
281
0
  0
CLASS
  1
LAYOUT
  2
AcDbLayout
  3
ObjectDBX Classes
 90
0
 91
0
280
0
281
0
  0
ENDSEC
  0
SECTION
  2
TABLES
  0
TABLE
  2
VPORT
  5
8
330
0
100
AcDbSymbolTable
 70
1
  0
VPORT
  5
23
330
8
100
AcDbSymbolTableRecord
100
AcDbViewportTableRecord
  2
*Active
 70
0
 10
0.0
 20
0.0
 11
1.0
 21
1.0
 12
0.0
 22
0.0
 13
0.0
 23
0.0
 14
0.5
 24
0.5
 15
0.5
 25
0.5
 16
0.0
 26
0.0
 36
1.0
 17
0.0
 27
0.0
 37
0.0
 40
1000.0
 41
1.34
 42
50.0
 43
0.0
 44
0.0
 50
0.0
 51
0.0
 71
0
 72
1000
 73
1
 74
3
 75
0
 76
0
 77
0
 78
0
281
0
 65
0
146
0.0
  0
ENDTAB
  0
TABLE
  2
LTYPE
  5
2
330
0
100
AcDbSymbolTable
 70
3
  0
LTYPE
  5
24
330
2
100
AcDbSymbolTableRecord
100
AcDbLinetypeTableRecord
  2
ByBlock
 70
0
  3

 72
65
 73
0
 40
0.0
  0
LTYPE
  5
25
330
2
100
AcDbSymbolTableRecord
100
AcDbLinetypeTableRecord
  2
ByLayer
 70
0
  3

 72
65
 73
0
 40
0.0
  0
LTYPE
  5
26
330
2
100
AcDbSymbolTableRecord
100
AcDbLinetypeTableRecord
  2
Continuous
 70
0
  3

 72
65
 73
0
 40
0.0
  0
ENDTAB
  0
TABLE
  2
LAYER
  5
1
330
0
100
AcDbSymbolTable
 70
5
  0
LAYER
  5
27
330
1
100
AcDbSymbolTableRecord
100
AcDbLayerTableRecord
  2
0
 70
0
 62
7
  6
Continuous
370
-3
390
13
347
21
  0
LAYER
  5
28
330
1
100
AcDbSymbolTableRecord
100
AcDbLayerTableRecord
  2
Defpoints
 70
0
 62
7
  6
Continuous
290
0
370
-3
390
13
347
21
  0
LAYER
  5
2F
330
1
100
AcDbSymbolTableRecord
100
AcDbLayerTableRecord
  2
BOUNDARY
 70
0
 62
7
  6
Continuous
370
-3
390
13
347
21
  0
LAYER
  5
30
330
1
100
AcDbSymbolTableRecord
100
AcDbLayerTableRecord
  2
NOTE
 70
0
 62
3
  6
Continuous
370
-3
390
13
347
21
  0
LAYER
  5
31
330
1
100
AcDbSymbolTableRecord
100
AcDbLayerTableRecord
  2
DIM
 70
0
 62
2
  6
Continuous
370
-3
390
13
347
21
  0
ENDTAB
  0
TABLE
  2
STYLE
  5
5
330
0
100
AcDbSymbolTable
 70
1
  0
STYLE
  5
29
330
5
100
AcDbSymbolTableRecord
100
AcDbTextStyleTableRecord
  2
Standard
 70
0
 40
0.0
 41
1.0
 50
0.0
 71
0
 42
2.5
  3
txt
  4

  0
ENDTAB
  0
TABLE
  2
VIEW
  5
7
330
0
100
AcDbSymbolTable
 70
0
  0
ENDTAB
  0
TABLE
  2
UCS
  5
6
330
0
100
AcDbSymbolTable
 70
0
  0
ENDTAB
  0
TABLE
  2
APPID
  5
3
330
0
100
AcDbSymbolTable
 70
3
  0
APPID
  5
2A
330
3
100
AcDbSymbolTableRecord
100
AcDbRegAppTableRecord
  2
ACAD
 70
0
  0
APPID
  5
345
330
3
100
AcDbSymbolTableRecord
100
AcDbRegAppTableRecord
  2
HATCHBACKGROUNDCOLOR
 70
0
  0
APPID
  5
346
330
3
100
AcDbSymbolTableRecord
100
AcDbRegAppTableRecord
  2
EZDXF
 70
0
  0
ENDTAB
  0
TABLE
  2
DIMSTYLE
  5
4
330
0
100
AcDbSymbolTable
 70
1
100
AcDbDimStyleTable
  0
DIMSTYLE
105
2B
330
4
100
AcDbSymbolTableRecord
100
AcDbDimStyleTableRecord
  2
Standard
 70
0
 40
1.0
 41
2.5
 42
0.625
 43
3.75
 44
1.25
 45
0.0
 46
0.0
 47
0.0
 48
0.0
 49
2.5
140
2.5
141
2.5
142
0.0
143
0.03937007874
144
1.0
145
0.0
146
1.0
147
0.625
148
0.0
 69
0
 70
0
 71
0
 72
0
 73
0
 74
0
 75
0
 76
0
 77
1
 78
8
 79
3
170
0
171
3
172
1
173
0
174
0
175
0
176
0
177
0
178
0
179
2
271
2
272
2
273
2
274
3
275
0
276
0
277
2
278
44
279
0
280
0
281
0
282
0
283
0
284
8
285
0
286
0
288
0
289
3
290
0
371
-2
372
-2
  0
ENDTAB
  0
TABLE
  2
BLOCK_RECORD
  5
9
330
0
100
AcDbSymbolTable
 70
2
  0
BLOCK_RECORD
  5
17
330
9
100
AcDbSymbolTableRecord
100
AcDbBlockTableRecord
  2
*Model_Space
340
1A
 70
0
280
1
281
0
  0
BLOCK_RECORD
  5
1B
330
9
100
AcDbSymbolTableRecord
100
AcDbBlockTableRecord
  2
*Paper_Space
340
1E
 70
0
280
1
281
0
  0
ENDTAB
  0
ENDSEC
  0
SECTION
  2
BLOCKS
  0
BLOCK
  5
18
330
17
100
AcDbEntity
  8
0
100
AcDbBlockBegin
  2
*Model_Space
 70
0
 10
0.0
 20
0.0
 30
0.0
  3
*Model_Space
  1

  0
ENDBLK
  5
19
330
17
100
AcDbEntity
  8
0
100
AcDbBlockEnd
  0
BLOCK
  5
1C
330
1B
100
AcDbEntity
  8
0
100
AcDbBlockBegin
  2
*Paper_Space
 70
0
 10
0.0
 20
0.0
 30
0.0
  3
*Paper_Space
  1

  0
ENDBLK
  5
1D
330
1B
100
AcDbEntity
  8
0
100
AcDbBlockEnd
  0
ENDSEC
  0
SECTION
  2
ENTITIES
  0
LINE
  5
32
330
17
100
AcDbEntity
  8
BOUNDARY
100
AcDbLine
 10
-6.2
 20
25.0
 30
0.0
 11
-0.09999999999999964
 21
25.0
 31
0.0
  0
LINE
  5
33
330
17
100
AcDbEntity
  8
BOUNDARY
100
AcDbLine
 10
-6.199999999999866
 20
25.00000000000014
 30
0.0
 11
-6.500000000000004
 21
25.300000000000008
 31
0.0
  0
ARC
  5
34
330
17
100
AcDbEntity
  8
BOUNDARY
100
AcDbCircle
 10
-0.1
 20
24.9
 30
0.0
 40
0.1
100
AcDbArc
 50
359.99999999999386
 51
89.99999999999997
  0
LINE
  5
35
330
17
100
AcDbEntity
  8
BOUNDARY
100
AcDbLine
 10
-6.2
 20
-25.0
 30
0.0
 11
-0.09999999999999964
 21
-25.0
 31
0.0
  0
LINE
  5
36
330
17
100
AcDbEntity
  8
BOUNDARY
100
AcDbLine
 10
-6.199999999999866
 20
-25.00000000000014
 30
0.0
 11
-6.500000000000004
 21
-25.300000000000008
 31
0.0
  0
ARC
  5
37
330
17
100
AcDbEntity
  8
BOUNDARY
100
AcDbCircle
 10
-0.1
 20
-24.9
 30
0.0
 40
0.1
100
AcDbArc
 50
270.0
 51
6.110667527536862e-12
  0
LINE
  5
38
330
17
100
AcDbEntity
  8
BOUNDARY
100
AcDbLine
 10
0.0
 20
-24.8
 30
0.0
 11
0.0
 21
-24.9
 31
0.0
  0
LINE
  5
39
330
17
100
AcDbEntity
  8
BOUNDARY
100
AcDbLine
 10
0.0
 20
24.9
 30
0.0
 11
0.0
 21
24.8
 31
0.0
  0
LINE
  5
3A
330
17
100
AcDbEntity
  8
BOUNDARY
100
AcDbLine
 10
0.0
 20
24.8
 30
0.0
 11
0.5
 21
24.8
 31
0.0
  0
LINE
  5
3B
330
17
100
AcDbEntity
  8
BOUNDARY
100
AcDbLine
 10
0.0
 20
-24.8
 30
0.0
 11
0.5
 21
-24.8
 31
0.0
  0
LINE
  5
3C
330
17
100
AcDbEntity
  8
BOUNDARY
100
AcDbLine
 10
8.0
 20
38.0
 30
0.0
 11
8.0
 21
31.0
 31
0.0
  0
LINE
  5
3D
330
17
100
AcDbEntity
  8
BOUNDARY
100
AcDbLine
 10
0.0
 20
38.0
 30
0.0
 11
8.0
 21
38.0
 31
0.0
  0
LINE
  5
3E
330
17
100
AcDbEntity
  8
BOUNDARY
100
AcDbLine
 10
8.0
 20
31.0
 30
0.0
 11
21.1
 21
31.0
 31
0.0
  0
LINE
  5
3F
330
17
100
AcDbEntity
  8
BOUNDARY
100
AcDbLine
 10
8.0
 20
26.0
 30
0.0
 11
8.0
 21
9.0
 31
0.0
  0
LINE
  5
40
330
17
100
AcDbEntity
  8
BOUNDARY
100
AcDbLine
 10
8.0
 20
26.0
 30
0.0
 11
16.0
 21
26.0
 31
0.0
  0
LINE
  5
41
330
17
100
AcDbEntity
  8
BOUNDARY
100
AcDbLine
 10
0.2999999999999998
 20
9.0
 30
0.0
 11
8.0
 21
9.0
 31
0.0
  0
LINE
  5
42
330
17
100
AcDbEntity
  8
BOUNDARY
100
AcDbLine
 10
8.0
 20
-9.0
 30
0.0
 11
8.0
 21
-38.00000000000001
 31
0.0
  0
LINE
  5
43
330
17
100
AcDbEntity
  8
BOUNDARY
100
AcDbLine
 10
0.2999999999999998
 20
-9.0
 30
0.0
 11
8.0
 21
-9.0
 31
0.0
  0
LINE
  5
44
330
17
100
AcDbEntity
  8
BOUNDARY
100
AcDbLine
 10
0.0
 20
-38.0
 30
0.0
 11
8.0
 21
-38.0
 31
0.0
  0
LINE
  5
45
330
17
100
AcDbEntity
  8
BOUNDARY
100
AcDbLine
 10
0.3
 20
19.2
 30
0.0
 11
0.3
 21
9.0
 31
0.0
  0
LINE
  5
46
330
17
100
AcDbEntity
  8
BOUNDARY
100
AcDbLine
 10
0.3
 20
-9.0
 30
0.0
 11
0.3
 21
-19.2
 31
0.0
  0
LINE
  5
47
330
17
100
AcDbEntity
  8
BOUNDARY
100
AcDbLine
 10
0.3
 20
19.2
 30
0.0
 11
0.5
 21
19.2
 31
0.0
  0
LINE
  5
48
330
17
100
AcDbEntity
  8
BOUNDARY
100
AcDbLine
 10
0.3
 20
-19.2
 30
0.0
 11
0.5
 21
-19.2
 31
0.0
  0
LINE
  5
49
330
17
100
AcDbEntity
  8
BOUNDARY
100
AcDbLine
 10
21.3
 20
30.8
 30
0.0
 11
21.10000000000009
 21
31.00000000000009
 31
0.0
  0
LINE
  5
4A
330
17
100
AcDbEntity
  8
BOUNDARY
100
AcDbLine
 10
24.9
 20
31.0
 30
0.0
 11
25.7
 21
31.0
 31
0.0
  0
LINE
  5
4B
330
17
100
AcDbEntity
  8
BOUNDARY
100
AcDbLine
 10
24.7
 20
30.8
 30
0.0
 11
24.89999999999991
 21
31.00000000000009
 31
0.0
  0
LINE
  5
4C
330
17
100
AcDbEntity
  8
BOUNDARY
100
AcDbLine
 10
25.7
 20
25.0
 30
0.0
 11
25.7
 21
31.0
 31
0.0
  0
LINE
  5
4D
330
17
100
AcDbEntity
  8
BOUNDARY
100
AcDbLine
 10
84.3
 20
31.0
 30
0.0
 11
85.1
 21
31.0
 31
0.0
  0
LINE
  5
4E
330
17
100
AcDbEntity
  8
BOUNDARY
100
AcDbLine
 10
84.3
 20
25.0
 30
0.0
 11
84.3
 21
31.0
 31
0.0
  0
LINE
  5
4F
330
17
100
AcDbEntity
  8
BOUNDARY
100
AcDbLine
 10
85.3
 20
30.800000000000004
 30
0.0
 11
85.1000000000001
 21
31.00000000000009
 31
0.0
  0
LINE
  5
50
330
17
100
AcDbEntity
  8
BOUNDARY
100
AcDbLine
 10
88.9
 20
31.0
 30
0.0
 11
94.0
 21
31.0
 31
0.0
  0
LINE
  5
51
330
17
100
AcDbEntity
  8
BOUNDARY
100
AcDbLine
 10
88.7
 20
30.800000000000004
 30
0.0
 11
88.8999999999999
 21
31.00000000000009
 31
0.0
  0
LINE
  5
52
330
17
100
AcDbEntity
  8
BOUNDARY
100
AcDbLine
 10
94.0
 20
25.0
 30
0.0
 11
94.0
 21
31.0
 31
0.0
  0
LINE
  5
53
330
17
100
AcDbEntity
  8
BOUNDARY
100
AcDbLine
 10
16.0
 20
25.0
 30
0.0
 11
21.3
 21
25.0
 31
0.0
  0
LINE
  5
54
330
17
100
AcDbEntity
  8
BOUNDARY
100
AcDbLine
 10
16.0
 20
25.0
 30
0.0
 11
16.0
 21
26.0
 31
0.0
  0
LINE
  5
55
330
17
100
AcDbEntity
  8
BOUNDARY
100
AcDbLine
 10
21.3
 20
25.0
 30
0.0
 11
21.3
 21
30.8
 31
0.0
  0
LINE
  5
56
330
17
100
AcDbEntity
  8
BOUNDARY
100
AcDbLine
 10
24.7
 20
25.0
 30
0.0
 11
25.7
 21
25.0
 31
0.0
  0
LINE
  5
57
330
17
100
AcDbEntity
  8
BOUNDARY
100
AcDbLine
 10
24.7
 20
25.0
 30
0.0
 11
24.7
 21
30.8
 31
0.0
  0
LINE
  5
58
330
17
100
AcDbEntity
  8
BOUNDARY
100
AcDbLine
 10
84.3
 20
25.0
 30
0.0
 11
85.3
 21
25.0
 31
0.0
  0
LINE
  5
59
330
17
100
AcDbEntity
  8
BOUNDARY
100
AcDbLine
 10
85.3
 20
25.0
 30
0.0
 11
85.3
 21
30.8
 31
0.0
  0
LINE
  5
5A
330
17
100
AcDbEntity
  8
BOUNDARY
100
AcDbLine
 10
88.7
 20
25.0
 30
0.0
 11
94.0
 21
25.0
 31
0.0
  0
LINE
  5
5B
330
17
100
AcDbEntity
  8
BOUNDARY
100
AcDbLine
 10
88.7
 20
25.0
 30
0.0
 11
88.7
 21
30.8
 31
0.0
  0
LINE
  5
5C
330
17
100
AcDbEntity
  8
BOUNDARY
100
AcDbLine
 10
0.0
 20
38.0
 30
0.0
 11
0.0
 21
28.000000000000004
 31
0.0
  0
LINE
  5
5D
330
17
100
AcDbEntity
  8
BOUNDARY
100
AcDbLine
 10
0.0
 20
-28.000000000000004
 30
0.0
 11
0.0
 21
-38.00000000000001
 31
0.0
  0
LINE
  5
5E
330
17
100
AcDbEntity
  8
BOUNDARY
100
AcDbLine
 10
-6.5
 20
28.0
 30
0.0
 11
0.0
 21
28.0
 31
0.0
  0
LINE
  5
5F
330
17
100
AcDbEntity
  8
BOUNDARY
100
AcDbLine
 10
-6.5
 20
-28.0
 30
0.0
 11
0.0
 21
-28.0
 31
0.0
  0
LINE
  5
60
330
17
100
AcDbEntity
  8
BOUNDARY
100
AcDbLine
 10
-6.5
 20
28.000000000000004
 30
0.0
 11
-6.5
 21
25.300000000000004
 31
0.0
  0
LINE
  5
61
330
17
100
AcDbEntity
  8
BOUNDARY
100
AcDbLine
 10
-6.5
 20
-25.3
 30
0.0
 11
-6.5
 21
-28.000000000000004
 31
0.0
  0
LINE
  5
62
330
17
100
AcDbEntity
  8
BOUNDARY
100
AcDbLine
 10
0.5
 20
-19.2
 30
0.0
 11
0.5
 21
-24.8
 31
0.0
  0
LINE
  5
63
330
17
100
AcDbEntity
  8
BOUNDARY
100
AcDbLine
 10
0.5
 20
24.8
 30
0.0
 11
0.5
 21
19.2
 31
0.0
  0
TEXT
  5
64
330
17
100
AcDbEntity
  8
NOTE
100
AcDbText
 10
-40.0
 20
105.0
 30
0.0
 40
2.5
  1
SIDE X0: Y horizontal Z vertical
100
AcDbText
  0
LINE
  5
65
330
17
100
AcDbEntity
  8
BOUNDARY
100
AcDbLine
 10
153.8
 20
22.688102609076854
 30
0.0
 11
159.9
 21
22.688102609076854
 31
0.0
  0
LINE
  5
66
330
17
100
AcDbEntity
  8
BOUNDARY
100
AcDbLine
 10
153.5
 20
23.018253626198497
 30
0.0
 11
153.8000000000001
 21
22.688102609077053
 31
0.0
  0
LINE
  5
67
330
17
100
AcDbEntity
  8
BOUNDARY
100
AcDbLine
 10
159.9
 20
22.688102609076868
 30
0.0
 11
159.9004137355299
 21
22.688101665973402
 31
0.0
  0
LINE
  5
68
330
17
100
AcDbEntity
  8
BOUNDARY
100
AcDbLine
 10
159.9004137355299
 20
22.688101665973402
 30
0.0
 11
159.90088496405676
 21
22.688098294168167
 31
0.0
  0
LINE
  5
69
330
17
100
AcDbEntity
  8
BOUNDARY
100
AcDbLine
 10
159.90088496405676
 20
22.688098294168167
 30
0.0
 11
159.90135617293157
 21
22.688092475518648
 31
0.0
  0
LINE
  5
6A
330
17
100
AcDbEntity
  8
BOUNDARY
100
AcDbLine
 10
159.90135617293157
 20
22.688092475518648
 30
0.0
 11
159.90182735169043
 21
22.688084210153736
 31
0.0
  0
LINE
  5
6B
330
17
100
AcDbEntity
  8
BOUNDARY
100
AcDbLine
 10
159.90182735169043
 20
22.688084210153736
 30
0.0
 11
159.90229848987008
 21
22.688073498256514
 31
0.0
  0
LINE
  5
6C
330
17
100
AcDbEntity
  8
BOUNDARY
100
AcDbLine
 10
159.90229848987008
 20
22.688073498256514
 30
0.0
 11
159.90276957700814
 21
22.688060340064236
 31
0.0
  0
LINE
  5
6D
330
17
100
AcDbEntity
  8
BOUNDARY
100
AcDbLine
 10
159.90276957700814
 20
22.688060340064236
 30
0.0
 11
159.9032406026434
 21
22.688044735868342
 31
0.0
  0
LINE
  5
6E
330
17
100
AcDbEntity
  8
BOUNDARY
100
AcDbLine
 10
159.9032406026434
 20
22.688044735868342
 30
0.0
 11
159.90371155631598
 21
22.688026686014467
 31
0.0
  0
LINE
  5
6F
330
17
100
AcDbEntity
  8
BOUNDARY
100
AcDbLine
 10
159.90371155631598
 20
22.688026686014467
 30
0.0
 11
159.90418242756763
 21
22.688006190902417
 31
0.0
  0
LINE
  5
70
330
17
100
AcDbEntity
  8
BOUNDARY
100
AcDbLine
 10
159.90418242756763
 20
22.688006190902417
 30
0.0
 11
159.9046532059419
 21
22.687983250986132
 31
0.0
  0
LINE
  5
71
330
17
100
AcDbEntity
  8
BOUNDARY
100
AcDbLine
 10
159.9046532059419
 20
22.687983250986132
 30
0.0
 11
159.90512388098443
 21
22.687957866773733
 31
0.0
  0
LINE
  5
72
330
17
100
AcDbEntity
  8
BOUNDARY
100
AcDbLine
 10
159.90512388098443
 20
22.687957866773733
 30
0.0
 11
159.90559444224314
 21
22.687930038827457
 31
0.0
  0
LINE
  5
73
330
17
100
AcDbEntity
  8
BOUNDARY
100
AcDbLine
 10
159.90559444224314
 20
22.687930038827457
 30
0.0
 11
159.90606487926848
 21
22.687899767763696
 31
0.0
  0
LINE
  5
74
330
17
100
AcDbEntity
  8
BOUNDARY
100
AcDbLine
 10
159.90606487926848
 20
22.687899767763696
 30
0.0
 11
159.90653518161366
 21
22.68786705425293
 31
0.0
  0
LINE
  5
75
330
17
100
AcDbEntity
  8
BOUNDARY
100
AcDbLine
 10
159.90653518161366
 20
22.68786705425293
 30
0.0
 11
159.9070053388349
 21
22.687831899019756
 31
0.0
  0
LINE
  5
76
330
17
100
AcDbEntity
  8
BOUNDARY
100
AcDbLine
 10
159.9070053388349
 20
22.687831899019756
 30
0.0
 11
159.90747534049154
 21
22.687794302842843
 31
0.0
  0
LINE
  5
77
330
17
100
AcDbEntity
  8
BOUNDARY
100
AcDbLine
 10
159.90747534049154
 20
22.687794302842843
 30
0.0
 11
159.90794517614654
 21
22.68775426655494
 31
0.0
  0
LINE
  5
78
330
17
100
AcDbEntity
  8
BOUNDARY
100
AcDbLine
 10
159.90794517614654
 20
22.68775426655494
 30
0.0
 11
159.90841483536644
 21
22.687711791042837
 31
0.0
  0
LINE
  5
79
330
17
100
AcDbEntity
  8
BOUNDARY
100
AcDbLine
 10
159.90841483536644
 20
22.687711791042837
 30
0.0
 11
159.9088843077217
 21
22.68766687724735
 31
0.0
  0
LINE
  5
7A
330
17
100
AcDbEntity
  8
BOUNDARY
100
AcDbLine
 10
159.9088843077217
 20
22.68766687724735
 30
0.0
 11
159.90935358278696
 21
22.687619526163303
 31
0.0
  0
LINE
  5
7B
330
17
100
AcDbEntity
  8
BOUNDARY
100
AcDbLine
 10
159.90935358278696
 20
22.687619526163303
 30
0.0
 11
159.90982265014125
 21
22.687569738839517
 31
0.0
  0
LINE
  5
7C
330
17
100
AcDbEntity
  8
BOUNDARY
100
AcDbLine
 10
159.90982265014125
 20
22.687569738839517
 30
0.0
 11
159.91029149936816
 21
22.68751751637877
 31
0.0
  0
LINE
  5
7D
330
17
100
AcDbEntity
  8
BOUNDARY
100
AcDbLine
 10
159.91029149936816
 20
22.68751751637877
 30
0.0
 11
159.91076012005618
 21
22.68746285993777
 31
0.0
  0
LINE
  5
7E
330
17
100
AcDbEntity
  8
BOUNDARY
100
AcDbLine
 10
159.91076012005618
 20
22.68746285993777
 30
0.0
 11
159.91122850179886
 21
22.687405770727153
 31
0.0
  0
LINE
  5
7F
330
17
100
AcDbEntity
  8
BOUNDARY
100
AcDbLine
 10
159.91122850179886
 20
22.687405770727153
 30
0.0
 11
159.91169663419504
 21
22.68734625001143
 31
0.0
  0
LINE
  5
80
330
17
100
AcDbEntity
  8
BOUNDARY
100
AcDbLine
 10
159.91169663419504
 20
22.68734625001143
 30
0.0
 11
159.91216450684908
 21
22.68728429910898
 31
0.0
  0
LINE
  5
81
330
17
100
AcDbEntity
  8
BOUNDARY
100
AcDbLine
 10
159.91216450684908
 20
22.68728429910898
 30
0.0
 11
159.91263210937117
 21
22.68721991939201
 31
0.0
  0
LINE
  5
82
330
17
100
AcDbEntity
  8
BOUNDARY
100
AcDbLine
 10
159.91263210937117
 20
22.68721991939201
 30
0.0
 11
159.91309943137745
 21
22.68715311228652
 31
0.0
  0
LINE
  5
83
330
17
100
AcDbEntity
  8
BOUNDARY
100
AcDbLine
 10
159.91309943137745
 20
22.68715311228652
 30
0.0
 11
159.91356646249028
 21
22.687083879272294
 31
0.0
  0
LINE
  5
84
330
17
100
AcDbEntity
  8
BOUNDARY
100
AcDbLine
 10
159.91356646249028
 20
22.687083879272294
 30
0.0
 11
159.91403319233854
 21
22.68701222188284
 31
0.0
  0
LINE
  5
85
330
17
100
AcDbEntity
  8
BOUNDARY
100
AcDbLine
 10
159.91403319233854
 20
22.68701222188284
 30
0.0
 11
159.91449961055775
 21
22.68693814170536
 31
0.0
  0
LINE
  5
86
330
17
100
AcDbEntity
  8
BOUNDARY
100
AcDbLine
 10
159.91449961055775
 20
22.68693814170536
 30
0.0
 11
159.91496570679035
 21
22.686861640380755
 31
0.0
  0
LINE
  5
87
330
17
100
AcDbEntity
  8
BOUNDARY
100
AcDbLine
 10
159.91496570679035
 20
22.686861640380755
 30
0.0
 11
159.91543147068595
 21
22.686782719603528
 31
0.0
  0
LINE
  5
88
330
17
100
AcDbEntity
  8
BOUNDARY
100
AcDbLine
 10
159.91543147068595
 20
22.686782719603528
 30
0.0
 11
159.91589689190153
 21
22.686701381121782
 31
0.0
  0
LINE
  5
89
330
17
100
AcDbEntity
  8
BOUNDARY
100
AcDbLine
 10
159.91589689190153
 20
22.686701381121782
 30
0.0
 11
159.91636196010165
 21
22.686617626737167
 31
0.0
  0
LINE
  5
8A
330
17
100
AcDbEntity
  8
BOUNDARY
100
AcDbLine
 10
159.91636196010165
 20
22.686617626737167
 30
0.0
 11
159.9168266649588
 21
22.68653145830489
 31
0.0
  0
LINE
  5
8B
330
17
100
AcDbEntity
  8
BOUNDARY
100
AcDbLine
 10
159.9168266649588
 20
22.68653145830489
 30
0.0
 11
159.91729099615344
 21
22.686442877733594
 31
0.0
  0
LINE
  5
8C
330
17
100
AcDbEntity
  8
BOUNDARY
100
AcDbLine
 10
159.91729099615344
 20
22.686442877733594
 30
0.0
 11
159.9177549433744
 21
22.68635188698535
 31
0.0
  0
LINE
  5
8D
330
17
100
AcDbEntity
  8
BOUNDARY
100
AcDbLine
 10
159.9177549433744
 20
22.68635188698535
 30
0.0
 11
159.91821849631896
 21
22.686258488075655
 31
0.0
  0
LINE
  5
8E
330
17
100
AcDbEntity
  8
BOUNDARY
100
AcDbLine
 10
159.91821849631896
 20
22.686258488075655
 30
0.0
 11
159.91868164469324
 21
22.68616268307333
 31
0.0
  0
LINE
  5
8F
330
17
100
AcDbEntity
  8
BOUNDARY
100
AcDbLine
 10
159.91868164469324
 20
22.68616268307333
 30
0.0
 11
159.91914437821228
 21
22.686064474100494
 31
0.0
  0
LINE
  5
90
330
17
100
AcDbEntity
  8
BOUNDARY
100
AcDbLine
 10
159.91914437821228
 20
22.686064474100494
 30
0.0
 11
159.91960668660036
 21
22.685963863332518
 31
0.0
  0
LINE
  5
91
330
17
100
AcDbEntity
  8
BOUNDARY
100
AcDbLine
 10
159.91960668660036
 20
22.685963863332518
 30
0.0
 11
159.9200685595912
 21
22.685860852998008
 31
0.0
  0
LINE
  5
92
330
17
100
AcDbEntity
  8
BOUNDARY
100
AcDbLine
 10
159.9200685595912
 20
22.685860852998008
 30
0.0
 11
159.9205299869282
 21
22.685755445378682
 31
0.0
  0
LINE
  5
93
330
17
100
AcDbEntity
  8
BOUNDARY
100
AcDbLine
 10
159.9205299869282
 20
22.685755445378682
 30
0.0
 11
159.9209909583646
 21
22.685647642809393
 31
0.0
  0
LINE
  5
94
330
17
100
AcDbEntity
  8
BOUNDARY
100
AcDbLine
 10
159.9209909583646
 20
22.685647642809393
 30
0.0
 11
159.92145146366383
 21
22.685537447678062
 31
0.0
  0
LINE
  5
95
330
17
100
AcDbEntity
  8
BOUNDARY
100
AcDbLine
 10
159.92145146366383
 20
22.685537447678062
 30
0.0
 11
159.9219114925997
 21
22.68542486242557
 31
0.0
  0
LINE
  5
96
330
17
100
AcDbEntity
  8
BOUNDARY
100
AcDbLine
 10
159.9219114925997
 20
22.68542486242557
 30
0.0
 11
159.92237103495646
 21
22.685309889545792
 31
0.0
  0
LINE
  5
97
330
17
100
AcDbEntity
  8
BOUNDARY
100
AcDbLine
 10
159.92237103495646
 20
22.685309889545792
 30
0.0
 11
159.92283008052928
 21
22.685192531585475
 31
0.0
  0
LINE
  5
98
330
17
100
AcDbEntity
  8
BOUNDARY
100
AcDbLine
 10
159.92283008052928
 20
22.685192531585475
 30
0.0
 11
159.92328861912435
 21
22.685072791144204
 31
0.0
  0
LINE
  5
99
330
17
100
AcDbEntity
  8
BOUNDARY
100
AcDbLine
 10
159.92328861912435
 20
22.685072791144204
 30
0.0
 11
159.9237466405591
 21
22.68495067087434
 31
0.0
  0
LINE
  5
9A
330
17
100
AcDbEntity
  8
BOUNDARY
100
AcDbLine
 10
159.9237466405591
 20
22.68495067087434
 30
0.0
 11
159.92420413466243
 21
22.684826173480996
 31
0.0
  0
LINE
  5
9B
330
17
100
AcDbEntity
  8
BOUNDARY
100
AcDbLine
 10
159.92420413466243
 20
22.684826173480996
 30
0.0
 11
159.924661091275
 21
22.68469930172191
 31
0.0
  0
LINE
  5
9C
330
17
100
AcDbEntity
  8
BOUNDARY
100
AcDbLine
 10
159.924661091275
 20
22.68469930172191
 30
0.0
 11
159.9251175002493
 21
22.684570058407463
 31
0.0
  0
LINE
  5
9D
330
17
100
AcDbEntity
  8
BOUNDARY
100
AcDbLine
 10
159.9251175002493
 20
22.684570058407463
 30
0.0
 11
159.92557335145014
 21
22.684438446400534
 31
0.0
  0
LINE
  5
9E
330
17
100
AcDbEntity
  8
BOUNDARY
100
AcDbLine
 10
159.92557335145014
 20
22.684438446400534
 30
0.0
 11
159.92602863475457
 21
22.684304468616517
 31
0.0
  0
LINE
  5
9F
330
17
100
AcDbEntity
  8
BOUNDARY
100
AcDbLine
 10
159.92602863475457
 20
22.684304468616517
 30
0.0
 11
159.92648334005233
 21
22.684168128023195
 31
0.0
  0
LINE
  5
A0
330
17
100
AcDbEntity
  8
BOUNDARY
100
AcDbLine
 10
159.92648334005233
 20
22.684168128023195
 30
0.0
 11
159.92693745724597
 21
22.684029427640727
 31
0.0
  0
LINE
  5
A1
330
17
100
AcDbEntity
  8
BOUNDARY
100
AcDbLine
 10
159.92693745724597
 20
22.684029427640727
 30
0.0
 11
159.9273909762511
 21
22.68388837054152
 31
0.0
  0
LINE
  5
A2
330
17
100
AcDbEntity
  8
BOUNDARY
100
AcDbLine
 10
159.9273909762511
 20
22.68388837054152
 30
0.0
 11
159.92784388699664
 21
22.683744959850216
 31
0.0
  0
LINE
  5
A3
330
17
100
AcDbEntity
  8
BOUNDARY
100
AcDbLine
 10
159.92784388699664
 20
22.683744959850216
 30
0.0
 11
159.928296179425
 21
22.683599198743597
 31
0.0
  0
LINE
  5
A4
330
17
100
AcDbEntity
  8
BOUNDARY
100
AcDbLine
 10
159.928296179425
 20
22.683599198743597
 30
0.0
 11
159.92874784349226
 21
22.683451090450546
 31
0.0
  0
LINE
  5
A5
330
17
100
AcDbEntity
  8
BOUNDARY
100
AcDbLine
 10
159.92874784349226
 20
22.683451090450546
 30
0.0
 11
159.92919886916857
 21
22.68330063825191
 31
0.0
  0
LINE
  5
A6
330
17
100
AcDbEntity
  8
BOUNDARY
100
AcDbLine
 10
159.92919886916857
 20
22.68330063825191
 30
0.0
 11
159.9296492464382
 21
22.683147845480494
 31
0.0
  0
LINE
  5
A7
330
17
100
AcDbEntity
  8
BOUNDARY
100
AcDbLine
 10
159.9296492464382
 20
22.683147845480494
 30
0.0
 11
159.93009896529978
 21
22.682992715520957
 31
0.0
  0
LINE
  5
A8
330
17
100
AcDbEntity
  8
BOUNDARY
100
AcDbLine
 10
159.93009896529978
 20
22.682992715520957
 30
0.0
 11
159.9305480157666
 21
22.682835251809752
 31
0.0
  0
LINE
  5
A9
330
17
100
AcDbEntity
  8
BOUNDARY
100
AcDbLine
 10
159.9305480157666
 20
22.682835251809752
 30
0.0
 11
159.9309963878668
 21
22.682675457835018
 31
0.0
  0
LINE
  5
AA
330
17
100
AcDbEntity
  8
BOUNDARY
100
AcDbLine
 10
159.9309963878668
 20
22.682675457835018
 30
0.0
 11
159.9314440716436
 21
22.682513337136562
 31
0.0
  0
LINE
  5
AB
330
17
100
AcDbEntity
  8
BOUNDARY
100
AcDbLine
 10
159.9314440716436
 20
22.682513337136562
 30
0.0
 11
159.93189105715544
 21
22.682348893305715
 31
0.0
  0
LINE
  5
AC
330
17
100
AcDbEntity
  8
BOUNDARY
100
AcDbLine
 10
159.93189105715544
 20
22.682348893305715
 30
0.0
 11
159.93233733447633
 21
22.682182129985303
 31
0.0
  0
LINE
  5
AD
330
17
100
AcDbEntity
  8
BOUNDARY
100
AcDbLine
 10
159.93233733447633
 20
22.682182129985303
 30
0.0
 11
159.93278289369596
 21
22.682013050869543
 31
0.0
  0
LINE
  5
AE
330
17
100
AcDbEntity
  8
BOUNDARY
100
AcDbLine
 10
159.93278289369596
 20
22.682013050869543
 30
0.0
 11
159.93322772492002
 21
22.681841659703963
 31
0.0
  0
LINE
  5
AF
330
17
100
AcDbEntity
  8
BOUNDARY
100
AcDbLine
 10
159.93322772492002
 20
22.681841659703963
 30
0.0
 11
159.9336718182703
 21
22.681667960285328
 31
0.0
  0
LINE
  5
B0
330
17
100
AcDbEntity
  8
BOUNDARY
100
AcDbLine
 10
159.9336718182703
 20
22.681667960285328
 30
0.0
 11
159.93411516388502
 21
22.681491956461553
 31
0.0
  0
LINE
  5
B1
330
17
100
AcDbEntity
  8
BOUNDARY
100
AcDbLine
 10
159.93411516388502
 20
22.681491956461553
 30
0.0
 11
159.93455775191904
 21
22.68131365213161
 31
0.0
  0
LINE
  5
B2
330
17
100
AcDbEntity
  8
BOUNDARY
100
AcDbLine
 10
159.93455775191904
 20
22.68131365213161
 30
0.0
 11
159.93499957254394
 21
22.681133051245446
 31
0.0
  0
LINE
  5
B3
330
17
100
AcDbEntity
  8
BOUNDARY
100
AcDbLine
 10
159.93499957254394
 20
22.681133051245446
 30
0.0
 11
159.9354406159484
 21
22.68095015780393
 31
0.0
  0
LINE
  5
B4
330
17
100
AcDbEntity
  8
BOUNDARY
100
AcDbLine
 10
159.9354406159484
 20
22.68095015780393
 30
0.0
 11
159.9358808723384
 21
22.6807649758587
 31
0.0
  0
LINE
  5
B5
330
17
100
AcDbEntity
  8
BOUNDARY
100
AcDbLine
 10
159.9358808723384
 20
22.6807649758587
 30
0.0
 11
159.93632033193734
 21
22.680577509512126
 31
0.0
  0
LINE
  5
B6
330
17
100
AcDbEntity
  8
BOUNDARY
100
AcDbLine
 10
159.93632033193734
 20
22.680577509512126
 30
0.0
 11
159.93675898498634
 21
22.6803877629172
 31
0.0
  0
LINE
  5
B7
330
17
100
AcDbEntity
  8
BOUNDARY
100
AcDbLine
 10
159.93675898498634
 20
22.6803877629172
 30
0.0
 11
159.93719682174438
 21
22.680195740277437
 31
0.0
  0
LINE
  5
B8
330
17
100
AcDbEntity
  8
BOUNDARY
100
AcDbLine
 10
159.93719682174438
 20
22.680195740277437
 30
0.0
 11
159.93763383248864
 21
22.680001445846806
 31
0.0
  0
LINE
  5
B9
330
17
100
AcDbEntity
  8
BOUNDARY
100
AcDbLine
 10
159.93763383248864
 20
22.680001445846806
 30
0.0
 11
159.93807000751463
 21
22.679804883929624
 31
0.0
  0
LINE
  5
BA
330
17
100
AcDbEntity
  8
BOUNDARY
100
AcDbLine
 10
159.93807000751463
 20
22.679804883929624
 30
0.0
 11
159.93850533713635
 21
22.679606058880445
 31
0.0
  0
LINE
  5
BB
330
17
100
AcDbEntity
  8
BOUNDARY
100
AcDbLine
 10
159.93850533713635
 20
22.679606058880445
 30
0.0
 11
159.93893981168668
 21
22.67940497510399
 31
0.0
  0
LINE
  5
BC
330
17
100
AcDbEntity
  8
BOUNDARY
100
AcDbLine
 10
159.93893981168668
 20
22.67940497510399
 30
0.0
 11
159.93937342151736
 21
22.679201637055044
 31
0.0
  0
LINE
  5
BD
330
17
100
AcDbEntity
  8
BOUNDARY
100
AcDbLine
 10
159.93937342151736
 20
22.679201637055044
 30
0.0
 11
159.93980615699948
 21
22.678996049238346
 31
0.0
  0
LINE
  5
BE
330
17
100
AcDbEntity
  8
BOUNDARY
100
AcDbLine
 10
159.93980615699948
 20
22.678996049238346
 30
0.0
 11
159.9402380085234
 21
22.678788216208503
 31
0.0
  0
LINE
  5
BF
330
17
100
AcDbEntity
  8
BOUNDARY
100
AcDbLine
 10
159.9402380085234
 20
22.678788216208503
 30
0.0
 11
159.94066896649926
 21
22.678578142569872
 31
0.0
  0
LINE
  5
C0
330
17
100
AcDbEntity
  8
BOUNDARY
100
AcDbLine
 10
159.94066896649926
 20
22.678578142569872
 30
0.0
 11
159.94109902135688
 21
22.678365832976493
 31
0.0
  0
LINE
  5
C1
330
17
100
AcDbEntity
  8
BOUNDARY
100
AcDbLine
 10
159.94109902135688
 20
22.678365832976493
 30
0.0
 11
159.94152816354625
 21
22.678151292131947
 31
0.0
  0
LINE
  5
C2
330
17
100
AcDbEntity
  8
BOUNDARY
100
AcDbLine
 10
159.94152816354625
 20
22.678151292131947
 30
0.0
 11
159.94195638353762
 21
22.67793452478927
 31
0.0
  0
LINE
  5
C3
330
17
100
AcDbEntity
  8
BOUNDARY
100
AcDbLine
 10
159.94195638353762
 20
22.67793452478927
 30
0.0
 11
159.94238367182166
 21
22.67771553575086
 31
0.0
  0
LINE
  5
C4
330
17
100
AcDbEntity
  8
BOUNDARY
100
AcDbLine
 10
159.94238367182166
 20
22.67771553575086
 30
0.0
 11
159.94281001890977
 21
22.67749432986835
 31
0.0
  0
LINE
  5
C5
330
17
100
AcDbEntity
  8
BOUNDARY
100
AcDbLine
 10
159.94281001890977
 20
22.67749432986835
 30
0.0
 11
159.94323541533424
 21
22.677270912042523
 31
0.0
  0
LINE
  5
C6
330
17
100
AcDbEntity
  8
BOUNDARY
100
AcDbLine
 10
159.94323541533424
 20
22.677270912042523
 30
0.0
 11
159.94365985164848
 21
22.67704528722317
 31
0.0
  0
LINE
  5
C7
330
17
100
AcDbEntity
  8
BOUNDARY
100
AcDbLine
 10
159.94365985164848
 20
22.67704528722317
 30
0.0
 11
159.94408331842723
 21
22.676817460409026
 31
0.0
  0
LINE
  5
C8
330
17
100
AcDbEntity
  8
BOUNDARY
100
AcDbLine
 10
159.94408331842723
 20
22.676817460409026
 30
0.0
 11
159.94450580626673
 21
22.676587436647637
 31
0.0
  0
LINE
  5
C9
330
17
100
AcDbEntity
  8
BOUNDARY
100
AcDbLine
 10
159.94450580626673
 20
22.676587436647637
 30
0.0
 11
159.944927305785
 21
22.676355221035237
 31
0.0
  0
LINE
  5
CA
330
17
100
AcDbEntity
  8
BOUNDARY
100
AcDbLine
 10
159.944927305785
 20
22.676355221035237
 30
0.0
 11
159.94534780762194
 21
22.676120818716647
 31
0.0
  0
LINE
  5
CB
330
17
100
AcDbEntity
  8
BOUNDARY
100
AcDbLine
 10
159.94534780762194
 20
22.676120818716647
 30
0.0
 11
159.94576730243966
 21
22.67588423488517
 31
0.0
  0
LINE
  5
CC
330
17
100
AcDbEntity
  8
BOUNDARY
100
AcDbLine
 10
159.94576730243966
 20
22.67588423488517
 30
0.0
 11
159.94618578092266
 21
22.675645474782474
 31
0.0
  0
LINE
  5
CD
330
17
100
AcDbEntity
  8
BOUNDARY
100
AcDbLine
 10
159.94618578092266
 20
22.675645474782474
 30
0.0
 11
159.94660323377792
 21
22.67540454369847
 31
0.0
  0
LINE
  5
CE
330
17
100
AcDbEntity
  8
BOUNDARY
100
AcDbLine
 10
159.94660323377792
 20
22.67540454369847
 30
0.0
 11
159.94701965173527
 21
22.67516144697119
 31
0.0
  0
LINE
  5
CF
330
17
100
AcDbEntity
  8
BOUNDARY
100
AcDbLine
 10
159.94701965173527
 20
22.67516144697119
 30
0.0
 11
159.94743502554746
 21
22.674916189986693
 31
0.0
  0
LINE
  5
D0
330
17
100
AcDbEntity
  8
BOUNDARY
100
AcDbLine
 10
159.94743502554746
 20
22.674916189986693
 30
0.0
 11
159.94784934599053
 21
22.674668778178912
 31
0.0
  0
LINE
  5
D1
330
17
100
AcDbEntity
  8
BOUNDARY
100
AcDbLine
 10
159.94784934599053
 20
22.674668778178912
 30
0.0
 11
159.94826260386378
 21
22.674419217029556
 31
0.0
  0
LINE
  5
D2
330
17
100
AcDbEntity
  8
BOUNDARY
100
AcDbLine
 10
159.94826260386378
 20
22.674419217029556
 30
0.0
 11
159.9486747899902
 21
22.67416751206801
 31
0.0
  0
LINE
  5
D3
330
17
100
AcDbEntity
  8
BOUNDARY
100
AcDbLine
 10
159.9486747899902
 20
22.67416751206801
 30
0.0
 11
159.94908589521654
 21
22.67391366887117
 31
0.0
  0
LINE
  5
D4
330
17
100
AcDbEntity
  8
BOUNDARY
100
AcDbLine
 10
159.94908589521654
 20
22.67391366887117
 30
0.0
 11
159.9494959104136
 21
22.67365769306333
 31
0.0
  0
LINE
  5
D5
330
17
100
AcDbEntity
  8
BOUNDARY
100
AcDbLine
 10
159.9494959104136
 20
22.67365769306333
 30
0.0
 11
159.94990482647628
 21
22.673399590316098
 31
0.0
  0
LINE
  5
D6
330
17
100
AcDbEntity
  8
BOUNDARY
100
AcDbLine
 10
159.94990482647628
 20
22.673399590316098
 30
0.0
 11
159.95031263432404
 21
22.673139366348227
 31
0.0
  0
LINE
  5
D7
330
17
100
AcDbEntity
  8
BOUNDARY
100
AcDbLine
 10
159.95031263432404
 20
22.673139366348227
 30
0.0
 11
159.95071932490077
 21
22.67287702692549
 31
0.0
  0
LINE
  5
D8
330
17
100
AcDbEntity
  8
BOUNDARY
100
AcDbLine
 10
159.95071932490077
 20
22.67287702692549
 30
0.0
 11
159.95112488917536
 21
22.6726125778606
 31
0.0
  0
LINE
  5
D9
330
17
100
AcDbEntity
  8
BOUNDARY
100
AcDbLine
 10
159.95112488917536
 20
22.6726125778606
 30
0.0
 11
159.95152931814158
 21
22.672346025013013
 31
0.0
  0
LINE
  5
DA
330
17
100
AcDbEntity
  8
BOUNDARY
100
AcDbLine
 10
159.95152931814158
 20
22.672346025013013
 30
0.0
 11
159.95193260281843
 21
22.672077374288857
 31
0.0
  0
LINE
  5
DB
330
17
100
AcDbEntity
  8
BOUNDARY
100
AcDbLine
 10
159.95193260281843
 20
22.672077374288857
 30
0.0
 11
159.95233473425037
 21
22.671806631640774
 31
0.0
  0
LINE
  5
DC
330
17
100
AcDbEntity
  8
BOUNDARY
100
AcDbLine
 10
159.95233473425037
 20
22.671806631640774
 30
0.0
 11
159.95273570350744
 21
22.67153380306781
 31
0.0
  0
LINE
  5
DD
330
17
100
AcDbEntity
  8
BOUNDARY
100
AcDbLine
 10
159.95273570350744
 20
22.67153380306781
 30
0.0
 11
159.9531355016855
 21
22.671258894615228
 31
0.0
  0
LINE
  5
DE
330
17
100
AcDbEntity
  8
BOUNDARY
100
AcDbLine
 10
159.9531355016855
 20
22.671258894615228
 30
0.0
 11
159.95353411990635
 21
22.670981912374454
 31
0.0
  0
LINE
  5
DF
330
17
100
AcDbEntity
  8
BOUNDARY
100
AcDbLine
 10
159.95353411990635
 20
22.670981912374454
 30
0.0
 11
159.9539315493181
 21
22.670702862482894
 31
0.0
  0
LINE
  5
E0
330
17
100
AcDbEntity
  8
BOUNDARY
100
AcDbLine
 10
159.9539315493181
 20
22.670702862482894
 30
0.0
 11
159.9543277810952
 21
22.67042175112381
 31
0.0
  0
LINE
  5
E1
330
17
100
AcDbEntity
  8
BOUNDARY
100
AcDbLine
 10
159.9543277810952
 20
22.67042175112381
 30
0.0
 11
159.9547228064387
 21
22.670138584526168
 31
0.0
  0
LINE
  5
E2
330
17
100
AcDbEntity
  8
BOUNDARY
100
AcDbLine
 10
159.9547228064387
 20
22.670138584526168
 30
0.0
 11
159.9551166165764
 21
22.669853368964525
 31
0.0
  0
LINE
  5
E3
330
17
100
AcDbEntity
  8
BOUNDARY
100
AcDbLine
 10
159.9551166165764
 20
22.669853368964525
 30
0.0
 11
159.95550920276318
 21
22.669566110758876
 31
0.0
  0
LINE
  5
E4
330
17
100
AcDbEntity
  8
BOUNDARY
100
AcDbLine
 10
159.95550920276318
 20
22.669566110758876
 30
0.0
 11
159.95590055628102
 21
22.669276816274536
 31
0.0
  0
LINE
  5
E5
330
17
100
AcDbEntity
  8
BOUNDARY
100
AcDbLine
 10
159.95590055628102
 20
22.669276816274536
 30
0.0
 11
159.95629066843932
 21
22.66898549192198
 31
0.0
  0
LINE
  5
E6
330
17
100
AcDbEntity
  8
BOUNDARY
100
AcDbLine
 10
159.95629066843932
 20
22.66898549192198
 30
0.0
 11
159.95667953057503
 21
22.668692144156683
 31
0.0
  0
LINE
  5
E7
330
17
100
AcDbEntity
  8
BOUNDARY
100
AcDbLine
 10
159.95667953057503
 20
22.668692144156683
 30
0.0
 11
159.95706713405283
 21
22.668396779479032
 31
0.0
  0
LINE
  5
E8
330
17
100
AcDbEntity
  8
BOUNDARY
100
AcDbLine
 10
159.95706713405283
 20
22.668396779479032
 30
0.0
 11
159.95745347026542
 21
22.668099404434123
 31
0.0
  0
LINE
  5
E9
330
17
100
AcDbEntity
  8
BOUNDARY
100
AcDbLine
 10
159.95745347026542
 20
22.668099404434123
 30
0.0
 11
159.95783853063355
 21
22.667800025611673
 31
0.0
  0
LINE
  5
EA
330
17
100
AcDbEntity
  8
BOUNDARY
100
AcDbLine
 10
159.95783853063355
 20
22.667800025611673
 30
0.0
 11
159.95822230660636
 21
22.667498649645818
 31
0.0
  0
LINE
  5
EB
330
17
100
AcDbEntity
  8
BOUNDARY
100
AcDbLine
 10
159.95822230660636
 20
22.667498649645818
 30
0.0
 11
159.95860478966154
 21
22.667195283215023
 31
0.0
  0
LINE
  5
EC
330
17
100
AcDbEntity
  8
BOUNDARY
100
AcDbLine
 10
159.95860478966154
 20
22.667195283215023
 30
0.0
 11
159.9589859713054
 21
22.6668899330419
 31
0.0
  0
LINE
  5
ED
330
17
100
AcDbEntity
  8
BOUNDARY
100
AcDbLine
 10
159.9589859713054
 20
22.6668899330419
 30
0.0
 11
159.95936584307324
 21
22.66658260589305
 31
0.0
  0
LINE
  5
EE
330
17
100
AcDbEntity
  8
BOUNDARY
100
AcDbLine
 10
159.95936584307324
 20
22.66658260589305
 30
0.0
 11
159.9597443965294
 21
22.66627330857896
 31
0.0
  0
LINE
  5
EF
330
17
100
AcDbEntity
  8
BOUNDARY
100
AcDbLine
 10
159.9597443965294
 20
22.66627330857896
 30
0.0
 11
159.96012162326753
 21
22.665962047953823
 31
0.0
  0
LINE
  5
F0
330
17
100
AcDbEntity
  8
BOUNDARY
100
AcDbLine
 10
159.96012162326753
 20
22.665962047953823
 30
0.0
 11
159.96049751491068
 21
22.66564883091534
 31
0.0
  0
LINE
  5
F1
330
17
100
AcDbEntity
  8
BOUNDARY
100
AcDbLine
 10
159.96049751491068
 20
22.66564883091534
 30
0.0
 11
159.96087206311162
 21
22.665333664404702
 31
0.0
  0
LINE
  5
F2
330
17
100
AcDbEntity
  8
BOUNDARY
100
AcDbLine
 10
159.96087206311162
 20
22.665333664404702
 30
0.0
 11
159.9612452595529
 21
22.66501655540627
 31
0.0
  0
LINE
  5
F3
330
17
100
AcDbEntity
  8
BOUNDARY
100
AcDbLine
 10
159.9612452595529
 20
22.66501655540627
 30
0.0
 11
159.9616170959471
 21
22.66469751094756
 31
0.0
  0
LINE
  5
F4
330
17
100
AcDbEntity
  8
BOUNDARY
100
AcDbLine
 10
159.9616170959471
 20
22.66469751094756
 30
0.0
 11
159.96198756403703
 21
22.664376538099006
 31
0.0
  0
LINE
  5
F5
330
17
100
AcDbEntity
  8
BOUNDARY
100
AcDbLine
 10
159.96198756403703
 20
22.664376538099006
 30
0.0
 11
159.96235665559584
 21
22.664053643973837
 31
0.0
  0
LINE
  5
F6
330
17
100
AcDbEntity
  8
BOUNDARY
100
AcDbLine
 10
159.96235665559584
 20
22.664053643973837
 30
0.0
 11
159.9627243624273
 21
22.66372883572791
 31
0.0
  0
LINE
  5
F7
330
17
100
AcDbEntity
  8
BOUNDARY
100
AcDbLine
 10
159.9627243624273
 20
22.66372883572791
 30
0.0
 11
159.9630906763659
 21
22.663402120559542
 31
0.0
  0
LINE
  5
F8
330
17
100
AcDbEntity
  8
BOUNDARY
100
AcDbLine
 10
159.9630906763659
 20
22.663402120559542
 30
0.0
 11
159.96345558927706
 21
22.6630735057094
 31
0.0
  0
LINE
  5
F9
330
17
100
AcDbEntity
  8
BOUNDARY
100
AcDbLine
 10
159.96345558927706
 20
22.6630735057094
 30
0.0
 11
159.9638190930573
 21
22.662742998460292
 31
0.0
  0
LINE
  5
FA
330
17
100
AcDbEntity
  8
BOUNDARY
100
AcDbLine
 10
159.9638190930573
 20
22.662742998460292
 30
0.0
 11
159.96418117963447
 21
22.662410606137005
 31
0.0
  0
LINE
  5
FB
330
17
100
AcDbEntity
  8
BOUNDARY
100
AcDbLine
 10
159.96418117963447
 20
22.662410606137005
 30
0.0
 11
159.96454184096785
 21
22.662076336106164
 31
0.0
  0
LINE
  5
FC
330
17
100
AcDbEntity
  8
BOUNDARY
100
AcDbLine
 10
159.96454184096785
 20
22.662076336106164
 30
0.0
 11
159.9649010690484
 21
22.66174019577608
 31
0.0
  0
LINE
  5
FD
330
17
100
AcDbEntity
  8
BOUNDARY
100
AcDbLine
 10
159.9649010690484
 20
22.66174019577608
 30
0.0
 11
159.96525885589892
 21
22.661402192596565
 31
0.0
  0
LINE
  5
FE
330
17
100
AcDbEntity
  8
BOUNDARY
100
AcDbLine
 10
159.96525885589892
 20
22.661402192596565
 30
0.0
 11
159.96561519357417
 21
22.66106233405878
 31
0.0
  0
LINE
  5
FF
330
17
100
AcDbEntity
  8
BOUNDARY
100
AcDbLine
 10
159.96561519357417
 20
22.66106233405878
 30
0.0
 11
159.96597007416108
 21
22.660720627695046
 31
0.0
  0
LINE
  5
100
330
17
100
AcDbEntity
  8
BOUNDARY
100
AcDbLine
 10
159.96597007416108
 20
22.660720627695046
 30
0.0
 11
159.96632348977903
 21
22.66037708107872
 31
0.0
  0
LINE
  5
101
330
17
100
AcDbEntity
  8
BOUNDARY
100
AcDbLine
 10
159.96632348977903
 20
22.66037708107872
 30
0.0
 11
159.96667543257982
 21
22.660031701823993
 31
0.0
  0
LINE
  5
102
330
17
100
AcDbEntity
  8
BOUNDARY
100
AcDbLine
 10
159.96667543257982
 20
22.660031701823993
 30
0.0
 11
159.96702589474805
 21
22.659684497585744
 31
0.0
  0
LINE
  5
103
330
17
100
AcDbEntity
  8
BOUNDARY
100
AcDbLine
 10
159.96702589474805
 20
22.659684497585744
 30
0.0
 11
159.96737486850114
 21
22.659335476059344
 31
0.0
  0
LINE
  5
104
330
17
100
AcDbEntity
  8
BOUNDARY
100
AcDbLine
 10
159.96737486850114
 20
22.659335476059344
 30
0.0
 11
159.96772234608957
 21
22.658984644980517
 31
0.0
  0
LINE
  5
105
330
17
100
AcDbEntity
  8
BOUNDARY
100
AcDbLine
 10
159.96772234608957
 20
22.658984644980517
 30
0.0
 11
159.96806831979708
 21
22.658632012125167
 31
0.0
  0
LINE
  5
106
330
17
100
AcDbEntity
  8
BOUNDARY
100
AcDbLine
 10
159.96806831979708
 20
22.658632012125167
 30
0.0
 11
159.96841278194077
 21
22.65827758530917
 31
0.0
  0
LINE
  5
107
330
17
100
AcDbEntity
  8
BOUNDARY
100
AcDbLine
 10
159.96841278194077
 20
22.65827758530917
 30
0.0
 11
159.9687557248713
 21
22.657921372388255
 31
0.0
  0
LINE
  5
108
330
17
100
AcDbEntity
  8
BOUNDARY
100
AcDbLine
 10
159.9687557248713
 20
22.657921372388255
 30
0.0
 11
159.9690971409731
 21
22.65756338125778
 31
0.0
  0
LINE
  5
109
330
17
100
AcDbEntity
  8
BOUNDARY
100
AcDbLine
 10
159.9690971409731
 20
22.65756338125778
 30
0.0
 11
159.9694370226645
 21
22.65720361985259
 31
0.0
  0
LINE
  5
10A
330
17
100
AcDbEntity
  8
BOUNDARY
100
AcDbLine
 10
159.9694370226645
 20
22.65720361985259
 30
0.0
 11
159.96977536239785
 21
22.656842096146846
 31
0.0
  0
LINE
  5
10B
330
17
100
AcDbEntity
  8
BOUNDARY
100
AcDbLine
 10
159.96977536239785
 20
22.656842096146846
 30
0.0
 11
159.97011215265985
 21
22.656478818153833
 31
0.0
  0
LINE
  5
10C
330
17
100
AcDbEntity
  8
BOUNDARY
100
AcDbLine
 10
159.97011215265985
 20
22.656478818153833
 30
0.0
 11
159.9704473859715
 21
22.656113793925776
 31
0.0
  0
LINE
  5
10D
330
17
100
AcDbEntity
  8
BOUNDARY
100
AcDbLine
 10
159.9704473859715
 20
22.656113793925776
 30
0.0
 11
159.97078105488842
 21
22.65574703155368
 31
0.0
  0
LINE
  5
10E
330
17
100
AcDbEntity
  8
BOUNDARY
100
AcDbLine
 10
159.97078105488842
 20
22.65574703155368
 30
0.0
 11
159.971113152001
 21
22.655378539167135
 31
0.0
  0
LINE
  5
10F
330
17
100
AcDbEntity
  8
BOUNDARY
100
AcDbLine
 10
159.971113152001
 20
22.655378539167135
 30
0.0
 11
159.97144366993447
 21
22.655008324934176
 31
0.0
  0
LINE
  5
110
330
17
100
AcDbEntity
  8
BOUNDARY
100
AcDbLine
 10
159.97144366993447
 20
22.655008324934176
 30
0.0
 11
159.9717726013492
 21
22.65463639706105
 31
0.0
  0
LINE
  5
111
330
17
100
AcDbEntity
  8
BOUNDARY
100
AcDbLine
 10
159.9717726013492
 20
22.65463639706105
 30
0.0
 11
159.9720999389407
 21
22.654262763792083
 31
0.0
  0
LINE
  5
112
330
17
100
AcDbEntity
  8
BOUNDARY
100
AcDbLine
 10
159.9720999389407
 20
22.654262763792083
 30
0.0
 11
159.97242567543992
 21
22.653887433409434
 31
0.0
  0
LINE
  5
113
330
17
100
AcDbEntity
  8
BOUNDARY
100
AcDbLine
 10
159.97242567543992
 20
22.653887433409434
 30
0.0
 11
159.97274980361343
 21
22.65351041423299
 31
0.0
  0
LINE
  5
114
330
17
100
AcDbEntity
  8
BOUNDARY
100
AcDbLine
 10
159.97274980361343
 20
22.65351041423299
 30
0.0
 11
159.97307231626343
 21
22.653131714620134
 31
0.0
  0
LINE
  5
115
330
17
100
AcDbEntity
  8
BOUNDARY
100
AcDbLine
 10
159.97307231626343
 20
22.653131714620134
 30
0.0
 11
159.973393206228
 21
22.65275134296557
 31
0.0
  0
LINE
  5
116
330
17
100
AcDbEntity
  8
BOUNDARY
100
AcDbLine
 10
159.973393206228
 20
22.65275134296557
 30
0.0
 11
159.9737124663813
 21
22.652369307701143
 31
0.0
  0
LINE
  5
117
330
17
100
AcDbEntity
  8
BOUNDARY
100
AcDbLine
 10
159.9737124663813
 20
22.652369307701143
 30
0.0
 11
159.97403008963363
 21
22.651985617295647
 31
0.0
  0
LINE
  5
118
330
17
100
AcDbEntity
  8
BOUNDARY
100
AcDbLine
 10
159.97403008963363
 20
22.651985617295647
 30
0.0
 11
159.9743460689317
 21
22.65160028025466
 31
0.0
  0
LINE
  5
119
330
17
100
AcDbEntity
  8
BOUNDARY
100
AcDbLine
 10
159.9743460689317
 20
22.65160028025466
 30
0.0
 11
159.9746603972587
 21
22.651213305120294
 31
0.0
  0
LINE
  5
11A
330
17
100
AcDbEntity
  8
BOUNDARY
100
AcDbLine
 10
159.9746603972587
 20
22.651213305120294
 30
0.0
 11
159.97497306763444
 21
22.650824700471098
 31
0.0
  0
LINE
  5
11B
330
17
100
AcDbEntity
  8
BOUNDARY
100
AcDbLine
 10
159.97497306763444
 20
22.650824700471098
 30
0.0
 11
159.97528407311557
 21
22.650434474921802
 31
0.0
  0
LINE
  5
11C
330
17
100
AcDbEntity
  8
BOUNDARY
100
AcDbLine
 10
159.97528407311557
 20
22.650434474921802
 30
0.0
 11
159.97559340679578
 21
22.650042637123153
 31
0.0
  0
LINE
  5
11D
330
17
100
AcDbEntity
  8
BOUNDARY
100
AcDbLine
 10
159.97559340679578
 20
22.650042637123153
 30
0.0
 11
159.9759010618058
 21
22.649649195761697
 31
0.0
  0
LINE
  5
11E
330
17
100
AcDbEntity
  8
BOUNDARY
100
AcDbLine
 10
159.9759010618058
 20
22.649649195761697
 30
0.0
 11
159.9762070313137
 21
22.64925415955963
 31
0.0
  0
LINE
  5
11F
330
17
100
AcDbEntity
  8
BOUNDARY
100
AcDbLine
 10
159.9762070313137
 20
22.64925415955963
 30
0.0
 11
159.9765113085249
 21
22.648857537274587
 31
0.0
  0
LINE
  5
120
330
17
100
AcDbEntity
  8
BOUNDARY
100
AcDbLine
 10
159.9765113085249
 20
22.648857537274587
 30
0.0
 11
159.97681388668246
 21
22.648459337699414
 31
0.0
  0
LINE
  5
121
330
17
100
AcDbEntity
  8
BOUNDARY
100
AcDbLine
 10
159.97681388668246
 20
22.648459337699414
 30
0.0
 11
159.97711475906718
 21
22.648059569662042
 31
0.0
  0
LINE
  5
122
330
17
100
AcDbEntity
  8
BOUNDARY
100
AcDbLine
 10
159.97711475906718
 20
22.648059569662042
 30
0.0
 11
159.9774139189977
 21
22.647658242025244
 31
0.0
  0
LINE
  5
123
330
17
100
AcDbEntity
  8
BOUNDARY
100
AcDbLine
 10
159.9774139189977
 20
22.647658242025244
 30
0.0
 11
159.9777113598307
 21
22.647255363686437
 31
0.0
  0
LINE
  5
124
330
17
100
AcDbEntity
  8
BOUNDARY
100
AcDbLine
 10
159.9777113598307
 20
22.647255363686437
 30
0.0
 11
159.97800707496106
 21
22.64685094357752
 31
0.0
  0
LINE
  5
125
330
17
100
AcDbEntity
  8
BOUNDARY
100
AcDbLine
 10
159.97800707496106
 20
22.64685094357752
 30
0.0
 11
159.97830105782194
 21
22.64644499066466
 31
0.0
  0
LINE
  5
126
330
17
100
AcDbEntity
  8
BOUNDARY
100
AcDbLine
 10
159.97830105782194
 20
22.64644499066466
 30
0.0
 11
159.97859330188498
 21
22.646037513948052
 31
0.0
  0
LINE
  5
127
330
17
100
AcDbEntity
  8
BOUNDARY
100
AcDbLine
 10
159.97859330188498
 20
22.646037513948052
 30
0.0
 11
159.97888380066047
 21
22.645628522461802
 31
0.0
  0
LINE
  5
128
330
17
100
AcDbEntity
  8
BOUNDARY
100
AcDbLine
 10
159.97888380066047
 20
22.645628522461802
 30
0.0
 11
159.97917254769743
 21
22.645218025273675
 31
0.0
  0
LINE
  5
129
330
17
100
AcDbEntity
  8
BOUNDARY
100
AcDbLine
 10
159.97917254769743
 20
22.645218025273675
 30
0.0
 11
159.97945953658376
 21
22.644806031484887
 31
0.0
  0
LINE
  5
12A
330
17
100
AcDbEntity
  8
BOUNDARY
100
AcDbLine
 10
159.97945953658376
 20
22.644806031484887
 30
0.0
 11
159.97974476094643
 21
22.644392550229952
 31
0.0
  0
LINE
  5
12B
330
17
100
AcDbEntity
  8
BOUNDARY
100
AcDbLine
 10
159.97974476094643
 20
22.644392550229952
 30
0.0
 11
159.98002821445158
 21
22.64397759067643
 31
0.0
  0
LINE
  5
12C
330
17
100
AcDbEntity
  8
BOUNDARY
100
AcDbLine
 10
159.98002821445158
 20
22.64397759067643
 30
0.0
 11
159.98030989080468
 21
22.64356116202475
 31
0.0
  0
LINE
  5
12D
330
17
100
AcDbEntity
  8
BOUNDARY
100
AcDbLine
 10
159.98030989080468
 20
22.64356116202475
 30
0.0
 11
159.98058978375067
 21
22.643143273508002
 31
0.0
  0
LINE
  5
12E
330
17
100
AcDbEntity
  8
BOUNDARY
100
AcDbLine
 10
159.98058978375067
 20
22.643143273508002
 30
0.0
 11
159.9808678870741
 21
22.642723934391746
 31
0.0
  0
LINE
  5
12F
330
17
100
AcDbEntity
  8
BOUNDARY
100
AcDbLine
 10
159.9808678870741
 20
22.642723934391746
 30
0.0
 11
159.98114419459924
 21
22.64230315397377
 31
0.0
  0
LINE
  5
130
330
17
100
AcDbEntity
  8
BOUNDARY
100
AcDbLine
 10
159.98114419459924
 20
22.64230315397377
 30
0.0
 11
159.98141870019023
 21
22.64188094158392
 31
0.0
  0
LINE
  5
131
330
17
100
AcDbEntity
  8
BOUNDARY
100
AcDbLine
 10
159.98141870019023
 20
22.64188094158392
 30
0.0
 11
159.98169139775126
 21
22.641457306583906
 31
0.0
  0
LINE
  5
132
330
17
100
AcDbEntity
  8
BOUNDARY
100
AcDbLine
 10
159.98169139775126
 20
22.641457306583906
 30
0.0
 11
159.98196228122666
 21
22.64103225836705
 31
0.0
  0
LINE
  5
133
330
17
100
AcDbEntity
  8
BOUNDARY
100
AcDbLine
 10
159.98196228122666
 20
22.64103225836705
 30
0.0
 11
159.98223134460102
 21
22.640605806358092
 31
0.0
  0
LINE
  5
134
330
17
100
AcDbEntity
  8
BOUNDARY
100
AcDbLine
 10
159.98223134460102
 20
22.640605806358092
 30
0.0
 11
159.98249858189936
 21
22.640177960013038
 31
0.0
  0
LINE
  5
135
330
17
100
AcDbEntity
  8
BOUNDARY
100
AcDbLine
 10
159.98249858189936
 20
22.640177960013038
 30
0.0
 11
159.9827639871873
 21
22.63974872881885
 31
0.0
  0
LINE
  5
136
330
17
100
AcDbEntity
  8
BOUNDARY
100
AcDbLine
 10
159.9827639871873
 20
22.63974872881885
 30
0.0
 11
159.98302755457107
 21
22.63931812229334
 31
0.0
  0
LINE
  5
137
330
17
100
AcDbEntity
  8
BOUNDARY
100
AcDbLine
 10
159.98302755457107
 20
22.63931812229334
 30
0.0
 11
159.9832892781977
 21
22.638886149984867
 31
0.0
  0
LINE
  5
138
330
17
100
AcDbEntity
  8
BOUNDARY
100
AcDbLine
 10
159.9832892781977
 20
22.638886149984867
 30
0.0
 11
159.98354915225528
 21
22.638452821472207
 31
0.0
  0
LINE
  5
139
330
17
100
AcDbEntity
  8
BOUNDARY
100
AcDbLine
 10
159.98354915225528
 20
22.638452821472207
 30
0.0
 11
159.98380717097288
 21
22.638018146364278
 31
0.0
  0
LINE
  5
13A
330
17
100
AcDbEntity
  8
BOUNDARY
100
AcDbLine
 10
159.98380717097288
 20
22.638018146364278
 30
0.0
 11
159.98406332862075
 21
22.63758213429999
 31
0.0
  0
LINE
  5
13B
330
17
100
AcDbEntity
  8
BOUNDARY
100
AcDbLine
 10
159.98406332862075
 20
22.63758213429999
 30
0.0
 11
159.98431761951056
 21
22.637144794947957
 31
0.0
  0
LINE
  5
13C
330
17
100
AcDbEntity
  8
BOUNDARY
100
AcDbLine
 10
159.98431761951056
 20
22.637144794947957
 30
0.0
 11
159.98457003799533
 21
22.63670613800636
 31
0.0
  0
LINE
  5
13D
330
17
100
AcDbEntity
  8
BOUNDARY
100
AcDbLine
 10
159.98457003799533
 20
22.63670613800636
 30
0.0
 11
159.98482057846977
 21
22.636266173202667
 31
0.0
  0
LINE
  5
13E
330
17
100
AcDbEntity
  8
BOUNDARY
100
AcDbLine
 10
159.98482057846977
 20
22.636266173202667
 30
0.0
 11
159.98506923537016
 21
22.635824910293476
 31
0.0
  0
LINE
  5
13F
330
17
100
AcDbEntity
  8
BOUNDARY
100
AcDbLine
 10
159.98506923537016
 20
22.635824910293476
 30
0.0
 11
159.98531600317477
 21
22.63538235906424
 31
0.0
  0
LINE
  5
140
330
17
100
AcDbEntity
  8
BOUNDARY
100
AcDbLine
 10
159.98531600317477
 20
22.63538235906424
 30
0.0
 11
159.98556087640367
 21
22.63493852932912
 31
0.0
  0
LINE
  5
141
330
17
100
AcDbEntity
  8
BOUNDARY
100
AcDbLine
 10
159.98556087640367
 20
22.63493852932912
 30
0.0
 11
159.9858038496191
 21
22.634493430930696
 31
0.0
  0
LINE
  5
142
330
17
100
AcDbEntity
  8
BOUNDARY
100
AcDbLine
 10
159.9858038496191
 20
22.634493430930696
 30
0.0
 11
159.98604491742543
 21
22.634047073739794
 31
0.0
  0
LINE
  5
143
330
17
100
AcDbEntity
  8
BOUNDARY
100
AcDbLine
 10
159.98604491742543
 20
22.634047073739794
 30
0.0
 11
159.98628407446938
 21
22.633599467655284
 31
0.0
  0
LINE
  5
144
330
17
100
AcDbEntity
  8
BOUNDARY
100
AcDbLine
 10
159.98628407446938
 20
22.633599467655284
 30
0.0
 11
159.98652131544011
 21
22.633150622603793
 31
0.0
  0
LINE
  5
145
330
17
100
AcDbEntity
  8
BOUNDARY
100
AcDbLine
 10
159.98652131544011
 20
22.633150622603793
 30
0.0
 11
159.9867566350693
 21
22.632700548539567
 31
0.0
  0
LINE
  5
146
330
17
100
AcDbEntity
  8
BOUNDARY
100
AcDbLine
 10
159.9867566350693
 20
22.632700548539567
 30
0.0
 11
159.98699002813132
 21
22.63224925544419
 31
0.0
  0
LINE
  5
147
330
17
100
AcDbEntity
  8
BOUNDARY
100
AcDbLine
 10
159.98699002813132
 20
22.63224925544419
 30
0.0
 11
159.9872214894433
 21
22.631796753326395
 31
0.0
  0
LINE
  5
148
330
17
100
AcDbEntity
  8
BOUNDARY
100
AcDbLine
 10
159.9872214894433
 20
22.631796753326395
 30
0.0
 11
159.98745101386527
 21
22.63134305222182
 31
0.0
  0
LINE
  5
149
330
17
100
AcDbEntity
  8
BOUNDARY
100
AcDbLine
 10
159.98745101386527
 20
22.63134305222182
 30
0.0
 11
159.9876785963003
 21
22.63088816219282
 31
0.0
  0
LINE
  5
14A
330
17
100
AcDbEntity
  8
BOUNDARY
100
AcDbLine
 10
159.9876785963003
 20
22.63088816219282
 30
0.0
 11
159.98790423169453
 21
22.63043209332822
 31
0.0
  0
LINE
  5
14B
330
17
100
AcDbEntity
  8
BOUNDARY
100
AcDbLine
 10
159.98790423169453
 20
22.63043209332822
 30
0.0
 11
159.9881279150374
 21
22.629974855743082
 31
0.0
  0
LINE
  5
14C
330
17
100
AcDbEntity
  8
BOUNDARY
100
AcDbLine
 10
159.9881279150374
 20
22.629974855743082
 30
0.0
 11
159.9883496413617
 21
22.629516459578518
 31
0.0
  0
LINE
  5
14D
330
17
100
AcDbEntity
  8
BOUNDARY
100
AcDbLine
 10
159.9883496413617
 20
22.629516459578518
 30
0.0
 11
159.9885694057436
 21
22.629056915001435
 31
0.0
  0
LINE
  5
14E
330
17
100
AcDbEntity
  8
BOUNDARY
100
AcDbLine
 10
159.9885694057436
 20
22.629056915001435
 30
0.0
 11
159.9887872033029
 21
22.628596232204305
 31
0.0
  0
LINE
  5
14F
330
17
100
AcDbEntity
  8
BOUNDARY
100
AcDbLine
 10
159.9887872033029
 20
22.628596232204305
 30
0.0
 11
159.98900302920305
 21
22.628134421404987
 31
0.0
  0
LINE
  5
150
330
17
100
AcDbEntity
  8
BOUNDARY
100
AcDbLine
 10
159.98900302920305
 20
22.628134421404987
 30
0.0
 11
159.98921687865135
 21
22.62767149284643
 31
0.0
  0
LINE
  5
151
330
17
100
AcDbEntity
  8
BOUNDARY
100
AcDbLine
 10
159.98921687865135
 20
22.62767149284643
 30
0.0
 11
159.98942874689888
 21
22.627207456796523
 31
0.0
  0
LINE
  5
152
330
17
100
AcDbEntity
  8
BOUNDARY
100
AcDbLine
 10
159.98942874689888
 20
22.627207456796523
 30
0.0
 11
159.98963862924077
 21
22.626742323547806
 31
0.0
  0
LINE
  5
153
330
17
100
AcDbEntity
  8
BOUNDARY
100
AcDbLine
 10
159.98963862924077
 20
22.626742323547806
 30
0.0
 11
159.98984652101632
 21
22.626276103417265
 31
0.0
  0
LINE
  5
154
330
17
100
AcDbEntity
  8
BOUNDARY
100
AcDbLine
 10
159.98984652101632
 20
22.626276103417265
 30
0.0
 11
159.9900524176089
 21
22.625808806746136
 31
0.0
  0
LINE
  5
155
330
17
100
AcDbEntity
  8
BOUNDARY
100
AcDbLine
 10
159.9900524176089
 20
22.625808806746136
 30
0.0
 11
159.9902563144463
 21
22.625340443899606
 31
0.0
  0
LINE
  5
156
330
17
100
AcDbEntity
  8
BOUNDARY
100
AcDbLine
 10
159.9902563144463
 20
22.625340443899606
 30
0.0
 11
159.99045820700061
 21
22.624871025266653
 31
0.0
  0
LINE
  5
157
330
17
100
AcDbEntity
  8
BOUNDARY
100
AcDbLine
 10
159.99045820700061
 20
22.624871025266653
 30
0.0
 11
159.99065809078857
 21
22.624400561259773
 31
0.0
  0
LINE
  5
158
330
17
100
AcDbEntity
  8
BOUNDARY
100
AcDbLine
 10
159.99065809078857
 20
22.624400561259773
 30
0.0
 11
159.99085596137138
 21
22.623929062314765
 31
0.0
  0
LINE
  5
159
330
17
100
AcDbEntity
  8
BOUNDARY
100
AcDbLine
 10
159.99085596137138
 20
22.623929062314765
 30
0.0
 11
159.99105181435505
 21
22.623456538890512
 31
0.0
  0
LINE
  5
15A
330
17
100
AcDbEntity
  8
BOUNDARY
100
AcDbLine
 10
159.99105181435505
 20
22.623456538890512
 30
0.0
 11
159.99124564539034
 21
22.622983001468736
 31
0.0
  0
LINE
  5
15B
330
17
100
AcDbEntity
  8
BOUNDARY
100
AcDbLine
 10
159.99124564539034
 20
22.622983001468736
 30
0.0
 11
159.99143745017292
 21
22.62250846055374
 31
0.0
  0
LINE
  5
15C
330
17
100
AcDbEntity
  8
BOUNDARY
100
AcDbLine
 10
159.99143745017292
 20
22.62250846055374
 30
0.0
 11
159.9916272244435
 21
22.622032926672237
 31
0.0
  0
LINE
  5
15D
330
17
100
AcDbEntity
  8
BOUNDARY
100
AcDbLine
 10
159.9916272244435
 20
22.622032926672237
 30
0.0
 11
159.99181496398782
 21
22.621556410373085
 31
0.0
  0
LINE
  5
15E
330
17
100
AcDbEntity
  8
BOUNDARY
100
AcDbLine
 10
159.99181496398782
 20
22.621556410373085
 30
0.0
 11
159.99200066463683
 21
22.621078922227007
 31
0.0
  0
LINE
  5
15F
330
17
100
AcDbEntity
  8
BOUNDARY
100
AcDbLine
 10
159.99200066463683
 20
22.621078922227007
 30
0.0
 11
159.99218432226675
 21
22.620600472826453
 31
0.0
  0
LINE
  5
160
330
17
100
AcDbEntity
  8
BOUNDARY
100
AcDbLine
 10
159.99218432226675
 20
22.620600472826453
 30
0.0
 11
159.99236593279917
 21
22.620121072785302
 31
0.0
  0
LINE
  5
161
330
17
100
AcDbEntity
  8
BOUNDARY
100
AcDbLine
 10
159.99236593279917
 20
22.620121072785302
 30
0.0
 11
159.99254549220115
 21
22.61964073273862
 31
0.0
  0
LINE
  5
162
330
17
100
AcDbEntity
  8
BOUNDARY
100
AcDbLine
 10
159.99254549220115
 20
22.61964073273862
 30
0.0
 11
159.99272299648533
 21
22.619159463342474
 31
0.0
  0
LINE
  5
163
330
17
100
AcDbEntity
  8
BOUNDARY
100
AcDbLine
 10
159.99272299648533
 20
22.619159463342474
 30
0.0
 11
159.99289844170988
 21
22.618677275273647
 31
0.0
  0
LINE
  5
164
330
17
100
AcDbEntity
  8
BOUNDARY
100
AcDbLine
 10
159.99289844170988
 20
22.618677275273647
 30
0.0
 11
159.9930718239788
 21
22.618194179229434
 31
0.0
  0
LINE
  5
165
330
17
100
AcDbEntity
  8
BOUNDARY
100
AcDbLine
 10
159.9930718239788
 20
22.618194179229434
 30
0.0
 11
159.9932431394419
 21
22.617710185927383
 31
0.0
  0
LINE
  5
166
330
17
100
AcDbEntity
  8
BOUNDARY
100
AcDbLine
 10
159.9932431394419
 20
22.617710185927383
 30
0.0
 11
159.99341238429477
 21
22.61722530610508
 31
0.0
  0
LINE
  5
167
330
17
100
AcDbEntity
  8
BOUNDARY
100
AcDbLine
 10
159.99341238429477
 20
22.61722530610508
 30
0.0
 11
159.9935795547791
 21
22.6167395505199
 31
0.0
  0
LINE
  5
168
330
17
100
AcDbEntity
  8
BOUNDARY
100
AcDbLine
 10
159.9935795547791
 20
22.6167395505199
 30
0.0
 11
159.99374464718264
 21
22.616252929948764
 31
0.0
  0
LINE
  5
169
330
17
100
AcDbEntity
  8
BOUNDARY
100
AcDbLine
 10
159.99374464718264
 20
22.616252929948764
 30
0.0
 11
159.99390765783923
 21
22.615765455187912
 31
0.0
  0
LINE
  5
16A
330
17
100
AcDbEntity
  8
BOUNDARY
100
AcDbLine
 10
159.99390765783923
 20
22.615765455187912
 30
0.0
 11
159.99406858312895
 21
22.615277137052644
 31
0.0
  0
LINE
  5
16B
330
17
100
AcDbEntity
  8
BOUNDARY
100
AcDbLine
 10
159.99406858312895
 20
22.615277137052644
 30
0.0
 11
159.99422741947822
 21
22.614787986377113
 31
0.0
  0
LINE
  5
16C
330
17
100
AcDbEntity
  8
BOUNDARY
100
AcDbLine
 10
159.99422741947822
 20
22.614787986377113
 30
0.0
 11
159.9943841633598
 21
22.614298014014047
 31
0.0
  0
LINE
  5
16D
330
17
100
AcDbEntity
  8
BOUNDARY
100
AcDbLine
 10
159.9943841633598
 20
22.614298014014047
 30
0.0
 11
159.99453881129298
 21
22.61380723083456
 31
0.0
  0
LINE
  5
16E
330
17
100
AcDbEntity
  8
BOUNDARY
100
AcDbLine
 10
159.99453881129298
 20
22.61380723083456
 30
0.0
 11
159.99469135984356
 21
22.61331564772785
 31
0.0
  0
LINE
  5
16F
330
17
100
AcDbEntity
  8
BOUNDARY
100
AcDbLine
 10
159.99469135984356
 20
22.61331564772785
 30
0.0
 11
159.99484180562393
 21
22.612823275601
 31
0.0
  0
LINE
  5
170
330
17
100
AcDbEntity
  8
BOUNDARY
100
AcDbLine
 10
159.99484180562393
 20
22.612823275601
 30
0.0
 11
159.99499014529323
 21
22.612330125378726
 31
0.0
  0
LINE
  5
171
330
17
100
AcDbEntity
  8
BOUNDARY
100
AcDbLine
 10
159.99499014529323
 20
22.612330125378726
 30
0.0
 11
159.99513637555734
 21
22.611836208003144
 31
0.0
  0
LINE
  5
172
330
17
100
AcDbEntity
  8
BOUNDARY
100
AcDbLine
 10
159.99513637555734
 20
22.611836208003144
 30
0.0
 11
159.99528049316896
 21
22.611341534433492
 31
0.0
  0
LINE
  5
173
330
17
100
AcDbEntity
  8
BOUNDARY
100
AcDbLine
 10
159.99528049316896
 20
22.611341534433492
 30
0.0
 11
159.9954224949278
 21
22.61084611564594
 31
0.0
  0
LINE
  5
174
330
17
100
AcDbEntity
  8
BOUNDARY
100
AcDbLine
 10
159.9954224949278
 20
22.61084611564594
 30
0.0
 11
159.99556237768041
 21
22.610349962633304
 31
0.0
  0
LINE
  5
175
330
17
100
AcDbEntity
  8
BOUNDARY
100
AcDbLine
 10
159.99556237768041
 20
22.610349962633304
 30
0.0
 11
159.99570013832053
 21
22.609853086404833
 31
0.0
  0
LINE
  5
176
330
17
100
AcDbEntity
  8
BOUNDARY
100
AcDbLine
 10
159.99570013832053
 20
22.609853086404833
 30
0.0
 11
159.99583577378894
 21
22.609355497985938
 31
0.0
  0
LINE
  5
177
330
17
100
AcDbEntity
  8
BOUNDARY
100
AcDbLine
 10
159.99583577378894
 20
22.609355497985938
 30
0.0
 11
159.99596928107363
 21
22.60885720841796
 31
0.0
  0
LINE
  5
178
330
17
100
AcDbEntity
  8
BOUNDARY
100
AcDbLine
 10
159.99596928107363
 20
22.60885720841796
 30
0.0
 11
159.9961006572099
 21
22.60835822875795
 31
0.0
  0
LINE
  5
179
330
17
100
AcDbEntity
  8
BOUNDARY
100
AcDbLine
 10
159.9961006572099
 20
22.60835822875795
 30
0.0
 11
159.99622989928034
 21
22.607858570078378
 31
0.0
  0
LINE
  5
17A
330
17
100
AcDbEntity
  8
BOUNDARY
100
AcDbLine
 10
159.99622989928034
 20
22.607858570078378
 30
0.0
 11
159.99635700441488
 21
22.607358243466923
 31
0.0
  0
LINE
  5
17B
330
17
100
AcDbEntity
  8
BOUNDARY
100
AcDbLine
 10
159.99635700441488
 20
22.607358243466923
 30
0.0
 11
159.99648196979098
 21
22.60685726002621
 31
0.0
  0
LINE
  5
17C
330
17
100
AcDbEntity
  8
BOUNDARY
100
AcDbLine
 10
159.99648196979098
 20
22.60685726002621
 30
0.0
 11
159.99660479263358
 21
22.606355630873576
 31
0.0
  0
LINE
  5
17D
330
17
100
AcDbEntity
  8
BOUNDARY
100
AcDbLine
 10
159.99660479263358
 20
22.606355630873576
 30
0.0
 11
159.9967254702152
 21
22.6058533671408
 31
0.0
  0
LINE
  5
17E
330
17
100
AcDbEntity
  8
BOUNDARY
100
AcDbLine
 10
159.9967254702152
 20
22.6058533671408
 30
0.0
 11
159.99684399985603
 21
22.605350479973893
 31
0.0
  0
LINE
  5
17F
330
17
100
AcDbEntity
  8
BOUNDARY
100
AcDbLine
 10
159.99684399985603
 20
22.605350479973893
 30
0.0
 11
159.99696037892392
 21
22.604846980532834
 31
0.0
  0
LINE
  5
180
330
17
100
AcDbEntity
  8
BOUNDARY
100
AcDbLine
 10
159.99696037892392
 20
22.604846980532834
 30
0.0
 11
159.99707460483447
 21
22.60434287999131
 31
0.0
  0
LINE
  5
181
330
17
100
AcDbEntity
  8
BOUNDARY
100
AcDbLine
 10
159.99707460483447
 20
22.60434287999131
 30
0.0
 11
159.99718667505115
 21
22.60383818953649
 31
0.0
  0
LINE
  5
182
330
17
100
AcDbEntity
  8
BOUNDARY
100
AcDbLine
 10
159.99718667505115
 20
22.60383818953649
 30
0.0
 11
159.99729658708523
 21
22.60333292036875
 31
0.0
  0
LINE
  5
183
330
17
100
AcDbEntity
  8
BOUNDARY
100
AcDbLine
 10
159.99729658708523
 20
22.60333292036875
 30
0.0
 11
159.99740433849598
 21
22.602827083701463
 31
0.0
  0
LINE
  5
184
330
17
100
AcDbEntity
  8
BOUNDARY
100
AcDbLine
 10
159.99740433849598
 20
22.602827083701463
 30
0.0
 11
159.9975099268906
 21
22.602320690760706
 31
0.0
  0
LINE
  5
185
330
17
100
AcDbEntity
  8
BOUNDARY
100
AcDbLine
 10
159.9975099268906
 20
22.602320690760706
 30
0.0
 11
159.99761334992428
 21
22.601813752785063
 31
0.0
  0
LINE
  5
186
330
17
100
AcDbEntity
  8
BOUNDARY
100
AcDbLine
 10
159.99761334992428
 20
22.601813752785063
 30
0.0
 11
159.99771460530042
 21
22.601306281025316
 31
0.0
  0
LINE
  5
187
330
17
100
AcDbEntity
  8
BOUNDARY
100
AcDbLine
 10
159.99771460530042
 20
22.601306281025316
 30
0.0
 11
159.99781369077044
 21
22.600798286744265
 31
0.0
  0
LINE
  5
188
330
17
100
AcDbEntity
  8
BOUNDARY
100
AcDbLine
 10
159.99781369077044
 20
22.600798286744265
 30
0.0
 11
159.99791060413403
 21
22.600289781216407
 31
0.0
  0
LINE
  5
189
330
17
100
AcDbEntity
  8
BOUNDARY
100
AcDbLine
 10
159.99791060413403
 20
22.600289781216407
 30
0.0
 11
159.99800534323904
 21
22.59978077572773
 31
0.0
  0
LINE
  5
18A
330
17
100
AcDbEntity
  8
BOUNDARY
100
AcDbLine
 10
159.99800534323904
 20
22.59978077572773
 30
0.0
 11
159.99809790598167
 21
22.59927128157547
 31
0.0
  0
LINE
  5
18B
330
17
100
AcDbEntity
  8
BOUNDARY
100
AcDbLine
 10
159.99809790598167
 20
22.59927128157547
 30
0.0
 11
159.9981882903064
 21
22.598761310067808
 31
0.0
  0
LINE
  5
18C
330
17
100
AcDbEntity
  8
BOUNDARY
100
AcDbLine
 10
159.9981882903064
 20
22.598761310067808
 30
0.0
 11
159.9982764942061
 21
22.598250872523703
 31
0.0
  0
LINE
  5
18D
330
17
100
AcDbEntity
  8
BOUNDARY
100
AcDbLine
 10
159.9982764942061
 20
22.598250872523703
 30
0.0
 11
159.99836251572208
 21
22.59773998027256
 31
0.0
  0
LINE
  5
18E
330
17
100
AcDbEntity
  8
BOUNDARY
100
AcDbLine
 10
159.99836251572208
 20
22.59773998027256
 30
0.0
 11
159.9984463529441
 21
22.597228644654017
 31
0.0
  0
LINE
  5
18F
330
17
100
AcDbEntity
  8
BOUNDARY
100
AcDbLine
 10
159.9984463529441
 20
22.597228644654017
 30
0.0
 11
159.99852800401038
 21
22.5967168770177
 31
0.0
  0
LINE
  5
190
330
17
100
AcDbEntity
  8
BOUNDARY
100
AcDbLine
 10
159.99852800401038
 20
22.5967168770177
 30
0.0
 11
159.99860746710777
 21
22.596204688722946
 31
0.0
  0
LINE
  5
191
330
17
100
AcDbEntity
  8
BOUNDARY
100
AcDbLine
 10
159.99860746710777
 20
22.596204688722946
 30
0.0
 11
159.9986847404717
 21
22.595692091138577
 31
0.0
  0
LINE
  5
192
330
17
100
AcDbEntity
  8
BOUNDARY
100
AcDbLine
 10
159.9986847404717
 20
22.595692091138577
 30
0.0
 11
159.99875982238612
 21
22.595179095642635
 31
0.0
  0
LINE
  5
193
330
17
100
AcDbEntity
  8
BOUNDARY
100
AcDbLine
 10
159.99875982238612
 20
22.595179095642635
 30
0.0
 11
159.99883271118375
 21
22.594665713622128
 31
0.0
  0
LINE
  5
194
330
17
100
AcDbEntity
  8
BOUNDARY
100
AcDbLine
 10
159.99883271118375
 20
22.594665713622128
 30
0.0
 11
159.99890340524598
 21
22.59415195647278
 31
0.0
  0
LINE
  5
195
330
17
100
AcDbEntity
  8
BOUNDARY
100
AcDbLine
 10
159.99890340524598
 20
22.59415195647278
 30
0.0
 11
159.99897190300297
 21
22.59363783559878
 31
0.0
  0
LINE
  5
196
330
17
100
AcDbEntity
  8
BOUNDARY
100
AcDbLine
 10
159.99897190300297
 20
22.59363783559878
 30
0.0
 11
159.99903820293355
 21
22.593123362412545
 31
0.0
  0
LINE
  5
197
330
17
100
AcDbEntity
  8
BOUNDARY
100
AcDbLine
 10
159.99903820293355
 20
22.593123362412545
 30
0.0
 11
159.99910230356548
 21
22.59260854833442
 31
0.0
  0
LINE
  5
198
330
17
100
AcDbEntity
  8
BOUNDARY
100
AcDbLine
 10
159.99910230356548
 20
22.59260854833442
 30
0.0
 11
159.9991642034753
 21
22.592093404792482
 31
0.0
  0
LINE
  5
199
330
17
100
AcDbEntity
  8
BOUNDARY
100
AcDbLine
 10
159.9991642034753
 20
22.592093404792482
 30
0.0
 11
159.9992239012884
 21
22.59157794322224
 31
0.0
  0
LINE
  5
19A
330
17
100
AcDbEntity
  8
BOUNDARY
100
AcDbLine
 10
159.9992239012884
 20
22.59157794322224
 30
0.0
 11
159.9992813956791
 21
22.591062175066433
 31
0.0
  0
LINE
  5
19B
330
17
100
AcDbEntity
  8
BOUNDARY
100
AcDbLine
 10
159.9992813956791
 20
22.591062175066433
 30
0.0
 11
159.99933668537068
 21
22.590546111774707
 31
0.0
  0
LINE
  5
19C
330
17
100
AcDbEntity
  8
BOUNDARY
100
AcDbLine
 10
159.99933668537068
 20
22.590546111774707
 30
0.0
 11
159.99938976913532
 21
22.590029764803415
 31
0.0
  0
LINE
  5
19D
330
17
100
AcDbEntity
  8
BOUNDARY
100
AcDbLine
 10
159.99938976913532
 20
22.590029764803415
 30
0.0
 11
159.9994406457942
 21
22.58951314561535
 31
0.0
  0
LINE
  5
19E
330
17
100
AcDbEntity
  8
BOUNDARY
100
AcDbLine
 10
159.9994406457942
 20
22.58951314561535
 30
0.0
 11
159.99948931421756
 21
22.588996265679487
 31
0.0
  0
LINE
  5
19F
330
17
100
AcDbEntity
  8
BOUNDARY
100
AcDbLine
 10
159.99948931421756
 20
22.588996265679487
 30
0.0
 11
159.99953577332462
 21
22.588479136470724
 31
0.0
  0
LINE
  5
1A0
330
17
100
AcDbEntity
  8
BOUNDARY
100
AcDbLine
 10
159.99953577332462
 20
22.588479136470724
 30
0.0
 11
159.99958002208365
 21
22.587961769469644
 31
0.0
  0
LINE
  5
1A1
330
17
100
AcDbEntity
  8
BOUNDARY
100
AcDbLine
 10
159.99958002208365
 20
22.587961769469644
 30
0.0
 11
159.9996220595121
 21
22.587444176162236
 31
0.0
  0
LINE
  5
1A2
330
17
100
AcDbEntity
  8
BOUNDARY
100
AcDbLine
 10
159.9996220595121
 20
22.587444176162236
 30
0.0
 11
159.99966188467644
 21
22.586926368039645
 31
0.0
  0
LINE
  5
1A3
330
17
100
AcDbEntity
  8
BOUNDARY
100
AcDbLine
 10
159.99966188467644
 20
22.586926368039645
 30
0.0
 11
159.99969949669224
 21
22.586408356597953
 31
0.0
  0
LINE
  5
1A4
330
17
100
AcDbEntity
  8
BOUNDARY
100
AcDbLine
 10
159.99969949669224
 20
22.586408356597953
 30
0.0
 11
159.99973489472436
 21
22.58589015333789
 31
0.0
  0
LINE
  5
1A5
330
17
100
AcDbEntity
  8
BOUNDARY
100
AcDbLine
 10
159.99973489472436
 20
22.58589015333789
 30
0.0
 11
159.99976807798663
 21
22.585371769764556
 31
0.0
  0
LINE
  5
1A6
330
17
100
AcDbEntity
  8
BOUNDARY
100
AcDbLine
 10
159.99976807798663
 20
22.585371769764556
 30
0.0
 11
159.99979904574224
 21
22.584853217387227
 31
0.0
  0
LINE
  5
1A7
330
17
100
AcDbEntity
  8
BOUNDARY
100
AcDbLine
 10
159.99979904574224
 20
22.584853217387227
 30
0.0
 11
159.99982779730348
 21
22.58433450771905
 31
0.0
  0
LINE
  5
1A8
330
17
100
AcDbEntity
  8
BOUNDARY
100
AcDbLine
 10
159.99982779730348
 20
22.58433450771905
 30
0.0
 11
159.99985433203187
 21
22.58381565227682
 31
0.0
  0
LINE
  5
1A9
330
17
100
AcDbEntity
  8
BOUNDARY
100
AcDbLine
 10
159.99985433203187
 20
22.58381565227682
 30
0.0
 11
159.99987864933814
 21
22.583296662580693
 31
0.0
  0
LINE
  5
1AA
330
17
100
AcDbEntity
  8
BOUNDARY
100
AcDbLine
 10
159.99987864933814
 20
22.583296662580693
 30
0.0
 11
159.99990074868234
 21
22.582777550153963
 31
0.0
  0
LINE
  5
1AB
330
17
100
AcDbEntity
  8
BOUNDARY
100
AcDbLine
 10
159.99990074868234
 20
22.582777550153963
 30
0.0
 11
159.9999206295737
 21
22.582258326522773
 31
0.0
  0
LINE
  5
1AC
330
17
100
AcDbEntity
  8
BOUNDARY
100
AcDbLine
 10
159.9999206295737
 20
22.582258326522773
 30
0.0
 11
159.9999382915707
 21
22.581739003215887
 31
0.0
  0
LINE
  5
1AD
330
17
100
AcDbEntity
  8
BOUNDARY
100
AcDbLine
 10
159.9999382915707
 20
22.581739003215887
 30
0.0
 11
159.99995373428115
 21
22.58121959176443
 31
0.0
  0
LINE
  5
1AE
330
17
100
AcDbEntity
  8
BOUNDARY
100
AcDbLine
 10
159.99995373428115
 20
22.58121959176443
 30
0.0
 11
159.99996695736212
 21
22.580700103701613
 31
0.0
  0
LINE
  5
1AF
330
17
100
AcDbEntity
  8
BOUNDARY
100
AcDbLine
 10
159.99996695736212
 20
22.580700103701613
 30
0.0
 11
159.99997796052
 21
22.580180550562478
 31
0.0
  0
LINE
  5
1B0
330
17
100
AcDbEntity
  8
BOUNDARY
100
AcDbLine
 10
159.99997796052
 20
22.580180550562478
 30
0.0
 11
159.9999867435104
 21
22.579660943883685
 31
0.0
  0
LINE
  5
1B1
330
17
100
AcDbEntity
  8
BOUNDARY
100
AcDbLine
 10
159.9999867435104
 20
22.579660943883685
 30
0.0
 11
159.99999330613832
 21
22.579141295203208
 31
0.0
  0
LINE
  5
1B2
330
17
100
AcDbEntity
  8
BOUNDARY
100
AcDbLine
 10
159.99999330613832
 20
22.579141295203208
 30
0.0
 11
159.999997648258
 21
22.578621616060094
 31
0.0
  0
LINE
  5
1B3
330
17
100
AcDbEntity
  8
BOUNDARY
100
AcDbLine
 10
159.999997648258
 20
22.578621616060094
 30
0.0
 11
159.999999769773
 21
22.578101917994214
 31
0.0
  0
LINE
  5
1B4
330
17
100
AcDbEntity
  8
BOUNDARY
100
AcDbLine
 10
159.999999769773
 20
22.578101917994214
 30
0.0
 11
160.0
 21
22.577865266672124
 31
0.0
  0
LINE
  5
1B5
330
17
100
AcDbEntity
  8
BOUNDARY
100
AcDbLine
 10
153.8
 20
-22.688102609076854
 30
0.0
 11
159.9
 21
-22.688102609076854
 31
0.0
  0
LINE
  5
1B6
330
17
100
AcDbEntity
  8
BOUNDARY
100
AcDbLine
 10
153.80000000000013
 20
-22.688102609077
 30
0.0
 11
153.50000000000006
 21
-23.01825362619844
 31
0.0
  0
LINE
  5
1B7
330
17
100
AcDbEntity
  8
BOUNDARY
100
AcDbLine
 10
159.9
 20
-22.688102609076857
 30
0.0
 11
159.90041373544463
 21
-22.688101665973804
 31
0.0
  0
LINE
  5
1B8
330
17
100
AcDbEntity
  8
BOUNDARY
100
AcDbLine
 10
159.90041373544463
 20
-22.688101665973804
 30
0.0
 11
159.90088496397146
 21
-22.68809829416899
 31
0.0
  0
LINE
  5
1B9
330
17
100
AcDbEntity
  8
BOUNDARY
100
AcDbLine
 10
159.90088496397146
 20
-22.68809829416899
 30
0.0
 11
159.90135617284628
 21
-22.688092475519923
 31
0.0
  0
LINE
  5
1BA
330
17
100
AcDbEntity
  8
BOUNDARY
100
AcDbLine
 10
159.90135617284628
 20
-22.688092475519923
 30
0.0
 11
159.90182735160514
 21
-22.688084210155456
 31
0.0
  0
LINE
  5
1BB
330
17
100
AcDbEntity
  8
BOUNDARY
100
AcDbLine
 10
159.90182735160514
 20
-22.688084210155456
 30
0.0
 11
159.9022984897848
 21
-22.688073498258674
 31
0.0
  0
LINE
  5
1BC
330
17
100
AcDbEntity
  8
BOUNDARY
100
AcDbLine
 10
159.9022984897848
 20
-22.688073498258674
 30
0.0
 11
159.90276957692288
 21
-22.688060340066833
 31
0.0
  0
LINE
  5
1BD
330
17
100
AcDbEntity
  8
BOUNDARY
100
AcDbLine
 10
159.90276957692288
 20
-22.688060340066833
 30
0.0
 11
159.90324060255816
 21
-22.68804473587139
 31
0.0
  0
LINE
  5
1BE
330
17
100
AcDbEntity
  8
BOUNDARY
100
AcDbLine
 10
159.90324060255816
 20
-22.68804473587139
 30
0.0
 11
159.90371155623075
 21
-22.68802668601796
 31
0.0
  0
LINE
  5
1BF
330
17
100
AcDbEntity
  8
BOUNDARY
100
AcDbLine
 10
159.90371155623075
 20
-22.68802668601796
 30
0.0
 11
159.90418242748243
 21
-22.688006190906346
 31
0.0
  0
LINE
  5
1C0
330
17
100
AcDbEntity
  8
BOUNDARY
100
AcDbLine
 10
159.90418242748243
 20
-22.688006190906346
 30
0.0
 11
159.9046532058567
 21
-22.68798325099051
 31
0.0
  0
LINE
  5
1C1
330
17
100
AcDbEntity
  8
BOUNDARY
100
AcDbLine
 10
159.9046532058567
 20
-22.68798325099051
 30
0.0
 11
159.90512388089925
 21
-22.687957866778543
 31
0.0
  0
LINE
  5
1C2
330
17
100
AcDbEntity
  8
BOUNDARY
100
AcDbLine
 10
159.90512388089925
 20
-22.687957866778543
 30
0.0
 11
159.905594442158
 21
-22.687930038832718
 31
0.0
  0
LINE
  5
1C3
330
17
100
AcDbEntity
  8
BOUNDARY
100
AcDbLine
 10
159.905594442158
 20
-22.687930038832718
 30
0.0
 11
159.90606487918336
 21
-22.68789976776939
 31
0.0
  0
LINE
  5
1C4
330
17
100
AcDbEntity
  8
BOUNDARY
100
AcDbLine
 10
159.90606487918336
 20
-22.68789976776939
 30
0.0
 11
159.90653518152857
 21
-22.68786705425907
 31
0.0
  0
LINE
  5
1C5
330
17
100
AcDbEntity
  8
BOUNDARY
100
AcDbLine
 10
159.90653518152857
 20
-22.68786705425907
 30
0.0
 11
159.9070053387498
 21
-22.687831899026335
 31
0.0
  0
LINE
  5
1C6
330
17
100
AcDbEntity
  8
BOUNDARY
100
AcDbLine
 10
159.9070053387498
 20
-22.687831899026335
 30
0.0
 11
159.9074753404065
 21
-22.687794302849866
 31
0.0
  0
LINE
  5
1C7
330
17
100
AcDbEntity
  8
BOUNDARY
100
AcDbLine
 10
159.9074753404065
 20
-22.687794302849866
 30
0.0
 11
159.90794517606153
 21
-22.687754266562404
 31
0.0
  0
LINE
  5
1C8
330
17
100
AcDbEntity
  8
BOUNDARY
100
AcDbLine
 10
159.90794517606153
 20
-22.687754266562404
 30
0.0
 11
159.90841483528143
 21
-22.68771179105074
 31
0.0
  0
LINE
  5
1C9
330
17
100
AcDbEntity
  8
BOUNDARY
100
AcDbLine
 10
159.90841483528143
 20
-22.68771179105074
 30
0.0
 11
159.90888430763675
 21
-22.687666877255698
 31
0.0
  0
LINE
  5
1CA
330
17
100
AcDbEntity
  8
BOUNDARY
100
AcDbLine
 10
159.90888430763675
 20
-22.687666877255698
 30
0.0
 11
159.90935358270204
 21
-22.687619526172096
 31
0.0
  0
LINE
  5
1CB
330
17
100
AcDbEntity
  8
BOUNDARY
100
AcDbLine
 10
159.90935358270204
 20
-22.687619526172096
 30
0.0
 11
159.90982265005636
 21
-22.68756973884875
 31
0.0
  0
LINE
  5
1CC
330
17
100
AcDbEntity
  8
BOUNDARY
100
AcDbLine
 10
159.90982265005636
 20
-22.68756973884875
 30
0.0
 11
159.91029149928332
 21
-22.687517516388446
 31
0.0
  0
LINE
  5
1CD
330
17
100
AcDbEntity
  8
BOUNDARY
100
AcDbLine
 10
159.91029149928332
 20
-22.687517516388446
 30
0.0
 11
159.9107601199714
 21
-22.687462859947885
 31
0.0
  0
LINE
  5
1CE
330
17
100
AcDbEntity
  8
BOUNDARY
100
AcDbLine
 10
159.9107601199714
 20
-22.687462859947885
 30
0.0
 11
159.9112285017141
 21
-22.6874057707377
 31
0.0
  0
LINE
  5
1CF
330
17
100
AcDbEntity
  8
BOUNDARY
100
AcDbLine
 10
159.9112285017141
 20
-22.6874057707377
 30
0.0
 11
159.9116966341103
 21
-22.68734625002242
 31
0.0
  0
LINE
  5
1D0
330
17
100
AcDbEntity
  8
BOUNDARY
100
AcDbLine
 10
159.9116966341103
 20
-22.68734625002242
 30
0.0
 11
159.9121645067644
 21
-22.68728429912041
 31
0.0
  0
LINE
  5
1D1
330
17
100
AcDbEntity
  8
BOUNDARY
100
AcDbLine
 10
159.9121645067644
 20
-22.68728429912041
 30
0.0
 11
159.91263210928656
 21
-22.687219919403887
 31
0.0
  0
LINE
  5
1D2
330
17
100
AcDbEntity
  8
BOUNDARY
100
AcDbLine
 10
159.91263210928656
 20
-22.687219919403887
 30
0.0
 11
159.9130994312929
 21
-22.687153112298834
 31
0.0
  0
LINE
  5
1D3
330
17
100
AcDbEntity
  8
BOUNDARY
100
AcDbLine
 10
159.9130994312929
 20
-22.687153112298834
 30
0.0
 11
159.91356646240578
 21
-22.687083879285048
 31
0.0
  0
LINE
  5
1D4
330
17
100
AcDbEntity
  8
BOUNDARY
100
AcDbLine
 10
159.91356646240578
 20
-22.687083879285048
 30
0.0
 11
159.9140331922541
 21
-22.687012221896033
 31
0.0
  0
LINE
  5
1D5
330
17
100
AcDbEntity
  8
BOUNDARY
100
AcDbLine
 10
159.9140331922541
 20
-22.687012221896033
 30
0.0
 11
159.91449961047337
 21
-22.686938141718997
 31
0.0
  0
LINE
  5
1D6
330
17
100
AcDbEntity
  8
BOUNDARY
100
AcDbLine
 10
159.91449961047337
 20
-22.686938141718997
 30
0.0
 11
159.91496570670603
 21
-22.686861640394824
 31
0.0
  0
LINE
  5
1D7
330
17
100
AcDbEntity
  8
BOUNDARY
100
AcDbLine
 10
159.91496570670603
 20
-22.686861640394824
 30
0.0
 11
159.91543147060167
 21
-22.68678271961803
 31
0.0
  0
LINE
  5
1D8
330
17
100
AcDbEntity
  8
BOUNDARY
100
AcDbLine
 10
159.91543147060167
 20
-22.68678271961803
 30
0.0
 11
159.9158968918173
 21
-22.686701381136718
 31
0.0
  0
LINE
  5
1D9
330
17
100
AcDbEntity
  8
BOUNDARY
100
AcDbLine
 10
159.9158968918173
 20
-22.686701381136718
 30
0.0
 11
159.91636196001753
 21
-22.68661762675255
 31
0.0
  0
LINE
  5
1DA
330
17
100
AcDbEntity
  8
BOUNDARY
100
AcDbLine
 10
159.91636196001753
 20
-22.68661762675255
 30
0.0
 11
159.91682666487472
 21
-22.686531458320708
 31
0.0
  0
LINE
  5
1DB
330
17
100
AcDbEntity
  8
BOUNDARY
100
AcDbLine
 10
159.91682666487472
 20
-22.686531458320708
 30
0.0
 11
159.91729099606943
 21
-22.686442877749844
 31
0.0
  0
LINE
  5
1DC
330
17
100
AcDbEntity
  8
BOUNDARY
100
AcDbLine
 10
159.91729099606943
 20
-22.686442877749844
 30
0.0
 11
159.91775494329045
 21
-22.686351887002044
 31
0.0
  0
LINE
  5
1DD
330
17
100
AcDbEntity
  8
BOUNDARY
100
AcDbLine
 10
159.91775494329045
 20
-22.686351887002044
 30
0.0
 11
159.91821849623508
 21
-22.68625848809278
 31
0.0
  0
LINE
  5
1DE
330
17
100
AcDbEntity
  8
BOUNDARY
100
AcDbLine
 10
159.91821849623508
 20
-22.68625848809278
 30
0.0
 11
159.91868164460945
 21
-22.68616268309088
 31
0.0
  0
LINE
  5
1DF
330
17
100
AcDbEntity
  8
BOUNDARY
100
AcDbLine
 10
159.91868164460945
 20
-22.68616268309088
 30
0.0
 11
159.91914437812855
 21
-22.68606447411848
 31
0.0
  0
LINE
  5
1E0
330
17
100
AcDbEntity
  8
BOUNDARY
100
AcDbLine
 10
159.91914437812855
 20
-22.68606447411848
 30
0.0
 11
159.91960668651672
 21
-22.685963863350946
 31
0.0
  0
LINE
  5
1E1
330
17
100
AcDbEntity
  8
BOUNDARY
100
AcDbLine
 10
159.91960668651672
 20
-22.685963863350946
 30
0.0
 11
159.92006855950763
 21
-22.685860853016866
 31
0.0
  0
LINE
  5
1E2
330
17
100
AcDbEntity
  8
BOUNDARY
100
AcDbLine
 10
159.92006855950763
 20
-22.685860853016866
 30
0.0
 11
159.9205299868447
 21
-22.685755445397977
 31
0.0
  0
LINE
  5
1E3
330
17
100
AcDbEntity
  8
BOUNDARY
100
AcDbLine
 10
159.9205299868447
 20
-22.685755445397977
 30
0.0
 11
159.9209909582812
 21
-22.68564764282912
 31
0.0
  0
LINE
  5
1E4
330
17
100
AcDbEntity
  8
BOUNDARY
100
AcDbLine
 10
159.9209909582812
 20
-22.68564764282912
 30
0.0
 11
159.92145146358052
 21
-22.68553744769822
 31
0.0
  0
LINE
  5
1E5
330
17
100
AcDbEntity
  8
BOUNDARY
100
AcDbLine
 10
159.92145146358052
 20
-22.68553744769822
 30
0.0
 11
159.92191149251647
 21
-22.68542486244617
 31
0.0
  0
LINE
  5
1E6
330
17
100
AcDbEntity
  8
BOUNDARY
100
AcDbLine
 10
159.92191149251647
 20
-22.68542486244617
 30
0.0
 11
159.92237103487332
 21
-22.68530988956682
 31
0.0
  0
LINE
  5
1E7
330
17
100
AcDbEntity
  8
BOUNDARY
100
AcDbLine
 10
159.92237103487332
 20
-22.68530988956682
 30
0.0
 11
159.92283008044623
 21
-22.68519253160693
 31
0.0
  0
LINE
  5
1E8
330
17
100
AcDbEntity
  8
BOUNDARY
100
AcDbLine
 10
159.92283008044623
 20
-22.68519253160693
 30
0.0
 11
159.92328861904141
 21
-22.68507279116609
 31
0.0
  0
LINE
  5
1E9
330
17
100
AcDbEntity
  8
BOUNDARY
100
AcDbLine
 10
159.92328861904141
 20
-22.68507279116609
 30
0.0
 11
159.92374664047625
 21
-22.68495067089666
 31
0.0
  0
LINE
  5
1EA
330
17
100
AcDbEntity
  8
BOUNDARY
100
AcDbLine
 10
159.92374664047625
 20
-22.68495067089666
 30
0.0
 11
159.9242041345797
 21
-22.684826173503744
 31
0.0
  0
LINE
  5
1EB
330
17
100
AcDbEntity
  8
BOUNDARY
100
AcDbLine
 10
159.9242041345797
 20
-22.684826173503744
 30
0.0
 11
159.92466109119235
 21
-22.684699301745088
 31
0.0
  0
LINE
  5
1EC
330
17
100
AcDbEntity
  8
BOUNDARY
100
AcDbLine
 10
159.92466109119235
 20
-22.684699301745088
 30
0.0
 11
159.92511750016678
 21
-22.684570058431063
 31
0.0
  0
LINE
  5
1ED
330
17
100
AcDbEntity
  8
BOUNDARY
100
AcDbLine
 10
159.92511750016678
 20
-22.684570058431063
 30
0.0
 11
159.9255733513677
 21
-22.684438446424572
 31
0.0
  0
LINE
  5
1EE
330
17
100
AcDbEntity
  8
BOUNDARY
100
AcDbLine
 10
159.9255733513677
 20
-22.684438446424572
 30
0.0
 11
159.92602863467224
 21
-22.684304468640978
 31
0.0
  0
LINE
  5
1EF
330
17
100
AcDbEntity
  8
BOUNDARY
100
AcDbLine
 10
159.92602863467224
 20
-22.684304468640978
 30
0.0
 11
159.92648333997008
 21
-22.68416812804809
 31
0.0
  0
LINE
  5
1F0
330
17
100
AcDbEntity
  8
BOUNDARY
100
AcDbLine
 10
159.92648333997008
 20
-22.68416812804809
 30
0.0
 11
159.92693745716383
 21
-22.68402942766604
 31
0.0
  0
LINE
  5
1F1
330
17
100
AcDbEntity
  8
BOUNDARY
100
AcDbLine
 10
159.92693745716383
 20
-22.68402942766604
 30
0.0
 11
159.92739097616908
 21
-22.68388837056726
 31
0.0
  0
LINE
  5
1F2
330
17
100
AcDbEntity
  8
BOUNDARY
100
AcDbLine
 10
159.92739097616908
 20
-22.68388837056726
 30
0.0
 11
159.92784388691473
 21
-22.683744959876382
 31
0.0
  0
LINE
  5
1F3
330
17
100
AcDbEntity
  8
BOUNDARY
100
AcDbLine
 10
159.92784388691473
 20
-22.683744959876382
 30
0.0
 11
159.9282961793432
 21
-22.683599198770196
 31
0.0
  0
LINE
  5
1F4
330
17
100
AcDbEntity
  8
BOUNDARY
100
AcDbLine
 10
159.9282961793432
 20
-22.683599198770196
 30
0.0
 11
159.92874784341058
 21
-22.683451090477565
 31
0.0
  0
LINE
  5
1F5
330
17
100
AcDbEntity
  8
BOUNDARY
100
AcDbLine
 10
159.92874784341058
 20
-22.683451090477565
 30
0.0
 11
159.929198869087
 21
-22.68330063827935
 31
0.0
  0
LINE
  5
1F6
330
17
100
AcDbEntity
  8
BOUNDARY
100
AcDbLine
 10
159.929198869087
 20
-22.68330063827935
 30
0.0
 11
159.92964924635675
 21
-22.68314784550836
 31
0.0
  0
LINE
  5
1F7
330
17
100
AcDbEntity
  8
BOUNDARY
100
AcDbLine
 10
159.92964924635675
 20
-22.68314784550836
 30
0.0
 11
159.93009896521843
 21
-22.68299271554925
 31
0.0
  0
LINE
  5
1F8
330
17
100
AcDbEntity
  8
BOUNDARY
100
AcDbLine
 10
159.93009896521843
 20
-22.68299271554925
 30
0.0
 11
159.9305480156854
 21
-22.68283525183846
 31
0.0
  0
LINE
  5
1F9
330
17
100
AcDbEntity
  8
BOUNDARY
100
AcDbLine
 10
159.9305480156854
 20
-22.68283525183846
 30
0.0
 11
159.9309963877857
 21
-22.682675457864153
 31
0.0
  0
LINE
  5
1FA
330
17
100
AcDbEntity
  8
BOUNDARY
100
AcDbLine
 10
159.9309963877857
 20
-22.682675457864153
 30
0.0
 11
159.93144407156262
 21
-22.682513337166117
 31
0.0
  0
LINE
  5
1FB
330
17
100
AcDbEntity
  8
BOUNDARY
100
AcDbLine
 10
159.93144407156262
 20
-22.682513337166117
 30
0.0
 11
159.9318910570746
 21
-22.682348893335693
 31
0.0
  0
LINE
  5
1FC
330
17
100
AcDbEntity
  8
BOUNDARY
100
AcDbLine
 10
159.9318910570746
 20
-22.682348893335693
 30
0.0
 11
159.9323373343956
 21
-22.682182130015704
 31
0.0
  0
LINE
  5
1FD
330
17
100
AcDbEntity
  8
BOUNDARY
100
AcDbLine
 10
159.9323373343956
 20
-22.682182130015704
 30
0.0
 11
159.93278289361538
 21
-22.682013050900363
 31
0.0
  0
LINE
  5
1FE
330
17
100
AcDbEntity
  8
BOUNDARY
100
AcDbLine
 10
159.93278289361538
 20
-22.682013050900363
 30
0.0
 11
159.93322772483955
 21
-22.681841659735195
 31
0.0
  0
LINE
  5
1FF
330
17
100
AcDbEntity
  8
BOUNDARY
100
AcDbLine
 10
159.93322772483955
 20
-22.681841659735195
 30
0.0
 11
159.93367181819
 21
-22.681667960316975
 31
0.0
  0
LINE
  5
200
330
17
100
AcDbEntity
  8
BOUNDARY
100
AcDbLine
 10
159.93367181819
 20
-22.681667960316975
 30
0.0
 11
159.93411516380485
 21
-22.681491956493613
 31
0.0
  0
LINE
  5
201
330
17
100
AcDbEntity
  8
BOUNDARY
100
AcDbLine
 10
159.93411516380485
 20
-22.681491956493613
 30
0.0
 11
159.93455775183898
 21
-22.681313652164082
 31
0.0
  0
LINE
  5
202
330
17
100
AcDbEntity
  8
BOUNDARY
100
AcDbLine
 10
159.93455775183898
 20
-22.681313652164082
 30
0.0
 11
159.93499957246402
 21
-22.681133051278344
 31
0.0
  0
LINE
  5
203
330
17
100
AcDbEntity
  8
BOUNDARY
100
AcDbLine
 10
159.93499957246402
 20
-22.681133051278344
 30
0.0
 11
159.93544061586866
 21
-22.68095015783724
 31
0.0
  0
LINE
  5
204
330
17
100
AcDbEntity
  8
BOUNDARY
100
AcDbLine
 10
159.93544061586866
 20
-22.68095015783724
 30
0.0
 11
159.9358808722588
 21
-22.680764975892426
 31
0.0
  0
LINE
  5
205
330
17
100
AcDbEntity
  8
BOUNDARY
100
AcDbLine
 10
159.9358808722588
 20
-22.680764975892426
 30
0.0
 11
159.93632033185787
 21
-22.680577509546264
 31
0.0
  0
LINE
  5
206
330
17
100
AcDbEntity
  8
BOUNDARY
100
AcDbLine
 10
159.93632033185787
 20
-22.680577509546264
 30
0.0
 11
159.93675898490702
 21
-22.680387762951746
 31
0.0
  0
LINE
  5
207
330
17
100
AcDbEntity
  8
BOUNDARY
100
AcDbLine
 10
159.93675898490702
 20
-22.680387762951746
 30
0.0
 11
159.93719682166522
 21
-22.680195740312392
 31
0.0
  0
LINE
  5
208
330
17
100
AcDbEntity
  8
BOUNDARY
100
AcDbLine
 10
159.93719682166522
 20
-22.680195740312392
 30
0.0
 11
159.93763383240963
 21
-22.680001445882173
 31
0.0
  0
LINE
  5
209
330
17
100
AcDbEntity
  8
BOUNDARY
100
AcDbLine
 10
159.93763383240963
 20
-22.680001445882173
 30
0.0
 11
159.93807000743575
 21
-22.679804883965403
 31
0.0
  0
LINE
  5
20A
330
17
100
AcDbEntity
  8
BOUNDARY
100
AcDbLine
 10
159.93807000743575
 20
-22.679804883965403
 30
0.0
 11
159.93850533705765
 21
-22.67960605891663
 31
0.0
  0
LINE
  5
20B
330
17
100
AcDbEntity
  8
BOUNDARY
100
AcDbLine
 10
159.93850533705765
 20
-22.67960605891663
 30
0.0
 11
159.93893981160812
 21
-22.67940497514059
 31
0.0
  0
LINE
  5
20C
330
17
100
AcDbEntity
  8
BOUNDARY
100
AcDbLine
 10
159.93893981160812
 20
-22.67940497514059
 30
0.0
 11
159.93937342143897
 21
-22.679201637092046
 31
0.0
  0
LINE
  5
20D
330
17
100
AcDbEntity
  8
BOUNDARY
100
AcDbLine
 10
159.93937342143897
 20
-22.679201637092046
 30
0.0
 11
159.93980615692124
 21
-22.678996049275764
 31
0.0
  0
LINE
  5
20E
330
17
100
AcDbEntity
  8
BOUNDARY
100
AcDbLine
 10
159.93980615692124
 20
-22.678996049275764
 30
0.0
 11
159.94023800844533
 21
-22.678788216246318
 31
0.0
  0
LINE
  5
20F
330
17
100
AcDbEntity
  8
BOUNDARY
100
AcDbLine
 10
159.94023800844533
 20
-22.678788216246318
 30
0.0
 11
159.94066896642133
 21
-22.6785781426081
 31
0.0
  0
LINE
  5
210
330
17
100
AcDbEntity
  8
BOUNDARY
100
AcDbLine
 10
159.94066896642133
 20
-22.6785781426081
 30
0.0
 11
159.94109902127911
 21
-22.67836583301512
 31
0.0
  0
LINE
  5
211
330
17
100
AcDbEntity
  8
BOUNDARY
100
AcDbLine
 10
159.94109902127911
 20
-22.67836583301512
 30
0.0
 11
159.94152816346866
 21
-22.67815129217098
 31
0.0
  0
LINE
  5
212
330
17
100
AcDbEntity
  8
BOUNDARY
100
AcDbLine
 10
159.94152816346866
 20
-22.67815129217098
 30
0.0
 11
159.9419563834602
 21
-22.677934524828704
 31
0.0
  0
LINE
  5
213
330
17
100
AcDbEntity
  8
BOUNDARY
100
AcDbLine
 10
159.9419563834602
 20
-22.677934524828704
 30
0.0
 11
159.94238367174438
 21
-22.677715535790696
 31
0.0
  0
LINE
  5
214
330
17
100
AcDbEntity
  8
BOUNDARY
100
AcDbLine
 10
159.94238367174438
 20
-22.677715535790696
 30
0.0
 11
159.9428100188327
 21
-22.677494329908587
 31
0.0
  0
LINE
  5
215
330
17
100
AcDbEntity
  8
BOUNDARY
100
AcDbLine
 10
159.9428100188327
 20
-22.677494329908587
 30
0.0
 11
159.94323541525733
 21
-22.677270912083156
 31
0.0
  0
LINE
  5
216
330
17
100
AcDbEntity
  8
BOUNDARY
100
AcDbLine
 10
159.94323541525733
 20
-22.677270912083156
 30
0.0
 11
159.94365985157174
 21
-22.677045287264203
 31
0.0
  0
LINE
  5
217
330
17
100
AcDbEntity
  8
BOUNDARY
100
AcDbLine
 10
159.94365985157174
 20
-22.677045287264203
 30
0.0
 11
159.94408331835066
 21
-22.676817460450465
 31
0.0
  0
LINE
  5
218
330
17
100
AcDbEntity
  8
BOUNDARY
100
AcDbLine
 10
159.94408331835066
 20
-22.676817460450465
 30
0.0
 11
159.94450580619036
 21
-22.67658743668947
 31
0.0
  0
LINE
  5
219
330
17
100
AcDbEntity
  8
BOUNDARY
100
AcDbLine
 10
159.94450580619036
 20
-22.67658743668947
 30
0.0
 11
159.9449273057088
 21
-22.67635522107746
 31
0.0
  0
LINE
  5
21A
330
17
100
AcDbEntity
  8
BOUNDARY
100
AcDbLine
 10
159.9449273057088
 20
-22.67635522107746
 30
0.0
 11
159.94534780754591
 21
-22.676120818759266
 31
0.0
  0
LINE
  5
21B
330
17
100
AcDbEntity
  8
BOUNDARY
100
AcDbLine
 10
159.94534780754591
 20
-22.676120818759266
 30
0.0
 11
159.94576730236383
 21
-22.67588423492818
 31
0.0
  0
LINE
  5
21C
330
17
100
AcDbEntity
  8
BOUNDARY
100
AcDbLine
 10
159.94576730236383
 20
-22.67588423492818
 30
0.0
 11
159.946185780847
 21
-22.675645474825885
 31
0.0
  0
LINE
  5
21D
330
17
100
AcDbEntity
  8
BOUNDARY
100
AcDbLine
 10
159.946185780847
 20
-22.675645474825885
 30
0.0
 11
159.94660323370246
 21
-22.675404543742275
 31
0.0
  0
LINE
  5
21E
330
17
100
AcDbEntity
  8
BOUNDARY
100
AcDbLine
 10
159.94660323370246
 20
-22.675404543742275
 30
0.0
 11
159.94701965165999
 21
-22.675161447015387
 31
0.0
  0
LINE
  5
21F
330
17
100
AcDbEntity
  8
BOUNDARY
100
AcDbLine
 10
159.94701965165999
 20
-22.675161447015387
 30
0.0
 11
159.94743502547237
 21
-22.67491619003128
 31
0.0
  0
LINE
  5
220
330
17
100
AcDbEntity
  8
BOUNDARY
100
AcDbLine
 10
159.94743502547237
 20
-22.67491619003128
 30
0.0
 11
159.94784934591564
 21
-22.67466877822388
 31
0.0
  0
LINE
  5
221
330
17
100
AcDbEntity
  8
BOUNDARY
100
AcDbLine
 10
159.94784934591564
 20
-22.67466877822388
 30
0.0
 11
159.9482626037891
 21
-22.674419217074917
 31
0.0
  0
LINE
  5
222
330
17
100
AcDbEntity
  8
BOUNDARY
100
AcDbLine
 10
159.9482626037891
 20
-22.674419217074917
 30
0.0
 11
159.94867478991569
 21
-22.674167512113762
 31
0.0
  0
LINE
  5
223
330
17
100
AcDbEntity
  8
BOUNDARY
100
AcDbLine
 10
159.94867478991569
 20
-22.674167512113762
 30
0.0
 11
159.94908589514225
 21
-22.6739136689173
 31
0.0
  0
LINE
  5
224
330
17
100
AcDbEntity
  8
BOUNDARY
100
AcDbLine
 10
159.94908589514225
 20
-22.6739136689173
 30
0.0
 11
159.94949591033946
 21
-22.673657693109853
 31
0.0
  0
LINE
  5
225
330
17
100
AcDbEntity
  8
BOUNDARY
100
AcDbLine
 10
159.94949591033946
 20
-22.673657693109853
 30
0.0
 11
159.9499048264024
 21
-22.673399590363005
 31
0.0
  0
LINE
  5
226
330
17
100
AcDbEntity
  8
BOUNDARY
100
AcDbLine
 10
159.9499048264024
 20
-22.673399590363005
 30
0.0
 11
159.9503126342503
 21
-22.673139366395514
 31
0.0
  0
LINE
  5
227
330
17
100
AcDbEntity
  8
BOUNDARY
100
AcDbLine
 10
159.9503126342503
 20
-22.673139366395514
 30
0.0
 11
159.95071932482728
 21
-22.672877026973165
 31
0.0
  0
LINE
  5
228
330
17
100
AcDbEntity
  8
BOUNDARY
100
AcDbLine
 10
159.95071932482728
 20
-22.672877026973165
 30
0.0
 11
159.95112488910206
 21
-22.67261257790865
 31
0.0
  0
LINE
  5
229
330
17
100
AcDbEntity
  8
BOUNDARY
100
AcDbLine
 10
159.95112488910206
 20
-22.67261257790865
 30
0.0
 11
159.95152931806848
 21
-22.672346025061447
 31
0.0
  0
LINE
  5
22A
330
17
100
AcDbEntity
  8
BOUNDARY
100
AcDbLine
 10
159.95152931806848
 20
-22.672346025061447
 30
0.0
 11
159.95193260274556
 21
-22.672077374337672
 31
0.0
  0
LINE
  5
22B
330
17
100
AcDbEntity
  8
BOUNDARY
100
AcDbLine
 10
159.95193260274556
 20
-22.672077374337672
 30
0.0
 11
159.9523347341777
 21
-22.671806631689968
 31
0.0
  0
LINE
  5
22C
330
17
100
AcDbEntity
  8
BOUNDARY
100
AcDbLine
 10
159.9523347341777
 20
-22.671806631689968
 30
0.0
 11
159.952735703435
 21
-22.671533803117374
 31
0.0
  0
LINE
  5
22D
330
17
100
AcDbEntity
  8
BOUNDARY
100
AcDbLine
 10
159.952735703435
 20
-22.671533803117374
 30
0.0
 11
159.95313550161325
 21
-22.671258894665172
 31
0.0
  0
LINE
  5
22E
330
17
100
AcDbEntity
  8
BOUNDARY
100
AcDbLine
 10
159.95313550161325
 20
-22.671258894665172
 30
0.0
 11
159.95353411983433
 21
-22.670981912424782
 31
0.0
  0
LINE
  5
22F
330
17
100
AcDbEntity
  8
BOUNDARY
100
AcDbLine
 10
159.95353411983433
 20
-22.670981912424782
 30
0.0
 11
159.95393154924628
 21
-22.670702862533595
 31
0.0
  0
LINE
  5
230
330
17
100
AcDbEntity
  8
BOUNDARY
100
AcDbLine
 10
159.95393154924628
 20
-22.670702862533595
 30
0.0
 11
159.9543277810236
 21
-22.670421751174878
 31
0.0
  0
LINE
  5
231
330
17
100
AcDbEntity
  8
BOUNDARY
100
AcDbLine
 10
159.9543277810236
 20
-22.670421751174878
 30
0.0
 11
159.9547228063673
 21
-22.6701385845776
 31
0.0
  0
LINE
  5
232
330
17
100
AcDbEntity
  8
BOUNDARY
100
AcDbLine
 10
159.9547228063673
 20
-22.6701385845776
 30
0.0
 11
159.95511661650522
 21
-22.669853369016327
 31
0.0
  0
LINE
  5
233
330
17
100
AcDbEntity
  8
BOUNDARY
100
AcDbLine
 10
159.95511661650522
 20
-22.669853369016327
 30
0.0
 11
159.95550920269224
 21
-22.66956611081105
 31
0.0
  0
LINE
  5
234
330
17
100
AcDbEntity
  8
BOUNDARY
100
AcDbLine
 10
159.95550920269224
 20
-22.66956611081105
 30
0.0
 11
159.9559005562103
 21
-22.669276816327088
 31
0.0
  0
LINE
  5
235
330
17
100
AcDbEntity
  8
BOUNDARY
100
AcDbLine
 10
159.9559005562103
 20
-22.669276816327088
 30
0.0
 11
159.95629066836884
 21
-22.66898549197489
 31
0.0
  0
LINE
  5
236
330
17
100
AcDbEntity
  8
BOUNDARY
100
AcDbLine
 10
159.95629066836884
 20
-22.66898549197489
 30
0.0
 11
159.95667953050477
 21
-22.668692144209963
 31
0.0
  0
LINE
  5
237
330
17
100
AcDbEntity
  8
BOUNDARY
100
AcDbLine
 10
159.95667953050477
 20
-22.668692144209963
 30
0.0
 11
159.9570671339828
 21
-22.66839677953267
 31
0.0
  0
LINE
  5
238
330
17
100
AcDbEntity
  8
BOUNDARY
100
AcDbLine
 10
159.9570671339828
 20
-22.66839677953267
 30
0.0
 11
159.9574534701956
 21
-22.668099404488128
 31
0.0
  0
LINE
  5
239
330
17
100
AcDbEntity
  8
BOUNDARY
100
AcDbLine
 10
159.9574534701956
 20
-22.668099404488128
 30
0.0
 11
159.95783853056398
 21
-22.66780002566604
 31
0.0
  0
LINE
  5
23A
330
17
100
AcDbEntity
  8
BOUNDARY
100
AcDbLine
 10
159.95783853056398
 20
-22.66780002566604
 30
0.0
 11
159.958222306537
 21
-22.667498649700548
 31
0.0
  0
LINE
  5
23B
330
17
100
AcDbEntity
  8
BOUNDARY
100
AcDbLine
 10
159.958222306537
 20
-22.667498649700548
 30
0.0
 11
159.9586047895924
 21
-22.667195283270114
 31
0.0
  0
LINE
  5
23C
330
17
100
AcDbEntity
  8
BOUNDARY
100
AcDbLine
 10
159.9586047895924
 20
-22.667195283270114
 30
0.0
 11
159.95898597123653
 21
-22.66688993309734
 31
0.0
  0
LINE
  5
23D
330
17
100
AcDbEntity
  8
BOUNDARY
100
AcDbLine
 10
159.95898597123653
 20
-22.66688993309734
 30
0.0
 11
159.9593658430046
 21
-22.66658260594886
 31
0.0
  0
LINE
  5
23E
330
17
100
AcDbEntity
  8
BOUNDARY
100
AcDbLine
 10
159.9593658430046
 20
-22.66658260594886
 30
0.0
 11
159.95974439646102
 21
-22.666273308635127
 31
0.0
  0
LINE
  5
23F
330
17
100
AcDbEntity
  8
BOUNDARY
100
AcDbLine
 10
159.95974439646102
 20
-22.666273308635127
 30
0.0
 11
159.96012162319937
 21
-22.66596204801033
 31
0.0
  0
LINE
  5
240
330
17
100
AcDbEntity
  8
BOUNDARY
100
AcDbLine
 10
159.96012162319937
 20
-22.66596204801033
 30
0.0
 11
159.96049751484276
 21
-22.665648830972216
 31
0.0
  0
LINE
  5
241
330
17
100
AcDbEntity
  8
BOUNDARY
100
AcDbLine
 10
159.96049751484276
 20
-22.665648830972216
 30
0.0
 11
159.96087206304395
 21
-22.66533366446192
 31
0.0
  0
LINE
  5
242
330
17
100
AcDbEntity
  8
BOUNDARY
100
AcDbLine
 10
159.96087206304395
 20
-22.66533366446192
 30
0.0
 11
159.96124525948545
 21
-22.66501655546384
 31
0.0
  0
LINE
  5
243
330
17
100
AcDbEntity
  8
BOUNDARY
100
AcDbLine
 10
159.96124525948545
 20
-22.66501655546384
 30
0.0
 11
159.96161709587992
 21
-22.664697511005482
 31
0.0
  0
LINE
  5
244
330
17
100
AcDbEntity
  8
BOUNDARY
100
AcDbLine
 10
159.96161709587992
 20
-22.664697511005482
 30
0.0
 11
159.9619875639701
 21
-22.664376538157274
 31
0.0
  0
LINE
  5
245
330
17
100
AcDbEntity
  8
BOUNDARY
100
AcDbLine
 10
159.9619875639701
 20
-22.664376538157274
 30
0.0
 11
159.96235665552916
 21
-22.664053644032446
 31
0.0
  0
LINE
  5
246
330
17
100
AcDbEntity
  8
BOUNDARY
100
AcDbLine
 10
159.96235665552916
 20
-22.664053644032446
 30
0.0
 11
159.9627243623609
 21
-22.663728835786863
 31
0.0
  0
LINE
  5
247
330
17
100
AcDbEntity
  8
BOUNDARY
100
AcDbLine
 10
159.9627243623609
 20
-22.663728835786863
 30
0.0
 11
159.96309067629971
 21
-22.663402120618848
 31
0.0
  0
LINE
  5
248
330
17
100
AcDbEntity
  8
BOUNDARY
100
AcDbLine
 10
159.96309067629971
 20
-22.663402120618848
 30
0.0
 11
159.96345558921112
 21
-22.663073505769056
 31
0.0
  0
LINE
  5
249
330
17
100
AcDbEntity
  8
BOUNDARY
100
AcDbLine
 10
159.96345558921112
 20
-22.663073505769056
 30
0.0
 11
159.96381909299163
 21
-22.662742998520283
 31
0.0
  0
LINE
  5
24A
330
17
100
AcDbEntity
  8
BOUNDARY
100
AcDbLine
 10
159.96381909299163
 20
-22.662742998520283
 30
0.0
 11
159.96418117956907
 21
-22.662410606197334
 31
0.0
  0
LINE
  5
24B
330
17
100
AcDbEntity
  8
BOUNDARY
100
AcDbLine
 10
159.96418117956907
 20
-22.662410606197334
 30
0.0
 11
159.9645418409027
 21
-22.662076336166834
 31
0.0
  0
LINE
  5
24C
330
17
100
AcDbEntity
  8
BOUNDARY
100
AcDbLine
 10
159.9645418409027
 20
-22.662076336166834
 30
0.0
 11
159.96490106898352
 21
-22.661740195837083
 31
0.0
  0
LINE
  5
24D
330
17
100
AcDbEntity
  8
BOUNDARY
100
AcDbLine
 10
159.96490106898352
 20
-22.661740195837083
 30
0.0
 11
159.9652588558343
 21
-22.66140219265791
 31
0.0
  0
LINE
  5
24E
330
17
100
AcDbEntity
  8
BOUNDARY
100
AcDbLine
 10
159.9652588558343
 20
-22.66140219265791
 30
0.0
 11
159.9656151935098
 21
-22.66106233412045
 31
0.0
  0
LINE
  5
24F
330
17
100
AcDbEntity
  8
BOUNDARY
100
AcDbLine
 10
159.9656151935098
 20
-22.66106233412045
 30
0.0
 11
159.965970074097
 21
-22.66072062775706
 31
0.0
  0
LINE
  5
250
330
17
100
AcDbEntity
  8
BOUNDARY
100
AcDbLine
 10
159.965970074097
 20
-22.66072062775706
 30
0.0
 11
159.9663234897152
 21
-22.660377081141064
 31
0.0
  0
LINE
  5
251
330
17
100
AcDbEntity
  8
BOUNDARY
100
AcDbLine
 10
159.9663234897152
 20
-22.660377081141064
 30
0.0
 11
159.96667543251627
 21
-22.66003170188667
 31
0.0
  0
LINE
  5
252
330
17
100
AcDbEntity
  8
BOUNDARY
100
AcDbLine
 10
159.96667543251627
 20
-22.66003170188667
 30
0.0
 11
159.96702589468475
 21
-22.659684497648747
 31
0.0
  0
LINE
  5
253
330
17
100
AcDbEntity
  8
BOUNDARY
100
AcDbLine
 10
159.96702589468475
 20
-22.659684497648747
 30
0.0
 11
159.96737486843813
 21
-22.65933547612268
 31
0.0
  0
LINE
  5
254
330
17
100
AcDbEntity
  8
BOUNDARY
100
AcDbLine
 10
159.96737486843813
 20
-22.65933547612268
 30
0.0
 11
159.96772234602682
 21
-22.65898464504419
 31
0.0
  0
LINE
  5
255
330
17
100
AcDbEntity
  8
BOUNDARY
100
AcDbLine
 10
159.96772234602682
 20
-22.65898464504419
 30
0.0
 11
159.9680683197346
 21
-22.658632012189155
 31
0.0
  0
LINE
  5
256
330
17
100
AcDbEntity
  8
BOUNDARY
100
AcDbLine
 10
159.9680683197346
 20
-22.658632012189155
 30
0.0
 11
159.96841278187856
 21
-22.658277585373487
 31
0.0
  0
LINE
  5
257
330
17
100
AcDbEntity
  8
BOUNDARY
100
AcDbLine
 10
159.96841278187856
 20
-22.658277585373487
 30
0.0
 11
159.96875572480937
 21
-22.65792137245289
 31
0.0
  0
LINE
  5
258
330
17
100
AcDbEntity
  8
BOUNDARY
100
AcDbLine
 10
159.96875572480937
 20
-22.65792137245289
 30
0.0
 11
159.96909714091143
 21
-22.65756338132273
 31
0.0
  0
LINE
  5
259
330
17
100
AcDbEntity
  8
BOUNDARY
100
AcDbLine
 10
159.96909714091143
 20
-22.65756338132273
 30
0.0
 11
159.9694370226031
 21
-22.65720361991787
 31
0.0
  0
LINE
  5
25A
330
17
100
AcDbEntity
  8
BOUNDARY
100
AcDbLine
 10
159.9694370226031
 20
-22.65720361991787
 30
0.0
 11
159.96977536233675
 21
-22.656842096212447
 31
0.0
  0
LINE
  5
25B
330
17
100
AcDbEntity
  8
BOUNDARY
100
AcDbLine
 10
159.96977536233675
 20
-22.656842096212447
 30
0.0
 11
159.97011215259903
 21
-22.656478818219743
 31
0.0
  0
LINE
  5
25C
330
17
100
AcDbEntity
  8
BOUNDARY
100
AcDbLine
 10
159.97011215259903
 20
-22.656478818219743
 30
0.0
 11
159.97044738591097
 21
-22.656113793992
 31
0.0
  0
LINE
  5
25D
330
17
100
AcDbEntity
  8
BOUNDARY
100
AcDbLine
 10
159.97044738591097
 20
-22.656113793992
 30
0.0
 11
159.97078105482817
 21
-22.655747031620212
 31
0.0
  0
LINE
  5
25E
330
17
100
AcDbEntity
  8
BOUNDARY
100
AcDbLine
 10
159.97078105482817
 20
-22.655747031620212
 30
0.0
 11
159.97111315194104
 21
-22.65537853923399
 31
0.0
  0
LINE
  5
25F
330
17
100
AcDbEntity
  8
BOUNDARY
100
AcDbLine
 10
159.97111315194104
 20
-22.65537853923399
 30
0.0
 11
159.9714436698748
 21
-22.65500832500134
 31
0.0
  0
LINE
  5
260
330
17
100
AcDbEntity
  8
BOUNDARY
100
AcDbLine
 10
159.9714436698748
 20
-22.65500832500134
 30
0.0
 11
159.97177260128979
 21
-22.65463639712853
 31
0.0
  0
LINE
  5
261
330
17
100
AcDbEntity
  8
BOUNDARY
100
AcDbLine
 10
159.97177260128979
 20
-22.65463639712853
 30
0.0
 11
159.97209993888157
 21
-22.65426276385986
 31
0.0
  0
LINE
  5
262
330
17
100
AcDbEntity
  8
BOUNDARY
100
AcDbLine
 10
159.97209993888157
 20
-22.65426276385986
 30
0.0
 11
159.97242567538112
 21
-22.65388743347752
 31
0.0
  0
LINE
  5
263
330
17
100
AcDbEntity
  8
BOUNDARY
100
AcDbLine
 10
159.97242567538112
 20
-22.65388743347752
 30
0.0
 11
159.9727498035549
 21
-22.65351041430138
 31
0.0
  0
LINE
  5
264
330
17
100
AcDbEntity
  8
BOUNDARY
100
AcDbLine
 10
159.9727498035549
 20
-22.65351041430138
 30
0.0
 11
159.9730723162052
 21
-22.653131714688826
 31
0.0
  0
LINE
  5
265
330
17
100
AcDbEntity
  8
BOUNDARY
100
AcDbLine
 10
159.9730723162052
 20
-22.653131714688826
 30
0.0
 11
159.97339320617007
 21
-22.652751343034566
 31
0.0
  0
LINE
  5
266
330
17
100
AcDbEntity
  8
BOUNDARY
100
AcDbLine
 10
159.97339320617007
 20
-22.652751343034566
 30
0.0
 11
159.97371246632366
 21
-22.652369307770435
 31
0.0
  0
LINE
  5
267
330
17
100
AcDbEntity
  8
BOUNDARY
100
AcDbLine
 10
159.97371246632366
 20
-22.652369307770435
 30
0.0
 11
159.9740300895763
 21
-22.651985617365245
 31
0.0
  0
LINE
  5
268
330
17
100
AcDbEntity
  8
BOUNDARY
100
AcDbLine
 10
159.9740300895763
 20
-22.651985617365245
 30
0.0
 11
159.97434606887467
 21
-22.65160028032454
 31
0.0
  0
LINE
  5
269
330
17
100
AcDbEntity
  8
BOUNDARY
100
AcDbLine
 10
159.97434606887467
 20
-22.65160028032454
 30
0.0
 11
159.97466039720194
 21
-22.651213305190478
 31
0.0
  0
LINE
  5
26A
330
17
100
AcDbEntity
  8
BOUNDARY
100
AcDbLine
 10
159.97466039720194
 20
-22.651213305190478
 30
0.0
 11
159.974973067578
 21
-22.65082470054158
 31
0.0
  0
LINE
  5
26B
330
17
100
AcDbEntity
  8
BOUNDARY
100
AcDbLine
 10
159.974973067578
 20
-22.65082470054158
 30
0.0
 11
159.97528407305944
 21
-22.65043447499258
 31
0.0
  0
LINE
  5
26C
330
17
100
AcDbEntity
  8
BOUNDARY
100
AcDbLine
 10
159.97528407305944
 20
-22.65043447499258
 30
0.0
 11
159.97559340673996
 21
-22.650042637194215
 31
0.0
  0
LINE
  5
26D
330
17
100
AcDbEntity
  8
BOUNDARY
100
AcDbLine
 10
159.97559340673996
 20
-22.650042637194215
 30
0.0
 11
159.97590106175028
 21
-22.649649195833053
 31
0.0
  0
LINE
  5
26E
330
17
100
AcDbEntity
  8
BOUNDARY
100
AcDbLine
 10
159.97590106175028
 20
-22.649649195833053
 30
0.0
 11
159.97620703125847
 21
-22.649254159631273
 31
0.0
  0
LINE
  5
26F
330
17
100
AcDbEntity
  8
BOUNDARY
100
AcDbLine
 10
159.97620703125847
 20
-22.649254159631273
 30
0.0
 11
159.97651130846998
 21
-22.64885753734651
 31
0.0
  0
LINE
  5
270
330
17
100
AcDbEntity
  8
BOUNDARY
100
AcDbLine
 10
159.97651130846998
 20
-22.64885753734651
 30
0.0
 11
159.97681388662787
 21
-22.648459337771627
 31
0.0
  0
LINE
  5
271
330
17
100
AcDbEntity
  8
BOUNDARY
100
AcDbLine
 10
159.97681388662787
 20
-22.648459337771627
 30
0.0
 11
159.9771147590129
 21
-22.648059569734542
 31
0.0
  0
LINE
  5
272
330
17
100
AcDbEntity
  8
BOUNDARY
100
AcDbLine
 10
159.9771147590129
 20
-22.648059569734542
 30
0.0
 11
159.9774139189437
 21
-22.647658242098025
 31
0.0
  0
LINE
  5
273
330
17
100
AcDbEntity
  8
BOUNDARY
100
AcDbLine
 10
159.9774139189437
 20
-22.647658242098025
 30
0.0
 11
159.97771135977703
 21
-22.647255363759502
 31
0.0
  0
LINE
  5
274
330
17
100
AcDbEntity
  8
BOUNDARY
100
AcDbLine
 10
159.97771135977703
 20
-22.647255363759502
 30
0.0
 11
159.97800707490768
 21
-22.646850943650865
 31
0.0
  0
LINE
  5
275
330
17
100
AcDbEntity
  8
BOUNDARY
100
AcDbLine
 10
159.97800707490768
 20
-22.646850943650865
 30
0.0
 11
159.97830105776887
 21
-22.646444990738267
 31
0.0
  0
LINE
  5
276
330
17
100
AcDbEntity
  8
BOUNDARY
100
AcDbLine
 10
159.97830105776887
 20
-22.646444990738267
 30
0.0
 11
159.97859330183223
 21
-22.646037514021938
 31
0.0
  0
LINE
  5
277
330
17
100
AcDbEntity
  8
BOUNDARY
100
AcDbLine
 10
159.97859330183223
 20
-22.646037514021938
 30
0.0
 11
159.97888380060806
 21
-22.645628522535965
 31
0.0
  0
LINE
  5
278
330
17
100
AcDbEntity
  8
BOUNDARY
100
AcDbLine
 10
159.97888380060806
 20
-22.645628522535965
 30
0.0
 11
159.97917254764533
 21
-22.645218025348104
 31
0.0
  0
LINE
  5
279
330
17
100
AcDbEntity
  8
BOUNDARY
100
AcDbLine
 10
159.97917254764533
 20
-22.645218025348104
 30
0.0
 11
159.97945953653198
 21
-22.644806031559593
 31
0.0
  0
LINE
  5
27A
330
17
100
AcDbEntity
  8
BOUNDARY
100
AcDbLine
 10
159.97945953653198
 20
-22.644806031559593
 30
0.0
 11
159.97974476089496
 21
-22.644392550304925
 31
0.0
  0
LINE
  5
27B
330
17
100
AcDbEntity
  8
BOUNDARY
100
AcDbLine
 10
159.97974476089496
 20
-22.644392550304925
 30
0.0
 11
159.98002821440042
 21
-22.64397759075167
 31
0.0
  0
LINE
  5
27C
330
17
100
AcDbEntity
  8
BOUNDARY
100
AcDbLine
 10
159.98002821440042
 20
-22.64397759075167
 30
0.0
 11
159.98030989075386
 21
-22.64356116210026
 31
0.0
  0
LINE
  5
27D
330
17
100
AcDbEntity
  8
BOUNDARY
100
AcDbLine
 10
159.98030989075386
 20
-22.64356116210026
 30
0.0
 11
159.98058978370017
 21
-22.643143273583778
 31
0.0
  0
LINE
  5
27E
330
17
100
AcDbEntity
  8
BOUNDARY
100
AcDbLine
 10
159.98058978370017
 20
-22.643143273583778
 30
0.0
 11
159.98086788702392
 21
-22.64272393446777
 31
0.0
  0
LINE
  5
27F
330
17
100
AcDbEntity
  8
BOUNDARY
100
AcDbLine
 10
159.98086788702392
 20
-22.64272393446777
 30
0.0
 11
159.9811441945494
 21
-22.642303154050055
 31
0.0
  0
LINE
  5
280
330
17
100
AcDbEntity
  8
BOUNDARY
100
AcDbLine
 10
159.9811441945494
 20
-22.642303154050055
 30
0.0
 11
159.9814187001407
 21
-22.64188094166047
 31
0.0
  0
LINE
  5
281
330
17
100
AcDbEntity
  8
BOUNDARY
100
AcDbLine
 10
159.9814187001407
 20
-22.64188094166047
 30
0.0
 11
159.98169139770206
 21
-22.64145730666071
 31
0.0
  0
LINE
  5
282
330
17
100
AcDbEntity
  8
BOUNDARY
100
AcDbLine
 10
159.98169139770206
 20
-22.64145730666071
 30
0.0
 11
159.9819622811778
 21
-22.641032258444106
 31
0.0
  0
LINE
  5
283
330
17
100
AcDbEntity
  8
BOUNDARY
100
AcDbLine
 10
159.9819622811778
 20
-22.641032258444106
 30
0.0
 11
159.98223134455247
 21
-22.64060580643541
 31
0.0
  0
LINE
  5
284
330
17
100
AcDbEntity
  8
BOUNDARY
100
AcDbLine
 10
159.98223134455247
 20
-22.64060580643541
 30
0.0
 11
159.98249858185116
 21
-22.6401779600906
 31
0.0
  0
LINE
  5
285
330
17
100
AcDbEntity
  8
BOUNDARY
100
AcDbLine
 10
159.98249858185116
 20
-22.6401779600906
 30
0.0
 11
159.98276398713944
 21
-22.63974872889667
 31
0.0
  0
LINE
  5
286
330
17
100
AcDbEntity
  8
BOUNDARY
100
AcDbLine
 10
159.98276398713944
 20
-22.63974872889667
 30
0.0
 11
159.98302755452352
 21
-22.6393181223714
 31
0.0
  0
LINE
  5
287
330
17
100
AcDbEntity
  8
BOUNDARY
100
AcDbLine
 10
159.98302755452352
 20
-22.6393181223714
 30
0.0
 11
159.98328927815052
 21
-22.638886150063172
 31
0.0
  0
LINE
  5
288
330
17
100
AcDbEntity
  8
BOUNDARY
100
AcDbLine
 10
159.98328927815052
 20
-22.638886150063172
 30
0.0
 11
159.9835491522084
 21
-22.63845282155075
 31
0.0
  0
LINE
  5
289
330
17
100
AcDbEntity
  8
BOUNDARY
100
AcDbLine
 10
159.9835491522084
 20
-22.63845282155075
 30
0.0
 11
159.98380717092635
 21
-22.63801814644307
 31
0.0
  0
LINE
  5
28A
330
17
100
AcDbEntity
  8
BOUNDARY
100
AcDbLine
 10
159.98380717092635
 20
-22.63801814644307
 30
0.0
 11
159.98406332857456
 21
-22.63758213437902
 31
0.0
  0
LINE
  5
28B
330
17
100
AcDbEntity
  8
BOUNDARY
100
AcDbLine
 10
159.98406332857456
 20
-22.63758213437902
 30
0.0
 11
159.9843176194647
 21
-22.637144795027233
 31
0.0
  0
LINE
  5
28C
330
17
100
AcDbEntity
  8
BOUNDARY
100
AcDbLine
 10
159.9843176194647
 20
-22.637144795027233
 30
0.0
 11
159.98457003794982
 21
-22.636706138085874
 31
0.0
  0
LINE
  5
28D
330
17
100
AcDbEntity
  8
BOUNDARY
100
AcDbLine
 10
159.98457003794982
 20
-22.636706138085874
 30
0.0
 11
159.98482057842457
 21
-22.636266173282415
 31
0.0
  0
LINE
  5
28E
330
17
100
AcDbEntity
  8
BOUNDARY
100
AcDbLine
 10
159.98482057842457
 20
-22.636266173282415
 30
0.0
 11
159.98506923532534
 21
-22.635824910373458
 31
0.0
  0
LINE
  5
28F
330
17
100
AcDbEntity
  8
BOUNDARY
100
AcDbLine
 10
159.98506923532534
 20
-22.635824910373458
 30
0.0
 11
159.98531600313027
 21
-22.635382359144458
 31
0.0
  0
LINE
  5
290
330
17
100
AcDbEntity
  8
BOUNDARY
100
AcDbLine
 10
159.98531600313027
 20
-22.635382359144458
 30
0.0
 11
159.98556087635953
 21
-22.634938529409563
 31
0.0
  0
LINE
  5
291
330
17
100
AcDbEntity
  8
BOUNDARY
100
AcDbLine
 10
159.98556087635953
 20
-22.634938529409563
 30
0.0
 11
159.9858038495753
 21
-22.634493431011368
 31
0.0
  0
LINE
  5
292
330
17
100
AcDbEntity
  8
BOUNDARY
100
AcDbLine
 10
159.9858038495753
 20
-22.634493431011368
 30
0.0
 11
159.98604491738197
 21
-22.6340470738207
 31
0.0
  0
LINE
  5
293
330
17
100
AcDbEntity
  8
BOUNDARY
100
AcDbLine
 10
159.98604491738197
 20
-22.6340470738207
 30
0.0
 11
159.98628407442627
 21
-22.63359946773641
 31
0.0
  0
LINE
  5
294
330
17
100
AcDbEntity
  8
BOUNDARY
100
AcDbLine
 10
159.98628407442627
 20
-22.63359946773641
 30
0.0
 11
159.98652131539734
 21
-22.633150622685143
 31
0.0
  0
LINE
  5
295
330
17
100
AcDbEntity
  8
BOUNDARY
100
AcDbLine
 10
159.98652131539734
 20
-22.633150622685143
 30
0.0
 11
159.9867566350269
 21
-22.632700548621138
 31
0.0
  0
LINE
  5
296
330
17
100
AcDbEntity
  8
BOUNDARY
100
AcDbLine
 10
159.9867566350269
 20
-22.632700548621138
 30
0.0
 11
159.98699002808925
 21
-22.632249255525984
 31
0.0
  0
LINE
  5
297
330
17
100
AcDbEntity
  8
BOUNDARY
100
AcDbLine
 10
159.98699002808925
 20
-22.632249255525984
 30
0.0
 11
159.98722148940158
 21
-22.6317967534084
 31
0.0
  0
LINE
  5
298
330
17
100
AcDbEntity
  8
BOUNDARY
100
AcDbLine
 10
159.98722148940158
 20
-22.6317967534084
 30
0.0
 11
159.98745101382391
 21
-22.631343052304043
 31
0.0
  0
LINE
  5
299
330
17
100
AcDbEntity
  8
BOUNDARY
100
AcDbLine
 10
159.98745101382391
 20
-22.631343052304043
 30
0.0
 11
159.9876785962593
 21
-22.63088816227526
 31
0.0
  0
LINE
  5
29A
330
17
100
AcDbEntity
  8
BOUNDARY
100
AcDbLine
 10
159.9876785962593
 20
-22.63088816227526
 30
0.0
 11
159.98790423165389
 21
-22.630432093410867
 31
0.0
  0
LINE
  5
29B
330
17
100
AcDbEntity
  8
BOUNDARY
100
AcDbLine
 10
159.98790423165389
 20
-22.630432093410867
 30
0.0
 11
159.9881279149971
 21
-22.62997485582595
 31
0.0
  0
LINE
  5
29C
330
17
100
AcDbEntity
  8
BOUNDARY
100
AcDbLine
 10
159.9881279149971
 20
-22.62997485582595
 30
0.0
 11
159.98834964132175
 21
-22.629516459661595
 31
0.0
  0
LINE
  5
29D
330
17
100
AcDbEntity
  8
BOUNDARY
100
AcDbLine
 10
159.98834964132175
 20
-22.629516459661595
 30
0.0
 11
159.988569405704
 21
-22.629056915084714
 31
0.0
  0
LINE
  5
29E
330
17
100
AcDbEntity
  8
BOUNDARY
100
AcDbLine
 10
159.988569405704
 20
-22.629056915084714
 30
0.0
 11
159.98878720326366
 21
-22.628596232287794
 31
0.0
  0
LINE
  5
29F
330
17
100
AcDbEntity
  8
BOUNDARY
100
AcDbLine
 10
159.98878720326366
 20
-22.628596232287794
 30
0.0
 11
159.98900302916417
 21
-22.628134421488674
 31
0.0
  0
LINE
  5
2A0
330
17
100
AcDbEntity
  8
BOUNDARY
100
AcDbLine
 10
159.98900302916417
 20
-22.628134421488674
 30
0.0
 11
159.9892168786128
 21
-22.62767149293032
 31
0.0
  0
LINE
  5
2A1
330
17
100
AcDbEntity
  8
BOUNDARY
100
AcDbLine
 10
159.9892168786128
 20
-22.62767149293032
 30
0.0
 11
159.9894287468607
 21
-22.627207456880612
 31
0.0
  0
LINE
  5
2A2
330
17
100
AcDbEntity
  8
BOUNDARY
100
AcDbLine
 10
159.9894287468607
 20
-22.627207456880612
 30
0.0
 11
159.98963862920297
 21
-22.62674232363209
 31
0.0
  0
LINE
  5
2A3
330
17
100
AcDbEntity
  8
BOUNDARY
100
AcDbLine
 10
159.98963862920297
 20
-22.62674232363209
 30
0.0
 11
159.98984652097886
 21
-22.626276103501752
 31
0.0
  0
LINE
  5
2A4
330
17
100
AcDbEntity
  8
BOUNDARY
100
AcDbLine
 10
159.98984652097886
 20
-22.626276103501752
 30
0.0
 11
159.99005241757183
 21
-22.62580880683081
 31
0.0
  0
LINE
  5
2A5
330
17
100
AcDbEntity
  8
BOUNDARY
100
AcDbLine
 10
159.99005241757183
 20
-22.62580880683081
 30
0.0
 11
159.99025631440958
 21
-22.625340443984474
 31
0.0
  0
LINE
  5
2A6
330
17
100
AcDbEntity
  8
BOUNDARY
100
AcDbLine
 10
159.99025631440958
 20
-22.625340443984474
 30
0.0
 11
159.99045820696426
 21
-22.62487102535171
 31
0.0
  0
LINE
  5
2A7
330
17
100
AcDbEntity
  8
BOUNDARY
100
AcDbLine
 10
159.99045820696426
 20
-22.62487102535171
 30
0.0
 11
159.99065809075256
 21
-22.624400561345016
 31
0.0
  0
LINE
  5
2A8
330
17
100
AcDbEntity
  8
BOUNDARY
100
AcDbLine
 10
159.99065809075256
 20
-22.624400561345016
 30
0.0
 11
159.99085596133577
 21
-22.6239290624002
 31
0.0
  0
LINE
  5
2A9
330
17
100
AcDbEntity
  8
BOUNDARY
100
AcDbLine
 10
159.99085596133577
 20
-22.6239290624002
 30
0.0
 11
159.99105181431977
 21
-22.623456538976136
 31
0.0
  0
LINE
  5
2AA
330
17
100
AcDbEntity
  8
BOUNDARY
100
AcDbLine
 10
159.99105181431977
 20
-22.623456538976136
 30
0.0
 11
159.99124564535543
 21
-22.622983001554534
 31
0.0
  0
LINE
  5
2AB
330
17
100
AcDbEntity
  8
BOUNDARY
100
AcDbLine
 10
159.99124564535543
 20
-22.622983001554534
 30
0.0
 11
159.9914374501384
 21
-22.62250846063972
 31
0.0
  0
LINE
  5
2AC
330
17
100
AcDbEntity
  8
BOUNDARY
100
AcDbLine
 10
159.9914374501384
 20
-22.62250846063972
 30
0.0
 11
159.99162722440934
 21
-22.622032926758404
 31
0.0
  0
LINE
  5
2AD
330
17
100
AcDbEntity
  8
BOUNDARY
100
AcDbLine
 10
159.99162722440934
 20
-22.622032926758404
 30
0.0
 11
159.99181496395403
 21
-22.621556410459416
 31
0.0
  0
LINE
  5
2AE
330
17
100
AcDbEntity
  8
BOUNDARY
100
AcDbLine
 10
159.99181496395403
 20
-22.621556410459416
 30
0.0
 11
159.99200066460338
 21
-22.62107892231352
 31
0.0
  0
LINE
  5
2AF
330
17
100
AcDbEntity
  8
BOUNDARY
100
AcDbLine
 10
159.99200066460338
 20
-22.62107892231352
 30
0.0
 11
159.99218432223367
 21
-22.62060047291314
 31
0.0
  0
LINE
  5
2B0
330
17
100
AcDbEntity
  8
BOUNDARY
100
AcDbLine
 10
159.99218432223367
 20
-22.62060047291314
 30
0.0
 11
159.9923659327665
 21
-22.620121072872156
 31
0.0
  0
LINE
  5
2B1
330
17
100
AcDbEntity
  8
BOUNDARY
100
AcDbLine
 10
159.9923659327665
 20
-22.620121072872156
 30
0.0
 11
159.99254549216886
 21
-22.619640732825648
 31
0.0
  0
LINE
  5
2B2
330
17
100
AcDbEntity
  8
BOUNDARY
100
AcDbLine
 10
159.99254549216886
 20
-22.619640732825648
 30
0.0
 11
159.99272299645338
 21
-22.619159463429664
 31
0.0
  0
LINE
  5
2B3
330
17
100
AcDbEntity
  8
BOUNDARY
100
AcDbLine
 10
159.99272299645338
 20
-22.619159463429664
 30
0.0
 11
159.9928984416783
 21
-22.618677275361005
 31
0.0
  0
LINE
  5
2B4
330
17
100
AcDbEntity
  8
BOUNDARY
100
AcDbLine
 10
159.9928984416783
 20
-22.618677275361005
 30
0.0
 11
159.99307182394762
 21
-22.618194179316948
 31
0.0
  0
LINE
  5
2B5
330
17
100
AcDbEntity
  8
BOUNDARY
100
AcDbLine
 10
159.99307182394762
 20
-22.618194179316948
 30
0.0
 11
159.99324313941105
 21
-22.617710186015064
 31
0.0
  0
LINE
  5
2B6
330
17
100
AcDbEntity
  8
BOUNDARY
100
AcDbLine
 10
159.99324313941105
 20
-22.617710186015064
 30
0.0
 11
159.9934123842643
 21
-22.61722530619292
 31
0.0
  0
LINE
  5
2B7
330
17
100
AcDbEntity
  8
BOUNDARY
100
AcDbLine
 10
159.9934123842643
 20
-22.61722530619292
 30
0.0
 11
159.99357955474903
 21
-22.6167395506079
 31
0.0
  0
LINE
  5
2B8
330
17
100
AcDbEntity
  8
BOUNDARY
100
AcDbLine
 10
159.99357955474903
 20
-22.6167395506079
 30
0.0
 11
159.99374464715297
 21
-22.616252930036914
 31
0.0
  0
LINE
  5
2B9
330
17
100
AcDbEntity
  8
BOUNDARY
100
AcDbLine
 10
159.99374464715297
 20
-22.616252930036914
 30
0.0
 11
159.9939076578099
 21
-22.615765455276215
 31
0.0
  0
LINE
  5
2BA
330
17
100
AcDbEntity
  8
BOUNDARY
100
AcDbLine
 10
159.9939076578099
 20
-22.615765455276215
 30
0.0
 11
159.99406858310002
 21
-22.6152771371411
 31
0.0
  0
LINE
  5
2BB
330
17
100
AcDbEntity
  8
BOUNDARY
100
AcDbLine
 10
159.99406858310002
 20
-22.6152771371411
 30
0.0
 11
159.99422741944966
 21
-22.614787986465714
 31
0.0
  0
LINE
  5
2BC
330
17
100
AcDbEntity
  8
BOUNDARY
100
AcDbLine
 10
159.99422741944966
 20
-22.614787986465714
 30
0.0
 11
159.99438416333163
 21
-22.614298014102804
 31
0.0
  0
LINE
  5
2BD
330
17
100
AcDbEntity
  8
BOUNDARY
100
AcDbLine
 10
159.99438416333163
 20
-22.614298014102804
 30
0.0
 11
159.9945388112652
 21
-22.613807230923456
 31
0.0
  0
LINE
  5
2BE
330
17
100
AcDbEntity
  8
BOUNDARY
100
AcDbLine
 10
159.9945388112652
 20
-22.613807230923456
 30
0.0
 11
159.99469135981613
 21
-22.61331564781689
 31
0.0
  0
LINE
  5
2BF
330
17
100
AcDbEntity
  8
BOUNDARY
100
AcDbLine
 10
159.99469135981613
 20
-22.61331564781689
 30
0.0
 11
159.99484180559688
 21
-22.612823275690186
 31
0.0
  0
LINE
  5
2C0
330
17
100
AcDbEntity
  8
BOUNDARY
100
AcDbLine
 10
159.99484180559688
 20
-22.612823275690186
 30
0.0
 11
159.99499014526657
 21
-22.612330125468056
 31
0.0
  0
LINE
  5
2C1
330
17
100
AcDbEntity
  8
BOUNDARY
100
AcDbLine
 10
159.99499014526657
 20
-22.612330125468056
 30
0.0
 11
159.99513637553105
 21
-22.611836208092605
 31
0.0
  0
LINE
  5
2C2
330
17
100
AcDbEntity
  8
BOUNDARY
100
AcDbLine
 10
159.99513637553105
 20
-22.611836208092605
 30
0.0
 11
159.99528049314307
 21
-22.611341534523095
 31
0.0
  0
LINE
  5
2C3
330
17
100
AcDbEntity
  8
BOUNDARY
100
AcDbLine
 10
159.99528049314307
 20
-22.611341534523095
 30
0.0
 11
159.99542249490227
 21
-22.610846115735676
 31
0.0
  0
LINE
  5
2C4
330
17
100
AcDbEntity
  8
BOUNDARY
100
AcDbLine
 10
159.99542249490227
 20
-22.610846115735676
 30
0.0
 11
159.9955623776553
 21
-22.610349962723173
 31
0.0
  0
LINE
  5
2C5
330
17
100
AcDbEntity
  8
BOUNDARY
100
AcDbLine
 10
159.9955623776553
 20
-22.610349962723173
 30
0.0
 11
159.99570013829577
 21
-22.609853086494834
 31
0.0
  0
LINE
  5
2C6
330
17
100
AcDbEntity
  8
BOUNDARY
100
AcDbLine
 10
159.99570013829577
 20
-22.609853086494834
 30
0.0
 11
159.99583577376458
 21
-22.60935549807606
 31
0.0
  0
LINE
  5
2C7
330
17
100
AcDbEntity
  8
BOUNDARY
100
AcDbLine
 10
159.99583577376458
 20
-22.60935549807606
 30
0.0
 11
159.99596928104967
 21
-22.608857208508216
 31
0.0
  0
LINE
  5
2C8
330
17
100
AcDbEntity
  8
BOUNDARY
100
AcDbLine
 10
159.99596928104967
 20
-22.608857208508216
 30
0.0
 11
159.99610065718633
 21
-22.608358228848328
 31
0.0
  0
LINE
  5
2C9
330
17
100
AcDbEntity
  8
BOUNDARY
100
AcDbLine
 10
159.99610065718633
 20
-22.608358228848328
 30
0.0
 11
159.99622989925712
 21
-22.60785857016888
 31
0.0
  0
LINE
  5
2CA
330
17
100
AcDbEntity
  8
BOUNDARY
100
AcDbLine
 10
159.99622989925712
 20
-22.60785857016888
 30
0.0
 11
159.99635700439205
 21
-22.607358243557545
 31
0.0
  0
LINE
  5
2CB
330
17
100
AcDbEntity
  8
BOUNDARY
100
AcDbLine
 10
159.99635700439205
 20
-22.607358243557545
 30
0.0
 11
159.99648196976855
 21
-22.606857260116946
 31
0.0
  0
LINE
  5
2CC
330
17
100
AcDbEntity
  8
BOUNDARY
100
AcDbLine
 10
159.99648196976855
 20
-22.606857260116946
 30
0.0
 11
159.99660479261152
 21
-22.60635563096442
 31
0.0
  0
LINE
  5
2CD
330
17
100
AcDbEntity
  8
BOUNDARY
100
AcDbLine
 10
159.99660479261152
 20
-22.60635563096442
 30
0.0
 11
159.99672547019355
 21
-22.60585336723176
 31
0.0
  0
LINE
  5
2CE
330
17
100
AcDbEntity
  8
BOUNDARY
100
AcDbLine
 10
159.99672547019355
 20
-22.60585336723176
 30
0.0
 11
159.99684399983477
 21
-22.60535048006497
 31
0.0
  0
LINE
  5
2CF
330
17
100
AcDbEntity
  8
BOUNDARY
100
AcDbLine
 10
159.99684399983477
 20
-22.60535048006497
 30
0.0
 11
159.99696037890305
 21
-22.60484698062402
 31
0.0
  0
LINE
  5
2D0
330
17
100
AcDbEntity
  8
BOUNDARY
100
AcDbLine
 10
159.99696037890305
 20
-22.60484698062402
 30
0.0
 11
159.997074604814
 21
-22.60434288008261
 31
0.0
  0
LINE
  5
2D1
330
17
100
AcDbEntity
  8
BOUNDARY
100
AcDbLine
 10
159.997074604814
 20
-22.60434288008261
 30
0.0
 11
159.99718667503106
 21
-22.603838189627893
 31
0.0
  0
LINE
  5
2D2
330
17
100
AcDbEntity
  8
BOUNDARY
100
AcDbLine
 10
159.99718667503106
 20
-22.603838189627893
 30
0.0
 11
159.99729658706553
 21
-22.603332920460254
 31
0.0
  0
LINE
  5
2D3
330
17
100
AcDbEntity
  8
BOUNDARY
100
AcDbLine
 10
159.99729658706553
 20
-22.603332920460254
 30
0.0
 11
159.99740433847668
 21
-22.602827083793066
 31
0.0
  0
LINE
  5
2D4
330
17
100
AcDbEntity
  8
BOUNDARY
100
AcDbLine
 10
159.99740433847668
 20
-22.602827083793066
 30
0.0
 11
159.99750992687166
 21
-22.602320690852412
 31
0.0
  0
LINE
  5
2D5
330
17
100
AcDbEntity
  8
BOUNDARY
100
AcDbLine
 10
159.99750992687166
 20
-22.602320690852412
 30
0.0
 11
159.99761334990575
 21
-22.60181375287686
 31
0.0
  0
LINE
  5
2D6
330
17
100
AcDbEntity
  8
BOUNDARY
100
AcDbLine
 10
159.99761334990575
 20
-22.60181375287686
 30
0.0
 11
159.99771460528228
 21
-22.60130628111722
 31
0.0
  0
LINE
  5
2D7
330
17
100
AcDbEntity
  8
BOUNDARY
100
AcDbLine
 10
159.99771460528228
 20
-22.60130628111722
 30
0.0
 11
159.9978136907527
 21
-22.600798286836252
 31
0.0
  0
LINE
  5
2D8
330
17
100
AcDbEntity
  8
BOUNDARY
100
AcDbLine
 10
159.9978136907527
 20
-22.600798286836252
 30
0.0
 11
159.9979106041167
 21
-22.600289781308486
 31
0.0
  0
LINE
  5
2D9
330
17
100
AcDbEntity
  8
BOUNDARY
100
AcDbLine
 10
159.9979106041167
 20
-22.600289781308486
 30
0.0
 11
159.9980053432221
 21
-22.599780775819898
 31
0.0
  0
LINE
  5
2DA
330
17
100
AcDbEntity
  8
BOUNDARY
100
AcDbLine
 10
159.9980053432221
 20
-22.599780775819898
 30
0.0
 11
159.99809790596512
 21
-22.599271281667722
 31
0.0
  0
LINE
  5
2DB
330
17
100
AcDbEntity
  8
BOUNDARY
100
AcDbLine
 10
159.99809790596512
 20
-22.599271281667722
 30
0.0
 11
159.99818829029024
 21
-22.59876131016016
 31
0.0
  0
LINE
  5
2DC
330
17
100
AcDbEntity
  8
BOUNDARY
100
AcDbLine
 10
159.99818829029024
 20
-22.59876131016016
 30
0.0
 11
159.99827649419032
 21
-22.598250872616134
 31
0.0
  0
LINE
  5
2DD
330
17
100
AcDbEntity
  8
BOUNDARY
100
AcDbLine
 10
159.99827649419032
 20
-22.598250872616134
 30
0.0
 11
159.9983625157067
 21
-22.597739980365073
 31
0.0
  0
LINE
  5
2DE
330
17
100
AcDbEntity
  8
BOUNDARY
100
AcDbLine
 10
159.9983625157067
 20
-22.597739980365073
 30
0.0
 11
159.9984463529291
 21
-22.597228644746608
 31
0.0
  0
LINE
  5
2DF
330
17
100
AcDbEntity
  8
BOUNDARY
100
AcDbLine
 10
159.9984463529291
 20
-22.597228644746608
 30
0.0
 11
159.9985280039958
 21
-22.596716877110367
 31
0.0
  0
LINE
  5
2E0
330
17
100
AcDbEntity
  8
BOUNDARY
100
AcDbLine
 10
159.9985280039958
 20
-22.596716877110367
 30
0.0
 11
159.9986074670936
 21
-22.59620468881569
 31
0.0
  0
LINE
  5
2E1
330
17
100
AcDbEntity
  8
BOUNDARY
100
AcDbLine
 10
159.9986074670936
 20
-22.59620468881569
 30
0.0
 11
159.9986847404579
 21
-22.595692091231395
 31
0.0
  0
LINE
  5
2E2
330
17
100
AcDbEntity
  8
BOUNDARY
100
AcDbLine
 10
159.9986847404579
 20
-22.595692091231395
 30
0.0
 11
159.99875982237273
 21
-22.595179095735517
 31
0.0
  0
LINE
  5
2E3
330
17
100
AcDbEntity
  8
BOUNDARY
100
AcDbLine
 10
159.99875982237273
 20
-22.595179095735517
 30
0.0
 11
159.99883271117076
 21
-22.59466571371508
 31
0.0
  0
LINE
  5
2E4
330
17
100
AcDbEntity
  8
BOUNDARY
100
AcDbLine
 10
159.99883271117076
 20
-22.59466571371508
 30
0.0
 11
159.9989034052334
 21
-22.5941519565658
 31
0.0
  0
LINE
  5
2E5
330
17
100
AcDbEntity
  8
BOUNDARY
100
AcDbLine
 10
159.9989034052334
 20
-22.5941519565658
 30
0.0
 11
159.99897190299075
 21
-22.593637835691865
 31
0.0
  0
LINE
  5
2E6
330
17
100
AcDbEntity
  8
BOUNDARY
100
AcDbLine
 10
159.99897190299075
 20
-22.593637835691865
 30
0.0
 11
159.99903820292175
 21
-22.59312336250569
 31
0.0
  0
LINE
  5
2E7
330
17
100
AcDbEntity
  8
BOUNDARY
100
AcDbLine
 10
159.99903820292175
 20
-22.59312336250569
 30
0.0
 11
159.99910230355408
 21
-22.592608548427627
 31
0.0
  0
LINE
  5
2E8
330
17
100
AcDbEntity
  8
BOUNDARY
100
AcDbLine
 10
159.99910230355408
 20
-22.592608548427627
 30
0.0
 11
159.9991642034643
 21
-22.59209340488575
 31
0.0
  0
LINE
  5
2E9
330
17
100
AcDbEntity
  8
BOUNDARY
100
AcDbLine
 10
159.9991642034643
 20
-22.59209340488575
 30
0.0
 11
159.9992239012778
 21
-22.591577943315567
 31
0.0
  0
LINE
  5
2EA
330
17
100
AcDbEntity
  8
BOUNDARY
100
AcDbLine
 10
159.9992239012778
 20
-22.591577943315567
 30
0.0
 11
159.9992813956689
 21
-22.591062175159806
 31
0.0
  0
LINE
  5
2EB
330
17
100
AcDbEntity
  8
BOUNDARY
100
AcDbLine
 10
159.9992813956689
 20
-22.591062175159806
 30
0.0
 11
159.99933668536087
 21
-22.590546111868136
 31
0.0
  0
LINE
  5
2EC
330
17
100
AcDbEntity
  8
BOUNDARY
100
AcDbLine
 10
159.99933668536087
 20
-22.590546111868136
 30
0.0
 11
159.9993897691259
 21
-22.590029764896894
 31
0.0
  0
LINE
  5
2ED
330
17
100
AcDbEntity
  8
BOUNDARY
100
AcDbLine
 10
159.9993897691259
 20
-22.590029764896894
 30
0.0
 11
159.9994406457852
 21
-22.58951314570888
 31
0.0
  0
LINE
  5
2EE
330
17
100
AcDbEntity
  8
BOUNDARY
100
AcDbLine
 10
159.9994406457852
 20
-22.58951314570888
 30
0.0
 11
159.99948931420894
 21
-22.58899626577306
 31
0.0
  0
LINE
  5
2EF
330
17
100
AcDbEntity
  8
BOUNDARY
100
AcDbLine
 10
159.99948931420894
 20
-22.58899626577306
 30
0.0
 11
159.9995357733164
 21
-22.58847913656435
 31
0.0
  0
LINE
  5
2F0
330
17
100
AcDbEntity
  8
BOUNDARY
100
AcDbLine
 10
159.9995357733164
 20
-22.58847913656435
 30
0.0
 11
159.99958002207586
 21
-22.58796176956331
 31
0.0
  0
LINE
  5
2F1
330
17
100
AcDbEntity
  8
BOUNDARY
100
AcDbLine
 10
159.99958002207586
 20
-22.58796176956331
 30
0.0
 11
159.9996220595047
 21
-22.587444176255932
 31
0.0
  0
LINE
  5
2F2
330
17
100
AcDbEntity
  8
BOUNDARY
100
AcDbLine
 10
159.9996220595047
 20
-22.587444176255932
 30
0.0
 11
159.99966188466942
 21
-22.58692636813339
 31
0.0
  0
LINE
  5
2F3
330
17
100
AcDbEntity
  8
BOUNDARY
100
AcDbLine
 10
159.99966188466942
 20
-22.58692636813339
 30
0.0
 11
159.99969949668565
 21
-22.586408356691734
 31
0.0
  0
LINE
  5
2F4
330
17
100
AcDbEntity
  8
BOUNDARY
100
AcDbLine
 10
159.99969949668565
 20
-22.586408356691734
 30
0.0
 11
159.99973489471813
 21
-22.585890153431695
 31
0.0
  0
LINE
  5
2F5
330
17
100
AcDbEntity
  8
BOUNDARY
100
AcDbLine
 10
159.99973489471813
 20
-22.585890153431695
 30
0.0
 11
159.99976807798083
 21
-22.585371769858398
 31
0.0
  0
LINE
  5
2F6
330
17
100
AcDbEntity
  8
BOUNDARY
100
AcDbLine
 10
159.99976807798083
 20
-22.585371769858398
 30
0.0
 11
159.99979904573684
 21
-22.584853217481097
 31
0.0
  0
LINE
  5
2F7
330
17
100
AcDbEntity
  8
BOUNDARY
100
AcDbLine
 10
159.99979904573684
 20
-22.584853217481097
 30
0.0
 11
159.99982779729848
 21
-22.584334507812947
 31
0.0
  0
LINE
  5
2F8
330
17
100
AcDbEntity
  8
BOUNDARY
100
AcDbLine
 10
159.99982779729848
 20
-22.584334507812947
 30
0.0
 11
159.99985433202727
 21
-22.583815652370745
 31
0.0
  0
LINE
  5
2F9
330
17
100
AcDbEntity
  8
BOUNDARY
100
AcDbLine
 10
159.99985433202727
 20
-22.583815652370745
 30
0.0
 11
159.99987864933397
 21
-22.583296662674645
 31
0.0
  0
LINE
  5
2FA
330
17
100
AcDbEntity
  8
BOUNDARY
100
AcDbLine
 10
159.99987864933397
 20
-22.583296662674645
 30
0.0
 11
159.99990074867856
 21
-22.58277755024793
 31
0.0
  0
LINE
  5
2FB
330
17
100
AcDbEntity
  8
BOUNDARY
100
AcDbLine
 10
159.99990074867856
 20
-22.58277755024793
 30
0.0
 11
159.99992062957028
 21
-22.58225832661676
 31
0.0
  0
LINE
  5
2FC
330
17
100
AcDbEntity
  8
BOUNDARY
100
AcDbLine
 10
159.99992062957028
 20
-22.58225832661676
 30
0.0
 11
159.9999382915677
 21
-22.58173900330989
 31
0.0
  0
LINE
  5
2FD
330
17
100
AcDbEntity
  8
BOUNDARY
100
AcDbLine
 10
159.9999382915677
 20
-22.58173900330989
 30
0.0
 11
159.99995373427856
 21
-22.581219591858453
 31
0.0
  0
LINE
  5
2FE
330
17
100
AcDbEntity
  8
BOUNDARY
100
AcDbLine
 10
159.99995373427856
 20
-22.581219591858453
 30
0.0
 11
159.99996695735993
 21
-22.580700103795635
 31
0.0
  0
LINE
  5
2FF
330
17
100
AcDbEntity
  8
BOUNDARY
100
AcDbLine
 10
159.99996695735993
 20
-22.580700103795635
 30
0.0
 11
159.9999779605182
 21
-22.58018055065652
 31
0.0
  0
LINE
  5
300
330
17
100
AcDbEntity
  8
BOUNDARY
100
AcDbLine
 10
159.9999779605182
 20
-22.58018055065652
 30
0.0
 11
159.99998674350903
 21
-22.57966094397774
 31
0.0
  0
LINE
  5
301
330
17
100
AcDbEntity
  8
BOUNDARY
100
AcDbLine
 10
159.99998674350903
 20
-22.57966094397774
 30
0.0
 11
159.99999330613733
 21
-22.57914129529727
 31
0.0
  0
LINE
  5
302
330
17
100
AcDbEntity
  8
BOUNDARY
100
AcDbLine
 10
159.99999330613733
 20
-22.57914129529727
 30
0.0
 11
159.9999976482574
 21
-22.57862161615416
 31
0.0
  0
LINE
  5
303
330
17
100
AcDbEntity
  8
BOUNDARY
100
AcDbLine
 10
159.9999976482574
 20
-22.57862161615416
 30
0.0
 11
159.9999997697728
 21
-22.57810191808828
 31
0.0
  0
LINE
  5
304
330
17
100
AcDbEntity
  8
BOUNDARY
100
AcDbLine
 10
159.9999997697728
 20
-22.57810191808828
 30
0.0
 11
160.0
 21
-22.577865266672124
 31
0.0
  0
LINE
  5
305
330
17
100
AcDbEntity
  8
BOUNDARY
100
AcDbLine
 10
160.0
 20
-16.431676725154983
 30
0.0
 11
160.0
 21
-22.577865266672138
 31
0.0
  0
LINE
  5
306
330
17
100
AcDbEntity
  8
BOUNDARY
100
AcDbLine
 10
160.0
 20
22.577865266672134
 30
0.0
 11
160.0
 21
16.431676725154986
 31
0.0
  0
LINE
  5
307
330
17
100
AcDbEntity
  8
BOUNDARY
100
AcDbLine
 10
160.0
 20
16.431676725154983
 30
0.0
 11
160.3
 21
16.431676725154983
 31
0.0
  0
LINE
  5
308
330
17
100
AcDbEntity
  8
BOUNDARY
100
AcDbLine
 10
160.0
 20
-16.431676725154983
 30
0.0
 11
160.3
 21
-16.431676725154983
 31
0.0
  0
LINE
  5
309
330
17
100
AcDbEntity
  8
BOUNDARY
100
AcDbLine
 10
168.0
 20
36.520542164650294
 30
0.0
 11
168.0
 21
31.0
 31
0.0
  0
LINE
  5
30A
330
17
100
AcDbEntity
  8
BOUNDARY
100
AcDbLine
 10
160.0
 20
36.520542164650294
 30
0.0
 11
168.0
 21
36.520542164650294
 31
0.0
  0
LINE
  5
30B
330
17
100
AcDbEntity
  8
BOUNDARY
100
AcDbLine
 10
168.0
 20
31.0
 30
0.0
 11
187.6460240549934
 21
31.0
 31
0.0
  0
LINE
  5
30C
330
17
100
AcDbEntity
  8
BOUNDARY
100
AcDbLine
 10
168.0
 20
10.0
 30
0.0
 11
168.0
 21
-36.5205421646503
 31
0.0
  0
LINE
  5
30D
330
17
100
AcDbEntity
  8
BOUNDARY
100
AcDbLine
 10
177.4400479233531
 20
25.104076677364745
 30
0.0
 11
168.0000000000017
 21
9.99999999999894
 31
0.0
  0
LINE
  5
30E
330
17
100
AcDbEntity
  8
BOUNDARY
100
AcDbLine
 10
160.0
 20
-36.520542164650294
 30
0.0
 11
168.0
 21
-36.520542164650294
 31
0.0
  0
LINE
  5
30F
330
17
100
AcDbEntity
  8
BOUNDARY
100
AcDbLine
 10
160.3
 20
16.431676725154986
 30
0.0
 11
160.3
 21
-16.431676725154983
 31
0.0
  0
LINE
  5
310
330
17
100
AcDbEntity
  8
BOUNDARY
100
AcDbLine
 10
187.6460240549934
 20
25.0
 30
0.0
 11
187.6460240549934
 21
31.0
 31
0.0
  0
LINE
  5
311
330
17
100
AcDbEntity
  8
BOUNDARY
100
AcDbLine
 10
242.3539759450066
 20
31.0
 30
0.0
 11
252.55995207664674
 21
31.0
 31
0.0
  0
LINE
  5
312
330
17
100
AcDbEntity
  8
BOUNDARY
100
AcDbLine
 10
242.3539759450066
 20
25.0
 30
0.0
 11
242.3539759450066
 21
31.0
 31
0.0
  0
LINE
  5
313
330
17
100
AcDbEntity
  8
BOUNDARY
100
AcDbLine
 10
252.55995207664674
 20
25.0
 30
0.0
 11
252.55995207664674
 21
31.0
 31
0.0
  0
LINE
  5
314
330
17
100
AcDbEntity
  8
BOUNDARY
100
AcDbLine
 10
177.44004792335326
 20
25.0
 30
0.0
 11
187.6460240549934
 21
25.0
 31
0.0
  0
LINE
  5
315
330
17
100
AcDbEntity
  8
BOUNDARY
100
AcDbLine
 10
177.44004792335326
 20
25.0
 30
0.0
 11
177.44004792335326
 21
25.104076677360823
 31
0.0
  0
LINE
  5
316
330
17
100
AcDbEntity
  8
BOUNDARY
100
AcDbLine
 10
242.3539759450066
 20
25.0
 30
0.0
 11
252.55995207664674
 21
25.0
 31
0.0
  0
LINE
  5
317
330
17
100
AcDbEntity
  8
BOUNDARY
100
AcDbLine
 10
160.0
 20
36.520542164650294
 30
0.0
 11
160.0
 21
25.956694704834824
 31
0.0
  0
LINE
  5
318
330
17
100
AcDbEntity
  8
BOUNDARY
100
AcDbLine
 10
160.0
 20
-25.956694704834824
 30
0.0
 11
160.0
 21
-36.5205421646503
 31
0.0
  0
LINE
  5
319
330
17
100
AcDbEntity
  8
BOUNDARY
100
AcDbLine
 10
153.5
 20
25.95669470483482
 30
0.0
 11
160.0
 21
25.95669470483482
 31
0.0
  0
LINE
  5
31A
330
17
100
AcDbEntity
  8
BOUNDARY
100
AcDbLine
 10
153.5
 20
-25.95669470483482
 30
0.0
 11
160.0
 21
-25.95669470483482
 31
0.0
  0
LINE
  5
31B
330
17
100
AcDbEntity
  8
BOUNDARY
100
AcDbLine
 10
153.5
 20
25.956694704834824
 30
0.0
 11
153.5
 21
23.018253626198497
 31
0.0
  0
LINE
  5
31C
330
17
100
AcDbEntity
  8
BOUNDARY
100
AcDbLine
 10
153.5
 20
-23.018253626198494
 30
0.0
 11
153.5
 21
-25.956694704834824
 31
0.0
  0
TEXT
  5
31D
330
17
100
AcDbEntity
  8
NOTE
100
AcDbText
 10
120.0
 20
105.0
 30
0.0
 40
2.5
  1
SIDE X10.5
100
AcDbText
  0
LINE
  5
31E
330
17
100
AcDbEntity
  8
BOUNDARY
100
AcDbLine
 10
294.30953484266973
 20
8.0
 30
0.0
 11
306.0
 21
8.0
 31
0.0
  0
LINE
  5
31F
330
17
100
AcDbEntity
  8
BOUNDARY
100
AcDbLine
 10
294.30953484266973
 20
0.0
 30
0.0
 11
294.30953484266973
 21
8.0
 31
0.0
  0
LINE
  5
320
330
17
100
AcDbEntity
  8
BOUNDARY
100
AcDbLine
 10
306.0
 20
18.599450553598
 30
0.0
 11
306.0
 21
8.0
 31
0.0
  0
LINE
  5
321
330
17
100
AcDbEntity
  8
BOUNDARY
100
AcDbLine
 10
334.0
 20
8.0
 30
0.0
 11
345.69046515733027
 21
8.0
 31
0.0
  0
LINE
  5
322
330
17
100
AcDbEntity
  8
BOUNDARY
100
AcDbLine
 10
334.0
 20
18.599450553597
 30
0.0
 11
334.0
 21
8.0
 31
0.0
  0
LINE
  5
323
330
17
100
AcDbEntity
  8
BOUNDARY
100
AcDbLine
 10
345.69046515733027
 20
0.0
 30
0.0
 11
345.69046515733027
 21
8.0
 31
0.0
  0
CIRCLE
  5
324
330
17
100
AcDbEntity
  8
BOUNDARY
100
AcDbCircle
 10
342.62741699797
 20
32.37258300203
 30
0.0
 40
1.7
  0
CIRCLE
  5
325
330
17
100
AcDbEntity
  8
BOUNDARY
100
AcDbCircle
 10
342.62741699797
 20
77.62741699797
 30
0.0
 40
1.7
  0
CIRCLE
  5
326
330
17
100
AcDbEntity
  8
BOUNDARY
100
AcDbCircle
 10
320.0
 20
87.0
 30
0.0
 40
1.7
  0
CIRCLE
  5
327
330
17
100
AcDbEntity
  8
BOUNDARY
100
AcDbCircle
 10
352.0
 20
55.0
 30
0.0
 40
1.7
  0
CIRCLE
  5
328
330
17
100
AcDbEntity
  8
BOUNDARY
100
AcDbCircle
 10
297.37258300203
 20
77.62741699797
 30
0.0
 40
1.7
  0
CIRCLE
  5
329
330
17
100
AcDbEntity
  8
BOUNDARY
100
AcDbCircle
 10
288.0
 20
55.0
 30
0.0
 40
1.7
  0
CIRCLE
  5
32A
330
17
100
AcDbEntity
  8
BOUNDARY
100
AcDbCircle
 10
320.0
 20
23.0
 30
0.0
 40
1.7
  0
CIRCLE
  5
32B
330
17
100
AcDbEntity
  8
BOUNDARY
100
AcDbCircle
 10
297.37258300203
 20
32.37258300203
 30
0.0
 40
1.7
  0
CIRCLE
  5
32C
330
17
100
AcDbEntity
  8
BOUNDARY
100
AcDbCircle
 10
320.0
 20
55.0
 30
0.0
 40
29.3
  0
ARC
  5
32D
330
17
100
AcDbEntity
  8
BOUNDARY
100
AcDbCircle
 10
320.0
 20
55.0
 30
0.0
 40
39.0
100
AcDbArc
 50
291.0372212560367
 51
248.9627787439635
  0
LINE
  5
32E
330
17
100
AcDbEntity
  8
BOUNDARY
100
AcDbLine
 10
294.30953484266973
 20
0.0
 30
0.0
 11
320.0
 21
0.0
 31
0.0
  0
LINE
  5
32F
330
17
100
AcDbEntity
  8
BOUNDARY
100
AcDbLine
 10
320.0
 20
0.0
 30
0.0
 11
345.69046515733027
 21
0.0
 31
0.0
  0
LINE
  5
330
330
17
100
AcDbEntity
  8
BOUNDARY
100
AcDbLine
 10
320.0
 20
-6.5
 30
0.0
 11
320.0
 21
0.0
 31
0.0
  0
TEXT
  5
331
330
17
100
AcDbEntity
  8
NOTE
100
AcDbText
 10
280.0
 20
105.0
 30
0.0
 40
2.5
  1
J7 RING layer Z28
100
AcDbText
  0
CIRCLE
  5
332
330
17
100
AcDbEntity
  8
BOUNDARY
100
AcDbCircle
 10
474.305981007745
 20
-21.25036817836
 30
0.0
 40
3.1
  0
CIRCLE
  5
333
330
17
100
AcDbEntity
  8
BOUNDARY
100
AcDbCircle
 10
495.556349186104
 20
-15.5563491861
 30
0.0
 40
3.1
  0
CIRCLE
  5
334
330
17
100
AcDbEntity
  8
BOUNDARY
100
AcDbCircle
 10
501.25036817836
 20
-5.694018992255
 30
0.0
 40
3.1
  0
CIRCLE
  5
335
330
17
100
AcDbEntity
  8
BOUNDARY
100
AcDbCircle
 10
480.0
 20
0.0
 30
0.0
 40
9.0
  0
CIRCLE
  5
336
330
17
100
AcDbEntity
  8
BOUNDARY
100
AcDbCircle
 10
464.4436508139
 20
-15.5563491861
 30
0.0
 40
3.1
  0
CIRCLE
  5
337
330
17
100
AcDbEntity
  8
BOUNDARY
100
AcDbCircle
 10
458.74963182164
 20
5.694018992255
 30
0.0
 40
3.1
  0
CIRCLE
  5
338
330
17
100
AcDbEntity
  8
BOUNDARY
100
AcDbCircle
 10
495.556349186104
 20
15.556349186104
 30
0.0
 40
3.1
  0
CIRCLE
  5
339
330
17
100
AcDbEntity
  8
BOUNDARY
100
AcDbCircle
 10
464.4436508139
 20
15.556349186104
 30
0.0
 40
3.1
  0
CIRCLE
  5
33A
330
17
100
AcDbEntity
  8
BOUNDARY
100
AcDbCircle
 10
485.694018992255
 20
21.25036817836
 30
0.0
 40
3.1
  0
CIRCLE
  5
33B
330
17
100
AcDbEntity
  8
BOUNDARY
100
AcDbCircle
 10
480.0
 20
0.0
 30
0.0
 40
38.0
  0
TEXT
  5
33C
330
17
100
AcDbEntity
  8
NOTE
100
AcDbText
 10
440.0
 20
105.0
 30
0.0
 40
2.5
  1
J6 DISC layer Y4.8
100
AcDbText
  0
TEXT
  5
33D
330
17
100
AcDbEntity
  8
NOTE
100
AcDbText
 10
-40.0
 20
-60.0
 30
0.0
 40
2.1
  1
R5-WRIST-PAIR01 / mm / NOMINAL STUDY ONLY, NOT PRODUCTION RELEASE
100
AcDbText
  0
TEXT
  5
33E
330
17
100
AcDbEntity
  8
NOTE
100
AcDbText
 10
-40.0
 20
-64.0
 30
0.0
 40
2.1
  1
True sections from exported originals. All hole coordinates: hole-coordinates.csv
100
AcDbText
  0
TEXT
  5
33F
330
17
100
AcDbEntity
  8
NOTE
100
AcDbText
 10
-40.0
 20
-68.0
 30
0.0
 40
2.1
  1
W01 pair frame O=J6 world(0,0,640); J7=(0,55,35), output +Z
100
AcDbText
  0
TEXT
  5
340
330
17
100
AcDbEntity
  8
NOTE
100
AcDbText
 10
-40.0
 20
-72.0
 30
0.0
 40
2.1
  1
W01 J6 output face Y0, mainY0..8; J7 fixed seatZ25 / frontZ31
100
AcDbText
  0
TEXT
  5
341
330
17
100
AcDbEntity
  8
NOTE
100
AcDbText
 10
-40.0
 20
-76.0
 30
0.0
 40
2.1
  1
W01 ring OD78 ID58.6 thick6; neck X+/-14 Y8..24 Z26..31
100
AcDbText
  0
TEXT
  5
342
330
17
100
AcDbEntity
  8
NOTE
100
AcDbText
 10
-40.0
 20
-80.0
 30
0.0
 40
2.1
  1
W01 ribs X-12..-9 and9..12; YZ(8,10),(8,26),(18,26)
100
AcDbText
  0
TEXT
  5
343
330
17
100
AcDbEntity
  8
NOTE
100
AcDbText
 10
-40.0
 20
-84.0
 30
0.0
 40
2.1
  1
A01-P same A01 except rear skirt OD56, wall3; no extension
100
AcDbText
  0
TEXT
  5
344
330
17
100
AcDbEntity
  8
NOTE
100
AcDbText
 10
-40.0
 20
-88.0
 30
0.0
 40
2.1
  1
OEM M3x.35 screw LENGTH/SKU TBD; smooth bore not full thread evidence
100
AcDbText
  0
ENDSEC
  0
SECTION
  2
OBJECTS
  0
DICTIONARY
  5
A
330
0
100
AcDbDictionary
281
1
  3
ACAD_COLOR
350
B
  3
ACAD_GROUP
350
C
  3
ACAD_LAYOUT
350
D
  3
ACAD_MATERIAL
350
E
  3
ACAD_MLEADERSTYLE
350
F
  3
ACAD_MLINESTYLE
350
10
  3
ACAD_PLOTSETTINGS
350
11
  3
ACAD_PLOTSTYLENAME
350
12
  3
ACAD_SCALELIST
350
14
  3
ACAD_TABLESTYLE
350
15
  3
ACAD_VISUALSTYLE
350
16
  3
EZDXF_META
350
2D
  0
DICTIONARY
  5
B
330
A
100
AcDbDictionary
281
1
  0
DICTIONARY
  5
C
330
A
100
AcDbDictionary
281
1
  0
DICTIONARY
  5
D
330
A
100
AcDbDictionary
281
1
  3
Model
350
1A
  3
Layout1
350
1E
  0
DICTIONARY
  5
E
330
A
100
AcDbDictionary
281
1
  3
ByBlock
350
1F
  3
ByLayer
350
20
  3
Global
350
21
  0
DICTIONARY
  5
F
330
A
100
AcDbDictionary
281
1
  3
Standard
350
2C
  0
DICTIONARY
  5
10
330
A
100
AcDbDictionary
281
1
  3
Standard
350
22
  0
DICTIONARY
  5
11
330
A
100
AcDbDictionary
281
1
  0
ACDBDICTIONARYWDFLT
  5
12
330
A
100
AcDbDictionary
281
1
  3
Normal
350
13
100
AcDbDictionaryWithDefault
340
13
  0
ACDBPLACEHOLDER
  5
13
330
12
  0
DICTIONARY
  5
14
330
A
100
AcDbDictionary
281
1
  0
DICTIONARY
  5
15
330
A
100
AcDbDictionary
281
1
  0
DICTIONARY
  5
16
330
A
100
AcDbDictionary
281
1
  0
LAYOUT
  5
1A
330
D
100
AcDbPlotSettings
  1

  4
A3
  6

 40
7.5
 41
20.0
 42
7.5
 43
20.0
 44
420.0
 45
297.0
 46
0.0
 47
0.0
 48
0.0
 49
0.0
140
0.0
141
0.0
142
1.0
143
1.0
 70
1024
 72
1
 73
0
 74
5
  7

 75
16
 76
0
 77
2
 78
300
147
1.0
148
0.0
149
0.0
100
AcDbLayout
  1
Model
 70
1
 71
0
 10
0.0
 20
0.0
 11
420.0
 21
297.0
 12
0.0
 22
0.0
 32
0.0
 14
1e+20
 24
1e+20
 34
1e+20
 15
-1e+20
 25
-1e+20
 35
-1e+20
146
0.0
 13
0.0
 23
0.0
 33
0.0
 16
1.0
 26
0.0
 36
0.0
 17
0.0
 27
1.0
 37
0.0
 76
1
330
17
  0
LAYOUT
  5
1E
330
D
100
AcDbPlotSettings
  1

  4
A3
  6

 40
7.5
 41
20.0
 42
7.5
 43
20.0
 44
420.0
 45
297.0
 46
0.0
 47
0.0
 48
0.0
 49
0.0
140
0.0
141
0.0
142
1.0
143
1.0
 70
0
 72
1
 73
0
 74
5
  7

 75
16
 76
0
 77
2
 78
300
147
1.0
148
0.0
149
0.0
100
AcDbLayout
  1
Layout1
 70
1
 71
1
 10
0.0
 20
0.0
 11
420.0
 21
297.0
 12
0.0
 22
0.0
 32
0.0
 14
1e+20
 24
1e+20
 34
1e+20
 15
-1e+20
 25
-1e+20
 35
-1e+20
146
0.0
 13
0.0
 23
0.0
 33
0.0
 16
1.0
 26
0.0
 36
0.0
 17
0.0
 27
1.0
 37
0.0
 76
1
330
1B
  0
MATERIAL
  5
1F
102
{ACAD_REACTORS
330
E
102
}
330
E
100
AcDbMaterial
  1
ByBlock
  2

 70
0
 40
1.0
 71
1
 41
1.0
 91
-1023410177
 42
1.0
 72
1
  3

 73
1
 74
1
 75
1
 44
0.5
 73
0
 45
1.0
 46
1.0
 77
1
  4

 78
1
 79
1
170
1
 48
1.0
171
1
  6

172
1
173
1
174
1
140
1.0
141
1.0
175
1
  7

176
1
177
1
178
1
143
1.0
179
1
  8

270
1
271
1
272
1
145
1.0
146
1.0
273
1
  9

274
1
275
1
276
1
 42
1.0
 72
1
  3

 73
1
 74
1
 75
1
 94
63
  0
MATERIAL
  5
20
102
{ACAD_REACTORS
330
E
102
}
330
E
100
AcDbMaterial
  1
ByLayer
  2

 70
0
 40
1.0
 71
1
 41
1.0
 91
-1023410177
 42
1.0
 72
1
  3

 73
1
 74
1
 75
1
 44
0.5
 73
0
 45
1.0
 46
1.0
 77
1
  4

 78
1
 79
1
170
1
 48
1.0
171
1
  6

172
1
173
1
174
1
140
1.0
141
1.0
175
1
  7

176
1
177
1
178
1
143
1.0
179
1
  8

270
1
271
1
272
1
145
1.0
146
1.0
273
1
  9

274
1
275
1
276
1
 42
1.0
 72
1
  3

 73
1
 74
1
 75
1
 94
63
  0
MATERIAL
  5
21
102
{ACAD_REACTORS
330
E
102
}
330
E
100
AcDbMaterial
  1
Global
  2

 70
0
 40
1.0
 71
1
 41
1.0
 91
-1023410177
 42
1.0
 72
1
  3

 73
1
 74
1
 75
1
 44
0.5
 73
0
 45
1.0
 46
1.0
 77
1
  4

 78
1
 79
1
170
1
 48
1.0
171
1
  6

172
1
173
1
174
1
140
1.0
141
1.0
175
1
  7

176
1
177
1
178
1
143
1.0
179
1
  8

270
1
271
1
272
1
145
1.0
146
1.0
273
1
  9

274
1
275
1
276
1
 42
1.0
 72
1
  3

 73
1
 74
1
 75
1
 94
63
  0
MLINESTYLE
  5
22
102
{ACAD_REACTORS
330
10
102
}
330
10
100
AcDbMlineStyle
  2
Standard
 70
0
  3

 62
256
 51
90.0
 52
90.0
 71
2
 49
0.5
 62
256
  6
BYLAYER
 49
-0.5
 62
256
  6
BYLAYER
  0
MLEADERSTYLE
  5
2C
102
{ACAD_REACTORS
330
F
102
}
330
F
100
AcDbMLeaderStyle
179
2
170
2
171
1
172
0
 90
2
 40
0.0
 41
0.0
173
1
 91
-1056964608
 92
-2
290
1
 42
2.0
291
1
 43
8.0
  3
Standard
 44
4.0
300

342
29
174
1
175
1
176
0
178
1
 93
-1056964608
 45
4.0
292
0
297
0
 46
4.0
 94
-1056964608
 47
1.0
 49
1.0
140
1.0
294
1
141
0.0
177
0
142
1.0
295
0
296
0
143
3.75
271
0
272
9
273
9
  0
DICTIONARY
  5
2D
330
A
100
AcDbDictionary
280
1
281
1
  3
CREATED_BY_EZDXF
350
2E
  3
WRITTEN_BY_EZDXF
350
347
  0
DICTIONARYVAR
  5
2E
330
2D
100
DictionaryVariables
280
0
  1
1.4.4 @ 2026-09-28T04:28:46.482045+00:00
  0
DICTIONARYVAR
  5
347
330
2D
100
DictionaryVariables
280
0
  1
1.4.4 @ 2026-09-28T04:28:46.490148+00:00
  0
ENDSEC
  0
EOF
