  0
SECTION
  2
HEADER
  9
$ACADVER
  1
AC1027
  9
$ACADMAINTVER
 70
105
  9
$DWGCODEPAGE
  3
ANSI_1252
  9
$LASTSAVEDBY
  1
ezdxf
  9
$REQUIREDVERSIONS
160
0
  9
$INSBASE
 10
0.0
 20
0.0
 30
0.0
  9
$EXTMIN
 10
1e+20
 20
1e+20
 30
1e+20
  9
$EXTMAX
 10
-1e+20
 20
-1e+20
 30
-1e+20
  9
$LIMMIN
 10
0.0
 20
0.0
  9
$LIMMAX
 10
420.0
 20
297.0
  9
$ORTHOMODE
 70
0
  9
$REGENMODE
 70
1
  9
$FILLMODE
 70
1
  9
$QTEXTMODE
 70
0
  9
$MIRRTEXT
 70
1
  9
$LTSCALE
 40
1.0
  9
$ATTMODE
 70
1
  9
$TEXTSIZE
 40
2.5
  9
$TRACEWID
 40
1.0
  9
$TEXTSTYLE
  7
Standard
  9
$CLAYER
  8
0
  9
$CELTYPE
  6
ByLayer
  9
$CECOLOR
 62
256
  9
$CELTSCALE
 40
1.0
  9
$DISPSILH
 70
0
  9
$DIMSCALE
 40
1.0
  9
$DIMASZ
 40
2.5
  9
$DIMEXO
 40
0.625
  9
$DIMDLI
 40
3.75
  9
$DIMRND
 40
0.0
  9
$DIMDLE
 40
0.0
  9
$DIMEXE
 40
1.25
  9
$DIMTP
 40
0.0
  9
$DIMTM
 40
0.0
  9
$DIMTXT
 40
2.5
  9
$DIMCEN
 40
2.5
  9
$DIMTSZ
 40
0.0
  9
$DIMTOL
 70
0
  9
$DIMLIM
 70
0
  9
$DIMTIH
 70
0
  9
$DIMTOH
 70
0
  9
$DIMSE1
 70
0
  9
$DIMSE2
 70
0
  9
$DIMTAD
 70
1
  9
$DIMZIN
 70
8
  9
$DIMBLK
  1

  9
$DIMASO
 70
1
  9
$DIMSHO
 70
1
  9
$DIMPOST
  1

  9
$DIMAPOST
  1

  9
$DIMALT
 70
0
  9
$DIMALTD
 70
3
  9
$DIMALTF
 40
0.03937007874
  9
$DIMLFAC
 40
1.0
  9
$DIMTOFL
 70
1
  9
$DIMTVP
 40
0.0
  9
$DIMTIX
 70
0
  9
$DIMSOXD
 70
0
  9
$DIMSAH
 70
0
  9
$DIMBLK1
  1

  9
$DIMBLK2
  1

  9
$DIMSTYLE
  2
ISO-25
  9
$DIMCLRD
 70
0
  9
$DIMCLRE
 70
0
  9
$DIMCLRT
 70
0
  9
$DIMTFAC
 40
1.0
  9
$DIMGAP
 40
0.625
  9
$DIMJUST
 70
0
  9
$DIMSD1
 70
0
  9
$DIMSD2
 70
0
  9
$DIMTOLJ
 70
0
  9
$DIMTZIN
 70
8
  9
$DIMALTZ
 70
0
  9
$DIMALTTZ
 70
0
  9
$DIMUPT
 70
0
  9
$DIMDEC
 70
2
  9
$DIMTDEC
 70
2
  9
$DIMALTU
 70
2
  9
$DIMALTTD
 70
3
  9
$DIMTXSTY
  7
Standard
  9
$DIMAUNIT
 70
0
  9
$DIMADEC
 70
0
  9
$DIMALTRND
 40
0.0
  9
$DIMAZIN
 70
0
  9
$DIMDSEP
 70
44
  9
$DIMATFIT
 70
3
  9
$DIMFRAC
 70
0
  9
$DIMLDRBLK
  1

  9
$DIMLUNIT
 70
2
  9
$DIMLWD
 70
-2
  9
$DIMLWE
 70
-2
  9
$DIMTMOVE
 70
0
  9
$DIMFXL
 40
1.0
  9
$DIMFXLON
 70
0
  9
$DIMJOGANG
 40
0.785398163397
  9
$DIMTFILL
 70
0
  9
$DIMTFILLCLR
 70
0
  9
$DIMARCSYM
 70
0
  9
$DIMLTYPE
  6

  9
$DIMLTEX1
  6

  9
$DIMLTEX2
  6

  9
$DIMTXTDIRECTION
 70
0
  9
$LUNITS
 70
2
  9
$LUPREC
 70
4
  9
$SKETCHINC
 40
1.0
  9
$FILLETRAD
 40
10.0
  9
$AUNITS
 70
0
  9
$AUPREC
 70
2
  9
$MENU
  1
.
  9
$ELEVATION
 40
0.0
  9
$PELEVATION
 40
0.0
  9
$THICKNESS
 40
0.0
  9
$LIMCHECK
 70
0
  9
$CHAMFERA
 40
0.0
  9
$CHAMFERB
 40
0.0
  9
$CHAMFERC
 40
0.0
  9
$CHAMFERD
 40
0.0
  9
$SKPOLY
 70
0
  9
$TDCREATE
 40
2461311.9842708334
  9
$TDUCREATE
 40
2458532.153996898
  9
$TDUPDATE
 40
2461311.9842708334
  9
$TDUUPDATE
 40
2458532.1544311
  9
$TDINDWG
 40
0.0
  9
$TDUSRTIMER
 40
0.0
  9
$USRTIMER
 70
1
  9
$ANGBASE
 50
0.0
  9
$ANGDIR
 70
0
  9
$PDMODE
 70
0
  9
$PDSIZE
 40
0.0
  9
$PLINEWID
 40
0.0
  9
$SPLFRAME
 70
0
  9
$SPLINETYPE
 70
6
  9
$SPLINESEGS
 70
8
  9
$HANDSEED
  5
348
  9
$SURFTAB1
 70
6
  9
$SURFTAB2
 70
6
  9
$SURFTYPE
 70
6
  9
$SURFU
 70
6
  9
$SURFV
 70
6
  9
$UCSBASE
  2

  9
$UCSNAME
  2

  9
$UCSORG
 10
0.0
 20
0.0
 30
0.0
  9
$UCSXDIR
 10
1.0
 20
0.0
 30
0.0
  9
$UCSYDIR
 10
0.0
 20
1.0
 30
0.0
  9
$UCSORTHOREF
  2

  9
$UCSORTHOVIEW
 70
0
  9
$UCSORGTOP
 10
0.0
 20
0.0
 30
0.0
  9
$UCSORGBOTTOM
 10
0.0
 20
0.0
 30
0.0
  9
$UCSORGLEFT
 10
0.0
 20
0.0
 30
0.0
  9
$UCSORGRIGHT
 10
0.0
 20
0.0
 30
0.0
  9
$UCSORGFRONT
 10
0.0
 20
0.0
 30
0.0
  9
$UCSORGBACK
 10
0.0
 20
0.0
 30
0.0
  9
$PUCSBASE
  2

  9
$PUCSNAME
  2

  9
$PUCSORG
 10
0.0
 20
0.0
 30
0.0
  9
$PUCSXDIR
 10
1.0
 20
0.0
 30
0.0
  9
$PUCSYDIR
 10
0.0
 20
1.0
 30
0.0
  9
$PUCSORTHOREF
  2

  9
$PUCSORTHOVIEW
 70
0
  9
$PUCSORGTOP
 10
0.0
 20
0.0
 30
0.0
  9
$PUCSORGBOTTOM
 10
0.0
 20
0.0
 30
0.0
  9
$PUCSORGLEFT
 10
0.0
 20
0.0
 30
0.0
  9
$PUCSORGRIGHT
 10
0.0
 20
0.0
 30
0.0
  9
$PUCSORGFRONT
 10
0.0
 20
0.0
 30
0.0
  9
$PUCSORGBACK
 10
0.0
 20
0.0
 30
0.0
  9
$USERI1
 70
0
  9
$USERI2
 70
0
  9
$USERI3
 70
0
  9
$USERI4
 70
0
  9
$USERI5
 70
0
  9
$USERR1
 40
0.0
  9
$USERR2
 40
0.0
  9
$USERR3
 40
0.0
  9
$USERR4
 40
0.0
  9
$USERR5
 40
0.0
  9
$WORLDVIEW
 70
1
  9
$SHADEDGE
 70
3
  9
$SHADEDIF
 70
70
  9
$TILEMODE
 70
1
  9
$MAXACTVP
 70
64
  9
$PINSBASE
 10
0.0
 20
0.0
 30
0.0
  9
$PLIMCHECK
 70
0
  9
$PEXTMIN
 10
1e+20
 20
1e+20
 30
1e+20
  9
$PEXTMAX
 10
-1e+20
 20
-1e+20
 30
-1e+20
  9
$PLIMMIN
 10
0.0
 20
0.0
  9
$PLIMMAX
 10
420.0
 20
297.0
  9
$UNITMODE
 70
0
  9
$VISRETAIN
 70
1
  9
$PLINEGEN
 70
0
  9
$PSLTSCALE
 70
1
  9
$TREEDEPTH
 70
3020
  9
$CMLSTYLE
  2
Standard
  9
$CMLJUST
 70
0
  9
$CMLSCALE
 40
20.0
  9
$PROXYGRAPHICS
 70
1
  9
$MEASUREMENT
 70
1
  9
$CELWEIGHT
370
-1
  9
$ENDCAPS
280
0
  9
$JOINSTYLE
280
0
  9
$LWDISPLAY
290
0
  9
$INSUNITS
 70
4
  9
$HYPERLINKBASE
  1

  9
$STYLESHEET
  1

  9
$XEDIT
290
1
  9
$CEPSNTYPE
380
0
  9
$PSTYLEMODE
290
1
  9
$FINGERPRINTGUID
  2
{E548533A-82A1-45C1-A10B-DA8684A526EC}
  9
$VERSIONGUID
  2
{0AD9BAFA-03DF-4D0F-8C2D-687FC4DD1FC6}
  9
$EXTNAMES
290
1
  9
$PSVPSCALE
 40
0.0
  9
$OLESTARTUP
290
0
  9
$SORTENTS
280
127
  9
$INDEXCTL
280
0
  9
$HIDETEXT
280
1
  9
$XCLIPFRAME
280
1
  9
$HALOGAP
280
0
  9
$OBSCOLOR
 70
257
  9
$OBSLTYPE
280
0
  9
$INTERSECTIONDISPLAY
280
0
  9
$INTERSECTIONCOLOR
 70
257
  9
$DIMASSOC
280
2
  9
$PROJECTNAME
  1

  9
$CAMERADISPLAY
290
0
  9
$LENSLENGTH
 40
50.0
  9
$CAMERAHEIGHT
 40
0.0
  9
$STEPSPERSEC
 40
24.0
  9
$STEPSIZE
 40
100.0
  9
$3DDWFPREC
 40
2.0
  9
$PSOLWIDTH
 40
0.005
  9
$PSOLHEIGHT
 40
0.08
  9
$LOFTANG1
 40
1.570796326795
  9
$LOFTANG2
 40
1.570796326795
  9
$LOFTMAG1
 40
0.0
  9
$LOFTMAG2
 40
0.0
  9
$LOFTPARAM
 70
7
  9
$LOFTNORMALS
280
1
  9
$LATITUDE
 40
37.795
  9
$LONGITUDE
 40
-122.394
  9
$NORTHDIRECTION
 40
0.0
  9
$TIMEZONE
 70
-8000
  9
$LIGHTGLYPHDISPLAY
280
1
  9
$TILEMODELIGHTSYNCH
280
1
  9
$CMATERIAL
347
20
  9
$SOLIDHIST
280
0
  9
$SHOWHIST
280
1
  9
$DWFFRAME
280
2
  9
$DGNFRAME
280
2
  9
$REALWORLDSCALE
290
1
  9
$INTERFERECOLOR
 62
256
  9
$CSHADOW
280
0
  9
$SHADOWPLANELOCATION
 40
0.0
  0
ENDSEC
  0
SECTION
  2
CLASSES
  0
CLASS
  1
ACDBDICTIONARYWDFLT
  2
AcDbDictionaryWithDefault
  3
ObjectDBX Classes
 90
0
 91
0
280
0
281
0
  0
CLASS
  1
SUN
  2
AcDbSun
  3
SCENEOE
 90
1153
 91
0
280
0
281
0
  0
CLASS
  1
VISUALSTYLE
  2
AcDbVisualStyle
  3
ObjectDBX Classes
 90
4095
 91
0
280
0
281
0
  0
CLASS
  1
MATERIAL
  2
AcDbMaterial
  3
ObjectDBX Classes
 90
1153
 91
0
280
0
281
0
  0
CLASS
  1
SCALE
  2
AcDbScale
  3
ObjectDBX Classes
 90
1153
 91
0
280
0
281
0
  0
CLASS
  1
TABLESTYLE
  2
AcDbTableStyle
  3
ObjectDBX Classes
 90
4095
 91
0
280
0
281
0
  0
CLASS
  1
MLEADERSTYLE
  2
AcDbMLeaderStyle
  3
ACDB_MLEADERSTYLE_CLASS
 90
4095
 91
0
280
0
281
0
  0
CLASS
  1
DICTIONARYVAR
  2
AcDbDictionaryVar
  3
ObjectDBX Classes
 90
0
 91
0
280
0
281
0
  0
CLASS
  1
CELLSTYLEMAP
  2
AcDbCellStyleMap
  3
ObjectDBX Classes
 90
1152
 91
0
280
0
281
0
  0
CLASS
  1
MENTALRAYRENDERSETTINGS
  2
AcDbMentalRayRenderSettings
  3
SCENEOE
 90
1024
 91
0
280
0
281
0
  0
CLASS
  1
ACDBDETAILVIEWSTYLE
  2
AcDbDetailViewStyle
  3
ObjectDBX Classes
 90
1025
 91
0
280
0
281
0
  0
CLASS
  1
ACDBSECTIONVIEWSTYLE
  2
AcDbSectionViewStyle
  3
ObjectDBX Classes
 90
1025
 91
0
280
0
281
0
  0
CLASS
  1
RASTERVARIABLES
  2
AcDbRasterVariables
  3
ISM
 90
0
 91
0
280
0
281
0
  0
CLASS
  1
ACDBPLACEHOLDER
  2
AcDbPlaceHolder
  3
ObjectDBX Classes
 90
0
 91
0
280
0
281
0
  0
CLASS
  1
LAYOUT
  2
AcDbLayout
  3
ObjectDBX Classes
 90
0
 91
0
280
0
281
0
  0
ENDSEC
  0
SECTION
  2
TABLES
  0
TABLE
  2
VPORT
  5
8
330
0
100
AcDbSymbolTable
 70
1
  0
VPORT
  5
23
330
8
100
AcDbSymbolTableRecord
100
AcDbViewportTableRecord
  2
*Active
 70
0
 10
0.0
 20
0.0
 11
1.0
 21
1.0
 12
0.0
 22
0.0
 13
0.0
 23
0.0
 14
0.5
 24
0.5
 15
0.5
 25
0.5
 16
0.0
 26
0.0
 36
1.0
 17
0.0
 27
0.0
 37
0.0
 40
1000.0
 41
1.34
 42
50.0
 43
0.0
 44
0.0
 50
0.0
 51
0.0
 71
0
 72
1000
 73
1
 74
3
 75
0
 76
0
 77
0
 78
0
281
0
 65
0
146
0.0
  0
ENDTAB
  0
TABLE
  2
LTYPE
  5
2
330
0
100
AcDbSymbolTable
 70
3
  0
LTYPE
  5
24
330
2
100
AcDbSymbolTableRecord
100
AcDbLinetypeTableRecord
  2
ByBlock
 70
0
  3

 72
65
 73
0
 40
0.0
  0
LTYPE
  5
25
330
2
100
AcDbSymbolTableRecord
100
AcDbLinetypeTableRecord
  2
ByLayer
 70
0
  3

 72
65
 73
0
 40
0.0
  0
LTYPE
  5
26
330
2
100
AcDbSymbolTableRecord
100
AcDbLinetypeTableRecord
  2
Continuous
 70
0
  3

 72
65
 73
0
 40
0.0
  0
ENDTAB
  0
TABLE
  2
LAYER
  5
1
330
0
100
AcDbSymbolTable
 70
5
  0
LAYER
  5
27
330
1
100
AcDbSymbolTableRecord
100
AcDbLayerTableRecord
  2
0
 70
0
 62
7
  6
Continuous
370
-3
390
13
347
21
  0
LAYER
  5
28
330
1
100
AcDbSymbolTableRecord
100
AcDbLayerTableRecord
  2
Defpoints
 70
0
 62
7
  6
Continuous
290
0
370
-3
390
13
347
21
  0
LAYER
  5
2F
330
1
100
AcDbSymbolTableRecord
100
AcDbLayerTableRecord
  2
BOUNDARY
 70
0
 62
7
  6
Continuous
370
-3
390
13
347
21
  0
LAYER
  5
30
330
1
100
AcDbSymbolTableRecord
100
AcDbLayerTableRecord
  2
NOTE
 70
0
 62
3
  6
Continuous
370
-3
390
13
347
21
  0
LAYER
  5
31
330
1
100
AcDbSymbolTableRecord
100
AcDbLayerTableRecord
  2
DIM
 70
0
 62
2
  6
Continuous
370
-3
390
13
347
21
  0
ENDTAB
  0
TABLE
  2
STYLE
  5
5
330
0
100
AcDbSymbolTable
 70
1
  0
STYLE
  5
29
330
5
100
AcDbSymbolTableRecord
100
AcDbTextStyleTableRecord
  2
Standard
 70
0
 40
0.0
 41
1.0
 50
0.0
 71
0
 42
2.5
  3
txt
  4

  0
ENDTAB
  0
TABLE
  2
VIEW
  5
7
330
0
100
AcDbSymbolTable
 70
0
  0
ENDTAB
  0
TABLE
  2
UCS
  5
6
330
0
100
AcDbSymbolTable
 70
0
  0
ENDTAB
  0
TABLE
  2
APPID
  5
3
330
0
100
AcDbSymbolTable
 70
3
  0
APPID
  5
2A
330
3
100
AcDbSymbolTableRecord
100
AcDbRegAppTableRecord
  2
ACAD
 70
0
  0
APPID
  5
345
330
3
100
AcDbSymbolTableRecord
100
AcDbRegAppTableRecord
  2
HATCHBACKGROUNDCOLOR
 70
0
  0
APPID
  5
346
330
3
100
AcDbSymbolTableRecord
100
AcDbRegAppTableRecord
  2
EZDXF
 70
0
  0
ENDTAB
  0
TABLE
  2
DIMSTYLE
  5
4
330
0
100
AcDbSymbolTable
 70
1
100
AcDbDimStyleTable
  0
DIMSTYLE
105
2B
330
4
100
AcDbSymbolTableRecord
100
AcDbDimStyleTableRecord
  2
Standard
 70
0
 40
1.0
 41
2.5
 42
0.625
 43
3.75
 44
1.25
 45
0.0
 46
0.0
 47
0.0
 48
0.0
 49
2.5
140
2.5
141
2.5
142
0.0
143
0.03937007874
144
1.0
145
0.0
146
1.0
147
0.625
148
0.0
 69
0
 70
0
 71
0
 72
0
 73
0
 74
0
 75
0
 76
0
 77
1
 78
8
 79
3
170
0
171
3
172
1
173
0
174
0
175
0
176
0
177
0
178
0
179
2
271
2
272
2
273
2
274
3
275
0
276
0
277
2
278
44
279
0
280
0
281
0
282
0
283
0
284
8
285
0
286
0
288
0
289
3
290
0
371
-2
372
-2
  0
ENDTAB
  0
TABLE
  2
BLOCK_RECORD
  5
9
330
0
100
AcDbSymbolTable
 70
2
  0
BLOCK_RECORD
  5
17
330
9
100
AcDbSymbolTableRecord
100
AcDbBlockTableRecord
  2
*Model_Space
340
1A
 70
0
280
1
281
0
  0
BLOCK_RECORD
  5
1B
330
9
100
AcDbSymbolTableRecord
100
AcDbBlockTableRecord
  2
*Paper_Space
340
1E
 70
0
280
1
281
0
  0
ENDTAB
  0
ENDSEC
  0
SECTION
  2
BLOCKS
  0
BLOCK
  5
18
330
17
100
AcDbEntity
  8
0
100
AcDbBlockBegin
  2
*Model_Space
 70
0
 10
0.0
 20
0.0
 30
0.0
  3
*Model_Space
  1

  0
ENDBLK
  5
19
330
17
100
AcDbEntity
  8
0
100
AcDbBlockEnd
  0
BLOCK
  5
1C
330
1B
100
AcDbEntity
  8
0
100
AcDbBlockBegin
  2
*Paper_Space
 70
0
 10
0.0
 20
0.0
 30
0.0
  3
*Paper_Space
  1

  0
ENDBLK
  5
1D
330
1B
100
AcDbEntity
  8
0
100
AcDbBlockEnd
  0
ENDSEC
  0
SECTION
  2
ENTITIES
  0
LINE
  5
32
330
17
100
AcDbEntity
  8
BOUNDARY
100
AcDbLine
 10
-6.2
 20
25.0
 30
0.0
 11
-0.09999999999999964
 21
25.0
 31
0.0
  0
LINE
  5
33
330
17
100
AcDbEntity
  8
BOUNDARY
100
AcDbLine
 10
-6.199999999999866
 20
25.00000000000014
 30
0.0
 11
-6.500000000000004
 21
25.300000000000008
 31
0.0
  0
ARC
  5
34
330
17
100
AcDbEntity
  8
BOUNDARY
100
AcDbCircle
 10
-0.1
 20
24.9
 30
0.0
 40
0.1
100
AcDbArc
 50
359.99999999999386
 51
89.99999999999997
  0
LINE
  5
35
330
17
100
AcDbEntity
  8
BOUNDARY
100
AcDbLine
 10
-6.2
 20
-25.0
 30
0.0
 11
-0.09999999999999964
 21
-25.0
 31
0.0
  0
LINE
  5
36
330
17
100
AcDbEntity
  8
BOUNDARY
100
AcDbLine
 10
-6.199999999999866
 20
-25.00000000000014
 30
0.0
 11
-6.500000000000004
 21
-25.300000000000008
 31
0.0
  0
ARC
  5
37
330
17
100
AcDbEntity
  8
BOUNDARY
100
AcDbCircle
 10
-0.1
 20
-24.9
 30
0.0
 40
0.1
100
AcDbArc
 50
270.0
 51
6.110667527536862e-12
  0
LINE
  5
38
330
17
100
AcDbEntity
  8
BOUNDARY
100
AcDbLine
 10
0.0
 20
-24.8
 30
0.0
 11
0.0
 21
-24.9
 31
0.0
  0
LINE
  5
39
330
17
100
AcDbEntity
  8
BOUNDARY
100
AcDbLine
 10
0.0
 20
24.9
 30
0.0
 11
0.0
 21
24.8
 31
0.0
  0
LINE
  5
3A
330
17
100
AcDbEntity
  8
BOUNDARY
100
AcDbLine
 10
0.0
 20
24.8
 30
0.0
 11
0.5
 21
24.8
 31
0.0
  0
LINE
  5
3B
330
17
100
AcDbEntity
  8
BOUNDARY
100
AcDbLine
 10
0.0
 20
-24.8
 30
0.0
 11
0.5
 21
-24.8
 31
0.0
  0
LINE
  5
3C
330
17
100
AcDbEntity
  8
BOUNDARY
100
AcDbLine
 10
8.0
 20
38.0
 30
0.0
 11
8.0
 21
31.0
 31
0.0
  0
LINE
  5
3D
330
17
100
AcDbEntity
  8
BOUNDARY
100
AcDbLine
 10
0.0
 20
38.0
 30
0.0
 11
8.0
 21
38.0
 31
0.0
  0
LINE
  5
3E
330
17
100
AcDbEntity
  8
BOUNDARY
100
AcDbLine
 10
8.0
 20
31.0
 30
0.0
 11
21.1
 21
31.0
 31
0.0
  0
LINE
  5
3F
330
17
100
AcDbEntity
  8
BOUNDARY
100
AcDbLine
 10
8.0
 20
26.0
 30
0.0
 11
8.0
 21
9.0
 31
0.0
  0
LINE
  5
40
330
17
100
AcDbEntity
  8
BOUNDARY
100
AcDbLine
 10
8.0
 20
26.0
 30
0.0
 11
16.0
 21
26.0
 31
0.0
  0
LINE
  5
41
330
17
100
AcDbEntity
  8
BOUNDARY
100
AcDbLine
 10
0.2999999999999998
 20
9.0
 30
0.0
 11
8.0
 21
9.0
 31
0.0
  0
LINE
  5
42
330
17
100
AcDbEntity
  8
BOUNDARY
100
AcDbLine
 10
8.0
 20
-9.0
 30
0.0
 11
8.0
 21
-38.00000000000001
 31
0.0
  0
LINE
  5
43
330
17
100
AcDbEntity
  8
BOUNDARY
100
AcDbLine
 10
0.2999999999999998
 20
-9.0
 30
0.0
 11
8.0
 21
-9.0
 31
0.0
  0
LINE
  5
44
330
17
100
AcDbEntity
  8
BOUNDARY
100
AcDbLine
 10
0.0
 20
-38.0
 30
0.0
 11
8.0
 21
-38.0
 31
0.0
  0
LINE
  5
45
330
17
100
AcDbEntity
  8
BOUNDARY
100
AcDbLine
 10
0.3
 20
19.2
 30
0.0
 11
0.3
 21
9.0
 31
0.0
  0
LINE
  5
46
330
17
100
AcDbEntity
  8
BOUNDARY
100
AcDbLine
 10
0.3
 20
-9.0
 30
0.0
 11
0.3
 21
-19.2
 31
0.0
  0
LINE
  5
47
330
17
100
AcDbEntity
  8
BOUNDARY
100
AcDbLine
 10
0.3
 20
19.2
 30
0.0
 11
0.5
 21
19.2
 31
0.0
  0
LINE
  5
48
330
17
100
AcDbEntity
  8
BOUNDARY
100
AcDbLine
 10
0.3
 20
-19.2
 30
0.0
 11
0.5
 21
-19.2
 31
0.0
  0
LINE
  5
49
330
17
100
AcDbEntity
  8
BOUNDARY
100
AcDbLine
 10
21.3
 20
30.8
 30
0.0
 11
21.10000000000009
 21
31.00000000000009
 31
0.0
  0
LINE
  5
4A
330
17
100
AcDbEntity
  8
BOUNDARY
100
AcDbLine
 10
24.9
 20
31.0
 30
0.0
 11
25.7
 21
31.0
 31
0.0
  0
LINE
  5
4B
330
17
100
AcDbEntity
  8
BOUNDARY
100
AcDbLine
 10
24.7
 20
30.8
 30
0.0
 11
24.89999999999991
 21
31.00000000000009
 31
0.0
  0
LINE
  5
4C
330
17
100
AcDbEntity
  8
BOUNDARY
100
AcDbLine
 10
25.7
 20
25.0
 30
0.0
 11
25.7
 21
31.0
 31
0.0
  0
LINE
  5
4D
330
17
100
AcDbEntity
  8
BOUNDARY
100
AcDbLine
 10
84.3
 20
31.0
 30
0.0
 11
85.1
 21
31.0
 31
0.0
  0
LINE
  5
4E
330
17
100
AcDbEntity
  8
BOUNDARY
100
AcDbLine
 10
84.3
 20
25.0
 30
0.0
 11
84.3
 21
31.0
 31
0.0
  0
LINE
  5
4F
330
17
100
AcDbEntity
  8
BOUNDARY
100
AcDbLine
 10
85.3
 20
30.800000000000004
 30
0.0
 11
85.1000000000001
 21
31.00000000000009
 31
0.0
  0
LINE
  5
50
330
17
100
AcDbEntity
  8
BOUNDARY
100
AcDbLine
 10
88.9
 20
31.0
 30
0.0
 11
94.0
 21
31.0
 31
0.0
  0
LINE
  5
51
330
17
100
AcDbEntity
  8
BOUNDARY
100
AcDbLine
 10
88.7
 20
30.800000000000004
 30
0.0
 11
88.8999999999999
 21
31.00000000000009
 31
0.0
  0
LINE
  5
52
330
17
100
AcDbEntity
  8
BOUNDARY
100
AcDbLine
 10
94.0
 20
25.0
 30
0.0
 11
94.0
 21
31.0
 31
0.0
  0
LINE
  5
53
330
17
100
AcDbEntity
  8
BOUNDARY
100
AcDbLine
 10
16.0
 20
25.0
 30
0.0
 11
21.3
 21
25.0
 31
0.0
  0
LINE
  5
54
330
17
100
AcDbEntity
  8
BOUNDARY
100
AcDbLine
 10
16.0
 20
25.0
 30
0.0
 11
16.0
 21
26.0
 31
0.0
  0
LINE
  5
55
330
17
100
AcDbEntity
  8
BOUNDARY
100
AcDbLine
 10
21.3
 20
25.0
 30
0.0
 11
21.3
 21
30.8
 31
0.0
  0
LINE
  5
56
330
17
100
AcDbEntity
  8
BOUNDARY
100
AcDbLine
 10
24.7
 20
25.0
 30
0.0
 11
25.7
 21
25.0
 31
0.0
  0
LINE
  5
57
330
17
100
AcDbEntity
  8
BOUNDARY
100
AcDbLine
 10
24.7
 20
25.0
 30
0.0
 11
24.7
 21
30.8
 31
0.0
  0
LINE
  5
58
330
17
100
AcDbEntity
  8
BOUNDARY
100
AcDbLine
 10
84.3
 20
25.0
 30
0.0
 11
85.3
 21
25.0
 31
0.0
  0
LINE
  5
59
330
17
100
AcDbEntity
  8
BOUNDARY
100
AcDbLine
 10
85.3
 20
25.0
 30
0.0
 11
85.3
 21
30.8
 31
0.0
  0
LINE
  5
5A
330
17
100
AcDbEntity
  8
BOUNDARY
100
AcDbLine
 10
88.7
 20
25.0
 30
0.0
 11
94.0
 21
25.0
 31
0.0
  0
LINE
  5
5B
330
17
100
AcDbEntity
  8
BOUNDARY
100
AcDbLine
 10
88.7
 20
25.0
 30
0.0
 11
88.7
 21
30.8
 31
0.0
  0
LINE
  5
5C
330
17
100
AcDbEntity
  8
BOUNDARY
100
AcDbLine
 10
0.0
 20
38.0
 30
0.0
 11
0.0
 21
28.000000000000004
 31
0.0
  0
LINE
  5
5D
330
17
100
AcDbEntity
  8
BOUNDARY
100
AcDbLine
 10
0.0
 20
-28.000000000000004
 30
0.0
 11
0.0
 21
-38.00000000000001
 31
0.0
  0
LINE
  5
5E
330
17
100
AcDbEntity
  8
BOUNDARY
100
AcDbLine
 10
-6.5
 20
28.0
 30
0.0
 11
0.0
 21
28.0
 31
0.0
  0
LINE
  5
5F
330
17
100
AcDbEntity
  8
BOUNDARY
100
AcDbLine
 10
-6.5
 20
-28.0
 30
0.0
 11
0.0
 21
-28.0
 31
0.0
  0
LINE
  5
60
330
17
100
AcDbEntity
  8
BOUNDARY
100
AcDbLine
 10
-6.5
 20
28.000000000000004
 30
0.0
 11
-6.5
 21
25.300000000000004
 31
0.0
  0
LINE
  5
61
330
17
100
AcDbEntity
  8
BOUNDARY
100
AcDbLine
 10
-6.5
 20
-25.3
 30
0.0
 11
-6.5
 21
-28.000000000000004
 31
0.0
  0
LINE
  5
62
330
17
100
AcDbEntity
  8
BOUNDARY
100
AcDbLine
 10
0.5
 20
-19.2
 30
0.0
 11
0.5
 21
-24.8
 31
0.0
  0
LINE
  5
63
330
17
100
AcDbEntity
  8
BOUNDARY
100
AcDbLine
 10
0.5
 20
24.8
 30
0.0
 11
0.5
 21
19.2
 31
0.0
  0
TEXT
  5
64
330
17
100
AcDbEntity
  8
NOTE
100
AcDbText
 10
-40.0
 20
105.0
 30
0.0
 40
2.5
  1
SIDE X0: Y horizontal Z vertical
100
AcDbText
  0
LINE
  5
65
330
17
100
AcDbEntity
  8
BOUNDARY
100
AcDbLine
 10
153.8
 20
22.688102609076854
 30
0.0
 11
159.9
 21
22.688102609076854
 31
0.0
  0
LINE
  5
66
330
17
100
AcDbEntity
  8
BOUNDARY
100
AcDbLine
 10
153.5
 20
23.018253626198497
 30
0.0
 11
153.8000000000001
 21
22.688102609077053
 31
0.0
  0
LINE
  5
67
330
17
100
AcDbEntity
  8
BOUNDARY
100
AcDbLine
 10
159.9
 20
22.688102609076868
 30
0.0
 11
160.0995862644701
 21
22.688101665973402
 31
0.0
  0
LINE
  5
68
330
17
100
AcDbEntity
  8
BOUNDARY
100
AcDbLine
 10
160.0995862644701
 20
22.688101665973402
 30
0.0
 11
160.09911503594324
 21
22.688098294168167
 31
0.0
  0
LINE
  5
69
330
17
100
AcDbEntity
  8
BOUNDARY
100
AcDbLine
 10
160.09911503594324
 20
22.688098294168167
 30
0.0
 11
160.09864382706843
 21
22.688092475518648
 31
0.0
  0
LINE
  5
6A
330
17
100
AcDbEntity
  8
BOUNDARY
100
AcDbLine
 10
160.09864382706843
 20
22.688092475518648
 30
0.0
 11
160.09817264830957
 21
22.688084210153736
 31
0.0
  0
LINE
  5
6B
330
17
100
AcDbEntity
  8
BOUNDARY
100
AcDbLine
 10
160.09817264830957
 20
22.688084210153736
 30
0.0
 11
160.09770151012992
 21
22.688073498256514
 31
0.0
  0
LINE
  5
6C
330
17
100
AcDbEntity
  8
BOUNDARY
100
AcDbLine
 10
160.09770151012992
 20
22.688073498256514
 30
0.0
 11
160.09723042299186
 21
22.688060340064236
 31
0.0
  0
LINE
  5
6D
330
17
100
AcDbEntity
  8
BOUNDARY
100
AcDbLine
 10
160.09723042299186
 20
22.688060340064236
 30
0.0
 11
160.0967593973566
 21
22.688044735868342
 31
0.0
  0
LINE
  5
6E
330
17
100
AcDbEntity
  8
BOUNDARY
100
AcDbLine
 10
160.0967593973566
 20
22.688044735868342
 30
0.0
 11
160.09628844368402
 21
22.688026686014467
 31
0.0
  0
LINE
  5
6F
330
17
100
AcDbEntity
  8
BOUNDARY
100
AcDbLine
 10
160.09628844368402
 20
22.688026686014467
 30
0.0
 11
160.09581757243237
 21
22.688006190902417
 31
0.0
  0
LINE
  5
70
330
17
100
AcDbEntity
  8
BOUNDARY
100
AcDbLine
 10
160.09581757243237
 20
22.688006190902417
 30
0.0
 11
160.0953467940581
 21
22.687983250986132
 31
0.0
  0
LINE
  5
71
330
17
100
AcDbEntity
  8
BOUNDARY
100
AcDbLine
 10
160.0953467940581
 20
22.687983250986132
 30
0.0
 11
160.09487611901557
 21
22.687957866773733
 31
0.0
  0
LINE
  5
72
330
17
100
AcDbEntity
  8
BOUNDARY
100
AcDbLine
 10
160.09487611901557
 20
22.687957866773733
 30
0.0
 11
160.09440555775686
 21
22.687930038827457
 31
0.0
  0
LINE
  5
73
330
17
100
AcDbEntity
  8
BOUNDARY
100
AcDbLine
 10
160.09440555775686
 20
22.687930038827457
 30
0.0
 11
160.09393512073152
 21
22.687899767763696
 31
0.0
  0
LINE
  5
74
330
17
100
AcDbEntity
  8
BOUNDARY
100
AcDbLine
 10
160.09393512073152
 20
22.687899767763696
 30
0.0
 11
160.09346481838634
 21
22.68786705425293
 31
0.0
  0
LINE
  5
75
330
17
100
AcDbEntity
  8
BOUNDARY
100
AcDbLine
 10
160.09346481838634
 20
22.68786705425293
 30
0.0
 11
160.0929946611651
 21
22.687831899019756
 31
0.0
  0
LINE
  5
76
330
17
100
AcDbEntity
  8
BOUNDARY
100
AcDbLine
 10
160.0929946611651
 20
22.687831899019756
 30
0.0
 11
160.09252465950846
 21
22.687794302842843
 31
0.0
  0
LINE
  5
77
330
17
100
AcDbEntity
  8
BOUNDARY
100
AcDbLine
 10
160.09252465950846
 20
22.687794302842843
 30
0.0
 11
160.09205482385346
 21
22.68775426655494
 31
0.0
  0
LINE
  5
78
330
17
100
AcDbEntity
  8
BOUNDARY
100
AcDbLine
 10
160.09205482385346
 20
22.68775426655494
 30
0.0
 11
160.09158516463356
 21
22.687711791042837
 31
0.0
  0
LINE
  5
79
330
17
100
AcDbEntity
  8
BOUNDARY
100
AcDbLine
 10
160.09158516463356
 20
22.687711791042837
 30
0.0
 11
160.0911156922783
 21
22.68766687724735
 31
0.0
  0
LINE
  5
7A
330
17
100
AcDbEntity
  8
BOUNDARY
100
AcDbLine
 10
160.0911156922783
 20
22.68766687724735
 30
0.0
 11
160.09064641721304
 21
22.687619526163303
 31
0.0
  0
LINE
  5
7B
330
17
100
AcDbEntity
  8
BOUNDARY
100
AcDbLine
 10
160.09064641721304
 20
22.687619526163303
 30
0.0
 11
160.09017734985875
 21
22.687569738839517
 31
0.0
  0
LINE
  5
7C
330
17
100
AcDbEntity
  8
BOUNDARY
100
AcDbLine
 10
160.09017734985875
 20
22.687569738839517
 30
0.0
 11
160.08970850063184
 21
22.68751751637877
 31
0.0
  0
LINE
  5
7D
330
17
100
AcDbEntity
  8
BOUNDARY
100
AcDbLine
 10
160.08970850063184
 20
22.68751751637877
 30
0.0
 11
160.08923987994382
 21
22.68746285993777
 31
0.0
  0
LINE
  5
7E
330
17
100
AcDbEntity
  8
BOUNDARY
100
AcDbLine
 10
160.08923987994382
 20
22.68746285993777
 30
0.0
 11
160.08877149820114
 21
22.687405770727153
 31
0.0
  0
LINE
  5
7F
330
17
100
AcDbEntity
  8
BOUNDARY
100
AcDbLine
 10
160.08877149820114
 20
22.687405770727153
 30
0.0
 11
160.08830336580496
 21
22.68734625001143
 31
0.0
  0
LINE
  5
80
330
17
100
AcDbEntity
  8
BOUNDARY
100
AcDbLine
 10
160.08830336580496
 20
22.68734625001143
 30
0.0
 11
160.08783549315092
 21
22.68728429910898
 31
0.0
  0
LINE
  5
81
330
17
100
AcDbEntity
  8
BOUNDARY
100
AcDbLine
 10
160.08783549315092
 20
22.68728429910898
 30
0.0
 11
160.08736789062883
 21
22.68721991939201
 31
0.0
  0
LINE
  5
82
330
17
100
AcDbEntity
  8
BOUNDARY
100
AcDbLine
 10
160.08736789062883
 20
22.68721991939201
 30
0.0
 11
160.08690056862255
 21
22.68715311228652
 31
0.0
  0
LINE
  5
83
330
17
100
AcDbEntity
  8
BOUNDARY
100
AcDbLine
 10
160.08690056862255
 20
22.68715311228652
 30
0.0
 11
160.08643353750972
 21
22.687083879272294
 31
0.0
  0
LINE
  5
84
330
17
100
AcDbEntity
  8
BOUNDARY
100
AcDbLine
 10
160.08643353750972
 20
22.687083879272294
 30
0.0
 11
160.08596680766146
 21
22.68701222188284
 31
0.0
  0
LINE
  5
85
330
17
100
AcDbEntity
  8
BOUNDARY
100
AcDbLine
 10
160.08596680766146
 20
22.68701222188284
 30
0.0
 11
160.08550038944225
 21
22.68693814170536
 31
0.0
  0
LINE
  5
86
330
17
100
AcDbEntity
  8
BOUNDARY
100
AcDbLine
 10
160.08550038944225
 20
22.68693814170536
 30
0.0
 11
160.08503429320965
 21
22.686861640380755
 31
0.0
  0
LINE
  5
87
330
17
100
AcDbEntity
  8
BOUNDARY
100
AcDbLine
 10
160.08503429320965
 20
22.686861640380755
 30
0.0
 11
160.08456852931405
 21
22.686782719603528
 31
0.0
  0
LINE
  5
88
330
17
100
AcDbEntity
  8
BOUNDARY
100
AcDbLine
 10
160.08456852931405
 20
22.686782719603528
 30
0.0
 11
160.08410310809847
 21
22.686701381121782
 31
0.0
  0
LINE
  5
89
330
17
100
AcDbEntity
  8
BOUNDARY
100
AcDbLine
 10
160.08410310809847
 20
22.686701381121782
 30
0.0
 11
160.08363803989835
 21
22.686617626737167
 31
0.0
  0
LINE
  5
8A
330
17
100
AcDbEntity
  8
BOUNDARY
100
AcDbLine
 10
160.08363803989835
 20
22.686617626737167
 30
0.0
 11
160.0831733350412
 21
22.68653145830489
 31
0.0
  0
LINE
  5
8B
330
17
100
AcDbEntity
  8
BOUNDARY
100
AcDbLine
 10
160.0831733350412
 20
22.68653145830489
 30
0.0
 11
160.08270900384656
 21
22.686442877733594
 31
0.0
  0
LINE
  5
8C
330
17
100
AcDbEntity
  8
BOUNDARY
100
AcDbLine
 10
160.08270900384656
 20
22.686442877733594
 30
0.0
 11
160.0822450566256
 21
22.68635188698535
 31
0.0
  0
LINE
  5
8D
330
17
100
AcDbEntity
  8
BOUNDARY
100
AcDbLine
 10
160.0822450566256
 20
22.68635188698535
 30
0.0
 11
160.08178150368104
 21
22.686258488075655
 31
0.0
  0
LINE
  5
8E
330
17
100
AcDbEntity
  8
BOUNDARY
100
AcDbLine
 10
160.08178150368104
 20
22.686258488075655
 30
0.0
 11
160.08131835530676
 21
22.68616268307333
 31
0.0
  0
LINE
  5
8F
330
17
100
AcDbEntity
  8
BOUNDARY
100
AcDbLine
 10
160.08131835530676
 20
22.68616268307333
 30
0.0
 11
160.08085562178772
 21
22.686064474100494
 31
0.0
  0
LINE
  5
90
330
17
100
AcDbEntity
  8
BOUNDARY
100
AcDbLine
 10
160.08085562178772
 20
22.686064474100494
 30
0.0
 11
160.08039331339964
 21
22.685963863332518
 31
0.0
  0
LINE
  5
91
330
17
100
AcDbEntity
  8
BOUNDARY
100
AcDbLine
 10
160.08039331339964
 20
22.685963863332518
 30
0.0
 11
160.0799314404088
 21
22.685860852998008
 31
0.0
  0
LINE
  5
92
330
17
100
AcDbEntity
  8
BOUNDARY
100
AcDbLine
 10
160.0799314404088
 20
22.685860852998008
 30
0.0
 11
160.0794700130718
 21
22.685755445378682
 31
0.0
  0
LINE
  5
93
330
17
100
AcDbEntity
  8
BOUNDARY
100
AcDbLine
 10
160.0794700130718
 20
22.685755445378682
 30
0.0
 11
160.0790090416354
 21
22.685647642809393
 31
0.0
  0
LINE
  5
94
330
17
100
AcDbEntity
  8
BOUNDARY
100
AcDbLine
 10
160.0790090416354
 20
22.685647642809393
 30
0.0
 11
160.07854853633617
 21
22.685537447678062
 31
0.0
  0
LINE
  5
95
330
17
100
AcDbEntity
  8
BOUNDARY
100
AcDbLine
 10
160.07854853633617
 20
22.685537447678062
 30
0.0
 11
160.0780885074003
 21
22.68542486242557
 31
0.0
  0
LINE
  5
96
330
17
100
AcDbEntity
  8
BOUNDARY
100
AcDbLine
 10
160.0780885074003
 20
22.68542486242557
 30
0.0
 11
160.07762896504354
 21
22.685309889545792
 31
0.0
  0
LINE
  5
97
330
17
100
AcDbEntity
  8
BOUNDARY
100
AcDbLine
 10
160.07762896504354
 20
22.685309889545792
 30
0.0
 11
160.07716991947072
 21
22.685192531585475
 31
0.0
  0
LINE
  5
98
330
17
100
AcDbEntity
  8
BOUNDARY
100
AcDbLine
 10
160.07716991947072
 20
22.685192531585475
 30
0.0
 11
160.07671138087565
 21
22.685072791144204
 31
0.0
  0
LINE
  5
99
330
17
100
AcDbEntity
  8
BOUNDARY
100
AcDbLine
 10
160.07671138087565
 20
22.685072791144204
 30
0.0
 11
160.0762533594409
 21
22.68495067087434
 31
0.0
  0
LINE
  5
9A
330
17
100
AcDbEntity
  8
BOUNDARY
100
AcDbLine
 10
160.0762533594409
 20
22.68495067087434
 30
0.0
 11
160.07579586533757
 21
22.684826173480996
 31
0.0
  0
LINE
  5
9B
330
17
100
AcDbEntity
  8
BOUNDARY
100
AcDbLine
 10
160.07579586533757
 20
22.684826173480996
 30
0.0
 11
160.075338908725
 21
22.68469930172191
 31
0.0
  0
LINE
  5
9C
330
17
100
AcDbEntity
  8
BOUNDARY
100
AcDbLine
 10
160.075338908725
 20
22.68469930172191
 30
0.0
 11
160.0748824997507
 21
22.684570058407463
 31
0.0
  0
LINE
  5
9D
330
17
100
AcDbEntity
  8
BOUNDARY
100
AcDbLine
 10
160.0748824997507
 20
22.684570058407463
 30
0.0
 11
160.07442664854986
 21
22.684438446400534
 31
0.0
  0
LINE
  5
9E
330
17
100
AcDbEntity
  8
BOUNDARY
100
AcDbLine
 10
160.07442664854986
 20
22.684438446400534
 30
0.0
 11
160.07397136524543
 21
22.684304468616517
 31
0.0
  0
LINE
  5
9F
330
17
100
AcDbEntity
  8
BOUNDARY
100
AcDbLine
 10
160.07397136524543
 20
22.684304468616517
 30
0.0
 11
160.07351665994767
 21
22.684168128023195
 31
0.0
  0
LINE
  5
A0
330
17
100
AcDbEntity
  8
BOUNDARY
100
AcDbLine
 10
160.07351665994767
 20
22.684168128023195
 30
0.0
 11
160.07306254275403
 21
22.684029427640727
 31
0.0
  0
LINE
  5
A1
330
17
100
AcDbEntity
  8
BOUNDARY
100
AcDbLine
 10
160.07306254275403
 20
22.684029427640727
 30
0.0
 11
160.0726090237489
 21
22.68388837054152
 31
0.0
  0
LINE
  5
A2
330
17
100
AcDbEntity
  8
BOUNDARY
100
AcDbLine
 10
160.0726090237489
 20
22.68388837054152
 30
0.0
 11
160.07215611300336
 21
22.683744959850216
 31
0.0
  0
LINE
  5
A3
330
17
100
AcDbEntity
  8
BOUNDARY
100
AcDbLine
 10
160.07215611300336
 20
22.683744959850216
 30
0.0
 11
160.071703820575
 21
22.683599198743597
 31
0.0
  0
LINE
  5
A4
330
17
100
AcDbEntity
  8
BOUNDARY
100
AcDbLine
 10
160.071703820575
 20
22.683599198743597
 30
0.0
 11
160.07125215650774
 21
22.683451090450546
 31
0.0
  0
LINE
  5
A5
330
17
100
AcDbEntity
  8
BOUNDARY
100
AcDbLine
 10
160.07125215650774
 20
22.683451090450546
 30
0.0
 11
160.07080113083143
 21
22.68330063825191
 31
0.0
  0
LINE
  5
A6
330
17
100
AcDbEntity
  8
BOUNDARY
100
AcDbLine
 10
160.07080113083143
 20
22.68330063825191
 30
0.0
 11
160.0703507535618
 21
22.683147845480494
 31
0.0
  0
LINE
  5
A7
330
17
100
AcDbEntity
  8
BOUNDARY
100
AcDbLine
 10
160.0703507535618
 20
22.683147845480494
 30
0.0
 11
160.06990103470022
 21
22.682992715520957
 31
0.0
  0
LINE
  5
A8
330
17
100
AcDbEntity
  8
BOUNDARY
100
AcDbLine
 10
160.06990103470022
 20
22.682992715520957
 30
0.0
 11
160.0694519842334
 21
22.682835251809752
 31
0.0
  0
LINE
  5
A9
330
17
100
AcDbEntity
  8
BOUNDARY
100
AcDbLine
 10
160.0694519842334
 20
22.682835251809752
 30
0.0
 11
160.0690036121332
 21
22.682675457835018
 31
0.0
  0
LINE
  5
AA
330
17
100
AcDbEntity
  8
BOUNDARY
100
AcDbLine
 10
160.0690036121332
 20
22.682675457835018
 30
0.0
 11
160.0685559283564
 21
22.682513337136562
 31
0.0
  0
LINE
  5
AB
330
17
100
AcDbEntity
  8
BOUNDARY
100
AcDbLine
 10
160.0685559283564
 20
22.682513337136562
 30
0.0
 11
160.06810894284456
 21
22.682348893305715
 31
0.0
  0
LINE
  5
AC
330
17
100
AcDbEntity
  8
BOUNDARY
100
AcDbLine
 10
160.06810894284456
 20
22.682348893305715
 30
0.0
 11
160.06766266552367
 21
22.682182129985303
 31
0.0
  0
LINE
  5
AD
330
17
100
AcDbEntity
  8
BOUNDARY
100
AcDbLine
 10
160.06766266552367
 20
22.682182129985303
 30
0.0
 11
160.06721710630404
 21
22.682013050869543
 31
0.0
  0
LINE
  5
AE
330
17
100
AcDbEntity
  8
BOUNDARY
100
AcDbLine
 10
160.06721710630404
 20
22.682013050869543
 30
0.0
 11
160.06677227507998
 21
22.681841659703963
 31
0.0
  0
LINE
  5
AF
330
17
100
AcDbEntity
  8
BOUNDARY
100
AcDbLine
 10
160.06677227507998
 20
22.681841659703963
 30
0.0
 11
160.0663281817297
 21
22.681667960285328
 31
0.0
  0
LINE
  5
B0
330
17
100
AcDbEntity
  8
BOUNDARY
100
AcDbLine
 10
160.0663281817297
 20
22.681667960285328
 30
0.0
 11
160.06588483611498
 21
22.681491956461553
 31
0.0
  0
LINE
  5
B1
330
17
100
AcDbEntity
  8
BOUNDARY
100
AcDbLine
 10
160.06588483611498
 20
22.681491956461553
 30
0.0
 11
160.06544224808096
 21
22.68131365213161
 31
0.0
  0
LINE
  5
B2
330
17
100
AcDbEntity
  8
BOUNDARY
100
AcDbLine
 10
160.06544224808096
 20
22.68131365213161
 30
0.0
 11
160.06500042745606
 21
22.681133051245446
 31
0.0
  0
LINE
  5
B3
330
17
100
AcDbEntity
  8
BOUNDARY
100
AcDbLine
 10
160.06500042745606
 20
22.681133051245446
 30
0.0
 11
160.0645593840516
 21
22.68095015780393
 31
0.0
  0
LINE
  5
B4
330
17
100
AcDbEntity
  8
BOUNDARY
100
AcDbLine
 10
160.0645593840516
 20
22.68095015780393
 30
0.0
 11
160.0641191276616
 21
22.6807649758587
 31
0.0
  0
LINE
  5
B5
330
17
100
AcDbEntity
  8
BOUNDARY
100
AcDbLine
 10
160.0641191276616
 20
22.6807649758587
 30
0.0
 11
160.06367966806266
 21
22.680577509512126
 31
0.0
  0
LINE
  5
B6
330
17
100
AcDbEntity
  8
BOUNDARY
100
AcDbLine
 10
160.06367966806266
 20
22.680577509512126
 30
0.0
 11
160.06324101501366
 21
22.6803877629172
 31
0.0
  0
LINE
  5
B7
330
17
100
AcDbEntity
  8
BOUNDARY
100
AcDbLine
 10
160.06324101501366
 20
22.6803877629172
 30
0.0
 11
160.06280317825562
 21
22.680195740277437
 31
0.0
  0
LINE
  5
B8
330
17
100
AcDbEntity
  8
BOUNDARY
100
AcDbLine
 10
160.06280317825562
 20
22.680195740277437
 30
0.0
 11
160.06236616751136
 21
22.680001445846806
 31
0.0
  0
LINE
  5
B9
330
17
100
AcDbEntity
  8
BOUNDARY
100
AcDbLine
 10
160.06236616751136
 20
22.680001445846806
 30
0.0
 11
160.06192999248537
 21
22.679804883929624
 31
0.0
  0
LINE
  5
BA
330
17
100
AcDbEntity
  8
BOUNDARY
100
AcDbLine
 10
160.06192999248537
 20
22.679804883929624
 30
0.0
 11
160.06149466286365
 21
22.679606058880445
 31
0.0
  0
LINE
  5
BB
330
17
100
AcDbEntity
  8
BOUNDARY
100
AcDbLine
 10
160.06149466286365
 20
22.679606058880445
 30
0.0
 11
160.06106018831332
 21
22.67940497510399
 31
0.0
  0
LINE
  5
BC
330
17
100
AcDbEntity
  8
BOUNDARY
100
AcDbLine
 10
160.06106018831332
 20
22.67940497510399
 30
0.0
 11
160.06062657848264
 21
22.679201637055044
 31
0.0
  0
LINE
  5
BD
330
17
100
AcDbEntity
  8
BOUNDARY
100
AcDbLine
 10
160.06062657848264
 20
22.679201637055044
 30
0.0
 11
160.06019384300052
 21
22.678996049238346
 31
0.0
  0
LINE
  5
BE
330
17
100
AcDbEntity
  8
BOUNDARY
100
AcDbLine
 10
160.06019384300052
 20
22.678996049238346
 30
0.0
 11
160.0597619914766
 21
22.678788216208503
 31
0.0
  0
LINE
  5
BF
330
17
100
AcDbEntity
  8
BOUNDARY
100
AcDbLine
 10
160.0597619914766
 20
22.678788216208503
 30
0.0
 11
160.05933103350074
 21
22.678578142569872
 31
0.0
  0
LINE
  5
C0
330
17
100
AcDbEntity
  8
BOUNDARY
100
AcDbLine
 10
160.05933103350074
 20
22.678578142569872
 30
0.0
 11
160.05890097864312
 21
22.678365832976493
 31
0.0
  0
LINE
  5
C1
330
17
100
AcDbEntity
  8
BOUNDARY
100
AcDbLine
 10
160.05890097864312
 20
22.678365832976493
 30
0.0
 11
160.05847183645375
 21
22.678151292131947
 31
0.0
  0
LINE
  5
C2
330
17
100
AcDbEntity
  8
BOUNDARY
100
AcDbLine
 10
160.05847183645375
 20
22.678151292131947
 30
0.0
 11
160.05804361646238
 21
22.67793452478927
 31
0.0
  0
LINE
  5
C3
330
17
100
AcDbEntity
  8
BOUNDARY
100
AcDbLine
 10
160.05804361646238
 20
22.67793452478927
 30
0.0
 11
160.05761632817834
 21
22.67771553575086
 31
0.0
  0
LINE
  5
C4
330
17
100
AcDbEntity
  8
BOUNDARY
100
AcDbLine
 10
160.05761632817834
 20
22.67771553575086
 30
0.0
 11
160.05718998109023
 21
22.67749432986835
 31
0.0
  0
LINE
  5
C5
330
17
100
AcDbEntity
  8
BOUNDARY
100
AcDbLine
 10
160.05718998109023
 20
22.67749432986835
 30
0.0
 11
160.05676458466576
 21
22.677270912042523
 31
0.0
  0
LINE
  5
C6
330
17
100
AcDbEntity
  8
BOUNDARY
100
AcDbLine
 10
160.05676458466576
 20
22.677270912042523
 30
0.0
 11
160.05634014835152
 21
22.67704528722317
 31
0.0
  0
LINE
  5
C7
330
17
100
AcDbEntity
  8
BOUNDARY
100
AcDbLine
 10
160.05634014835152
 20
22.67704528722317
 30
0.0
 11
160.05591668157277
 21
22.676817460409026
 31
0.0
  0
LINE
  5
C8
330
17
100
AcDbEntity
  8
BOUNDARY
100
AcDbLine
 10
160.05591668157277
 20
22.676817460409026
 30
0.0
 11
160.05549419373327
 21
22.676587436647637
 31
0.0
  0
LINE
  5
C9
330
17
100
AcDbEntity
  8
BOUNDARY
100
AcDbLine
 10
160.05549419373327
 20
22.676587436647637
 30
0.0
 11
160.055072694215
 21
22.676355221035237
 31
0.0
  0
LINE
  5
CA
330
17
100
AcDbEntity
  8
BOUNDARY
100
AcDbLine
 10
160.055072694215
 20
22.676355221035237
 30
0.0
 11
160.05465219237806
 21
22.676120818716647
 31
0.0
  0
LINE
  5
CB
330
17
100
AcDbEntity
  8
BOUNDARY
100
AcDbLine
 10
160.05465219237806
 20
22.676120818716647
 30
0.0
 11
160.05423269756034
 21
22.67588423488517
 31
0.0
  0
LINE
  5
CC
330
17
100
AcDbEntity
  8
BOUNDARY
100
AcDbLine
 10
160.05423269756034
 20
22.67588423488517
 30
0.0
 11
160.05381421907734
 21
22.675645474782474
 31
0.0
  0
LINE
  5
CD
330
17
100
AcDbEntity
  8
BOUNDARY
100
AcDbLine
 10
160.05381421907734
 20
22.675645474782474
 30
0.0
 11
160.05339676622208
 21
22.67540454369847
 31
0.0
  0
LINE
  5
CE
330
17
100
AcDbEntity
  8
BOUNDARY
100
AcDbLine
 10
160.05339676622208
 20
22.67540454369847
 30
0.0
 11
160.05298034826473
 21
22.67516144697119
 31
0.0
  0
LINE
  5
CF
330
17
100
AcDbEntity
  8
BOUNDARY
100
AcDbLine
 10
160.05298034826473
 20
22.67516144697119
 30
0.0
 11
160.05256497445254
 21
22.674916189986693
 31
0.0
  0
LINE
  5
D0
330
17
100
AcDbEntity
  8
BOUNDARY
100
AcDbLine
 10
160.05256497445254
 20
22.674916189986693
 30
0.0
 11
160.05215065400947
 21
22.674668778178912
 31
0.0
  0
LINE
  5
D1
330
17
100
AcDbEntity
  8
BOUNDARY
100
AcDbLine
 10
160.05215065400947
 20
22.674668778178912
 30
0.0
 11
160.05173739613622
 21
22.674419217029556
 31
0.0
  0
LINE
  5
D2
330
17
100
AcDbEntity
  8
BOUNDARY
100
AcDbLine
 10
160.05173739613622
 20
22.674419217029556
 30
0.0
 11
160.0513252100098
 21
22.67416751206801
 31
0.0
  0
LINE
  5
D3
330
17
100
AcDbEntity
  8
BOUNDARY
100
AcDbLine
 10
160.0513252100098
 20
22.67416751206801
 30
0.0
 11
160.05091410478346
 21
22.67391366887117
 31
0.0
  0
LINE
  5
D4
330
17
100
AcDbEntity
  8
BOUNDARY
100
AcDbLine
 10
160.05091410478346
 20
22.67391366887117
 30
0.0
 11
160.0505040895864
 21
22.67365769306333
 31
0.0
  0
LINE
  5
D5
330
17
100
AcDbEntity
  8
BOUNDARY
100
AcDbLine
 10
160.0505040895864
 20
22.67365769306333
 30
0.0
 11
160.05009517352372
 21
22.673399590316098
 31
0.0
  0
LINE
  5
D6
330
17
100
AcDbEntity
  8
BOUNDARY
100
AcDbLine
 10
160.05009517352372
 20
22.673399590316098
 30
0.0
 11
160.04968736567596
 21
22.673139366348227
 31
0.0
  0
LINE
  5
D7
330
17
100
AcDbEntity
  8
BOUNDARY
100
AcDbLine
 10
160.04968736567596
 20
22.673139366348227
 30
0.0
 11
160.04928067509923
 21
22.67287702692549
 31
0.0
  0
LINE
  5
D8
330
17
100
AcDbEntity
  8
BOUNDARY
100
AcDbLine
 10
160.04928067509923
 20
22.67287702692549
 30
0.0
 11
160.04887511082464
 21
22.6726125778606
 31
0.0
  0
LINE
  5
D9
330
17
100
AcDbEntity
  8
BOUNDARY
100
AcDbLine
 10
160.04887511082464
 20
22.6726125778606
 30
0.0
 11
160.04847068185842
 21
22.672346025013013
 31
0.0
  0
LINE
  5
DA
330
17
100
AcDbEntity
  8
BOUNDARY
100
AcDbLine
 10
160.04847068185842
 20
22.672346025013013
 30
0.0
 11
160.04806739718157
 21
22.672077374288857
 31
0.0
  0
LINE
  5
DB
330
17
100
AcDbEntity
  8
BOUNDARY
100
AcDbLine
 10
160.04806739718157
 20
22.672077374288857
 30
0.0
 11
160.04766526574963
 21
22.671806631640774
 31
0.0
  0
LINE
  5
DC
330
17
100
AcDbEntity
  8
BOUNDARY
100
AcDbLine
 10
160.04766526574963
 20
22.671806631640774
 30
0.0
 11
160.04726429649256
 21
22.67153380306781
 31
0.0
  0
LINE
  5
DD
330
17
100
AcDbEntity
  8
BOUNDARY
100
AcDbLine
 10
160.04726429649256
 20
22.67153380306781
 30
0.0
 11
160.0468644983145
 21
22.671258894615228
 31
0.0
  0
LINE
  5
DE
330
17
100
AcDbEntity
  8
BOUNDARY
100
AcDbLine
 10
160.0468644983145
 20
22.671258894615228
 30
0.0
 11
160.04646588009365
 21
22.670981912374454
 31
0.0
  0
LINE
  5
DF
330
17
100
AcDbEntity
  8
BOUNDARY
100
AcDbLine
 10
160.04646588009365
 20
22.670981912374454
 30
0.0
 11
160.0460684506819
 21
22.670702862482894
 31
0.0
  0
LINE
  5
E0
330
17
100
AcDbEntity
  8
BOUNDARY
100
AcDbLine
 10
160.0460684506819
 20
22.670702862482894
 30
0.0
 11
160.0456722189048
 21
22.67042175112381
 31
0.0
  0
LINE
  5
E1
330
17
100
AcDbEntity
  8
BOUNDARY
100
AcDbLine
 10
160.0456722189048
 20
22.67042175112381
 30
0.0
 11
160.0452771935613
 21
22.670138584526168
 31
0.0
  0
LINE
  5
E2
330
17
100
AcDbEntity
  8
BOUNDARY
100
AcDbLine
 10
160.0452771935613
 20
22.670138584526168
 30
0.0
 11
160.0448833834236
 21
22.669853368964525
 31
0.0
  0
LINE
  5
E3
330
17
100
AcDbEntity
  8
BOUNDARY
100
AcDbLine
 10
160.0448833834236
 20
22.669853368964525
 30
0.0
 11
160.04449079723682
 21
22.669566110758876
 31
0.0
  0
LINE
  5
E4
330
17
100
AcDbEntity
  8
BOUNDARY
100
AcDbLine
 10
160.04449079723682
 20
22.669566110758876
 30
0.0
 11
160.04409944371898
 21
22.669276816274536
 31
0.0
  0
LINE
  5
E5
330
17
100
AcDbEntity
  8
BOUNDARY
100
AcDbLine
 10
160.04409944371898
 20
22.669276816274536
 30
0.0
 11
160.04370933156068
 21
22.66898549192198
 31
0.0
  0
LINE
  5
E6
330
17
100
AcDbEntity
  8
BOUNDARY
100
AcDbLine
 10
160.04370933156068
 20
22.66898549192198
 30
0.0
 11
160.04332046942497
 21
22.668692144156683
 31
0.0
  0
LINE
  5
E7
330
17
100
AcDbEntity
  8
BOUNDARY
100
AcDbLine
 10
160.04332046942497
 20
22.668692144156683
 30
0.0
 11
160.04293286594717
 21
22.668396779479032
 31
0.0
  0
LINE
  5
E8
330
17
100
AcDbEntity
  8
BOUNDARY
100
AcDbLine
 10
160.04293286594717
 20
22.668396779479032
 30
0.0
 11
160.04254652973458
 21
22.668099404434123
 31
0.0
  0
LINE
  5
E9
330
17
100
AcDbEntity
  8
BOUNDARY
100
AcDbLine
 10
160.04254652973458
 20
22.668099404434123
 30
0.0
 11
160.04216146936645
 21
22.667800025611673
 31
0.0
  0
LINE
  5
EA
330
17
100
AcDbEntity
  8
BOUNDARY
100
AcDbLine
 10
160.04216146936645
 20
22.667800025611673
 30
0.0
 11
160.04177769339364
 21
22.667498649645818
 31
0.0
  0
LINE
  5
EB
330
17
100
AcDbEntity
  8
BOUNDARY
100
AcDbLine
 10
160.04177769339364
 20
22.667498649645818
 30
0.0
 11
160.04139521033846
 21
22.667195283215023
 31
0.0
  0
LINE
  5
EC
330
17
100
AcDbEntity
  8
BOUNDARY
100
AcDbLine
 10
160.04139521033846
 20
22.667195283215023
 30
0.0
 11
160.0410140286946
 21
22.6668899330419
 31
0.0
  0
LINE
  5
ED
330
17
100
AcDbEntity
  8
BOUNDARY
100
AcDbLine
 10
160.0410140286946
 20
22.6668899330419
 30
0.0
 11
160.04063415692676
 21
22.66658260589305
 31
0.0
  0
LINE
  5
EE
330
17
100
AcDbEntity
  8
BOUNDARY
100
AcDbLine
 10
160.04063415692676
 20
22.66658260589305
 30
0.0
 11
160.0402556034706
 21
22.66627330857896
 31
0.0
  0
LINE
  5
EF
330
17
100
AcDbEntity
  8
BOUNDARY
100
AcDbLine
 10
160.0402556034706
 20
22.66627330857896
 30
0.0
 11
160.03987837673247
 21
22.665962047953823
 31
0.0
  0
LINE
  5
F0
330
17
100
AcDbEntity
  8
BOUNDARY
100
AcDbLine
 10
160.03987837673247
 20
22.665962047953823
 30
0.0
 11
160.03950248508932
 21
22.66564883091534
 31
0.0
  0
LINE
  5
F1
330
17
100
AcDbEntity
  8
BOUNDARY
100
AcDbLine
 10
160.03950248508932
 20
22.66564883091534
 30
0.0
 11
160.03912793688838
 21
22.665333664404702
 31
0.0
  0
LINE
  5
F2
330
17
100
AcDbEntity
  8
BOUNDARY
100
AcDbLine
 10
160.03912793688838
 20
22.665333664404702
 30
0.0
 11
160.0387547404471
 21
22.66501655540627
 31
0.0
  0
LINE
  5
F3
330
17
100
AcDbEntity
  8
BOUNDARY
100
AcDbLine
 10
160.0387547404471
 20
22.66501655540627
 30
0.0
 11
160.0383829040529
 21
22.66469751094756
 31
0.0
  0
LINE
  5
F4
330
17
100
AcDbEntity
  8
BOUNDARY
100
AcDbLine
 10
160.0383829040529
 20
22.66469751094756
 30
0.0
 11
160.03801243596297
 21
22.664376538099006
 31
0.0
  0
LINE
  5
F5
330
17
100
AcDbEntity
  8
BOUNDARY
100
AcDbLine
 10
160.03801243596297
 20
22.664376538099006
 30
0.0
 11
160.03764334440416
 21
22.664053643973837
 31
0.0
  0
LINE
  5
F6
330
17
100
AcDbEntity
  8
BOUNDARY
100
AcDbLine
 10
160.03764334440416
 20
22.664053643973837
 30
0.0
 11
160.0372756375727
 21
22.66372883572791
 31
0.0
  0
LINE
  5
F7
330
17
100
AcDbEntity
  8
BOUNDARY
100
AcDbLine
 10
160.0372756375727
 20
22.66372883572791
 30
0.0
 11
160.0369093236341
 21
22.663402120559542
 31
0.0
  0
LINE
  5
F8
330
17
100
AcDbEntity
  8
BOUNDARY
100
AcDbLine
 10
160.0369093236341
 20
22.663402120559542
 30
0.0
 11
160.03654441072294
 21
22.6630735057094
 31
0.0
  0
LINE
  5
F9
330
17
100
AcDbEntity
  8
BOUNDARY
100
AcDbLine
 10
160.03654441072294
 20
22.6630735057094
 30
0.0
 11
160.0361809069427
 21
22.662742998460292
 31
0.0
  0
LINE
  5
FA
330
17
100
AcDbEntity
  8
BOUNDARY
100
AcDbLine
 10
160.0361809069427
 20
22.662742998460292
 30
0.0
 11
160.03581882036553
 21
22.662410606137005
 31
0.0
  0
LINE
  5
FB
330
17
100
AcDbEntity
  8
BOUNDARY
100
AcDbLine
 10
160.03581882036553
 20
22.662410606137005
 30
0.0
 11
160.03545815903215
 21
22.662076336106164
 31
0.0
  0
LINE
  5
FC
330
17
100
AcDbEntity
  8
BOUNDARY
100
AcDbLine
 10
160.03545815903215
 20
22.662076336106164
 30
0.0
 11
160.0350989309516
 21
22.66174019577608
 31
0.0
  0
LINE
  5
FD
330
17
100
AcDbEntity
  8
BOUNDARY
100
AcDbLine
 10
160.0350989309516
 20
22.66174019577608
 30
0.0
 11
160.03474114410108
 21
22.661402192596565
 31
0.0
  0
LINE
  5
FE
330
17
100
AcDbEntity
  8
BOUNDARY
100
AcDbLine
 10
160.03474114410108
 20
22.661402192596565
 30
0.0
 11
160.03438480642583
 21
22.66106233405878
 31
0.0
  0
LINE
  5
FF
330
17
100
AcDbEntity
  8
BOUNDARY
100
AcDbLine
 10
160.03438480642583
 20
22.66106233405878
 30
0.0
 11
160.03402992583892
 21
22.660720627695046
 31
0.0
  0
LINE
  5
100
330
17
100
AcDbEntity
  8
BOUNDARY
100
AcDbLine
 10
160.03402992583892
 20
22.660720627695046
 30
0.0
 11
160.03367651022097
 21
22.66037708107872
 31
0.0
  0
LINE
  5
101
330
17
100
AcDbEntity
  8
BOUNDARY
100
AcDbLine
 10
160.03367651022097
 20
22.66037708107872
 30
0.0
 11
160.03332456742018
 21
22.660031701823993
 31
0.0
  0
LINE
  5
102
330
17
100
AcDbEntity
  8
BOUNDARY
100
AcDbLine
 10
160.03332456742018
 20
22.660031701823993
 30
0.0
 11
160.03297410525195
 21
22.659684497585744
 31
0.0
  0
LINE
  5
103
330
17
100
AcDbEntity
  8
BOUNDARY
100
AcDbLine
 10
160.03297410525195
 20
22.659684497585744
 30
0.0
 11
160.03262513149886
 21
22.659335476059344
 31
0.0
  0
LINE
  5
104
330
17
100
AcDbEntity
  8
BOUNDARY
100
AcDbLine
 10
160.03262513149886
 20
22.659335476059344
 30
0.0
 11
160.03227765391043
 21
22.658984644980517
 31
0.0
  0
LINE
  5
105
330
17
100
AcDbEntity
  8
BOUNDARY
100
AcDbLine
 10
160.03227765391043
 20
22.658984644980517
 30
0.0
 11
160.03193168020292
 21
22.658632012125167
 31
0.0
  0
LINE
  5
106
330
17
100
AcDbEntity
  8
BOUNDARY
100
AcDbLine
 10
160.03193168020292
 20
22.658632012125167
 30
0.0
 11
160.03158721805923
 21
22.65827758530917
 31
0.0
  0
LINE
  5
107
330
17
100
AcDbEntity
  8
BOUNDARY
100
AcDbLine
 10
160.03158721805923
 20
22.65827758530917
 30
0.0
 11
160.0312442751287
 21
22.657921372388255
 31
0.0
  0
LINE
  5
108
330
17
100
AcDbEntity
  8
BOUNDARY
100
AcDbLine
 10
160.0312442751287
 20
22.657921372388255
 30
0.0
 11
160.0309028590269
 21
22.65756338125778
 31
0.0
  0
LINE
  5
109
330
17
100
AcDbEntity
  8
BOUNDARY
100
AcDbLine
 10
160.0309028590269
 20
22.65756338125778
 30
0.0
 11
160.0305629773355
 21
22.65720361985259
 31
0.0
  0
LINE
  5
10A
330
17
100
AcDbEntity
  8
BOUNDARY
100
AcDbLine
 10
160.0305629773355
 20
22.65720361985259
 30
0.0
 11
160.03022463760215
 21
22.656842096146846
 31
0.0
  0
LINE
  5
10B
330
17
100
AcDbEntity
  8
BOUNDARY
100
AcDbLine
 10
160.03022463760215
 20
22.656842096146846
 30
0.0
 11
160.02988784734015
 21
22.656478818153833
 31
0.0
  0
LINE
  5
10C
330
17
100
AcDbEntity
  8
BOUNDARY
100
AcDbLine
 10
160.02988784734015
 20
22.656478818153833
 30
0.0
 11
160.0295526140285
 21
22.656113793925776
 31
0.0
  0
LINE
  5
10D
330
17
100
AcDbEntity
  8
BOUNDARY
100
AcDbLine
 10
160.0295526140285
 20
22.656113793925776
 30
0.0
 11
160.02921894511158
 21
22.65574703155368
 31
0.0
  0
LINE
  5
10E
330
17
100
AcDbEntity
  8
BOUNDARY
100
AcDbLine
 10
160.02921894511158
 20
22.65574703155368
 30
0.0
 11
160.028886847999
 21
22.655378539167135
 31
0.0
  0
LINE
  5
10F
330
17
100
AcDbEntity
  8
BOUNDARY
100
AcDbLine
 10
160.028886847999
 20
22.655378539167135
 30
0.0
 11
160.02855633006553
 21
22.655008324934176
 31
0.0
  0
LINE
  5
110
330
17
100
AcDbEntity
  8
BOUNDARY
100
AcDbLine
 10
160.02855633006553
 20
22.655008324934176
 30
0.0
 11
160.0282273986508
 21
22.65463639706105
 31
0.0
  0
LINE
  5
111
330
17
100
AcDbEntity
  8
BOUNDARY
100
AcDbLine
 10
160.0282273986508
 20
22.65463639706105
 30
0.0
 11
160.0279000610593
 21
22.654262763792083
 31
0.0
  0
LINE
  5
112
330
17
100
AcDbEntity
  8
BOUNDARY
100
AcDbLine
 10
160.0279000610593
 20
22.654262763792083
 30
0.0
 11
160.02757432456008
 21
22.653887433409434
 31
0.0
  0
LINE
  5
113
330
17
100
AcDbEntity
  8
BOUNDARY
100
AcDbLine
 10
160.02757432456008
 20
22.653887433409434
 30
0.0
 11
160.02725019638657
 21
22.65351041423299
 31
0.0
  0
LINE
  5
114
330
17
100
AcDbEntity
  8
BOUNDARY
100
AcDbLine
 10
160.02725019638657
 20
22.65351041423299
 30
0.0
 11
160.02692768373657
 21
22.653131714620134
 31
0.0
  0
LINE
  5
115
330
17
100
AcDbEntity
  8
BOUNDARY
100
AcDbLine
 10
160.02692768373657
 20
22.653131714620134
 30
0.0
 11
160.026606793772
 21
22.65275134296557
 31
0.0
  0
LINE
  5
116
330
17
100
AcDbEntity
  8
BOUNDARY
100
AcDbLine
 10
160.026606793772
 20
22.65275134296557
 30
0.0
 11
160.0262875336187
 21
22.652369307701143
 31
0.0
  0
LINE
  5
117
330
17
100
AcDbEntity
  8
BOUNDARY
100
AcDbLine
 10
160.0262875336187
 20
22.652369307701143
 30
0.0
 11
160.02596991036637
 21
22.651985617295647
 31
0.0
  0
LINE
  5
118
330
17
100
AcDbEntity
  8
BOUNDARY
100
AcDbLine
 10
160.02596991036637
 20
22.651985617295647
 30
0.0
 11
160.0256539310683
 21
22.65160028025466
 31
0.0
  0
LINE
  5
119
330
17
100
AcDbEntity
  8
BOUNDARY
100
AcDbLine
 10
160.0256539310683
 20
22.65160028025466
 30
0.0
 11
160.0253396027413
 21
22.651213305120294
 31
0.0
  0
LINE
  5
11A
330
17
100
AcDbEntity
  8
BOUNDARY
100
AcDbLine
 10
160.0253396027413
 20
22.651213305120294
 30
0.0
 11
160.02502693236556
 21
22.650824700471098
 31
0.0
  0
LINE
  5
11B
330
17
100
AcDbEntity
  8
BOUNDARY
100
AcDbLine
 10
160.02502693236556
 20
22.650824700471098
 30
0.0
 11
160.02471592688443
 21
22.650434474921802
 31
0.0
  0
LINE
  5
11C
330
17
100
AcDbEntity
  8
BOUNDARY
100
AcDbLine
 10
160.02471592688443
 20
22.650434474921802
 30
0.0
 11
160.02440659320422
 21
22.650042637123153
 31
0.0
  0
LINE
  5
11D
330
17
100
AcDbEntity
  8
BOUNDARY
100
AcDbLine
 10
160.02440659320422
 20
22.650042637123153
 30
0.0
 11
160.0240989381942
 21
22.649649195761697
 31
0.0
  0
LINE
  5
11E
330
17
100
AcDbEntity
  8
BOUNDARY
100
AcDbLine
 10
160.0240989381942
 20
22.649649195761697
 30
0.0
 11
160.0237929686863
 21
22.64925415955963
 31
0.0
  0
LINE
  5
11F
330
17
100
AcDbEntity
  8
BOUNDARY
100
AcDbLine
 10
160.0237929686863
 20
22.64925415955963
 30
0.0
 11
160.0234886914751
 21
22.648857537274587
 31
0.0
  0
LINE
  5
120
330
17
100
AcDbEntity
  8
BOUNDARY
100
AcDbLine
 10
160.0234886914751
 20
22.648857537274587
 30
0.0
 11
160.02318611331754
 21
22.648459337699414
 31
0.0
  0
LINE
  5
121
330
17
100
AcDbEntity
  8
BOUNDARY
100
AcDbLine
 10
160.02318611331754
 20
22.648459337699414
 30
0.0
 11
160.02288524093282
 21
22.648059569662042
 31
0.0
  0
LINE
  5
122
330
17
100
AcDbEntity
  8
BOUNDARY
100
AcDbLine
 10
160.02288524093282
 20
22.648059569662042
 30
0.0
 11
160.0225860810023
 21
22.647658242025244
 31
0.0
  0
LINE
  5
123
330
17
100
AcDbEntity
  8
BOUNDARY
100
AcDbLine
 10
160.0225860810023
 20
22.647658242025244
 30
0.0
 11
160.0222886401693
 21
22.647255363686437
 31
0.0
  0
LINE
  5
124
330
17
100
AcDbEntity
  8
BOUNDARY
100
AcDbLine
 10
160.0222886401693
 20
22.647255363686437
 30
0.0
 11
160.02199292503894
 21
22.64685094357752
 31
0.0
  0
LINE
  5
125
330
17
100
AcDbEntity
  8
BOUNDARY
100
AcDbLine
 10
160.02199292503894
 20
22.64685094357752
 30
0.0
 11
160.02169894217806
 21
22.64644499066466
 31
0.0
  0
LINE
  5
126
330
17
100
AcDbEntity
  8
BOUNDARY
100
AcDbLine
 10
160.02169894217806
 20
22.64644499066466
 30
0.0
 11
160.02140669811502
 21
22.646037513948052
 31
0.0
  0
LINE
  5
127
330
17
100
AcDbEntity
  8
BOUNDARY
100
AcDbLine
 10
160.02140669811502
 20
22.646037513948052
 30
0.0
 11
160.02111619933953
 21
22.645628522461802
 31
0.0
  0
LINE
  5
128
330
17
100
AcDbEntity
  8
BOUNDARY
100
AcDbLine
 10
160.02111619933953
 20
22.645628522461802
 30
0.0
 11
160.02082745230257
 21
22.645218025273675
 31
0.0
  0
LINE
  5
129
330
17
100
AcDbEntity
  8
BOUNDARY
100
AcDbLine
 10
160.02082745230257
 20
22.645218025273675
 30
0.0
 11
160.02054046341624
 21
22.644806031484887
 31
0.0
  0
LINE
  5
12A
330
17
100
AcDbEntity
  8
BOUNDARY
100
AcDbLine
 10
160.02054046341624
 20
22.644806031484887
 30
0.0
 11
160.02025523905357
 21
22.644392550229952
 31
0.0
  0
LINE
  5
12B
330
17
100
AcDbEntity
  8
BOUNDARY
100
AcDbLine
 10
160.02025523905357
 20
22.644392550229952
 30
0.0
 11
160.01997178554842
 21
22.64397759067643
 31
0.0
  0
LINE
  5
12C
330
17
100
AcDbEntity
  8
BOUNDARY
100
AcDbLine
 10
160.01997178554842
 20
22.64397759067643
 30
0.0
 11
160.01969010919532
 21
22.64356116202475
 31
0.0
  0
LINE
  5
12D
330
17
100
AcDbEntity
  8
BOUNDARY
100
AcDbLine
 10
160.01969010919532
 20
22.64356116202475
 30
0.0
 11
160.01941021624933
 21
22.643143273508002
 31
0.0
  0
LINE
  5
12E
330
17
100
AcDbEntity
  8
BOUNDARY
100
AcDbLine
 10
160.01941021624933
 20
22.643143273508002
 30
0.0
 11
160.0191321129259
 21
22.642723934391746
 31
0.0
  0
LINE
  5
12F
330
17
100
AcDbEntity
  8
BOUNDARY
100
AcDbLine
 10
160.0191321129259
 20
22.642723934391746
 30
0.0
 11
160.01885580540076
 21
22.64230315397377
 31
0.0
  0
LINE
  5
130
330
17
100
AcDbEntity
  8
BOUNDARY
100
AcDbLine
 10
160.01885580540076
 20
22.64230315397377
 30
0.0
 11
160.01858129980977
 21
22.64188094158392
 31
0.0
  0
LINE
  5
131
330
17
100
AcDbEntity
  8
BOUNDARY
100
AcDbLine
 10
160.01858129980977
 20
22.64188094158392
 30
0.0
 11
160.01830860224874
 21
22.641457306583906
 31
0.0
  0
LINE
  5
132
330
17
100
AcDbEntity
  8
BOUNDARY
100
AcDbLine
 10
160.01830860224874
 20
22.641457306583906
 30
0.0
 11
160.01803771877334
 21
22.64103225836705
 31
0.0
  0
LINE
  5
133
330
17
100
AcDbEntity
  8
BOUNDARY
100
AcDbLine
 10
160.01803771877334
 20
22.64103225836705
 30
0.0
 11
160.01776865539898
 21
22.640605806358092
 31
0.0
  0
LINE
  5
134
330
17
100
AcDbEntity
  8
BOUNDARY
100
AcDbLine
 10
160.01776865539898
 20
22.640605806358092
 30
0.0
 11
160.01750141810064
 21
22.640177960013038
 31
0.0
  0
LINE
  5
135
330
17
100
AcDbEntity
  8
BOUNDARY
100
AcDbLine
 10
160.01750141810064
 20
22.640177960013038
 30
0.0
 11
160.0172360128127
 21
22.63974872881885
 31
0.0
  0
LINE
  5
136
330
17
100
AcDbEntity
  8
BOUNDARY
100
AcDbLine
 10
160.0172360128127
 20
22.63974872881885
 30
0.0
 11
160.01697244542893
 21
22.63931812229334
 31
0.0
  0
LINE
  5
137
330
17
100
AcDbEntity
  8
BOUNDARY
100
AcDbLine
 10
160.01697244542893
 20
22.63931812229334
 30
0.0
 11
160.0167107218023
 21
22.638886149984867
 31
0.0
  0
LINE
  5
138
330
17
100
AcDbEntity
  8
BOUNDARY
100
AcDbLine
 10
160.0167107218023
 20
22.638886149984867
 30
0.0
 11
160.01645084774472
 21
22.638452821472207
 31
0.0
  0
LINE
  5
139
330
17
100
AcDbEntity
  8
BOUNDARY
100
AcDbLine
 10
160.01645084774472
 20
22.638452821472207
 30
0.0
 11
160.01619282902712
 21
22.638018146364278
 31
0.0
  0
LINE
  5
13A
330
17
100
AcDbEntity
  8
BOUNDARY
100
AcDbLine
 10
160.01619282902712
 20
22.638018146364278
 30
0.0
 11
160.01593667137925
 21
22.63758213429999
 31
0.0
  0
LINE
  5
13B
330
17
100
AcDbEntity
  8
BOUNDARY
100
AcDbLine
 10
160.01593667137925
 20
22.63758213429999
 30
0.0
 11
160.01568238048944
 21
22.637144794947957
 31
0.0
  0
LINE
  5
13C
330
17
100
AcDbEntity
  8
BOUNDARY
100
AcDbLine
 10
160.01568238048944
 20
22.637144794947957
 30
0.0
 11
160.01542996200467
 21
22.63670613800636
 31
0.0
  0
LINE
  5
13D
330
17
100
AcDbEntity
  8
BOUNDARY
100
AcDbLine
 10
160.01542996200467
 20
22.63670613800636
 30
0.0
 11
160.01517942153023
 21
22.636266173202667
 31
0.0
  0
LINE
  5
13E
330
17
100
AcDbEntity
  8
BOUNDARY
100
AcDbLine
 10
160.01517942153023
 20
22.636266173202667
 30
0.0
 11
160.01493076462984
 21
22.635824910293476
 31
0.0
  0
LINE
  5
13F
330
17
100
AcDbEntity
  8
BOUNDARY
100
AcDbLine
 10
160.01493076462984
 20
22.635824910293476
 30
0.0
 11
160.01468399682523
 21
22.63538235906424
 31
0.0
  0
LINE
  5
140
330
17
100
AcDbEntity
  8
BOUNDARY
100
AcDbLine
 10
160.01468399682523
 20
22.63538235906424
 30
0.0
 11
160.01443912359633
 21
22.63493852932912
 31
0.0
  0
LINE
  5
141
330
17
100
AcDbEntity
  8
BOUNDARY
100
AcDbLine
 10
160.01443912359633
 20
22.63493852932912
 30
0.0
 11
160.0141961503809
 21
22.634493430930696
 31
0.0
  0
LINE
  5
142
330
17
100
AcDbEntity
  8
BOUNDARY
100
AcDbLine
 10
160.0141961503809
 20
22.634493430930696
 30
0.0
 11
160.01395508257457
 21
22.634047073739794
 31
0.0
  0
LINE
  5
143
330
17
100
AcDbEntity
  8
BOUNDARY
100
AcDbLine
 10
160.01395508257457
 20
22.634047073739794
 30
0.0
 11
160.01371592553062
 21
22.633599467655284
 31
0.0
  0
LINE
  5
144
330
17
100
AcDbEntity
  8
BOUNDARY
100
AcDbLine
 10
160.01371592553062
 20
22.633599467655284
 30
0.0
 11
160.01347868455989
 21
22.633150622603793
 31
0.0
  0
LINE
  5
145
330
17
100
AcDbEntity
  8
BOUNDARY
100
AcDbLine
 10
160.01347868455989
 20
22.633150622603793
 30
0.0
 11
160.0132433649307
 21
22.632700548539567
 31
0.0
  0
LINE
  5
146
330
17
100
AcDbEntity
  8
BOUNDARY
100
AcDbLine
 10
160.0132433649307
 20
22.632700548539567
 30
0.0
 11
160.01300997186868
 21
22.63224925544419
 31
0.0
  0
LINE
  5
147
330
17
100
AcDbEntity
  8
BOUNDARY
100
AcDbLine
 10
160.01300997186868
 20
22.63224925544419
 30
0.0
 11
160.0127785105567
 21
22.631796753326395
 31
0.0
  0
LINE
  5
148
330
17
100
AcDbEntity
  8
BOUNDARY
100
AcDbLine
 10
160.0127785105567
 20
22.631796753326395
 30
0.0
 11
160.01254898613473
 21
22.63134305222182
 31
0.0
  0
LINE
  5
149
330
17
100
AcDbEntity
  8
BOUNDARY
100
AcDbLine
 10
160.01254898613473
 20
22.63134305222182
 30
0.0
 11
160.0123214036997
 21
22.63088816219282
 31
0.0
  0
LINE
  5
14A
330
17
100
AcDbEntity
  8
BOUNDARY
100
AcDbLine
 10
160.0123214036997
 20
22.63088816219282
 30
0.0
 11
160.01209576830547
 21
22.63043209332822
 31
0.0
  0
LINE
  5
14B
330
17
100
AcDbEntity
  8
BOUNDARY
100
AcDbLine
 10
160.01209576830547
 20
22.63043209332822
 30
0.0
 11
160.0118720849626
 21
22.629974855743082
 31
0.0
  0
LINE
  5
14C
330
17
100
AcDbEntity
  8
BOUNDARY
100
AcDbLine
 10
160.0118720849626
 20
22.629974855743082
 30
0.0
 11
160.0116503586383
 21
22.629516459578518
 31
0.0
  0
LINE
  5
14D
330
17
100
AcDbEntity
  8
BOUNDARY
100
AcDbLine
 10
160.0116503586383
 20
22.629516459578518
 30
0.0
 11
160.0114305942564
 21
22.629056915001435
 31
0.0
  0
LINE
  5
14E
330
17
100
AcDbEntity
  8
BOUNDARY
100
AcDbLine
 10
160.0114305942564
 20
22.629056915001435
 30
0.0
 11
160.0112127966971
 21
22.628596232204305
 31
0.0
  0
LINE
  5
14F
330
17
100
AcDbEntity
  8
BOUNDARY
100
AcDbLine
 10
160.0112127966971
 20
22.628596232204305
 30
0.0
 11
160.01099697079695
 21
22.628134421404987
 31
0.0
  0
LINE
  5
150
330
17
100
AcDbEntity
  8
BOUNDARY
100
AcDbLine
 10
160.01099697079695
 20
22.628134421404987
 30
0.0
 11
160.01078312134865
 21
22.62767149284643
 31
0.0
  0
LINE
  5
151
330
17
100
AcDbEntity
  8
BOUNDARY
100
AcDbLine
 10
160.01078312134865
 20
22.62767149284643
 30
0.0
 11
160.01057125310112
 21
22.627207456796523
 31
0.0
  0
LINE
  5
152
330
17
100
AcDbEntity
  8
BOUNDARY
100
AcDbLine
 10
160.01057125310112
 20
22.627207456796523
 30
0.0
 11
160.01036137075923
 21
22.626742323547806
 31
0.0
  0
LINE
  5
153
330
17
100
AcDbEntity
  8
BOUNDARY
100
AcDbLine
 10
160.01036137075923
 20
22.626742323547806
 30
0.0
 11
160.01015347898368
 21
22.626276103417265
 31
0.0
  0
LINE
  5
154
330
17
100
AcDbEntity
  8
BOUNDARY
100
AcDbLine
 10
160.01015347898368
 20
22.626276103417265
 30
0.0
 11
160.0099475823911
 21
22.625808806746136
 31
0.0
  0
LINE
  5
155
330
17
100
AcDbEntity
  8
BOUNDARY
100
AcDbLine
 10
160.0099475823911
 20
22.625808806746136
 30
0.0
 11
160.0097436855537
 21
22.625340443899606
 31
0.0
  0
LINE
  5
156
330
17
100
AcDbEntity
  8
BOUNDARY
100
AcDbLine
 10
160.0097436855537
 20
22.625340443899606
 30
0.0
 11
160.00954179299939
 21
22.624871025266653
 31
0.0
  0
LINE
  5
157
330
17
100
AcDbEntity
  8
BOUNDARY
100
AcDbLine
 10
160.00954179299939
 20
22.624871025266653
 30
0.0
 11
160.00934190921143
 21
22.624400561259773
 31
0.0
  0
LINE
  5
158
330
17
100
AcDbEntity
  8
BOUNDARY
100
AcDbLine
 10
160.00934190921143
 20
22.624400561259773
 30
0.0
 11
160.00914403862862
 21
22.623929062314765
 31
0.0
  0
LINE
  5
159
330
17
100
AcDbEntity
  8
BOUNDARY
100
AcDbLine
 10
160.00914403862862
 20
22.623929062314765
 30
0.0
 11
160.00894818564495
 21
22.623456538890512
 31
0.0
  0
LINE
  5
15A
330
17
100
AcDbEntity
  8
BOUNDARY
100
AcDbLine
 10
160.00894818564495
 20
22.623456538890512
 30
0.0
 11
160.00875435460966
 21
22.622983001468736
 31
0.0
  0
LINE
  5
15B
330
17
100
AcDbEntity
  8
BOUNDARY
100
AcDbLine
 10
160.00875435460966
 20
22.622983001468736
 30
0.0
 11
160.00856254982708
 21
22.62250846055374
 31
0.0
  0
LINE
  5
15C
330
17
100
AcDbEntity
  8
BOUNDARY
100
AcDbLine
 10
160.00856254982708
 20
22.62250846055374
 30
0.0
 11
160.0083727755565
 21
22.622032926672237
 31
0.0
  0
LINE
  5
15D
330
17
100
AcDbEntity
  8
BOUNDARY
100
AcDbLine
 10
160.0083727755565
 20
22.622032926672237
 30
0.0
 11
160.00818503601218
 21
22.621556410373085
 31
0.0
  0
LINE
  5
15E
330
17
100
AcDbEntity
  8
BOUNDARY
100
AcDbLine
 10
160.00818503601218
 20
22.621556410373085
 30
0.0
 11
160.00799933536317
 21
22.621078922227007
 31
0.0
  0
LINE
  5
15F
330
17
100
AcDbEntity
  8
BOUNDARY
100
AcDbLine
 10
160.00799933536317
 20
22.621078922227007
 30
0.0
 11
160.00781567773325
 21
22.620600472826453
 31
0.0
  0
LINE
  5
160
330
17
100
AcDbEntity
  8
BOUNDARY
100
AcDbLine
 10
160.00781567773325
 20
22.620600472826453
 30
0.0
 11
160.00763406720083
 21
22.620121072785302
 31
0.0
  0
LINE
  5
161
330
17
100
AcDbEntity
  8
BOUNDARY
100
AcDbLine
 10
160.00763406720083
 20
22.620121072785302
 30
0.0
 11
160.00745450779885
 21
22.61964073273862
 31
0.0
  0
LINE
  5
162
330
17
100
AcDbEntity
  8
BOUNDARY
100
AcDbLine
 10
160.00745450779885
 20
22.61964073273862
 30
0.0
 11
160.00727700351467
 21
22.619159463342474
 31
0.0
  0
LINE
  5
163
330
17
100
AcDbEntity
  8
BOUNDARY
100
AcDbLine
 10
160.00727700351467
 20
22.619159463342474
 30
0.0
 11
160.00710155829012
 21
22.618677275273647
 31
0.0
  0
LINE
  5
164
330
17
100
AcDbEntity
  8
BOUNDARY
100
AcDbLine
 10
160.00710155829012
 20
22.618677275273647
 30
0.0
 11
160.0069281760212
 21
22.618194179229434
 31
0.0
  0
LINE
  5
165
330
17
100
AcDbEntity
  8
BOUNDARY
100
AcDbLine
 10
160.0069281760212
 20
22.618194179229434
 30
0.0
 11
160.0067568605581
 21
22.617710185927383
 31
0.0
  0
LINE
  5
166
330
17
100
AcDbEntity
  8
BOUNDARY
100
AcDbLine
 10
160.0067568605581
 20
22.617710185927383
 30
0.0
 11
160.00658761570523
 21
22.61722530610508
 31
0.0
  0
LINE
  5
167
330
17
100
AcDbEntity
  8
BOUNDARY
100
AcDbLine
 10
160.00658761570523
 20
22.61722530610508
 30
0.0
 11
160.0064204452209
 21
22.6167395505199
 31
0.0
  0
LINE
  5
168
330
17
100
AcDbEntity
  8
BOUNDARY
100
AcDbLine
 10
160.0064204452209
 20
22.6167395505199
 30
0.0
 11
160.00625535281736
 21
22.616252929948764
 31
0.0
  0
LINE
  5
169
330
17
100
AcDbEntity
  8
BOUNDARY
100
AcDbLine
 10
160.00625535281736
 20
22.616252929948764
 30
0.0
 11
160.00609234216077
 21
22.615765455187912
 31
0.0
  0
LINE
  5
16A
330
17
100
AcDbEntity
  8
BOUNDARY
100
AcDbLine
 10
160.00609234216077
 20
22.615765455187912
 30
0.0
 11
160.00593141687105
 21
22.615277137052644
 31
0.0
  0
LINE
  5
16B
330
17
100
AcDbEntity
  8
BOUNDARY
100
AcDbLine
 10
160.00593141687105
 20
22.615277137052644
 30
0.0
 11
160.00577258052178
 21
22.614787986377113
 31
0.0
  0
LINE
  5
16C
330
17
100
AcDbEntity
  8
BOUNDARY
100
AcDbLine
 10
160.00577258052178
 20
22.614787986377113
 30
0.0
 11
160.0056158366402
 21
22.614298014014047
 31
0.0
  0
LINE
  5
16D
330
17
100
AcDbEntity
  8
BOUNDARY
100
AcDbLine
 10
160.0056158366402
 20
22.614298014014047
 30
0.0
 11
160.00546118870702
 21
22.61380723083456
 31
0.0
  0
LINE
  5
16E
330
17
100
AcDbEntity
  8
BOUNDARY
100
AcDbLine
 10
160.00546118870702
 20
22.61380723083456
 30
0.0
 11
160.00530864015644
 21
22.61331564772785
 31
0.0
  0
LINE
  5
16F
330
17
100
AcDbEntity
  8
BOUNDARY
100
AcDbLine
 10
160.00530864015644
 20
22.61331564772785
 30
0.0
 11
160.00515819437607
 21
22.612823275601
 31
0.0
  0
LINE
  5
170
330
17
100
AcDbEntity
  8
BOUNDARY
100
AcDbLine
 10
160.00515819437607
 20
22.612823275601
 30
0.0
 11
160.00500985470677
 21
22.612330125378726
 31
0.0
  0
LINE
  5
171
330
17
100
AcDbEntity
  8
BOUNDARY
100
AcDbLine
 10
160.00500985470677
 20
22.612330125378726
 30
0.0
 11
160.00486362444266
 21
22.611836208003144
 31
0.0
  0
LINE
  5
172
330
17
100
AcDbEntity
  8
BOUNDARY
100
AcDbLine
 10
160.00486362444266
 20
22.611836208003144
 30
0.0
 11
160.00471950683104
 21
22.611341534433492
 31
0.0
  0
LINE
  5
173
330
17
100
AcDbEntity
  8
BOUNDARY
100
AcDbLine
 10
160.00471950683104
 20
22.611341534433492
 30
0.0
 11
160.0045775050722
 21
22.61084611564594
 31
0.0
  0
LINE
  5
174
330
17
100
AcDbEntity
  8
BOUNDARY
100
AcDbLine
 10
160.0045775050722
 20
22.61084611564594
 30
0.0
 11
160.00443762231959
 21
22.610349962633304
 31
0.0
  0
LINE
  5
175
330
17
100
AcDbEntity
  8
BOUNDARY
100
AcDbLine
 10
160.00443762231959
 20
22.610349962633304
 30
0.0
 11
160.00429986167947
 21
22.609853086404833
 31
0.0
  0
LINE
  5
176
330
17
100
AcDbEntity
  8
BOUNDARY
100
AcDbLine
 10
160.00429986167947
 20
22.609853086404833
 30
0.0
 11
160.00416422621106
 21
22.609355497985938
 31
0.0
  0
LINE
  5
177
330
17
100
AcDbEntity
  8
BOUNDARY
100
AcDbLine
 10
160.00416422621106
 20
22.609355497985938
 30
0.0
 11
160.00403071892637
 21
22.60885720841796
 31
0.0
  0
LINE
  5
178
330
17
100
AcDbEntity
  8
BOUNDARY
100
AcDbLine
 10
160.00403071892637
 20
22.60885720841796
 30
0.0
 11
160.0038993427901
 21
22.60835822875795
 31
0.0
  0
LINE
  5
179
330
17
100
AcDbEntity
  8
BOUNDARY
100
AcDbLine
 10
160.0038993427901
 20
22.60835822875795
 30
0.0
 11
160.00377010071966
 21
22.607858570078378
 31
0.0
  0
LINE
  5
17A
330
17
100
AcDbEntity
  8
BOUNDARY
100
AcDbLine
 10
160.00377010071966
 20
22.607858570078378
 30
0.0
 11
160.00364299558512
 21
22.607358243466923
 31
0.0
  0
LINE
  5
17B
330
17
100
AcDbEntity
  8
BOUNDARY
100
AcDbLine
 10
160.00364299558512
 20
22.607358243466923
 30
0.0
 11
160.00351803020902
 21
22.60685726002621
 31
0.0
  0
LINE
  5
17C
330
17
100
AcDbEntity
  8
BOUNDARY
100
AcDbLine
 10
160.00351803020902
 20
22.60685726002621
 30
0.0
 11
160.00339520736642
 21
22.606355630873576
 31
0.0
  0
LINE
  5
17D
330
17
100
AcDbEntity
  8
BOUNDARY
100
AcDbLine
 10
160.00339520736642
 20
22.606355630873576
 30
0.0
 11
160.0032745297848
 21
22.6058533671408
 31
0.0
  0
LINE
  5
17E
330
17
100
AcDbEntity
  8
BOUNDARY
100
AcDbLine
 10
160.0032745297848
 20
22.6058533671408
 30
0.0
 11
160.00315600014397
 21
22.605350479973893
 31
0.0
  0
LINE
  5
17F
330
17
100
AcDbEntity
  8
BOUNDARY
100
AcDbLine
 10
160.00315600014397
 20
22.605350479973893
 30
0.0
 11
160.00303962107608
 21
22.604846980532834
 31
0.0
  0
LINE
  5
180
330
17
100
AcDbEntity
  8
BOUNDARY
100
AcDbLine
 10
160.00303962107608
 20
22.604846980532834
 30
0.0
 11
160.00292539516553
 21
22.60434287999131
 31
0.0
  0
LINE
  5
181
330
17
100
AcDbEntity
  8
BOUNDARY
100
AcDbLine
 10
160.00292539516553
 20
22.60434287999131
 30
0.0
 11
160.00281332494885
 21
22.60383818953649
 31
0.0
  0
LINE
  5
182
330
17
100
AcDbEntity
  8
BOUNDARY
100
AcDbLine
 10
160.00281332494885
 20
22.60383818953649
 30
0.0
 11
160.00270341291477
 21
22.60333292036875
 31
0.0
  0
LINE
  5
183
330
17
100
AcDbEntity
  8
BOUNDARY
100
AcDbLine
 10
160.00270341291477
 20
22.60333292036875
 30
0.0
 11
160.00259566150402
 21
22.602827083701463
 31
0.0
  0
LINE
  5
184
330
17
100
AcDbEntity
  8
BOUNDARY
100
AcDbLine
 10
160.00259566150402
 20
22.602827083701463
 30
0.0
 11
160.0024900731094
 21
22.602320690760706
 31
0.0
  0
LINE
  5
185
330
17
100
AcDbEntity
  8
BOUNDARY
100
AcDbLine
 10
160.0024900731094
 20
22.602320690760706
 30
0.0
 11
160.00238665007572
 21
22.601813752785063
 31
0.0
  0
LINE
  5
186
330
17
100
AcDbEntity
  8
BOUNDARY
100
AcDbLine
 10
160.00238665007572
 20
22.601813752785063
 30
0.0
 11
160.00228539469958
 21
22.601306281025316
 31
0.0
  0
LINE
  5
187
330
17
100
AcDbEntity
  8
BOUNDARY
100
AcDbLine
 10
160.00228539469958
 20
22.601306281025316
 30
0.0
 11
160.00218630922956
 21
22.600798286744265
 31
0.0
  0
LINE
  5
188
330
17
100
AcDbEntity
  8
BOUNDARY
100
AcDbLine
 10
160.00218630922956
 20
22.600798286744265
 30
0.0
 11
160.00208939586597
 21
22.600289781216407
 31
0.0
  0
LINE
  5
189
330
17
100
AcDbEntity
  8
BOUNDARY
100
AcDbLine
 10
160.00208939586597
 20
22.600289781216407
 30
0.0
 11
160.00199465676096
 21
22.59978077572773
 31
0.0
  0
LINE
  5
18A
330
17
100
AcDbEntity
  8
BOUNDARY
100
AcDbLine
 10
160.00199465676096
 20
22.59978077572773
 30
0.0
 11
160.00190209401833
 21
22.59927128157547
 31
0.0
  0
LINE
  5
18B
330
17
100
AcDbEntity
  8
BOUNDARY
100
AcDbLine
 10
160.00190209401833
 20
22.59927128157547
 30
0.0
 11
160.0018117096936
 21
22.598761310067808
 31
0.0
  0
LINE
  5
18C
330
17
100
AcDbEntity
  8
BOUNDARY
100
AcDbLine
 10
160.0018117096936
 20
22.598761310067808
 30
0.0
 11
160.0017235057939
 21
22.598250872523703
 31
0.0
  0
LINE
  5
18D
330
17
100
AcDbEntity
  8
BOUNDARY
100
AcDbLine
 10
160.0017235057939
 20
22.598250872523703
 30
0.0
 11
160.00163748427792
 21
22.59773998027256
 31
0.0
  0
LINE
  5
18E
330
17
100
AcDbEntity
  8
BOUNDARY
100
AcDbLine
 10
160.00163748427792
 20
22.59773998027256
 30
0.0
 11
160.0015536470559
 21
22.597228644654017
 31
0.0
  0
LINE
  5
18F
330
17
100
AcDbEntity
  8
BOUNDARY
100
AcDbLine
 10
160.0015536470559
 20
22.597228644654017
 30
0.0
 11
160.00147199598962
 21
22.5967168770177
 31
0.0
  0
LINE
  5
190
330
17
100
AcDbEntity
  8
BOUNDARY
100
AcDbLine
 10
160.00147199598962
 20
22.5967168770177
 30
0.0
 11
160.00139253289223
 21
22.596204688722946
 31
0.0
  0
LINE
  5
191
330
17
100
AcDbEntity
  8
BOUNDARY
100
AcDbLine
 10
160.00139253289223
 20
22.596204688722946
 30
0.0
 11
160.0013152595283
 21
22.595692091138577
 31
0.0
  0
LINE
  5
192
330
17
100
AcDbEntity
  8
BOUNDARY
100
AcDbLine
 10
160.0013152595283
 20
22.595692091138577
 30
0.0
 11
160.00124017761388
 21
22.595179095642635
 31
0.0
  0
LINE
  5
193
330
17
100
AcDbEntity
  8
BOUNDARY
100
AcDbLine
 10
160.00124017761388
 20
22.595179095642635
 30
0.0
 11
160.00116728881625
 21
22.594665713622128
 31
0.0
  0
LINE
  5
194
330
17
100
AcDbEntity
  8
BOUNDARY
100
AcDbLine
 10
160.00116728881625
 20
22.594665713622128
 30
0.0
 11
160.00109659475402
 21
22.59415195647278
 31
0.0
  0
LINE
  5
195
330
17
100
AcDbEntity
  8
BOUNDARY
100
AcDbLine
 10
160.00109659475402
 20
22.59415195647278
 30
0.0
 11
160.00102809699703
 21
22.59363783559878
 31
0.0
  0
LINE
  5
196
330
17
100
AcDbEntity
  8
BOUNDARY
100
AcDbLine
 10
160.00102809699703
 20
22.59363783559878
 30
0.0
 11
160.00096179706645
 21
22.593123362412545
 31
0.0
  0
LINE
  5
197
330
17
100
AcDbEntity
  8
BOUNDARY
100
AcDbLine
 10
160.00096179706645
 20
22.593123362412545
 30
0.0
 11
160.00089769643452
 21
22.59260854833442
 31
0.0
  0
LINE
  5
198
330
17
100
AcDbEntity
  8
BOUNDARY
100
AcDbLine
 10
160.00089769643452
 20
22.59260854833442
 30
0.0
 11
160.0008357965247
 21
22.592093404792482
 31
0.0
  0
LINE
  5
199
330
17
100
AcDbEntity
  8
BOUNDARY
100
AcDbLine
 10
160.0008357965247
 20
22.592093404792482
 30
0.0
 11
160.0007760987116
 21
22.59157794322224
 31
0.0
  0
LINE
  5
19A
330
17
100
AcDbEntity
  8
BOUNDARY
100
AcDbLine
 10
160.0007760987116
 20
22.59157794322224
 30
0.0
 11
160.0007186043209
 21
22.591062175066433
 31
0.0
  0
LINE
  5
19B
330
17
100
AcDbEntity
  8
BOUNDARY
100
AcDbLine
 10
160.0007186043209
 20
22.591062175066433
 30
0.0
 11
160.00066331462932
 21
22.590546111774707
 31
0.0
  0
LINE
  5
19C
330
17
100
AcDbEntity
  8
BOUNDARY
100
AcDbLine
 10
160.00066331462932
 20
22.590546111774707
 30
0.0
 11
160.00061023086468
 21
22.590029764803415
 31
0.0
  0
LINE
  5
19D
330
17
100
AcDbEntity
  8
BOUNDARY
100
AcDbLine
 10
160.00061023086468
 20
22.590029764803415
 30
0.0
 11
160.0005593542058
 21
22.58951314561535
 31
0.0
  0
LINE
  5
19E
330
17
100
AcDbEntity
  8
BOUNDARY
100
AcDbLine
 10
160.0005593542058
 20
22.58951314561535
 30
0.0
 11
160.00051068578244
 21
22.588996265679487
 31
0.0
  0
LINE
  5
19F
330
17
100
AcDbEntity
  8
BOUNDARY
100
AcDbLine
 10
160.00051068578244
 20
22.588996265679487
 30
0.0
 11
160.00046422667538
 21
22.588479136470724
 31
0.0
  0
LINE
  5
1A0
330
17
100
AcDbEntity
  8
BOUNDARY
100
AcDbLine
 10
160.00046422667538
 20
22.588479136470724
 30
0.0
 11
160.00041997791635
 21
22.587961769469644
 31
0.0
  0
LINE
  5
1A1
330
17
100
AcDbEntity
  8
BOUNDARY
100
AcDbLine
 10
160.00041997791635
 20
22.587961769469644
 30
0.0
 11
160.0003779404879
 21
22.587444176162236
 31
0.0
  0
LINE
  5
1A2
330
17
100
AcDbEntity
  8
BOUNDARY
100
AcDbLine
 10
160.0003779404879
 20
22.587444176162236
 30
0.0
 11
160.00033811532356
 21
22.586926368039645
 31
0.0
  0
LINE
  5
1A3
330
17
100
AcDbEntity
  8
BOUNDARY
100
AcDbLine
 10
160.00033811532356
 20
22.586926368039645
 30
0.0
 11
160.00030050330776
 21
22.586408356597953
 31
0.0
  0
LINE
  5
1A4
330
17
100
AcDbEntity
  8
BOUNDARY
100
AcDbLine
 10
160.00030050330776
 20
22.586408356597953
 30
0.0
 11
160.00026510527564
 21
22.58589015333789
 31
0.0
  0
LINE
  5
1A5
330
17
100
AcDbEntity
  8
BOUNDARY
100
AcDbLine
 10
160.00026510527564
 20
22.58589015333789
 30
0.0
 11
160.00023192201337
 21
22.585371769764556
 31
0.0
  0
LINE
  5
1A6
330
17
100
AcDbEntity
  8
BOUNDARY
100
AcDbLine
 10
160.00023192201337
 20
22.585371769764556
 30
0.0
 11
160.00020095425776
 21
22.584853217387227
 31
0.0
  0
LINE
  5
1A7
330
17
100
AcDbEntity
  8
BOUNDARY
100
AcDbLine
 10
160.00020095425776
 20
22.584853217387227
 30
0.0
 11
160.00017220269652
 21
22.58433450771905
 31
0.0
  0
LINE
  5
1A8
330
17
100
AcDbEntity
  8
BOUNDARY
100
AcDbLine
 10
160.00017220269652
 20
22.58433450771905
 30
0.0
 11
160.00014566796813
 21
22.58381565227682
 31
0.0
  0
LINE
  5
1A9
330
17
100
AcDbEntity
  8
BOUNDARY
100
AcDbLine
 10
160.00014566796813
 20
22.58381565227682
 30
0.0
 11
160.00012135066186
 21
22.583296662580693
 31
0.0
  0
LINE
  5
1AA
330
17
100
AcDbEntity
  8
BOUNDARY
100
AcDbLine
 10
160.00012135066186
 20
22.583296662580693
 30
0.0
 11
160.00009925131766
 21
22.582777550153963
 31
0.0
  0
LINE
  5
1AB
330
17
100
AcDbEntity
  8
BOUNDARY
100
AcDbLine
 10
160.00009925131766
 20
22.582777550153963
 30
0.0
 11
160.0000793704263
 21
22.582258326522773
 31
0.0
  0
LINE
  5
1AC
330
17
100
AcDbEntity
  8
BOUNDARY
100
AcDbLine
 10
160.0000793704263
 20
22.582258326522773
 30
0.0
 11
160.0000617084293
 21
22.581739003215887
 31
0.0
  0
LINE
  5
1AD
330
17
100
AcDbEntity
  8
BOUNDARY
100
AcDbLine
 10
160.0000617084293
 20
22.581739003215887
 30
0.0
 11
160.00004626571885
 21
22.58121959176443
 31
0.0
  0
LINE
  5
1AE
330
17
100
AcDbEntity
  8
BOUNDARY
100
AcDbLine
 10
160.00004626571885
 20
22.58121959176443
 30
0.0
 11
160.00003304263788
 21
22.580700103701613
 31
0.0
  0
LINE
  5
1AF
330
17
100
AcDbEntity
  8
BOUNDARY
100
AcDbLine
 10
160.00003304263788
 20
22.580700103701613
 30
0.0
 11
160.00002203948
 21
22.580180550562478
 31
0.0
  0
LINE
  5
1B0
330
17
100
AcDbEntity
  8
BOUNDARY
100
AcDbLine
 10
160.00002203948
 20
22.580180550562478
 30
0.0
 11
160.0000132564896
 21
22.579660943883685
 31
0.0
  0
LINE
  5
1B1
330
17
100
AcDbEntity
  8
BOUNDARY
100
AcDbLine
 10
160.0000132564896
 20
22.579660943883685
 30
0.0
 11
160.00000669386168
 21
22.579141295203208
 31
0.0
  0
LINE
  5
1B2
330
17
100
AcDbEntity
  8
BOUNDARY
100
AcDbLine
 10
160.00000669386168
 20
22.579141295203208
 30
0.0
 11
160.000002351742
 21
22.578621616060094
 31
0.0
  0
LINE
  5
1B3
330
17
100
AcDbEntity
  8
BOUNDARY
100
AcDbLine
 10
160.000002351742
 20
22.578621616060094
 30
0.0
 11
160.000000230227
 21
22.578101917994214
 31
0.0
  0
LINE
  5
1B4
330
17
100
AcDbEntity
  8
BOUNDARY
100
AcDbLine
 10
160.000000230227
 20
22.578101917994214
 30
0.0
 11
160.0
 21
22.577865266672124
 31
0.0
  0
LINE
  5
1B5
330
17
100
AcDbEntity
  8
BOUNDARY
100
AcDbLine
 10
153.8
 20
-22.688102609076854
 30
0.0
 11
159.9
 21
-22.688102609076854
 31
0.0
  0
LINE
  5
1B6
330
17
100
AcDbEntity
  8
BOUNDARY
100
AcDbLine
 10
153.80000000000013
 20
-22.688102609077
 30
0.0
 11
153.50000000000006
 21
-23.01825362619844
 31
0.0
  0
LINE
  5
1B7
330
17
100
AcDbEntity
  8
BOUNDARY
100
AcDbLine
 10
159.9
 20
-22.688102609076857
 30
0.0
 11
160.09958626455537
 21
-22.688101665973804
 31
0.0
  0
LINE
  5
1B8
330
17
100
AcDbEntity
  8
BOUNDARY
100
AcDbLine
 10
160.09958626455537
 20
-22.688101665973804
 30
0.0
 11
160.09911503602854
 21
-22.68809829416899
 31
0.0
  0
LINE
  5
1B9
330
17
100
AcDbEntity
  8
BOUNDARY
100
AcDbLine
 10
160.09911503602854
 20
-22.68809829416899
 30
0.0
 11
160.09864382715372
 21
-22.688092475519923
 31
0.0
  0
LINE
  5
1BA
330
17
100
AcDbEntity
  8
BOUNDARY
100
AcDbLine
 10
160.09864382715372
 20
-22.688092475519923
 30
0.0
 11
160.09817264839486
 21
-22.688084210155456
 31
0.0
  0
LINE
  5
1BB
330
17
100
AcDbEntity
  8
BOUNDARY
100
AcDbLine
 10
160.09817264839486
 20
-22.688084210155456
 30
0.0
 11
160.0977015102152
 21
-22.688073498258674
 31
0.0
  0
LINE
  5
1BC
330
17
100
AcDbEntity
  8
BOUNDARY
100
AcDbLine
 10
160.0977015102152
 20
-22.688073498258674
 30
0.0
 11
160.09723042307712
 21
-22.688060340066833
 31
0.0
  0
LINE
  5
1BD
330
17
100
AcDbEntity
  8
BOUNDARY
100
AcDbLine
 10
160.09723042307712
 20
-22.688060340066833
 30
0.0
 11
160.09675939744184
 21
-22.68804473587139
 31
0.0
  0
LINE
  5
1BE
330
17
100
AcDbEntity
  8
BOUNDARY
100
AcDbLine
 10
160.09675939744184
 20
-22.68804473587139
 30
0.0
 11
160.09628844376925
 21
-22.68802668601796
 31
0.0
  0
LINE
  5
1BF
330
17
100
AcDbEntity
  8
BOUNDARY
100
AcDbLine
 10
160.09628844376925
 20
-22.68802668601796
 30
0.0
 11
160.09581757251757
 21
-22.688006190906346
 31
0.0
  0
LINE
  5
1C0
330
17
100
AcDbEntity
  8
BOUNDARY
100
AcDbLine
 10
160.09581757251757
 20
-22.688006190906346
 30
0.0
 11
160.0953467941433
 21
-22.68798325099051
 31
0.0
  0
LINE
  5
1C1
330
17
100
AcDbEntity
  8
BOUNDARY
100
AcDbLine
 10
160.0953467941433
 20
-22.68798325099051
 30
0.0
 11
160.09487611910075
 21
-22.687957866778543
 31
0.0
  0
LINE
  5
1C2
330
17
100
AcDbEntity
  8
BOUNDARY
100
AcDbLine
 10
160.09487611910075
 20
-22.687957866778543
 30
0.0
 11
160.094405557842
 21
-22.687930038832718
 31
0.0
  0
LINE
  5
1C3
330
17
100
AcDbEntity
  8
BOUNDARY
100
AcDbLine
 10
160.094405557842
 20
-22.687930038832718
 30
0.0
 11
160.09393512081664
 21
-22.68789976776939
 31
0.0
  0
LINE
  5
1C4
330
17
100
AcDbEntity
  8
BOUNDARY
100
AcDbLine
 10
160.09393512081664
 20
-22.68789976776939
 30
0.0
 11
160.09346481847143
 21
-22.68786705425907
 31
0.0
  0
LINE
  5
1C5
330
17
100
AcDbEntity
  8
BOUNDARY
100
AcDbLine
 10
160.09346481847143
 20
-22.68786705425907
 30
0.0
 11
160.0929946612502
 21
-22.687831899026335
 31
0.0
  0
LINE
  5
1C6
330
17
100
AcDbEntity
  8
BOUNDARY
100
AcDbLine
 10
160.0929946612502
 20
-22.687831899026335
 30
0.0
 11
160.0925246595935
 21
-22.687794302849866
 31
0.0
  0
LINE
  5
1C7
330
17
100
AcDbEntity
  8
BOUNDARY
100
AcDbLine
 10
160.0925246595935
 20
-22.687794302849866
 30
0.0
 11
160.09205482393847
 21
-22.687754266562404
 31
0.0
  0
LINE
  5
1C8
330
17
100
AcDbEntity
  8
BOUNDARY
100
AcDbLine
 10
160.09205482393847
 20
-22.687754266562404
 30
0.0
 11
160.09158516471857
 21
-22.68771179105074
 31
0.0
  0
LINE
  5
1C9
330
17
100
AcDbEntity
  8
BOUNDARY
100
AcDbLine
 10
160.09158516471857
 20
-22.68771179105074
 30
0.0
 11
160.09111569236325
 21
-22.687666877255698
 31
0.0
  0
LINE
  5
1CA
330
17
100
AcDbEntity
  8
BOUNDARY
100
AcDbLine
 10
160.09111569236325
 20
-22.687666877255698
 30
0.0
 11
160.09064641729796
 21
-22.687619526172096
 31
0.0
  0
LINE
  5
1CB
330
17
100
AcDbEntity
  8
BOUNDARY
100
AcDbLine
 10
160.09064641729796
 20
-22.687619526172096
 30
0.0
 11
160.09017734994364
 21
-22.68756973884875
 31
0.0
  0
LINE
  5
1CC
330
17
100
AcDbEntity
  8
BOUNDARY
100
AcDbLine
 10
160.09017734994364
 20
-22.68756973884875
 30
0.0
 11
160.08970850071668
 21
-22.687517516388446
 31
0.0
  0
LINE
  5
1CD
330
17
100
AcDbEntity
  8
BOUNDARY
100
AcDbLine
 10
160.08970850071668
 20
-22.687517516388446
 30
0.0
 11
160.0892398800286
 21
-22.687462859947885
 31
0.0
  0
LINE
  5
1CE
330
17
100
AcDbEntity
  8
BOUNDARY
100
AcDbLine
 10
160.0892398800286
 20
-22.687462859947885
 30
0.0
 11
160.0887714982859
 21
-22.6874057707377
 31
0.0
  0
LINE
  5
1CF
330
17
100
AcDbEntity
  8
BOUNDARY
100
AcDbLine
 10
160.0887714982859
 20
-22.6874057707377
 30
0.0
 11
160.0883033658897
 21
-22.68734625002242
 31
0.0
  0
LINE
  5
1D0
330
17
100
AcDbEntity
  8
BOUNDARY
100
AcDbLine
 10
160.0883033658897
 20
-22.68734625002242
 30
0.0
 11
160.0878354932356
 21
-22.68728429912041
 31
0.0
  0
LINE
  5
1D1
330
17
100
AcDbEntity
  8
BOUNDARY
100
AcDbLine
 10
160.0878354932356
 20
-22.68728429912041
 30
0.0
 11
160.08736789071344
 21
-22.687219919403887
 31
0.0
  0
LINE
  5
1D2
330
17
100
AcDbEntity
  8
BOUNDARY
100
AcDbLine
 10
160.08736789071344
 20
-22.687219919403887
 30
0.0
 11
160.0869005687071
 21
-22.687153112298834
 31
0.0
  0
LINE
  5
1D3
330
17
100
AcDbEntity
  8
BOUNDARY
100
AcDbLine
 10
160.0869005687071
 20
-22.687153112298834
 30
0.0
 11
160.08643353759422
 21
-22.687083879285048
 31
0.0
  0
LINE
  5
1D4
330
17
100
AcDbEntity
  8
BOUNDARY
100
AcDbLine
 10
160.08643353759422
 20
-22.687083879285048
 30
0.0
 11
160.0859668077459
 21
-22.687012221896033
 31
0.0
  0
LINE
  5
1D5
330
17
100
AcDbEntity
  8
BOUNDARY
100
AcDbLine
 10
160.0859668077459
 20
-22.687012221896033
 30
0.0
 11
160.08550038952663
 21
-22.686938141718997
 31
0.0
  0
LINE
  5
1D6
330
17
100
AcDbEntity
  8
BOUNDARY
100
AcDbLine
 10
160.08550038952663
 20
-22.686938141718997
 30
0.0
 11
160.08503429329397
 21
-22.686861640394824
 31
0.0
  0
LINE
  5
1D7
330
17
100
AcDbEntity
  8
BOUNDARY
100
AcDbLine
 10
160.08503429329397
 20
-22.686861640394824
 30
0.0
 11
160.08456852939833
 21
-22.68678271961803
 31
0.0
  0
LINE
  5
1D8
330
17
100
AcDbEntity
  8
BOUNDARY
100
AcDbLine
 10
160.08456852939833
 20
-22.68678271961803
 30
0.0
 11
160.0841031081827
 21
-22.686701381136718
 31
0.0
  0
LINE
  5
1D9
330
17
100
AcDbEntity
  8
BOUNDARY
100
AcDbLine
 10
160.0841031081827
 20
-22.686701381136718
 30
0.0
 11
160.08363803998247
 21
-22.68661762675255
 31
0.0
  0
LINE
  5
1DA
330
17
100
AcDbEntity
  8
BOUNDARY
100
AcDbLine
 10
160.08363803998247
 20
-22.68661762675255
 30
0.0
 11
160.08317333512528
 21
-22.686531458320708
 31
0.0
  0
LINE
  5
1DB
330
17
100
AcDbEntity
  8
BOUNDARY
100
AcDbLine
 10
160.08317333512528
 20
-22.686531458320708
 30
0.0
 11
160.08270900393057
 21
-22.686442877749844
 31
0.0
  0
LINE
  5
1DC
330
17
100
AcDbEntity
  8
BOUNDARY
100
AcDbLine
 10
160.08270900393057
 20
-22.686442877749844
 30
0.0
 11
160.08224505670955
 21
-22.686351887002044
 31
0.0
  0
LINE
  5
1DD
330
17
100
AcDbEntity
  8
BOUNDARY
100
AcDbLine
 10
160.08224505670955
 20
-22.686351887002044
 30
0.0
 11
160.08178150376492
 21
-22.68625848809278
 31
0.0
  0
LINE
  5
1DE
330
17
100
AcDbEntity
  8
BOUNDARY
100
AcDbLine
 10
160.08178150376492
 20
-22.68625848809278
 30
0.0
 11
160.08131835539055
 21
-22.68616268309088
 31
0.0
  0
LINE
  5
1DF
330
17
100
AcDbEntity
  8
BOUNDARY
100
AcDbLine
 10
160.08131835539055
 20
-22.68616268309088
 30
0.0
 11
160.08085562187145
 21
-22.68606447411848
 31
0.0
  0
LINE
  5
1E0
330
17
100
AcDbEntity
  8
BOUNDARY
100
AcDbLine
 10
160.08085562187145
 20
-22.68606447411848
 30
0.0
 11
160.08039331348328
 21
-22.685963863350946
 31
0.0
  0
LINE
  5
1E1
330
17
100
AcDbEntity
  8
BOUNDARY
100
AcDbLine
 10
160.08039331348328
 20
-22.685963863350946
 30
0.0
 11
160.07993144049237
 21
-22.685860853016866
 31
0.0
  0
LINE
  5
1E2
330
17
100
AcDbEntity
  8
BOUNDARY
100
AcDbLine
 10
160.07993144049237
 20
-22.685860853016866
 30
0.0
 11
160.0794700131553
 21
-22.685755445397977
 31
0.0
  0
LINE
  5
1E3
330
17
100
AcDbEntity
  8
BOUNDARY
100
AcDbLine
 10
160.0794700131553
 20
-22.685755445397977
 30
0.0
 11
160.0790090417188
 21
-22.68564764282912
 31
0.0
  0
LINE
  5
1E4
330
17
100
AcDbEntity
  8
BOUNDARY
100
AcDbLine
 10
160.0790090417188
 20
-22.68564764282912
 30
0.0
 11
160.07854853641948
 21
-22.68553744769822
 31
0.0
  0
LINE
  5
1E5
330
17
100
AcDbEntity
  8
BOUNDARY
100
AcDbLine
 10
160.07854853641948
 20
-22.68553744769822
 30
0.0
 11
160.07808850748353
 21
-22.68542486244617
 31
0.0
  0
LINE
  5
1E6
330
17
100
AcDbEntity
  8
BOUNDARY
100
AcDbLine
 10
160.07808850748353
 20
-22.68542486244617
 30
0.0
 11
160.07762896512668
 21
-22.68530988956682
 31
0.0
  0
LINE
  5
1E7
330
17
100
AcDbEntity
  8
BOUNDARY
100
AcDbLine
 10
160.07762896512668
 20
-22.68530988956682
 30
0.0
 11
160.07716991955377
 21
-22.68519253160693
 31
0.0
  0
LINE
  5
1E8
330
17
100
AcDbEntity
  8
BOUNDARY
100
AcDbLine
 10
160.07716991955377
 20
-22.68519253160693
 30
0.0
 11
160.07671138095859
 21
-22.68507279116609
 31
0.0
  0
LINE
  5
1E9
330
17
100
AcDbEntity
  8
BOUNDARY
100
AcDbLine
 10
160.07671138095859
 20
-22.68507279116609
 30
0.0
 11
160.07625335952375
 21
-22.68495067089666
 31
0.0
  0
LINE
  5
1EA
330
17
100
AcDbEntity
  8
BOUNDARY
100
AcDbLine
 10
160.07625335952375
 20
-22.68495067089666
 30
0.0
 11
160.0757958654203
 21
-22.684826173503744
 31
0.0
  0
LINE
  5
1EB
330
17
100
AcDbEntity
  8
BOUNDARY
100
AcDbLine
 10
160.0757958654203
 20
-22.684826173503744
 30
0.0
 11
160.07533890880765
 21
-22.684699301745088
 31
0.0
  0
LINE
  5
1EC
330
17
100
AcDbEntity
  8
BOUNDARY
100
AcDbLine
 10
160.07533890880765
 20
-22.684699301745088
 30
0.0
 11
160.07488249983322
 21
-22.684570058431063
 31
0.0
  0
LINE
  5
1ED
330
17
100
AcDbEntity
  8
BOUNDARY
100
AcDbLine
 10
160.07488249983322
 20
-22.684570058431063
 30
0.0
 11
160.0744266486323
 21
-22.684438446424572
 31
0.0
  0
LINE
  5
1EE
330
17
100
AcDbEntity
  8
BOUNDARY
100
AcDbLine
 10
160.0744266486323
 20
-22.684438446424572
 30
0.0
 11
160.07397136532776
 21
-22.684304468640978
 31
0.0
  0
LINE
  5
1EF
330
17
100
AcDbEntity
  8
BOUNDARY
100
AcDbLine
 10
160.07397136532776
 20
-22.684304468640978
 30
0.0
 11
160.07351666002992
 21
-22.68416812804809
 31
0.0
  0
LINE
  5
1F0
330
17
100
AcDbEntity
  8
BOUNDARY
100
AcDbLine
 10
160.07351666002992
 20
-22.68416812804809
 30
0.0
 11
160.07306254283617
 21
-22.68402942766604
 31
0.0
  0
LINE
  5
1F1
330
17
100
AcDbEntity
  8
BOUNDARY
100
AcDbLine
 10
160.07306254283617
 20
-22.68402942766604
 30
0.0
 11
160.07260902383092
 21
-22.68388837056726
 31
0.0
  0
LINE
  5
1F2
330
17
100
AcDbEntity
  8
BOUNDARY
100
AcDbLine
 10
160.07260902383092
 20
-22.68388837056726
 30
0.0
 11
160.07215611308527
 21
-22.683744959876382
 31
0.0
  0
LINE
  5
1F3
330
17
100
AcDbEntity
  8
BOUNDARY
100
AcDbLine
 10
160.07215611308527
 20
-22.683744959876382
 30
0.0
 11
160.0717038206568
 21
-22.683599198770196
 31
0.0
  0
LINE
  5
1F4
330
17
100
AcDbEntity
  8
BOUNDARY
100
AcDbLine
 10
160.0717038206568
 20
-22.683599198770196
 30
0.0
 11
160.07125215658942
 21
-22.683451090477565
 31
0.0
  0
LINE
  5
1F5
330
17
100
AcDbEntity
  8
BOUNDARY
100
AcDbLine
 10
160.07125215658942
 20
-22.683451090477565
 30
0.0
 11
160.070801130913
 21
-22.68330063827935
 31
0.0
  0
LINE
  5
1F6
330
17
100
AcDbEntity
  8
BOUNDARY
100
AcDbLine
 10
160.070801130913
 20
-22.68330063827935
 30
0.0
 11
160.07035075364325
 21
-22.68314784550836
 31
0.0
  0
LINE
  5
1F7
330
17
100
AcDbEntity
  8
BOUNDARY
100
AcDbLine
 10
160.07035075364325
 20
-22.68314784550836
 30
0.0
 11
160.06990103478157
 21
-22.68299271554925
 31
0.0
  0
LINE
  5
1F8
330
17
100
AcDbEntity
  8
BOUNDARY
100
AcDbLine
 10
160.06990103478157
 20
-22.68299271554925
 30
0.0
 11
160.0694519843146
 21
-22.68283525183846
 31
0.0
  0
LINE
  5
1F9
330
17
100
AcDbEntity
  8
BOUNDARY
100
AcDbLine
 10
160.0694519843146
 20
-22.68283525183846
 30
0.0
 11
160.0690036122143
 21
-22.682675457864153
 31
0.0
  0
LINE
  5
1FA
330
17
100
AcDbEntity
  8
BOUNDARY
100
AcDbLine
 10
160.0690036122143
 20
-22.682675457864153
 30
0.0
 11
160.06855592843738
 21
-22.682513337166117
 31
0.0
  0
LINE
  5
1FB
330
17
100
AcDbEntity
  8
BOUNDARY
100
AcDbLine
 10
160.06855592843738
 20
-22.682513337166117
 30
0.0
 11
160.0681089429254
 21
-22.682348893335693
 31
0.0
  0
LINE
  5
1FC
330
17
100
AcDbEntity
  8
BOUNDARY
100
AcDbLine
 10
160.0681089429254
 20
-22.682348893335693
 30
0.0
 11
160.0676626656044
 21
-22.682182130015704
 31
0.0
  0
LINE
  5
1FD
330
17
100
AcDbEntity
  8
BOUNDARY
100
AcDbLine
 10
160.0676626656044
 20
-22.682182130015704
 30
0.0
 11
160.06721710638462
 21
-22.682013050900363
 31
0.0
  0
LINE
  5
1FE
330
17
100
AcDbEntity
  8
BOUNDARY
100
AcDbLine
 10
160.06721710638462
 20
-22.682013050900363
 30
0.0
 11
160.06677227516045
 21
-22.681841659735195
 31
0.0
  0
LINE
  5
1FF
330
17
100
AcDbEntity
  8
BOUNDARY
100
AcDbLine
 10
160.06677227516045
 20
-22.681841659735195
 30
0.0
 11
160.06632818181
 21
-22.681667960316975
 31
0.0
  0
LINE
  5
200
330
17
100
AcDbEntity
  8
BOUNDARY
100
AcDbLine
 10
160.06632818181
 20
-22.681667960316975
 30
0.0
 11
160.06588483619515
 21
-22.681491956493613
 31
0.0
  0
LINE
  5
201
330
17
100
AcDbEntity
  8
BOUNDARY
100
AcDbLine
 10
160.06588483619515
 20
-22.681491956493613
 30
0.0
 11
160.06544224816102
 21
-22.681313652164082
 31
0.0
  0
LINE
  5
202
330
17
100
AcDbEntity
  8
BOUNDARY
100
AcDbLine
 10
160.06544224816102
 20
-22.681313652164082
 30
0.0
 11
160.06500042753598
 21
-22.681133051278344
 31
0.0
  0
LINE
  5
203
330
17
100
AcDbEntity
  8
BOUNDARY
100
AcDbLine
 10
160.06500042753598
 20
-22.681133051278344
 30
0.0
 11
160.06455938413134
 21
-22.68095015783724
 31
0.0
  0
LINE
  5
204
330
17
100
AcDbEntity
  8
BOUNDARY
100
AcDbLine
 10
160.06455938413134
 20
-22.68095015783724
 30
0.0
 11
160.0641191277412
 21
-22.680764975892426
 31
0.0
  0
LINE
  5
205
330
17
100
AcDbEntity
  8
BOUNDARY
100
AcDbLine
 10
160.0641191277412
 20
-22.680764975892426
 30
0.0
 11
160.06367966814213
 21
-22.680577509546264
 31
0.0
  0
LINE
  5
206
330
17
100
AcDbEntity
  8
BOUNDARY
100
AcDbLine
 10
160.06367966814213
 20
-22.680577509546264
 30
0.0
 11
160.06324101509298
 21
-22.680387762951746
 31
0.0
  0
LINE
  5
207
330
17
100
AcDbEntity
  8
BOUNDARY
100
AcDbLine
 10
160.06324101509298
 20
-22.680387762951746
 30
0.0
 11
160.06280317833478
 21
-22.680195740312392
 31
0.0
  0
LINE
  5
208
330
17
100
AcDbEntity
  8
BOUNDARY
100
AcDbLine
 10
160.06280317833478
 20
-22.680195740312392
 30
0.0
 11
160.06236616759037
 21
-22.680001445882173
 31
0.0
  0
LINE
  5
209
330
17
100
AcDbEntity
  8
BOUNDARY
100
AcDbLine
 10
160.06236616759037
 20
-22.680001445882173
 30
0.0
 11
160.06192999256425
 21
-22.679804883965403
 31
0.0
  0
LINE
  5
20A
330
17
100
AcDbEntity
  8
BOUNDARY
100
AcDbLine
 10
160.06192999256425
 20
-22.679804883965403
 30
0.0
 11
160.06149466294235
 21
-22.67960605891663
 31
0.0
  0
LINE
  5
20B
330
17
100
AcDbEntity
  8
BOUNDARY
100
AcDbLine
 10
160.06149466294235
 20
-22.67960605891663
 30
0.0
 11
160.06106018839188
 21
-22.67940497514059
 31
0.0
  0
LINE
  5
20C
330
17
100
AcDbEntity
  8
BOUNDARY
100
AcDbLine
 10
160.06106018839188
 20
-22.67940497514059
 30
0.0
 11
160.06062657856103
 21
-22.679201637092046
 31
0.0
  0
LINE
  5
20D
330
17
100
AcDbEntity
  8
BOUNDARY
100
AcDbLine
 10
160.06062657856103
 20
-22.679201637092046
 30
0.0
 11
160.06019384307876
 21
-22.678996049275764
 31
0.0
  0
LINE
  5
20E
330
17
100
AcDbEntity
  8
BOUNDARY
100
AcDbLine
 10
160.06019384307876
 20
-22.678996049275764
 30
0.0
 11
160.05976199155467
 21
-22.678788216246318
 31
0.0
  0
LINE
  5
20F
330
17
100
AcDbEntity
  8
BOUNDARY
100
AcDbLine
 10
160.05976199155467
 20
-22.678788216246318
 30
0.0
 11
160.05933103357867
 21
-22.6785781426081
 31
0.0
  0
LINE
  5
210
330
17
100
AcDbEntity
  8
BOUNDARY
100
AcDbLine
 10
160.05933103357867
 20
-22.6785781426081
 30
0.0
 11
160.05890097872089
 21
-22.67836583301512
 31
0.0
  0
LINE
  5
211
330
17
100
AcDbEntity
  8
BOUNDARY
100
AcDbLine
 10
160.05890097872089
 20
-22.67836583301512
 30
0.0
 11
160.05847183653134
 21
-22.67815129217098
 31
0.0
  0
LINE
  5
212
330
17
100
AcDbEntity
  8
BOUNDARY
100
AcDbLine
 10
160.05847183653134
 20
-22.67815129217098
 30
0.0
 11
160.0580436165398
 21
-22.677934524828704
 31
0.0
  0
LINE
  5
213
330
17
100
AcDbEntity
  8
BOUNDARY
100
AcDbLine
 10
160.0580436165398
 20
-22.677934524828704
 30
0.0
 11
160.05761632825562
 21
-22.677715535790696
 31
0.0
  0
LINE
  5
214
330
17
100
AcDbEntity
  8
BOUNDARY
100
AcDbLine
 10
160.05761632825562
 20
-22.677715535790696
 30
0.0
 11
160.0571899811673
 21
-22.677494329908587
 31
0.0
  0
LINE
  5
215
330
17
100
AcDbEntity
  8
BOUNDARY
100
AcDbLine
 10
160.0571899811673
 20
-22.677494329908587
 30
0.0
 11
160.05676458474267
 21
-22.677270912083156
 31
0.0
  0
LINE
  5
216
330
17
100
AcDbEntity
  8
BOUNDARY
100
AcDbLine
 10
160.05676458474267
 20
-22.677270912083156
 30
0.0
 11
160.05634014842826
 21
-22.677045287264203
 31
0.0
  0
LINE
  5
217
330
17
100
AcDbEntity
  8
BOUNDARY
100
AcDbLine
 10
160.05634014842826
 20
-22.677045287264203
 30
0.0
 11
160.05591668164934
 21
-22.676817460450465
 31
0.0
  0
LINE
  5
218
330
17
100
AcDbEntity
  8
BOUNDARY
100
AcDbLine
 10
160.05591668164934
 20
-22.676817460450465
 30
0.0
 11
160.05549419380964
 21
-22.67658743668947
 31
0.0
  0
LINE
  5
219
330
17
100
AcDbEntity
  8
BOUNDARY
100
AcDbLine
 10
160.05549419380964
 20
-22.67658743668947
 30
0.0
 11
160.0550726942912
 21
-22.67635522107746
 31
0.0
  0
LINE
  5
21A
330
17
100
AcDbEntity
  8
BOUNDARY
100
AcDbLine
 10
160.0550726942912
 20
-22.67635522107746
 30
0.0
 11
160.05465219245409
 21
-22.676120818759266
 31
0.0
  0
LINE
  5
21B
330
17
100
AcDbEntity
  8
BOUNDARY
100
AcDbLine
 10
160.05465219245409
 20
-22.676120818759266
 30
0.0
 11
160.05423269763617
 21
-22.67588423492818
 31
0.0
  0
LINE
  5
21C
330
17
100
AcDbEntity
  8
BOUNDARY
100
AcDbLine
 10
160.05423269763617
 20
-22.67588423492818
 30
0.0
 11
160.053814219153
 21
-22.675645474825885
 31
0.0
  0
LINE
  5
21D
330
17
100
AcDbEntity
  8
BOUNDARY
100
AcDbLine
 10
160.053814219153
 20
-22.675645474825885
 30
0.0
 11
160.05339676629754
 21
-22.675404543742275
 31
0.0
  0
LINE
  5
21E
330
17
100
AcDbEntity
  8
BOUNDARY
100
AcDbLine
 10
160.05339676629754
 20
-22.675404543742275
 30
0.0
 11
160.05298034834001
 21
-22.675161447015387
 31
0.0
  0
LINE
  5
21F
330
17
100
AcDbEntity
  8
BOUNDARY
100
AcDbLine
 10
160.05298034834001
 20
-22.675161447015387
 30
0.0
 11
160.05256497452763
 21
-22.67491619003128
 31
0.0
  0
LINE
  5
220
330
17
100
AcDbEntity
  8
BOUNDARY
100
AcDbLine
 10
160.05256497452763
 20
-22.67491619003128
 30
0.0
 11
160.05215065408436
 21
-22.67466877822388
 31
0.0
  0
LINE
  5
221
330
17
100
AcDbEntity
  8
BOUNDARY
100
AcDbLine
 10
160.05215065408436
 20
-22.67466877822388
 30
0.0
 11
160.0517373962109
 21
-22.674419217074917
 31
0.0
  0
LINE
  5
222
330
17
100
AcDbEntity
  8
BOUNDARY
100
AcDbLine
 10
160.0517373962109
 20
-22.674419217074917
 30
0.0
 11
160.05132521008431
 21
-22.674167512113762
 31
0.0
  0
LINE
  5
223
330
17
100
AcDbEntity
  8
BOUNDARY
100
AcDbLine
 10
160.05132521008431
 20
-22.674167512113762
 30
0.0
 11
160.05091410485775
 21
-22.6739136689173
 31
0.0
  0
LINE
  5
224
330
17
100
AcDbEntity
  8
BOUNDARY
100
AcDbLine
 10
160.05091410485775
 20
-22.6739136689173
 30
0.0
 11
160.05050408966054
 21
-22.673657693109853
 31
0.0
  0
LINE
  5
225
330
17
100
AcDbEntity
  8
BOUNDARY
100
AcDbLine
 10
160.05050408966054
 20
-22.673657693109853
 30
0.0
 11
160.0500951735976
 21
-22.673399590363005
 31
0.0
  0
LINE
  5
226
330
17
100
AcDbEntity
  8
BOUNDARY
100
AcDbLine
 10
160.0500951735976
 20
-22.673399590363005
 30
0.0
 11
160.0496873657497
 21
-22.673139366395514
 31
0.0
  0
LINE
  5
227
330
17
100
AcDbEntity
  8
BOUNDARY
100
AcDbLine
 10
160.0496873657497
 20
-22.673139366395514
 30
0.0
 11
160.04928067517272
 21
-22.672877026973165
 31
0.0
  0
LINE
  5
228
330
17
100
AcDbEntity
  8
BOUNDARY
100
AcDbLine
 10
160.04928067517272
 20
-22.672877026973165
 30
0.0
 11
160.04887511089794
 21
-22.67261257790865
 31
0.0
  0
LINE
  5
229
330
17
100
AcDbEntity
  8
BOUNDARY
100
AcDbLine
 10
160.04887511089794
 20
-22.67261257790865
 30
0.0
 11
160.04847068193152
 21
-22.672346025061447
 31
0.0
  0
LINE
  5
22A
330
17
100
AcDbEntity
  8
BOUNDARY
100
AcDbLine
 10
160.04847068193152
 20
-22.672346025061447
 30
0.0
 11
160.04806739725444
 21
-22.672077374337672
 31
0.0
  0
LINE
  5
22B
330
17
100
AcDbEntity
  8
BOUNDARY
100
AcDbLine
 10
160.04806739725444
 20
-22.672077374337672
 30
0.0
 11
160.0476652658223
 21
-22.671806631689968
 31
0.0
  0
LINE
  5
22C
330
17
100
AcDbEntity
  8
BOUNDARY
100
AcDbLine
 10
160.0476652658223
 20
-22.671806631689968
 30
0.0
 11
160.047264296565
 21
-22.671533803117374
 31
0.0
  0
LINE
  5
22D
330
17
100
AcDbEntity
  8
BOUNDARY
100
AcDbLine
 10
160.047264296565
 20
-22.671533803117374
 30
0.0
 11
160.04686449838675
 21
-22.671258894665172
 31
0.0
  0
LINE
  5
22E
330
17
100
AcDbEntity
  8
BOUNDARY
100
AcDbLine
 10
160.04686449838675
 20
-22.671258894665172
 30
0.0
 11
160.04646588016567
 21
-22.670981912424782
 31
0.0
  0
LINE
  5
22F
330
17
100
AcDbEntity
  8
BOUNDARY
100
AcDbLine
 10
160.04646588016567
 20
-22.670981912424782
 30
0.0
 11
160.04606845075372
 21
-22.670702862533595
 31
0.0
  0
LINE
  5
230
330
17
100
AcDbEntity
  8
BOUNDARY
100
AcDbLine
 10
160.04606845075372
 20
-22.670702862533595
 30
0.0
 11
160.0456722189764
 21
-22.670421751174878
 31
0.0
  0
LINE
  5
231
330
17
100
AcDbEntity
  8
BOUNDARY
100
AcDbLine
 10
160.0456722189764
 20
-22.670421751174878
 30
0.0
 11
160.0452771936327
 21
-22.6701385845776
 31
0.0
  0
LINE
  5
232
330
17
100
AcDbEntity
  8
BOUNDARY
100
AcDbLine
 10
160.0452771936327
 20
-22.6701385845776
 30
0.0
 11
160.04488338349478
 21
-22.669853369016327
 31
0.0
  0
LINE
  5
233
330
17
100
AcDbEntity
  8
BOUNDARY
100
AcDbLine
 10
160.04488338349478
 20
-22.669853369016327
 30
0.0
 11
160.04449079730776
 21
-22.66956611081105
 31
0.0
  0
LINE
  5
234
330
17
100
AcDbEntity
  8
BOUNDARY
100
AcDbLine
 10
160.04449079730776
 20
-22.66956611081105
 30
0.0
 11
160.0440994437897
 21
-22.669276816327088
 31
0.0
  0
LINE
  5
235
330
17
100
AcDbEntity
  8
BOUNDARY
100
AcDbLine
 10
160.0440994437897
 20
-22.669276816327088
 30
0.0
 11
160.04370933163116
 21
-22.66898549197489
 31
0.0
  0
LINE
  5
236
330
17
100
AcDbEntity
  8
BOUNDARY
100
AcDbLine
 10
160.04370933163116
 20
-22.66898549197489
 30
0.0
 11
160.04332046949523
 21
-22.668692144209963
 31
0.0
  0
LINE
  5
237
330
17
100
AcDbEntity
  8
BOUNDARY
100
AcDbLine
 10
160.04332046949523
 20
-22.668692144209963
 30
0.0
 11
160.0429328660172
 21
-22.66839677953267
 31
0.0
  0
LINE
  5
238
330
17
100
AcDbEntity
  8
BOUNDARY
100
AcDbLine
 10
160.0429328660172
 20
-22.66839677953267
 30
0.0
 11
160.0425465298044
 21
-22.668099404488128
 31
0.0
  0
LINE
  5
239
330
17
100
AcDbEntity
  8
BOUNDARY
100
AcDbLine
 10
160.0425465298044
 20
-22.668099404488128
 30
0.0
 11
160.04216146943602
 21
-22.66780002566604
 31
0.0
  0
LINE
  5
23A
330
17
100
AcDbEntity
  8
BOUNDARY
100
AcDbLine
 10
160.04216146943602
 20
-22.66780002566604
 30
0.0
 11
160.041777693463
 21
-22.667498649700548
 31
0.0
  0
LINE
  5
23B
330
17
100
AcDbEntity
  8
BOUNDARY
100
AcDbLine
 10
160.041777693463
 20
-22.667498649700548
 30
0.0
 11
160.0413952104076
 21
-22.667195283270114
 31
0.0
  0
LINE
  5
23C
330
17
100
AcDbEntity
  8
BOUNDARY
100
AcDbLine
 10
160.0413952104076
 20
-22.667195283270114
 30
0.0
 11
160.04101402876347
 21
-22.66688993309734
 31
0.0
  0
LINE
  5
23D
330
17
100
AcDbEntity
  8
BOUNDARY
100
AcDbLine
 10
160.04101402876347
 20
-22.66688993309734
 30
0.0
 11
160.0406341569954
 21
-22.66658260594886
 31
0.0
  0
LINE
  5
23E
330
17
100
AcDbEntity
  8
BOUNDARY
100
AcDbLine
 10
160.0406341569954
 20
-22.66658260594886
 30
0.0
 11
160.04025560353898
 21
-22.666273308635127
 31
0.0
  0
LINE
  5
23F
330
17
100
AcDbEntity
  8
BOUNDARY
100
AcDbLine
 10
160.04025560353898
 20
-22.666273308635127
 30
0.0
 11
160.03987837680063
 21
-22.66596204801033
 31
0.0
  0
LINE
  5
240
330
17
100
AcDbEntity
  8
BOUNDARY
100
AcDbLine
 10
160.03987837680063
 20
-22.66596204801033
 30
0.0
 11
160.03950248515724
 21
-22.665648830972216
 31
0.0
  0
LINE
  5
241
330
17
100
AcDbEntity
  8
BOUNDARY
100
AcDbLine
 10
160.03950248515724
 20
-22.665648830972216
 30
0.0
 11
160.03912793695605
 21
-22.66533366446192
 31
0.0
  0
LINE
  5
242
330
17
100
AcDbEntity
  8
BOUNDARY
100
AcDbLine
 10
160.03912793695605
 20
-22.66533366446192
 30
0.0
 11
160.03875474051455
 21
-22.66501655546384
 31
0.0
  0
LINE
  5
243
330
17
100
AcDbEntity
  8
BOUNDARY
100
AcDbLine
 10
160.03875474051455
 20
-22.66501655546384
 30
0.0
 11
160.03838290412008
 21
-22.664697511005482
 31
0.0
  0
LINE
  5
244
330
17
100
AcDbEntity
  8
BOUNDARY
100
AcDbLine
 10
160.03838290412008
 20
-22.664697511005482
 30
0.0
 11
160.0380124360299
 21
-22.664376538157274
 31
0.0
  0
LINE
  5
245
330
17
100
AcDbEntity
  8
BOUNDARY
100
AcDbLine
 10
160.0380124360299
 20
-22.664376538157274
 30
0.0
 11
160.03764334447084
 21
-22.664053644032446
 31
0.0
  0
LINE
  5
246
330
17
100
AcDbEntity
  8
BOUNDARY
100
AcDbLine
 10
160.03764334447084
 20
-22.664053644032446
 30
0.0
 11
160.0372756376391
 21
-22.663728835786863
 31
0.0
  0
LINE
  5
247
330
17
100
AcDbEntity
  8
BOUNDARY
100
AcDbLine
 10
160.0372756376391
 20
-22.663728835786863
 30
0.0
 11
160.03690932370029
 21
-22.663402120618848
 31
0.0
  0
LINE
  5
248
330
17
100
AcDbEntity
  8
BOUNDARY
100
AcDbLine
 10
160.03690932370029
 20
-22.663402120618848
 30
0.0
 11
160.03654441078888
 21
-22.663073505769056
 31
0.0
  0
LINE
  5
249
330
17
100
AcDbEntity
  8
BOUNDARY
100
AcDbLine
 10
160.03654441078888
 20
-22.663073505769056
 30
0.0
 11
160.03618090700837
 21
-22.662742998520283
 31
0.0
  0
LINE
  5
24A
330
17
100
AcDbEntity
  8
BOUNDARY
100
AcDbLine
 10
160.03618090700837
 20
-22.662742998520283
 30
0.0
 11
160.03581882043093
 21
-22.662410606197334
 31
0.0
  0
LINE
  5
24B
330
17
100
AcDbEntity
  8
BOUNDARY
100
AcDbLine
 10
160.03581882043093
 20
-22.662410606197334
 30
0.0
 11
160.0354581590973
 21
-22.662076336166834
 31
0.0
  0
LINE
  5
24C
330
17
100
AcDbEntity
  8
BOUNDARY
100
AcDbLine
 10
160.0354581590973
 20
-22.662076336166834
 30
0.0
 11
160.03509893101648
 21
-22.661740195837083
 31
0.0
  0
LINE
  5
24D
330
17
100
AcDbEntity
  8
BOUNDARY
100
AcDbLine
 10
160.03509893101648
 20
-22.661740195837083
 30
0.0
 11
160.0347411441657
 21
-22.66140219265791
 31
0.0
  0
LINE
  5
24E
330
17
100
AcDbEntity
  8
BOUNDARY
100
AcDbLine
 10
160.0347411441657
 20
-22.66140219265791
 30
0.0
 11
160.0343848064902
 21
-22.66106233412045
 31
0.0
  0
LINE
  5
24F
330
17
100
AcDbEntity
  8
BOUNDARY
100
AcDbLine
 10
160.0343848064902
 20
-22.66106233412045
 30
0.0
 11
160.034029925903
 21
-22.66072062775706
 31
0.0
  0
LINE
  5
250
330
17
100
AcDbEntity
  8
BOUNDARY
100
AcDbLine
 10
160.034029925903
 20
-22.66072062775706
 30
0.0
 11
160.0336765102848
 21
-22.660377081141064
 31
0.0
  0
LINE
  5
251
330
17
100
AcDbEntity
  8
BOUNDARY
100
AcDbLine
 10
160.0336765102848
 20
-22.660377081141064
 30
0.0
 11
160.03332456748373
 21
-22.66003170188667
 31
0.0
  0
LINE
  5
252
330
17
100
AcDbEntity
  8
BOUNDARY
100
AcDbLine
 10
160.03332456748373
 20
-22.66003170188667
 30
0.0
 11
160.03297410531525
 21
-22.659684497648747
 31
0.0
  0
LINE
  5
253
330
17
100
AcDbEntity
  8
BOUNDARY
100
AcDbLine
 10
160.03297410531525
 20
-22.659684497648747
 30
0.0
 11
160.03262513156187
 21
-22.65933547612268
 31
0.0
  0
LINE
  5
254
330
17
100
AcDbEntity
  8
BOUNDARY
100
AcDbLine
 10
160.03262513156187
 20
-22.65933547612268
 30
0.0
 11
160.03227765397318
 21
-22.65898464504419
 31
0.0
  0
LINE
  5
255
330
17
100
AcDbEntity
  8
BOUNDARY
100
AcDbLine
 10
160.03227765397318
 20
-22.65898464504419
 30
0.0
 11
160.0319316802654
 21
-22.658632012189155
 31
0.0
  0
LINE
  5
256
330
17
100
AcDbEntity
  8
BOUNDARY
100
AcDbLine
 10
160.0319316802654
 20
-22.658632012189155
 30
0.0
 11
160.03158721812144
 21
-22.658277585373487
 31
0.0
  0
LINE
  5
257
330
17
100
AcDbEntity
  8
BOUNDARY
100
AcDbLine
 10
160.03158721812144
 20
-22.658277585373487
 30
0.0
 11
160.03124427519063
 21
-22.65792137245289
 31
0.0
  0
LINE
  5
258
330
17
100
AcDbEntity
  8
BOUNDARY
100
AcDbLine
 10
160.03124427519063
 20
-22.65792137245289
 30
0.0
 11
160.03090285908857
 21
-22.65756338132273
 31
0.0
  0
LINE
  5
259
330
17
100
AcDbEntity
  8
BOUNDARY
100
AcDbLine
 10
160.03090285908857
 20
-22.65756338132273
 30
0.0
 11
160.0305629773969
 21
-22.65720361991787
 31
0.0
  0
LINE
  5
25A
330
17
100
AcDbEntity
  8
BOUNDARY
100
AcDbLine
 10
160.0305629773969
 20
-22.65720361991787
 30
0.0
 11
160.03022463766325
 21
-22.656842096212447
 31
0.0
  0
LINE
  5
25B
330
17
100
AcDbEntity
  8
BOUNDARY
100
AcDbLine
 10
160.03022463766325
 20
-22.656842096212447
 30
0.0
 11
160.02988784740097
 21
-22.656478818219743
 31
0.0
  0
LINE
  5
25C
330
17
100
AcDbEntity
  8
BOUNDARY
100
AcDbLine
 10
160.02988784740097
 20
-22.656478818219743
 30
0.0
 11
160.02955261408903
 21
-22.656113793992
 31
0.0
  0
LINE
  5
25D
330
17
100
AcDbEntity
  8
BOUNDARY
100
AcDbLine
 10
160.02955261408903
 20
-22.656113793992
 30
0.0
 11
160.02921894517183
 21
-22.655747031620212
 31
0.0
  0
LINE
  5
25E
330
17
100
AcDbEntity
  8
BOUNDARY
100
AcDbLine
 10
160.02921894517183
 20
-22.655747031620212
 30
0.0
 11
160.02888684805896
 21
-22.65537853923399
 31
0.0
  0
LINE
  5
25F
330
17
100
AcDbEntity
  8
BOUNDARY
100
AcDbLine
 10
160.02888684805896
 20
-22.65537853923399
 30
0.0
 11
160.0285563301252
 21
-22.65500832500134
 31
0.0
  0
LINE
  5
260
330
17
100
AcDbEntity
  8
BOUNDARY
100
AcDbLine
 10
160.0285563301252
 20
-22.65500832500134
 30
0.0
 11
160.02822739871021
 21
-22.65463639712853
 31
0.0
  0
LINE
  5
261
330
17
100
AcDbEntity
  8
BOUNDARY
100
AcDbLine
 10
160.02822739871021
 20
-22.65463639712853
 30
0.0
 11
160.02790006111843
 21
-22.65426276385986
 31
0.0
  0
LINE
  5
262
330
17
100
AcDbEntity
  8
BOUNDARY
100
AcDbLine
 10
160.02790006111843
 20
-22.65426276385986
 30
0.0
 11
160.02757432461888
 21
-22.65388743347752
 31
0.0
  0
LINE
  5
263
330
17
100
AcDbEntity
  8
BOUNDARY
100
AcDbLine
 10
160.02757432461888
 20
-22.65388743347752
 30
0.0
 11
160.0272501964451
 21
-22.65351041430138
 31
0.0
  0
LINE
  5
264
330
17
100
AcDbEntity
  8
BOUNDARY
100
AcDbLine
 10
160.0272501964451
 20
-22.65351041430138
 30
0.0
 11
160.0269276837948
 21
-22.653131714688826
 31
0.0
  0
LINE
  5
265
330
17
100
AcDbEntity
  8
BOUNDARY
100
AcDbLine
 10
160.0269276837948
 20
-22.653131714688826
 30
0.0
 11
160.02660679382993
 21
-22.652751343034566
 31
0.0
  0
LINE
  5
266
330
17
100
AcDbEntity
  8
BOUNDARY
100
AcDbLine
 10
160.02660679382993
 20
-22.652751343034566
 30
0.0
 11
160.02628753367634
 21
-22.652369307770435
 31
0.0
  0
LINE
  5
267
330
17
100
AcDbEntity
  8
BOUNDARY
100
AcDbLine
 10
160.02628753367634
 20
-22.652369307770435
 30
0.0
 11
160.0259699104237
 21
-22.651985617365245
 31
0.0
  0
LINE
  5
268
330
17
100
AcDbEntity
  8
BOUNDARY
100
AcDbLine
 10
160.0259699104237
 20
-22.651985617365245
 30
0.0
 11
160.02565393112533
 21
-22.65160028032454
 31
0.0
  0
LINE
  5
269
330
17
100
AcDbEntity
  8
BOUNDARY
100
AcDbLine
 10
160.02565393112533
 20
-22.65160028032454
 30
0.0
 11
160.02533960279806
 21
-22.651213305190478
 31
0.0
  0
LINE
  5
26A
330
17
100
AcDbEntity
  8
BOUNDARY
100
AcDbLine
 10
160.02533960279806
 20
-22.651213305190478
 30
0.0
 11
160.025026932422
 21
-22.65082470054158
 31
0.0
  0
LINE
  5
26B
330
17
100
AcDbEntity
  8
BOUNDARY
100
AcDbLine
 10
160.025026932422
 20
-22.65082470054158
 30
0.0
 11
160.02471592694056
 21
-22.65043447499258
 31
0.0
  0
LINE
  5
26C
330
17
100
AcDbEntity
  8
BOUNDARY
100
AcDbLine
 10
160.02471592694056
 20
-22.65043447499258
 30
0.0
 11
160.02440659326004
 21
-22.650042637194215
 31
0.0
  0
LINE
  5
26D
330
17
100
AcDbEntity
  8
BOUNDARY
100
AcDbLine
 10
160.02440659326004
 20
-22.650042637194215
 30
0.0
 11
160.02409893824972
 21
-22.649649195833053
 31
0.0
  0
LINE
  5
26E
330
17
100
AcDbEntity
  8
BOUNDARY
100
AcDbLine
 10
160.02409893824972
 20
-22.649649195833053
 30
0.0
 11
160.02379296874153
 21
-22.649254159631273
 31
0.0
  0
LINE
  5
26F
330
17
100
AcDbEntity
  8
BOUNDARY
100
AcDbLine
 10
160.02379296874153
 20
-22.649254159631273
 30
0.0
 11
160.02348869153002
 21
-22.64885753734651
 31
0.0
  0
LINE
  5
270
330
17
100
AcDbEntity
  8
BOUNDARY
100
AcDbLine
 10
160.02348869153002
 20
-22.64885753734651
 30
0.0
 11
160.02318611337213
 21
-22.648459337771627
 31
0.0
  0
LINE
  5
271
330
17
100
AcDbEntity
  8
BOUNDARY
100
AcDbLine
 10
160.02318611337213
 20
-22.648459337771627
 30
0.0
 11
160.0228852409871
 21
-22.648059569734542
 31
0.0
  0
LINE
  5
272
330
17
100
AcDbEntity
  8
BOUNDARY
100
AcDbLine
 10
160.0228852409871
 20
-22.648059569734542
 30
0.0
 11
160.0225860810563
 21
-22.647658242098025
 31
0.0
  0
LINE
  5
273
330
17
100
AcDbEntity
  8
BOUNDARY
100
AcDbLine
 10
160.0225860810563
 20
-22.647658242098025
 30
0.0
 11
160.02228864022297
 21
-22.647255363759502
 31
0.0
  0
LINE
  5
274
330
17
100
AcDbEntity
  8
BOUNDARY
100
AcDbLine
 10
160.02228864022297
 20
-22.647255363759502
 30
0.0
 11
160.02199292509232
 21
-22.646850943650865
 31
0.0
  0
LINE
  5
275
330
17
100
AcDbEntity
  8
BOUNDARY
100
AcDbLine
 10
160.02199292509232
 20
-22.646850943650865
 30
0.0
 11
160.02169894223113
 21
-22.646444990738267
 31
0.0
  0
LINE
  5
276
330
17
100
AcDbEntity
  8
BOUNDARY
100
AcDbLine
 10
160.02169894223113
 20
-22.646444990738267
 30
0.0
 11
160.02140669816777
 21
-22.646037514021938
 31
0.0
  0
LINE
  5
277
330
17
100
AcDbEntity
  8
BOUNDARY
100
AcDbLine
 10
160.02140669816777
 20
-22.646037514021938
 30
0.0
 11
160.02111619939194
 21
-22.645628522535965
 31
0.0
  0
LINE
  5
278
330
17
100
AcDbEntity
  8
BOUNDARY
100
AcDbLine
 10
160.02111619939194
 20
-22.645628522535965
 30
0.0
 11
160.02082745235467
 21
-22.645218025348104
 31
0.0
  0
LINE
  5
279
330
17
100
AcDbEntity
  8
BOUNDARY
100
AcDbLine
 10
160.02082745235467
 20
-22.645218025348104
 30
0.0
 11
160.02054046346802
 21
-22.644806031559593
 31
0.0
  0
LINE
  5
27A
330
17
100
AcDbEntity
  8
BOUNDARY
100
AcDbLine
 10
160.02054046346802
 20
-22.644806031559593
 30
0.0
 11
160.02025523910504
 21
-22.644392550304925
 31
0.0
  0
LINE
  5
27B
330
17
100
AcDbEntity
  8
BOUNDARY
100
AcDbLine
 10
160.02025523910504
 20
-22.644392550304925
 30
0.0
 11
160.01997178559958
 21
-22.64397759075167
 31
0.0
  0
LINE
  5
27C
330
17
100
AcDbEntity
  8
BOUNDARY
100
AcDbLine
 10
160.01997178559958
 20
-22.64397759075167
 30
0.0
 11
160.01969010924614
 21
-22.64356116210026
 31
0.0
  0
LINE
  5
27D
330
17
100
AcDbEntity
  8
BOUNDARY
100
AcDbLine
 10
160.01969010924614
 20
-22.64356116210026
 30
0.0
 11
160.01941021629983
 21
-22.643143273583778
 31
0.0
  0
LINE
  5
27E
330
17
100
AcDbEntity
  8
BOUNDARY
100
AcDbLine
 10
160.01941021629983
 20
-22.643143273583778
 30
0.0
 11
160.01913211297608
 21
-22.64272393446777
 31
0.0
  0
LINE
  5
27F
330
17
100
AcDbEntity
  8
BOUNDARY
100
AcDbLine
 10
160.01913211297608
 20
-22.64272393446777
 30
0.0
 11
160.0188558054506
 21
-22.642303154050055
 31
0.0
  0
LINE
  5
280
330
17
100
AcDbEntity
  8
BOUNDARY
100
AcDbLine
 10
160.0188558054506
 20
-22.642303154050055
 30
0.0
 11
160.0185812998593
 21
-22.64188094166047
 31
0.0
  0
LINE
  5
281
330
17
100
AcDbEntity
  8
BOUNDARY
100
AcDbLine
 10
160.0185812998593
 20
-22.64188094166047
 30
0.0
 11
160.01830860229794
 21
-22.64145730666071
 31
0.0
  0
LINE
  5
282
330
17
100
AcDbEntity
  8
BOUNDARY
100
AcDbLine
 10
160.01830860229794
 20
-22.64145730666071
 30
0.0
 11
160.0180377188222
 21
-22.641032258444106
 31
0.0
  0
LINE
  5
283
330
17
100
AcDbEntity
  8
BOUNDARY
100
AcDbLine
 10
160.0180377188222
 20
-22.641032258444106
 30
0.0
 11
160.01776865544753
 21
-22.64060580643541
 31
0.0
  0
LINE
  5
284
330
17
100
AcDbEntity
  8
BOUNDARY
100
AcDbLine
 10
160.01776865544753
 20
-22.64060580643541
 30
0.0
 11
160.01750141814884
 21
-22.6401779600906
 31
0.0
  0
LINE
  5
285
330
17
100
AcDbEntity
  8
BOUNDARY
100
AcDbLine
 10
160.01750141814884
 20
-22.6401779600906
 30
0.0
 11
160.01723601286056
 21
-22.63974872889667
 31
0.0
  0
LINE
  5
286
330
17
100
AcDbEntity
  8
BOUNDARY
100
AcDbLine
 10
160.01723601286056
 20
-22.63974872889667
 30
0.0
 11
160.01697244547648
 21
-22.6393181223714
 31
0.0
  0
LINE
  5
287
330
17
100
AcDbEntity
  8
BOUNDARY
100
AcDbLine
 10
160.01697244547648
 20
-22.6393181223714
 30
0.0
 11
160.01671072184948
 21
-22.638886150063172
 31
0.0
  0
LINE
  5
288
330
17
100
AcDbEntity
  8
BOUNDARY
100
AcDbLine
 10
160.01671072184948
 20
-22.638886150063172
 30
0.0
 11
160.0164508477916
 21
-22.63845282155075
 31
0.0
  0
LINE
  5
289
330
17
100
AcDbEntity
  8
BOUNDARY
100
AcDbLine
 10
160.0164508477916
 20
-22.63845282155075
 30
0.0
 11
160.01619282907365
 21
-22.63801814644307
 31
0.0
  0
LINE
  5
28A
330
17
100
AcDbEntity
  8
BOUNDARY
100
AcDbLine
 10
160.01619282907365
 20
-22.63801814644307
 30
0.0
 11
160.01593667142544
 21
-22.63758213437902
 31
0.0
  0
LINE
  5
28B
330
17
100
AcDbEntity
  8
BOUNDARY
100
AcDbLine
 10
160.01593667142544
 20
-22.63758213437902
 30
0.0
 11
160.0156823805353
 21
-22.637144795027233
 31
0.0
  0
LINE
  5
28C
330
17
100
AcDbEntity
  8
BOUNDARY
100
AcDbLine
 10
160.0156823805353
 20
-22.637144795027233
 30
0.0
 11
160.01542996205018
 21
-22.636706138085874
 31
0.0
  0
LINE
  5
28D
330
17
100
AcDbEntity
  8
BOUNDARY
100
AcDbLine
 10
160.01542996205018
 20
-22.636706138085874
 30
0.0
 11
160.01517942157543
 21
-22.636266173282415
 31
0.0
  0
LINE
  5
28E
330
17
100
AcDbEntity
  8
BOUNDARY
100
AcDbLine
 10
160.01517942157543
 20
-22.636266173282415
 30
0.0
 11
160.01493076467466
 21
-22.635824910373458
 31
0.0
  0
LINE
  5
28F
330
17
100
AcDbEntity
  8
BOUNDARY
100
AcDbLine
 10
160.01493076467466
 20
-22.635824910373458
 30
0.0
 11
160.01468399686973
 21
-22.635382359144458
 31
0.0
  0
LINE
  5
290
330
17
100
AcDbEntity
  8
BOUNDARY
100
AcDbLine
 10
160.01468399686973
 20
-22.635382359144458
 30
0.0
 11
160.01443912364047
 21
-22.634938529409563
 31
0.0
  0
LINE
  5
291
330
17
100
AcDbEntity
  8
BOUNDARY
100
AcDbLine
 10
160.01443912364047
 20
-22.634938529409563
 30
0.0
 11
160.0141961504247
 21
-22.634493431011368
 31
0.0
  0
LINE
  5
292
330
17
100
AcDbEntity
  8
BOUNDARY
100
AcDbLine
 10
160.0141961504247
 20
-22.634493431011368
 30
0.0
 11
160.01395508261803
 21
-22.6340470738207
 31
0.0
  0
LINE
  5
293
330
17
100
AcDbEntity
  8
BOUNDARY
100
AcDbLine
 10
160.01395508261803
 20
-22.6340470738207
 30
0.0
 11
160.01371592557373
 21
-22.63359946773641
 31
0.0
  0
LINE
  5
294
330
17
100
AcDbEntity
  8
BOUNDARY
100
AcDbLine
 10
160.01371592557373
 20
-22.63359946773641
 30
0.0
 11
160.01347868460266
 21
-22.633150622685143
 31
0.0
  0
LINE
  5
295
330
17
100
AcDbEntity
  8
BOUNDARY
100
AcDbLine
 10
160.01347868460266
 20
-22.633150622685143
 30
0.0
 11
160.0132433649731
 21
-22.632700548621138
 31
0.0
  0
LINE
  5
296
330
17
100
AcDbEntity
  8
BOUNDARY
100
AcDbLine
 10
160.0132433649731
 20
-22.632700548621138
 30
0.0
 11
160.01300997191075
 21
-22.632249255525984
 31
0.0
  0
LINE
  5
297
330
17
100
AcDbEntity
  8
BOUNDARY
100
AcDbLine
 10
160.01300997191075
 20
-22.632249255525984
 30
0.0
 11
160.01277851059842
 21
-22.6317967534084
 31
0.0
  0
LINE
  5
298
330
17
100
AcDbEntity
  8
BOUNDARY
100
AcDbLine
 10
160.01277851059842
 20
-22.6317967534084
 30
0.0
 11
160.01254898617609
 21
-22.631343052304043
 31
0.0
  0
LINE
  5
299
330
17
100
AcDbEntity
  8
BOUNDARY
100
AcDbLine
 10
160.01254898617609
 20
-22.631343052304043
 30
0.0
 11
160.0123214037407
 21
-22.63088816227526
 31
0.0
  0
LINE
  5
29A
330
17
100
AcDbEntity
  8
BOUNDARY
100
AcDbLine
 10
160.0123214037407
 20
-22.63088816227526
 30
0.0
 11
160.01209576834611
 21
-22.630432093410867
 31
0.0
  0
LINE
  5
29B
330
17
100
AcDbEntity
  8
BOUNDARY
100
AcDbLine
 10
160.01209576834611
 20
-22.630432093410867
 30
0.0
 11
160.0118720850029
 21
-22.62997485582595
 31
0.0
  0
LINE
  5
29C
330
17
100
AcDbEntity
  8
BOUNDARY
100
AcDbLine
 10
160.0118720850029
 20
-22.62997485582595
 30
0.0
 11
160.01165035867825
 21
-22.629516459661595
 31
0.0
  0
LINE
  5
29D
330
17
100
AcDbEntity
  8
BOUNDARY
100
AcDbLine
 10
160.01165035867825
 20
-22.629516459661595
 30
0.0
 11
160.011430594296
 21
-22.629056915084714
 31
0.0
  0
LINE
  5
29E
330
17
100
AcDbEntity
  8
BOUNDARY
100
AcDbLine
 10
160.011430594296
 20
-22.629056915084714
 30
0.0
 11
160.01121279673634
 21
-22.628596232287794
 31
0.0
  0
LINE
  5
29F
330
17
100
AcDbEntity
  8
BOUNDARY
100
AcDbLine
 10
160.01121279673634
 20
-22.628596232287794
 30
0.0
 11
160.01099697083583
 21
-22.628134421488674
 31
0.0
  0
LINE
  5
2A0
330
17
100
AcDbEntity
  8
BOUNDARY
100
AcDbLine
 10
160.01099697083583
 20
-22.628134421488674
 30
0.0
 11
160.0107831213872
 21
-22.62767149293032
 31
0.0
  0
LINE
  5
2A1
330
17
100
AcDbEntity
  8
BOUNDARY
100
AcDbLine
 10
160.0107831213872
 20
-22.62767149293032
 30
0.0
 11
160.0105712531393
 21
-22.627207456880612
 31
0.0
  0
LINE
  5
2A2
330
17
100
AcDbEntity
  8
BOUNDARY
100
AcDbLine
 10
160.0105712531393
 20
-22.627207456880612
 30
0.0
 11
160.01036137079703
 21
-22.62674232363209
 31
0.0
  0
LINE
  5
2A3
330
17
100
AcDbEntity
  8
BOUNDARY
100
AcDbLine
 10
160.01036137079703
 20
-22.62674232363209
 30
0.0
 11
160.01015347902114
 21
-22.626276103501752
 31
0.0
  0
LINE
  5
2A4
330
17
100
AcDbEntity
  8
BOUNDARY
100
AcDbLine
 10
160.01015347902114
 20
-22.626276103501752
 30
0.0
 11
160.00994758242817
 21
-22.62580880683081
 31
0.0
  0
LINE
  5
2A5
330
17
100
AcDbEntity
  8
BOUNDARY
100
AcDbLine
 10
160.00994758242817
 20
-22.62580880683081
 30
0.0
 11
160.00974368559042
 21
-22.625340443984474
 31
0.0
  0
LINE
  5
2A6
330
17
100
AcDbEntity
  8
BOUNDARY
100
AcDbLine
 10
160.00974368559042
 20
-22.625340443984474
 30
0.0
 11
160.00954179303574
 21
-22.62487102535171
 31
0.0
  0
LINE
  5
2A7
330
17
100
AcDbEntity
  8
BOUNDARY
100
AcDbLine
 10
160.00954179303574
 20
-22.62487102535171
 30
0.0
 11
160.00934190924744
 21
-22.624400561345016
 31
0.0
  0
LINE
  5
2A8
330
17
100
AcDbEntity
  8
BOUNDARY
100
AcDbLine
 10
160.00934190924744
 20
-22.624400561345016
 30
0.0
 11
160.00914403866423
 21
-22.6239290624002
 31
0.0
  0
LINE
  5
2A9
330
17
100
AcDbEntity
  8
BOUNDARY
100
AcDbLine
 10
160.00914403866423
 20
-22.6239290624002
 30
0.0
 11
160.00894818568023
 21
-22.623456538976136
 31
0.0
  0
LINE
  5
2AA
330
17
100
AcDbEntity
  8
BOUNDARY
100
AcDbLine
 10
160.00894818568023
 20
-22.623456538976136
 30
0.0
 11
160.00875435464457
 21
-22.622983001554534
 31
0.0
  0
LINE
  5
2AB
330
17
100
AcDbEntity
  8
BOUNDARY
100
AcDbLine
 10
160.00875435464457
 20
-22.622983001554534
 30
0.0
 11
160.0085625498616
 21
-22.62250846063972
 31
0.0
  0
LINE
  5
2AC
330
17
100
AcDbEntity
  8
BOUNDARY
100
AcDbLine
 10
160.0085625498616
 20
-22.62250846063972
 30
0.0
 11
160.00837277559066
 21
-22.622032926758404
 31
0.0
  0
LINE
  5
2AD
330
17
100
AcDbEntity
  8
BOUNDARY
100
AcDbLine
 10
160.00837277559066
 20
-22.622032926758404
 30
0.0
 11
160.00818503604597
 21
-22.621556410459416
 31
0.0
  0
LINE
  5
2AE
330
17
100
AcDbEntity
  8
BOUNDARY
100
AcDbLine
 10
160.00818503604597
 20
-22.621556410459416
 30
0.0
 11
160.00799933539662
 21
-22.62107892231352
 31
0.0
  0
LINE
  5
2AF
330
17
100
AcDbEntity
  8
BOUNDARY
100
AcDbLine
 10
160.00799933539662
 20
-22.62107892231352
 30
0.0
 11
160.00781567776633
 21
-22.62060047291314
 31
0.0
  0
LINE
  5
2B0
330
17
100
AcDbEntity
  8
BOUNDARY
100
AcDbLine
 10
160.00781567776633
 20
-22.62060047291314
 30
0.0
 11
160.0076340672335
 21
-22.620121072872156
 31
0.0
  0
LINE
  5
2B1
330
17
100
AcDbEntity
  8
BOUNDARY
100
AcDbLine
 10
160.0076340672335
 20
-22.620121072872156
 30
0.0
 11
160.00745450783114
 21
-22.619640732825648
 31
0.0
  0
LINE
  5
2B2
330
17
100
AcDbEntity
  8
BOUNDARY
100
AcDbLine
 10
160.00745450783114
 20
-22.619640732825648
 30
0.0
 11
160.00727700354662
 21
-22.619159463429664
 31
0.0
  0
LINE
  5
2B3
330
17
100
AcDbEntity
  8
BOUNDARY
100
AcDbLine
 10
160.00727700354662
 20
-22.619159463429664
 30
0.0
 11
160.0071015583217
 21
-22.618677275361005
 31
0.0
  0
LINE
  5
2B4
330
17
100
AcDbEntity
  8
BOUNDARY
100
AcDbLine
 10
160.0071015583217
 20
-22.618677275361005
 30
0.0
 11
160.00692817605238
 21
-22.618194179316948
 31
0.0
  0
LINE
  5
2B5
330
17
100
AcDbEntity
  8
BOUNDARY
100
AcDbLine
 10
160.00692817605238
 20
-22.618194179316948
 30
0.0
 11
160.00675686058895
 21
-22.617710186015064
 31
0.0
  0
LINE
  5
2B6
330
17
100
AcDbEntity
  8
BOUNDARY
100
AcDbLine
 10
160.00675686058895
 20
-22.617710186015064
 30
0.0
 11
160.0065876157357
 21
-22.61722530619292
 31
0.0
  0
LINE
  5
2B7
330
17
100
AcDbEntity
  8
BOUNDARY
100
AcDbLine
 10
160.0065876157357
 20
-22.61722530619292
 30
0.0
 11
160.00642044525097
 21
-22.6167395506079
 31
0.0
  0
LINE
  5
2B8
330
17
100
AcDbEntity
  8
BOUNDARY
100
AcDbLine
 10
160.00642044525097
 20
-22.6167395506079
 30
0.0
 11
160.00625535284703
 21
-22.616252930036914
 31
0.0
  0
LINE
  5
2B9
330
17
100
AcDbEntity
  8
BOUNDARY
100
AcDbLine
 10
160.00625535284703
 20
-22.616252930036914
 30
0.0
 11
160.0060923421901
 21
-22.615765455276215
 31
0.0
  0
LINE
  5
2BA
330
17
100
AcDbEntity
  8
BOUNDARY
100
AcDbLine
 10
160.0060923421901
 20
-22.615765455276215
 30
0.0
 11
160.00593141689998
 21
-22.6152771371411
 31
0.0
  0
LINE
  5
2BB
330
17
100
AcDbEntity
  8
BOUNDARY
100
AcDbLine
 10
160.00593141689998
 20
-22.6152771371411
 30
0.0
 11
160.00577258055034
 21
-22.614787986465714
 31
0.0
  0
LINE
  5
2BC
330
17
100
AcDbEntity
  8
BOUNDARY
100
AcDbLine
 10
160.00577258055034
 20
-22.614787986465714
 30
0.0
 11
160.00561583666837
 21
-22.614298014102804
 31
0.0
  0
LINE
  5
2BD
330
17
100
AcDbEntity
  8
BOUNDARY
100
AcDbLine
 10
160.00561583666837
 20
-22.614298014102804
 30
0.0
 11
160.0054611887348
 21
-22.613807230923456
 31
0.0
  0
LINE
  5
2BE
330
17
100
AcDbEntity
  8
BOUNDARY
100
AcDbLine
 10
160.0054611887348
 20
-22.613807230923456
 30
0.0
 11
160.00530864018387
 21
-22.61331564781689
 31
0.0
  0
LINE
  5
2BF
330
17
100
AcDbEntity
  8
BOUNDARY
100
AcDbLine
 10
160.00530864018387
 20
-22.61331564781689
 30
0.0
 11
160.00515819440312
 21
-22.612823275690186
 31
0.0
  0
LINE
  5
2C0
330
17
100
AcDbEntity
  8
BOUNDARY
100
AcDbLine
 10
160.00515819440312
 20
-22.612823275690186
 30
0.0
 11
160.00500985473343
 21
-22.612330125468056
 31
0.0
  0
LINE
  5
2C1
330
17
100
AcDbEntity
  8
BOUNDARY
100
AcDbLine
 10
160.00500985473343
 20
-22.612330125468056
 30
0.0
 11
160.00486362446895
 21
-22.611836208092605
 31
0.0
  0
LINE
  5
2C2
330
17
100
AcDbEntity
  8
BOUNDARY
100
AcDbLine
 10
160.00486362446895
 20
-22.611836208092605
 30
0.0
 11
160.00471950685693
 21
-22.611341534523095
 31
0.0
  0
LINE
  5
2C3
330
17
100
AcDbEntity
  8
BOUNDARY
100
AcDbLine
 10
160.00471950685693
 20
-22.611341534523095
 30
0.0
 11
160.00457750509773
 21
-22.610846115735676
 31
0.0
  0
LINE
  5
2C4
330
17
100
AcDbEntity
  8
BOUNDARY
100
AcDbLine
 10
160.00457750509773
 20
-22.610846115735676
 30
0.0
 11
160.0044376223447
 21
-22.610349962723173
 31
0.0
  0
LINE
  5
2C5
330
17
100
AcDbEntity
  8
BOUNDARY
100
AcDbLine
 10
160.0044376223447
 20
-22.610349962723173
 30
0.0
 11
160.00429986170423
 21
-22.609853086494834
 31
0.0
  0
LINE
  5
2C6
330
17
100
AcDbEntity
  8
BOUNDARY
100
AcDbLine
 10
160.00429986170423
 20
-22.609853086494834
 30
0.0
 11
160.00416422623542
 21
-22.60935549807606
 31
0.0
  0
LINE
  5
2C7
330
17
100
AcDbEntity
  8
BOUNDARY
100
AcDbLine
 10
160.00416422623542
 20
-22.60935549807606
 30
0.0
 11
160.00403071895033
 21
-22.608857208508216
 31
0.0
  0
LINE
  5
2C8
330
17
100
AcDbEntity
  8
BOUNDARY
100
AcDbLine
 10
160.00403071895033
 20
-22.608857208508216
 30
0.0
 11
160.00389934281367
 21
-22.608358228848328
 31
0.0
  0
LINE
  5
2C9
330
17
100
AcDbEntity
  8
BOUNDARY
100
AcDbLine
 10
160.00389934281367
 20
-22.608358228848328
 30
0.0
 11
160.00377010074288
 21
-22.60785857016888
 31
0.0
  0
LINE
  5
2CA
330
17
100
AcDbEntity
  8
BOUNDARY
100
AcDbLine
 10
160.00377010074288
 20
-22.60785857016888
 30
0.0
 11
160.00364299560795
 21
-22.607358243557545
 31
0.0
  0
LINE
  5
2CB
330
17
100
AcDbEntity
  8
BOUNDARY
100
AcDbLine
 10
160.00364299560795
 20
-22.607358243557545
 30
0.0
 11
160.00351803023145
 21
-22.606857260116946
 31
0.0
  0
LINE
  5
2CC
330
17
100
AcDbEntity
  8
BOUNDARY
100
AcDbLine
 10
160.00351803023145
 20
-22.606857260116946
 30
0.0
 11
160.00339520738848
 21
-22.60635563096442
 31
0.0
  0
LINE
  5
2CD
330
17
100
AcDbEntity
  8
BOUNDARY
100
AcDbLine
 10
160.00339520738848
 20
-22.60635563096442
 30
0.0
 11
160.00327452980645
 21
-22.60585336723176
 31
0.0
  0
LINE
  5
2CE
330
17
100
AcDbEntity
  8
BOUNDARY
100
AcDbLine
 10
160.00327452980645
 20
-22.60585336723176
 30
0.0
 11
160.00315600016523
 21
-22.60535048006497
 31
0.0
  0
LINE
  5
2CF
330
17
100
AcDbEntity
  8
BOUNDARY
100
AcDbLine
 10
160.00315600016523
 20
-22.60535048006497
 30
0.0
 11
160.00303962109695
 21
-22.60484698062402
 31
0.0
  0
LINE
  5
2D0
330
17
100
AcDbEntity
  8
BOUNDARY
100
AcDbLine
 10
160.00303962109695
 20
-22.60484698062402
 30
0.0
 11
160.002925395186
 21
-22.60434288008261
 31
0.0
  0
LINE
  5
2D1
330
17
100
AcDbEntity
  8
BOUNDARY
100
AcDbLine
 10
160.002925395186
 20
-22.60434288008261
 30
0.0
 11
160.00281332496894
 21
-22.603838189627893
 31
0.0
  0
LINE
  5
2D2
330
17
100
AcDbEntity
  8
BOUNDARY
100
AcDbLine
 10
160.00281332496894
 20
-22.603838189627893
 30
0.0
 11
160.00270341293447
 21
-22.603332920460254
 31
0.0
  0
LINE
  5
2D3
330
17
100
AcDbEntity
  8
BOUNDARY
100
AcDbLine
 10
160.00270341293447
 20
-22.603332920460254
 30
0.0
 11
160.00259566152332
 21
-22.602827083793066
 31
0.0
  0
LINE
  5
2D4
330
17
100
AcDbEntity
  8
BOUNDARY
100
AcDbLine
 10
160.00259566152332
 20
-22.602827083793066
 30
0.0
 11
160.00249007312834
 21
-22.602320690852412
 31
0.0
  0
LINE
  5
2D5
330
17
100
AcDbEntity
  8
BOUNDARY
100
AcDbLine
 10
160.00249007312834
 20
-22.602320690852412
 30
0.0
 11
160.00238665009425
 21
-22.60181375287686
 31
0.0
  0
LINE
  5
2D6
330
17
100
AcDbEntity
  8
BOUNDARY
100
AcDbLine
 10
160.00238665009425
 20
-22.60181375287686
 30
0.0
 11
160.00228539471772
 21
-22.60130628111722
 31
0.0
  0
LINE
  5
2D7
330
17
100
AcDbEntity
  8
BOUNDARY
100
AcDbLine
 10
160.00228539471772
 20
-22.60130628111722
 30
0.0
 11
160.0021863092473
 21
-22.600798286836252
 31
0.0
  0
LINE
  5
2D8
330
17
100
AcDbEntity
  8
BOUNDARY
100
AcDbLine
 10
160.0021863092473
 20
-22.600798286836252
 30
0.0
 11
160.0020893958833
 21
-22.600289781308486
 31
0.0
  0
LINE
  5
2D9
330
17
100
AcDbEntity
  8
BOUNDARY
100
AcDbLine
 10
160.0020893958833
 20
-22.600289781308486
 30
0.0
 11
160.0019946567779
 21
-22.599780775819898
 31
0.0
  0
LINE
  5
2DA
330
17
100
AcDbEntity
  8
BOUNDARY
100
AcDbLine
 10
160.0019946567779
 20
-22.599780775819898
 30
0.0
 11
160.00190209403488
 21
-22.599271281667722
 31
0.0
  0
LINE
  5
2DB
330
17
100
AcDbEntity
  8
BOUNDARY
100
AcDbLine
 10
160.00190209403488
 20
-22.599271281667722
 30
0.0
 11
160.00181170970976
 21
-22.59876131016016
 31
0.0
  0
LINE
  5
2DC
330
17
100
AcDbEntity
  8
BOUNDARY
100
AcDbLine
 10
160.00181170970976
 20
-22.59876131016016
 30
0.0
 11
160.00172350580968
 21
-22.598250872616134
 31
0.0
  0
LINE
  5
2DD
330
17
100
AcDbEntity
  8
BOUNDARY
100
AcDbLine
 10
160.00172350580968
 20
-22.598250872616134
 30
0.0
 11
160.0016374842933
 21
-22.597739980365073
 31
0.0
  0
LINE
  5
2DE
330
17
100
AcDbEntity
  8
BOUNDARY
100
AcDbLine
 10
160.0016374842933
 20
-22.597739980365073
 30
0.0
 11
160.0015536470709
 21
-22.597228644746608
 31
0.0
  0
LINE
  5
2DF
330
17
100
AcDbEntity
  8
BOUNDARY
100
AcDbLine
 10
160.0015536470709
 20
-22.597228644746608
 30
0.0
 11
160.0014719960042
 21
-22.596716877110367
 31
0.0
  0
LINE
  5
2E0
330
17
100
AcDbEntity
  8
BOUNDARY
100
AcDbLine
 10
160.0014719960042
 20
-22.596716877110367
 30
0.0
 11
160.0013925329064
 21
-22.59620468881569
 31
0.0
  0
LINE
  5
2E1
330
17
100
AcDbEntity
  8
BOUNDARY
100
AcDbLine
 10
160.0013925329064
 20
-22.59620468881569
 30
0.0
 11
160.0013152595421
 21
-22.595692091231395
 31
0.0
  0
LINE
  5
2E2
330
17
100
AcDbEntity
  8
BOUNDARY
100
AcDbLine
 10
160.0013152595421
 20
-22.595692091231395
 30
0.0
 11
160.00124017762727
 21
-22.595179095735517
 31
0.0
  0
LINE
  5
2E3
330
17
100
AcDbEntity
  8
BOUNDARY
100
AcDbLine
 10
160.00124017762727
 20
-22.595179095735517
 30
0.0
 11
160.00116728882924
 21
-22.59466571371508
 31
0.0
  0
LINE
  5
2E4
330
17
100
AcDbEntity
  8
BOUNDARY
100
AcDbLine
 10
160.00116728882924
 20
-22.59466571371508
 30
0.0
 11
160.0010965947666
 21
-22.5941519565658
 31
0.0
  0
LINE
  5
2E5
330
17
100
AcDbEntity
  8
BOUNDARY
100
AcDbLine
 10
160.0010965947666
 20
-22.5941519565658
 30
0.0
 11
160.00102809700925
 21
-22.593637835691865
 31
0.0
  0
LINE
  5
2E6
330
17
100
AcDbEntity
  8
BOUNDARY
100
AcDbLine
 10
160.00102809700925
 20
-22.593637835691865
 30
0.0
 11
160.00096179707825
 21
-22.59312336250569
 31
0.0
  0
LINE
  5
2E7
330
17
100
AcDbEntity
  8
BOUNDARY
100
AcDbLine
 10
160.00096179707825
 20
-22.59312336250569
 30
0.0
 11
160.00089769644592
 21
-22.592608548427627
 31
0.0
  0
LINE
  5
2E8
330
17
100
AcDbEntity
  8
BOUNDARY
100
AcDbLine
 10
160.00089769644592
 20
-22.592608548427627
 30
0.0
 11
160.0008357965357
 21
-22.59209340488575
 31
0.0
  0
LINE
  5
2E9
330
17
100
AcDbEntity
  8
BOUNDARY
100
AcDbLine
 10
160.0008357965357
 20
-22.59209340488575
 30
0.0
 11
160.0007760987222
 21
-22.591577943315567
 31
0.0
  0
LINE
  5
2EA
330
17
100
AcDbEntity
  8
BOUNDARY
100
AcDbLine
 10
160.0007760987222
 20
-22.591577943315567
 30
0.0
 11
160.0007186043311
 21
-22.591062175159806
 31
0.0
  0
LINE
  5
2EB
330
17
100
AcDbEntity
  8
BOUNDARY
100
AcDbLine
 10
160.0007186043311
 20
-22.591062175159806
 30
0.0
 11
160.00066331463913
 21
-22.590546111868136
 31
0.0
  0
LINE
  5
2EC
330
17
100
AcDbEntity
  8
BOUNDARY
100
AcDbLine
 10
160.00066331463913
 20
-22.590546111868136
 30
0.0
 11
160.0006102308741
 21
-22.590029764896894
 31
0.0
  0
LINE
  5
2ED
330
17
100
AcDbEntity
  8
BOUNDARY
100
AcDbLine
 10
160.0006102308741
 20
-22.590029764896894
 30
0.0
 11
160.0005593542148
 21
-22.58951314570888
 31
0.0
  0
LINE
  5
2EE
330
17
100
AcDbEntity
  8
BOUNDARY
100
AcDbLine
 10
160.0005593542148
 20
-22.58951314570888
 30
0.0
 11
160.00051068579106
 21
-22.58899626577306
 31
0.0
  0
LINE
  5
2EF
330
17
100
AcDbEntity
  8
BOUNDARY
100
AcDbLine
 10
160.00051068579106
 20
-22.58899626577306
 30
0.0
 11
160.0004642266836
 21
-22.58847913656435
 31
0.0
  0
LINE
  5
2F0
330
17
100
AcDbEntity
  8
BOUNDARY
100
AcDbLine
 10
160.0004642266836
 20
-22.58847913656435
 30
0.0
 11
160.00041997792414
 21
-22.58796176956331
 31
0.0
  0
LINE
  5
2F1
330
17
100
AcDbEntity
  8
BOUNDARY
100
AcDbLine
 10
160.00041997792414
 20
-22.58796176956331
 30
0.0
 11
160.0003779404953
 21
-22.587444176255932
 31
0.0
  0
LINE
  5
2F2
330
17
100
AcDbEntity
  8
BOUNDARY
100
AcDbLine
 10
160.0003779404953
 20
-22.587444176255932
 30
0.0
 11
160.00033811533058
 21
-22.58692636813339
 31
0.0
  0
LINE
  5
2F3
330
17
100
AcDbEntity
  8
BOUNDARY
100
AcDbLine
 10
160.00033811533058
 20
-22.58692636813339
 30
0.0
 11
160.00030050331435
 21
-22.586408356691734
 31
0.0
  0
LINE
  5
2F4
330
17
100
AcDbEntity
  8
BOUNDARY
100
AcDbLine
 10
160.00030050331435
 20
-22.586408356691734
 30
0.0
 11
160.00026510528187
 21
-22.585890153431695
 31
0.0
  0
LINE
  5
2F5
330
17
100
AcDbEntity
  8
BOUNDARY
100
AcDbLine
 10
160.00026510528187
 20
-22.585890153431695
 30
0.0
 11
160.00023192201917
 21
-22.585371769858398
 31
0.0
  0
LINE
  5
2F6
330
17
100
AcDbEntity
  8
BOUNDARY
100
AcDbLine
 10
160.00023192201917
 20
-22.585371769858398
 30
0.0
 11
160.00020095426316
 21
-22.584853217481097
 31
0.0
  0
LINE
  5
2F7
330
17
100
AcDbEntity
  8
BOUNDARY
100
AcDbLine
 10
160.00020095426316
 20
-22.584853217481097
 30
0.0
 11
160.00017220270152
 21
-22.584334507812947
 31
0.0
  0
LINE
  5
2F8
330
17
100
AcDbEntity
  8
BOUNDARY
100
AcDbLine
 10
160.00017220270152
 20
-22.584334507812947
 30
0.0
 11
160.00014566797273
 21
-22.583815652370745
 31
0.0
  0
LINE
  5
2F9
330
17
100
AcDbEntity
  8
BOUNDARY
100
AcDbLine
 10
160.00014566797273
 20
-22.583815652370745
 30
0.0
 11
160.00012135066603
 21
-22.583296662674645
 31
0.0
  0
LINE
  5
2FA
330
17
100
AcDbEntity
  8
BOUNDARY
100
AcDbLine
 10
160.00012135066603
 20
-22.583296662674645
 30
0.0
 11
160.00009925132144
 21
-22.58277755024793
 31
0.0
  0
LINE
  5
2FB
330
17
100
AcDbEntity
  8
BOUNDARY
100
AcDbLine
 10
160.00009925132144
 20
-22.58277755024793
 30
0.0
 11
160.00007937042972
 21
-22.58225832661676
 31
0.0
  0
LINE
  5
2FC
330
17
100
AcDbEntity
  8
BOUNDARY
100
AcDbLine
 10
160.00007937042972
 20
-22.58225832661676
 30
0.0
 11
160.0000617084323
 21
-22.58173900330989
 31
0.0
  0
LINE
  5
2FD
330
17
100
AcDbEntity
  8
BOUNDARY
100
AcDbLine
 10
160.0000617084323
 20
-22.58173900330989
 30
0.0
 11
160.00004626572144
 21
-22.581219591858453
 31
0.0
  0
LINE
  5
2FE
330
17
100
AcDbEntity
  8
BOUNDARY
100
AcDbLine
 10
160.00004626572144
 20
-22.581219591858453
 30
0.0
 11
160.00003304264007
 21
-22.580700103795635
 31
0.0
  0
LINE
  5
2FF
330
17
100
AcDbEntity
  8
BOUNDARY
100
AcDbLine
 10
160.00003304264007
 20
-22.580700103795635
 30
0.0
 11
160.0000220394818
 21
-22.58018055065652
 31
0.0
  0
LINE
  5
300
330
17
100
AcDbEntity
  8
BOUNDARY
100
AcDbLine
 10
160.0000220394818
 20
-22.58018055065652
 30
0.0
 11
160.00001325649097
 21
-22.57966094397774
 31
0.0
  0
LINE
  5
301
330
17
100
AcDbEntity
  8
BOUNDARY
100
AcDbLine
 10
160.00001325649097
 20
-22.57966094397774
 30
0.0
 11
160.00000669386267
 21
-22.57914129529727
 31
0.0
  0
LINE
  5
302
330
17
100
AcDbEntity
  8
BOUNDARY
100
AcDbLine
 10
160.00000669386267
 20
-22.57914129529727
 30
0.0
 11
160.0000023517426
 21
-22.57862161615416
 31
0.0
  0
LINE
  5
303
330
17
100
AcDbEntity
  8
BOUNDARY
100
AcDbLine
 10
160.0000023517426
 20
-22.57862161615416
 30
0.0
 11
160.0000002302272
 21
-22.57810191808828
 31
0.0
  0
LINE
  5
304
330
17
100
AcDbEntity
  8
BOUNDARY
100
AcDbLine
 10
160.0000002302272
 20
-22.57810191808828
 30
0.0
 11
160.0
 21
-22.577865266672124
 31
0.0
  0
LINE
  5
305
330
17
100
AcDbEntity
  8
BOUNDARY
100
AcDbLine
 10
160.0
 20
-16.431676725154983
 30
0.0
 11
160.0
 21
-22.577865266672138
 31
0.0
  0
LINE
  5
306
330
17
100
AcDbEntity
  8
BOUNDARY
100
AcDbLine
 10
160.0
 20
22.577865266672134
 30
0.0
 11
160.0
 21
16.431676725154986
 31
0.0
  0
LINE
  5
307
330
17
100
AcDbEntity
  8
BOUNDARY
100
AcDbLine
 10
160.0
 20
16.431676725154983
 30
0.0
 11
160.3
 21
16.431676725154983
 31
0.0
  0
LINE
  5
308
330
17
100
AcDbEntity
  8
BOUNDARY
100
AcDbLine
 10
160.0
 20
-16.431676725154983
 30
0.0
 11
160.3
 21
-16.431676725154983
 31
0.0
  0
LINE
  5
309
330
17
100
AcDbEntity
  8
BOUNDARY
100
AcDbLine
 10
168.0
 20
36.520542164650294
 30
0.0
 11
168.0
 21
31.0
 31
0.0
  0
LINE
  5
30A
330
17
100
AcDbEntity
  8
BOUNDARY
100
AcDbLine
 10
160.0
 20
36.520542164650294
 30
0.0
 11
168.0
 21
36.520542164650294
 31
0.0
  0
LINE
  5
30B
330
17
100
AcDbEntity
  8
BOUNDARY
100
AcDbLine
 10
168.0
 20
31.0
 30
0.0
 11
187.6460240549934
 21
31.0
 31
0.0
  0
LINE
  5
30C
330
17
100
AcDbEntity
  8
BOUNDARY
100
AcDbLine
 10
168.0
 20
10.0
 30
0.0
 11
168.0
 21
-36.5205421646503
 31
0.0
  0
LINE
  5
30D
330
17
100
AcDbEntity
  8
BOUNDARY
100
AcDbLine
 10
177.4400479233531
 20
25.104076677364745
 30
0.0
 11
168.0000000000017
 21
9.99999999999894
 31
0.0
  0
LINE
  5
30E
330
17
100
AcDbEntity
  8
BOUNDARY
100
AcDbLine
 10
160.0
 20
-36.520542164650294
 30
0.0
 11
168.0
 21
-36.520542164650294
 31
0.0
  0
LINE
  5
30F
330
17
100
AcDbEntity
  8
BOUNDARY
100
AcDbLine
 10
160.3
 20
16.431676725154986
 30
0.0
 11
160.3
 21
-16.431676725154983
 31
0.0
  0
LINE
  5
310
330
17
100
AcDbEntity
  8
BOUNDARY
100
AcDbLine
 10
187.6460240549934
 20
25.0
 30
0.0
 11
187.6460240549934
 21
31.0
 31
0.0
  0
LINE
  5
311
330
17
100
AcDbEntity
  8
BOUNDARY
100
AcDbLine
 10
242.3539759450066
 20
31.0
 30
0.0
 11
252.55995207664674
 21
31.0
 31
0.0
  0
LINE
  5
312
330
17
100
AcDbEntity
  8
BOUNDARY
100
AcDbLine
 10
242.3539759450066
 20
25.0
 30
0.0
 11
242.3539759450066
 21
31.0
 31
0.0
  0
LINE
  5
313
330
17
100
AcDbEntity
  8
BOUNDARY
100
AcDbLine
 10
252.55995207664674
 20
25.0
 30
0.0
 11
252.55995207664674
 21
31.0
 31
0.0
  0
LINE
  5
314
330
17
100
AcDbEntity
  8
BOUNDARY
100
AcDbLine
 10
177.44004792335326
 20
25.0
 30
0.0
 11
187.6460240549934
 21
25.0
 31
0.0
  0
LINE
  5
315
330
17
100
AcDbEntity
  8
BOUNDARY
100
AcDbLine
 10
177.44004792335326
 20
25.0
 30
0.0
 11
177.44004792335326
 21
25.104076677360823
 31
0.0
  0
LINE
  5
316
330
17
100
AcDbEntity
  8
BOUNDARY
100
AcDbLine
 10
242.3539759450066
 20
25.0
 30
0.0
 11
252.55995207664674
 21
25.0
 31
0.0
  0
LINE
  5
317
330
17
100
AcDbEntity
  8
BOUNDARY
100
AcDbLine
 10
160.0
 20
36.520542164650294
 30
0.0
 11
160.0
 21
25.956694704834824
 31
0.0
  0
LINE
  5
318
330
17
100
AcDbEntity
  8
BOUNDARY
100
AcDbLine
 10
160.0
 20
-25.956694704834824
 30
0.0
 11
160.0
 21
-36.5205421646503
 31
0.0
  0
LINE
  5
319
330
17
100
AcDbEntity
  8
BOUNDARY
100
AcDbLine
 10
153.5
 20
25.95669470483482
 30
0.0
 11
160.0
 21
25.95669470483482
 31
0.0
  0
LINE
  5
31A
330
17
100
AcDbEntity
  8
BOUNDARY
100
AcDbLine
 10
153.5
 20
-25.95669470483482
 30
0.0
 11
160.0
 21
-25.95669470483482
 31
0.0
  0
LINE
  5
31B
330
17
100
AcDbEntity
  8
BOUNDARY
100
AcDbLine
 10
153.5
 20
25.956694704834824
 30
0.0
 11
153.5
 21
23.018253626198497
 31
0.0
  0
LINE
  5
31C
330
17
100
AcDbEntity
  8
BOUNDARY
100
AcDbLine
 10
153.5
 20
-23.018253626198494
 30
0.0
 11
153.5
 21
-25.956694704834824
 31
0.0
  0
TEXT
  5
31D
330
17
100
AcDbEntity
  8
NOTE
100
AcDbText
 10
120.0
 20
105.0
 30
0.0
 40
2.5
  1
SIDE X10.5
100
AcDbText
  0
LINE
  5
31E
330
17
100
AcDbEntity
  8
BOUNDARY
100
AcDbLine
 10
294.30953484266973
 20
8.0
 30
0.0
 11
306.0
 21
8.0
 31
0.0
  0
LINE
  5
31F
330
17
100
AcDbEntity
  8
BOUNDARY
100
AcDbLine
 10
294.30953484266973
 20
0.0
 30
0.0
 11
294.30953484266973
 21
8.0
 31
0.0
  0
LINE
  5
320
330
17
100
AcDbEntity
  8
BOUNDARY
100
AcDbLine
 10
306.0
 20
18.599450553598
 30
0.0
 11
306.0
 21
8.0
 31
0.0
  0
LINE
  5
321
330
17
100
AcDbEntity
  8
BOUNDARY
100
AcDbLine
 10
334.0
 20
8.0
 30
0.0
 11
345.69046515733027
 21
8.0
 31
0.0
  0
LINE
  5
322
330
17
100
AcDbEntity
  8
BOUNDARY
100
AcDbLine
 10
334.0
 20
18.599450553597
 30
0.0
 11
334.0
 21
8.0
 31
0.0
  0
LINE
  5
323
330
17
100
AcDbEntity
  8
BOUNDARY
100
AcDbLine
 10
345.69046515733027
 20
0.0
 30
0.0
 11
345.69046515733027
 21
8.0
 31
0.0
  0
CIRCLE
  5
324
330
17
100
AcDbEntity
  8
BOUNDARY
100
AcDbCircle
 10
342.62741699797
 20
32.37258300203
 30
0.0
 40
1.7
  0
CIRCLE
  5
325
330
17
100
AcDbEntity
  8
BOUNDARY
100
AcDbCircle
 10
342.62741699797
 20
77.62741699797
 30
0.0
 40
1.7
  0
CIRCLE
  5
326
330
17
100
AcDbEntity
  8
BOUNDARY
100
AcDbCircle
 10
320.0
 20
87.0
 30
0.0
 40
1.7
  0
CIRCLE
  5
327
330
17
100
AcDbEntity
  8
BOUNDARY
100
AcDbCircle
 10
352.0
 20
55.0
 30
0.0
 40
1.7
  0
CIRCLE
  5
328
330
17
100
AcDbEntity
  8
BOUNDARY
100
AcDbCircle
 10
297.37258300203
 20
77.62741699797
 30
0.0
 40
1.7
  0
CIRCLE
  5
329
330
17
100
AcDbEntity
  8
BOUNDARY
100
AcDbCircle
 10
288.0
 20
55.0
 30
0.0
 40
1.7
  0
CIRCLE
  5
32A
330
17
100
AcDbEntity
  8
BOUNDARY
100
AcDbCircle
 10
320.0
 20
23.0
 30
0.0
 40
1.7
  0
CIRCLE
  5
32B
330
17
100
AcDbEntity
  8
BOUNDARY
100
AcDbCircle
 10
297.37258300203
 20
32.37258300203
 30
0.0
 40
1.7
  0
CIRCLE
  5
32C
330
17
100
AcDbEntity
  8
BOUNDARY
100
AcDbCircle
 10
320.0
 20
55.0
 30
0.0
 40
29.3
  0
ARC
  5
32D
330
17
100
AcDbEntity
  8
BOUNDARY
100
AcDbCircle
 10
320.0
 20
55.0
 30
0.0
 40
39.0
100
AcDbArc
 50
291.0372212560367
 51
248.9627787439635
  0
LINE
  5
32E
330
17
100
AcDbEntity
  8
BOUNDARY
100
AcDbLine
 10
294.30953484266973
 20
0.0
 30
0.0
 11
320.0
 21
0.0
 31
0.0
  0
LINE
  5
32F
330
17
100
AcDbEntity
  8
BOUNDARY
100
AcDbLine
 10
320.0
 20
0.0
 30
0.0
 11
345.69046515733027
 21
0.0
 31
0.0
  0
LINE
  5
330
330
17
100
AcDbEntity
  8
BOUNDARY
100
AcDbLine
 10
320.0
 20
-6.5
 30
0.0
 11
320.0
 21
0.0
 31
0.0
  0
TEXT
  5
331
330
17
100
AcDbEntity
  8
NOTE
100
AcDbText
 10
280.0
 20
105.0
 30
0.0
 40
2.5
  1
J7 RING layer Z28
100
AcDbText
  0
CIRCLE
  5
332
330
17
100
AcDbEntity
  8
BOUNDARY
100
AcDbCircle
 10
474.305981007745
 20
-21.25036817836
 30
0.0
 40
3.1
  0
CIRCLE
  5
333
330
17
100
AcDbEntity
  8
BOUNDARY
100
AcDbCircle
 10
495.556349186104
 20
-15.5563491861
 30
0.0
 40
3.1
  0
CIRCLE
  5
334
330
17
100
AcDbEntity
  8
BOUNDARY
100
AcDbCircle
 10
501.25036817836
 20
-5.694018992255
 30
0.0
 40
3.1
  0
CIRCLE
  5
335
330
17
100
AcDbEntity
  8
BOUNDARY
100
AcDbCircle
 10
480.0
 20
0.0
 30
0.0
 40
9.0
  0
CIRCLE
  5
336
330
17
100
AcDbEntity
  8
BOUNDARY
100
AcDbCircle
 10
464.4436508139
 20
-15.5563491861
 30
0.0
 40
3.1
  0
CIRCLE
  5
337
330
17
100
AcDbEntity
  8
BOUNDARY
100
AcDbCircle
 10
458.74963182164
 20
5.694018992255
 30
0.0
 40
3.1
  0
CIRCLE
  5
338
330
17
100
AcDbEntity
  8
BOUNDARY
100
AcDbCircle
 10
495.556349186104
 20
15.556349186104
 30
0.0
 40
3.1
  0
CIRCLE
  5
339
330
17
100
AcDbEntity
  8
BOUNDARY
100
AcDbCircle
 10
464.4436508139
 20
15.556349186104
 30
0.0
 40
3.1
  0
CIRCLE
  5
33A
330
17
100
AcDbEntity
  8
BOUNDARY
100
AcDbCircle
 10
485.694018992255
 20
21.25036817836
 30
0.0
 40
3.1
  0
CIRCLE
  5
33B
330
17
100
AcDbEntity
  8
BOUNDARY
100
AcDbCircle
 10
480.0
 20
0.0
 30
0.0
 40
38.0
  0
TEXT
  5
33C
330
17
100
AcDbEntity
  8
NOTE
100
AcDbText
 10
440.0
 20
105.0
 30
0.0
 40
2.5
  1
J6 DISC layer Y4.8
100
AcDbText
  0
TEXT
  5
33D
330
17
100
AcDbEntity
  8
NOTE
100
AcDbText
 10
-40.0
 20
-60.0
 30
0.0
 40
2.1
  1
R5-WRIST-PAIR01 / mm / NOMINAL STUDY ONLY, NOT PRODUCTION RELEASE
100
AcDbText
  0
TEXT
  5
33E
330
17
100
AcDbEntity
  8
NOTE
100
AcDbText
 10
-40.0
 20
-64.0
 30
0.0
 40
2.1
  1
True sections from exported originals. All hole coordinates: hole-coordinates.csv
100
AcDbText
  0
TEXT
  5
33F
330
17
100
AcDbEntity
  8
NOTE
100
AcDbText
 10
-40.0
 20
-68.0
 30
0.0
 40
2.1
  1
W01 pair frame O=J6 world(0,0,640); J7=(0,55,35), output +Z
100
AcDbText
  0
TEXT
  5
340
330
17
100
AcDbEntity
  8
NOTE
100
AcDbText
 10
-40.0
 20
-72.0
 30
0.0
 40
2.1
  1
W01 J6 output face Y0, mainY0..8; J7 fixed seatZ25 / frontZ31
100
AcDbText
  0
TEXT
  5
341
330
17
100
AcDbEntity
  8
NOTE
100
AcDbText
 10
-40.0
 20
-76.0
 30
0.0
 40
2.1
  1
W01 ring OD78 ID58.6 thick6; neck X+/-14 Y8..24 Z26..31
100
AcDbText
  0
TEXT
  5
342
330
17
100
AcDbEntity
  8
NOTE
100
AcDbText
 10
-40.0
 20
-80.0
 30
0.0
 40
2.1
  1
W01 ribs X-12..-9 and9..12; YZ(8,10),(8,26),(18,26)
100
AcDbText
  0
TEXT
  5
343
330
17
100
AcDbEntity
  8
NOTE
100
AcDbText
 10
-40.0
 20
-84.0
 30
0.0
 40
2.1
  1
A01-P same A01 except rear skirt OD56, wall3; no extension
100
AcDbText
  0
TEXT
  5
344
330
17
100
AcDbEntity
  8
NOTE
100
AcDbText
 10
-40.0
 20
-88.0
 30
0.0
 40
2.1
  1
OEM M3x.35 screw LENGTH/SKU TBD; smooth bore not full thread evidence
100
AcDbText
  0
ENDSEC
  0
SECTION
  2
OBJECTS
  0
DICTIONARY
  5
A
330
0
100
AcDbDictionary
281
1
  3
ACAD_COLOR
350
B
  3
ACAD_GROUP
350
C
  3
ACAD_LAYOUT
350
D
  3
ACAD_MATERIAL
350
E
  3
ACAD_MLEADERSTYLE
350
F
  3
ACAD_MLINESTYLE
350
10
  3
ACAD_PLOTSETTINGS
350
11
  3
ACAD_PLOTSTYLENAME
350
12
  3
ACAD_SCALELIST
350
14
  3
ACAD_TABLESTYLE
350
15
  3
ACAD_VISUALSTYLE
350
16
  3
EZDXF_META
350
2D
  0
DICTIONARY
  5
B
330
A
100
AcDbDictionary
281
1
  0
DICTIONARY
  5
C
330
A
100
AcDbDictionary
281
1
  0
DICTIONARY
  5
D
330
A
100
AcDbDictionary
281
1
  3
Model
350
1A
  3
Layout1
350
1E
  0
DICTIONARY
  5
E
330
A
100
AcDbDictionary
281
1
  3
ByBlock
350
1F
  3
ByLayer
350
20
  3
Global
350
21
  0
DICTIONARY
  5
F
330
A
100
AcDbDictionary
281
1
  3
Standard
350
2C
  0
DICTIONARY
  5
10
330
A
100
AcDbDictionary
281
1
  3
Standard
350
22
  0
DICTIONARY
  5
11
330
A
100
AcDbDictionary
281
1
  0
ACDBDICTIONARYWDFLT
  5
12
330
A
100
AcDbDictionary
281
1
  3
Normal
350
13
100
AcDbDictionaryWithDefault
340
13
  0
ACDBPLACEHOLDER
  5
13
330
12
  0
DICTIONARY
  5
14
330
A
100
AcDbDictionary
281
1
  0
DICTIONARY
  5
15
330
A
100
AcDbDictionary
281
1
  0
DICTIONARY
  5
16
330
A
100
AcDbDictionary
281
1
  0
LAYOUT
  5
1A
330
D
100
AcDbPlotSettings
  1

  4
A3
  6

 40
7.5
 41
20.0
 42
7.5
 43
20.0
 44
420.0
 45
297.0
 46
0.0
 47
0.0
 48
0.0
 49
0.0
140
0.0
141
0.0
142
1.0
143
1.0
 70
1024
 72
1
 73
0
 74
5
  7

 75
16
 76
0
 77
2
 78
300
147
1.0
148
0.0
149
0.0
100
AcDbLayout
  1
Model
 70
1
 71
0
 10
0.0
 20
0.0
 11
420.0
 21
297.0
 12
0.0
 22
0.0
 32
0.0
 14
1e+20
 24
1e+20
 34
1e+20
 15
-1e+20
 25
-1e+20
 35
-1e+20
146
0.0
 13
0.0
 23
0.0
 33
0.0
 16
1.0
 26
0.0
 36
0.0
 17
0.0
 27
1.0
 37
0.0
 76
1
330
17
  0
LAYOUT
  5
1E
330
D
100
AcDbPlotSettings
  1

  4
A3
  6

 40
7.5
 41
20.0
 42
7.5
 43
20.0
 44
420.0
 45
297.0
 46
0.0
 47
0.0
 48
0.0
 49
0.0
140
0.0
141
0.0
142
1.0
143
1.0
 70
0
 72
1
 73
0
 74
5
  7

 75
16
 76
0
 77
2
 78
300
147
1.0
148
0.0
149
0.0
100
AcDbLayout
  1
Layout1
 70
1
 71
1
 10
0.0
 20
0.0
 11
420.0
 21
297.0
 12
0.0
 22
0.0
 32
0.0
 14
1e+20
 24
1e+20
 34
1e+20
 15
-1e+20
 25
-1e+20
 35
-1e+20
146
0.0
 13
0.0
 23
0.0
 33
0.0
 16
1.0
 26
0.0
 36
0.0
 17
0.0
 27
1.0
 37
0.0
 76
1
330
1B
  0
MATERIAL
  5
1F
102
{ACAD_REACTORS
330
E
102
}
330
E
100
AcDbMaterial
  1
ByBlock
  2

 70
0
 40
1.0
 71
1
 41
1.0
 91
-1023410177
 42
1.0
 72
1
  3

 73
1
 74
1
 75
1
 44
0.5
 73
0
 45
1.0
 46
1.0
 77
1
  4

 78
1
 79
1
170
1
 48
1.0
171
1
  6

172
1
173
1
174
1
140
1.0
141
1.0
175
1
  7

176
1
177
1
178
1
143
1.0
179
1
  8

270
1
271
1
272
1
145
1.0
146
1.0
273
1
  9

274
1
275
1
276
1
 42
1.0
 72
1
  3

 73
1
 74
1
 75
1
 94
63
  0
MATERIAL
  5
20
102
{ACAD_REACTORS
330
E
102
}
330
E
100
AcDbMaterial
  1
ByLayer
  2

 70
0
 40
1.0
 71
1
 41
1.0
 91
-1023410177
 42
1.0
 72
1
  3

 73
1
 74
1
 75
1
 44
0.5
 73
0
 45
1.0
 46
1.0
 77
1
  4

 78
1
 79
1
170
1
 48
1.0
171
1
  6

172
1
173
1
174
1
140
1.0
141
1.0
175
1
  7

176
1
177
1
178
1
143
1.0
179
1
  8

270
1
271
1
272
1
145
1.0
146
1.0
273
1
  9

274
1
275
1
276
1
 42
1.0
 72
1
  3

 73
1
 74
1
 75
1
 94
63
  0
MATERIAL
  5
21
102
{ACAD_REACTORS
330
E
102
}
330
E
100
AcDbMaterial
  1
Global
  2

 70
0
 40
1.0
 71
1
 41
1.0
 91
-1023410177
 42
1.0
 72
1
  3

 73
1
 74
1
 75
1
 44
0.5
 73
0
 45
1.0
 46
1.0
 77
1
  4

 78
1
 79
1
170
1
 48
1.0
171
1
  6

172
1
173
1
174
1
140
1.0
141
1.0
175
1
  7

176
1
177
1
178
1
143
1.0
179
1
  8

270
1
271
1
272
1
145
1.0
146
1.0
273
1
  9

274
1
275
1
276
1
 42
1.0
 72
1
  3

 73
1
 74
1
 75
1
 94
63
  0
MLINESTYLE
  5
22
102
{ACAD_REACTORS
330
10
102
}
330
10
100
AcDbMlineStyle
  2
Standard
 70
0
  3

 62
256
 51
90.0
 52
90.0
 71
2
 49
0.5
 62
256
  6
BYLAYER
 49
-0.5
 62
256
  6
BYLAYER
  0
MLEADERSTYLE
  5
2C
102
{ACAD_REACTORS
330
F
102
}
330
F
100
AcDbMLeaderStyle
179
2
170
2
171
1
172
0
 90
2
 40
0.0
 41
0.0
173
1
 91
-1056964608
 92
-2
290
1
 42
2.0
291
1
 43
8.0
  3
Standard
 44
4.0
300

342
29
174
1
175
1
176
0
178
1
 93
-1056964608
 45
4.0
292
0
297
0
 46
4.0
 94
-1056964608
 47
1.0
 49
1.0
140
1.0
294
1
141
0.0
177
0
142
1.0
295
0
296
0
143
3.75
271
0
272
9
273
9
  0
DICTIONARY
  5
2D
330
A
100
AcDbDictionary
280
1
281
1
  3
CREATED_BY_EZDXF
350
2E
  3
WRITTEN_BY_EZDXF
350
347
  0
DICTIONARYVAR
  5
2E
330
2D
100
DictionaryVariables
280
0
  1
1.4.4 @ 2026-09-28T03:37:21.077029+00:00
  0
DICTIONARYVAR
  5
347
330
2D
100
DictionaryVariables
280
0
  1
1.4.4 @ 2026-09-28T03:37:21.083067+00:00
  0
ENDSEC
  0
EOF
