%TF.GenerationSoftware,KiCad,Pcbnew,10.0.6*%
%TF.CreationDate,2026-09-30T18:56:39-04:00*%
%TF.ProjectId,base-rear-interface01,62617365-2d72-4656-9172-2d696e746572,rev?*%
%TF.SameCoordinates,Original*%
%TF.FileFunction,Copper,L1,Top*%
%TF.FilePolarity,Positive*%
%FSLAX46Y46*%
G04 Gerber Fmt 4.6, Leading zero omitted, Abs format (unit mm)*
G04 Created by KiCad (PCBNEW 10.0.6) date 2026-09-30 18:56:39*
%MOMM*%
%LPD*%
G01*
G04 APERTURE LIST*
%TA.AperFunction,ComponentPad*%
%ADD10C,2.700000*%
%TD*%
%TA.AperFunction,ComponentPad*%
%ADD11C,1.300000*%
%TD*%
%TA.AperFunction,ComponentPad*%
%ADD12O,1.500000X2.500000*%
%TD*%
%TA.AperFunction,ComponentPad*%
%ADD13C,3.200000*%
%TD*%
%TA.AperFunction,ViaPad*%
%ADD14C,0.700000*%
%TD*%
%TA.AperFunction,Conductor*%
%ADD15C,4.000000*%
%TD*%
%TA.AperFunction,Conductor*%
%ADD16C,3.200000*%
%TD*%
%TA.AperFunction,Conductor*%
%ADD17C,0.240000*%
%TD*%
G04 APERTURE END LIST*
D10*
%TO.P,J3,1,48V*%
%TO.N,VIN48*%
X100310000Y-36200000D03*
X100310000Y-33660000D03*
X100310000Y-28580000D03*
%TO.P,J3,2,RETURN*%
%TO.N,RETURN48*%
X92690000Y-36200000D03*
X92690000Y-33660000D03*
X92690000Y-28580000D03*
%TD*%
D11*
%TO.P,J2,1,1*%
%TO.N,ETH_1*%
X16430000Y-6360000D03*
%TO.P,J2,2,2*%
%TO.N,ETH_2*%
X17450000Y-10360000D03*
%TO.P,J2,3,3*%
%TO.N,ETH_3*%
X18470000Y-6360000D03*
%TO.P,J2,4,4*%
%TO.N,ETH_4*%
X19490000Y-10360000D03*
%TO.P,J2,5,5*%
%TO.N,ETH_5*%
X20510000Y-6360000D03*
%TO.P,J2,6,6*%
%TO.N,ETH_6*%
X21530000Y-10360000D03*
%TO.P,J2,7,7*%
%TO.N,ETH_7*%
X22550000Y-6360000D03*
%TO.P,J2,8,8*%
%TO.N,ETH_8*%
X23570000Y-10360000D03*
D12*
%TO.P,J2,S1,SHIELD*%
%TO.N,CHASSIS*%
X27400000Y-4010000D03*
%TO.P,J2,S2,SHIELD*%
X12600000Y-4010000D03*
%TD*%
D11*
%TO.P,J1,1,1*%
%TO.N,ETH_1*%
X23570000Y-49640000D03*
%TO.P,J1,2,2*%
%TO.N,ETH_2*%
X22550000Y-45640000D03*
%TO.P,J1,3,3*%
%TO.N,ETH_3*%
X21530000Y-49640000D03*
%TO.P,J1,4,4*%
%TO.N,ETH_4*%
X20510000Y-45640000D03*
%TO.P,J1,5,5*%
%TO.N,ETH_5*%
X19490000Y-49640000D03*
%TO.P,J1,6,6*%
%TO.N,ETH_6*%
X18470000Y-45640000D03*
%TO.P,J1,7,7*%
%TO.N,ETH_7*%
X17450000Y-49640000D03*
%TO.P,J1,8,8*%
%TO.N,ETH_8*%
X16430000Y-45640000D03*
D12*
%TO.P,J1,S1,SHIELD*%
%TO.N,CHASSIS*%
X12600000Y-51990000D03*
%TO.P,J1,S2,SHIELD*%
X27400000Y-51990000D03*
%TD*%
D13*
%TO.P,J5,1,ARM_RETURN*%
%TO.N,RETURN48*%
X82065000Y-9065000D03*
X82065000Y-14935000D03*
X87935000Y-9065000D03*
X87935000Y-14935000D03*
%TD*%
%TO.P,J4,1,ARM_48V*%
%TO.N,VIN48*%
X98065000Y-9065000D03*
X98065000Y-14935000D03*
X103935000Y-9065000D03*
X103935000Y-14935000D03*
%TD*%
%TO.P,J6,1,CHASSIS_BOND*%
%TO.N,CHASSIS*%
X43065000Y-9065000D03*
X43065000Y-14935000D03*
X48935000Y-9065000D03*
X48935000Y-14935000D03*
%TD*%
D14*
%TO.N,ETH_1*%
X8979999Y-16200000D03*
X8979999Y-39800000D03*
%TO.N,ETH_2*%
X11020000Y-39800000D03*
X11020000Y-16200000D03*
%TO.N,ETH_3*%
X15980000Y-16200000D03*
X15980000Y-39800000D03*
%TO.N,ETH_4*%
X22980000Y-16200000D03*
X22980000Y-39800000D03*
%TO.N,ETH_5*%
X25020000Y-39800000D03*
X25020000Y-16200000D03*
%TO.N,ETH_6*%
X18020000Y-39800000D03*
%TO.N,ETH_7*%
X29980000Y-39800000D03*
X29980000Y-16200000D03*
%TO.N,ETH_8*%
X32019999Y-16200000D03*
%TD*%
%TO.N,VIN48*%
D15*
X100310000Y-24000000D02*
X101000000Y-17000000D01*
D16*
X101000000Y-12000000D02*
X103935000Y-14935000D01*
X101000000Y-12000000D02*
X98065000Y-14935000D01*
X101000000Y-12000000D02*
X103935000Y-9065000D01*
D15*
X100310000Y-36200000D02*
X100310000Y-24000000D01*
X101000000Y-17000000D02*
X101000000Y-12000000D01*
D16*
X101000000Y-12000000D02*
X98065000Y-9065000D01*
%TO.N,RETURN48*%
X85000000Y-12000000D02*
X87935000Y-9065000D01*
X85000000Y-12000000D02*
X82065000Y-9065000D01*
D15*
X85000000Y-17000000D02*
X85000000Y-12000000D01*
D16*
X85000000Y-12000000D02*
X87935000Y-14935000D01*
X85000000Y-12000000D02*
X82065000Y-14935000D01*
D15*
X92690000Y-24000000D02*
X85000000Y-17000000D01*
X92690000Y-36200000D02*
X92690000Y-24000000D01*
%TO.N,ETH_1*%
D17*
X9780000Y-17000000D02*
X9780000Y-39000000D01*
X9780000Y-17000000D02*
X8979999Y-16200000D01*
X9780000Y-39000000D02*
X8979999Y-39800000D01*
%TO.N,ETH_2*%
X10220000Y-39000000D02*
X11020000Y-39800000D01*
X10220000Y-17000000D02*
X11020000Y-16200000D01*
X10220000Y-17000000D02*
X10220000Y-39000000D01*
%TO.N,ETH_3*%
X16780000Y-39000000D02*
X15980000Y-39800000D01*
X16780000Y-17000000D02*
X15980000Y-16200000D01*
X16780000Y-17000000D02*
X16780000Y-39000000D01*
%TO.N,ETH_4*%
X23780000Y-17000000D02*
X23780000Y-39000000D01*
X23780000Y-17000000D02*
X22980000Y-16200000D01*
X23780000Y-39000000D02*
X22980000Y-39800000D01*
%TO.N,ETH_5*%
X24220000Y-17000000D02*
X24220000Y-39000000D01*
X24220000Y-39000000D02*
X25020000Y-39800000D01*
X24220000Y-17000000D02*
X25020000Y-16200000D01*
%TO.N,ETH_6*%
X17220000Y-39000000D02*
X18020000Y-39800000D01*
X17220000Y-17000000D02*
X18020000Y-16200000D01*
X21530000Y-12690000D02*
X18020000Y-16200000D01*
X17220000Y-17000000D02*
X17220000Y-39000000D01*
X21530000Y-10360000D02*
X21530000Y-12690000D01*
%TO.N,ETH_7*%
X30780000Y-17000000D02*
X29980000Y-16200000D01*
X30780000Y-17000000D02*
X30780000Y-39000000D01*
X30780000Y-39000000D02*
X29980000Y-39800000D01*
%TO.N,ETH_8*%
X31220000Y-39000000D02*
X32019999Y-39800000D01*
X31220000Y-17000000D02*
X32019999Y-16200000D01*
X31301200Y-40518800D02*
X32020000Y-39800000D01*
X31220000Y-17000000D02*
X31220000Y-39000000D01*
X16430000Y-45640000D02*
X21551200Y-40518800D01*
X21551200Y-40518800D02*
X31301200Y-40518800D01*
%TD*%
M02*
