M48
; DRILL file KiCad 10.0.6 date 2026-09-30T18:56:39
; FORMAT={-:-/ absolute / metric / decimal}
; #@! TF.CreationDate,2026-09-30T18:56:39-04:00
; #@! TF.GenerationSoftware,Kicad,Pcbnew,10.0.6
; #@! TF.FileFunction,Plated,1,4,PTH
FMAT,2
METRIC
; #@! TA.AperFunction,Plated,PTH,ViaDrill
T1C0.300
; #@! TA.AperFunction,Plated,PTH,ComponentDrill
T2C0.800
; #@! TA.AperFunction,Plated,PTH,ComponentDrill
T3C1.000
; #@! TA.AperFunction,Plated,PTH,ComponentDrill
T4C1.300
; #@! TA.AperFunction,Plated,PTH,ComponentDrill
T5C1.850
%
G90
G05
T1
X8.98Y-16.2
X8.98Y-39.8
X11.02Y-16.2
X11.02Y-39.8
X15.98Y-16.2
X15.98Y-39.8
X18.02Y-39.8
X22.98Y-16.2
X22.98Y-39.8
X25.02Y-16.2
X25.02Y-39.8
X29.98Y-16.2
X29.98Y-39.8
X32.02Y-16.2
T2
X16.43Y-6.36
X16.43Y-45.64
X17.45Y-10.36
X17.45Y-49.64
X18.47Y-6.36
X18.47Y-45.64
X19.49Y-10.36
X19.49Y-49.64
X20.51Y-6.36
X20.51Y-45.64
X21.53Y-10.36
X21.53Y-49.64
X22.55Y-6.36
X22.55Y-45.64
X23.57Y-10.36
X23.57Y-49.64
T4
X92.69Y-28.58
X92.69Y-33.66
X92.69Y-36.2
X100.31Y-28.58
X100.31Y-33.66
X100.31Y-36.2
T5
X43.065Y-9.065
X43.065Y-14.935
X48.935Y-9.065
X48.935Y-14.935
X82.065Y-9.065
X82.065Y-14.935
X87.935Y-9.065
X87.935Y-14.935
X98.065Y-9.065
X98.065Y-14.935
X103.935Y-9.065
X103.935Y-14.935
T3
X12.6Y-3.51G85X12.6Y-4.51
G05
X12.6Y-52.49G85X12.6Y-51.49
G05
X27.4Y-3.51G85X27.4Y-4.51
G05
X27.4Y-52.49G85X27.4Y-51.49
G05
M30
