%TF.GenerationSoftware,KiCad,Pcbnew,10.0.6*%
%TF.CreationDate,2026-09-30T18:56:39-04:00*%
%TF.ProjectId,base-rear-interface01,62617365-2d72-4656-9172-2d696e746572,rev?*%
%TF.SameCoordinates,Original*%
%TF.FileFunction,Copper,L2,Inr*%
%TF.FilePolarity,Positive*%
%FSLAX46Y46*%
G04 Gerber Fmt 4.6, Leading zero omitted, Abs format (unit mm)*
G04 Created by KiCad (PCBNEW 10.0.6) date 2026-09-30 18:56:39*
%MOMM*%
%LPD*%
G01*
G04 APERTURE LIST*
%TA.AperFunction,ComponentPad*%
%ADD10C,2.700000*%
%TD*%
%TA.AperFunction,ComponentPad*%
%ADD11C,1.300000*%
%TD*%
%TA.AperFunction,ComponentPad*%
%ADD12O,1.500000X2.500000*%
%TD*%
%TA.AperFunction,ComponentPad*%
%ADD13C,3.200000*%
%TD*%
%TA.AperFunction,ViaPad*%
%ADD14C,0.700000*%
%TD*%
G04 APERTURE END LIST*
D10*
%TO.N,VIN48*%
%TO.C,J3*%
X100310000Y-36200000D03*
X100310000Y-33660000D03*
X100310000Y-28580000D03*
%TO.N,RETURN48*%
X92690000Y-36200000D03*
X92690000Y-33660000D03*
X92690000Y-28580000D03*
%TD*%
D11*
%TO.N,ETH_1*%
%TO.C,J2*%
X16430000Y-6360000D03*
%TO.N,ETH_2*%
X17450000Y-10360000D03*
%TO.N,ETH_3*%
X18470000Y-6360000D03*
%TO.N,ETH_4*%
X19490000Y-10360000D03*
%TO.N,ETH_5*%
X20510000Y-6360000D03*
%TO.N,ETH_6*%
X21530000Y-10360000D03*
%TO.N,ETH_7*%
X22550000Y-6360000D03*
%TO.N,ETH_8*%
X23570000Y-10360000D03*
D12*
%TO.N,CHASSIS*%
X27400000Y-4010000D03*
X12600000Y-4010000D03*
%TD*%
D11*
%TO.N,ETH_1*%
%TO.C,J1*%
X23570000Y-49640000D03*
%TO.N,ETH_2*%
X22550000Y-45640000D03*
%TO.N,ETH_3*%
X21530000Y-49640000D03*
%TO.N,ETH_4*%
X20510000Y-45640000D03*
%TO.N,ETH_5*%
X19490000Y-49640000D03*
%TO.N,ETH_6*%
X18470000Y-45640000D03*
%TO.N,ETH_7*%
X17450000Y-49640000D03*
%TO.N,ETH_8*%
X16430000Y-45640000D03*
D12*
%TO.N,CHASSIS*%
X12600000Y-51990000D03*
X27400000Y-51990000D03*
%TD*%
D13*
%TO.N,RETURN48*%
%TO.C,J5*%
X82065000Y-9065000D03*
X82065000Y-14935000D03*
X87935000Y-9065000D03*
X87935000Y-14935000D03*
%TD*%
%TO.N,VIN48*%
%TO.C,J4*%
X98065000Y-9065000D03*
X98065000Y-14935000D03*
X103935000Y-9065000D03*
X103935000Y-14935000D03*
%TD*%
%TO.N,CHASSIS*%
%TO.C,J6*%
X43065000Y-9065000D03*
X43065000Y-14935000D03*
X48935000Y-9065000D03*
X48935000Y-14935000D03*
%TD*%
D14*
%TO.N,ETH_1*%
X8979999Y-16200000D03*
X8979999Y-39800000D03*
%TO.N,ETH_2*%
X11020000Y-39800000D03*
X11020000Y-16200000D03*
%TO.N,ETH_3*%
X15980000Y-16200000D03*
X15980000Y-39800000D03*
%TO.N,ETH_4*%
X22980000Y-16200000D03*
X22980000Y-39800000D03*
%TO.N,ETH_5*%
X25020000Y-39800000D03*
X25020000Y-16200000D03*
%TO.N,ETH_6*%
X18020000Y-39800000D03*
%TO.N,ETH_7*%
X29980000Y-39800000D03*
X29980000Y-16200000D03*
%TO.N,ETH_8*%
X32019999Y-16200000D03*
%TD*%
%TA.AperFunction,Conductor*%
%TO.N,CHASSIS*%
G36*
X72943039Y-519685D02*
G01*
X72988794Y-572489D01*
X73000000Y-624000D01*
X73000000Y-55376000D01*
X72980315Y-55443039D01*
X72927511Y-55488794D01*
X72876000Y-55500000D01*
X624000Y-55500000D01*
X556961Y-55480315D01*
X511206Y-55427511D01*
X500000Y-55376000D01*
X500000Y-50000000D01*
X2500000Y-50000000D01*
X2516853Y-50343059D01*
X2516853Y-50343065D01*
X2516854Y-50343067D01*
X2567252Y-50682822D01*
X2650711Y-51016006D01*
X2766413Y-51339372D01*
X2766421Y-51339392D01*
X2913276Y-51649891D01*
X3089854Y-51944492D01*
X3294467Y-52220381D01*
X3525125Y-52474873D01*
X3779617Y-52705531D01*
X3779623Y-52705536D01*
X4055504Y-52910143D01*
X4055506Y-52910144D01*
X4350107Y-53086722D01*
X4350110Y-53086723D01*
X4350111Y-53086724D01*
X4660607Y-53233578D01*
X4660621Y-53233583D01*
X4660626Y-53233585D01*
X4905973Y-53321371D01*
X4984003Y-53349291D01*
X5317183Y-53432748D01*
X5656940Y-53483146D01*
X6000000Y-53500000D01*
X6343059Y-53483146D01*
X6682816Y-53432748D01*
X7015996Y-53349291D01*
X7339392Y-53233578D01*
X7649888Y-53086724D01*
X7944495Y-52910143D01*
X8220376Y-52705536D01*
X8474873Y-52474873D01*
X8705536Y-52220376D01*
X8910143Y-51944495D01*
X9086724Y-51649888D01*
X9233578Y-51339392D01*
X9349291Y-51015996D01*
X9432748Y-50682816D01*
X9483146Y-50343059D01*
X9500000Y-50000000D01*
X9483146Y-49656940D01*
X9432748Y-49317183D01*
X9349291Y-48984003D01*
X9290380Y-48819359D01*
X11309500Y-48819359D01*
X11309500Y-49060640D01*
X11326502Y-49189772D01*
X11340992Y-49299834D01*
X11354487Y-49350197D01*
X11403436Y-49532878D01*
X11403439Y-49532888D01*
X11495762Y-49755775D01*
X11495767Y-49755786D01*
X11616392Y-49964713D01*
X11616403Y-49964729D01*
X11763268Y-50156128D01*
X11763274Y-50156135D01*
X11933864Y-50326725D01*
X11933870Y-50326730D01*
X12125279Y-50473603D01*
X12125286Y-50473607D01*
X12334213Y-50594232D01*
X12334218Y-50594234D01*
X12334221Y-50594236D01*
X12474779Y-50652457D01*
X12548072Y-50682816D01*
X12557121Y-50686564D01*
X12790166Y-50749008D01*
X13029367Y-50780500D01*
X13029374Y-50780500D01*
X13270626Y-50780500D01*
X13270633Y-50780500D01*
X13509834Y-50749008D01*
X13742879Y-50686564D01*
X13965779Y-50594236D01*
X14174721Y-50473603D01*
X14366130Y-50326730D01*
X14536730Y-50156130D01*
X14683603Y-49964721D01*
X14804236Y-49755779D01*
X14890972Y-49546379D01*
X16499500Y-49546379D01*
X16499500Y-49733620D01*
X16536025Y-49917243D01*
X16536027Y-49917251D01*
X16607676Y-50090228D01*
X16607681Y-50090237D01*
X16711697Y-50245907D01*
X16711700Y-50245911D01*
X16844088Y-50378299D01*
X16844092Y-50378302D01*
X16999762Y-50482318D01*
X16999768Y-50482321D01*
X16999769Y-50482322D01*
X17172749Y-50553973D01*
X17356379Y-50590499D01*
X17356383Y-50590500D01*
X17356384Y-50590500D01*
X17543617Y-50590500D01*
X17543618Y-50590499D01*
X17727251Y-50553973D01*
X17900231Y-50482322D01*
X18055908Y-50378302D01*
X18188302Y-50245908D01*
X18292322Y-50090231D01*
X18355439Y-49937852D01*
X18399280Y-49883450D01*
X18465574Y-49861385D01*
X18533273Y-49878664D01*
X18580884Y-49929801D01*
X18584557Y-49937845D01*
X18595690Y-49964721D01*
X18647676Y-50090228D01*
X18647681Y-50090237D01*
X18751697Y-50245907D01*
X18751700Y-50245911D01*
X18884088Y-50378299D01*
X18884092Y-50378302D01*
X19039762Y-50482318D01*
X19039768Y-50482321D01*
X19039769Y-50482322D01*
X19212749Y-50553973D01*
X19396379Y-50590499D01*
X19396383Y-50590500D01*
X19396384Y-50590500D01*
X19583617Y-50590500D01*
X19583618Y-50590499D01*
X19767251Y-50553973D01*
X19940231Y-50482322D01*
X20095908Y-50378302D01*
X20228302Y-50245908D01*
X20332322Y-50090231D01*
X20395439Y-49937852D01*
X20439280Y-49883450D01*
X20505574Y-49861385D01*
X20573273Y-49878664D01*
X20620884Y-49929801D01*
X20624557Y-49937845D01*
X20635690Y-49964721D01*
X20687676Y-50090228D01*
X20687681Y-50090237D01*
X20791697Y-50245907D01*
X20791700Y-50245911D01*
X20924088Y-50378299D01*
X20924092Y-50378302D01*
X21079762Y-50482318D01*
X21079768Y-50482321D01*
X21079769Y-50482322D01*
X21252749Y-50553973D01*
X21436379Y-50590499D01*
X21436383Y-50590500D01*
X21436384Y-50590500D01*
X21623617Y-50590500D01*
X21623618Y-50590499D01*
X21807251Y-50553973D01*
X21980231Y-50482322D01*
X22135908Y-50378302D01*
X22268302Y-50245908D01*
X22372322Y-50090231D01*
X22435439Y-49937852D01*
X22479280Y-49883450D01*
X22545574Y-49861385D01*
X22613273Y-49878664D01*
X22660884Y-49929801D01*
X22664557Y-49937845D01*
X22675690Y-49964721D01*
X22727676Y-50090228D01*
X22727681Y-50090237D01*
X22831697Y-50245907D01*
X22831700Y-50245911D01*
X22964088Y-50378299D01*
X22964092Y-50378302D01*
X23119762Y-50482318D01*
X23119768Y-50482321D01*
X23119769Y-50482322D01*
X23292749Y-50553973D01*
X23476379Y-50590499D01*
X23476383Y-50590500D01*
X23476384Y-50590500D01*
X23663617Y-50590500D01*
X23663618Y-50590499D01*
X23847251Y-50553973D01*
X24020231Y-50482322D01*
X24175908Y-50378302D01*
X24308302Y-50245908D01*
X24412322Y-50090231D01*
X24483973Y-49917251D01*
X24520500Y-49733616D01*
X24520500Y-49546384D01*
X24483973Y-49362749D01*
X24412322Y-49189769D01*
X24412321Y-49189768D01*
X24412318Y-49189762D01*
X24308302Y-49034092D01*
X24308299Y-49034088D01*
X24175911Y-48901700D01*
X24175907Y-48901697D01*
X24052680Y-48819359D01*
X25009500Y-48819359D01*
X25009500Y-49060640D01*
X25026502Y-49189772D01*
X25040992Y-49299834D01*
X25054487Y-49350197D01*
X25103436Y-49532878D01*
X25103439Y-49532888D01*
X25195762Y-49755775D01*
X25195767Y-49755786D01*
X25316392Y-49964713D01*
X25316403Y-49964729D01*
X25463268Y-50156128D01*
X25463274Y-50156135D01*
X25633864Y-50326725D01*
X25633870Y-50326730D01*
X25825279Y-50473603D01*
X25825286Y-50473607D01*
X26034213Y-50594232D01*
X26034218Y-50594234D01*
X26034221Y-50594236D01*
X26174779Y-50652457D01*
X26248072Y-50682816D01*
X26257121Y-50686564D01*
X26490166Y-50749008D01*
X26729367Y-50780500D01*
X26729374Y-50780500D01*
X26970626Y-50780500D01*
X26970633Y-50780500D01*
X27209834Y-50749008D01*
X27442879Y-50686564D01*
X27665779Y-50594236D01*
X27874721Y-50473603D01*
X28066130Y-50326730D01*
X28236730Y-50156130D01*
X28383603Y-49964721D01*
X28504236Y-49755779D01*
X28596564Y-49532879D01*
X28659008Y-49299834D01*
X28690500Y-49060633D01*
X28690500Y-48819367D01*
X28659008Y-48580166D01*
X28596564Y-48347121D01*
X28504236Y-48124221D01*
X28504234Y-48124218D01*
X28504232Y-48124213D01*
X28383607Y-47915286D01*
X28383603Y-47915279D01*
X28236730Y-47723870D01*
X28236725Y-47723864D01*
X28066135Y-47553274D01*
X28066128Y-47553268D01*
X27874729Y-47406403D01*
X27874727Y-47406401D01*
X27874721Y-47406397D01*
X27874716Y-47406394D01*
X27874713Y-47406392D01*
X27665786Y-47285767D01*
X27665775Y-47285762D01*
X27442888Y-47193439D01*
X27442881Y-47193437D01*
X27442879Y-47193436D01*
X27209834Y-47130992D01*
X27156678Y-47123993D01*
X26970640Y-47099500D01*
X26970633Y-47099500D01*
X26729367Y-47099500D01*
X26729359Y-47099500D01*
X26516743Y-47127492D01*
X26490166Y-47130992D01*
X26257121Y-47193436D01*
X26257111Y-47193439D01*
X26034224Y-47285762D01*
X26034213Y-47285767D01*
X25825286Y-47406392D01*
X25825270Y-47406403D01*
X25633871Y-47553268D01*
X25633864Y-47553274D01*
X25463274Y-47723864D01*
X25463268Y-47723871D01*
X25316403Y-47915270D01*
X25316392Y-47915286D01*
X25195767Y-48124213D01*
X25195762Y-48124224D01*
X25103439Y-48347111D01*
X25103436Y-48347121D01*
X25040992Y-48580167D01*
X25009500Y-48819359D01*
X24052680Y-48819359D01*
X24020237Y-48797681D01*
X24020228Y-48797676D01*
X23847251Y-48726027D01*
X23847243Y-48726025D01*
X23663620Y-48689500D01*
X23663616Y-48689500D01*
X23476384Y-48689500D01*
X23476379Y-48689500D01*
X23292756Y-48726025D01*
X23292748Y-48726027D01*
X23119771Y-48797676D01*
X23119762Y-48797681D01*
X22964092Y-48901697D01*
X22964088Y-48901700D01*
X22831700Y-49034088D01*
X22831697Y-49034092D01*
X22727681Y-49189762D01*
X22727676Y-49189772D01*
X22664561Y-49342146D01*
X22620720Y-49396549D01*
X22554426Y-49418614D01*
X22486726Y-49401335D01*
X22439116Y-49350197D01*
X22435439Y-49342146D01*
X22372323Y-49189772D01*
X22372323Y-49189771D01*
X22372322Y-49189769D01*
X22372320Y-49189766D01*
X22372318Y-49189762D01*
X22268302Y-49034092D01*
X22268299Y-49034088D01*
X22135911Y-48901700D01*
X22135907Y-48901697D01*
X21980237Y-48797681D01*
X21980228Y-48797676D01*
X21807251Y-48726027D01*
X21807243Y-48726025D01*
X21623620Y-48689500D01*
X21623616Y-48689500D01*
X21436384Y-48689500D01*
X21436379Y-48689500D01*
X21252756Y-48726025D01*
X21252748Y-48726027D01*
X21079771Y-48797676D01*
X21079762Y-48797681D01*
X20924092Y-48901697D01*
X20924088Y-48901700D01*
X20791700Y-49034088D01*
X20791697Y-49034092D01*
X20687681Y-49189762D01*
X20687676Y-49189772D01*
X20624561Y-49342146D01*
X20580720Y-49396549D01*
X20514426Y-49418614D01*
X20446726Y-49401335D01*
X20399116Y-49350197D01*
X20395439Y-49342146D01*
X20332323Y-49189772D01*
X20332323Y-49189771D01*
X20332322Y-49189769D01*
X20332320Y-49189766D01*
X20332318Y-49189762D01*
X20228302Y-49034092D01*
X20228299Y-49034088D01*
X20095911Y-48901700D01*
X20095907Y-48901697D01*
X19940237Y-48797681D01*
X19940228Y-48797676D01*
X19767251Y-48726027D01*
X19767243Y-48726025D01*
X19583620Y-48689500D01*
X19583616Y-48689500D01*
X19396384Y-48689500D01*
X19396379Y-48689500D01*
X19212756Y-48726025D01*
X19212748Y-48726027D01*
X19039771Y-48797676D01*
X19039762Y-48797681D01*
X18884092Y-48901697D01*
X18884088Y-48901700D01*
X18751700Y-49034088D01*
X18751697Y-49034092D01*
X18647681Y-49189762D01*
X18647676Y-49189772D01*
X18584561Y-49342146D01*
X18540720Y-49396549D01*
X18474426Y-49418614D01*
X18406726Y-49401335D01*
X18359116Y-49350197D01*
X18355439Y-49342146D01*
X18292323Y-49189772D01*
X18292323Y-49189771D01*
X18292322Y-49189769D01*
X18292320Y-49189766D01*
X18292318Y-49189762D01*
X18188302Y-49034092D01*
X18188299Y-49034088D01*
X18055911Y-48901700D01*
X18055907Y-48901697D01*
X17900237Y-48797681D01*
X17900228Y-48797676D01*
X17727251Y-48726027D01*
X17727243Y-48726025D01*
X17543620Y-48689500D01*
X17543616Y-48689500D01*
X17356384Y-48689500D01*
X17356379Y-48689500D01*
X17172756Y-48726025D01*
X17172748Y-48726027D01*
X16999771Y-48797676D01*
X16999762Y-48797681D01*
X16844092Y-48901697D01*
X16844088Y-48901700D01*
X16711700Y-49034088D01*
X16711697Y-49034092D01*
X16607681Y-49189762D01*
X16607676Y-49189771D01*
X16536027Y-49362748D01*
X16536025Y-49362756D01*
X16499500Y-49546379D01*
X14890972Y-49546379D01*
X14896564Y-49532879D01*
X14899546Y-49521746D01*
X14903178Y-49508197D01*
X14933093Y-49396549D01*
X14959008Y-49299834D01*
X14990500Y-49060633D01*
X14990500Y-48819367D01*
X14959008Y-48580166D01*
X14896564Y-48347121D01*
X14804236Y-48124221D01*
X14804234Y-48124218D01*
X14804232Y-48124213D01*
X14683607Y-47915286D01*
X14683603Y-47915279D01*
X14536730Y-47723870D01*
X14536725Y-47723864D01*
X14366135Y-47553274D01*
X14366128Y-47553268D01*
X14174729Y-47406403D01*
X14174727Y-47406401D01*
X14174721Y-47406397D01*
X14174716Y-47406394D01*
X14174713Y-47406392D01*
X13965786Y-47285767D01*
X13965775Y-47285762D01*
X13742888Y-47193439D01*
X13742881Y-47193437D01*
X13742879Y-47193436D01*
X13509834Y-47130992D01*
X13456678Y-47123993D01*
X13270640Y-47099500D01*
X13270633Y-47099500D01*
X13029367Y-47099500D01*
X13029359Y-47099500D01*
X12816743Y-47127492D01*
X12790166Y-47130992D01*
X12557121Y-47193436D01*
X12557111Y-47193439D01*
X12334224Y-47285762D01*
X12334213Y-47285767D01*
X12125286Y-47406392D01*
X12125270Y-47406403D01*
X11933871Y-47553268D01*
X11933864Y-47553274D01*
X11763274Y-47723864D01*
X11763268Y-47723871D01*
X11616403Y-47915270D01*
X11616392Y-47915286D01*
X11495767Y-48124213D01*
X11495762Y-48124224D01*
X11403439Y-48347111D01*
X11403436Y-48347121D01*
X11340992Y-48580167D01*
X11309500Y-48819359D01*
X9290380Y-48819359D01*
X9233578Y-48660607D01*
X9086724Y-48350111D01*
X8910143Y-48055504D01*
X8705536Y-47779623D01*
X8705531Y-47779617D01*
X8474873Y-47525125D01*
X8220381Y-47294467D01*
X8208650Y-47285767D01*
X7944495Y-47089856D01*
X7944492Y-47089854D01*
X7649891Y-46913276D01*
X7339392Y-46766421D01*
X7339372Y-46766413D01*
X7016006Y-46650711D01*
X7016000Y-46650709D01*
X7015996Y-46650708D01*
X6850712Y-46609306D01*
X6682822Y-46567252D01*
X6682817Y-46567251D01*
X6682816Y-46567251D01*
X6556861Y-46548567D01*
X6343067Y-46516854D01*
X6343065Y-46516853D01*
X6343059Y-46516853D01*
X5999999Y-46500000D01*
X5656940Y-46516853D01*
X5656934Y-46516853D01*
X5656931Y-46516854D01*
X5317176Y-46567252D01*
X5065664Y-46630252D01*
X4984003Y-46650708D01*
X4984000Y-46650708D01*
X4983992Y-46650711D01*
X4660626Y-46766413D01*
X4660606Y-46766421D01*
X4350107Y-46913276D01*
X4055506Y-47089854D01*
X3779617Y-47294467D01*
X3525125Y-47525125D01*
X3294467Y-47779617D01*
X3089854Y-48055506D01*
X2913276Y-48350107D01*
X2766421Y-48660606D01*
X2766413Y-48660626D01*
X2650711Y-48983992D01*
X2650708Y-48984000D01*
X2650708Y-48984003D01*
X2630252Y-49065664D01*
X2567252Y-49317176D01*
X2533253Y-49546383D01*
X2516853Y-49656940D01*
X2500000Y-50000000D01*
X500000Y-50000000D01*
X500000Y-45546379D01*
X15479500Y-45546379D01*
X15479500Y-45733620D01*
X15516025Y-45917243D01*
X15516027Y-45917251D01*
X15587676Y-46090228D01*
X15587681Y-46090237D01*
X15691697Y-46245907D01*
X15691700Y-46245911D01*
X15824088Y-46378299D01*
X15824092Y-46378302D01*
X15979762Y-46482318D01*
X15979768Y-46482321D01*
X15979769Y-46482322D01*
X16152749Y-46553973D01*
X16336379Y-46590499D01*
X16336383Y-46590500D01*
X16336384Y-46590500D01*
X16523617Y-46590500D01*
X16523618Y-46590499D01*
X16707251Y-46553973D01*
X16880231Y-46482322D01*
X17035908Y-46378302D01*
X17168302Y-46245908D01*
X17272322Y-46090231D01*
X17335439Y-45937852D01*
X17379280Y-45883450D01*
X17445574Y-45861385D01*
X17513273Y-45878664D01*
X17560884Y-45929801D01*
X17564561Y-45937853D01*
X17627676Y-46090228D01*
X17627681Y-46090237D01*
X17731697Y-46245907D01*
X17731700Y-46245911D01*
X17864088Y-46378299D01*
X17864092Y-46378302D01*
X18019762Y-46482318D01*
X18019768Y-46482321D01*
X18019769Y-46482322D01*
X18192749Y-46553973D01*
X18376379Y-46590499D01*
X18376383Y-46590500D01*
X18376384Y-46590500D01*
X18563617Y-46590500D01*
X18563618Y-46590499D01*
X18747251Y-46553973D01*
X18920231Y-46482322D01*
X19075908Y-46378302D01*
X19208302Y-46245908D01*
X19312322Y-46090231D01*
X19375439Y-45937852D01*
X19419280Y-45883450D01*
X19485574Y-45861385D01*
X19553273Y-45878664D01*
X19600884Y-45929801D01*
X19604561Y-45937853D01*
X19667676Y-46090228D01*
X19667681Y-46090237D01*
X19771697Y-46245907D01*
X19771700Y-46245911D01*
X19904088Y-46378299D01*
X19904092Y-46378302D01*
X20059762Y-46482318D01*
X20059768Y-46482321D01*
X20059769Y-46482322D01*
X20232749Y-46553973D01*
X20416379Y-46590499D01*
X20416383Y-46590500D01*
X20416384Y-46590500D01*
X20603617Y-46590500D01*
X20603618Y-46590499D01*
X20787251Y-46553973D01*
X20960231Y-46482322D01*
X21115908Y-46378302D01*
X21248302Y-46245908D01*
X21352322Y-46090231D01*
X21415439Y-45937852D01*
X21459280Y-45883450D01*
X21525574Y-45861385D01*
X21593273Y-45878664D01*
X21640884Y-45929801D01*
X21644561Y-45937853D01*
X21707676Y-46090228D01*
X21707681Y-46090237D01*
X21811697Y-46245907D01*
X21811700Y-46245911D01*
X21944088Y-46378299D01*
X21944092Y-46378302D01*
X22099762Y-46482318D01*
X22099768Y-46482321D01*
X22099769Y-46482322D01*
X22272749Y-46553973D01*
X22456379Y-46590499D01*
X22456383Y-46590500D01*
X22456384Y-46590500D01*
X22643617Y-46590500D01*
X22643618Y-46590499D01*
X22827251Y-46553973D01*
X23000231Y-46482322D01*
X23155908Y-46378302D01*
X23288302Y-46245908D01*
X23392322Y-46090231D01*
X23463973Y-45917251D01*
X23500500Y-45733616D01*
X23500500Y-45546384D01*
X23463973Y-45362749D01*
X23392322Y-45189769D01*
X23392321Y-45189768D01*
X23392318Y-45189762D01*
X23288302Y-45034092D01*
X23288299Y-45034088D01*
X23155911Y-44901700D01*
X23155907Y-44901697D01*
X23000237Y-44797681D01*
X23000228Y-44797676D01*
X22827251Y-44726027D01*
X22827243Y-44726025D01*
X22643620Y-44689500D01*
X22643616Y-44689500D01*
X22456384Y-44689500D01*
X22456379Y-44689500D01*
X22272756Y-44726025D01*
X22272748Y-44726027D01*
X22099771Y-44797676D01*
X22099762Y-44797681D01*
X21944092Y-44901697D01*
X21944088Y-44901700D01*
X21811700Y-45034088D01*
X21811697Y-45034092D01*
X21707681Y-45189762D01*
X21707676Y-45189772D01*
X21644561Y-45342146D01*
X21600720Y-45396549D01*
X21534426Y-45418614D01*
X21466726Y-45401335D01*
X21419116Y-45350197D01*
X21415439Y-45342146D01*
X21352323Y-45189772D01*
X21352323Y-45189771D01*
X21352322Y-45189769D01*
X21352320Y-45189766D01*
X21352318Y-45189762D01*
X21248302Y-45034092D01*
X21248299Y-45034088D01*
X21115911Y-44901700D01*
X21115907Y-44901697D01*
X20960237Y-44797681D01*
X20960228Y-44797676D01*
X20787251Y-44726027D01*
X20787243Y-44726025D01*
X20603620Y-44689500D01*
X20603616Y-44689500D01*
X20416384Y-44689500D01*
X20416379Y-44689500D01*
X20232756Y-44726025D01*
X20232748Y-44726027D01*
X20059771Y-44797676D01*
X20059762Y-44797681D01*
X19904092Y-44901697D01*
X19904088Y-44901700D01*
X19771700Y-45034088D01*
X19771697Y-45034092D01*
X19667681Y-45189762D01*
X19667676Y-45189772D01*
X19604561Y-45342146D01*
X19560720Y-45396549D01*
X19494426Y-45418614D01*
X19426726Y-45401335D01*
X19379116Y-45350197D01*
X19375439Y-45342146D01*
X19312323Y-45189772D01*
X19312323Y-45189771D01*
X19312322Y-45189769D01*
X19312320Y-45189766D01*
X19312318Y-45189762D01*
X19208302Y-45034092D01*
X19208299Y-45034088D01*
X19075911Y-44901700D01*
X19075907Y-44901697D01*
X18920237Y-44797681D01*
X18920228Y-44797676D01*
X18747251Y-44726027D01*
X18747243Y-44726025D01*
X18563620Y-44689500D01*
X18563616Y-44689500D01*
X18376384Y-44689500D01*
X18376379Y-44689500D01*
X18192756Y-44726025D01*
X18192748Y-44726027D01*
X18019771Y-44797676D01*
X18019762Y-44797681D01*
X17864092Y-44901697D01*
X17864088Y-44901700D01*
X17731700Y-45034088D01*
X17731697Y-45034092D01*
X17627681Y-45189762D01*
X17627676Y-45189772D01*
X17564561Y-45342146D01*
X17520720Y-45396549D01*
X17454426Y-45418614D01*
X17386726Y-45401335D01*
X17339116Y-45350197D01*
X17335439Y-45342146D01*
X17272323Y-45189772D01*
X17272323Y-45189771D01*
X17272322Y-45189769D01*
X17272320Y-45189766D01*
X17272318Y-45189762D01*
X17168302Y-45034092D01*
X17168299Y-45034088D01*
X17035911Y-44901700D01*
X17035907Y-44901697D01*
X16880237Y-44797681D01*
X16880228Y-44797676D01*
X16707251Y-44726027D01*
X16707243Y-44726025D01*
X16523620Y-44689500D01*
X16523616Y-44689500D01*
X16336384Y-44689500D01*
X16336379Y-44689500D01*
X16152756Y-44726025D01*
X16152748Y-44726027D01*
X15979771Y-44797676D01*
X15979762Y-44797681D01*
X15824092Y-44901697D01*
X15824088Y-44901700D01*
X15691700Y-45034088D01*
X15691697Y-45034092D01*
X15587681Y-45189762D01*
X15587676Y-45189771D01*
X15516027Y-45362748D01*
X15516025Y-45362756D01*
X15479500Y-45546379D01*
X500000Y-45546379D01*
X500000Y-39864071D01*
X8329498Y-39864071D01*
X8354496Y-39989738D01*
X8354498Y-39989744D01*
X8403532Y-40108124D01*
X8403537Y-40108133D01*
X8474722Y-40214668D01*
X8474725Y-40214672D01*
X8565326Y-40305273D01*
X8565330Y-40305276D01*
X8671865Y-40376461D01*
X8671871Y-40376464D01*
X8671872Y-40376465D01*
X8790255Y-40425501D01*
X8790259Y-40425501D01*
X8790260Y-40425502D01*
X8915927Y-40450500D01*
X8915930Y-40450500D01*
X9044070Y-40450500D01*
X9128614Y-40433682D01*
X9169743Y-40425501D01*
X9288126Y-40376465D01*
X9394668Y-40305276D01*
X9485275Y-40214669D01*
X9556464Y-40108127D01*
X9605500Y-39989744D01*
X9630499Y-39864071D01*
X10369499Y-39864071D01*
X10394497Y-39989738D01*
X10394499Y-39989744D01*
X10443533Y-40108124D01*
X10443538Y-40108133D01*
X10514723Y-40214668D01*
X10514726Y-40214672D01*
X10605327Y-40305273D01*
X10605331Y-40305276D01*
X10711866Y-40376461D01*
X10711872Y-40376464D01*
X10711873Y-40376465D01*
X10830256Y-40425501D01*
X10830260Y-40425501D01*
X10830261Y-40425502D01*
X10955928Y-40450500D01*
X10955931Y-40450500D01*
X11084071Y-40450500D01*
X11168615Y-40433682D01*
X11209744Y-40425501D01*
X11328127Y-40376465D01*
X11434669Y-40305276D01*
X11525276Y-40214669D01*
X11596465Y-40108127D01*
X11645501Y-39989744D01*
X11670500Y-39864071D01*
X15329499Y-39864071D01*
X15354497Y-39989738D01*
X15354499Y-39989744D01*
X15403533Y-40108124D01*
X15403538Y-40108133D01*
X15474723Y-40214668D01*
X15474726Y-40214672D01*
X15565327Y-40305273D01*
X15565331Y-40305276D01*
X15671866Y-40376461D01*
X15671872Y-40376464D01*
X15671873Y-40376465D01*
X15790256Y-40425501D01*
X15790260Y-40425501D01*
X15790261Y-40425502D01*
X15915928Y-40450500D01*
X15915931Y-40450500D01*
X16044071Y-40450500D01*
X16128615Y-40433682D01*
X16169744Y-40425501D01*
X16288127Y-40376465D01*
X16394669Y-40305276D01*
X16485276Y-40214669D01*
X16556465Y-40108127D01*
X16605501Y-39989744D01*
X16630500Y-39864071D01*
X17369499Y-39864071D01*
X17394497Y-39989738D01*
X17394499Y-39989744D01*
X17443533Y-40108124D01*
X17443538Y-40108133D01*
X17514723Y-40214668D01*
X17514726Y-40214672D01*
X17605327Y-40305273D01*
X17605331Y-40305276D01*
X17711866Y-40376461D01*
X17711872Y-40376464D01*
X17711873Y-40376465D01*
X17830256Y-40425501D01*
X17830260Y-40425501D01*
X17830261Y-40425502D01*
X17955928Y-40450500D01*
X17955931Y-40450500D01*
X18084071Y-40450500D01*
X18168615Y-40433682D01*
X18209744Y-40425501D01*
X18328127Y-40376465D01*
X18434669Y-40305276D01*
X18525276Y-40214669D01*
X18596465Y-40108127D01*
X18645501Y-39989744D01*
X18670500Y-39864071D01*
X22329499Y-39864071D01*
X22354497Y-39989738D01*
X22354499Y-39989744D01*
X22403533Y-40108124D01*
X22403538Y-40108133D01*
X22474723Y-40214668D01*
X22474726Y-40214672D01*
X22565327Y-40305273D01*
X22565331Y-40305276D01*
X22671866Y-40376461D01*
X22671872Y-40376464D01*
X22671873Y-40376465D01*
X22790256Y-40425501D01*
X22790260Y-40425501D01*
X22790261Y-40425502D01*
X22915928Y-40450500D01*
X22915931Y-40450500D01*
X23044071Y-40450500D01*
X23128615Y-40433682D01*
X23169744Y-40425501D01*
X23288127Y-40376465D01*
X23394669Y-40305276D01*
X23485276Y-40214669D01*
X23556465Y-40108127D01*
X23605501Y-39989744D01*
X23630500Y-39864071D01*
X24369499Y-39864071D01*
X24394497Y-39989738D01*
X24394499Y-39989744D01*
X24443533Y-40108124D01*
X24443538Y-40108133D01*
X24514723Y-40214668D01*
X24514726Y-40214672D01*
X24605327Y-40305273D01*
X24605331Y-40305276D01*
X24711866Y-40376461D01*
X24711872Y-40376464D01*
X24711873Y-40376465D01*
X24830256Y-40425501D01*
X24830260Y-40425501D01*
X24830261Y-40425502D01*
X24955928Y-40450500D01*
X24955931Y-40450500D01*
X25084071Y-40450500D01*
X25168615Y-40433682D01*
X25209744Y-40425501D01*
X25328127Y-40376465D01*
X25434669Y-40305276D01*
X25525276Y-40214669D01*
X25596465Y-40108127D01*
X25645501Y-39989744D01*
X25670500Y-39864071D01*
X29329499Y-39864071D01*
X29354497Y-39989738D01*
X29354499Y-39989744D01*
X29403533Y-40108124D01*
X29403538Y-40108133D01*
X29474723Y-40214668D01*
X29474726Y-40214672D01*
X29565327Y-40305273D01*
X29565331Y-40305276D01*
X29671866Y-40376461D01*
X29671872Y-40376464D01*
X29671873Y-40376465D01*
X29790256Y-40425501D01*
X29790260Y-40425501D01*
X29790261Y-40425502D01*
X29915928Y-40450500D01*
X29915931Y-40450500D01*
X30044071Y-40450500D01*
X30128615Y-40433682D01*
X30169744Y-40425501D01*
X30288127Y-40376465D01*
X30394669Y-40305276D01*
X30485276Y-40214669D01*
X30556465Y-40108127D01*
X30605501Y-39989744D01*
X30630500Y-39864069D01*
X30630500Y-39735931D01*
X30630500Y-39735928D01*
X30605502Y-39610261D01*
X30605501Y-39610260D01*
X30605501Y-39610256D01*
X30556465Y-39491873D01*
X30556464Y-39491872D01*
X30556461Y-39491866D01*
X30485276Y-39385331D01*
X30485273Y-39385327D01*
X30394672Y-39294726D01*
X30394668Y-39294723D01*
X30288133Y-39223538D01*
X30288124Y-39223533D01*
X30169744Y-39174499D01*
X30169738Y-39174497D01*
X30044071Y-39149500D01*
X30044069Y-39149500D01*
X29915931Y-39149500D01*
X29915929Y-39149500D01*
X29790261Y-39174497D01*
X29790255Y-39174499D01*
X29671875Y-39223533D01*
X29671866Y-39223538D01*
X29565331Y-39294723D01*
X29565327Y-39294726D01*
X29474726Y-39385327D01*
X29474723Y-39385331D01*
X29403538Y-39491866D01*
X29403533Y-39491875D01*
X29354499Y-39610255D01*
X29354497Y-39610261D01*
X29329500Y-39735928D01*
X29329500Y-39735931D01*
X29329500Y-39864069D01*
X29329500Y-39864071D01*
X29329499Y-39864071D01*
X25670500Y-39864071D01*
X25670500Y-39864069D01*
X25670500Y-39735931D01*
X25670500Y-39735928D01*
X25645502Y-39610261D01*
X25645501Y-39610260D01*
X25645501Y-39610256D01*
X25596465Y-39491873D01*
X25596464Y-39491872D01*
X25596461Y-39491866D01*
X25525276Y-39385331D01*
X25525273Y-39385327D01*
X25434672Y-39294726D01*
X25434668Y-39294723D01*
X25328133Y-39223538D01*
X25328124Y-39223533D01*
X25209744Y-39174499D01*
X25209738Y-39174497D01*
X25084071Y-39149500D01*
X25084069Y-39149500D01*
X24955931Y-39149500D01*
X24955929Y-39149500D01*
X24830261Y-39174497D01*
X24830255Y-39174499D01*
X24711875Y-39223533D01*
X24711866Y-39223538D01*
X24605331Y-39294723D01*
X24605327Y-39294726D01*
X24514726Y-39385327D01*
X24514723Y-39385331D01*
X24443538Y-39491866D01*
X24443533Y-39491875D01*
X24394499Y-39610255D01*
X24394497Y-39610261D01*
X24369500Y-39735928D01*
X24369500Y-39735931D01*
X24369500Y-39864069D01*
X24369500Y-39864071D01*
X24369499Y-39864071D01*
X23630500Y-39864071D01*
X23630500Y-39864069D01*
X23630500Y-39735931D01*
X23630500Y-39735928D01*
X23605502Y-39610261D01*
X23605501Y-39610260D01*
X23605501Y-39610256D01*
X23556465Y-39491873D01*
X23556464Y-39491872D01*
X23556461Y-39491866D01*
X23485276Y-39385331D01*
X23485273Y-39385327D01*
X23394672Y-39294726D01*
X23394668Y-39294723D01*
X23288133Y-39223538D01*
X23288124Y-39223533D01*
X23169744Y-39174499D01*
X23169738Y-39174497D01*
X23044071Y-39149500D01*
X23044069Y-39149500D01*
X22915931Y-39149500D01*
X22915929Y-39149500D01*
X22790261Y-39174497D01*
X22790255Y-39174499D01*
X22671875Y-39223533D01*
X22671866Y-39223538D01*
X22565331Y-39294723D01*
X22565327Y-39294726D01*
X22474726Y-39385327D01*
X22474723Y-39385331D01*
X22403538Y-39491866D01*
X22403533Y-39491875D01*
X22354499Y-39610255D01*
X22354497Y-39610261D01*
X22329500Y-39735928D01*
X22329500Y-39735931D01*
X22329500Y-39864069D01*
X22329500Y-39864071D01*
X22329499Y-39864071D01*
X18670500Y-39864071D01*
X18670500Y-39864069D01*
X18670500Y-39735931D01*
X18670500Y-39735928D01*
X18645502Y-39610261D01*
X18645501Y-39610260D01*
X18645501Y-39610256D01*
X18596465Y-39491873D01*
X18596464Y-39491872D01*
X18596461Y-39491866D01*
X18525276Y-39385331D01*
X18525273Y-39385327D01*
X18434672Y-39294726D01*
X18434668Y-39294723D01*
X18328133Y-39223538D01*
X18328124Y-39223533D01*
X18209744Y-39174499D01*
X18209738Y-39174497D01*
X18084071Y-39149500D01*
X18084069Y-39149500D01*
X17955931Y-39149500D01*
X17955929Y-39149500D01*
X17830261Y-39174497D01*
X17830255Y-39174499D01*
X17711875Y-39223533D01*
X17711866Y-39223538D01*
X17605331Y-39294723D01*
X17605327Y-39294726D01*
X17514726Y-39385327D01*
X17514723Y-39385331D01*
X17443538Y-39491866D01*
X17443533Y-39491875D01*
X17394499Y-39610255D01*
X17394497Y-39610261D01*
X17369500Y-39735928D01*
X17369500Y-39735931D01*
X17369500Y-39864069D01*
X17369500Y-39864071D01*
X17369499Y-39864071D01*
X16630500Y-39864071D01*
X16630500Y-39864069D01*
X16630500Y-39735931D01*
X16630500Y-39735928D01*
X16605502Y-39610261D01*
X16605501Y-39610260D01*
X16605501Y-39610256D01*
X16556465Y-39491873D01*
X16556464Y-39491872D01*
X16556461Y-39491866D01*
X16485276Y-39385331D01*
X16485273Y-39385327D01*
X16394672Y-39294726D01*
X16394668Y-39294723D01*
X16288133Y-39223538D01*
X16288124Y-39223533D01*
X16169744Y-39174499D01*
X16169738Y-39174497D01*
X16044071Y-39149500D01*
X16044069Y-39149500D01*
X15915931Y-39149500D01*
X15915929Y-39149500D01*
X15790261Y-39174497D01*
X15790255Y-39174499D01*
X15671875Y-39223533D01*
X15671866Y-39223538D01*
X15565331Y-39294723D01*
X15565327Y-39294726D01*
X15474726Y-39385327D01*
X15474723Y-39385331D01*
X15403538Y-39491866D01*
X15403533Y-39491875D01*
X15354499Y-39610255D01*
X15354497Y-39610261D01*
X15329500Y-39735928D01*
X15329500Y-39735931D01*
X15329500Y-39864069D01*
X15329500Y-39864071D01*
X15329499Y-39864071D01*
X11670500Y-39864071D01*
X11670500Y-39864069D01*
X11670500Y-39735931D01*
X11670500Y-39735928D01*
X11645502Y-39610261D01*
X11645501Y-39610260D01*
X11645501Y-39610256D01*
X11596465Y-39491873D01*
X11596464Y-39491872D01*
X11596461Y-39491866D01*
X11525276Y-39385331D01*
X11525273Y-39385327D01*
X11434672Y-39294726D01*
X11434668Y-39294723D01*
X11328133Y-39223538D01*
X11328124Y-39223533D01*
X11209744Y-39174499D01*
X11209738Y-39174497D01*
X11084071Y-39149500D01*
X11084069Y-39149500D01*
X10955931Y-39149500D01*
X10955929Y-39149500D01*
X10830261Y-39174497D01*
X10830255Y-39174499D01*
X10711875Y-39223533D01*
X10711866Y-39223538D01*
X10605331Y-39294723D01*
X10605327Y-39294726D01*
X10514726Y-39385327D01*
X10514723Y-39385331D01*
X10443538Y-39491866D01*
X10443533Y-39491875D01*
X10394499Y-39610255D01*
X10394497Y-39610261D01*
X10369500Y-39735928D01*
X10369500Y-39735931D01*
X10369500Y-39864069D01*
X10369500Y-39864071D01*
X10369499Y-39864071D01*
X9630499Y-39864071D01*
X9630499Y-39864069D01*
X9630499Y-39735931D01*
X9630499Y-39735928D01*
X9605501Y-39610261D01*
X9605500Y-39610260D01*
X9605500Y-39610256D01*
X9556464Y-39491873D01*
X9556463Y-39491872D01*
X9556460Y-39491866D01*
X9485275Y-39385331D01*
X9485272Y-39385327D01*
X9394671Y-39294726D01*
X9394667Y-39294723D01*
X9288132Y-39223538D01*
X9288123Y-39223533D01*
X9169743Y-39174499D01*
X9169737Y-39174497D01*
X9044070Y-39149500D01*
X9044068Y-39149500D01*
X8915930Y-39149500D01*
X8915928Y-39149500D01*
X8790260Y-39174497D01*
X8790254Y-39174499D01*
X8671874Y-39223533D01*
X8671865Y-39223538D01*
X8565330Y-39294723D01*
X8565326Y-39294726D01*
X8474725Y-39385327D01*
X8474722Y-39385331D01*
X8403537Y-39491866D01*
X8403532Y-39491875D01*
X8354498Y-39610255D01*
X8354496Y-39610261D01*
X8329499Y-39735928D01*
X8329499Y-39735931D01*
X8329499Y-39864069D01*
X8329499Y-39864071D01*
X8329498Y-39864071D01*
X500000Y-39864071D01*
X500000Y-38000000D01*
X44500000Y-38000000D01*
X44516853Y-38343059D01*
X44516853Y-38343065D01*
X44516854Y-38343067D01*
X44567252Y-38682822D01*
X44650711Y-39016006D01*
X44766413Y-39339372D01*
X44766421Y-39339392D01*
X44913276Y-39649891D01*
X45089854Y-39944492D01*
X45089856Y-39944495D01*
X45290230Y-40214669D01*
X45294467Y-40220381D01*
X45525125Y-40474873D01*
X45779617Y-40705531D01*
X45779623Y-40705536D01*
X46055504Y-40910143D01*
X46055506Y-40910144D01*
X46350107Y-41086722D01*
X46350110Y-41086723D01*
X46350111Y-41086724D01*
X46660607Y-41233578D01*
X46660621Y-41233583D01*
X46660626Y-41233585D01*
X46905973Y-41321371D01*
X46984003Y-41349291D01*
X47317183Y-41432748D01*
X47656940Y-41483146D01*
X48000000Y-41500000D01*
X48343059Y-41483146D01*
X48682816Y-41432748D01*
X49015996Y-41349291D01*
X49339392Y-41233578D01*
X49649888Y-41086724D01*
X49944495Y-40910143D01*
X50220376Y-40705536D01*
X50474873Y-40474873D01*
X50705536Y-40220376D01*
X50910143Y-39944495D01*
X51086724Y-39649888D01*
X51233578Y-39339392D01*
X51349291Y-39015996D01*
X51432748Y-38682816D01*
X51483146Y-38343059D01*
X51500000Y-38000000D01*
X64500000Y-38000000D01*
X64516853Y-38343059D01*
X64516853Y-38343065D01*
X64516854Y-38343067D01*
X64567252Y-38682822D01*
X64650711Y-39016006D01*
X64766413Y-39339372D01*
X64766421Y-39339392D01*
X64913276Y-39649891D01*
X65089854Y-39944492D01*
X65089856Y-39944495D01*
X65290230Y-40214669D01*
X65294467Y-40220381D01*
X65525125Y-40474873D01*
X65779617Y-40705531D01*
X65779623Y-40705536D01*
X66055504Y-40910143D01*
X66055506Y-40910144D01*
X66350107Y-41086722D01*
X66350110Y-41086723D01*
X66350111Y-41086724D01*
X66660607Y-41233578D01*
X66660621Y-41233583D01*
X66660626Y-41233585D01*
X66905973Y-41321371D01*
X66984003Y-41349291D01*
X67317183Y-41432748D01*
X67656940Y-41483146D01*
X68000000Y-41500000D01*
X68343059Y-41483146D01*
X68682816Y-41432748D01*
X69015996Y-41349291D01*
X69339392Y-41233578D01*
X69649888Y-41086724D01*
X69944495Y-40910143D01*
X70220376Y-40705536D01*
X70474873Y-40474873D01*
X70705536Y-40220376D01*
X70910143Y-39944495D01*
X71086724Y-39649888D01*
X71233578Y-39339392D01*
X71349291Y-39015996D01*
X71432748Y-38682816D01*
X71483146Y-38343059D01*
X71500000Y-38000000D01*
X71483146Y-37656940D01*
X71432748Y-37317183D01*
X71349291Y-36984003D01*
X71233578Y-36660607D01*
X71086724Y-36350111D01*
X70910143Y-36055504D01*
X70705536Y-35779623D01*
X70705531Y-35779617D01*
X70474873Y-35525125D01*
X70220381Y-35294467D01*
X69944492Y-35089854D01*
X69649891Y-34913276D01*
X69339392Y-34766421D01*
X69339372Y-34766413D01*
X69016006Y-34650711D01*
X69016000Y-34650709D01*
X69015996Y-34650708D01*
X68850712Y-34609306D01*
X68682822Y-34567252D01*
X68682817Y-34567251D01*
X68682816Y-34567251D01*
X68556861Y-34548567D01*
X68343067Y-34516854D01*
X68343065Y-34516853D01*
X68343059Y-34516853D01*
X68000000Y-34500000D01*
X67999999Y-34500000D01*
X67972233Y-34501364D01*
X67656940Y-34516853D01*
X67656934Y-34516853D01*
X67656931Y-34516854D01*
X67317176Y-34567252D01*
X67065664Y-34630252D01*
X66984003Y-34650708D01*
X66984000Y-34650708D01*
X66983992Y-34650711D01*
X66660626Y-34766413D01*
X66660606Y-34766421D01*
X66350107Y-34913276D01*
X66055506Y-35089854D01*
X65779617Y-35294467D01*
X65525125Y-35525125D01*
X65294467Y-35779617D01*
X65089854Y-36055506D01*
X64913276Y-36350107D01*
X64766421Y-36660606D01*
X64766413Y-36660626D01*
X64650711Y-36983992D01*
X64567252Y-37317176D01*
X64567251Y-37317183D01*
X64516853Y-37656940D01*
X64500000Y-38000000D01*
X51500000Y-38000000D01*
X51483146Y-37656940D01*
X51432748Y-37317183D01*
X51349291Y-36984003D01*
X51233578Y-36660607D01*
X51086724Y-36350111D01*
X50910143Y-36055504D01*
X50705536Y-35779623D01*
X50705531Y-35779617D01*
X50474873Y-35525125D01*
X50220381Y-35294467D01*
X49944492Y-35089854D01*
X49649891Y-34913276D01*
X49339392Y-34766421D01*
X49339372Y-34766413D01*
X49016006Y-34650711D01*
X49016000Y-34650709D01*
X49015996Y-34650708D01*
X48850712Y-34609306D01*
X48682822Y-34567252D01*
X48682817Y-34567251D01*
X48682816Y-34567251D01*
X48556861Y-34548567D01*
X48343067Y-34516854D01*
X48343065Y-34516853D01*
X48343059Y-34516853D01*
X48000000Y-34500000D01*
X47999999Y-34500000D01*
X47972233Y-34501364D01*
X47656940Y-34516853D01*
X47656934Y-34516853D01*
X47656931Y-34516854D01*
X47317176Y-34567252D01*
X47065664Y-34630252D01*
X46984003Y-34650708D01*
X46984000Y-34650708D01*
X46983992Y-34650711D01*
X46660626Y-34766413D01*
X46660606Y-34766421D01*
X46350107Y-34913276D01*
X46055506Y-35089854D01*
X45779617Y-35294467D01*
X45525125Y-35525125D01*
X45294467Y-35779617D01*
X45089854Y-36055506D01*
X44913276Y-36350107D01*
X44766421Y-36660606D01*
X44766413Y-36660626D01*
X44650711Y-36983992D01*
X44567252Y-37317176D01*
X44567251Y-37317183D01*
X44516853Y-37656940D01*
X44500000Y-38000000D01*
X500000Y-38000000D01*
X500000Y-16264071D01*
X8329498Y-16264071D01*
X8354496Y-16389738D01*
X8354498Y-16389744D01*
X8403532Y-16508124D01*
X8403537Y-16508133D01*
X8474722Y-16614668D01*
X8474725Y-16614672D01*
X8565326Y-16705273D01*
X8565330Y-16705276D01*
X8671865Y-16776461D01*
X8671871Y-16776464D01*
X8671872Y-16776465D01*
X8790255Y-16825501D01*
X8790259Y-16825501D01*
X8790260Y-16825502D01*
X8915927Y-16850500D01*
X8915930Y-16850500D01*
X9044070Y-16850500D01*
X9128614Y-16833682D01*
X9169743Y-16825501D01*
X9288126Y-16776465D01*
X9394668Y-16705276D01*
X9485275Y-16614669D01*
X9556464Y-16508127D01*
X9605500Y-16389744D01*
X9630499Y-16264071D01*
X10369499Y-16264071D01*
X10394497Y-16389738D01*
X10394499Y-16389744D01*
X10443533Y-16508124D01*
X10443538Y-16508133D01*
X10514723Y-16614668D01*
X10514726Y-16614672D01*
X10605327Y-16705273D01*
X10605331Y-16705276D01*
X10711866Y-16776461D01*
X10711872Y-16776464D01*
X10711873Y-16776465D01*
X10830256Y-16825501D01*
X10830260Y-16825501D01*
X10830261Y-16825502D01*
X10955928Y-16850500D01*
X10955931Y-16850500D01*
X11084071Y-16850500D01*
X11168615Y-16833682D01*
X11209744Y-16825501D01*
X11328127Y-16776465D01*
X11434669Y-16705276D01*
X11525276Y-16614669D01*
X11596465Y-16508127D01*
X11645501Y-16389744D01*
X11670500Y-16264071D01*
X15329499Y-16264071D01*
X15354497Y-16389738D01*
X15354499Y-16389744D01*
X15403533Y-16508124D01*
X15403538Y-16508133D01*
X15474723Y-16614668D01*
X15474726Y-16614672D01*
X15565327Y-16705273D01*
X15565331Y-16705276D01*
X15671866Y-16776461D01*
X15671872Y-16776464D01*
X15671873Y-16776465D01*
X15790256Y-16825501D01*
X15790260Y-16825501D01*
X15790261Y-16825502D01*
X15915928Y-16850500D01*
X15915931Y-16850500D01*
X16044071Y-16850500D01*
X16128615Y-16833682D01*
X16169744Y-16825501D01*
X16288127Y-16776465D01*
X16394669Y-16705276D01*
X16485276Y-16614669D01*
X16556465Y-16508127D01*
X16605501Y-16389744D01*
X16630500Y-16264071D01*
X22329499Y-16264071D01*
X22354497Y-16389738D01*
X22354499Y-16389744D01*
X22403533Y-16508124D01*
X22403538Y-16508133D01*
X22474723Y-16614668D01*
X22474726Y-16614672D01*
X22565327Y-16705273D01*
X22565331Y-16705276D01*
X22671866Y-16776461D01*
X22671872Y-16776464D01*
X22671873Y-16776465D01*
X22790256Y-16825501D01*
X22790260Y-16825501D01*
X22790261Y-16825502D01*
X22915928Y-16850500D01*
X22915931Y-16850500D01*
X23044071Y-16850500D01*
X23128615Y-16833682D01*
X23169744Y-16825501D01*
X23288127Y-16776465D01*
X23394669Y-16705276D01*
X23485276Y-16614669D01*
X23556465Y-16508127D01*
X23605501Y-16389744D01*
X23630500Y-16264071D01*
X24369499Y-16264071D01*
X24394497Y-16389738D01*
X24394499Y-16389744D01*
X24443533Y-16508124D01*
X24443538Y-16508133D01*
X24514723Y-16614668D01*
X24514726Y-16614672D01*
X24605327Y-16705273D01*
X24605331Y-16705276D01*
X24711866Y-16776461D01*
X24711872Y-16776464D01*
X24711873Y-16776465D01*
X24830256Y-16825501D01*
X24830260Y-16825501D01*
X24830261Y-16825502D01*
X24955928Y-16850500D01*
X24955931Y-16850500D01*
X25084071Y-16850500D01*
X25168615Y-16833682D01*
X25209744Y-16825501D01*
X25328127Y-16776465D01*
X25434669Y-16705276D01*
X25525276Y-16614669D01*
X25596465Y-16508127D01*
X25645501Y-16389744D01*
X25670500Y-16264071D01*
X29329499Y-16264071D01*
X29354497Y-16389738D01*
X29354499Y-16389744D01*
X29403533Y-16508124D01*
X29403538Y-16508133D01*
X29474723Y-16614668D01*
X29474726Y-16614672D01*
X29565327Y-16705273D01*
X29565331Y-16705276D01*
X29671866Y-16776461D01*
X29671872Y-16776464D01*
X29671873Y-16776465D01*
X29790256Y-16825501D01*
X29790260Y-16825501D01*
X29790261Y-16825502D01*
X29915928Y-16850500D01*
X29915931Y-16850500D01*
X30044071Y-16850500D01*
X30128615Y-16833682D01*
X30169744Y-16825501D01*
X30288127Y-16776465D01*
X30394669Y-16705276D01*
X30485276Y-16614669D01*
X30556465Y-16508127D01*
X30605501Y-16389744D01*
X30630500Y-16264071D01*
X31369498Y-16264071D01*
X31394496Y-16389738D01*
X31394498Y-16389744D01*
X31443532Y-16508124D01*
X31443537Y-16508133D01*
X31514722Y-16614668D01*
X31514725Y-16614672D01*
X31605326Y-16705273D01*
X31605330Y-16705276D01*
X31711865Y-16776461D01*
X31711871Y-16776464D01*
X31711872Y-16776465D01*
X31830255Y-16825501D01*
X31830259Y-16825501D01*
X31830260Y-16825502D01*
X31955927Y-16850500D01*
X31955930Y-16850500D01*
X32084070Y-16850500D01*
X32168614Y-16833682D01*
X32209743Y-16825501D01*
X32328126Y-16776465D01*
X32434668Y-16705276D01*
X32525275Y-16614669D01*
X32596464Y-16508127D01*
X32645500Y-16389744D01*
X32670499Y-16264069D01*
X32670499Y-16135931D01*
X32670499Y-16135928D01*
X32645501Y-16010261D01*
X32645500Y-16010260D01*
X32645500Y-16010256D01*
X32596464Y-15891873D01*
X32596463Y-15891872D01*
X32596460Y-15891866D01*
X32525275Y-15785331D01*
X32525272Y-15785327D01*
X32434671Y-15694726D01*
X32434667Y-15694723D01*
X32328132Y-15623538D01*
X32328123Y-15623533D01*
X32209743Y-15574499D01*
X32209737Y-15574497D01*
X32084070Y-15549500D01*
X32084068Y-15549500D01*
X31955930Y-15549500D01*
X31955928Y-15549500D01*
X31830260Y-15574497D01*
X31830254Y-15574499D01*
X31711874Y-15623533D01*
X31711865Y-15623538D01*
X31605330Y-15694723D01*
X31605326Y-15694726D01*
X31514725Y-15785327D01*
X31514722Y-15785331D01*
X31443537Y-15891866D01*
X31443532Y-15891875D01*
X31394498Y-16010255D01*
X31394496Y-16010261D01*
X31369499Y-16135928D01*
X31369499Y-16135931D01*
X31369499Y-16264069D01*
X31369499Y-16264071D01*
X31369498Y-16264071D01*
X30630500Y-16264071D01*
X30630500Y-16264069D01*
X30630500Y-16135931D01*
X30630500Y-16135928D01*
X30605502Y-16010261D01*
X30605501Y-16010260D01*
X30605501Y-16010256D01*
X30556465Y-15891873D01*
X30556464Y-15891872D01*
X30556461Y-15891866D01*
X30485276Y-15785331D01*
X30485273Y-15785327D01*
X30394672Y-15694726D01*
X30394668Y-15694723D01*
X30288133Y-15623538D01*
X30288124Y-15623533D01*
X30169744Y-15574499D01*
X30169738Y-15574497D01*
X30044071Y-15549500D01*
X30044069Y-15549500D01*
X29915931Y-15549500D01*
X29915929Y-15549500D01*
X29790261Y-15574497D01*
X29790255Y-15574499D01*
X29671875Y-15623533D01*
X29671866Y-15623538D01*
X29565331Y-15694723D01*
X29565327Y-15694726D01*
X29474726Y-15785327D01*
X29474723Y-15785331D01*
X29403538Y-15891866D01*
X29403533Y-15891875D01*
X29354499Y-16010255D01*
X29354497Y-16010261D01*
X29329500Y-16135928D01*
X29329500Y-16135931D01*
X29329500Y-16264069D01*
X29329500Y-16264071D01*
X29329499Y-16264071D01*
X25670500Y-16264071D01*
X25670500Y-16264069D01*
X25670500Y-16135931D01*
X25670500Y-16135928D01*
X25645502Y-16010261D01*
X25645501Y-16010260D01*
X25645501Y-16010256D01*
X25596465Y-15891873D01*
X25596464Y-15891872D01*
X25596461Y-15891866D01*
X25525276Y-15785331D01*
X25525273Y-15785327D01*
X25434672Y-15694726D01*
X25434668Y-15694723D01*
X25328133Y-15623538D01*
X25328124Y-15623533D01*
X25209744Y-15574499D01*
X25209738Y-15574497D01*
X25084071Y-15549500D01*
X25084069Y-15549500D01*
X24955931Y-15549500D01*
X24955929Y-15549500D01*
X24830261Y-15574497D01*
X24830255Y-15574499D01*
X24711875Y-15623533D01*
X24711866Y-15623538D01*
X24605331Y-15694723D01*
X24605327Y-15694726D01*
X24514726Y-15785327D01*
X24514723Y-15785331D01*
X24443538Y-15891866D01*
X24443533Y-15891875D01*
X24394499Y-16010255D01*
X24394497Y-16010261D01*
X24369500Y-16135928D01*
X24369500Y-16135931D01*
X24369500Y-16264069D01*
X24369500Y-16264071D01*
X24369499Y-16264071D01*
X23630500Y-16264071D01*
X23630500Y-16264069D01*
X23630500Y-16135931D01*
X23630500Y-16135928D01*
X23605502Y-16010261D01*
X23605501Y-16010260D01*
X23605501Y-16010256D01*
X23556465Y-15891873D01*
X23556464Y-15891872D01*
X23556461Y-15891866D01*
X23485276Y-15785331D01*
X23485273Y-15785327D01*
X23394672Y-15694726D01*
X23394668Y-15694723D01*
X23288133Y-15623538D01*
X23288124Y-15623533D01*
X23169744Y-15574499D01*
X23169738Y-15574497D01*
X23044071Y-15549500D01*
X23044069Y-15549500D01*
X22915931Y-15549500D01*
X22915929Y-15549500D01*
X22790261Y-15574497D01*
X22790255Y-15574499D01*
X22671875Y-15623533D01*
X22671866Y-15623538D01*
X22565331Y-15694723D01*
X22565327Y-15694726D01*
X22474726Y-15785327D01*
X22474723Y-15785331D01*
X22403538Y-15891866D01*
X22403533Y-15891875D01*
X22354499Y-16010255D01*
X22354497Y-16010261D01*
X22329500Y-16135928D01*
X22329500Y-16135931D01*
X22329500Y-16264069D01*
X22329500Y-16264071D01*
X22329499Y-16264071D01*
X16630500Y-16264071D01*
X16630500Y-16264069D01*
X16630500Y-16135931D01*
X16630500Y-16135928D01*
X16605502Y-16010261D01*
X16605501Y-16010260D01*
X16605501Y-16010256D01*
X16556465Y-15891873D01*
X16556464Y-15891872D01*
X16556461Y-15891866D01*
X16485276Y-15785331D01*
X16485273Y-15785327D01*
X16394672Y-15694726D01*
X16394668Y-15694723D01*
X16288133Y-15623538D01*
X16288124Y-15623533D01*
X16169744Y-15574499D01*
X16169738Y-15574497D01*
X16044071Y-15549500D01*
X16044069Y-15549500D01*
X15915931Y-15549500D01*
X15915929Y-15549500D01*
X15790261Y-15574497D01*
X15790255Y-15574499D01*
X15671875Y-15623533D01*
X15671866Y-15623538D01*
X15565331Y-15694723D01*
X15565327Y-15694726D01*
X15474726Y-15785327D01*
X15474723Y-15785331D01*
X15403538Y-15891866D01*
X15403533Y-15891875D01*
X15354499Y-16010255D01*
X15354497Y-16010261D01*
X15329500Y-16135928D01*
X15329500Y-16135931D01*
X15329500Y-16264069D01*
X15329500Y-16264071D01*
X15329499Y-16264071D01*
X11670500Y-16264071D01*
X11670500Y-16264069D01*
X11670500Y-16135931D01*
X11670500Y-16135928D01*
X11645502Y-16010261D01*
X11645501Y-16010260D01*
X11645501Y-16010256D01*
X11596465Y-15891873D01*
X11596464Y-15891872D01*
X11596461Y-15891866D01*
X11525276Y-15785331D01*
X11525273Y-15785327D01*
X11434672Y-15694726D01*
X11434668Y-15694723D01*
X11328133Y-15623538D01*
X11328124Y-15623533D01*
X11209744Y-15574499D01*
X11209738Y-15574497D01*
X11084071Y-15549500D01*
X11084069Y-15549500D01*
X10955931Y-15549500D01*
X10955929Y-15549500D01*
X10830261Y-15574497D01*
X10830255Y-15574499D01*
X10711875Y-15623533D01*
X10711866Y-15623538D01*
X10605331Y-15694723D01*
X10605327Y-15694726D01*
X10514726Y-15785327D01*
X10514723Y-15785331D01*
X10443538Y-15891866D01*
X10443533Y-15891875D01*
X10394499Y-16010255D01*
X10394497Y-16010261D01*
X10369500Y-16135928D01*
X10369500Y-16135931D01*
X10369500Y-16264069D01*
X10369500Y-16264071D01*
X10369499Y-16264071D01*
X9630499Y-16264071D01*
X9630499Y-16264069D01*
X9630499Y-16135931D01*
X9630499Y-16135928D01*
X9605501Y-16010261D01*
X9605500Y-16010260D01*
X9605500Y-16010256D01*
X9556464Y-15891873D01*
X9556463Y-15891872D01*
X9556460Y-15891866D01*
X9485275Y-15785331D01*
X9485272Y-15785327D01*
X9394671Y-15694726D01*
X9394667Y-15694723D01*
X9288132Y-15623538D01*
X9288123Y-15623533D01*
X9169743Y-15574499D01*
X9169737Y-15574497D01*
X9044070Y-15549500D01*
X9044068Y-15549500D01*
X8915930Y-15549500D01*
X8915928Y-15549500D01*
X8790260Y-15574497D01*
X8790254Y-15574499D01*
X8671874Y-15623533D01*
X8671865Y-15623538D01*
X8565330Y-15694723D01*
X8565326Y-15694726D01*
X8474725Y-15785327D01*
X8474722Y-15785331D01*
X8403537Y-15891866D01*
X8403532Y-15891875D01*
X8354498Y-16010255D01*
X8354496Y-16010261D01*
X8329499Y-16135928D01*
X8329499Y-16135931D01*
X8329499Y-16264069D01*
X8329499Y-16264071D01*
X8329498Y-16264071D01*
X500000Y-16264071D01*
X500000Y-10266379D01*
X16499500Y-10266379D01*
X16499500Y-10453620D01*
X16536025Y-10637243D01*
X16536027Y-10637251D01*
X16607676Y-10810228D01*
X16607681Y-10810237D01*
X16711697Y-10965907D01*
X16711700Y-10965911D01*
X16844088Y-11098299D01*
X16844092Y-11098302D01*
X16999762Y-11202318D01*
X16999768Y-11202321D01*
X16999769Y-11202322D01*
X17172749Y-11273973D01*
X17356379Y-11310499D01*
X17356383Y-11310500D01*
X17356384Y-11310500D01*
X17543617Y-11310500D01*
X17543618Y-11310499D01*
X17727251Y-11273973D01*
X17900231Y-11202322D01*
X18055908Y-11098302D01*
X18188302Y-10965908D01*
X18292322Y-10810231D01*
X18355439Y-10657852D01*
X18399280Y-10603450D01*
X18465574Y-10581385D01*
X18533273Y-10598664D01*
X18580884Y-10649801D01*
X18584561Y-10657853D01*
X18647676Y-10810228D01*
X18647681Y-10810237D01*
X18751697Y-10965907D01*
X18751700Y-10965911D01*
X18884088Y-11098299D01*
X18884092Y-11098302D01*
X19039762Y-11202318D01*
X19039768Y-11202321D01*
X19039769Y-11202322D01*
X19212749Y-11273973D01*
X19396379Y-11310499D01*
X19396383Y-11310500D01*
X19396384Y-11310500D01*
X19583617Y-11310500D01*
X19583618Y-11310499D01*
X19767251Y-11273973D01*
X19940231Y-11202322D01*
X20095908Y-11098302D01*
X20228302Y-10965908D01*
X20332322Y-10810231D01*
X20395439Y-10657852D01*
X20439280Y-10603450D01*
X20505574Y-10581385D01*
X20573273Y-10598664D01*
X20620884Y-10649801D01*
X20624561Y-10657853D01*
X20687676Y-10810228D01*
X20687681Y-10810237D01*
X20791697Y-10965907D01*
X20791700Y-10965911D01*
X20924088Y-11098299D01*
X20924092Y-11098302D01*
X21079762Y-11202318D01*
X21079768Y-11202321D01*
X21079769Y-11202322D01*
X21252749Y-11273973D01*
X21436379Y-11310499D01*
X21436383Y-11310500D01*
X21436384Y-11310500D01*
X21623617Y-11310500D01*
X21623618Y-11310499D01*
X21807251Y-11273973D01*
X21980231Y-11202322D01*
X22135908Y-11098302D01*
X22268302Y-10965908D01*
X22372322Y-10810231D01*
X22435439Y-10657852D01*
X22479280Y-10603450D01*
X22545574Y-10581385D01*
X22613273Y-10598664D01*
X22660884Y-10649801D01*
X22664561Y-10657853D01*
X22727676Y-10810228D01*
X22727681Y-10810237D01*
X22831697Y-10965907D01*
X22831700Y-10965911D01*
X22964088Y-11098299D01*
X22964092Y-11098302D01*
X23119762Y-11202318D01*
X23119768Y-11202321D01*
X23119769Y-11202322D01*
X23292749Y-11273973D01*
X23476379Y-11310499D01*
X23476383Y-11310500D01*
X23476384Y-11310500D01*
X23663617Y-11310500D01*
X23663618Y-11310499D01*
X23847251Y-11273973D01*
X24020231Y-11202322D01*
X24175908Y-11098302D01*
X24308302Y-10965908D01*
X24412322Y-10810231D01*
X24483973Y-10637251D01*
X24520500Y-10453616D01*
X24520500Y-10266384D01*
X24483973Y-10082749D01*
X24412322Y-9909769D01*
X24412321Y-9909768D01*
X24412318Y-9909762D01*
X24308302Y-9754092D01*
X24308299Y-9754088D01*
X24175911Y-9621700D01*
X24175907Y-9621697D01*
X24020237Y-9517681D01*
X24020228Y-9517676D01*
X23847251Y-9446027D01*
X23847243Y-9446025D01*
X23663620Y-9409500D01*
X23663616Y-9409500D01*
X23476384Y-9409500D01*
X23476379Y-9409500D01*
X23292756Y-9446025D01*
X23292748Y-9446027D01*
X23119771Y-9517676D01*
X23119762Y-9517681D01*
X22964092Y-9621697D01*
X22964088Y-9621700D01*
X22831700Y-9754088D01*
X22831697Y-9754092D01*
X22727681Y-9909762D01*
X22727676Y-9909772D01*
X22664561Y-10062146D01*
X22620720Y-10116549D01*
X22554426Y-10138614D01*
X22486726Y-10121335D01*
X22439116Y-10070197D01*
X22435439Y-10062146D01*
X22372323Y-9909772D01*
X22372323Y-9909771D01*
X22372322Y-9909769D01*
X22372320Y-9909766D01*
X22372318Y-9909762D01*
X22268302Y-9754092D01*
X22268299Y-9754088D01*
X22135911Y-9621700D01*
X22135907Y-9621697D01*
X21980237Y-9517681D01*
X21980228Y-9517676D01*
X21807251Y-9446027D01*
X21807243Y-9446025D01*
X21623620Y-9409500D01*
X21623616Y-9409500D01*
X21436384Y-9409500D01*
X21436379Y-9409500D01*
X21252756Y-9446025D01*
X21252748Y-9446027D01*
X21079771Y-9517676D01*
X21079762Y-9517681D01*
X20924092Y-9621697D01*
X20924088Y-9621700D01*
X20791700Y-9754088D01*
X20791697Y-9754092D01*
X20687681Y-9909762D01*
X20687676Y-9909772D01*
X20624561Y-10062146D01*
X20580720Y-10116549D01*
X20514426Y-10138614D01*
X20446726Y-10121335D01*
X20399116Y-10070197D01*
X20395439Y-10062146D01*
X20332323Y-9909772D01*
X20332323Y-9909771D01*
X20332322Y-9909769D01*
X20332320Y-9909766D01*
X20332318Y-9909762D01*
X20228302Y-9754092D01*
X20228299Y-9754088D01*
X20095911Y-9621700D01*
X20095907Y-9621697D01*
X19940237Y-9517681D01*
X19940228Y-9517676D01*
X19767251Y-9446027D01*
X19767243Y-9446025D01*
X19583620Y-9409500D01*
X19583616Y-9409500D01*
X19396384Y-9409500D01*
X19396379Y-9409500D01*
X19212756Y-9446025D01*
X19212748Y-9446027D01*
X19039771Y-9517676D01*
X19039762Y-9517681D01*
X18884092Y-9621697D01*
X18884088Y-9621700D01*
X18751700Y-9754088D01*
X18751697Y-9754092D01*
X18647681Y-9909762D01*
X18647676Y-9909772D01*
X18584561Y-10062146D01*
X18540720Y-10116549D01*
X18474426Y-10138614D01*
X18406726Y-10121335D01*
X18359116Y-10070197D01*
X18355439Y-10062146D01*
X18292323Y-9909772D01*
X18292323Y-9909771D01*
X18292322Y-9909769D01*
X18292320Y-9909766D01*
X18292318Y-9909762D01*
X18188302Y-9754092D01*
X18188299Y-9754088D01*
X18055911Y-9621700D01*
X18055907Y-9621697D01*
X17900237Y-9517681D01*
X17900228Y-9517676D01*
X17727251Y-9446027D01*
X17727243Y-9446025D01*
X17543620Y-9409500D01*
X17543616Y-9409500D01*
X17356384Y-9409500D01*
X17356379Y-9409500D01*
X17172756Y-9446025D01*
X17172748Y-9446027D01*
X16999771Y-9517676D01*
X16999762Y-9517681D01*
X16844092Y-9621697D01*
X16844088Y-9621700D01*
X16711700Y-9754088D01*
X16711697Y-9754092D01*
X16607681Y-9909762D01*
X16607676Y-9909771D01*
X16536027Y-10082748D01*
X16536025Y-10082756D01*
X16499500Y-10266379D01*
X500000Y-10266379D01*
X500000Y-6000000D01*
X2500000Y-6000000D01*
X2516853Y-6343059D01*
X2516853Y-6343065D01*
X2516854Y-6343067D01*
X2567252Y-6682822D01*
X2571597Y-6700167D01*
X2638162Y-6965911D01*
X2650711Y-7016006D01*
X2766413Y-7339372D01*
X2766421Y-7339392D01*
X2913276Y-7649891D01*
X3048669Y-7875779D01*
X3089856Y-7944495D01*
X3193860Y-8084729D01*
X3294467Y-8220381D01*
X3525125Y-8474873D01*
X3779617Y-8705531D01*
X3779623Y-8705536D01*
X4055504Y-8910143D01*
X4055506Y-8910144D01*
X4350107Y-9086722D01*
X4350110Y-9086723D01*
X4350111Y-9086724D01*
X4660607Y-9233578D01*
X4660621Y-9233583D01*
X4660626Y-9233585D01*
X4905973Y-9321371D01*
X4984003Y-9349291D01*
X5317183Y-9432748D01*
X5656940Y-9483146D01*
X6000000Y-9500000D01*
X6343059Y-9483146D01*
X6682816Y-9432748D01*
X7015996Y-9349291D01*
X7339392Y-9233578D01*
X7649888Y-9086724D01*
X7944495Y-8910143D01*
X8220376Y-8705536D01*
X8474873Y-8474873D01*
X8705536Y-8220376D01*
X8910143Y-7944495D01*
X9086724Y-7649888D01*
X9233578Y-7339392D01*
X9349291Y-7015996D01*
X9368488Y-6939359D01*
X11309500Y-6939359D01*
X11309500Y-7180640D01*
X11330399Y-7339372D01*
X11340992Y-7419834D01*
X11403436Y-7652878D01*
X11403439Y-7652888D01*
X11495762Y-7875775D01*
X11495767Y-7875786D01*
X11616392Y-8084713D01*
X11616403Y-8084729D01*
X11763268Y-8276128D01*
X11763274Y-8276135D01*
X11933864Y-8446725D01*
X11933870Y-8446730D01*
X12125279Y-8593603D01*
X12125286Y-8593607D01*
X12334213Y-8714232D01*
X12334218Y-8714234D01*
X12334221Y-8714236D01*
X12557121Y-8806564D01*
X12790166Y-8869008D01*
X13029367Y-8900500D01*
X13029374Y-8900500D01*
X13270626Y-8900500D01*
X13270633Y-8900500D01*
X13509834Y-8869008D01*
X13742879Y-8806564D01*
X13965779Y-8714236D01*
X14174721Y-8593603D01*
X14366130Y-8446730D01*
X14536730Y-8276130D01*
X14683603Y-8084721D01*
X14804236Y-7875779D01*
X14896564Y-7652879D01*
X14959008Y-7419834D01*
X14990500Y-7180633D01*
X14990500Y-6939367D01*
X14959008Y-6700166D01*
X14896564Y-6467121D01*
X14896559Y-6467111D01*
X14896558Y-6467105D01*
X14830549Y-6307744D01*
X14813414Y-6266379D01*
X15479500Y-6266379D01*
X15479500Y-6453620D01*
X15516025Y-6637243D01*
X15516027Y-6637251D01*
X15587676Y-6810228D01*
X15587681Y-6810237D01*
X15691697Y-6965907D01*
X15691700Y-6965911D01*
X15824088Y-7098299D01*
X15824092Y-7098302D01*
X15979762Y-7202318D01*
X15979768Y-7202321D01*
X15979769Y-7202322D01*
X16152749Y-7273973D01*
X16336379Y-7310499D01*
X16336383Y-7310500D01*
X16336384Y-7310500D01*
X16523617Y-7310500D01*
X16523618Y-7310499D01*
X16707251Y-7273973D01*
X16880231Y-7202322D01*
X17035908Y-7098302D01*
X17168302Y-6965908D01*
X17272322Y-6810231D01*
X17335439Y-6657852D01*
X17379280Y-6603450D01*
X17445574Y-6581385D01*
X17513273Y-6598664D01*
X17560884Y-6649801D01*
X17564561Y-6657853D01*
X17627676Y-6810228D01*
X17627681Y-6810237D01*
X17731697Y-6965907D01*
X17731700Y-6965911D01*
X17864088Y-7098299D01*
X17864092Y-7098302D01*
X18019762Y-7202318D01*
X18019768Y-7202321D01*
X18019769Y-7202322D01*
X18192749Y-7273973D01*
X18376379Y-7310499D01*
X18376383Y-7310500D01*
X18376384Y-7310500D01*
X18563617Y-7310500D01*
X18563618Y-7310499D01*
X18747251Y-7273973D01*
X18920231Y-7202322D01*
X19075908Y-7098302D01*
X19208302Y-6965908D01*
X19312322Y-6810231D01*
X19375439Y-6657852D01*
X19419280Y-6603450D01*
X19485574Y-6581385D01*
X19553273Y-6598664D01*
X19600884Y-6649801D01*
X19604561Y-6657853D01*
X19667676Y-6810228D01*
X19667681Y-6810237D01*
X19771697Y-6965907D01*
X19771700Y-6965911D01*
X19904088Y-7098299D01*
X19904092Y-7098302D01*
X20059762Y-7202318D01*
X20059768Y-7202321D01*
X20059769Y-7202322D01*
X20232749Y-7273973D01*
X20416379Y-7310499D01*
X20416383Y-7310500D01*
X20416384Y-7310500D01*
X20603617Y-7310500D01*
X20603618Y-7310499D01*
X20787251Y-7273973D01*
X20960231Y-7202322D01*
X21115908Y-7098302D01*
X21248302Y-6965908D01*
X21352322Y-6810231D01*
X21415439Y-6657852D01*
X21459280Y-6603450D01*
X21525574Y-6581385D01*
X21593273Y-6598664D01*
X21640884Y-6649801D01*
X21644561Y-6657853D01*
X21707676Y-6810228D01*
X21707681Y-6810237D01*
X21811697Y-6965907D01*
X21811700Y-6965911D01*
X21944088Y-7098299D01*
X21944092Y-7098302D01*
X22099762Y-7202318D01*
X22099768Y-7202321D01*
X22099769Y-7202322D01*
X22272749Y-7273973D01*
X22456379Y-7310499D01*
X22456383Y-7310500D01*
X22456384Y-7310500D01*
X22643617Y-7310500D01*
X22643618Y-7310499D01*
X22827251Y-7273973D01*
X23000231Y-7202322D01*
X23155908Y-7098302D01*
X23288302Y-6965908D01*
X23306036Y-6939367D01*
X23306041Y-6939359D01*
X25009500Y-6939359D01*
X25009500Y-7180640D01*
X25030399Y-7339372D01*
X25040992Y-7419834D01*
X25103436Y-7652878D01*
X25103439Y-7652888D01*
X25195762Y-7875775D01*
X25195767Y-7875786D01*
X25316392Y-8084713D01*
X25316403Y-8084729D01*
X25463268Y-8276128D01*
X25463274Y-8276135D01*
X25633864Y-8446725D01*
X25633870Y-8446730D01*
X25825279Y-8593603D01*
X25825286Y-8593607D01*
X26034213Y-8714232D01*
X26034218Y-8714234D01*
X26034221Y-8714236D01*
X26257121Y-8806564D01*
X26490166Y-8869008D01*
X26729367Y-8900500D01*
X26729374Y-8900500D01*
X26970626Y-8900500D01*
X26970633Y-8900500D01*
X27209834Y-8869008D01*
X27442879Y-8806564D01*
X27665779Y-8714236D01*
X27874721Y-8593603D01*
X28066130Y-8446730D01*
X28236730Y-8276130D01*
X28383603Y-8084721D01*
X28504236Y-7875779D01*
X28596564Y-7652879D01*
X28659008Y-7419834D01*
X28690500Y-7180633D01*
X28690500Y-6939367D01*
X28659008Y-6700166D01*
X28596564Y-6467121D01*
X28596557Y-6467105D01*
X28513414Y-6266379D01*
X28504236Y-6244221D01*
X28504234Y-6244218D01*
X28504232Y-6244213D01*
X28383607Y-6035286D01*
X28383603Y-6035279D01*
X28236730Y-5843870D01*
X28236725Y-5843864D01*
X28066135Y-5673274D01*
X28066128Y-5673268D01*
X27874729Y-5526403D01*
X27874727Y-5526401D01*
X27874721Y-5526397D01*
X27874716Y-5526394D01*
X27874713Y-5526392D01*
X27665786Y-5405767D01*
X27665775Y-5405762D01*
X27442888Y-5313439D01*
X27442881Y-5313437D01*
X27442879Y-5313436D01*
X27209834Y-5250992D01*
X27156678Y-5243993D01*
X26970640Y-5219500D01*
X26970633Y-5219500D01*
X26729367Y-5219500D01*
X26729359Y-5219500D01*
X26516743Y-5247492D01*
X26490166Y-5250992D01*
X26257121Y-5313436D01*
X26257111Y-5313439D01*
X26034224Y-5405762D01*
X26034213Y-5405767D01*
X25825286Y-5526392D01*
X25825270Y-5526403D01*
X25633871Y-5673268D01*
X25633864Y-5673274D01*
X25463274Y-5843864D01*
X25463268Y-5843871D01*
X25316403Y-6035270D01*
X25316392Y-6035286D01*
X25195767Y-6244213D01*
X25195762Y-6244224D01*
X25103439Y-6467111D01*
X25103436Y-6467121D01*
X25045640Y-6682822D01*
X25040992Y-6700167D01*
X25009500Y-6939359D01*
X23306041Y-6939359D01*
X23354780Y-6866417D01*
X23392318Y-6810237D01*
X23392318Y-6810236D01*
X23392322Y-6810231D01*
X23463973Y-6637251D01*
X23500500Y-6453616D01*
X23500500Y-6266384D01*
X23463973Y-6082749D01*
X23392322Y-5909769D01*
X23392321Y-5909768D01*
X23392318Y-5909762D01*
X23288302Y-5754092D01*
X23288299Y-5754088D01*
X23155911Y-5621700D01*
X23155907Y-5621697D01*
X23000237Y-5517681D01*
X23000228Y-5517676D01*
X22827251Y-5446027D01*
X22827243Y-5446025D01*
X22643620Y-5409500D01*
X22643616Y-5409500D01*
X22456384Y-5409500D01*
X22456379Y-5409500D01*
X22272756Y-5446025D01*
X22272748Y-5446027D01*
X22099771Y-5517676D01*
X22099762Y-5517681D01*
X21944092Y-5621697D01*
X21944088Y-5621700D01*
X21811700Y-5754088D01*
X21811697Y-5754092D01*
X21707681Y-5909762D01*
X21707676Y-5909772D01*
X21644561Y-6062146D01*
X21600720Y-6116549D01*
X21534426Y-6138614D01*
X21466726Y-6121335D01*
X21419116Y-6070197D01*
X21415439Y-6062146D01*
X21352323Y-5909772D01*
X21352323Y-5909771D01*
X21352322Y-5909769D01*
X21352320Y-5909766D01*
X21352318Y-5909762D01*
X21248302Y-5754092D01*
X21248299Y-5754088D01*
X21115911Y-5621700D01*
X21115907Y-5621697D01*
X20960237Y-5517681D01*
X20960228Y-5517676D01*
X20787251Y-5446027D01*
X20787243Y-5446025D01*
X20603620Y-5409500D01*
X20603616Y-5409500D01*
X20416384Y-5409500D01*
X20416379Y-5409500D01*
X20232756Y-5446025D01*
X20232748Y-5446027D01*
X20059771Y-5517676D01*
X20059762Y-5517681D01*
X19904092Y-5621697D01*
X19904088Y-5621700D01*
X19771700Y-5754088D01*
X19771697Y-5754092D01*
X19667681Y-5909762D01*
X19667676Y-5909772D01*
X19604561Y-6062146D01*
X19560720Y-6116549D01*
X19494426Y-6138614D01*
X19426726Y-6121335D01*
X19379116Y-6070197D01*
X19375439Y-6062146D01*
X19312323Y-5909772D01*
X19312323Y-5909771D01*
X19312322Y-5909769D01*
X19312320Y-5909766D01*
X19312318Y-5909762D01*
X19208302Y-5754092D01*
X19208299Y-5754088D01*
X19075911Y-5621700D01*
X19075907Y-5621697D01*
X18920237Y-5517681D01*
X18920228Y-5517676D01*
X18747251Y-5446027D01*
X18747243Y-5446025D01*
X18563620Y-5409500D01*
X18563616Y-5409500D01*
X18376384Y-5409500D01*
X18376379Y-5409500D01*
X18192756Y-5446025D01*
X18192748Y-5446027D01*
X18019771Y-5517676D01*
X18019762Y-5517681D01*
X17864092Y-5621697D01*
X17864088Y-5621700D01*
X17731700Y-5754088D01*
X17731697Y-5754092D01*
X17627681Y-5909762D01*
X17627676Y-5909772D01*
X17564561Y-6062146D01*
X17520720Y-6116549D01*
X17454426Y-6138614D01*
X17386726Y-6121335D01*
X17339116Y-6070197D01*
X17335439Y-6062146D01*
X17272323Y-5909772D01*
X17272323Y-5909771D01*
X17272322Y-5909769D01*
X17272320Y-5909766D01*
X17272318Y-5909762D01*
X17168302Y-5754092D01*
X17168299Y-5754088D01*
X17035911Y-5621700D01*
X17035907Y-5621697D01*
X16880237Y-5517681D01*
X16880228Y-5517676D01*
X16707251Y-5446027D01*
X16707243Y-5446025D01*
X16523620Y-5409500D01*
X16523616Y-5409500D01*
X16336384Y-5409500D01*
X16336379Y-5409500D01*
X16152756Y-5446025D01*
X16152748Y-5446027D01*
X15979771Y-5517676D01*
X15979762Y-5517681D01*
X15824092Y-5621697D01*
X15824088Y-5621700D01*
X15691700Y-5754088D01*
X15691697Y-5754092D01*
X15587681Y-5909762D01*
X15587676Y-5909771D01*
X15516027Y-6082748D01*
X15516025Y-6082756D01*
X15479500Y-6266379D01*
X14813414Y-6266379D01*
X14804236Y-6244221D01*
X14804233Y-6244216D01*
X14804232Y-6244213D01*
X14683607Y-6035286D01*
X14683603Y-6035279D01*
X14536730Y-5843870D01*
X14536725Y-5843864D01*
X14366135Y-5673274D01*
X14366128Y-5673268D01*
X14174729Y-5526403D01*
X14174727Y-5526401D01*
X14174721Y-5526397D01*
X14174716Y-5526394D01*
X14174713Y-5526392D01*
X13965786Y-5405767D01*
X13965775Y-5405762D01*
X13742888Y-5313439D01*
X13742881Y-5313437D01*
X13742879Y-5313436D01*
X13509834Y-5250992D01*
X13456678Y-5243993D01*
X13270640Y-5219500D01*
X13270633Y-5219500D01*
X13029367Y-5219500D01*
X13029359Y-5219500D01*
X12816743Y-5247492D01*
X12790166Y-5250992D01*
X12557121Y-5313436D01*
X12557111Y-5313439D01*
X12334224Y-5405762D01*
X12334213Y-5405767D01*
X12125286Y-5526392D01*
X12125270Y-5526403D01*
X11933871Y-5673268D01*
X11933864Y-5673274D01*
X11763274Y-5843864D01*
X11763268Y-5843871D01*
X11616403Y-6035270D01*
X11616392Y-6035286D01*
X11495767Y-6244213D01*
X11495762Y-6244224D01*
X11403439Y-6467111D01*
X11403436Y-6467121D01*
X11345640Y-6682822D01*
X11340992Y-6700167D01*
X11309500Y-6939359D01*
X9368488Y-6939359D01*
X9432748Y-6682816D01*
X9483146Y-6343059D01*
X9500000Y-6000000D01*
X9483146Y-5656940D01*
X9432748Y-5317183D01*
X9349291Y-4984003D01*
X9233578Y-4660607D01*
X9086724Y-4350111D01*
X8910143Y-4055504D01*
X8705536Y-3779623D01*
X8705531Y-3779617D01*
X8474873Y-3525125D01*
X8220381Y-3294467D01*
X7944492Y-3089854D01*
X7649891Y-2913276D01*
X7339392Y-2766421D01*
X7339372Y-2766413D01*
X7016006Y-2650711D01*
X7016000Y-2650709D01*
X7015996Y-2650708D01*
X6850712Y-2609306D01*
X6682822Y-2567252D01*
X6682817Y-2567251D01*
X6682816Y-2567251D01*
X6556861Y-2548567D01*
X6343067Y-2516854D01*
X6343065Y-2516853D01*
X6343059Y-2516853D01*
X5999999Y-2500000D01*
X5656940Y-2516853D01*
X5656934Y-2516853D01*
X5656931Y-2516854D01*
X5317176Y-2567252D01*
X5065664Y-2630252D01*
X4984003Y-2650708D01*
X4984000Y-2650708D01*
X4983992Y-2650711D01*
X4660626Y-2766413D01*
X4660606Y-2766421D01*
X4350107Y-2913276D01*
X4055506Y-3089854D01*
X3779617Y-3294467D01*
X3525125Y-3525125D01*
X3294467Y-3779617D01*
X3089854Y-4055506D01*
X2913276Y-4350107D01*
X2766421Y-4660606D01*
X2766413Y-4660626D01*
X2650711Y-4983992D01*
X2567252Y-5317176D01*
X2522081Y-5621698D01*
X2516853Y-5656940D01*
X2500000Y-6000000D01*
X500000Y-6000000D01*
X500000Y-624000D01*
X519685Y-556961D01*
X572489Y-511206D01*
X624000Y-500000D01*
X72876000Y-500000D01*
X72943039Y-519685D01*
G37*
%TD.AperFunction*%
%TD*%
M02*
