%TF.GenerationSoftware,KiCad,Pcbnew,10.0.6*%
%TF.CreationDate,2026-09-30T18:56:39-04:00*%
%TF.ProjectId,base-rear-interface01,62617365-2d72-4656-9172-2d696e746572,rev?*%
%TF.SameCoordinates,Original*%
%TF.FileFunction,Soldermask,Bot*%
%TF.FilePolarity,Negative*%
%FSLAX46Y46*%
G04 Gerber Fmt 4.6, Leading zero omitted, Abs format (unit mm)*
G04 Created by KiCad (PCBNEW 10.0.6) date 2026-09-30 18:56:39*
%MOMM*%
%LPD*%
G01*
G04 APERTURE LIST*
%ADD10C,2.700000*%
%ADD11C,3.180000*%
%ADD12C,1.300000*%
%ADD13O,1.500000X2.500000*%
%ADD14C,3.200000*%
G04 APERTURE END LIST*
D10*
%TO.C,J3*%
X100310000Y-36200000D03*
X100310000Y-33660000D03*
X100310000Y-28580000D03*
X92690000Y-36200000D03*
X92690000Y-33660000D03*
X92690000Y-28580000D03*
%TD*%
D11*
%TO.C,J2*%
X13150000Y-7060000D03*
X26850000Y-7060000D03*
D12*
X16430000Y-6360000D03*
X17450000Y-10360000D03*
X18470000Y-6360000D03*
X19490000Y-10360000D03*
X20510000Y-6360000D03*
X21530000Y-10360000D03*
X22550000Y-6360000D03*
X23570000Y-10360000D03*
D13*
X27400000Y-4010000D03*
X12600000Y-4010000D03*
%TD*%
D14*
%TO.C,H4*%
X6000000Y-50000000D03*
%TD*%
%TO.C,H5*%
X48000000Y-38000000D03*
%TD*%
%TO.C,H3*%
X110000000Y-50000000D03*
%TD*%
%TO.C,H6*%
X68000000Y-38000000D03*
%TD*%
D11*
%TO.C,J1*%
X26850000Y-48940000D03*
X13150000Y-48940000D03*
D12*
X23570000Y-49640000D03*
X22550000Y-45640000D03*
X21530000Y-49640000D03*
X20510000Y-45640000D03*
X19490000Y-49640000D03*
X18470000Y-45640000D03*
X17450000Y-49640000D03*
X16430000Y-45640000D03*
D13*
X12600000Y-51990000D03*
X27400000Y-51990000D03*
%TD*%
D14*
%TO.C,J5*%
X82065000Y-9065000D03*
X82065000Y-14935000D03*
X87935000Y-9065000D03*
X87935000Y-14935000D03*
%TD*%
%TO.C,J4*%
X98065000Y-9065000D03*
X98065000Y-14935000D03*
X103935000Y-9065000D03*
X103935000Y-14935000D03*
%TD*%
%TO.C,H1*%
X6000000Y-6000000D03*
%TD*%
%TO.C,J6*%
X43065000Y-9065000D03*
X43065000Y-14935000D03*
X48935000Y-9065000D03*
X48935000Y-14935000D03*
%TD*%
%TO.C,H2*%
X110000000Y-6000000D03*
%TD*%
M02*
