<?xml version="1.0" standalone="no"?>
 <!DOCTYPE svg PUBLIC "-//W3C//DTD SVG 1.1//EN" 
 "http://www.w3.org/Graphics/SVG/1.1/DTD/svg11.dtd"> 
<svg
  xmlns:svg="http://www.w3.org/2000/svg"
  xmlns="http://www.w3.org/2000/svg"
  xmlns:xlink="http://www.w3.org/1999/xlink"
  xmlns:inkscape="http://www.inkscape.org/namespaces/inkscape"
  version="1.1"
  width="297.0022mm" height="210.0072mm" viewBox="0.0000 0.0000 297.0022 210.0072">
<title>SVG Image created as base-rear-interface01-NPTH-drl_map.svg date 2026-09-30T18:56:39 </title>
  <desc>Image generated by PCBNEW </desc>
<g style="fill:#000000; fill-opacity:1.0000;stroke:#000000; stroke-opacity:1.0000;
stroke-linecap:round; stroke-linejoin:round;"
 transform="translate(0 0) scale(1 1)">
</g>
<g style="fill:none; 
stroke:#000000; stroke-width:0.1035; stroke-opacity:1; 
stroke-linecap:round; stroke-linejoin:round;">
<path d="M28.4609 5.0517
L268.5413 5.0517
" />
<path d="M28.4609 120.9526
L28.4609 5.0517
" />
<path d="M268.5413 5.0517
L268.5413 120.9526
" />
<path d="M268.5413 120.9526
L28.4609 120.9526
" />
</g>
<g style="fill:none; 
stroke:#000000; stroke-width:0.6582; stroke-opacity:1; 
stroke-linecap:round; stroke-linejoin:round;">
<path d="M52.3862 16.3728
L58.9677 22.9543
" />
<path d="M58.9677 16.3728
L52.3862 22.9543
" />
<path d="M52.3862 103.0500
L58.9677 109.6315
" />
<path d="M58.9677 103.0500
L52.3862 109.6315
" />
<path d="M80.7405 16.3728
L87.3220 22.9543
" />
<path d="M87.3220 16.3728
L80.7405 22.9543
" />
<path d="M80.7405 103.0500
L87.3220 109.6315
" />
<path d="M87.3220 103.0500
L80.7405 109.6315
" />
</g>
<g style="fill:none; 
stroke:#000000; stroke-width:0.6623; stroke-opacity:1; 
stroke-linecap:round; stroke-linejoin:round;">
<circle cx="40.8789" cy="17.4697" r="3.3115" /> 
<circle cx="40.8789" cy="108.5346" r="3.3115" /> 
<circle cx="127.8045" cy="83.6987" r="3.3115" /> 
<circle cx="169.1977" cy="83.6987" r="3.3115" /> 
<circle cx="256.1233" cy="17.4697" r="3.3115" /> 
<circle cx="256.1233" cy="108.5346" r="3.3115" /> 
</g>
<g style="fill:none; 
stroke:#000000; stroke-width:0.2000; stroke-opacity:1; 
stroke-linecap:round; stroke-linejoin:round;">
<text x="30.4092" y="124.2043"
textLength="14.8667" font-size="2.6667" lengthAdjust="spacingAndGlyphs"
text-anchor="start" opacity="0" stroke-opacity="0">Drill Map:</text>
<g class="stroked-text"><desc>Drill Map:</desc>
<path d="M31.0170 124.1192
L31.0170 122.1192
" />
<path d="M31.0170 122.1192
L31.4932 122.1192
" />
<path d="M31.4932 122.1192
L31.7789 122.2144
" />
<path d="M31.7789 122.2144
L31.9694 122.4049
" />
<path d="M31.9694 122.4049
L32.0646 122.5953
" />
<path d="M32.0646 122.5953
L32.1598 122.9763
" />
<path d="M32.1598 122.9763
L32.1598 123.2620
" />
<path d="M32.1598 123.2620
L32.0646 123.6430
" />
<path d="M32.0646 123.6430
L31.9694 123.8334
" />
<path d="M31.9694 123.8334
L31.7789 124.0239
" />
<path d="M31.7789 124.0239
L31.4932 124.1192
" />
<path d="M31.4932 124.1192
L31.0170 124.1192
" />
<path d="M33.0170 124.1192
L33.0170 122.7858
" />
<path d="M33.0170 123.1668
L33.1122 122.9763
" />
<path d="M33.1122 122.9763
L33.2074 122.8811
" />
<path d="M33.2074 122.8811
L33.3979 122.7858
" />
<path d="M33.3979 122.7858
L33.5884 122.7858
" />
<path d="M34.2551 124.1192
L34.2551 122.7858
" />
<path d="M34.2551 122.1192
L34.1598 122.2144
" />
<path d="M34.1598 122.2144
L34.2551 122.3096
" />
<path d="M34.2551 122.3096
L34.3503 122.2144
" />
<path d="M34.3503 122.2144
L34.2551 122.1192
" />
<path d="M34.2551 122.1192
L34.2551 122.3096
" />
<path d="M35.4932 124.1192
L35.3027 124.0239
" />
<path d="M35.3027 124.0239
L35.2074 123.8334
" />
<path d="M35.2074 123.8334
L35.2074 122.1192
" />
<path d="M36.5408 124.1192
L36.3503 124.0239
" />
<path d="M36.3503 124.0239
L36.2551 123.8334
" />
<path d="M36.2551 123.8334
L36.2551 122.1192
" />
<path d="M38.8265 124.1192
L38.8265 122.1192
" />
<path d="M38.8265 122.1192
L39.4932 123.5477
" />
<path d="M39.4932 123.5477
L40.1598 122.1192
" />
<path d="M40.1598 122.1192
L40.1598 124.1192
" />
<path d="M41.9693 124.1192
L41.9693 123.0715
" />
<path d="M41.9693 123.0715
L41.8741 122.8811
" />
<path d="M41.8741 122.8811
L41.6836 122.7858
" />
<path d="M41.6836 122.7858
L41.3027 122.7858
" />
<path d="M41.3027 122.7858
L41.1122 122.8811
" />
<path d="M41.9693 124.0239
L41.7789 124.1192
" />
<path d="M41.7789 124.1192
L41.3027 124.1192
" />
<path d="M41.3027 124.1192
L41.1122 124.0239
" />
<path d="M41.1122 124.0239
L41.0170 123.8334
" />
<path d="M41.0170 123.8334
L41.0170 123.6430
" />
<path d="M41.0170 123.6430
L41.1122 123.4525
" />
<path d="M41.1122 123.4525
L41.3027 123.3573
" />
<path d="M41.3027 123.3573
L41.7789 123.3573
" />
<path d="M41.7789 123.3573
L41.9693 123.2620
" />
<path d="M42.9217 122.7858
L42.9217 124.7858
" />
<path d="M42.9217 122.8811
L43.1122 122.7858
" />
<path d="M43.1122 122.7858
L43.4932 122.7858
" />
<path d="M43.4932 122.7858
L43.6836 122.8811
" />
<path d="M43.6836 122.8811
L43.7789 122.9763
" />
<path d="M43.7789 122.9763
L43.8741 123.1668
" />
<path d="M43.8741 123.1668
L43.8741 123.7382
" />
<path d="M43.8741 123.7382
L43.7789 123.9287
" />
<path d="M43.7789 123.9287
L43.6836 124.0239
" />
<path d="M43.6836 124.0239
L43.4932 124.1192
" />
<path d="M43.4932 124.1192
L43.1122 124.1192
" />
<path d="M43.1122 124.1192
L42.9217 124.0239
" />
<path d="M44.7313 123.9287
L44.8265 124.0239
" />
<path d="M44.8265 124.0239
L44.7313 124.1192
" />
<path d="M44.7313 124.1192
L44.6360 124.0239
" />
<path d="M44.6360 124.0239
L44.7313 123.9287
" />
<path d="M44.7313 123.9287
L44.7313 124.1192
" />
<path d="M44.7313 122.8811
L44.8265 122.9763
" />
<path d="M44.8265 122.9763
L44.7313 123.0715
" />
<path d="M44.7313 123.0715
L44.6360 122.9763
" />
<path d="M44.6360 122.9763
L44.7313 122.8811
" />
<path d="M44.7313 122.8811
L44.7313 123.0715
" />
</g></g>
<g style="fill:none; 
stroke:#000000; stroke-width:0.2070; stroke-opacity:1; 
stroke-linecap:round; stroke-linejoin:round;">
<path d="M26.4092 126.4043
L28.4092 128.4043
" />
<path d="M28.4092 126.4043
L26.4092 128.4043
" />
</g>
<g style="fill:none; 
stroke:#000000; stroke-width:0.2000; stroke-opacity:1; 
stroke-linecap:round; stroke-linejoin:round;">
<text x="30.4092" y="128.4043"
textLength="66.6762" font-size="2.6667" lengthAdjust="spacingAndGlyphs"
text-anchor="start" opacity="0" stroke-opacity="0">3.180mm / 0.1252" (4 holes) (not plated)</text>
<g class="stroked-text"><desc>3.180mm / 0.1252" (4 holes) (not plated)</desc>
<path d="M30.8265 126.3192
L32.0646 126.3192
" />
<path d="M32.0646 126.3192
L31.3979 127.0811
" />
<path d="M31.3979 127.0811
L31.6836 127.0811
" />
<path d="M31.6836 127.0811
L31.8741 127.1763
" />
<path d="M31.8741 127.1763
L31.9694 127.2715
" />
<path d="M31.9694 127.2715
L32.0646 127.4620
" />
<path d="M32.0646 127.4620
L32.0646 127.9382
" />
<path d="M32.0646 127.9382
L31.9694 128.1287
" />
<path d="M31.9694 128.1287
L31.8741 128.2239
" />
<path d="M31.8741 128.2239
L31.6836 128.3192
" />
<path d="M31.6836 128.3192
L31.1122 128.3192
" />
<path d="M31.1122 128.3192
L30.9217 128.2239
" />
<path d="M30.9217 128.2239
L30.8265 128.1287
" />
<path d="M32.9217 128.1287
L33.0170 128.2239
" />
<path d="M33.0170 128.2239
L32.9217 128.3192
" />
<path d="M32.9217 128.3192
L32.8265 128.2239
" />
<path d="M32.8265 128.2239
L32.9217 128.1287
" />
<path d="M32.9217 128.1287
L32.9217 128.3192
" />
<path d="M34.9217 128.3192
L33.7789 128.3192
" />
<path d="M34.3503 128.3192
L34.3503 126.3192
" />
<path d="M34.3503 126.3192
L34.1598 126.6049
" />
<path d="M34.1598 126.6049
L33.9694 126.7953
" />
<path d="M33.9694 126.7953
L33.7789 126.8906
" />
<path d="M36.0646 127.1763
L35.8741 127.0811
" />
<path d="M35.8741 127.0811
L35.7789 126.9858
" />
<path d="M35.7789 126.9858
L35.6836 126.7953
" />
<path d="M35.6836 126.7953
L35.6836 126.7001
" />
<path d="M35.6836 126.7001
L35.7789 126.5096
" />
<path d="M35.7789 126.5096
L35.8741 126.4144
" />
<path d="M35.8741 126.4144
L36.0646 126.3192
" />
<path d="M36.0646 126.3192
L36.4455 126.3192
" />
<path d="M36.4455 126.3192
L36.6360 126.4144
" />
<path d="M36.6360 126.4144
L36.7313 126.5096
" />
<path d="M36.7313 126.5096
L36.8265 126.7001
" />
<path d="M36.8265 126.7001
L36.8265 126.7953
" />
<path d="M36.8265 126.7953
L36.7313 126.9858
" />
<path d="M36.7313 126.9858
L36.6360 127.0811
" />
<path d="M36.6360 127.0811
L36.4455 127.1763
" />
<path d="M36.4455 127.1763
L36.0646 127.1763
" />
<path d="M36.0646 127.1763
L35.8741 127.2715
" />
<path d="M35.8741 127.2715
L35.7789 127.3668
" />
<path d="M35.7789 127.3668
L35.6836 127.5572
" />
<path d="M35.6836 127.5572
L35.6836 127.9382
" />
<path d="M35.6836 127.9382
L35.7789 128.1287
" />
<path d="M35.7789 128.1287
L35.8741 128.2239
" />
<path d="M35.8741 128.2239
L36.0646 128.3192
" />
<path d="M36.0646 128.3192
L36.4455 128.3192
" />
<path d="M36.4455 128.3192
L36.6360 128.2239
" />
<path d="M36.6360 128.2239
L36.7313 128.1287
" />
<path d="M36.7313 128.1287
L36.8265 127.9382
" />
<path d="M36.8265 127.9382
L36.8265 127.5572
" />
<path d="M36.8265 127.5572
L36.7313 127.3668
" />
<path d="M36.7313 127.3668
L36.6360 127.2715
" />
<path d="M36.6360 127.2715
L36.4455 127.1763
" />
<path d="M38.0646 126.3192
L38.2551 126.3192
" />
<path d="M38.2551 126.3192
L38.4455 126.4144
" />
<path d="M38.4455 126.4144
L38.5408 126.5096
" />
<path d="M38.5408 126.5096
L38.6360 126.7001
" />
<path d="M38.6360 126.7001
L38.7313 127.0811
" />
<path d="M38.7313 127.0811
L38.7313 127.5572
" />
<path d="M38.7313 127.5572
L38.6360 127.9382
" />
<path d="M38.6360 127.9382
L38.5408 128.1287
" />
<path d="M38.5408 128.1287
L38.4455 128.2239
" />
<path d="M38.4455 128.2239
L38.2551 128.3192
" />
<path d="M38.2551 128.3192
L38.0646 128.3192
" />
<path d="M38.0646 128.3192
L37.8741 128.2239
" />
<path d="M37.8741 128.2239
L37.7789 128.1287
" />
<path d="M37.7789 128.1287
L37.6836 127.9382
" />
<path d="M37.6836 127.9382
L37.5884 127.5572
" />
<path d="M37.5884 127.5572
L37.5884 127.0811
" />
<path d="M37.5884 127.0811
L37.6836 126.7001
" />
<path d="M37.6836 126.7001
L37.7789 126.5096
" />
<path d="M37.7789 126.5096
L37.8741 126.4144
" />
<path d="M37.8741 126.4144
L38.0646 126.3192
" />
<path d="M39.5884 128.3192
L39.5884 126.9858
" />
<path d="M39.5884 127.1763
L39.6836 127.0811
" />
<path d="M39.6836 127.0811
L39.8741 126.9858
" />
<path d="M39.8741 126.9858
L40.1598 126.9858
" />
<path d="M40.1598 126.9858
L40.3503 127.0811
" />
<path d="M40.3503 127.0811
L40.4455 127.2715
" />
<path d="M40.4455 127.2715
L40.4455 128.3192
" />
<path d="M40.4455 127.2715
L40.5408 127.0811
" />
<path d="M40.5408 127.0811
L40.7313 126.9858
" />
<path d="M40.7313 126.9858
L41.0170 126.9858
" />
<path d="M41.0170 126.9858
L41.2074 127.0811
" />
<path d="M41.2074 127.0811
L41.3027 127.2715
" />
<path d="M41.3027 127.2715
L41.3027 128.3192
" />
<path d="M42.2551 128.3192
L42.2551 126.9858
" />
<path d="M42.2551 127.1763
L42.3503 127.0811
" />
<path d="M42.3503 127.0811
L42.5408 126.9858
" />
<path d="M42.5408 126.9858
L42.8265 126.9858
" />
<path d="M42.8265 126.9858
L43.0170 127.0811
" />
<path d="M43.0170 127.0811
L43.1122 127.2715
" />
<path d="M43.1122 127.2715
L43.1122 128.3192
" />
<path d="M43.1122 127.2715
L43.2074 127.0811
" />
<path d="M43.2074 127.0811
L43.3979 126.9858
" />
<path d="M43.3979 126.9858
L43.6836 126.9858
" />
<path d="M43.6836 126.9858
L43.8741 127.0811
" />
<path d="M43.8741 127.0811
L43.9694 127.2715
" />
<path d="M43.9694 127.2715
L43.9694 128.3192
" />
<path d="M47.8741 126.2239
L46.1598 128.7953
" />
<path d="M50.4455 126.3192
L50.6360 126.3192
" />
<path d="M50.6360 126.3192
L50.8265 126.4144
" />
<path d="M50.8265 126.4144
L50.9217 126.5096
" />
<path d="M50.9217 126.5096
L51.0170 126.7001
" />
<path d="M51.0170 126.7001
L51.1122 127.0811
" />
<path d="M51.1122 127.0811
L51.1122 127.5572
" />
<path d="M51.1122 127.5572
L51.0170 127.9382
" />
<path d="M51.0170 127.9382
L50.9217 128.1287
" />
<path d="M50.9217 128.1287
L50.8265 128.2239
" />
<path d="M50.8265 128.2239
L50.6360 128.3192
" />
<path d="M50.6360 128.3192
L50.4455 128.3192
" />
<path d="M50.4455 128.3192
L50.2551 128.2239
" />
<path d="M50.2551 128.2239
L50.1598 128.1287
" />
<path d="M50.1598 128.1287
L50.0646 127.9382
" />
<path d="M50.0646 127.9382
L49.9693 127.5572
" />
<path d="M49.9693 127.5572
L49.9693 127.0811
" />
<path d="M49.9693 127.0811
L50.0646 126.7001
" />
<path d="M50.0646 126.7001
L50.1598 126.5096
" />
<path d="M50.1598 126.5096
L50.2551 126.4144
" />
<path d="M50.2551 126.4144
L50.4455 126.3192
" />
<path d="M51.9693 128.1287
L52.0646 128.2239
" />
<path d="M52.0646 128.2239
L51.9693 128.3192
" />
<path d="M51.9693 128.3192
L51.8741 128.2239
" />
<path d="M51.8741 128.2239
L51.9693 128.1287
" />
<path d="M51.9693 128.1287
L51.9693 128.3192
" />
<path d="M53.9693 128.3192
L52.8265 128.3192
" />
<path d="M53.3979 128.3192
L53.3979 126.3192
" />
<path d="M53.3979 126.3192
L53.2074 126.6049
" />
<path d="M53.2074 126.6049
L53.0170 126.7953
" />
<path d="M53.0170 126.7953
L52.8265 126.8906
" />
<path d="M54.7313 126.5096
L54.8265 126.4144
" />
<path d="M54.8265 126.4144
L55.0170 126.3192
" />
<path d="M55.0170 126.3192
L55.4932 126.3192
" />
<path d="M55.4932 126.3192
L55.6836 126.4144
" />
<path d="M55.6836 126.4144
L55.7789 126.5096
" />
<path d="M55.7789 126.5096
L55.8741 126.7001
" />
<path d="M55.8741 126.7001
L55.8741 126.8906
" />
<path d="M55.8741 126.8906
L55.7789 127.1763
" />
<path d="M55.7789 127.1763
L54.6360 128.3192
" />
<path d="M54.6360 128.3192
L55.8741 128.3192
" />
<path d="M57.6836 126.3192
L56.7312 126.3192
" />
<path d="M56.7312 126.3192
L56.6360 127.2715
" />
<path d="M56.6360 127.2715
L56.7312 127.1763
" />
<path d="M56.7312 127.1763
L56.9217 127.0811
" />
<path d="M56.9217 127.0811
L57.3979 127.0811
" />
<path d="M57.3979 127.0811
L57.5884 127.1763
" />
<path d="M57.5884 127.1763
L57.6836 127.2715
" />
<path d="M57.6836 127.2715
L57.7789 127.4620
" />
<path d="M57.7789 127.4620
L57.7789 127.9382
" />
<path d="M57.7789 127.9382
L57.6836 128.1287
" />
<path d="M57.6836 128.1287
L57.5884 128.2239
" />
<path d="M57.5884 128.2239
L57.3979 128.3192
" />
<path d="M57.3979 128.3192
L56.9217 128.3192
" />
<path d="M56.9217 128.3192
L56.7312 128.2239
" />
<path d="M56.7312 128.2239
L56.6360 128.1287
" />
<path d="M58.5408 126.5096
L58.6360 126.4144
" />
<path d="M58.6360 126.4144
L58.8265 126.3192
" />
<path d="M58.8265 126.3192
L59.3027 126.3192
" />
<path d="M59.3027 126.3192
L59.4932 126.4144
" />
<path d="M59.4932 126.4144
L59.5884 126.5096
" />
<path d="M59.5884 126.5096
L59.6836 126.7001
" />
<path d="M59.6836 126.7001
L59.6836 126.8906
" />
<path d="M59.6836 126.8906
L59.5884 127.1763
" />
<path d="M59.5884 127.1763
L58.4455 128.3192
" />
<path d="M58.4455 128.3192
L59.6836 128.3192
" />
<path d="M60.4455 126.3192
L60.4455 126.7001
" />
<path d="M61.2074 126.3192
L61.2074 126.7001
" />
<path d="M64.1598 129.0811
L64.0646 128.9858
" />
<path d="M64.0646 128.9858
L63.8741 128.7001
" />
<path d="M63.8741 128.7001
L63.7789 128.5096
" />
<path d="M63.7789 128.5096
L63.6836 128.2239
" />
<path d="M63.6836 128.2239
L63.5884 127.7477
" />
<path d="M63.5884 127.7477
L63.5884 127.3668
" />
<path d="M63.5884 127.3668
L63.6836 126.8906
" />
<path d="M63.6836 126.8906
L63.7789 126.6049
" />
<path d="M63.7789 126.6049
L63.8741 126.4144
" />
<path d="M63.8741 126.4144
L64.0646 126.1287
" />
<path d="M64.0646 126.1287
L64.1598 126.0334
" />
<path d="M65.7789 126.9858
L65.7789 128.3192
" />
<path d="M65.3027 126.2239
L64.8265 127.6525
" />
<path d="M64.8265 127.6525
L66.0646 127.6525
" />
<path d="M68.3503 128.3192
L68.3503 126.3192
" />
<path d="M69.2074 128.3192
L69.2074 127.2715
" />
<path d="M69.2074 127.2715
L69.1122 127.0811
" />
<path d="M69.1122 127.0811
L68.9217 126.9858
" />
<path d="M68.9217 126.9858
L68.6360 126.9858
" />
<path d="M68.6360 126.9858
L68.4455 127.0811
" />
<path d="M68.4455 127.0811
L68.3503 127.1763
" />
<path d="M70.4455 128.3192
L70.2551 128.2239
" />
<path d="M70.2551 128.2239
L70.1598 128.1287
" />
<path d="M70.1598 128.1287
L70.0646 127.9382
" />
<path d="M70.0646 127.9382
L70.0646 127.3668
" />
<path d="M70.0646 127.3668
L70.1598 127.1763
" />
<path d="M70.1598 127.1763
L70.2551 127.0811
" />
<path d="M70.2551 127.0811
L70.4455 126.9858
" />
<path d="M70.4455 126.9858
L70.7312 126.9858
" />
<path d="M70.7312 126.9858
L70.9217 127.0811
" />
<path d="M70.9217 127.0811
L71.0170 127.1763
" />
<path d="M71.0170 127.1763
L71.1122 127.3668
" />
<path d="M71.1122 127.3668
L71.1122 127.9382
" />
<path d="M71.1122 127.9382
L71.0170 128.1287
" />
<path d="M71.0170 128.1287
L70.9217 128.2239
" />
<path d="M70.9217 128.2239
L70.7312 128.3192
" />
<path d="M70.7312 128.3192
L70.4455 128.3192
" />
<path d="M72.2551 128.3192
L72.0646 128.2239
" />
<path d="M72.0646 128.2239
L71.9693 128.0334
" />
<path d="M71.9693 128.0334
L71.9693 126.3192
" />
<path d="M73.7789 128.2239
L73.5884 128.3192
" />
<path d="M73.5884 128.3192
L73.2074 128.3192
" />
<path d="M73.2074 128.3192
L73.0170 128.2239
" />
<path d="M73.0170 128.2239
L72.9217 128.0334
" />
<path d="M72.9217 128.0334
L72.9217 127.2715
" />
<path d="M72.9217 127.2715
L73.0170 127.0811
" />
<path d="M73.0170 127.0811
L73.2074 126.9858
" />
<path d="M73.2074 126.9858
L73.5884 126.9858
" />
<path d="M73.5884 126.9858
L73.7789 127.0811
" />
<path d="M73.7789 127.0811
L73.8741 127.2715
" />
<path d="M73.8741 127.2715
L73.8741 127.4620
" />
<path d="M73.8741 127.4620
L72.9217 127.6525
" />
<path d="M74.6360 128.2239
L74.8265 128.3192
" />
<path d="M74.8265 128.3192
L75.2074 128.3192
" />
<path d="M75.2074 128.3192
L75.3979 128.2239
" />
<path d="M75.3979 128.2239
L75.4931 128.0334
" />
<path d="M75.4931 128.0334
L75.4931 127.9382
" />
<path d="M75.4931 127.9382
L75.3979 127.7477
" />
<path d="M75.3979 127.7477
L75.2074 127.6525
" />
<path d="M75.2074 127.6525
L74.9217 127.6525
" />
<path d="M74.9217 127.6525
L74.7312 127.5572
" />
<path d="M74.7312 127.5572
L74.6360 127.3668
" />
<path d="M74.6360 127.3668
L74.6360 127.2715
" />
<path d="M74.6360 127.2715
L74.7312 127.0811
" />
<path d="M74.7312 127.0811
L74.9217 126.9858
" />
<path d="M74.9217 126.9858
L75.2074 126.9858
" />
<path d="M75.2074 126.9858
L75.3979 127.0811
" />
<path d="M76.1598 129.0811
L76.2551 128.9858
" />
<path d="M76.2551 128.9858
L76.4455 128.7001
" />
<path d="M76.4455 128.7001
L76.5408 128.5096
" />
<path d="M76.5408 128.5096
L76.6360 128.2239
" />
<path d="M76.6360 128.2239
L76.7312 127.7477
" />
<path d="M76.7312 127.7477
L76.7312 127.3668
" />
<path d="M76.7312 127.3668
L76.6360 126.8906
" />
<path d="M76.6360 126.8906
L76.5408 126.6049
" />
<path d="M76.5408 126.6049
L76.4455 126.4144
" />
<path d="M76.4455 126.4144
L76.2551 126.1287
" />
<path d="M76.2551 126.1287
L76.1598 126.0334
" />
<path d="M79.7789 129.0811
L79.6836 128.9858
" />
<path d="M79.6836 128.9858
L79.4931 128.7001
" />
<path d="M79.4931 128.7001
L79.3979 128.5096
" />
<path d="M79.3979 128.5096
L79.3027 128.2239
" />
<path d="M79.3027 128.2239
L79.2074 127.7477
" />
<path d="M79.2074 127.7477
L79.2074 127.3668
" />
<path d="M79.2074 127.3668
L79.3027 126.8906
" />
<path d="M79.3027 126.8906
L79.3979 126.6049
" />
<path d="M79.3979 126.6049
L79.4931 126.4144
" />
<path d="M79.4931 126.4144
L79.6836 126.1287
" />
<path d="M79.6836 126.1287
L79.7789 126.0334
" />
<path d="M80.5408 126.9858
L80.5408 128.3192
" />
<path d="M80.5408 127.1763
L80.6360 127.0811
" />
<path d="M80.6360 127.0811
L80.8265 126.9858
" />
<path d="M80.8265 126.9858
L81.1122 126.9858
" />
<path d="M81.1122 126.9858
L81.3027 127.0811
" />
<path d="M81.3027 127.0811
L81.3979 127.2715
" />
<path d="M81.3979 127.2715
L81.3979 128.3192
" />
<path d="M82.6360 128.3192
L82.4455 128.2239
" />
<path d="M82.4455 128.2239
L82.3503 128.1287
" />
<path d="M82.3503 128.1287
L82.2551 127.9382
" />
<path d="M82.2551 127.9382
L82.2551 127.3668
" />
<path d="M82.2551 127.3668
L82.3503 127.1763
" />
<path d="M82.3503 127.1763
L82.4455 127.0811
" />
<path d="M82.4455 127.0811
L82.6360 126.9858
" />
<path d="M82.6360 126.9858
L82.9217 126.9858
" />
<path d="M82.9217 126.9858
L83.1122 127.0811
" />
<path d="M83.1122 127.0811
L83.2074 127.1763
" />
<path d="M83.2074 127.1763
L83.3027 127.3668
" />
<path d="M83.3027 127.3668
L83.3027 127.9382
" />
<path d="M83.3027 127.9382
L83.2074 128.1287
" />
<path d="M83.2074 128.1287
L83.1122 128.2239
" />
<path d="M83.1122 128.2239
L82.9217 128.3192
" />
<path d="M82.9217 128.3192
L82.6360 128.3192
" />
<path d="M83.8741 126.9858
L84.6360 126.9858
" />
<path d="M84.1598 126.3192
L84.1598 128.0334
" />
<path d="M84.1598 128.0334
L84.2551 128.2239
" />
<path d="M84.2551 128.2239
L84.4455 128.3192
" />
<path d="M84.4455 128.3192
L84.6360 128.3192
" />
<path d="M86.8265 126.9858
L86.8265 128.9858
" />
<path d="M86.8265 127.0811
L87.0170 126.9858
" />
<path d="M87.0170 126.9858
L87.3979 126.9858
" />
<path d="M87.3979 126.9858
L87.5884 127.0811
" />
<path d="M87.5884 127.0811
L87.6836 127.1763
" />
<path d="M87.6836 127.1763
L87.7789 127.3668
" />
<path d="M87.7789 127.3668
L87.7789 127.9382
" />
<path d="M87.7789 127.9382
L87.6836 128.1287
" />
<path d="M87.6836 128.1287
L87.5884 128.2239
" />
<path d="M87.5884 128.2239
L87.3979 128.3192
" />
<path d="M87.3979 128.3192
L87.0170 128.3192
" />
<path d="M87.0170 128.3192
L86.8265 128.2239
" />
<path d="M88.9217 128.3192
L88.7312 128.2239
" />
<path d="M88.7312 128.2239
L88.6360 128.0334
" />
<path d="M88.6360 128.0334
L88.6360 126.3192
" />
<path d="M90.5408 128.3192
L90.5408 127.2715
" />
<path d="M90.5408 127.2715
L90.4455 127.0811
" />
<path d="M90.4455 127.0811
L90.2550 126.9858
" />
<path d="M90.2550 126.9858
L89.8741 126.9858
" />
<path d="M89.8741 126.9858
L89.6836 127.0811
" />
<path d="M90.5408 128.2239
L90.3503 128.3192
" />
<path d="M90.3503 128.3192
L89.8741 128.3192
" />
<path d="M89.8741 128.3192
L89.6836 128.2239
" />
<path d="M89.6836 128.2239
L89.5884 128.0334
" />
<path d="M89.5884 128.0334
L89.5884 127.8430
" />
<path d="M89.5884 127.8430
L89.6836 127.6525
" />
<path d="M89.6836 127.6525
L89.8741 127.5572
" />
<path d="M89.8741 127.5572
L90.3503 127.5572
" />
<path d="M90.3503 127.5572
L90.5408 127.4620
" />
<path d="M91.2074 126.9858
L91.9693 126.9858
" />
<path d="M91.4931 126.3192
L91.4931 128.0334
" />
<path d="M91.4931 128.0334
L91.5884 128.2239
" />
<path d="M91.5884 128.2239
L91.7789 128.3192
" />
<path d="M91.7789 128.3192
L91.9693 128.3192
" />
<path d="M93.3979 128.2239
L93.2074 128.3192
" />
<path d="M93.2074 128.3192
L92.8265 128.3192
" />
<path d="M92.8265 128.3192
L92.6360 128.2239
" />
<path d="M92.6360 128.2239
L92.5408 128.0334
" />
<path d="M92.5408 128.0334
L92.5408 127.2715
" />
<path d="M92.5408 127.2715
L92.6360 127.0811
" />
<path d="M92.6360 127.0811
L92.8265 126.9858
" />
<path d="M92.8265 126.9858
L93.2074 126.9858
" />
<path d="M93.2074 126.9858
L93.3979 127.0811
" />
<path d="M93.3979 127.0811
L93.4931 127.2715
" />
<path d="M93.4931 127.2715
L93.4931 127.4620
" />
<path d="M93.4931 127.4620
L92.5408 127.6525
" />
<path d="M95.2074 128.3192
L95.2074 126.3192
" />
<path d="M95.2074 128.2239
L95.0170 128.3192
" />
<path d="M95.0170 128.3192
L94.6360 128.3192
" />
<path d="M94.6360 128.3192
L94.4455 128.2239
" />
<path d="M94.4455 128.2239
L94.3503 128.1287
" />
<path d="M94.3503 128.1287
L94.2550 127.9382
" />
<path d="M94.2550 127.9382
L94.2550 127.3668
" />
<path d="M94.2550 127.3668
L94.3503 127.1763
" />
<path d="M94.3503 127.1763
L94.4455 127.0811
" />
<path d="M94.4455 127.0811
L94.6360 126.9858
" />
<path d="M94.6360 126.9858
L95.0170 126.9858
" />
<path d="M95.0170 126.9858
L95.2074 127.0811
" />
<path d="M95.9693 129.0811
L96.0646 128.9858
" />
<path d="M96.0646 128.9858
L96.2550 128.7001
" />
<path d="M96.2550 128.7001
L96.3503 128.5096
" />
<path d="M96.3503 128.5096
L96.4455 128.2239
" />
<path d="M96.4455 128.2239
L96.5408 127.7477
" />
<path d="M96.5408 127.7477
L96.5408 127.3668
" />
<path d="M96.5408 127.3668
L96.4455 126.8906
" />
<path d="M96.4455 126.8906
L96.3503 126.6049
" />
<path d="M96.3503 126.6049
L96.2550 126.4144
" />
<path d="M96.2550 126.4144
L96.0646 126.1287
" />
<path d="M96.0646 126.1287
L95.9693 126.0334
" />
</g></g>
<g style="fill:none; 
stroke:#000000; stroke-width:0.2070; stroke-opacity:1; 
stroke-linecap:round; stroke-linejoin:round;">
<circle cx="27.4092" cy="130.6043" r="1.0000" /> 
</g>
<g style="fill:none; 
stroke:#000000; stroke-width:0.2000; stroke-opacity:1; 
stroke-linecap:round; stroke-linejoin:round;">
<text x="30.4092" y="131.6043"
textLength="66.6762" font-size="2.6667" lengthAdjust="spacingAndGlyphs"
text-anchor="start" opacity="0" stroke-opacity="0">3.200mm / 0.1260" (6 holes) (not plated)</text>
<g class="stroked-text"><desc>3.200mm / 0.1260" (6 holes) (not plated)</desc>
<path d="M30.8265 129.5192
L32.0646 129.5192
" />
<path d="M32.0646 129.5192
L31.3979 130.2811
" />
<path d="M31.3979 130.2811
L31.6836 130.2811
" />
<path d="M31.6836 130.2811
L31.8741 130.3763
" />
<path d="M31.8741 130.3763
L31.9694 130.4715
" />
<path d="M31.9694 130.4715
L32.0646 130.6620
" />
<path d="M32.0646 130.6620
L32.0646 131.1382
" />
<path d="M32.0646 131.1382
L31.9694 131.3287
" />
<path d="M31.9694 131.3287
L31.8741 131.4239
" />
<path d="M31.8741 131.4239
L31.6836 131.5192
" />
<path d="M31.6836 131.5192
L31.1122 131.5192
" />
<path d="M31.1122 131.5192
L30.9217 131.4239
" />
<path d="M30.9217 131.4239
L30.8265 131.3287
" />
<path d="M32.9217 131.3287
L33.0170 131.4239
" />
<path d="M33.0170 131.4239
L32.9217 131.5192
" />
<path d="M32.9217 131.5192
L32.8265 131.4239
" />
<path d="M32.8265 131.4239
L32.9217 131.3287
" />
<path d="M32.9217 131.3287
L32.9217 131.5192
" />
<path d="M33.7789 129.7096
L33.8741 129.6144
" />
<path d="M33.8741 129.6144
L34.0646 129.5192
" />
<path d="M34.0646 129.5192
L34.5408 129.5192
" />
<path d="M34.5408 129.5192
L34.7313 129.6144
" />
<path d="M34.7313 129.6144
L34.8265 129.7096
" />
<path d="M34.8265 129.7096
L34.9217 129.9001
" />
<path d="M34.9217 129.9001
L34.9217 130.0906
" />
<path d="M34.9217 130.0906
L34.8265 130.3763
" />
<path d="M34.8265 130.3763
L33.6836 131.5192
" />
<path d="M33.6836 131.5192
L34.9217 131.5192
" />
<path d="M36.1598 129.5192
L36.3503 129.5192
" />
<path d="M36.3503 129.5192
L36.5408 129.6144
" />
<path d="M36.5408 129.6144
L36.6360 129.7096
" />
<path d="M36.6360 129.7096
L36.7313 129.9001
" />
<path d="M36.7313 129.9001
L36.8265 130.2811
" />
<path d="M36.8265 130.2811
L36.8265 130.7572
" />
<path d="M36.8265 130.7572
L36.7313 131.1382
" />
<path d="M36.7313 131.1382
L36.6360 131.3287
" />
<path d="M36.6360 131.3287
L36.5408 131.4239
" />
<path d="M36.5408 131.4239
L36.3503 131.5192
" />
<path d="M36.3503 131.5192
L36.1598 131.5192
" />
<path d="M36.1598 131.5192
L35.9694 131.4239
" />
<path d="M35.9694 131.4239
L35.8741 131.3287
" />
<path d="M35.8741 131.3287
L35.7789 131.1382
" />
<path d="M35.7789 131.1382
L35.6836 130.7572
" />
<path d="M35.6836 130.7572
L35.6836 130.2811
" />
<path d="M35.6836 130.2811
L35.7789 129.9001
" />
<path d="M35.7789 129.9001
L35.8741 129.7096
" />
<path d="M35.8741 129.7096
L35.9694 129.6144
" />
<path d="M35.9694 129.6144
L36.1598 129.5192
" />
<path d="M38.0646 129.5192
L38.2551 129.5192
" />
<path d="M38.2551 129.5192
L38.4455 129.6144
" />
<path d="M38.4455 129.6144
L38.5408 129.7096
" />
<path d="M38.5408 129.7096
L38.6360 129.9001
" />
<path d="M38.6360 129.9001
L38.7313 130.2811
" />
<path d="M38.7313 130.2811
L38.7313 130.7572
" />
<path d="M38.7313 130.7572
L38.6360 131.1382
" />
<path d="M38.6360 131.1382
L38.5408 131.3287
" />
<path d="M38.5408 131.3287
L38.4455 131.4239
" />
<path d="M38.4455 131.4239
L38.2551 131.5192
" />
<path d="M38.2551 131.5192
L38.0646 131.5192
" />
<path d="M38.0646 131.5192
L37.8741 131.4239
" />
<path d="M37.8741 131.4239
L37.7789 131.3287
" />
<path d="M37.7789 131.3287
L37.6836 131.1382
" />
<path d="M37.6836 131.1382
L37.5884 130.7572
" />
<path d="M37.5884 130.7572
L37.5884 130.2811
" />
<path d="M37.5884 130.2811
L37.6836 129.9001
" />
<path d="M37.6836 129.9001
L37.7789 129.7096
" />
<path d="M37.7789 129.7096
L37.8741 129.6144
" />
<path d="M37.8741 129.6144
L38.0646 129.5192
" />
<path d="M39.5884 131.5192
L39.5884 130.1858
" />
<path d="M39.5884 130.3763
L39.6836 130.2811
" />
<path d="M39.6836 130.2811
L39.8741 130.1858
" />
<path d="M39.8741 130.1858
L40.1598 130.1858
" />
<path d="M40.1598 130.1858
L40.3503 130.2811
" />
<path d="M40.3503 130.2811
L40.4455 130.4715
" />
<path d="M40.4455 130.4715
L40.4455 131.5192
" />
<path d="M40.4455 130.4715
L40.5408 130.2811
" />
<path d="M40.5408 130.2811
L40.7313 130.1858
" />
<path d="M40.7313 130.1858
L41.0170 130.1858
" />
<path d="M41.0170 130.1858
L41.2074 130.2811
" />
<path d="M41.2074 130.2811
L41.3027 130.4715
" />
<path d="M41.3027 130.4715
L41.3027 131.5192
" />
<path d="M42.2551 131.5192
L42.2551 130.1858
" />
<path d="M42.2551 130.3763
L42.3503 130.2811
" />
<path d="M42.3503 130.2811
L42.5408 130.1858
" />
<path d="M42.5408 130.1858
L42.8265 130.1858
" />
<path d="M42.8265 130.1858
L43.0170 130.2811
" />
<path d="M43.0170 130.2811
L43.1122 130.4715
" />
<path d="M43.1122 130.4715
L43.1122 131.5192
" />
<path d="M43.1122 130.4715
L43.2074 130.2811
" />
<path d="M43.2074 130.2811
L43.3979 130.1858
" />
<path d="M43.3979 130.1858
L43.6836 130.1858
" />
<path d="M43.6836 130.1858
L43.8741 130.2811
" />
<path d="M43.8741 130.2811
L43.9694 130.4715
" />
<path d="M43.9694 130.4715
L43.9694 131.5192
" />
<path d="M47.8741 129.4239
L46.1598 131.9953
" />
<path d="M50.4455 129.5192
L50.6360 129.5192
" />
<path d="M50.6360 129.5192
L50.8265 129.6144
" />
<path d="M50.8265 129.6144
L50.9217 129.7096
" />
<path d="M50.9217 129.7096
L51.0170 129.9001
" />
<path d="M51.0170 129.9001
L51.1122 130.2811
" />
<path d="M51.1122 130.2811
L51.1122 130.7572
" />
<path d="M51.1122 130.7572
L51.0170 131.1382
" />
<path d="M51.0170 131.1382
L50.9217 131.3287
" />
<path d="M50.9217 131.3287
L50.8265 131.4239
" />
<path d="M50.8265 131.4239
L50.6360 131.5192
" />
<path d="M50.6360 131.5192
L50.4455 131.5192
" />
<path d="M50.4455 131.5192
L50.2551 131.4239
" />
<path d="M50.2551 131.4239
L50.1598 131.3287
" />
<path d="M50.1598 131.3287
L50.0646 131.1382
" />
<path d="M50.0646 131.1382
L49.9693 130.7572
" />
<path d="M49.9693 130.7572
L49.9693 130.2811
" />
<path d="M49.9693 130.2811
L50.0646 129.9001
" />
<path d="M50.0646 129.9001
L50.1598 129.7096
" />
<path d="M50.1598 129.7096
L50.2551 129.6144
" />
<path d="M50.2551 129.6144
L50.4455 129.5192
" />
<path d="M51.9693 131.3287
L52.0646 131.4239
" />
<path d="M52.0646 131.4239
L51.9693 131.5192
" />
<path d="M51.9693 131.5192
L51.8741 131.4239
" />
<path d="M51.8741 131.4239
L51.9693 131.3287
" />
<path d="M51.9693 131.3287
L51.9693 131.5192
" />
<path d="M53.9693 131.5192
L52.8265 131.5192
" />
<path d="M53.3979 131.5192
L53.3979 129.5192
" />
<path d="M53.3979 129.5192
L53.2074 129.8049
" />
<path d="M53.2074 129.8049
L53.0170 129.9953
" />
<path d="M53.0170 129.9953
L52.8265 130.0906
" />
<path d="M54.7313 129.7096
L54.8265 129.6144
" />
<path d="M54.8265 129.6144
L55.0170 129.5192
" />
<path d="M55.0170 129.5192
L55.4932 129.5192
" />
<path d="M55.4932 129.5192
L55.6836 129.6144
" />
<path d="M55.6836 129.6144
L55.7789 129.7096
" />
<path d="M55.7789 129.7096
L55.8741 129.9001
" />
<path d="M55.8741 129.9001
L55.8741 130.0906
" />
<path d="M55.8741 130.0906
L55.7789 130.3763
" />
<path d="M55.7789 130.3763
L54.6360 131.5192
" />
<path d="M54.6360 131.5192
L55.8741 131.5192
" />
<path d="M57.5884 129.5192
L57.2074 129.5192
" />
<path d="M57.2074 129.5192
L57.0170 129.6144
" />
<path d="M57.0170 129.6144
L56.9217 129.7096
" />
<path d="M56.9217 129.7096
L56.7312 129.9953
" />
<path d="M56.7312 129.9953
L56.6360 130.3763
" />
<path d="M56.6360 130.3763
L56.6360 131.1382
" />
<path d="M56.6360 131.1382
L56.7312 131.3287
" />
<path d="M56.7312 131.3287
L56.8265 131.4239
" />
<path d="M56.8265 131.4239
L57.0170 131.5192
" />
<path d="M57.0170 131.5192
L57.3979 131.5192
" />
<path d="M57.3979 131.5192
L57.5884 131.4239
" />
<path d="M57.5884 131.4239
L57.6836 131.3287
" />
<path d="M57.6836 131.3287
L57.7789 131.1382
" />
<path d="M57.7789 131.1382
L57.7789 130.6620
" />
<path d="M57.7789 130.6620
L57.6836 130.4715
" />
<path d="M57.6836 130.4715
L57.5884 130.3763
" />
<path d="M57.5884 130.3763
L57.3979 130.2811
" />
<path d="M57.3979 130.2811
L57.0170 130.2811
" />
<path d="M57.0170 130.2811
L56.8265 130.3763
" />
<path d="M56.8265 130.3763
L56.7312 130.4715
" />
<path d="M56.7312 130.4715
L56.6360 130.6620
" />
<path d="M59.0170 129.5192
L59.2074 129.5192
" />
<path d="M59.2074 129.5192
L59.3979 129.6144
" />
<path d="M59.3979 129.6144
L59.4932 129.7096
" />
<path d="M59.4932 129.7096
L59.5884 129.9001
" />
<path d="M59.5884 129.9001
L59.6836 130.2811
" />
<path d="M59.6836 130.2811
L59.6836 130.7572
" />
<path d="M59.6836 130.7572
L59.5884 131.1382
" />
<path d="M59.5884 131.1382
L59.4932 131.3287
" />
<path d="M59.4932 131.3287
L59.3979 131.4239
" />
<path d="M59.3979 131.4239
L59.2074 131.5192
" />
<path d="M59.2074 131.5192
L59.0170 131.5192
" />
<path d="M59.0170 131.5192
L58.8265 131.4239
" />
<path d="M58.8265 131.4239
L58.7313 131.3287
" />
<path d="M58.7313 131.3287
L58.6360 131.1382
" />
<path d="M58.6360 131.1382
L58.5408 130.7572
" />
<path d="M58.5408 130.7572
L58.5408 130.2811
" />
<path d="M58.5408 130.2811
L58.6360 129.9001
" />
<path d="M58.6360 129.9001
L58.7313 129.7096
" />
<path d="M58.7313 129.7096
L58.8265 129.6144
" />
<path d="M58.8265 129.6144
L59.0170 129.5192
" />
<path d="M60.4455 129.5192
L60.4455 129.9001
" />
<path d="M61.2074 129.5192
L61.2074 129.9001
" />
<path d="M64.1598 132.2811
L64.0646 132.1858
" />
<path d="M64.0646 132.1858
L63.8741 131.9001
" />
<path d="M63.8741 131.9001
L63.7789 131.7096
" />
<path d="M63.7789 131.7096
L63.6836 131.4239
" />
<path d="M63.6836 131.4239
L63.5884 130.9477
" />
<path d="M63.5884 130.9477
L63.5884 130.5668
" />
<path d="M63.5884 130.5668
L63.6836 130.0906
" />
<path d="M63.6836 130.0906
L63.7789 129.8049
" />
<path d="M63.7789 129.8049
L63.8741 129.6144
" />
<path d="M63.8741 129.6144
L64.0646 129.3287
" />
<path d="M64.0646 129.3287
L64.1598 129.2334
" />
<path d="M65.7789 129.5192
L65.3979 129.5192
" />
<path d="M65.3979 129.5192
L65.2074 129.6144
" />
<path d="M65.2074 129.6144
L65.1122 129.7096
" />
<path d="M65.1122 129.7096
L64.9217 129.9953
" />
<path d="M64.9217 129.9953
L64.8265 130.3763
" />
<path d="M64.8265 130.3763
L64.8265 131.1382
" />
<path d="M64.8265 131.1382
L64.9217 131.3287
" />
<path d="M64.9217 131.3287
L65.0170 131.4239
" />
<path d="M65.0170 131.4239
L65.2074 131.5192
" />
<path d="M65.2074 131.5192
L65.5884 131.5192
" />
<path d="M65.5884 131.5192
L65.7789 131.4239
" />
<path d="M65.7789 131.4239
L65.8741 131.3287
" />
<path d="M65.8741 131.3287
L65.9693 131.1382
" />
<path d="M65.9693 131.1382
L65.9693 130.6620
" />
<path d="M65.9693 130.6620
L65.8741 130.4715
" />
<path d="M65.8741 130.4715
L65.7789 130.3763
" />
<path d="M65.7789 130.3763
L65.5884 130.2811
" />
<path d="M65.5884 130.2811
L65.2074 130.2811
" />
<path d="M65.2074 130.2811
L65.0170 130.3763
" />
<path d="M65.0170 130.3763
L64.9217 130.4715
" />
<path d="M64.9217 130.4715
L64.8265 130.6620
" />
<path d="M68.3503 131.5192
L68.3503 129.5192
" />
<path d="M69.2074 131.5192
L69.2074 130.4715
" />
<path d="M69.2074 130.4715
L69.1122 130.2811
" />
<path d="M69.1122 130.2811
L68.9217 130.1858
" />
<path d="M68.9217 130.1858
L68.6360 130.1858
" />
<path d="M68.6360 130.1858
L68.4455 130.2811
" />
<path d="M68.4455 130.2811
L68.3503 130.3763
" />
<path d="M70.4455 131.5192
L70.2551 131.4239
" />
<path d="M70.2551 131.4239
L70.1598 131.3287
" />
<path d="M70.1598 131.3287
L70.0646 131.1382
" />
<path d="M70.0646 131.1382
L70.0646 130.5668
" />
<path d="M70.0646 130.5668
L70.1598 130.3763
" />
<path d="M70.1598 130.3763
L70.2551 130.2811
" />
<path d="M70.2551 130.2811
L70.4455 130.1858
" />
<path d="M70.4455 130.1858
L70.7312 130.1858
" />
<path d="M70.7312 130.1858
L70.9217 130.2811
" />
<path d="M70.9217 130.2811
L71.0170 130.3763
" />
<path d="M71.0170 130.3763
L71.1122 130.5668
" />
<path d="M71.1122 130.5668
L71.1122 131.1382
" />
<path d="M71.1122 131.1382
L71.0170 131.3287
" />
<path d="M71.0170 131.3287
L70.9217 131.4239
" />
<path d="M70.9217 131.4239
L70.7312 131.5192
" />
<path d="M70.7312 131.5192
L70.4455 131.5192
" />
<path d="M72.2551 131.5192
L72.0646 131.4239
" />
<path d="M72.0646 131.4239
L71.9693 131.2334
" />
<path d="M71.9693 131.2334
L71.9693 129.5192
" />
<path d="M73.7789 131.4239
L73.5884 131.5192
" />
<path d="M73.5884 131.5192
L73.2074 131.5192
" />
<path d="M73.2074 131.5192
L73.0170 131.4239
" />
<path d="M73.0170 131.4239
L72.9217 131.2334
" />
<path d="M72.9217 131.2334
L72.9217 130.4715
" />
<path d="M72.9217 130.4715
L73.0170 130.2811
" />
<path d="M73.0170 130.2811
L73.2074 130.1858
" />
<path d="M73.2074 130.1858
L73.5884 130.1858
" />
<path d="M73.5884 130.1858
L73.7789 130.2811
" />
<path d="M73.7789 130.2811
L73.8741 130.4715
" />
<path d="M73.8741 130.4715
L73.8741 130.6620
" />
<path d="M73.8741 130.6620
L72.9217 130.8525
" />
<path d="M74.6360 131.4239
L74.8265 131.5192
" />
<path d="M74.8265 131.5192
L75.2074 131.5192
" />
<path d="M75.2074 131.5192
L75.3979 131.4239
" />
<path d="M75.3979 131.4239
L75.4931 131.2334
" />
<path d="M75.4931 131.2334
L75.4931 131.1382
" />
<path d="M75.4931 131.1382
L75.3979 130.9477
" />
<path d="M75.3979 130.9477
L75.2074 130.8525
" />
<path d="M75.2074 130.8525
L74.9217 130.8525
" />
<path d="M74.9217 130.8525
L74.7312 130.7572
" />
<path d="M74.7312 130.7572
L74.6360 130.5668
" />
<path d="M74.6360 130.5668
L74.6360 130.4715
" />
<path d="M74.6360 130.4715
L74.7312 130.2811
" />
<path d="M74.7312 130.2811
L74.9217 130.1858
" />
<path d="M74.9217 130.1858
L75.2074 130.1858
" />
<path d="M75.2074 130.1858
L75.3979 130.2811
" />
<path d="M76.1598 132.2811
L76.2551 132.1858
" />
<path d="M76.2551 132.1858
L76.4455 131.9001
" />
<path d="M76.4455 131.9001
L76.5408 131.7096
" />
<path d="M76.5408 131.7096
L76.6360 131.4239
" />
<path d="M76.6360 131.4239
L76.7312 130.9477
" />
<path d="M76.7312 130.9477
L76.7312 130.5668
" />
<path d="M76.7312 130.5668
L76.6360 130.0906
" />
<path d="M76.6360 130.0906
L76.5408 129.8049
" />
<path d="M76.5408 129.8049
L76.4455 129.6144
" />
<path d="M76.4455 129.6144
L76.2551 129.3287
" />
<path d="M76.2551 129.3287
L76.1598 129.2334
" />
<path d="M79.7789 132.2811
L79.6836 132.1858
" />
<path d="M79.6836 132.1858
L79.4931 131.9001
" />
<path d="M79.4931 131.9001
L79.3979 131.7096
" />
<path d="M79.3979 131.7096
L79.3027 131.4239
" />
<path d="M79.3027 131.4239
L79.2074 130.9477
" />
<path d="M79.2074 130.9477
L79.2074 130.5668
" />
<path d="M79.2074 130.5668
L79.3027 130.0906
" />
<path d="M79.3027 130.0906
L79.3979 129.8049
" />
<path d="M79.3979 129.8049
L79.4931 129.6144
" />
<path d="M79.4931 129.6144
L79.6836 129.3287
" />
<path d="M79.6836 129.3287
L79.7789 129.2334
" />
<path d="M80.5408 130.1858
L80.5408 131.5192
" />
<path d="M80.5408 130.3763
L80.6360 130.2811
" />
<path d="M80.6360 130.2811
L80.8265 130.1858
" />
<path d="M80.8265 130.1858
L81.1122 130.1858
" />
<path d="M81.1122 130.1858
L81.3027 130.2811
" />
<path d="M81.3027 130.2811
L81.3979 130.4715
" />
<path d="M81.3979 130.4715
L81.3979 131.5192
" />
<path d="M82.6360 131.5192
L82.4455 131.4239
" />
<path d="M82.4455 131.4239
L82.3503 131.3287
" />
<path d="M82.3503 131.3287
L82.2551 131.1382
" />
<path d="M82.2551 131.1382
L82.2551 130.5668
" />
<path d="M82.2551 130.5668
L82.3503 130.3763
" />
<path d="M82.3503 130.3763
L82.4455 130.2811
" />
<path d="M82.4455 130.2811
L82.6360 130.1858
" />
<path d="M82.6360 130.1858
L82.9217 130.1858
" />
<path d="M82.9217 130.1858
L83.1122 130.2811
" />
<path d="M83.1122 130.2811
L83.2074 130.3763
" />
<path d="M83.2074 130.3763
L83.3027 130.5668
" />
<path d="M83.3027 130.5668
L83.3027 131.1382
" />
<path d="M83.3027 131.1382
L83.2074 131.3287
" />
<path d="M83.2074 131.3287
L83.1122 131.4239
" />
<path d="M83.1122 131.4239
L82.9217 131.5192
" />
<path d="M82.9217 131.5192
L82.6360 131.5192
" />
<path d="M83.8741 130.1858
L84.6360 130.1858
" />
<path d="M84.1598 129.5192
L84.1598 131.2334
" />
<path d="M84.1598 131.2334
L84.2551 131.4239
" />
<path d="M84.2551 131.4239
L84.4455 131.5192
" />
<path d="M84.4455 131.5192
L84.6360 131.5192
" />
<path d="M86.8265 130.1858
L86.8265 132.1858
" />
<path d="M86.8265 130.2811
L87.0170 130.1858
" />
<path d="M87.0170 130.1858
L87.3979 130.1858
" />
<path d="M87.3979 130.1858
L87.5884 130.2811
" />
<path d="M87.5884 130.2811
L87.6836 130.3763
" />
<path d="M87.6836 130.3763
L87.7789 130.5668
" />
<path d="M87.7789 130.5668
L87.7789 131.1382
" />
<path d="M87.7789 131.1382
L87.6836 131.3287
" />
<path d="M87.6836 131.3287
L87.5884 131.4239
" />
<path d="M87.5884 131.4239
L87.3979 131.5192
" />
<path d="M87.3979 131.5192
L87.0170 131.5192
" />
<path d="M87.0170 131.5192
L86.8265 131.4239
" />
<path d="M88.9217 131.5192
L88.7312 131.4239
" />
<path d="M88.7312 131.4239
L88.6360 131.2334
" />
<path d="M88.6360 131.2334
L88.6360 129.5192
" />
<path d="M90.5408 131.5192
L90.5408 130.4715
" />
<path d="M90.5408 130.4715
L90.4455 130.2811
" />
<path d="M90.4455 130.2811
L90.2550 130.1858
" />
<path d="M90.2550 130.1858
L89.8741 130.1858
" />
<path d="M89.8741 130.1858
L89.6836 130.2811
" />
<path d="M90.5408 131.4239
L90.3503 131.5192
" />
<path d="M90.3503 131.5192
L89.8741 131.5192
" />
<path d="M89.8741 131.5192
L89.6836 131.4239
" />
<path d="M89.6836 131.4239
L89.5884 131.2334
" />
<path d="M89.5884 131.2334
L89.5884 131.0430
" />
<path d="M89.5884 131.0430
L89.6836 130.8525
" />
<path d="M89.6836 130.8525
L89.8741 130.7572
" />
<path d="M89.8741 130.7572
L90.3503 130.7572
" />
<path d="M90.3503 130.7572
L90.5408 130.6620
" />
<path d="M91.2074 130.1858
L91.9693 130.1858
" />
<path d="M91.4931 129.5192
L91.4931 131.2334
" />
<path d="M91.4931 131.2334
L91.5884 131.4239
" />
<path d="M91.5884 131.4239
L91.7789 131.5192
" />
<path d="M91.7789 131.5192
L91.9693 131.5192
" />
<path d="M93.3979 131.4239
L93.2074 131.5192
" />
<path d="M93.2074 131.5192
L92.8265 131.5192
" />
<path d="M92.8265 131.5192
L92.6360 131.4239
" />
<path d="M92.6360 131.4239
L92.5408 131.2334
" />
<path d="M92.5408 131.2334
L92.5408 130.4715
" />
<path d="M92.5408 130.4715
L92.6360 130.2811
" />
<path d="M92.6360 130.2811
L92.8265 130.1858
" />
<path d="M92.8265 130.1858
L93.2074 130.1858
" />
<path d="M93.2074 130.1858
L93.3979 130.2811
" />
<path d="M93.3979 130.2811
L93.4931 130.4715
" />
<path d="M93.4931 130.4715
L93.4931 130.6620
" />
<path d="M93.4931 130.6620
L92.5408 130.8525
" />
<path d="M95.2074 131.5192
L95.2074 129.5192
" />
<path d="M95.2074 131.4239
L95.0170 131.5192
" />
<path d="M95.0170 131.5192
L94.6360 131.5192
" />
<path d="M94.6360 131.5192
L94.4455 131.4239
" />
<path d="M94.4455 131.4239
L94.3503 131.3287
" />
<path d="M94.3503 131.3287
L94.2550 131.1382
" />
<path d="M94.2550 131.1382
L94.2550 130.5668
" />
<path d="M94.2550 130.5668
L94.3503 130.3763
" />
<path d="M94.3503 130.3763
L94.4455 130.2811
" />
<path d="M94.4455 130.2811
L94.6360 130.1858
" />
<path d="M94.6360 130.1858
L95.0170 130.1858
" />
<path d="M95.0170 130.1858
L95.2074 130.2811
" />
<path d="M95.9693 132.2811
L96.0646 132.1858
" />
<path d="M96.0646 132.1858
L96.2550 131.9001
" />
<path d="M96.2550 131.9001
L96.3503 131.7096
" />
<path d="M96.3503 131.7096
L96.4455 131.4239
" />
<path d="M96.4455 131.4239
L96.5408 130.9477
" />
<path d="M96.5408 130.9477
L96.5408 130.5668
" />
<path d="M96.5408 130.5668
L96.4455 130.0906
" />
<path d="M96.4455 130.0906
L96.3503 129.8049
" />
<path d="M96.3503 129.8049
L96.2550 129.6144
" />
<path d="M96.2550 129.6144
L96.0646 129.3287
" />
<path d="M96.0646 129.3287
L95.9693 129.2334
" />
</g></g> 
</svg>
