%TF.GenerationSoftware,KiCad,Pcbnew,10.0.6*%
%TF.CreationDate,2026-09-30T18:56:39-04:00*%
%TF.ProjectId,base-rear-interface01,62617365-2d72-4656-9172-2d696e746572,rev?*%
%TF.SameCoordinates,Original*%
%TF.FileFunction,Legend,Top*%
%TF.FilePolarity,Positive*%
%FSLAX46Y46*%
G04 Gerber Fmt 4.6, Leading zero omitted, Abs format (unit mm)*
G04 Created by KiCad (PCBNEW 10.0.6) date 2026-09-30 18:56:39*
%MOMM*%
%LPD*%
G01*
G04 APERTURE LIST*
%ADD10C,0.150000*%
G04 APERTURE END LIST*
D10*
X16619047Y-35931009D02*
X16952380Y-35931009D01*
X17095237Y-36454819D02*
X16619047Y-36454819D01*
X16619047Y-36454819D02*
X16619047Y-35454819D01*
X16619047Y-35454819D02*
X17095237Y-35454819D01*
X17380952Y-35454819D02*
X17952380Y-35454819D01*
X17666666Y-36454819D02*
X17666666Y-35454819D01*
X18285714Y-36454819D02*
X18285714Y-35454819D01*
X18285714Y-35931009D02*
X18857142Y-35931009D01*
X18857142Y-36454819D02*
X18857142Y-35454819D01*
X19333333Y-35931009D02*
X19666666Y-35931009D01*
X19809523Y-36454819D02*
X19333333Y-36454819D01*
X19333333Y-36454819D02*
X19333333Y-35454819D01*
X19333333Y-35454819D02*
X19809523Y-35454819D01*
X20809523Y-36454819D02*
X20476190Y-35978628D01*
X20238095Y-36454819D02*
X20238095Y-35454819D01*
X20238095Y-35454819D02*
X20619047Y-35454819D01*
X20619047Y-35454819D02*
X20714285Y-35502438D01*
X20714285Y-35502438D02*
X20761904Y-35550057D01*
X20761904Y-35550057D02*
X20809523Y-35645295D01*
X20809523Y-35645295D02*
X20809523Y-35788152D01*
X20809523Y-35788152D02*
X20761904Y-35883390D01*
X20761904Y-35883390D02*
X20714285Y-35931009D01*
X20714285Y-35931009D02*
X20619047Y-35978628D01*
X20619047Y-35978628D02*
X20238095Y-35978628D01*
X21809523Y-36359580D02*
X21761904Y-36407200D01*
X21761904Y-36407200D02*
X21619047Y-36454819D01*
X21619047Y-36454819D02*
X21523809Y-36454819D01*
X21523809Y-36454819D02*
X21380952Y-36407200D01*
X21380952Y-36407200D02*
X21285714Y-36311961D01*
X21285714Y-36311961D02*
X21238095Y-36216723D01*
X21238095Y-36216723D02*
X21190476Y-36026247D01*
X21190476Y-36026247D02*
X21190476Y-35883390D01*
X21190476Y-35883390D02*
X21238095Y-35692914D01*
X21238095Y-35692914D02*
X21285714Y-35597676D01*
X21285714Y-35597676D02*
X21380952Y-35502438D01*
X21380952Y-35502438D02*
X21523809Y-35454819D01*
X21523809Y-35454819D02*
X21619047Y-35454819D01*
X21619047Y-35454819D02*
X21761904Y-35502438D01*
X21761904Y-35502438D02*
X21809523Y-35550057D01*
X22190476Y-36169104D02*
X22666666Y-36169104D01*
X22095238Y-36454819D02*
X22428571Y-35454819D01*
X22428571Y-35454819D02*
X22761904Y-36454819D01*
X22952381Y-35454819D02*
X23523809Y-35454819D01*
X23238095Y-36454819D02*
X23238095Y-35454819D01*
X43690476Y-20359580D02*
X43642857Y-20407200D01*
X43642857Y-20407200D02*
X43500000Y-20454819D01*
X43500000Y-20454819D02*
X43404762Y-20454819D01*
X43404762Y-20454819D02*
X43261905Y-20407200D01*
X43261905Y-20407200D02*
X43166667Y-20311961D01*
X43166667Y-20311961D02*
X43119048Y-20216723D01*
X43119048Y-20216723D02*
X43071429Y-20026247D01*
X43071429Y-20026247D02*
X43071429Y-19883390D01*
X43071429Y-19883390D02*
X43119048Y-19692914D01*
X43119048Y-19692914D02*
X43166667Y-19597676D01*
X43166667Y-19597676D02*
X43261905Y-19502438D01*
X43261905Y-19502438D02*
X43404762Y-19454819D01*
X43404762Y-19454819D02*
X43500000Y-19454819D01*
X43500000Y-19454819D02*
X43642857Y-19502438D01*
X43642857Y-19502438D02*
X43690476Y-19550057D01*
X44119048Y-20454819D02*
X44119048Y-19454819D01*
X44119048Y-19931009D02*
X44690476Y-19931009D01*
X44690476Y-20454819D02*
X44690476Y-19454819D01*
X45119048Y-20169104D02*
X45595238Y-20169104D01*
X45023810Y-20454819D02*
X45357143Y-19454819D01*
X45357143Y-19454819D02*
X45690476Y-20454819D01*
X45976191Y-20407200D02*
X46119048Y-20454819D01*
X46119048Y-20454819D02*
X46357143Y-20454819D01*
X46357143Y-20454819D02*
X46452381Y-20407200D01*
X46452381Y-20407200D02*
X46500000Y-20359580D01*
X46500000Y-20359580D02*
X46547619Y-20264342D01*
X46547619Y-20264342D02*
X46547619Y-20169104D01*
X46547619Y-20169104D02*
X46500000Y-20073866D01*
X46500000Y-20073866D02*
X46452381Y-20026247D01*
X46452381Y-20026247D02*
X46357143Y-19978628D01*
X46357143Y-19978628D02*
X46166667Y-19931009D01*
X46166667Y-19931009D02*
X46071429Y-19883390D01*
X46071429Y-19883390D02*
X46023810Y-19835771D01*
X46023810Y-19835771D02*
X45976191Y-19740533D01*
X45976191Y-19740533D02*
X45976191Y-19645295D01*
X45976191Y-19645295D02*
X46023810Y-19550057D01*
X46023810Y-19550057D02*
X46071429Y-19502438D01*
X46071429Y-19502438D02*
X46166667Y-19454819D01*
X46166667Y-19454819D02*
X46404762Y-19454819D01*
X46404762Y-19454819D02*
X46547619Y-19502438D01*
X46928572Y-20407200D02*
X47071429Y-20454819D01*
X47071429Y-20454819D02*
X47309524Y-20454819D01*
X47309524Y-20454819D02*
X47404762Y-20407200D01*
X47404762Y-20407200D02*
X47452381Y-20359580D01*
X47452381Y-20359580D02*
X47500000Y-20264342D01*
X47500000Y-20264342D02*
X47500000Y-20169104D01*
X47500000Y-20169104D02*
X47452381Y-20073866D01*
X47452381Y-20073866D02*
X47404762Y-20026247D01*
X47404762Y-20026247D02*
X47309524Y-19978628D01*
X47309524Y-19978628D02*
X47119048Y-19931009D01*
X47119048Y-19931009D02*
X47023810Y-19883390D01*
X47023810Y-19883390D02*
X46976191Y-19835771D01*
X46976191Y-19835771D02*
X46928572Y-19740533D01*
X46928572Y-19740533D02*
X46928572Y-19645295D01*
X46928572Y-19645295D02*
X46976191Y-19550057D01*
X46976191Y-19550057D02*
X47023810Y-19502438D01*
X47023810Y-19502438D02*
X47119048Y-19454819D01*
X47119048Y-19454819D02*
X47357143Y-19454819D01*
X47357143Y-19454819D02*
X47500000Y-19502438D01*
X47928572Y-20454819D02*
X47928572Y-19454819D01*
X48357143Y-20407200D02*
X48500000Y-20454819D01*
X48500000Y-20454819D02*
X48738095Y-20454819D01*
X48738095Y-20454819D02*
X48833333Y-20407200D01*
X48833333Y-20407200D02*
X48880952Y-20359580D01*
X48880952Y-20359580D02*
X48928571Y-20264342D01*
X48928571Y-20264342D02*
X48928571Y-20169104D01*
X48928571Y-20169104D02*
X48880952Y-20073866D01*
X48880952Y-20073866D02*
X48833333Y-20026247D01*
X48833333Y-20026247D02*
X48738095Y-19978628D01*
X48738095Y-19978628D02*
X48547619Y-19931009D01*
X48547619Y-19931009D02*
X48452381Y-19883390D01*
X48452381Y-19883390D02*
X48404762Y-19835771D01*
X48404762Y-19835771D02*
X48357143Y-19740533D01*
X48357143Y-19740533D02*
X48357143Y-19645295D01*
X48357143Y-19645295D02*
X48404762Y-19550057D01*
X48404762Y-19550057D02*
X48452381Y-19502438D01*
X48452381Y-19502438D02*
X48547619Y-19454819D01*
X48547619Y-19454819D02*
X48785714Y-19454819D01*
X48785714Y-19454819D02*
X48928571Y-19502438D01*
X52357143Y-23931009D02*
X52500000Y-23978628D01*
X52500000Y-23978628D02*
X52547619Y-24026247D01*
X52547619Y-24026247D02*
X52595238Y-24121485D01*
X52595238Y-24121485D02*
X52595238Y-24264342D01*
X52595238Y-24264342D02*
X52547619Y-24359580D01*
X52547619Y-24359580D02*
X52500000Y-24407200D01*
X52500000Y-24407200D02*
X52404762Y-24454819D01*
X52404762Y-24454819D02*
X52023810Y-24454819D01*
X52023810Y-24454819D02*
X52023810Y-23454819D01*
X52023810Y-23454819D02*
X52357143Y-23454819D01*
X52357143Y-23454819D02*
X52452381Y-23502438D01*
X52452381Y-23502438D02*
X52500000Y-23550057D01*
X52500000Y-23550057D02*
X52547619Y-23645295D01*
X52547619Y-23645295D02*
X52547619Y-23740533D01*
X52547619Y-23740533D02*
X52500000Y-23835771D01*
X52500000Y-23835771D02*
X52452381Y-23883390D01*
X52452381Y-23883390D02*
X52357143Y-23931009D01*
X52357143Y-23931009D02*
X52023810Y-23931009D01*
X53595238Y-24454819D02*
X53261905Y-23978628D01*
X53023810Y-24454819D02*
X53023810Y-23454819D01*
X53023810Y-23454819D02*
X53404762Y-23454819D01*
X53404762Y-23454819D02*
X53500000Y-23502438D01*
X53500000Y-23502438D02*
X53547619Y-23550057D01*
X53547619Y-23550057D02*
X53595238Y-23645295D01*
X53595238Y-23645295D02*
X53595238Y-23788152D01*
X53595238Y-23788152D02*
X53547619Y-23883390D01*
X53547619Y-23883390D02*
X53500000Y-23931009D01*
X53500000Y-23931009D02*
X53404762Y-23978628D01*
X53404762Y-23978628D02*
X53023810Y-23978628D01*
X54023810Y-24454819D02*
X54023810Y-23454819D01*
X54690476Y-23454819D02*
X54785714Y-23454819D01*
X54785714Y-23454819D02*
X54880952Y-23502438D01*
X54880952Y-23502438D02*
X54928571Y-23550057D01*
X54928571Y-23550057D02*
X54976190Y-23645295D01*
X54976190Y-23645295D02*
X55023809Y-23835771D01*
X55023809Y-23835771D02*
X55023809Y-24073866D01*
X55023809Y-24073866D02*
X54976190Y-24264342D01*
X54976190Y-24264342D02*
X54928571Y-24359580D01*
X54928571Y-24359580D02*
X54880952Y-24407200D01*
X54880952Y-24407200D02*
X54785714Y-24454819D01*
X54785714Y-24454819D02*
X54690476Y-24454819D01*
X54690476Y-24454819D02*
X54595238Y-24407200D01*
X54595238Y-24407200D02*
X54547619Y-24359580D01*
X54547619Y-24359580D02*
X54500000Y-24264342D01*
X54500000Y-24264342D02*
X54452381Y-24073866D01*
X54452381Y-24073866D02*
X54452381Y-23835771D01*
X54452381Y-23835771D02*
X54500000Y-23645295D01*
X54500000Y-23645295D02*
X54547619Y-23550057D01*
X54547619Y-23550057D02*
X54595238Y-23502438D01*
X54595238Y-23502438D02*
X54690476Y-23454819D01*
X55976190Y-24454819D02*
X55404762Y-24454819D01*
X55690476Y-24454819D02*
X55690476Y-23454819D01*
X55690476Y-23454819D02*
X55595238Y-23597676D01*
X55595238Y-23597676D02*
X55500000Y-23692914D01*
X55500000Y-23692914D02*
X55404762Y-23740533D01*
X57738095Y-24454819D02*
X57404762Y-23978628D01*
X57166667Y-24454819D02*
X57166667Y-23454819D01*
X57166667Y-23454819D02*
X57547619Y-23454819D01*
X57547619Y-23454819D02*
X57642857Y-23502438D01*
X57642857Y-23502438D02*
X57690476Y-23550057D01*
X57690476Y-23550057D02*
X57738095Y-23645295D01*
X57738095Y-23645295D02*
X57738095Y-23788152D01*
X57738095Y-23788152D02*
X57690476Y-23883390D01*
X57690476Y-23883390D02*
X57642857Y-23931009D01*
X57642857Y-23931009D02*
X57547619Y-23978628D01*
X57547619Y-23978628D02*
X57166667Y-23978628D01*
X58166667Y-23931009D02*
X58500000Y-23931009D01*
X58642857Y-24454819D02*
X58166667Y-24454819D01*
X58166667Y-24454819D02*
X58166667Y-23454819D01*
X58166667Y-23454819D02*
X58642857Y-23454819D01*
X58928572Y-23454819D02*
X59261905Y-24454819D01*
X59261905Y-24454819D02*
X59595238Y-23454819D01*
X59928572Y-24454819D02*
X59928572Y-23454819D01*
X60404762Y-23931009D02*
X60738095Y-23931009D01*
X60880952Y-24454819D02*
X60404762Y-24454819D01*
X60404762Y-24454819D02*
X60404762Y-23454819D01*
X60404762Y-23454819D02*
X60880952Y-23454819D01*
X61214286Y-23454819D02*
X61452381Y-24454819D01*
X61452381Y-24454819D02*
X61642857Y-23740533D01*
X61642857Y-23740533D02*
X61833333Y-24454819D01*
X61833333Y-24454819D02*
X62071429Y-23454819D01*
X82928571Y-20454819D02*
X82595238Y-19978628D01*
X82357143Y-20454819D02*
X82357143Y-19454819D01*
X82357143Y-19454819D02*
X82738095Y-19454819D01*
X82738095Y-19454819D02*
X82833333Y-19502438D01*
X82833333Y-19502438D02*
X82880952Y-19550057D01*
X82880952Y-19550057D02*
X82928571Y-19645295D01*
X82928571Y-19645295D02*
X82928571Y-19788152D01*
X82928571Y-19788152D02*
X82880952Y-19883390D01*
X82880952Y-19883390D02*
X82833333Y-19931009D01*
X82833333Y-19931009D02*
X82738095Y-19978628D01*
X82738095Y-19978628D02*
X82357143Y-19978628D01*
X83357143Y-19931009D02*
X83690476Y-19931009D01*
X83833333Y-20454819D02*
X83357143Y-20454819D01*
X83357143Y-20454819D02*
X83357143Y-19454819D01*
X83357143Y-19454819D02*
X83833333Y-19454819D01*
X84119048Y-19454819D02*
X84690476Y-19454819D01*
X84404762Y-20454819D02*
X84404762Y-19454819D01*
X85023810Y-19454819D02*
X85023810Y-20264342D01*
X85023810Y-20264342D02*
X85071429Y-20359580D01*
X85071429Y-20359580D02*
X85119048Y-20407200D01*
X85119048Y-20407200D02*
X85214286Y-20454819D01*
X85214286Y-20454819D02*
X85404762Y-20454819D01*
X85404762Y-20454819D02*
X85500000Y-20407200D01*
X85500000Y-20407200D02*
X85547619Y-20359580D01*
X85547619Y-20359580D02*
X85595238Y-20264342D01*
X85595238Y-20264342D02*
X85595238Y-19454819D01*
X86642857Y-20454819D02*
X86309524Y-19978628D01*
X86071429Y-20454819D02*
X86071429Y-19454819D01*
X86071429Y-19454819D02*
X86452381Y-19454819D01*
X86452381Y-19454819D02*
X86547619Y-19502438D01*
X86547619Y-19502438D02*
X86595238Y-19550057D01*
X86595238Y-19550057D02*
X86642857Y-19645295D01*
X86642857Y-19645295D02*
X86642857Y-19788152D01*
X86642857Y-19788152D02*
X86595238Y-19883390D01*
X86595238Y-19883390D02*
X86547619Y-19931009D01*
X86547619Y-19931009D02*
X86452381Y-19978628D01*
X86452381Y-19978628D02*
X86071429Y-19978628D01*
X87071429Y-20454819D02*
X87071429Y-19454819D01*
X87071429Y-19454819D02*
X87642857Y-20454819D01*
X87642857Y-20454819D02*
X87642857Y-19454819D01*
X99285714Y-47788152D02*
X99285714Y-48454819D01*
X99047619Y-47407200D02*
X98809524Y-48121485D01*
X98809524Y-48121485D02*
X99428571Y-48121485D01*
X99952381Y-47883390D02*
X99857143Y-47835771D01*
X99857143Y-47835771D02*
X99809524Y-47788152D01*
X99809524Y-47788152D02*
X99761905Y-47692914D01*
X99761905Y-47692914D02*
X99761905Y-47645295D01*
X99761905Y-47645295D02*
X99809524Y-47550057D01*
X99809524Y-47550057D02*
X99857143Y-47502438D01*
X99857143Y-47502438D02*
X99952381Y-47454819D01*
X99952381Y-47454819D02*
X100142857Y-47454819D01*
X100142857Y-47454819D02*
X100238095Y-47502438D01*
X100238095Y-47502438D02*
X100285714Y-47550057D01*
X100285714Y-47550057D02*
X100333333Y-47645295D01*
X100333333Y-47645295D02*
X100333333Y-47692914D01*
X100333333Y-47692914D02*
X100285714Y-47788152D01*
X100285714Y-47788152D02*
X100238095Y-47835771D01*
X100238095Y-47835771D02*
X100142857Y-47883390D01*
X100142857Y-47883390D02*
X99952381Y-47883390D01*
X99952381Y-47883390D02*
X99857143Y-47931009D01*
X99857143Y-47931009D02*
X99809524Y-47978628D01*
X99809524Y-47978628D02*
X99761905Y-48073866D01*
X99761905Y-48073866D02*
X99761905Y-48264342D01*
X99761905Y-48264342D02*
X99809524Y-48359580D01*
X99809524Y-48359580D02*
X99857143Y-48407200D01*
X99857143Y-48407200D02*
X99952381Y-48454819D01*
X99952381Y-48454819D02*
X100142857Y-48454819D01*
X100142857Y-48454819D02*
X100238095Y-48407200D01*
X100238095Y-48407200D02*
X100285714Y-48359580D01*
X100285714Y-48359580D02*
X100333333Y-48264342D01*
X100333333Y-48264342D02*
X100333333Y-48073866D01*
X100333333Y-48073866D02*
X100285714Y-47978628D01*
X100285714Y-47978628D02*
X100238095Y-47931009D01*
X100238095Y-47931009D02*
X100142857Y-47883390D01*
X100619048Y-47454819D02*
X100952381Y-48454819D01*
X100952381Y-48454819D02*
X101285714Y-47454819D01*
X98738095Y-20073866D02*
X99500000Y-20073866D01*
X99119047Y-20454819D02*
X99119047Y-19692914D01*
X100690476Y-20169104D02*
X101166666Y-20169104D01*
X100595238Y-20454819D02*
X100928571Y-19454819D01*
X100928571Y-19454819D02*
X101261904Y-20454819D01*
X102166666Y-20454819D02*
X101833333Y-19978628D01*
X101595238Y-20454819D02*
X101595238Y-19454819D01*
X101595238Y-19454819D02*
X101976190Y-19454819D01*
X101976190Y-19454819D02*
X102071428Y-19502438D01*
X102071428Y-19502438D02*
X102119047Y-19550057D01*
X102119047Y-19550057D02*
X102166666Y-19645295D01*
X102166666Y-19645295D02*
X102166666Y-19788152D01*
X102166666Y-19788152D02*
X102119047Y-19883390D01*
X102119047Y-19883390D02*
X102071428Y-19931009D01*
X102071428Y-19931009D02*
X101976190Y-19978628D01*
X101976190Y-19978628D02*
X101595238Y-19978628D01*
X102595238Y-20454819D02*
X102595238Y-19454819D01*
X102595238Y-19454819D02*
X102928571Y-20169104D01*
X102928571Y-20169104D02*
X103261904Y-19454819D01*
X103261904Y-19454819D02*
X103261904Y-20454819D01*
M02*
