ISO-10303-21;
HEADER;
FILE_DESCRIPTION(('Open CASCADE Model'),'2;1');
FILE_NAME('Open CASCADE Shape Model','2026-10-10T01:23:30',('Author'),(
    'Open CASCADE'),'Open CASCADE STEP processor 7.9','Open CASCADE 7.9'
  ,'Unknown');
FILE_SCHEMA(('AUTOMOTIVE_DESIGN { 1 0 10303 214 1 1 1 1 }'));
ENDSEC;
DATA;
#1 = APPLICATION_PROTOCOL_DEFINITION('international standard',
  'automotive_design',2000,#2);
#2 = APPLICATION_CONTEXT(
  'core data for automotive mechanical design processes');
#3 = SHAPE_DEFINITION_REPRESENTATION(#4,#10);
#4 = PRODUCT_DEFINITION_SHAPE('','',#5);
#5 = PRODUCT_DEFINITION('design','',#6,#9);
#6 = PRODUCT_DEFINITION_FORMATION('','',#7);
#7 = PRODUCT('Open CASCADE STEP translator 7.9 3',
  'Open CASCADE STEP translator 7.9 3','',(#8));
#8 = PRODUCT_CONTEXT('',#2,'mechanical');
#9 = PRODUCT_DEFINITION_CONTEXT('part definition',#2,'design');
#10 = ADVANCED_BREP_SHAPE_REPRESENTATION('',(#11,#15),#1223);
#11 = AXIS2_PLACEMENT_3D('',#12,#13,#14);
#12 = CARTESIAN_POINT('',(0.,0.,0.));
#13 = DIRECTION('',(0.,0.,1.));
#14 = DIRECTION('',(1.,0.,-0.));
#15 = MANIFOLD_SOLID_BREP('',#16);
#16 = CLOSED_SHELL('',(#17,#163,#246,#329,#412,#495,#578,#661,#744,#827,
    #910,#993,#1076,#1146,#1189,#1206));
#17 = ADVANCED_FACE('',(#18),#31,.F.);
#18 = FACE_BOUND('',#19,.F.);
#19 = EDGE_LOOP('',(#20,#61,#100,#126));
#20 = ORIENTED_EDGE('',*,*,#21,.T.);
#21 = EDGE_CURVE('',#22,#24,#26,.T.);
#22 = VERTEX_POINT('',#23);
#23 = CARTESIAN_POINT('',(12.,34.64,38.54));
#24 = VERTEX_POINT('',#25);
#25 = CARTESIAN_POINT('',(12.,62.,45.1));
#26 = SURFACE_CURVE('',#27,(#30,#50),.PCURVE_S1.);
#27 = B_SPLINE_CURVE_WITH_KNOTS('',1,(#28,#29),.UNSPECIFIED.,.F.,.F.,(2,
    2),(0.,1.),.PIECEWISE_BEZIER_KNOTS.);
#28 = CARTESIAN_POINT('',(12.,34.64,38.54));
#29 = CARTESIAN_POINT('',(12.,62.,45.1));
#30 = PCURVE('',#31,#44);
#31 = ( BOUNDED_SURFACE() B_SPLINE_SURFACE(1,3,(
    (#32,#33,#34,#35,#36,#37)
    ,(#38,#39,#40,#41,#42,#43
)),.UNSPECIFIED.,.F.,.F.,.F.) B_SPLINE_SURFACE_WITH_KNOTS((2,2),(4,1,1,4
    ),(0.,1.),(0.,0.333333333333,0.666666666667,1.),.UNSPECIFIED.) 
GEOMETRIC_REPRESENTATION_ITEM() RATIONAL_B_SPLINE_SURFACE((
    (1.,1.,1.,1.,1.,1.)
,(1.,1.,1.,1.,1.,1.))) REPRESENTATION_ITEM('') SURFACE() );
#32 = CARTESIAN_POINT('',(12.,34.64,38.54));
#33 = CARTESIAN_POINT('',(35.319398606527,36.035414374771,
    33.309504950495));
#34 = CARTESIAN_POINT('',(64.031256066783,61.628697879592,
    33.773513233676));
#35 = CARTESIAN_POINT('',(72.919055631053,38.840669557152,
    34.338741991846));
#36 = CARTESIAN_POINT('',(132.78236156949,93.361895856252,
    17.016171617162));
#37 = CARTESIAN_POINT('',(151.,71.28,31.02));
#38 = CARTESIAN_POINT('',(12.,62.,45.1));
#39 = CARTESIAN_POINT('',(35.319398606527,63.620232856619,
    38.979207920792));
#40 = CARTESIAN_POINT('',(64.031256066783,82.143060139347,
    39.522196337281));
#41 = CARTESIAN_POINT('',(72.919055631053,67.749541620829,
    40.183634245777));
#42 = CARTESIAN_POINT('',(132.78236156949,100.56004767143,
    19.912541254125));
#43 = CARTESIAN_POINT('',(151.,90.,36.3));
#44 = DEFINITIONAL_REPRESENTATION('',(#45),#49);
#45 = LINE('',#46,#47);
#46 = CARTESIAN_POINT('',(0.,0.));
#47 = VECTOR('',#48,1.);
#48 = DIRECTION('',(1.,0.));
#49 = ( GEOMETRIC_REPRESENTATION_CONTEXT(2) 
PARAMETRIC_REPRESENTATION_CONTEXT() REPRESENTATION_CONTEXT('2D SPACE',''
  ) );
#50 = PCURVE('',#51,#56);
#51 = PLANE('',#52);
#52 = AXIS2_PLACEMENT_3D('',#53,#54,#55);
#53 = CARTESIAN_POINT('',(12.,34.64,38.54));
#54 = DIRECTION('',(-1.,0.,-0.));
#55 = DIRECTION('',(0.,0.862838945462,-0.505478935461));
#56 = DEFINITIONAL_REPRESENTATION('',(#57),#60);
#57 = B_SPLINE_CURVE_WITH_KNOTS('',1,(#58,#59),.UNSPECIFIED.,.F.,.F.,(2,
    2),(0.,1.),.PIECEWISE_BEZIER_KNOTS.);
#58 = CARTESIAN_POINT('',(0.,0.));
#59 = CARTESIAN_POINT('',(20.291331731206,-19.49012715643));
#60 = ( GEOMETRIC_REPRESENTATION_CONTEXT(2) 
PARAMETRIC_REPRESENTATION_CONTEXT() REPRESENTATION_CONTEXT('2D SPACE',''
  ) );
#61 = ORIENTED_EDGE('',*,*,#62,.T.);
#62 = EDGE_CURVE('',#24,#63,#65,.T.);
#63 = VERTEX_POINT('',#64);
#64 = CARTESIAN_POINT('',(151.,90.,36.3));
#65 = SURFACE_CURVE('',#66,(#73,#80),.PCURVE_S1.);
#66 = ( BOUNDED_CURVE() B_SPLINE_CURVE(3,(#67,#68,#69,#70,#71,#72),
.UNSPECIFIED.,.F.,.F.) B_SPLINE_CURVE_WITH_KNOTS((4,1,1,4),(0.,
0.333333333333,0.666666666667,1.),.QUASI_UNIFORM_KNOTS.) CURVE() 
GEOMETRIC_REPRESENTATION_ITEM() RATIONAL_B_SPLINE_CURVE((1.,1.,1.,1.,1.,
1.)) REPRESENTATION_ITEM('') );
#67 = CARTESIAN_POINT('',(12.,62.,45.1));
#68 = CARTESIAN_POINT('',(35.319398606527,63.620232856619,
    38.979207920792));
#69 = CARTESIAN_POINT('',(64.031256066783,82.143060139347,
    39.522196337281));
#70 = CARTESIAN_POINT('',(72.919055631053,67.749541620829,
    40.183634245777));
#71 = CARTESIAN_POINT('',(132.78236156949,100.56004767143,
    19.912541254125));
#72 = CARTESIAN_POINT('',(151.,90.,36.3));
#73 = PCURVE('',#31,#74);
#74 = DEFINITIONAL_REPRESENTATION('',(#75),#79);
#75 = LINE('',#76,#77);
#76 = CARTESIAN_POINT('',(1.,0.));
#77 = VECTOR('',#78,1.);
#78 = DIRECTION('',(0.,1.));
#79 = ( GEOMETRIC_REPRESENTATION_CONTEXT(2) 
PARAMETRIC_REPRESENTATION_CONTEXT() REPRESENTATION_CONTEXT('2D SPACE',''
  ) );
#80 = PCURVE('',#81,#94);
#81 = ( BOUNDED_SURFACE() B_SPLINE_SURFACE(1,3,(
    (#82,#83,#84,#85,#86,#87)
    ,(#88,#89,#90,#91,#92,#93
)),.UNSPECIFIED.,.F.,.F.,.F.) B_SPLINE_SURFACE_WITH_KNOTS((2,2),(4,1,1,4
    ),(1.,2.),(0.,0.333333333333,0.666666666667,1.),.UNSPECIFIED.) 
GEOMETRIC_REPRESENTATION_ITEM() RATIONAL_B_SPLINE_SURFACE((
    (1.,1.,1.,1.,1.,1.)
,(1.,1.,1.,1.,1.,1.))) REPRESENTATION_ITEM('') SURFACE() );
#82 = CARTESIAN_POINT('',(12.,62.,45.1));
#83 = CARTESIAN_POINT('',(35.319398606527,63.620232856619,
    38.979207920792));
#84 = CARTESIAN_POINT('',(64.031256066783,82.143060139347,
    39.522196337281));
#85 = CARTESIAN_POINT('',(72.919055631053,67.749541620829,
    40.183634245777));
#86 = CARTESIAN_POINT('',(132.78236156949,100.56004767143,
    19.912541254125));
#87 = CARTESIAN_POINT('',(151.,90.,36.3));
#88 = CARTESIAN_POINT('',(12.,89.36,38.54));
#89 = CARTESIAN_POINT('',(35.319398606527,91.205051338467,
    33.309504950495));
#90 = CARTESIAN_POINT('',(64.031256066783,102.6574223991,33.773513233676
    ));
#91 = CARTESIAN_POINT('',(72.919055631053,96.658413684506,
    34.338741991846));
#92 = CARTESIAN_POINT('',(132.78236156949,107.75819948661,
    17.016171617162));
#93 = CARTESIAN_POINT('',(151.,108.72,31.02));
#94 = DEFINITIONAL_REPRESENTATION('',(#95),#99);
#95 = LINE('',#96,#97);
#96 = CARTESIAN_POINT('',(1.,0.));
#97 = VECTOR('',#98,1.);
#98 = DIRECTION('',(0.,1.));
#99 = ( GEOMETRIC_REPRESENTATION_CONTEXT(2) 
PARAMETRIC_REPRESENTATION_CONTEXT() REPRESENTATION_CONTEXT('2D SPACE',''
  ) );
#100 = ORIENTED_EDGE('',*,*,#101,.F.);
#101 = EDGE_CURVE('',#102,#63,#104,.T.);
#102 = VERTEX_POINT('',#103);
#103 = CARTESIAN_POINT('',(151.,71.28,31.02));
#104 = SURFACE_CURVE('',#105,(#108,#115),.PCURVE_S1.);
#105 = B_SPLINE_CURVE_WITH_KNOTS('',1,(#106,#107),.UNSPECIFIED.,.F.,.F.,
  (2,2),(0.,1.),.PIECEWISE_BEZIER_KNOTS.);
#106 = CARTESIAN_POINT('',(151.,71.28,31.02));
#107 = CARTESIAN_POINT('',(151.,90.,36.3));
#108 = PCURVE('',#31,#109);
#109 = DEFINITIONAL_REPRESENTATION('',(#110),#114);
#110 = LINE('',#111,#112);
#111 = CARTESIAN_POINT('',(0.,1.));
#112 = VECTOR('',#113,1.);
#113 = DIRECTION('',(1.,0.));
#114 = ( GEOMETRIC_REPRESENTATION_CONTEXT(2) 
PARAMETRIC_REPRESENTATION_CONTEXT() REPRESENTATION_CONTEXT('2D SPACE',''
  ) );
#115 = PCURVE('',#116,#121);
#116 = PLANE('',#117);
#117 = AXIS2_PLACEMENT_3D('',#118,#119,#120);
#118 = CARTESIAN_POINT('',(151.,71.28,31.02));
#119 = DIRECTION('',(-1.,0.,-0.));
#120 = DIRECTION('',(0.,0.823826861382,-0.566841514417));
#121 = DEFINITIONAL_REPRESENTATION('',(#122),#125);
#122 = B_SPLINE_CURVE_WITH_KNOTS('',1,(#123,#124),.UNSPECIFIED.,.F.,.F.,
  (2,2),(0.,1.),.PIECEWISE_BEZIER_KNOTS.);
#123 = CARTESIAN_POINT('',(0.,0.));
#124 = CARTESIAN_POINT('',(12.429115648944,-14.96107897797));
#125 = ( GEOMETRIC_REPRESENTATION_CONTEXT(2) 
PARAMETRIC_REPRESENTATION_CONTEXT() REPRESENTATION_CONTEXT('2D SPACE',''
  ) );
#126 = ORIENTED_EDGE('',*,*,#127,.F.);
#127 = EDGE_CURVE('',#22,#102,#128,.T.);
#128 = SURFACE_CURVE('',#129,(#136,#143),.PCURVE_S1.);
#129 = ( BOUNDED_CURVE() B_SPLINE_CURVE(3,(#130,#131,#132,#133,#134,#135
),.UNSPECIFIED.,.F.,.F.) B_SPLINE_CURVE_WITH_KNOTS((4,1,1,4),(0.,
0.333333333333,0.666666666667,1.),.QUASI_UNIFORM_KNOTS.) CURVE() 
GEOMETRIC_REPRESENTATION_ITEM() RATIONAL_B_SPLINE_CURVE((1.,1.,1.,1.,1.,
1.)) REPRESENTATION_ITEM('') );
#130 = CARTESIAN_POINT('',(12.,34.64,38.54));
#131 = CARTESIAN_POINT('',(35.319398606527,36.035414374771,
    33.309504950495));
#132 = CARTESIAN_POINT('',(64.031256066783,61.628697879592,
    33.773513233676));
#133 = CARTESIAN_POINT('',(72.919055631053,38.840669557152,
    34.338741991846));
#134 = CARTESIAN_POINT('',(132.78236156949,93.361895856252,
    17.016171617162));
#135 = CARTESIAN_POINT('',(151.,71.28,31.02));
#136 = PCURVE('',#31,#137);
#137 = DEFINITIONAL_REPRESENTATION('',(#138),#142);
#138 = LINE('',#139,#140);
#139 = CARTESIAN_POINT('',(0.,0.));
#140 = VECTOR('',#141,1.);
#141 = DIRECTION('',(0.,1.));
#142 = ( GEOMETRIC_REPRESENTATION_CONTEXT(2) 
PARAMETRIC_REPRESENTATION_CONTEXT() REPRESENTATION_CONTEXT('2D SPACE',''
  ) );
#143 = PCURVE('',#144,#157);
#144 = ( BOUNDED_SURFACE() B_SPLINE_SURFACE(1,3,(
    (#145,#146,#147,#148,#149,#150)
    ,(#151,#152,#153,#154,#155,#156
)),.UNSPECIFIED.,.F.,.F.,.F.) B_SPLINE_SURFACE_WITH_KNOTS((2,2),(4,1,1,4
    ),(13.,14.),(0.,0.333333333333,0.666666666667,1.),.UNSPECIFIED.) 
GEOMETRIC_REPRESENTATION_ITEM() RATIONAL_B_SPLINE_SURFACE((
    (1.,1.,1.,1.,1.,1.)
,(1.,1.,1.,1.,1.,1.))) REPRESENTATION_ITEM('') SURFACE() );
#145 = CARTESIAN_POINT('',(12.,24.,26.65));
#146 = CARTESIAN_POINT('',(35.319398606527,25.307984965163,
    23.033168316832));
#147 = CARTESIAN_POINT('',(64.031256066783,53.650890334132,
    23.354025108393));
#148 = CARTESIAN_POINT('',(72.919055631053,27.598330421277,
    23.744874781596));
#149 = CARTESIAN_POINT('',(132.78236156949,90.562614594793,
    11.766501650165));
#150 = CARTESIAN_POINT('',(151.,64.,21.45));
#151 = CARTESIAN_POINT('',(12.,34.64,38.54));
#152 = CARTESIAN_POINT('',(35.319398606527,36.035414374771,
    33.309504950495));
#153 = CARTESIAN_POINT('',(64.031256066783,61.628697879592,
    33.773513233676));
#154 = CARTESIAN_POINT('',(72.919055631053,38.840669557152,
    34.338741991846));
#155 = CARTESIAN_POINT('',(132.78236156949,93.361895856252,
    17.016171617162));
#156 = CARTESIAN_POINT('',(151.,71.28,31.02));
#157 = DEFINITIONAL_REPRESENTATION('',(#158),#162);
#158 = LINE('',#159,#160);
#159 = CARTESIAN_POINT('',(14.,0.));
#160 = VECTOR('',#161,1.);
#161 = DIRECTION('',(0.,1.));
#162 = ( GEOMETRIC_REPRESENTATION_CONTEXT(2) 
PARAMETRIC_REPRESENTATION_CONTEXT() REPRESENTATION_CONTEXT('2D SPACE',''
  ) );
#163 = ADVANCED_FACE('',(#164),#81,.F.);
#164 = FACE_BOUND('',#165,.F.);
#165 = EDGE_LOOP('',(#166,#187,#226,#245));
#166 = ORIENTED_EDGE('',*,*,#167,.T.);
#167 = EDGE_CURVE('',#24,#168,#170,.T.);
#168 = VERTEX_POINT('',#169);
#169 = CARTESIAN_POINT('',(12.,89.36,38.54));
#170 = SURFACE_CURVE('',#171,(#174,#181),.PCURVE_S1.);
#171 = B_SPLINE_CURVE_WITH_KNOTS('',1,(#172,#173),.UNSPECIFIED.,.F.,.F.,
  (2,2),(1.,2.),.PIECEWISE_BEZIER_KNOTS.);
#172 = CARTESIAN_POINT('',(12.,62.,45.1));
#173 = CARTESIAN_POINT('',(12.,89.36,38.54));
#174 = PCURVE('',#81,#175);
#175 = DEFINITIONAL_REPRESENTATION('',(#176),#180);
#176 = LINE('',#177,#178);
#177 = CARTESIAN_POINT('',(0.,0.));
#178 = VECTOR('',#179,1.);
#179 = DIRECTION('',(1.,0.));
#180 = ( GEOMETRIC_REPRESENTATION_CONTEXT(2) 
PARAMETRIC_REPRESENTATION_CONTEXT() REPRESENTATION_CONTEXT('2D SPACE',''
  ) );
#181 = PCURVE('',#51,#182);
#182 = DEFINITIONAL_REPRESENTATION('',(#183),#186);
#183 = B_SPLINE_CURVE_WITH_KNOTS('',1,(#184,#185),.UNSPECIFIED.,.F.,.F.,
  (2,2),(1.,2.),.PIECEWISE_BEZIER_KNOTS.);
#184 = CARTESIAN_POINT('',(20.291331731206,-19.49012715643));
#185 = CARTESIAN_POINT('',(47.214547095659,-27.65980734842));
#186 = ( GEOMETRIC_REPRESENTATION_CONTEXT(2) 
PARAMETRIC_REPRESENTATION_CONTEXT() REPRESENTATION_CONTEXT('2D SPACE',''
  ) );
#187 = ORIENTED_EDGE('',*,*,#188,.T.);
#188 = EDGE_CURVE('',#168,#189,#191,.T.);
#189 = VERTEX_POINT('',#190);
#190 = CARTESIAN_POINT('',(151.,108.72,31.02));
#191 = SURFACE_CURVE('',#192,(#199,#206),.PCURVE_S1.);
#192 = ( BOUNDED_CURVE() B_SPLINE_CURVE(3,(#193,#194,#195,#196,#197,#198
),.UNSPECIFIED.,.F.,.F.) B_SPLINE_CURVE_WITH_KNOTS((4,1,1,4),(0.,
0.333333333333,0.666666666667,1.),.QUASI_UNIFORM_KNOTS.) CURVE() 
GEOMETRIC_REPRESENTATION_ITEM() RATIONAL_B_SPLINE_CURVE((1.,1.,1.,1.,1.,
1.)) REPRESENTATION_ITEM('') );
#193 = CARTESIAN_POINT('',(12.,89.36,38.54));
#194 = CARTESIAN_POINT('',(35.319398606527,91.205051338467,
    33.309504950495));
#195 = CARTESIAN_POINT('',(64.031256066783,102.6574223991,
    33.773513233676));
#196 = CARTESIAN_POINT('',(72.919055631053,96.658413684506,
    34.338741991846));
#197 = CARTESIAN_POINT('',(132.78236156949,107.75819948661,
    17.016171617162));
#198 = CARTESIAN_POINT('',(151.,108.72,31.02));
#199 = PCURVE('',#81,#200);
#200 = DEFINITIONAL_REPRESENTATION('',(#201),#205);
#201 = LINE('',#202,#203);
#202 = CARTESIAN_POINT('',(2.,0.));
#203 = VECTOR('',#204,1.);
#204 = DIRECTION('',(0.,1.));
#205 = ( GEOMETRIC_REPRESENTATION_CONTEXT(2) 
PARAMETRIC_REPRESENTATION_CONTEXT() REPRESENTATION_CONTEXT('2D SPACE',''
  ) );
#206 = PCURVE('',#207,#220);
#207 = ( BOUNDED_SURFACE() B_SPLINE_SURFACE(1,3,(
    (#208,#209,#210,#211,#212,#213)
    ,(#214,#215,#216,#217,#218,#219
)),.UNSPECIFIED.,.F.,.F.,.F.) B_SPLINE_SURFACE_WITH_KNOTS((2,2),(4,1,1,4
    ),(2.,3.),(0.,0.333333333333,0.666666666667,1.),.UNSPECIFIED.) 
GEOMETRIC_REPRESENTATION_ITEM() RATIONAL_B_SPLINE_SURFACE((
    (1.,1.,1.,1.,1.,1.)
,(1.,1.,1.,1.,1.,1.))) REPRESENTATION_ITEM('') SURFACE() );
#208 = CARTESIAN_POINT('',(12.,89.36,38.54));
#209 = CARTESIAN_POINT('',(35.319398606527,91.205051338467,
    33.309504950495));
#210 = CARTESIAN_POINT('',(64.031256066783,102.6574223991,
    33.773513233676));
#211 = CARTESIAN_POINT('',(72.919055631053,96.658413684506,
    34.338741991846));
#212 = CARTESIAN_POINT('',(132.78236156949,107.75819948661,
    17.016171617162));
#213 = CARTESIAN_POINT('',(151.,108.72,31.02));
#214 = CARTESIAN_POINT('',(12.,100.,26.65));
#215 = CARTESIAN_POINT('',(35.319398606527,101.93248074807,
    23.033168316832));
#216 = CARTESIAN_POINT('',(64.031256066783,110.63522994456,
    23.354025108393));
#217 = CARTESIAN_POINT('',(72.919055631053,107.90075282038,
    23.744874781596));
#218 = CARTESIAN_POINT('',(132.78236156949,110.55748074807,
    11.766501650165));
#219 = CARTESIAN_POINT('',(151.,116.,21.45));
#220 = DEFINITIONAL_REPRESENTATION('',(#221),#225);
#221 = LINE('',#222,#223);
#222 = CARTESIAN_POINT('',(2.,0.));
#223 = VECTOR('',#224,1.);
#224 = DIRECTION('',(0.,1.));
#225 = ( GEOMETRIC_REPRESENTATION_CONTEXT(2) 
PARAMETRIC_REPRESENTATION_CONTEXT() REPRESENTATION_CONTEXT('2D SPACE',''
  ) );
#226 = ORIENTED_EDGE('',*,*,#227,.F.);
#227 = EDGE_CURVE('',#63,#189,#228,.T.);
#228 = SURFACE_CURVE('',#229,(#232,#239),.PCURVE_S1.);
#229 = B_SPLINE_CURVE_WITH_KNOTS('',1,(#230,#231),.UNSPECIFIED.,.F.,.F.,
  (2,2),(1.,2.),.PIECEWISE_BEZIER_KNOTS.);
#230 = CARTESIAN_POINT('',(151.,90.,36.3));
#231 = CARTESIAN_POINT('',(151.,108.72,31.02));
#232 = PCURVE('',#81,#233);
#233 = DEFINITIONAL_REPRESENTATION('',(#234),#238);
#234 = LINE('',#235,#236);
#235 = CARTESIAN_POINT('',(0.,1.));
#236 = VECTOR('',#237,1.);
#237 = DIRECTION('',(1.,0.));
#238 = ( GEOMETRIC_REPRESENTATION_CONTEXT(2) 
PARAMETRIC_REPRESENTATION_CONTEXT() REPRESENTATION_CONTEXT('2D SPACE',''
  ) );
#239 = PCURVE('',#116,#240);
#240 = DEFINITIONAL_REPRESENTATION('',(#241),#244);
#241 = B_SPLINE_CURVE_WITH_KNOTS('',1,(#242,#243),.UNSPECIFIED.,.F.,.F.,
  (2,2),(1.,2.),.PIECEWISE_BEZIER_KNOTS.);
#242 = CARTESIAN_POINT('',(12.429115648944,-14.96107897797));
#243 = CARTESIAN_POINT('',(30.844077690127,-21.22254629975));
#244 = ( GEOMETRIC_REPRESENTATION_CONTEXT(2) 
PARAMETRIC_REPRESENTATION_CONTEXT() REPRESENTATION_CONTEXT('2D SPACE',''
  ) );
#245 = ORIENTED_EDGE('',*,*,#62,.F.);
#246 = ADVANCED_FACE('',(#247),#207,.F.);
#247 = FACE_BOUND('',#248,.F.);
#248 = EDGE_LOOP('',(#249,#270,#309,#328));
#249 = ORIENTED_EDGE('',*,*,#250,.T.);
#250 = EDGE_CURVE('',#168,#251,#253,.T.);
#251 = VERTEX_POINT('',#252);
#252 = CARTESIAN_POINT('',(12.,100.,26.65));
#253 = SURFACE_CURVE('',#254,(#257,#264),.PCURVE_S1.);
#254 = B_SPLINE_CURVE_WITH_KNOTS('',1,(#255,#256),.UNSPECIFIED.,.F.,.F.,
  (2,2),(2.,3.),.PIECEWISE_BEZIER_KNOTS.);
#255 = CARTESIAN_POINT('',(12.,89.36,38.54));
#256 = CARTESIAN_POINT('',(12.,100.,26.65));
#257 = PCURVE('',#207,#258);
#258 = DEFINITIONAL_REPRESENTATION('',(#259),#263);
#259 = LINE('',#260,#261);
#260 = CARTESIAN_POINT('',(0.,0.));
#261 = VECTOR('',#262,1.);
#262 = DIRECTION('',(1.,0.));
#263 = ( GEOMETRIC_REPRESENTATION_CONTEXT(2) 
PARAMETRIC_REPRESENTATION_CONTEXT() REPRESENTATION_CONTEXT('2D SPACE',''
  ) );
#264 = PCURVE('',#51,#265);
#265 = DEFINITIONAL_REPRESENTATION('',(#266),#269);
#266 = B_SPLINE_CURVE_WITH_KNOTS('',1,(#267,#268),.UNSPECIFIED.,.F.,.F.,
  (2,2),(2.,3.),.PIECEWISE_BEZIER_KNOTS.);
#267 = CARTESIAN_POINT('',(47.214547095659,-27.65980734842));
#268 = CARTESIAN_POINT('',(62.405298018001,-22.77894816018));
#269 = ( GEOMETRIC_REPRESENTATION_CONTEXT(2) 
PARAMETRIC_REPRESENTATION_CONTEXT() REPRESENTATION_CONTEXT('2D SPACE',''
  ) );
#270 = ORIENTED_EDGE('',*,*,#271,.T.);
#271 = EDGE_CURVE('',#251,#272,#274,.T.);
#272 = VERTEX_POINT('',#273);
#273 = CARTESIAN_POINT('',(151.,116.,21.45));
#274 = SURFACE_CURVE('',#275,(#282,#289),.PCURVE_S1.);
#275 = ( BOUNDED_CURVE() B_SPLINE_CURVE(3,(#276,#277,#278,#279,#280,#281
),.UNSPECIFIED.,.F.,.F.) B_SPLINE_CURVE_WITH_KNOTS((4,1,1,4),(0.,
0.333333333333,0.666666666667,1.),.QUASI_UNIFORM_KNOTS.) CURVE() 
GEOMETRIC_REPRESENTATION_ITEM() RATIONAL_B_SPLINE_CURVE((1.,1.,1.,1.,1.,
1.)) REPRESENTATION_ITEM('') );
#276 = CARTESIAN_POINT('',(12.,100.,26.65));
#277 = CARTESIAN_POINT('',(35.319398606527,101.93248074807,
    23.033168316832));
#278 = CARTESIAN_POINT('',(64.031256066783,110.63522994456,
    23.354025108393));
#279 = CARTESIAN_POINT('',(72.919055631053,107.90075282038,
    23.744874781596));
#280 = CARTESIAN_POINT('',(132.78236156949,110.55748074807,
    11.766501650165));
#281 = CARTESIAN_POINT('',(151.,116.,21.45));
#282 = PCURVE('',#207,#283);
#283 = DEFINITIONAL_REPRESENTATION('',(#284),#288);
#284 = LINE('',#285,#286);
#285 = CARTESIAN_POINT('',(3.,0.));
#286 = VECTOR('',#287,1.);
#287 = DIRECTION('',(0.,1.));
#288 = ( GEOMETRIC_REPRESENTATION_CONTEXT(2) 
PARAMETRIC_REPRESENTATION_CONTEXT() REPRESENTATION_CONTEXT('2D SPACE',''
  ) );
#289 = PCURVE('',#290,#303);
#290 = ( BOUNDED_SURFACE() B_SPLINE_SURFACE(1,3,(
    (#291,#292,#293,#294,#295,#296)
    ,(#297,#298,#299,#300,#301,#302
)),.UNSPECIFIED.,.F.,.F.,.F.) B_SPLINE_SURFACE_WITH_KNOTS((2,2),(4,1,1,4
    ),(3.,4.),(0.,0.333333333333,0.666666666667,1.),.UNSPECIFIED.) 
GEOMETRIC_REPRESENTATION_ITEM() RATIONAL_B_SPLINE_SURFACE((
    (1.,1.,1.,1.,1.,1.)
,(1.,1.,1.,1.,1.,1.))) REPRESENTATION_ITEM('') SURFACE() );
#291 = CARTESIAN_POINT('',(12.,100.,26.65));
#292 = CARTESIAN_POINT('',(35.319398606527,101.93248074807,
    23.033168316832));
#293 = CARTESIAN_POINT('',(64.031256066783,110.63522994456,
    23.354025108393));
#294 = CARTESIAN_POINT('',(72.919055631053,107.90075282038,
    23.744874781596));
#295 = CARTESIAN_POINT('',(132.78236156949,110.55748074807,
    11.766501650165));
#296 = CARTESIAN_POINT('',(151.,116.,21.45));
#297 = CARTESIAN_POINT('',(12.,100.,0.25));
#298 = CARTESIAN_POINT('',(35.319398606527,101.93248074807,0.25));
#299 = CARTESIAN_POINT('',(64.031256066783,110.63522994456,0.25));
#300 = CARTESIAN_POINT('',(72.919055631053,107.90075282038,0.25));
#301 = CARTESIAN_POINT('',(132.78236156949,110.55748074807,0.25));
#302 = CARTESIAN_POINT('',(151.,116.,0.25));
#303 = DEFINITIONAL_REPRESENTATION('',(#304),#308);
#304 = LINE('',#305,#306);
#305 = CARTESIAN_POINT('',(3.,0.));
#306 = VECTOR('',#307,1.);
#307 = DIRECTION('',(0.,1.));
#308 = ( GEOMETRIC_REPRESENTATION_CONTEXT(2) 
PARAMETRIC_REPRESENTATION_CONTEXT() REPRESENTATION_CONTEXT('2D SPACE',''
  ) );
#309 = ORIENTED_EDGE('',*,*,#310,.F.);
#310 = EDGE_CURVE('',#189,#272,#311,.T.);
#311 = SURFACE_CURVE('',#312,(#315,#322),.PCURVE_S1.);
#312 = B_SPLINE_CURVE_WITH_KNOTS('',1,(#313,#314),.UNSPECIFIED.,.F.,.F.,
  (2,2),(2.,3.),.PIECEWISE_BEZIER_KNOTS.);
#313 = CARTESIAN_POINT('',(151.,108.72,31.02));
#314 = CARTESIAN_POINT('',(151.,116.,21.45));
#315 = PCURVE('',#207,#316);
#316 = DEFINITIONAL_REPRESENTATION('',(#317),#321);
#317 = LINE('',#318,#319);
#318 = CARTESIAN_POINT('',(0.,1.));
#319 = VECTOR('',#320,1.);
#320 = DIRECTION('',(1.,0.));
#321 = ( GEOMETRIC_REPRESENTATION_CONTEXT(2) 
PARAMETRIC_REPRESENTATION_CONTEXT() REPRESENTATION_CONTEXT('2D SPACE',''
  ) );
#322 = PCURVE('',#116,#323);
#323 = DEFINITIONAL_REPRESENTATION('',(#324),#327);
#324 = B_SPLINE_CURVE_WITH_KNOTS('',1,(#325,#326),.UNSPECIFIED.,.F.,.F.,
  (2,2),(2.,3.),.PIECEWISE_BEZIER_KNOTS.);
#325 = CARTESIAN_POINT('',(30.844077690127,-21.22254629975));
#326 = CARTESIAN_POINT('',(42.266210533952,-17.46512946129));
#327 = ( GEOMETRIC_REPRESENTATION_CONTEXT(2) 
PARAMETRIC_REPRESENTATION_CONTEXT() REPRESENTATION_CONTEXT('2D SPACE',''
  ) );
#328 = ORIENTED_EDGE('',*,*,#188,.F.);
#329 = ADVANCED_FACE('',(#330),#290,.F.);
#330 = FACE_BOUND('',#331,.F.);
#331 = EDGE_LOOP('',(#332,#353,#392,#411));
#332 = ORIENTED_EDGE('',*,*,#333,.T.);
#333 = EDGE_CURVE('',#251,#334,#336,.T.);
#334 = VERTEX_POINT('',#335);
#335 = CARTESIAN_POINT('',(12.,100.,0.25));
#336 = SURFACE_CURVE('',#337,(#340,#347),.PCURVE_S1.);
#337 = B_SPLINE_CURVE_WITH_KNOTS('',1,(#338,#339),.UNSPECIFIED.,.F.,.F.,
  (2,2),(3.,4.),.PIECEWISE_BEZIER_KNOTS.);
#338 = CARTESIAN_POINT('',(12.,100.,26.65));
#339 = CARTESIAN_POINT('',(12.,100.,0.25));
#340 = PCURVE('',#290,#341);
#341 = DEFINITIONAL_REPRESENTATION('',(#342),#346);
#342 = LINE('',#343,#344);
#343 = CARTESIAN_POINT('',(0.,0.));
#344 = VECTOR('',#345,1.);
#345 = DIRECTION('',(1.,0.));
#346 = ( GEOMETRIC_REPRESENTATION_CONTEXT(2) 
PARAMETRIC_REPRESENTATION_CONTEXT() REPRESENTATION_CONTEXT('2D SPACE',''
  ) );
#347 = PCURVE('',#51,#348);
#348 = DEFINITIONAL_REPRESENTATION('',(#349),#352);
#349 = B_SPLINE_CURVE_WITH_KNOTS('',1,(#350,#351),.UNSPECIFIED.,.F.,.F.,
  (2,2),(3.,4.),.PIECEWISE_BEZIER_KNOTS.);
#350 = CARTESIAN_POINT('',(62.405298018001,-22.77894816018));
#351 = CARTESIAN_POINT('',(75.749941914169,-7.105427357601E-15));
#352 = ( GEOMETRIC_REPRESENTATION_CONTEXT(2) 
PARAMETRIC_REPRESENTATION_CONTEXT() REPRESENTATION_CONTEXT('2D SPACE',''
  ) );
#353 = ORIENTED_EDGE('',*,*,#354,.T.);
#354 = EDGE_CURVE('',#334,#355,#357,.T.);
#355 = VERTEX_POINT('',#356);
#356 = CARTESIAN_POINT('',(151.,116.,0.25));
#357 = SURFACE_CURVE('',#358,(#365,#372),.PCURVE_S1.);
#358 = ( BOUNDED_CURVE() B_SPLINE_CURVE(3,(#359,#360,#361,#362,#363,#364
),.UNSPECIFIED.,.F.,.F.) B_SPLINE_CURVE_WITH_KNOTS((4,1,1,4),(0.,
0.333333333333,0.666666666667,1.),.QUASI_UNIFORM_KNOTS.) CURVE() 
GEOMETRIC_REPRESENTATION_ITEM() RATIONAL_B_SPLINE_CURVE((1.,1.,1.,1.,1.,
1.)) REPRESENTATION_ITEM('') );
#359 = CARTESIAN_POINT('',(12.,100.,0.25));
#360 = CARTESIAN_POINT('',(35.319398606527,101.93248074807,0.25));
#361 = CARTESIAN_POINT('',(64.031256066783,110.63522994456,0.25));
#362 = CARTESIAN_POINT('',(72.919055631053,107.90075282038,0.25));
#363 = CARTESIAN_POINT('',(132.78236156949,110.55748074807,0.25));
#364 = CARTESIAN_POINT('',(151.,116.,0.25));
#365 = PCURVE('',#290,#366);
#366 = DEFINITIONAL_REPRESENTATION('',(#367),#371);
#367 = LINE('',#368,#369);
#368 = CARTESIAN_POINT('',(4.,0.));
#369 = VECTOR('',#370,1.);
#370 = DIRECTION('',(0.,1.));
#371 = ( GEOMETRIC_REPRESENTATION_CONTEXT(2) 
PARAMETRIC_REPRESENTATION_CONTEXT() REPRESENTATION_CONTEXT('2D SPACE',''
  ) );
#372 = PCURVE('',#373,#386);
#373 = ( BOUNDED_SURFACE() B_SPLINE_SURFACE(1,3,(
    (#374,#375,#376,#377,#378,#379)
    ,(#380,#381,#382,#383,#384,#385
)),.UNSPECIFIED.,.F.,.F.,.F.) B_SPLINE_SURFACE_WITH_KNOTS((2,2),(4,1,1,4
    ),(4.,5.),(0.,0.333333333333,0.666666666667,1.),.UNSPECIFIED.) 
GEOMETRIC_REPRESENTATION_ITEM() RATIONAL_B_SPLINE_SURFACE((
    (1.,1.,1.,1.,1.,1.)
,(1.,1.,1.,1.,1.,1.))) REPRESENTATION_ITEM('') SURFACE() );
#374 = CARTESIAN_POINT('',(12.,100.,0.25));
#375 = CARTESIAN_POINT('',(35.319398606527,101.93248074807,0.25));
#376 = CARTESIAN_POINT('',(64.031256066783,110.63522994456,0.25));
#377 = CARTESIAN_POINT('',(72.919055631053,107.90075282038,0.25));
#378 = CARTESIAN_POINT('',(132.78236156949,110.55748074807,0.25));
#379 = CARTESIAN_POINT('',(151.,116.,0.25));
#380 = CARTESIAN_POINT('',(12.,97.4,0.25));
#381 = CARTESIAN_POINT('',(35.319398606527,99.332480748075,0.25));
#382 = CARTESIAN_POINT('',(64.031256066783,108.03522994456,0.25));
#383 = CARTESIAN_POINT('',(72.919055631053,105.30075282038,0.25));
#384 = CARTESIAN_POINT('',(132.78236156949,107.95748074807,0.25));
#385 = CARTESIAN_POINT('',(151.,113.4,0.25));
#386 = DEFINITIONAL_REPRESENTATION('',(#387),#391);
#387 = LINE('',#388,#389);
#388 = CARTESIAN_POINT('',(4.,0.));
#389 = VECTOR('',#390,1.);
#390 = DIRECTION('',(0.,1.));
#391 = ( GEOMETRIC_REPRESENTATION_CONTEXT(2) 
PARAMETRIC_REPRESENTATION_CONTEXT() REPRESENTATION_CONTEXT('2D SPACE',''
  ) );
#392 = ORIENTED_EDGE('',*,*,#393,.F.);
#393 = EDGE_CURVE('',#272,#355,#394,.T.);
#394 = SURFACE_CURVE('',#395,(#398,#405),.PCURVE_S1.);
#395 = B_SPLINE_CURVE_WITH_KNOTS('',1,(#396,#397),.UNSPECIFIED.,.F.,.F.,
  (2,2),(3.,4.),.PIECEWISE_BEZIER_KNOTS.);
#396 = CARTESIAN_POINT('',(151.,116.,21.45));
#397 = CARTESIAN_POINT('',(151.,116.,0.25));
#398 = PCURVE('',#290,#399);
#399 = DEFINITIONAL_REPRESENTATION('',(#400),#404);
#400 = LINE('',#401,#402);
#401 = CARTESIAN_POINT('',(0.,1.));
#402 = VECTOR('',#403,1.);
#403 = DIRECTION('',(1.,0.));
#404 = ( GEOMETRIC_REPRESENTATION_CONTEXT(2) 
PARAMETRIC_REPRESENTATION_CONTEXT() REPRESENTATION_CONTEXT('2D SPACE',''
  ) );
#405 = PCURVE('',#116,#406);
#406 = DEFINITIONAL_REPRESENTATION('',(#407),#410);
#407 = B_SPLINE_CURVE_WITH_KNOTS('',1,(#408,#409),.UNSPECIFIED.,.F.,.F.,
  (2,2),(3.,4.),.PIECEWISE_BEZIER_KNOTS.);
#408 = CARTESIAN_POINT('',(42.266210533952,-17.46512946129));
#409 = CARTESIAN_POINT('',(54.283250639585,0.));
#410 = ( GEOMETRIC_REPRESENTATION_CONTEXT(2) 
PARAMETRIC_REPRESENTATION_CONTEXT() REPRESENTATION_CONTEXT('2D SPACE',''
  ) );
#411 = ORIENTED_EDGE('',*,*,#271,.F.);
#412 = ADVANCED_FACE('',(#413),#373,.F.);
#413 = FACE_BOUND('',#414,.F.);
#414 = EDGE_LOOP('',(#415,#436,#475,#494));
#415 = ORIENTED_EDGE('',*,*,#416,.T.);
#416 = EDGE_CURVE('',#334,#417,#419,.T.);
#417 = VERTEX_POINT('',#418);
#418 = CARTESIAN_POINT('',(12.,97.4,0.25));
#419 = SURFACE_CURVE('',#420,(#423,#430),.PCURVE_S1.);
#420 = B_SPLINE_CURVE_WITH_KNOTS('',1,(#421,#422),.UNSPECIFIED.,.F.,.F.,
  (2,2),(4.,5.),.PIECEWISE_BEZIER_KNOTS.);
#421 = CARTESIAN_POINT('',(12.,100.,0.25));
#422 = CARTESIAN_POINT('',(12.,97.4,0.25));
#423 = PCURVE('',#373,#424);
#424 = DEFINITIONAL_REPRESENTATION('',(#425),#429);
#425 = LINE('',#426,#427);
#426 = CARTESIAN_POINT('',(0.,0.));
#427 = VECTOR('',#428,1.);
#428 = DIRECTION('',(1.,0.));
#429 = ( GEOMETRIC_REPRESENTATION_CONTEXT(2) 
PARAMETRIC_REPRESENTATION_CONTEXT() REPRESENTATION_CONTEXT('2D SPACE',''
  ) );
#430 = PCURVE('',#51,#431);
#431 = DEFINITIONAL_REPRESENTATION('',(#432),#435);
#432 = B_SPLINE_CURVE_WITH_KNOTS('',1,(#433,#434),.UNSPECIFIED.,.F.,.F.,
  (2,2),(4.,5.),.PIECEWISE_BEZIER_KNOTS.);
#433 = CARTESIAN_POINT('',(75.749941914169,-7.105427357601E-15));
#434 = CARTESIAN_POINT('',(73.506560655969,1.314245232198));
#435 = ( GEOMETRIC_REPRESENTATION_CONTEXT(2) 
PARAMETRIC_REPRESENTATION_CONTEXT() REPRESENTATION_CONTEXT('2D SPACE',''
  ) );
#436 = ORIENTED_EDGE('',*,*,#437,.T.);
#437 = EDGE_CURVE('',#417,#438,#440,.T.);
#438 = VERTEX_POINT('',#439);
#439 = CARTESIAN_POINT('',(151.,113.4,0.25));
#440 = SURFACE_CURVE('',#441,(#448,#455),.PCURVE_S1.);
#441 = ( BOUNDED_CURVE() B_SPLINE_CURVE(3,(#442,#443,#444,#445,#446,#447
),.UNSPECIFIED.,.F.,.F.) B_SPLINE_CURVE_WITH_KNOTS((4,1,1,4),(0.,
0.333333333333,0.666666666667,1.),.QUASI_UNIFORM_KNOTS.) CURVE() 
GEOMETRIC_REPRESENTATION_ITEM() RATIONAL_B_SPLINE_CURVE((1.,1.,1.,1.,1.,
1.)) REPRESENTATION_ITEM('') );
#442 = CARTESIAN_POINT('',(12.,97.4,0.25));
#443 = CARTESIAN_POINT('',(35.319398606527,99.332480748075,0.25));
#444 = CARTESIAN_POINT('',(64.031256066783,108.03522994456,0.25));
#445 = CARTESIAN_POINT('',(72.919055631053,105.30075282038,0.25));
#446 = CARTESIAN_POINT('',(132.78236156949,107.95748074807,0.25));
#447 = CARTESIAN_POINT('',(151.,113.4,0.25));
#448 = PCURVE('',#373,#449);
#449 = DEFINITIONAL_REPRESENTATION('',(#450),#454);
#450 = LINE('',#451,#452);
#451 = CARTESIAN_POINT('',(5.,0.));
#452 = VECTOR('',#453,1.);
#453 = DIRECTION('',(0.,1.));
#454 = ( GEOMETRIC_REPRESENTATION_CONTEXT(2) 
PARAMETRIC_REPRESENTATION_CONTEXT() REPRESENTATION_CONTEXT('2D SPACE',''
  ) );
#455 = PCURVE('',#456,#469);
#456 = ( BOUNDED_SURFACE() B_SPLINE_SURFACE(1,3,(
    (#457,#458,#459,#460,#461,#462)
    ,(#463,#464,#465,#466,#467,#468
)),.UNSPECIFIED.,.F.,.F.,.F.) B_SPLINE_SURFACE_WITH_KNOTS((2,2),(4,1,1,4
    ),(5.,6.),(0.,0.333333333333,0.666666666667,1.),.UNSPECIFIED.) 
GEOMETRIC_REPRESENTATION_ITEM() RATIONAL_B_SPLINE_SURFACE((
    (1.,1.,1.,1.,1.,1.)
,(1.,1.,1.,1.,1.,1.))) REPRESENTATION_ITEM('') SURFACE() );
#457 = CARTESIAN_POINT('',(12.,97.4,0.25));
#458 = CARTESIAN_POINT('',(35.319398606527,99.332480748075,0.25));
#459 = CARTESIAN_POINT('',(64.031256066783,108.03522994456,0.25));
#460 = CARTESIAN_POINT('',(72.919055631053,105.30075282038,0.25));
#461 = CARTESIAN_POINT('',(132.78236156949,107.95748074807,0.25));
#462 = CARTESIAN_POINT('',(151.,113.4,0.25));
#463 = CARTESIAN_POINT('',(12.,97.4,25.656522267716));
#464 = CARTESIAN_POINT('',(35.319398606527,99.332480748075,
    21.915582677679));
#465 = CARTESIAN_POINT('',(64.031256066783,108.03522994456,
    22.475144374748));
#466 = CARTESIAN_POINT('',(72.919055631053,105.30075282038,
    22.596308530632));
#467 = CARTESIAN_POINT('',(132.78236156949,107.95748074807,
    10.966324969697));
#468 = CARTESIAN_POINT('',(151.,113.4,20.573471569928));
#469 = DEFINITIONAL_REPRESENTATION('',(#470),#474);
#470 = LINE('',#471,#472);
#471 = CARTESIAN_POINT('',(5.,0.));
#472 = VECTOR('',#473,1.);
#473 = DIRECTION('',(0.,1.));
#474 = ( GEOMETRIC_REPRESENTATION_CONTEXT(2) 
PARAMETRIC_REPRESENTATION_CONTEXT() REPRESENTATION_CONTEXT('2D SPACE',''
  ) );
#475 = ORIENTED_EDGE('',*,*,#476,.F.);
#476 = EDGE_CURVE('',#355,#438,#477,.T.);
#477 = SURFACE_CURVE('',#478,(#481,#488),.PCURVE_S1.);
#478 = B_SPLINE_CURVE_WITH_KNOTS('',1,(#479,#480),.UNSPECIFIED.,.F.,.F.,
  (2,2),(4.,5.),.PIECEWISE_BEZIER_KNOTS.);
#479 = CARTESIAN_POINT('',(151.,116.,0.25));
#480 = CARTESIAN_POINT('',(151.,113.4,0.25));
#481 = PCURVE('',#373,#482);
#482 = DEFINITIONAL_REPRESENTATION('',(#483),#487);
#483 = LINE('',#484,#485);
#484 = CARTESIAN_POINT('',(0.,1.));
#485 = VECTOR('',#486,1.);
#486 = DIRECTION('',(1.,0.));
#487 = ( GEOMETRIC_REPRESENTATION_CONTEXT(2) 
PARAMETRIC_REPRESENTATION_CONTEXT() REPRESENTATION_CONTEXT('2D SPACE',''
  ) );
#488 = PCURVE('',#116,#489);
#489 = DEFINITIONAL_REPRESENTATION('',(#490),#493);
#490 = B_SPLINE_CURVE_WITH_KNOTS('',1,(#491,#492),.UNSPECIFIED.,.F.,.F.,
  (2,2),(4.,5.),.PIECEWISE_BEZIER_KNOTS.);
#491 = CARTESIAN_POINT('',(54.283250639585,0.));
#492 = CARTESIAN_POINT('',(52.141300799993,1.473787937483));
#493 = ( GEOMETRIC_REPRESENTATION_CONTEXT(2) 
PARAMETRIC_REPRESENTATION_CONTEXT() REPRESENTATION_CONTEXT('2D SPACE',''
  ) );
#494 = ORIENTED_EDGE('',*,*,#354,.F.);
#495 = ADVANCED_FACE('',(#496),#456,.F.);
#496 = FACE_BOUND('',#497,.F.);
#497 = EDGE_LOOP('',(#498,#519,#558,#577));
#498 = ORIENTED_EDGE('',*,*,#499,.T.);
#499 = EDGE_CURVE('',#417,#500,#502,.T.);
#500 = VERTEX_POINT('',#501);
#501 = CARTESIAN_POINT('',(12.,97.4,25.656522267716));
#502 = SURFACE_CURVE('',#503,(#506,#513),.PCURVE_S1.);
#503 = B_SPLINE_CURVE_WITH_KNOTS('',1,(#504,#505),.UNSPECIFIED.,.F.,.F.,
  (2,2),(5.,6.),.PIECEWISE_BEZIER_KNOTS.);
#504 = CARTESIAN_POINT('',(12.,97.4,0.25));
#505 = CARTESIAN_POINT('',(12.,97.4,25.656522267716));
#506 = PCURVE('',#456,#507);
#507 = DEFINITIONAL_REPRESENTATION('',(#508),#512);
#508 = LINE('',#509,#510);
#509 = CARTESIAN_POINT('',(0.,0.));
#510 = VECTOR('',#511,1.);
#511 = DIRECTION('',(1.,0.));
#512 = ( GEOMETRIC_REPRESENTATION_CONTEXT(2) 
PARAMETRIC_REPRESENTATION_CONTEXT() REPRESENTATION_CONTEXT('2D SPACE',''
  ) );
#513 = PCURVE('',#51,#514);
#514 = DEFINITIONAL_REPRESENTATION('',(#515),#518);
#515 = B_SPLINE_CURVE_WITH_KNOTS('',1,(#516,#517),.UNSPECIFIED.,.F.,.F.,
  (2,2),(5.,6.),.PIECEWISE_BEZIER_KNOTS.);
#516 = CARTESIAN_POINT('',(73.506560655969,1.314245232198));
#517 = CARTESIAN_POINT('',(60.66409882632,-20.60749164912));
#518 = ( GEOMETRIC_REPRESENTATION_CONTEXT(2) 
PARAMETRIC_REPRESENTATION_CONTEXT() REPRESENTATION_CONTEXT('2D SPACE',''
  ) );
#519 = ORIENTED_EDGE('',*,*,#520,.T.);
#520 = EDGE_CURVE('',#500,#521,#523,.T.);
#521 = VERTEX_POINT('',#522);
#522 = CARTESIAN_POINT('',(151.,113.4,20.573471569928));
#523 = SURFACE_CURVE('',#524,(#531,#538),.PCURVE_S1.);
#524 = ( BOUNDED_CURVE() B_SPLINE_CURVE(3,(#525,#526,#527,#528,#529,#530
),.UNSPECIFIED.,.F.,.F.) B_SPLINE_CURVE_WITH_KNOTS((4,1,1,4),(0.,
0.333333333333,0.666666666667,1.),.QUASI_UNIFORM_KNOTS.) CURVE() 
GEOMETRIC_REPRESENTATION_ITEM() RATIONAL_B_SPLINE_CURVE((1.,1.,1.,1.,1.,
1.)) REPRESENTATION_ITEM('') );
#525 = CARTESIAN_POINT('',(12.,97.4,25.656522267716));
#526 = CARTESIAN_POINT('',(35.319398606527,99.332480748075,
    21.915582677679));
#527 = CARTESIAN_POINT('',(64.031256066783,108.03522994456,
    22.475144374748));
#528 = CARTESIAN_POINT('',(72.919055631053,105.30075282038,
    22.596308530632));
#529 = CARTESIAN_POINT('',(132.78236156949,107.95748074807,
    10.966324969697));
#530 = CARTESIAN_POINT('',(151.,113.4,20.573471569928));
#531 = PCURVE('',#456,#532);
#532 = DEFINITIONAL_REPRESENTATION('',(#533),#537);
#533 = LINE('',#534,#535);
#534 = CARTESIAN_POINT('',(6.,0.));
#535 = VECTOR('',#536,1.);
#536 = DIRECTION('',(0.,1.));
#537 = ( GEOMETRIC_REPRESENTATION_CONTEXT(2) 
PARAMETRIC_REPRESENTATION_CONTEXT() REPRESENTATION_CONTEXT('2D SPACE',''
  ) );
#538 = PCURVE('',#539,#552);
#539 = ( BOUNDED_SURFACE() B_SPLINE_SURFACE(1,3,(
    (#540,#541,#542,#543,#544,#545)
    ,(#546,#547,#548,#549,#550,#551
)),.UNSPECIFIED.,.F.,.F.,.F.) B_SPLINE_SURFACE_WITH_KNOTS((2,2),(4,1,1,4
    ),(6.,7.),(0.,0.333333333333,0.666666666667,1.),.UNSPECIFIED.) 
GEOMETRIC_REPRESENTATION_ITEM() RATIONAL_B_SPLINE_SURFACE((
    (1.,1.,1.,1.,1.,1.)
,(1.,1.,1.,1.,1.,1.))) REPRESENTATION_ITEM('') SURFACE() );
#540 = CARTESIAN_POINT('',(12.,97.4,25.656522267716));
#541 = CARTESIAN_POINT('',(35.319398606527,99.332480748075,
    21.915582677679));
#542 = CARTESIAN_POINT('',(64.031256066783,108.03522994456,
    22.475144374748));
#543 = CARTESIAN_POINT('',(72.919055631053,105.30075282038,
    22.596308530632));
#544 = CARTESIAN_POINT('',(132.78236156949,107.95748074807,
    10.966324969697));
#545 = CARTESIAN_POINT('',(151.,113.4,20.573471569928));
#546 = CARTESIAN_POINT('',(12.,87.964058432939,36.201009601584));
#547 = CARTESIAN_POINT('',(35.319398606527,89.960045425699,
    30.903958279141));
#548 = CARTESIAN_POINT('',(64.031256066783,101.12169058256,
    31.496828075568));
#549 = CARTESIAN_POINT('',(72.919055631053,95.451728398226,
    31.915267743185));
#550 = CARTESIAN_POINT('',(132.78236156949,106.1243290193,14.78665885555
    ));
#551 = CARTESIAN_POINT('',(151.,107.17720920139,28.753706177436));
#552 = DEFINITIONAL_REPRESENTATION('',(#553),#557);
#553 = LINE('',#554,#555);
#554 = CARTESIAN_POINT('',(6.,0.));
#555 = VECTOR('',#556,1.);
#556 = DIRECTION('',(0.,1.));
#557 = ( GEOMETRIC_REPRESENTATION_CONTEXT(2) 
PARAMETRIC_REPRESENTATION_CONTEXT() REPRESENTATION_CONTEXT('2D SPACE',''
  ) );
#558 = ORIENTED_EDGE('',*,*,#559,.F.);
#559 = EDGE_CURVE('',#438,#521,#560,.T.);
#560 = SURFACE_CURVE('',#561,(#564,#571),.PCURVE_S1.);
#561 = B_SPLINE_CURVE_WITH_KNOTS('',1,(#562,#563),.UNSPECIFIED.,.F.,.F.,
  (2,2),(5.,6.),.PIECEWISE_BEZIER_KNOTS.);
#562 = CARTESIAN_POINT('',(151.,113.4,0.25));
#563 = CARTESIAN_POINT('',(151.,113.4,20.573471569928));
#564 = PCURVE('',#456,#565);
#565 = DEFINITIONAL_REPRESENTATION('',(#566),#570);
#566 = LINE('',#567,#568);
#567 = CARTESIAN_POINT('',(0.,1.));
#568 = VECTOR('',#569,1.);
#569 = DIRECTION('',(1.,0.));
#570 = ( GEOMETRIC_REPRESENTATION_CONTEXT(2) 
PARAMETRIC_REPRESENTATION_CONTEXT() REPRESENTATION_CONTEXT('2D SPACE',''
  ) );
#571 = PCURVE('',#116,#572);
#572 = DEFINITIONAL_REPRESENTATION('',(#573),#576);
#573 = B_SPLINE_CURVE_WITH_KNOTS('',1,(#574,#575),.UNSPECIFIED.,.F.,.F.,
  (2,2),(5.,6.),.PIECEWISE_BEZIER_KNOTS.);
#574 = CARTESIAN_POINT('',(52.141300799993,1.473787937483));
#575 = CARTESIAN_POINT('',(40.621113397091,-15.26923385834));
#576 = ( GEOMETRIC_REPRESENTATION_CONTEXT(2) 
PARAMETRIC_REPRESENTATION_CONTEXT() REPRESENTATION_CONTEXT('2D SPACE',''
  ) );
#577 = ORIENTED_EDGE('',*,*,#437,.F.);
#578 = ADVANCED_FACE('',(#579),#539,.F.);
#579 = FACE_BOUND('',#580,.F.);
#580 = EDGE_LOOP('',(#581,#602,#641,#660));
#581 = ORIENTED_EDGE('',*,*,#582,.T.);
#582 = EDGE_CURVE('',#500,#583,#585,.T.);
#583 = VERTEX_POINT('',#584);
#584 = CARTESIAN_POINT('',(12.,87.964058432939,36.201009601584));
#585 = SURFACE_CURVE('',#586,(#589,#596),.PCURVE_S1.);
#586 = B_SPLINE_CURVE_WITH_KNOTS('',1,(#587,#588),.UNSPECIFIED.,.F.,.F.,
  (2,2),(6.,7.),.PIECEWISE_BEZIER_KNOTS.);
#587 = CARTESIAN_POINT('',(12.,97.4,25.656522267716));
#588 = CARTESIAN_POINT('',(12.,87.964058432939,36.201009601584));
#589 = PCURVE('',#539,#590);
#590 = DEFINITIONAL_REPRESENTATION('',(#591),#595);
#591 = LINE('',#592,#593);
#592 = CARTESIAN_POINT('',(0.,0.));
#593 = VECTOR('',#594,1.);
#594 = DIRECTION('',(1.,0.));
#595 = ( GEOMETRIC_REPRESENTATION_CONTEXT(2) 
PARAMETRIC_REPRESENTATION_CONTEXT() REPRESENTATION_CONTEXT('2D SPACE',''
  ) );
#596 = PCURVE('',#51,#597);
#597 = DEFINITIONAL_REPRESENTATION('',(#598),#601);
#598 = B_SPLINE_CURVE_WITH_KNOTS('',1,(#599,#600),.UNSPECIFIED.,.F.,.F.,
  (2,2),(6.,7.),.PIECEWISE_BEZIER_KNOTS.);
#599 = CARTESIAN_POINT('',(60.66409882632,-20.60749164912));
#600 = CARTESIAN_POINT('',(47.192384722656,-24.93601628232));
#601 = ( GEOMETRIC_REPRESENTATION_CONTEXT(2) 
PARAMETRIC_REPRESENTATION_CONTEXT() REPRESENTATION_CONTEXT('2D SPACE',''
  ) );
#602 = ORIENTED_EDGE('',*,*,#603,.T.);
#603 = EDGE_CURVE('',#583,#604,#606,.T.);
#604 = VERTEX_POINT('',#605);
#605 = CARTESIAN_POINT('',(151.,107.17720920139,28.753706177436));
#606 = SURFACE_CURVE('',#607,(#614,#621),.PCURVE_S1.);
#607 = ( BOUNDED_CURVE() B_SPLINE_CURVE(3,(#608,#609,#610,#611,#612,#613
),.UNSPECIFIED.,.F.,.F.) B_SPLINE_CURVE_WITH_KNOTS((4,1,1,4),(0.,
0.333333333333,0.666666666667,1.),.QUASI_UNIFORM_KNOTS.) CURVE() 
GEOMETRIC_REPRESENTATION_ITEM() RATIONAL_B_SPLINE_CURVE((1.,1.,1.,1.,1.,
1.)) REPRESENTATION_ITEM('') );
#608 = CARTESIAN_POINT('',(12.,87.964058432939,36.201009601584));
#609 = CARTESIAN_POINT('',(35.319398606527,89.960045425699,
    30.903958279141));
#610 = CARTESIAN_POINT('',(64.031256066783,101.12169058256,
    31.496828075568));
#611 = CARTESIAN_POINT('',(72.919055631053,95.451728398226,
    31.915267743185));
#612 = CARTESIAN_POINT('',(132.78236156949,106.1243290193,14.78665885555
    ));
#613 = CARTESIAN_POINT('',(151.,107.17720920139,28.753706177436));
#614 = PCURVE('',#539,#615);
#615 = DEFINITIONAL_REPRESENTATION('',(#616),#620);
#616 = LINE('',#617,#618);
#617 = CARTESIAN_POINT('',(7.,0.));
#618 = VECTOR('',#619,1.);
#619 = DIRECTION('',(0.,1.));
#620 = ( GEOMETRIC_REPRESENTATION_CONTEXT(2) 
PARAMETRIC_REPRESENTATION_CONTEXT() REPRESENTATION_CONTEXT('2D SPACE',''
  ) );
#621 = PCURVE('',#622,#635);
#622 = ( BOUNDED_SURFACE() B_SPLINE_SURFACE(1,3,(
    (#623,#624,#625,#626,#627,#628)
    ,(#629,#630,#631,#632,#633,#634
)),.UNSPECIFIED.,.F.,.F.,.F.) B_SPLINE_SURFACE_WITH_KNOTS((2,2),(4,1,1,4
    ),(7.,8.),(0.,0.333333333333,0.666666666667,1.),.UNSPECIFIED.) 
GEOMETRIC_REPRESENTATION_ITEM() RATIONAL_B_SPLINE_SURFACE((
    (1.,1.,1.,1.,1.,1.)
,(1.,1.,1.,1.,1.,1.))) REPRESENTATION_ITEM('') SURFACE() );
#623 = CARTESIAN_POINT('',(12.,87.964058432939,36.201009601584));
#624 = CARTESIAN_POINT('',(35.319398606527,89.960045425699,
    30.903958279141));
#625 = CARTESIAN_POINT('',(64.031256066783,101.12169058256,
    31.496828075568));
#626 = CARTESIAN_POINT('',(72.919055631053,95.451728398226,
    31.915267743185));
#627 = CARTESIAN_POINT('',(132.78236156949,106.1243290193,14.78665885555
    ));
#628 = CARTESIAN_POINT('',(151.,107.17720920139,28.753706177436));
#629 = CARTESIAN_POINT('',(12.,62.,42.426310161528));
#630 = CARTESIAN_POINT('',(35.319398606527,63.620232856619,
    36.329073933724));
#631 = CARTESIAN_POINT('',(64.031256066783,82.143060139347,
    36.826304555129));
#632 = CARTESIAN_POINT('',(72.919055631053,67.749541620829,
    37.540083982826));
#633 = CARTESIAN_POINT('',(132.78236156949,100.56004767143,
    17.199045015427));
#634 = CARTESIAN_POINT('',(151.,90.,33.598560054753));
#635 = DEFINITIONAL_REPRESENTATION('',(#636),#640);
#636 = LINE('',#637,#638);
#637 = CARTESIAN_POINT('',(7.,0.));
#638 = VECTOR('',#639,1.);
#639 = DIRECTION('',(0.,1.));
#640 = ( GEOMETRIC_REPRESENTATION_CONTEXT(2) 
PARAMETRIC_REPRESENTATION_CONTEXT() REPRESENTATION_CONTEXT('2D SPACE',''
  ) );
#641 = ORIENTED_EDGE('',*,*,#642,.F.);
#642 = EDGE_CURVE('',#521,#604,#643,.T.);
#643 = SURFACE_CURVE('',#644,(#647,#654),.PCURVE_S1.);
#644 = B_SPLINE_CURVE_WITH_KNOTS('',1,(#645,#646),.UNSPECIFIED.,.F.,.F.,
  (2,2),(6.,7.),.PIECEWISE_BEZIER_KNOTS.);
#645 = CARTESIAN_POINT('',(151.,113.4,20.573471569928));
#646 = CARTESIAN_POINT('',(151.,107.17720920139,28.753706177436));
#647 = PCURVE('',#539,#648);
#648 = DEFINITIONAL_REPRESENTATION('',(#649),#653);
#649 = LINE('',#650,#651);
#650 = CARTESIAN_POINT('',(0.,1.));
#651 = VECTOR('',#652,1.);
#652 = DIRECTION('',(1.,0.));
#653 = ( GEOMETRIC_REPRESENTATION_CONTEXT(2) 
PARAMETRIC_REPRESENTATION_CONTEXT() REPRESENTATION_CONTEXT('2D SPACE',''
  ) );
#654 = PCURVE('',#116,#655);
#655 = DEFINITIONAL_REPRESENTATION('',(#656),#659);
#656 = B_SPLINE_CURVE_WITH_KNOTS('',1,(#657,#658),.UNSPECIFIED.,.F.,.F.,
  (2,2),(6.,7.),.PIECEWISE_BEZIER_KNOTS.);
#657 = CARTESIAN_POINT('',(40.621113397091,-15.26923385834));
#658 = CARTESIAN_POINT('',(30.857714611238,-18.48099470023));
#659 = ( GEOMETRIC_REPRESENTATION_CONTEXT(2) 
PARAMETRIC_REPRESENTATION_CONTEXT() REPRESENTATION_CONTEXT('2D SPACE',''
  ) );
#660 = ORIENTED_EDGE('',*,*,#520,.F.);
#661 = ADVANCED_FACE('',(#662),#622,.F.);
#662 = FACE_BOUND('',#663,.F.);
#663 = EDGE_LOOP('',(#664,#685,#724,#743));
#664 = ORIENTED_EDGE('',*,*,#665,.T.);
#665 = EDGE_CURVE('',#583,#666,#668,.T.);
#666 = VERTEX_POINT('',#667);
#667 = CARTESIAN_POINT('',(12.,62.,42.426310161528));
#668 = SURFACE_CURVE('',#669,(#672,#679),.PCURVE_S1.);
#669 = B_SPLINE_CURVE_WITH_KNOTS('',1,(#670,#671),.UNSPECIFIED.,.F.,.F.,
  (2,2),(7.,8.),.PIECEWISE_BEZIER_KNOTS.);
#670 = CARTESIAN_POINT('',(12.,87.964058432939,36.201009601584));
#671 = CARTESIAN_POINT('',(12.,62.,42.426310161528));
#672 = PCURVE('',#622,#673);
#673 = DEFINITIONAL_REPRESENTATION('',(#674),#678);
#674 = LINE('',#675,#676);
#675 = CARTESIAN_POINT('',(0.,0.));
#676 = VECTOR('',#677,1.);
#677 = DIRECTION('',(1.,0.));
#678 = ( GEOMETRIC_REPRESENTATION_CONTEXT(2) 
PARAMETRIC_REPRESENTATION_CONTEXT() REPRESENTATION_CONTEXT('2D SPACE',''
  ) );
#679 = PCURVE('',#51,#680);
#680 = DEFINITIONAL_REPRESENTATION('',(#681),#684);
#681 = B_SPLINE_CURVE_WITH_KNOTS('',1,(#682,#683),.UNSPECIFIED.,.F.,.F.,
  (2,2),(7.,8.),.PIECEWISE_BEZIER_KNOTS.);
#682 = CARTESIAN_POINT('',(47.192384722656,-24.93601628232));
#683 = CARTESIAN_POINT('',(21.64282562451,-17.18316343572));
#684 = ( GEOMETRIC_REPRESENTATION_CONTEXT(2) 
PARAMETRIC_REPRESENTATION_CONTEXT() REPRESENTATION_CONTEXT('2D SPACE',''
  ) );
#685 = ORIENTED_EDGE('',*,*,#686,.T.);
#686 = EDGE_CURVE('',#666,#687,#689,.T.);
#687 = VERTEX_POINT('',#688);
#688 = CARTESIAN_POINT('',(151.,90.,33.598560054753));
#689 = SURFACE_CURVE('',#690,(#697,#704),.PCURVE_S1.);
#690 = ( BOUNDED_CURVE() B_SPLINE_CURVE(3,(#691,#692,#693,#694,#695,#696
),.UNSPECIFIED.,.F.,.F.) B_SPLINE_CURVE_WITH_KNOTS((4,1,1,4),(0.,
0.333333333333,0.666666666667,1.),.QUASI_UNIFORM_KNOTS.) CURVE() 
GEOMETRIC_REPRESENTATION_ITEM() RATIONAL_B_SPLINE_CURVE((1.,1.,1.,1.,1.,
1.)) REPRESENTATION_ITEM('') );
#691 = CARTESIAN_POINT('',(12.,62.,42.426310161528));
#692 = CARTESIAN_POINT('',(35.319398606527,63.620232856619,
    36.329073933724));
#693 = CARTESIAN_POINT('',(64.031256066783,82.143060139347,
    36.826304555129));
#694 = CARTESIAN_POINT('',(72.919055631053,67.749541620829,
    37.540083982826));
#695 = CARTESIAN_POINT('',(132.78236156949,100.56004767143,
    17.199045015427));
#696 = CARTESIAN_POINT('',(151.,90.,33.598560054753));
#697 = PCURVE('',#622,#698);
#698 = DEFINITIONAL_REPRESENTATION('',(#699),#703);
#699 = LINE('',#700,#701);
#700 = CARTESIAN_POINT('',(8.,0.));
#701 = VECTOR('',#702,1.);
#702 = DIRECTION('',(0.,1.));
#703 = ( GEOMETRIC_REPRESENTATION_CONTEXT(2) 
PARAMETRIC_REPRESENTATION_CONTEXT() REPRESENTATION_CONTEXT('2D SPACE',''
  ) );
#704 = PCURVE('',#705,#718);
#705 = ( BOUNDED_SURFACE() B_SPLINE_SURFACE(1,3,(
    (#706,#707,#708,#709,#710,#711)
    ,(#712,#713,#714,#715,#716,#717
)),.UNSPECIFIED.,.F.,.F.,.F.) B_SPLINE_SURFACE_WITH_KNOTS((2,2),(4,1,1,4
    ),(8.,9.),(0.,0.333333333333,0.666666666667,1.),.UNSPECIFIED.) 
GEOMETRIC_REPRESENTATION_ITEM() RATIONAL_B_SPLINE_SURFACE((
    (1.,1.,1.,1.,1.,1.)
,(1.,1.,1.,1.,1.,1.))) REPRESENTATION_ITEM('') SURFACE() );
#706 = CARTESIAN_POINT('',(12.,62.,42.426310161528));
#707 = CARTESIAN_POINT('',(35.319398606527,63.620232856619,
    36.329073933724));
#708 = CARTESIAN_POINT('',(64.031256066783,82.143060139347,
    36.826304555129));
#709 = CARTESIAN_POINT('',(72.919055631053,67.749541620829,
    37.540083982826));
#710 = CARTESIAN_POINT('',(132.78236156949,100.56004767143,
    17.199045015427));
#711 = CARTESIAN_POINT('',(151.,90.,33.598560054753));
#712 = CARTESIAN_POINT('',(12.,36.035941567061,36.201009601584));
#713 = CARTESIAN_POINT('',(35.319398606527,37.280420287539,
    30.903958279141));
#714 = CARTESIAN_POINT('',(64.031256066783,63.164429696126,
    31.496828075568));
#715 = CARTESIAN_POINT('',(72.919055631053,40.047354843431,
    31.915267743185));
#716 = CARTESIAN_POINT('',(132.78236156949,94.995766323559,
    14.78665885555));
#717 = CARTESIAN_POINT('',(151.,72.822790798606,28.753706177436));
#718 = DEFINITIONAL_REPRESENTATION('',(#719),#723);
#719 = LINE('',#720,#721);
#720 = CARTESIAN_POINT('',(8.,0.));
#721 = VECTOR('',#722,1.);
#722 = DIRECTION('',(0.,1.));
#723 = ( GEOMETRIC_REPRESENTATION_CONTEXT(2) 
PARAMETRIC_REPRESENTATION_CONTEXT() REPRESENTATION_CONTEXT('2D SPACE',''
  ) );
#724 = ORIENTED_EDGE('',*,*,#725,.F.);
#725 = EDGE_CURVE('',#604,#687,#726,.T.);
#726 = SURFACE_CURVE('',#727,(#730,#737),.PCURVE_S1.);
#727 = B_SPLINE_CURVE_WITH_KNOTS('',1,(#728,#729),.UNSPECIFIED.,.F.,.F.,
  (2,2),(7.,8.),.PIECEWISE_BEZIER_KNOTS.);
#728 = CARTESIAN_POINT('',(151.,107.17720920139,28.753706177436));
#729 = CARTESIAN_POINT('',(151.,90.,33.598560054753));
#730 = PCURVE('',#622,#731);
#731 = DEFINITIONAL_REPRESENTATION('',(#732),#736);
#732 = LINE('',#733,#734);
#733 = CARTESIAN_POINT('',(0.,1.));
#734 = VECTOR('',#735,1.);
#735 = DIRECTION('',(1.,0.));
#736 = ( GEOMETRIC_REPRESENTATION_CONTEXT(2) 
PARAMETRIC_REPRESENTATION_CONTEXT() REPRESENTATION_CONTEXT('2D SPACE',''
  ) );
#737 = PCURVE('',#116,#738);
#738 = DEFINITIONAL_REPRESENTATION('',(#739),#742);
#739 = B_SPLINE_CURVE_WITH_KNOTS('',1,(#740,#741),.UNSPECIFIED.,.F.,.F.,
  (2,2),(7.,8.),.PIECEWISE_BEZIER_KNOTS.);
#740 = CARTESIAN_POINT('',(30.857714611238,-18.48099470023));
#741 = CARTESIAN_POINT('',(13.960403958613,-12.73556018667));
#742 = ( GEOMETRIC_REPRESENTATION_CONTEXT(2) 
PARAMETRIC_REPRESENTATION_CONTEXT() REPRESENTATION_CONTEXT('2D SPACE',''
  ) );
#743 = ORIENTED_EDGE('',*,*,#603,.F.);
#744 = ADVANCED_FACE('',(#745),#705,.F.);
#745 = FACE_BOUND('',#746,.F.);
#746 = EDGE_LOOP('',(#747,#768,#807,#826));
#747 = ORIENTED_EDGE('',*,*,#748,.T.);
#748 = EDGE_CURVE('',#666,#749,#751,.T.);
#749 = VERTEX_POINT('',#750);
#750 = CARTESIAN_POINT('',(12.,36.035941567061,36.201009601584));
#751 = SURFACE_CURVE('',#752,(#755,#762),.PCURVE_S1.);
#752 = B_SPLINE_CURVE_WITH_KNOTS('',1,(#753,#754),.UNSPECIFIED.,.F.,.F.,
  (2,2),(8.,9.),.PIECEWISE_BEZIER_KNOTS.);
#753 = CARTESIAN_POINT('',(12.,62.,42.426310161528));
#754 = CARTESIAN_POINT('',(12.,36.035941567061,36.201009601584));
#755 = PCURVE('',#705,#756);
#756 = DEFINITIONAL_REPRESENTATION('',(#757),#761);
#757 = LINE('',#758,#759);
#758 = CARTESIAN_POINT('',(0.,0.));
#759 = VECTOR('',#760,1.);
#760 = DIRECTION('',(1.,0.));
#761 = ( GEOMETRIC_REPRESENTATION_CONTEXT(2) 
PARAMETRIC_REPRESENTATION_CONTEXT() REPRESENTATION_CONTEXT('2D SPACE',''
  ) );
#762 = PCURVE('',#51,#763);
#763 = DEFINITIONAL_REPRESENTATION('',(#764),#767);
#764 = B_SPLINE_CURVE_WITH_KNOTS('',1,(#765,#766),.UNSPECIFIED.,.F.,.F.,
  (2,2),(8.,9.),.PIECEWISE_BEZIER_KNOTS.);
#765 = CARTESIAN_POINT('',(21.64282562451,-17.18316343572));
#766 = CARTESIAN_POINT('',(2.386783126293,1.312552951531));
#767 = ( GEOMETRIC_REPRESENTATION_CONTEXT(2) 
PARAMETRIC_REPRESENTATION_CONTEXT() REPRESENTATION_CONTEXT('2D SPACE',''
  ) );
#768 = ORIENTED_EDGE('',*,*,#769,.T.);
#769 = EDGE_CURVE('',#749,#770,#772,.T.);
#770 = VERTEX_POINT('',#771);
#771 = CARTESIAN_POINT('',(151.,72.822790798606,28.753706177436));
#772 = SURFACE_CURVE('',#773,(#780,#787),.PCURVE_S1.);
#773 = ( BOUNDED_CURVE() B_SPLINE_CURVE(3,(#774,#775,#776,#777,#778,#779
),.UNSPECIFIED.,.F.,.F.) B_SPLINE_CURVE_WITH_KNOTS((4,1,1,4),(0.,
0.333333333333,0.666666666667,1.),.QUASI_UNIFORM_KNOTS.) CURVE() 
GEOMETRIC_REPRESENTATION_ITEM() RATIONAL_B_SPLINE_CURVE((1.,1.,1.,1.,1.,
1.)) REPRESENTATION_ITEM('') );
#774 = CARTESIAN_POINT('',(12.,36.035941567061,36.201009601584));
#775 = CARTESIAN_POINT('',(35.319398606527,37.280420287539,
    30.903958279141));
#776 = CARTESIAN_POINT('',(64.031256066783,63.164429696126,
    31.496828075568));
#777 = CARTESIAN_POINT('',(72.919055631053,40.047354843431,
    31.915267743185));
#778 = CARTESIAN_POINT('',(132.78236156949,94.995766323559,
    14.78665885555));
#779 = CARTESIAN_POINT('',(151.,72.822790798606,28.753706177436));
#780 = PCURVE('',#705,#781);
#781 = DEFINITIONAL_REPRESENTATION('',(#782),#786);
#782 = LINE('',#783,#784);
#783 = CARTESIAN_POINT('',(9.,0.));
#784 = VECTOR('',#785,1.);
#785 = DIRECTION('',(0.,1.));
#786 = ( GEOMETRIC_REPRESENTATION_CONTEXT(2) 
PARAMETRIC_REPRESENTATION_CONTEXT() REPRESENTATION_CONTEXT('2D SPACE',''
  ) );
#787 = PCURVE('',#788,#801);
#788 = ( BOUNDED_SURFACE() B_SPLINE_SURFACE(1,3,(
    (#789,#790,#791,#792,#793,#794)
    ,(#795,#796,#797,#798,#799,#800
)),.UNSPECIFIED.,.F.,.F.,.F.) B_SPLINE_SURFACE_WITH_KNOTS((2,2),(4,1,1,4
    ),(9.,10.),(0.,0.333333333333,0.666666666667,1.),.UNSPECIFIED.) 
GEOMETRIC_REPRESENTATION_ITEM() RATIONAL_B_SPLINE_SURFACE((
    (1.,1.,1.,1.,1.,1.)
,(1.,1.,1.,1.,1.,1.))) REPRESENTATION_ITEM('') SURFACE() );
#789 = CARTESIAN_POINT('',(12.,36.035941567061,36.201009601584));
#790 = CARTESIAN_POINT('',(35.319398606527,37.280420287539,
    30.903958279141));
#791 = CARTESIAN_POINT('',(64.031256066783,63.164429696126,
    31.496828075568));
#792 = CARTESIAN_POINT('',(72.919055631053,40.047354843431,
    31.915267743185));
#793 = CARTESIAN_POINT('',(132.78236156949,94.995766323559,
    14.78665885555));
#794 = CARTESIAN_POINT('',(151.,72.822790798606,28.753706177436));
#795 = CARTESIAN_POINT('',(12.,26.6,25.656522267716));
#796 = CARTESIAN_POINT('',(35.319398606527,27.907984965163,
    21.915582677679));
#797 = CARTESIAN_POINT('',(64.031256066783,56.250890334131,
    22.475144374748));
#798 = CARTESIAN_POINT('',(72.919055631053,30.198330421277,
    22.596308530632));
#799 = CARTESIAN_POINT('',(132.78236156949,93.162614594793,
    10.966324969697));
#800 = CARTESIAN_POINT('',(151.,66.6,20.573471569928));
#801 = DEFINITIONAL_REPRESENTATION('',(#802),#806);
#802 = LINE('',#803,#804);
#803 = CARTESIAN_POINT('',(9.,0.));
#804 = VECTOR('',#805,1.);
#805 = DIRECTION('',(0.,1.));
#806 = ( GEOMETRIC_REPRESENTATION_CONTEXT(2) 
PARAMETRIC_REPRESENTATION_CONTEXT() REPRESENTATION_CONTEXT('2D SPACE',''
  ) );
#807 = ORIENTED_EDGE('',*,*,#808,.F.);
#808 = EDGE_CURVE('',#687,#770,#809,.T.);
#809 = SURFACE_CURVE('',#810,(#813,#820),.PCURVE_S1.);
#810 = B_SPLINE_CURVE_WITH_KNOTS('',1,(#811,#812),.UNSPECIFIED.,.F.,.F.,
  (2,2),(8.,9.),.PIECEWISE_BEZIER_KNOTS.);
#811 = CARTESIAN_POINT('',(151.,90.,33.598560054753));
#812 = CARTESIAN_POINT('',(151.,72.822790798606,28.753706177436));
#813 = PCURVE('',#705,#814);
#814 = DEFINITIONAL_REPRESENTATION('',(#815),#819);
#815 = LINE('',#816,#817);
#816 = CARTESIAN_POINT('',(0.,1.));
#817 = VECTOR('',#818,1.);
#818 = DIRECTION('',(1.,0.));
#819 = ( GEOMETRIC_REPRESENTATION_CONTEXT(2) 
PARAMETRIC_REPRESENTATION_CONTEXT() REPRESENTATION_CONTEXT('2D SPACE',''
  ) );
#820 = PCURVE('',#116,#821);
#821 = DEFINITIONAL_REPRESENTATION('',(#822),#825);
#822 = B_SPLINE_CURVE_WITH_KNOTS('',1,(#823,#824),.UNSPECIFIED.,.F.,.F.,
  (2,2),(8.,9.),.PIECEWISE_BEZIER_KNOTS.);
#823 = CARTESIAN_POINT('',(13.960403958613,-12.73556018667));
#824 = CARTESIAN_POINT('',(2.555621923879,0.992515854101));
#825 = ( GEOMETRIC_REPRESENTATION_CONTEXT(2) 
PARAMETRIC_REPRESENTATION_CONTEXT() REPRESENTATION_CONTEXT('2D SPACE',''
  ) );
#826 = ORIENTED_EDGE('',*,*,#686,.F.);
#827 = ADVANCED_FACE('',(#828),#788,.F.);
#828 = FACE_BOUND('',#829,.F.);
#829 = EDGE_LOOP('',(#830,#851,#890,#909));
#830 = ORIENTED_EDGE('',*,*,#831,.T.);
#831 = EDGE_CURVE('',#749,#832,#834,.T.);
#832 = VERTEX_POINT('',#833);
#833 = CARTESIAN_POINT('',(12.,26.6,25.656522267716));
#834 = SURFACE_CURVE('',#835,(#838,#845),.PCURVE_S1.);
#835 = B_SPLINE_CURVE_WITH_KNOTS('',1,(#836,#837),.UNSPECIFIED.,.F.,.F.,
  (2,2),(9.,10.),.PIECEWISE_BEZIER_KNOTS.);
#836 = CARTESIAN_POINT('',(12.,36.035941567061,36.201009601584));
#837 = CARTESIAN_POINT('',(12.,26.6,25.656522267716));
#838 = PCURVE('',#788,#839);
#839 = DEFINITIONAL_REPRESENTATION('',(#840),#844);
#840 = LINE('',#841,#842);
#841 = CARTESIAN_POINT('',(0.,0.));
#842 = VECTOR('',#843,1.);
#843 = DIRECTION('',(1.,0.));
#844 = ( GEOMETRIC_REPRESENTATION_CONTEXT(2) 
PARAMETRIC_REPRESENTATION_CONTEXT() REPRESENTATION_CONTEXT('2D SPACE',''
  ) );
#845 = PCURVE('',#51,#846);
#846 = DEFINITIONAL_REPRESENTATION('',(#847),#850);
#847 = B_SPLINE_CURVE_WITH_KNOTS('',1,(#848,#849),.UNSPECIFIED.,.F.,.F.,
  (2,2),(9.,10.),.PIECEWISE_BEZIER_KNOTS.);
#848 = CARTESIAN_POINT('',(2.386783126293,1.312552951531));
#849 = CARTESIAN_POINT('',(-0.424898512362,15.180416981508));
#850 = ( GEOMETRIC_REPRESENTATION_CONTEXT(2) 
PARAMETRIC_REPRESENTATION_CONTEXT() REPRESENTATION_CONTEXT('2D SPACE',''
  ) );
#851 = ORIENTED_EDGE('',*,*,#852,.T.);
#852 = EDGE_CURVE('',#832,#853,#855,.T.);
#853 = VERTEX_POINT('',#854);
#854 = CARTESIAN_POINT('',(151.,66.6,20.573471569928));
#855 = SURFACE_CURVE('',#856,(#863,#870),.PCURVE_S1.);
#856 = ( BOUNDED_CURVE() B_SPLINE_CURVE(3,(#857,#858,#859,#860,#861,#862
),.UNSPECIFIED.,.F.,.F.) B_SPLINE_CURVE_WITH_KNOTS((4,1,1,4),(0.,
0.333333333333,0.666666666667,1.),.QUASI_UNIFORM_KNOTS.) CURVE() 
GEOMETRIC_REPRESENTATION_ITEM() RATIONAL_B_SPLINE_CURVE((1.,1.,1.,1.,1.,
1.)) REPRESENTATION_ITEM('') );
#857 = CARTESIAN_POINT('',(12.,26.6,25.656522267716));
#858 = CARTESIAN_POINT('',(35.319398606527,27.907984965163,
    21.915582677679));
#859 = CARTESIAN_POINT('',(64.031256066783,56.250890334131,
    22.475144374748));
#860 = CARTESIAN_POINT('',(72.919055631053,30.198330421277,
    22.596308530632));
#861 = CARTESIAN_POINT('',(132.78236156949,93.162614594793,
    10.966324969697));
#862 = CARTESIAN_POINT('',(151.,66.6,20.573471569928));
#863 = PCURVE('',#788,#864);
#864 = DEFINITIONAL_REPRESENTATION('',(#865),#869);
#865 = LINE('',#866,#867);
#866 = CARTESIAN_POINT('',(10.,0.));
#867 = VECTOR('',#868,1.);
#868 = DIRECTION('',(0.,1.));
#869 = ( GEOMETRIC_REPRESENTATION_CONTEXT(2) 
PARAMETRIC_REPRESENTATION_CONTEXT() REPRESENTATION_CONTEXT('2D SPACE',''
  ) );
#870 = PCURVE('',#871,#884);
#871 = ( BOUNDED_SURFACE() B_SPLINE_SURFACE(1,3,(
    (#872,#873,#874,#875,#876,#877)
    ,(#878,#879,#880,#881,#882,#883
)),.UNSPECIFIED.,.F.,.F.,.F.) B_SPLINE_SURFACE_WITH_KNOTS((2,2),(4,1,1,4
    ),(10.,11.),(0.,0.333333333333,0.666666666667,1.),.UNSPECIFIED.) 
GEOMETRIC_REPRESENTATION_ITEM() RATIONAL_B_SPLINE_SURFACE((
    (1.,1.,1.,1.,1.,1.)
,(1.,1.,1.,1.,1.,1.))) REPRESENTATION_ITEM('') SURFACE() );
#872 = CARTESIAN_POINT('',(12.,26.6,25.656522267716));
#873 = CARTESIAN_POINT('',(35.319398606527,27.907984965163,
    21.915582677679));
#874 = CARTESIAN_POINT('',(64.031256066783,56.250890334131,
    22.475144374748));
#875 = CARTESIAN_POINT('',(72.919055631053,30.198330421277,
    22.596308530632));
#876 = CARTESIAN_POINT('',(132.78236156949,93.162614594793,
    10.966324969697));
#877 = CARTESIAN_POINT('',(151.,66.6,20.573471569928));
#878 = CARTESIAN_POINT('',(12.,26.6,0.25));
#879 = CARTESIAN_POINT('',(35.319398606527,27.907984965163,0.25));
#880 = CARTESIAN_POINT('',(64.031256066783,56.250890334131,0.25));
#881 = CARTESIAN_POINT('',(72.919055631053,30.198330421277,0.25));
#882 = CARTESIAN_POINT('',(132.78236156949,93.162614594793,0.25));
#883 = CARTESIAN_POINT('',(151.,66.6,0.25));
#884 = DEFINITIONAL_REPRESENTATION('',(#885),#889);
#885 = LINE('',#886,#887);
#886 = CARTESIAN_POINT('',(10.,0.));
#887 = VECTOR('',#888,1.);
#888 = DIRECTION('',(0.,1.));
#889 = ( GEOMETRIC_REPRESENTATION_CONTEXT(2) 
PARAMETRIC_REPRESENTATION_CONTEXT() REPRESENTATION_CONTEXT('2D SPACE',''
  ) );
#890 = ORIENTED_EDGE('',*,*,#891,.F.);
#891 = EDGE_CURVE('',#770,#853,#892,.T.);
#892 = SURFACE_CURVE('',#893,(#896,#903),.PCURVE_S1.);
#893 = B_SPLINE_CURVE_WITH_KNOTS('',1,(#894,#895),.UNSPECIFIED.,.F.,.F.,
  (2,2),(9.,10.),.PIECEWISE_BEZIER_KNOTS.);
#894 = CARTESIAN_POINT('',(151.,72.822790798606,28.753706177436));
#895 = CARTESIAN_POINT('',(151.,66.6,20.573471569928));
#896 = PCURVE('',#788,#897);
#897 = DEFINITIONAL_REPRESENTATION('',(#898),#902);
#898 = LINE('',#899,#900);
#899 = CARTESIAN_POINT('',(0.,1.));
#900 = VECTOR('',#901,1.);
#901 = DIRECTION('',(1.,0.));
#902 = ( GEOMETRIC_REPRESENTATION_CONTEXT(2) 
PARAMETRIC_REPRESENTATION_CONTEXT() REPRESENTATION_CONTEXT('2D SPACE',''
  ) );
#903 = PCURVE('',#116,#904);
#904 = DEFINITIONAL_REPRESENTATION('',(#905),#908);
#905 = B_SPLINE_CURVE_WITH_KNOTS('',1,(#906,#907),.UNSPECIFIED.,.F.,.F.,
  (2,2),(9.,10.),.PIECEWISE_BEZIER_KNOTS.);
#906 = CARTESIAN_POINT('',(2.555621923879,0.992515854101));
#907 = CARTESIAN_POINT('',(2.066016284432,11.258949016349));
#908 = ( GEOMETRIC_REPRESENTATION_CONTEXT(2) 
PARAMETRIC_REPRESENTATION_CONTEXT() REPRESENTATION_CONTEXT('2D SPACE',''
  ) );
#909 = ORIENTED_EDGE('',*,*,#769,.F.);
#910 = ADVANCED_FACE('',(#911),#871,.F.);
#911 = FACE_BOUND('',#912,.F.);
#912 = EDGE_LOOP('',(#913,#934,#973,#992));
#913 = ORIENTED_EDGE('',*,*,#914,.T.);
#914 = EDGE_CURVE('',#832,#915,#917,.T.);
#915 = VERTEX_POINT('',#916);
#916 = CARTESIAN_POINT('',(12.,26.6,0.25));
#917 = SURFACE_CURVE('',#918,(#921,#928),.PCURVE_S1.);
#918 = B_SPLINE_CURVE_WITH_KNOTS('',1,(#919,#920),.UNSPECIFIED.,.F.,.F.,
  (2,2),(10.,11.),.PIECEWISE_BEZIER_KNOTS.);
#919 = CARTESIAN_POINT('',(12.,26.6,25.656522267716));
#920 = CARTESIAN_POINT('',(12.,26.6,0.25));
#921 = PCURVE('',#871,#922);
#922 = DEFINITIONAL_REPRESENTATION('',(#923),#927);
#923 = LINE('',#924,#925);
#924 = CARTESIAN_POINT('',(0.,0.));
#925 = VECTOR('',#926,1.);
#926 = DIRECTION('',(1.,0.));
#927 = ( GEOMETRIC_REPRESENTATION_CONTEXT(2) 
PARAMETRIC_REPRESENTATION_CONTEXT() REPRESENTATION_CONTEXT('2D SPACE',''
  ) );
#928 = PCURVE('',#51,#929);
#929 = DEFINITIONAL_REPRESENTATION('',(#930),#933);
#930 = B_SPLINE_CURVE_WITH_KNOTS('',1,(#931,#932),.UNSPECIFIED.,.F.,.F.,
  (2,2),(10.,11.),.PIECEWISE_BEZIER_KNOTS.);
#931 = CARTESIAN_POINT('',(-0.424898512362,15.180416981508));
#932 = CARTESIAN_POINT('',(12.417563317287,37.102153862831));
#933 = ( GEOMETRIC_REPRESENTATION_CONTEXT(2) 
PARAMETRIC_REPRESENTATION_CONTEXT() REPRESENTATION_CONTEXT('2D SPACE',''
  ) );
#934 = ORIENTED_EDGE('',*,*,#935,.T.);
#935 = EDGE_CURVE('',#915,#936,#938,.T.);
#936 = VERTEX_POINT('',#937);
#937 = CARTESIAN_POINT('',(151.,66.6,0.25));
#938 = SURFACE_CURVE('',#939,(#946,#953),.PCURVE_S1.);
#939 = ( BOUNDED_CURVE() B_SPLINE_CURVE(3,(#940,#941,#942,#943,#944,#945
),.UNSPECIFIED.,.F.,.F.) B_SPLINE_CURVE_WITH_KNOTS((4,1,1,4),(0.,
0.333333333333,0.666666666667,1.),.QUASI_UNIFORM_KNOTS.) CURVE() 
GEOMETRIC_REPRESENTATION_ITEM() RATIONAL_B_SPLINE_CURVE((1.,1.,1.,1.,1.,
1.)) REPRESENTATION_ITEM('') );
#940 = CARTESIAN_POINT('',(12.,26.6,0.25));
#941 = CARTESIAN_POINT('',(35.319398606527,27.907984965163,0.25));
#942 = CARTESIAN_POINT('',(64.031256066783,56.250890334131,0.25));
#943 = CARTESIAN_POINT('',(72.919055631053,30.198330421277,0.25));
#944 = CARTESIAN_POINT('',(132.78236156949,93.162614594793,0.25));
#945 = CARTESIAN_POINT('',(151.,66.6,0.25));
#946 = PCURVE('',#871,#947);
#947 = DEFINITIONAL_REPRESENTATION('',(#948),#952);
#948 = LINE('',#949,#950);
#949 = CARTESIAN_POINT('',(11.,0.));
#950 = VECTOR('',#951,1.);
#951 = DIRECTION('',(0.,1.));
#952 = ( GEOMETRIC_REPRESENTATION_CONTEXT(2) 
PARAMETRIC_REPRESENTATION_CONTEXT() REPRESENTATION_CONTEXT('2D SPACE',''
  ) );
#953 = PCURVE('',#954,#967);
#954 = ( BOUNDED_SURFACE() B_SPLINE_SURFACE(1,3,(
    (#955,#956,#957,#958,#959,#960)
    ,(#961,#962,#963,#964,#965,#966
)),.UNSPECIFIED.,.F.,.F.,.F.) B_SPLINE_SURFACE_WITH_KNOTS((2,2),(4,1,1,4
    ),(11.,12.),(0.,0.333333333333,0.666666666667,1.),.UNSPECIFIED.) 
GEOMETRIC_REPRESENTATION_ITEM() RATIONAL_B_SPLINE_SURFACE((
    (1.,1.,1.,1.,1.,1.)
,(1.,1.,1.,1.,1.,1.))) REPRESENTATION_ITEM('') SURFACE() );
#955 = CARTESIAN_POINT('',(12.,26.6,0.25));
#956 = CARTESIAN_POINT('',(35.319398606527,27.907984965163,0.25));
#957 = CARTESIAN_POINT('',(64.031256066783,56.250890334131,0.25));
#958 = CARTESIAN_POINT('',(72.919055631053,30.198330421277,0.25));
#959 = CARTESIAN_POINT('',(132.78236156949,93.162614594793,0.25));
#960 = CARTESIAN_POINT('',(151.,66.6,0.25));
#961 = CARTESIAN_POINT('',(12.,24.,0.25));
#962 = CARTESIAN_POINT('',(35.319398606527,25.307984965163,0.25));
#963 = CARTESIAN_POINT('',(64.031256066783,53.650890334132,0.25));
#964 = CARTESIAN_POINT('',(72.919055631053,27.598330421277,0.25));
#965 = CARTESIAN_POINT('',(132.78236156949,90.562614594793,0.25));
#966 = CARTESIAN_POINT('',(151.,64.,0.25));
#967 = DEFINITIONAL_REPRESENTATION('',(#968),#972);
#968 = LINE('',#969,#970);
#969 = CARTESIAN_POINT('',(11.,0.));
#970 = VECTOR('',#971,1.);
#971 = DIRECTION('',(0.,1.));
#972 = ( GEOMETRIC_REPRESENTATION_CONTEXT(2) 
PARAMETRIC_REPRESENTATION_CONTEXT() REPRESENTATION_CONTEXT('2D SPACE',''
  ) );
#973 = ORIENTED_EDGE('',*,*,#974,.F.);
#974 = EDGE_CURVE('',#853,#936,#975,.T.);
#975 = SURFACE_CURVE('',#976,(#979,#986),.PCURVE_S1.);
#976 = B_SPLINE_CURVE_WITH_KNOTS('',1,(#977,#978),.UNSPECIFIED.,.F.,.F.,
  (2,2),(10.,11.),.PIECEWISE_BEZIER_KNOTS.);
#977 = CARTESIAN_POINT('',(151.,66.6,20.573471569928));
#978 = CARTESIAN_POINT('',(151.,66.6,0.25));
#979 = PCURVE('',#871,#980);
#980 = DEFINITIONAL_REPRESENTATION('',(#981),#985);
#981 = LINE('',#982,#983);
#982 = CARTESIAN_POINT('',(0.,1.));
#983 = VECTOR('',#984,1.);
#984 = DIRECTION('',(1.,0.));
#985 = ( GEOMETRIC_REPRESENTATION_CONTEXT(2) 
PARAMETRIC_REPRESENTATION_CONTEXT() REPRESENTATION_CONTEXT('2D SPACE',''
  ) );
#986 = PCURVE('',#116,#987);
#987 = DEFINITIONAL_REPRESENTATION('',(#988),#991);
#988 = B_SPLINE_CURVE_WITH_KNOTS('',1,(#989,#990),.UNSPECIFIED.,.F.,.F.,
  (2,2),(10.,11.),.PIECEWISE_BEZIER_KNOTS.);
#989 = CARTESIAN_POINT('',(2.066016284432,11.258949016349));
#990 = CARTESIAN_POINT('',(13.586203687334,28.001970812182));
#991 = ( GEOMETRIC_REPRESENTATION_CONTEXT(2) 
PARAMETRIC_REPRESENTATION_CONTEXT() REPRESENTATION_CONTEXT('2D SPACE',''
  ) );
#992 = ORIENTED_EDGE('',*,*,#852,.F.);
#993 = ADVANCED_FACE('',(#994),#954,.F.);
#994 = FACE_BOUND('',#995,.F.);
#995 = EDGE_LOOP('',(#996,#1017,#1056,#1075));
#996 = ORIENTED_EDGE('',*,*,#997,.T.);
#997 = EDGE_CURVE('',#915,#998,#1000,.T.);
#998 = VERTEX_POINT('',#999);
#999 = CARTESIAN_POINT('',(12.,24.,0.25));
#1000 = SURFACE_CURVE('',#1001,(#1004,#1011),.PCURVE_S1.);
#1001 = B_SPLINE_CURVE_WITH_KNOTS('',1,(#1002,#1003),.UNSPECIFIED.,.F.,
  .F.,(2,2),(11.,12.),.PIECEWISE_BEZIER_KNOTS.);
#1002 = CARTESIAN_POINT('',(12.,26.6,0.25));
#1003 = CARTESIAN_POINT('',(12.,24.,0.25));
#1004 = PCURVE('',#954,#1005);
#1005 = DEFINITIONAL_REPRESENTATION('',(#1006),#1010);
#1006 = LINE('',#1007,#1008);
#1007 = CARTESIAN_POINT('',(0.,0.));
#1008 = VECTOR('',#1009,1.);
#1009 = DIRECTION('',(1.,0.));
#1010 = ( GEOMETRIC_REPRESENTATION_CONTEXT(2) 
PARAMETRIC_REPRESENTATION_CONTEXT() REPRESENTATION_CONTEXT('2D SPACE',''
  ) );
#1011 = PCURVE('',#51,#1012);
#1012 = DEFINITIONAL_REPRESENTATION('',(#1013),#1016);
#1013 = B_SPLINE_CURVE_WITH_KNOTS('',1,(#1014,#1015),.UNSPECIFIED.,.F.,
  .F.,(2,2),(11.,12.),.PIECEWISE_BEZIER_KNOTS.);
#1014 = CARTESIAN_POINT('',(12.417563317287,37.102153862831));
#1015 = CARTESIAN_POINT('',(10.174182059087,38.416399095029));
#1016 = ( GEOMETRIC_REPRESENTATION_CONTEXT(2) 
PARAMETRIC_REPRESENTATION_CONTEXT() REPRESENTATION_CONTEXT('2D SPACE',''
  ) );
#1017 = ORIENTED_EDGE('',*,*,#1018,.T.);
#1018 = EDGE_CURVE('',#998,#1019,#1021,.T.);
#1019 = VERTEX_POINT('',#1020);
#1020 = CARTESIAN_POINT('',(151.,64.,0.25));
#1021 = SURFACE_CURVE('',#1022,(#1029,#1036),.PCURVE_S1.);
#1022 = ( BOUNDED_CURVE() B_SPLINE_CURVE(3,(#1023,#1024,#1025,#1026,
#1027,#1028),.UNSPECIFIED.,.F.,.F.) B_SPLINE_CURVE_WITH_KNOTS((4,1,1,4),
(0.,0.333333333333,0.666666666667,1.),.QUASI_UNIFORM_KNOTS.) CURVE() 
GEOMETRIC_REPRESENTATION_ITEM() RATIONAL_B_SPLINE_CURVE((1.,1.,1.,1.,1.,
1.)) REPRESENTATION_ITEM('') );
#1023 = CARTESIAN_POINT('',(12.,24.,0.25));
#1024 = CARTESIAN_POINT('',(35.319398606527,25.307984965163,0.25));
#1025 = CARTESIAN_POINT('',(64.031256066783,53.650890334132,0.25));
#1026 = CARTESIAN_POINT('',(72.919055631053,27.598330421277,0.25));
#1027 = CARTESIAN_POINT('',(132.78236156949,90.562614594793,0.25));
#1028 = CARTESIAN_POINT('',(151.,64.,0.25));
#1029 = PCURVE('',#954,#1030);
#1030 = DEFINITIONAL_REPRESENTATION('',(#1031),#1035);
#1031 = LINE('',#1032,#1033);
#1032 = CARTESIAN_POINT('',(12.,0.));
#1033 = VECTOR('',#1034,1.);
#1034 = DIRECTION('',(0.,1.));
#1035 = ( GEOMETRIC_REPRESENTATION_CONTEXT(2) 
PARAMETRIC_REPRESENTATION_CONTEXT() REPRESENTATION_CONTEXT('2D SPACE',''
  ) );
#1036 = PCURVE('',#1037,#1050);
#1037 = ( BOUNDED_SURFACE() B_SPLINE_SURFACE(1,3,(
    (#1038,#1039,#1040,#1041,#1042,#1043)
    ,(#1044,#1045,#1046,#1047,#1048,#1049
)),.UNSPECIFIED.,.F.,.F.,.F.) B_SPLINE_SURFACE_WITH_KNOTS((2,2),(4,1,1,4
    ),(12.,13.),(0.,0.333333333333,0.666666666667,1.),.UNSPECIFIED.) 
GEOMETRIC_REPRESENTATION_ITEM() RATIONAL_B_SPLINE_SURFACE((
    (1.,1.,1.,1.,1.,1.)
,(1.,1.,1.,1.,1.,1.))) REPRESENTATION_ITEM('') SURFACE() );
#1038 = CARTESIAN_POINT('',(12.,24.,0.25));
#1039 = CARTESIAN_POINT('',(35.319398606527,25.307984965163,0.25));
#1040 = CARTESIAN_POINT('',(64.031256066783,53.650890334132,0.25));
#1041 = CARTESIAN_POINT('',(72.919055631053,27.598330421277,0.25));
#1042 = CARTESIAN_POINT('',(132.78236156949,90.562614594793,0.25));
#1043 = CARTESIAN_POINT('',(151.,64.,0.25));
#1044 = CARTESIAN_POINT('',(12.,24.,26.65));
#1045 = CARTESIAN_POINT('',(35.319398606527,25.307984965163,
    23.033168316832));
#1046 = CARTESIAN_POINT('',(64.031256066783,53.650890334132,
    23.354025108393));
#1047 = CARTESIAN_POINT('',(72.919055631053,27.598330421277,
    23.744874781596));
#1048 = CARTESIAN_POINT('',(132.78236156949,90.562614594793,
    11.766501650165));
#1049 = CARTESIAN_POINT('',(151.,64.,21.45));
#1050 = DEFINITIONAL_REPRESENTATION('',(#1051),#1055);
#1051 = LINE('',#1052,#1053);
#1052 = CARTESIAN_POINT('',(12.,0.));
#1053 = VECTOR('',#1054,1.);
#1054 = DIRECTION('',(0.,1.));
#1055 = ( GEOMETRIC_REPRESENTATION_CONTEXT(2) 
PARAMETRIC_REPRESENTATION_CONTEXT() REPRESENTATION_CONTEXT('2D SPACE',''
  ) );
#1056 = ORIENTED_EDGE('',*,*,#1057,.F.);
#1057 = EDGE_CURVE('',#936,#1019,#1058,.T.);
#1058 = SURFACE_CURVE('',#1059,(#1062,#1069),.PCURVE_S1.);
#1059 = B_SPLINE_CURVE_WITH_KNOTS('',1,(#1060,#1061),.UNSPECIFIED.,.F.,
  .F.,(2,2),(11.,12.),.PIECEWISE_BEZIER_KNOTS.);
#1060 = CARTESIAN_POINT('',(151.,66.6,0.25));
#1061 = CARTESIAN_POINT('',(151.,64.,0.25));
#1062 = PCURVE('',#954,#1063);
#1063 = DEFINITIONAL_REPRESENTATION('',(#1064),#1068);
#1064 = LINE('',#1065,#1066);
#1065 = CARTESIAN_POINT('',(0.,1.));
#1066 = VECTOR('',#1067,1.);
#1067 = DIRECTION('',(1.,0.));
#1068 = ( GEOMETRIC_REPRESENTATION_CONTEXT(2) 
PARAMETRIC_REPRESENTATION_CONTEXT() REPRESENTATION_CONTEXT('2D SPACE',''
  ) );
#1069 = PCURVE('',#116,#1070);
#1070 = DEFINITIONAL_REPRESENTATION('',(#1071),#1074);
#1071 = B_SPLINE_CURVE_WITH_KNOTS('',1,(#1072,#1073),.UNSPECIFIED.,.F.,
  .F.,(2,2),(11.,12.),.PIECEWISE_BEZIER_KNOTS.);
#1072 = CARTESIAN_POINT('',(13.586203687334,28.001970812182));
#1073 = CARTESIAN_POINT('',(11.444253847742,29.475758749665));
#1074 = ( GEOMETRIC_REPRESENTATION_CONTEXT(2) 
PARAMETRIC_REPRESENTATION_CONTEXT() REPRESENTATION_CONTEXT('2D SPACE',''
  ) );
#1075 = ORIENTED_EDGE('',*,*,#935,.F.);
#1076 = ADVANCED_FACE('',(#1077),#1037,.F.);
#1077 = FACE_BOUND('',#1078,.F.);
#1078 = EDGE_LOOP('',(#1079,#1100,#1126,#1145));
#1079 = ORIENTED_EDGE('',*,*,#1080,.T.);
#1080 = EDGE_CURVE('',#998,#1081,#1083,.T.);
#1081 = VERTEX_POINT('',#1082);
#1082 = CARTESIAN_POINT('',(12.,24.,26.65));
#1083 = SURFACE_CURVE('',#1084,(#1087,#1094),.PCURVE_S1.);
#1084 = B_SPLINE_CURVE_WITH_KNOTS('',1,(#1085,#1086),.UNSPECIFIED.,.F.,
  .F.,(2,2),(12.,13.),.PIECEWISE_BEZIER_KNOTS.);
#1085 = CARTESIAN_POINT('',(12.,24.,0.25));
#1086 = CARTESIAN_POINT('',(12.,24.,26.65));
#1087 = PCURVE('',#1037,#1088);
#1088 = DEFINITIONAL_REPRESENTATION('',(#1089),#1093);
#1089 = LINE('',#1090,#1091);
#1090 = CARTESIAN_POINT('',(0.,0.));
#1091 = VECTOR('',#1092,1.);
#1092 = DIRECTION('',(1.,0.));
#1093 = ( GEOMETRIC_REPRESENTATION_CONTEXT(2) 
PARAMETRIC_REPRESENTATION_CONTEXT() REPRESENTATION_CONTEXT('2D SPACE',''
  ) );
#1094 = PCURVE('',#51,#1095);
#1095 = DEFINITIONAL_REPRESENTATION('',(#1096),#1099);
#1096 = B_SPLINE_CURVE_WITH_KNOTS('',1,(#1097,#1098),.UNSPECIFIED.,.F.,
  .F.,(2,2),(12.,13.),.PIECEWISE_BEZIER_KNOTS.);
#1097 = CARTESIAN_POINT('',(10.174182059087,38.416399095029));
#1098 = CARTESIAN_POINT('',(-3.170461837081,15.637450934843));
#1099 = ( GEOMETRIC_REPRESENTATION_CONTEXT(2) 
PARAMETRIC_REPRESENTATION_CONTEXT() REPRESENTATION_CONTEXT('2D SPACE',''
  ) );
#1100 = ORIENTED_EDGE('',*,*,#1101,.T.);
#1101 = EDGE_CURVE('',#1081,#1102,#1104,.T.);
#1102 = VERTEX_POINT('',#1103);
#1103 = CARTESIAN_POINT('',(151.,64.,21.45));
#1104 = SURFACE_CURVE('',#1105,(#1112,#1119),.PCURVE_S1.);
#1105 = ( BOUNDED_CURVE() B_SPLINE_CURVE(3,(#1106,#1107,#1108,#1109,
#1110,#1111),.UNSPECIFIED.,.F.,.F.) B_SPLINE_CURVE_WITH_KNOTS((4,1,1,4),
(0.,0.333333333333,0.666666666667,1.),.QUASI_UNIFORM_KNOTS.) CURVE() 
GEOMETRIC_REPRESENTATION_ITEM() RATIONAL_B_SPLINE_CURVE((1.,1.,1.,1.,1.,
1.)) REPRESENTATION_ITEM('') );
#1106 = CARTESIAN_POINT('',(12.,24.,26.65));
#1107 = CARTESIAN_POINT('',(35.319398606527,25.307984965163,
    23.033168316832));
#1108 = CARTESIAN_POINT('',(64.031256066783,53.650890334132,
    23.354025108393));
#1109 = CARTESIAN_POINT('',(72.919055631053,27.598330421277,
    23.744874781596));
#1110 = CARTESIAN_POINT('',(132.78236156949,90.562614594793,
    11.766501650165));
#1111 = CARTESIAN_POINT('',(151.,64.,21.45));
#1112 = PCURVE('',#1037,#1113);
#1113 = DEFINITIONAL_REPRESENTATION('',(#1114),#1118);
#1114 = LINE('',#1115,#1116);
#1115 = CARTESIAN_POINT('',(13.,0.));
#1116 = VECTOR('',#1117,1.);
#1117 = DIRECTION('',(0.,1.));
#1118 = ( GEOMETRIC_REPRESENTATION_CONTEXT(2) 
PARAMETRIC_REPRESENTATION_CONTEXT() REPRESENTATION_CONTEXT('2D SPACE',''
  ) );
#1119 = PCURVE('',#144,#1120);
#1120 = DEFINITIONAL_REPRESENTATION('',(#1121),#1125);
#1121 = LINE('',#1122,#1123);
#1122 = CARTESIAN_POINT('',(13.,0.));
#1123 = VECTOR('',#1124,1.);
#1124 = DIRECTION('',(0.,1.));
#1125 = ( GEOMETRIC_REPRESENTATION_CONTEXT(2) 
PARAMETRIC_REPRESENTATION_CONTEXT() REPRESENTATION_CONTEXT('2D SPACE',''
  ) );
#1126 = ORIENTED_EDGE('',*,*,#1127,.F.);
#1127 = EDGE_CURVE('',#1019,#1102,#1128,.T.);
#1128 = SURFACE_CURVE('',#1129,(#1132,#1139),.PCURVE_S1.);
#1129 = B_SPLINE_CURVE_WITH_KNOTS('',1,(#1130,#1131),.UNSPECIFIED.,.F.,
  .F.,(2,2),(12.,13.),.PIECEWISE_BEZIER_KNOTS.);
#1130 = CARTESIAN_POINT('',(151.,64.,0.25));
#1131 = CARTESIAN_POINT('',(151.,64.,21.45));
#1132 = PCURVE('',#1037,#1133);
#1133 = DEFINITIONAL_REPRESENTATION('',(#1134),#1138);
#1134 = LINE('',#1135,#1136);
#1135 = CARTESIAN_POINT('',(0.,1.));
#1136 = VECTOR('',#1137,1.);
#1137 = DIRECTION('',(1.,0.));
#1138 = ( GEOMETRIC_REPRESENTATION_CONTEXT(2) 
PARAMETRIC_REPRESENTATION_CONTEXT() REPRESENTATION_CONTEXT('2D SPACE',''
  ) );
#1139 = PCURVE('',#116,#1140);
#1140 = DEFINITIONAL_REPRESENTATION('',(#1141),#1144);
#1141 = B_SPLINE_CURVE_WITH_KNOTS('',1,(#1142,#1143),.UNSPECIFIED.,.F.,
  .F.,(2,2),(12.,13.),.PIECEWISE_BEZIER_KNOTS.);
#1142 = CARTESIAN_POINT('',(11.444253847742,29.475758749665));
#1143 = CARTESIAN_POINT('',(-0.572786257891,12.010629288375));
#1144 = ( GEOMETRIC_REPRESENTATION_CONTEXT(2) 
PARAMETRIC_REPRESENTATION_CONTEXT() REPRESENTATION_CONTEXT('2D SPACE',''
  ) );
#1145 = ORIENTED_EDGE('',*,*,#1018,.F.);
#1146 = ADVANCED_FACE('',(#1147),#144,.F.);
#1147 = FACE_BOUND('',#1148,.F.);
#1148 = EDGE_LOOP('',(#1149,#1168,#1169,#1188));
#1149 = ORIENTED_EDGE('',*,*,#1150,.T.);
#1150 = EDGE_CURVE('',#1081,#22,#1151,.T.);
#1151 = SURFACE_CURVE('',#1152,(#1155,#1162),.PCURVE_S1.);
#1152 = B_SPLINE_CURVE_WITH_KNOTS('',1,(#1153,#1154),.UNSPECIFIED.,.F.,
  .F.,(2,2),(13.,14.),.PIECEWISE_BEZIER_KNOTS.);
#1153 = CARTESIAN_POINT('',(12.,24.,26.65));
#1154 = CARTESIAN_POINT('',(12.,34.64,38.54));
#1155 = PCURVE('',#144,#1156);
#1156 = DEFINITIONAL_REPRESENTATION('',(#1157),#1161);
#1157 = LINE('',#1158,#1159);
#1158 = CARTESIAN_POINT('',(0.,0.));
#1159 = VECTOR('',#1160,1.);
#1160 = DIRECTION('',(1.,0.));
#1161 = ( GEOMETRIC_REPRESENTATION_CONTEXT(2) 
PARAMETRIC_REPRESENTATION_CONTEXT() REPRESENTATION_CONTEXT('2D SPACE',''
  ) );
#1162 = PCURVE('',#51,#1163);
#1163 = DEFINITIONAL_REPRESENTATION('',(#1164),#1167);
#1164 = B_SPLINE_CURVE_WITH_KNOTS('',1,(#1165,#1166),.UNSPECIFIED.,.F.,
  .F.,(2,2),(13.,14.),.PIECEWISE_BEZIER_KNOTS.);
#1165 = CARTESIAN_POINT('',(-3.170461837081,15.637450934843));
#1166 = CARTESIAN_POINT('',(0.,0.));
#1167 = ( GEOMETRIC_REPRESENTATION_CONTEXT(2) 
PARAMETRIC_REPRESENTATION_CONTEXT() REPRESENTATION_CONTEXT('2D SPACE',''
  ) );
#1168 = ORIENTED_EDGE('',*,*,#127,.T.);
#1169 = ORIENTED_EDGE('',*,*,#1170,.F.);
#1170 = EDGE_CURVE('',#1102,#102,#1171,.T.);
#1171 = SURFACE_CURVE('',#1172,(#1175,#1182),.PCURVE_S1.);
#1172 = B_SPLINE_CURVE_WITH_KNOTS('',1,(#1173,#1174),.UNSPECIFIED.,.F.,
  .F.,(2,2),(13.,14.),.PIECEWISE_BEZIER_KNOTS.);
#1173 = CARTESIAN_POINT('',(151.,64.,21.45));
#1174 = CARTESIAN_POINT('',(151.,71.28,31.02));
#1175 = PCURVE('',#144,#1176);
#1176 = DEFINITIONAL_REPRESENTATION('',(#1177),#1181);
#1177 = LINE('',#1178,#1179);
#1178 = CARTESIAN_POINT('',(0.,1.));
#1179 = VECTOR('',#1180,1.);
#1180 = DIRECTION('',(1.,0.));
#1181 = ( GEOMETRIC_REPRESENTATION_CONTEXT(2) 
PARAMETRIC_REPRESENTATION_CONTEXT() REPRESENTATION_CONTEXT('2D SPACE',''
  ) );
#1182 = PCURVE('',#116,#1183);
#1183 = DEFINITIONAL_REPRESENTATION('',(#1184),#1187);
#1184 = B_SPLINE_CURVE_WITH_KNOTS('',1,(#1185,#1186),.UNSPECIFIED.,.F.,
  .F.,(2,2),(13.,14.),.PIECEWISE_BEZIER_KNOTS.);
#1185 = CARTESIAN_POINT('',(-0.572786257891,12.010629288375));
#1186 = CARTESIAN_POINT('',(0.,0.));
#1187 = ( GEOMETRIC_REPRESENTATION_CONTEXT(2) 
PARAMETRIC_REPRESENTATION_CONTEXT() REPRESENTATION_CONTEXT('2D SPACE',''
  ) );
#1188 = ORIENTED_EDGE('',*,*,#1101,.F.);
#1189 = ADVANCED_FACE('',(#1190),#51,.T.);
#1190 = FACE_BOUND('',#1191,.F.);
#1191 = EDGE_LOOP('',(#1192,#1193,#1194,#1195,#1196,#1197,#1198,#1199,
    #1200,#1201,#1202,#1203,#1204,#1205));
#1192 = ORIENTED_EDGE('',*,*,#21,.F.);
#1193 = ORIENTED_EDGE('',*,*,#1150,.F.);
#1194 = ORIENTED_EDGE('',*,*,#1080,.F.);
#1195 = ORIENTED_EDGE('',*,*,#997,.F.);
#1196 = ORIENTED_EDGE('',*,*,#914,.F.);
#1197 = ORIENTED_EDGE('',*,*,#831,.F.);
#1198 = ORIENTED_EDGE('',*,*,#748,.F.);
#1199 = ORIENTED_EDGE('',*,*,#665,.F.);
#1200 = ORIENTED_EDGE('',*,*,#582,.F.);
#1201 = ORIENTED_EDGE('',*,*,#499,.F.);
#1202 = ORIENTED_EDGE('',*,*,#416,.F.);
#1203 = ORIENTED_EDGE('',*,*,#333,.F.);
#1204 = ORIENTED_EDGE('',*,*,#250,.F.);
#1205 = ORIENTED_EDGE('',*,*,#167,.F.);
#1206 = ADVANCED_FACE('',(#1207),#116,.F.);
#1207 = FACE_BOUND('',#1208,.F.);
#1208 = EDGE_LOOP('',(#1209,#1210,#1211,#1212,#1213,#1214,#1215,#1216,
    #1217,#1218,#1219,#1220,#1221,#1222));
#1209 = ORIENTED_EDGE('',*,*,#101,.T.);
#1210 = ORIENTED_EDGE('',*,*,#227,.T.);
#1211 = ORIENTED_EDGE('',*,*,#310,.T.);
#1212 = ORIENTED_EDGE('',*,*,#393,.T.);
#1213 = ORIENTED_EDGE('',*,*,#476,.T.);
#1214 = ORIENTED_EDGE('',*,*,#559,.T.);
#1215 = ORIENTED_EDGE('',*,*,#642,.T.);
#1216 = ORIENTED_EDGE('',*,*,#725,.T.);
#1217 = ORIENTED_EDGE('',*,*,#808,.T.);
#1218 = ORIENTED_EDGE('',*,*,#891,.T.);
#1219 = ORIENTED_EDGE('',*,*,#974,.T.);
#1220 = ORIENTED_EDGE('',*,*,#1057,.T.);
#1221 = ORIENTED_EDGE('',*,*,#1127,.T.);
#1222 = ORIENTED_EDGE('',*,*,#1170,.T.);
#1223 = ( GEOMETRIC_REPRESENTATION_CONTEXT(3) 
GLOBAL_UNCERTAINTY_ASSIGNED_CONTEXT((#1227)) 
GLOBAL_UNIT_ASSIGNED_CONTEXT((#1224,#1225,#1226)) REPRESENTATION_CONTEXT
('Context #1','3D Context with UNIT and UNCERTAINTY') );
#1224 = ( LENGTH_UNIT() NAMED_UNIT(*) SI_UNIT(.MILLI.,.METRE.) );
#1225 = ( NAMED_UNIT(*) PLANE_ANGLE_UNIT() SI_UNIT($,.RADIAN.) );
#1226 = ( NAMED_UNIT(*) SI_UNIT($,.STERADIAN.) SOLID_ANGLE_UNIT() );
#1227 = UNCERTAINTY_MEASURE_WITH_UNIT(LENGTH_MEASURE(1.E-07),#1224,
  'distance_accuracy_value','confusion accuracy');
#1228 = PRODUCT_RELATED_PRODUCT_CATEGORY('part',$,(#7));
ENDSEC;
END-ISO-10303-21;
