<?xml version="1.0" standalone="no"?>
 <!DOCTYPE svg PUBLIC "-//W3C//DTD SVG 1.1//EN" 
 "http://www.w3.org/Graphics/SVG/1.1/DTD/svg11.dtd"> 
<svg
  xmlns:svg="http://www.w3.org/2000/svg"
  xmlns="http://www.w3.org/2000/svg"
  xmlns:xlink="http://www.w3.org/1999/xlink"
  xmlns:inkscape="http://www.inkscape.org/namespaces/inkscape"
  version="1.1"
  width="59.9948mm" height="59.9948mm" viewBox="0.0000 0.0000 59.9948 59.9948">
<title>SVG Image created as central-In4_Cu.svg date 2026-09-27T20:59:58 </title>
  <desc>Image generated by PCBNEW </desc>
<g style="fill:#000000; fill-opacity:1.0000;stroke:#000000; stroke-opacity:1.0000;
stroke-linecap:round; stroke-linejoin:round;"
 transform="translate(0 0) scale(1 1)">
</g>
<g style="fill:#DB628B; fill-opacity:1.0000; stroke:none;">
<circle cx="20.7975" cy="8.3975" r="0.2000" /> 
<circle cx="20.2975" cy="44.7975" r="0.2000" /> 
<circle cx="15.1975" cy="17.9975" r="0.2000" /> 
<circle cx="9.5975" cy="44.7975" r="0.2000" /> 
<circle cx="12.3975" cy="13.9975" r="0.2000" /> 
<circle cx="24.3975" cy="26.1975" r="0.2000" /> 
<circle cx="26.3975" cy="40.0975" r="0.2000" /> 
<circle cx="18.4975" cy="30.7975" r="0.2000" /> 
<circle cx="26.3975" cy="5.5975" r="0.2000" /> 
<circle cx="22.9975" cy="25.9975" r="0.2000" /> 
<circle cx="23.5975" cy="36.3975" r="0.2000" /> 
<circle cx="12.3975" cy="50.3975" r="0.2000" /> 
<circle cx="24.3975" cy="32.3975" r="0.2000" /> 
<circle cx="24.7975" cy="27.9975" r="0.2000" /> 
<circle cx="18.7975" cy="30.1975" r="0.2000" /> 
<circle cx="26.3975" cy="8.3975" r="0.2000" /> 
<circle cx="23.3975" cy="25.5975" r="0.2000" /> 
<circle cx="15.1975" cy="20.7975" r="0.2000" /> 
<circle cx="9.5975" cy="47.5975" r="0.2000" /> 
<circle cx="12.3975" cy="11.1975" r="0.2000" /> 
<circle cx="12.3975" cy="47.5975" r="0.2000" /> 
<circle cx="3.9975" cy="33.5975" r="0.2000" /> 
<circle cx="26.3975" cy="44.7975" r="0.2000" /> 
<circle cx="20.7975" cy="11.1975" r="0.2000" /> 
<circle cx="23.5975" cy="33.5975" r="0.2000" /> 
<circle cx="20.7975" cy="47.5975" r="0.2000" /> 
<circle cx="20.7975" cy="36.3975" r="0.2000" /> 
<circle cx="26.3975" cy="33.5975" r="0.2000" /> 
<circle cx="29.1975" cy="39.1975" r="0.2000" /> 
<circle cx="24.3975" cy="27.3975" r="0.2000" /> 
<circle cx="23.5975" cy="8.3975" r="0.2000" /> 
<circle cx="12.3975" cy="22.3975" r="0.2000" /> 
<circle cx="17.9975" cy="39.1975" r="0.2000" /> 
<circle cx="15.1975" cy="11.1975" r="0.2000" /> 
<circle cx="15.1975" cy="47.5975" r="0.2000" /> 
<circle cx="9.5975" cy="36.3975" r="0.2000" /> 
<circle cx="23.5975" cy="44.7975" r="0.2000" /> 
<circle cx="6.7975" cy="19.5975" r="0.2000" /> 
<circle cx="21.9975" cy="30.9975" r="0.2000" /> 
<circle cx="16.7975" cy="31.5975" r="0.2000" /> 
<circle cx="42.9975" cy="25.9975" r="0.2000" /> 
<circle cx="40.3975" cy="17.3975" r="0.2000" /> 
<circle cx="45.9975" cy="36.3975" r="0.2000" /> 
<circle cx="48.7975" cy="22.3975" r="0.2000" /> 
<circle cx="34.7975" cy="20.7975" r="0.2000" /> 
<circle cx="51.5975" cy="33.5975" r="0.2000" /> 
<circle cx="31.9975" cy="55.9975" r="0.2000" /> 
<circle cx="43.1975" cy="33.5975" r="0.2000" /> 
<circle cx="31.9975" cy="19.5975" r="0.2000" /> 
<circle cx="40.3975" cy="53.1975" r="0.2000" /> 
<circle cx="37.5975" cy="22.3975" r="0.2000" /> 
<circle cx="29.1975" cy="25.1975" r="0.2000" /> 
<circle cx="32.7975" cy="29.9975" r="0.2000" /> 
<circle cx="43.7975" cy="30.5975" r="0.2000" /> 
<circle cx="29.1975" cy="12.3975" r="0.2000" /> 
<circle cx="43.1975" cy="44.7975" r="0.2000" /> 
<circle cx="34.7975" cy="11.1975" r="0.2000" /> 
<circle cx="40.3975" cy="41.9975" r="0.2000" /> 
<circle cx="34.7975" cy="47.5975" r="0.2000" /> 
<circle cx="45.9975" cy="25.1975" r="0.2000" /> 
<circle cx="43.1975" cy="8.3975" r="0.2000" /> 
<circle cx="48.7975" cy="33.5975" r="0.2000" /> 
<circle cx="51.5975" cy="22.3975" r="0.2000" /> 
<circle cx="37.5975" cy="33.5975" r="0.2000" /> 
<circle cx="31.9975" cy="30.7975" r="0.2000" /> 
<circle cx="43.3975" cy="27.9975" r="0.2000" /> 
<circle cx="42.7975" cy="31.1975" r="0.2000" /> 
<circle cx="36.3975" cy="31.5975" r="0.2000" /> 
<circle cx="39.3975" cy="30.7975" r="0.2000" /> 
<circle cx="44.3975" cy="25.1975" r="0.2000" /> 
<circle cx="34.7975" cy="8.3975" r="0.2000" /> 
<circle cx="48.7975" cy="36.3975" r="0.2000" /> 
<circle cx="34.7975" cy="44.7975" r="0.2000" /> 
<circle cx="43.1975" cy="47.5975" r="0.2000" /> 
<circle cx="51.5975" cy="19.5975" r="0.2000" /> 
<circle cx="37.5975" cy="36.3975" r="0.2000" /> 
<circle cx="43.1975" cy="11.1975" r="0.2000" /> 
<circle cx="45.3975" cy="14.1975" r="0.2000" /> 
<circle cx="43.9975" cy="28.9975" r="0.2000" /> 
<circle cx="45.9975" cy="22.3975" r="0.2000" /> 
<circle cx="31.9975" cy="33.5975" r="0.2000" /> 
<circle cx="29.1975" cy="11.1975" r="0.2000" /> 
<circle cx="40.3975" cy="39.1975" r="0.2000" /> 
<circle cx="41.9975" cy="30.9975" r="0.2000" /> 
<circle cx="36.1975" cy="26.3975" r="0.2000" /> 
<circle cx="36.9975" cy="29.1975" r="0.2000" /> 
<circle cx="39.7975" cy="22.3975" r="0.2000" /> 
<circle cx="52.3975" cy="21.9975" r="0.2000" /> 
<circle cx="15.1975" cy="13.9975" r="0.2000" /> 
<circle cx="9.5975" cy="39.1975" r="0.2000" /> 
<circle cx="3.9975" cy="25.1975" r="0.2000" /> 
<circle cx="20.7975" cy="39.1975" r="0.2000" /> 
<circle cx="17.9975" cy="36.3975" r="0.2000" /> 
<circle cx="15.1975" cy="50.3975" r="0.2000" /> 
<circle cx="23.5975" cy="5.5975" r="0.2000" /> 
<circle cx="29.1975" cy="36.3975" r="0.2000" /> 
<circle cx="26.3975" cy="36.3975" r="0.2000" /> 
<circle cx="12.3975" cy="19.5975" r="0.2000" /> 
<circle cx="24.3975" cy="26.7975" r="0.2000" /> 
<circle cx="23.5975" cy="40.3975" r="0.2000" /> 
<circle cx="34.7975" cy="55.9975" r="0.2000" /> 
<circle cx="51.5975" cy="30.7975" r="0.2000" /> 
<circle cx="31.9975" cy="22.3975" r="0.2000" /> 
<circle cx="45.9975" cy="33.5975" r="0.2000" /> 
<circle cx="34.7975" cy="17.9975" r="0.2000" /> 
<circle cx="40.3975" cy="50.3975" r="0.2000" /> 
<circle cx="40.3975" cy="12.3975" r="0.2000" /> 
<circle cx="48.7975" cy="25.1975" r="0.2000" /> 
<circle cx="37.5975" cy="23.5975" r="0.2000" /> 
<circle cx="29.1975" cy="22.3975" r="0.2000" /> 
<circle cx="43.1975" cy="36.3975" r="0.2000" /> 
<circle cx="43.3975" cy="26.3975" r="0.2000" /> 
<circle cx="37.9975" cy="30.7975" r="0.2000" /> 
<circle cx="46.7975" cy="32.5975" r="0.2000" /> 
<circle cx="17.9975" cy="44.7975" r="0.2000" /> 
<circle cx="23.5975" cy="13.9975" r="0.2000" /> 
<circle cx="9.5975" cy="30.7975" r="0.2000" /> 
<circle cx="17.9975" cy="8.3975" r="0.2000" /> 
<circle cx="29.1975" cy="44.7975" r="0.2000" /> 
<circle cx="13.3975" cy="32.1975" r="0.2000" /> 
<circle cx="12.3975" cy="27.9975" r="0.2000" /> 
<circle cx="23.5975" cy="50.3975" r="0.2000" /> 
<circle cx="22.3975" cy="31.3975" r="0.2000" /> 
<circle cx="26.3975" cy="27.9975" r="0.2000" /> 
<circle cx="23.9975" cy="28.9975" r="0.2000" /> 
<circle cx="15.1975" cy="41.9975" r="0.2000" /> 
<circle cx="6.7975" cy="25.1975" r="0.2000" /> 
<circle cx="22.9975" cy="29.3975" r="0.2000" /> 
<circle cx="21.7975" cy="33.5975" r="0.2000" /> 
<circle cx="8.9975" cy="33.3975" r="0.2000" /> 
<circle cx="35.7975" cy="32.1975" r="0.2000" /> 
<circle cx="43.1975" cy="30.7975" r="0.2000" /> 
<circle cx="23.3975" cy="31.7975" r="0.2000" /> 
<circle cx="17.7975" cy="30.9975" r="0.2000" /> 
<circle cx="29.1975" cy="47.5975" r="0.2000" /> 
<circle cx="23.5975" cy="16.7975" r="0.2000" /> 
<circle cx="23.5975" cy="53.1975" r="0.2000" /> 
<circle cx="9.5975" cy="27.9975" r="0.2000" /> 
<circle cx="6.7975" cy="27.9975" r="0.2000" /> 
<circle cx="17.9975" cy="47.5975" r="0.2000" /> 
<circle cx="26.3975" cy="25.1975" r="0.2000" /> 
<circle cx="15.1975" cy="39.1975" r="0.2000" /> 
<circle cx="17.9975" cy="11.1975" r="0.2000" /> 
<circle cx="12.3975" cy="30.7975" r="0.2000" /> 
<circle cx="24.3975" cy="30.1975" r="0.2000" /> 
<circle cx="14.5975" cy="29.3975" r="0.2000" /> 
<circle cx="22.7975" cy="30.9975" r="0.2000" /> 
<circle cx="34.7975" cy="36.3975" r="0.2000" /> 
<circle cx="37.5975" cy="44.7975" r="0.2000" /> 
<circle cx="45.9975" cy="13.9975" r="0.2000" /> 
<circle cx="48.7975" cy="44.7975" r="0.2000" /> 
<circle cx="37.5975" cy="8.3975" r="0.2000" /> 
<circle cx="36.3975" cy="28.5975" r="0.2000" /> 
<circle cx="31.9975" cy="5.5975" r="0.2000" /> 
<circle cx="43.1975" cy="19.5975" r="0.2000" /> 
<circle cx="54.3975" cy="30.7975" r="0.2000" /> 
<circle cx="39.8975" cy="31.0975" r="0.2000" /> 
<circle cx="45.9975" cy="50.3975" r="0.2000" /> 
<circle cx="32.4975" cy="40.3975" r="0.2000" /> 
<circle cx="44.7975" cy="20.5975" r="0.2000" /> 
<circle cx="15.1975" cy="16.7975" r="0.2000" /> 
<circle cx="20.7975" cy="41.9975" r="0.2000" /> 
<circle cx="17.9975" cy="33.5975" r="0.2000" /> 
<circle cx="12.3975" cy="16.7975" r="0.2000" /> 
<circle cx="3.9975" cy="27.9975" r="0.2000" /> 
<circle cx="9.5975" cy="41.9975" r="0.2000" /> 
<circle cx="23.5975" cy="39.1975" r="0.2000" /> 
<circle cx="26.3975" cy="39.1975" r="0.2000" /> 
<circle cx="29.1975" cy="31.9975" r="0.2000" /> 
<circle cx="23.3975" cy="26.3975" r="0.2000" /> 
<circle cx="43.9975" cy="29.7975" r="0.2000" /> 
<circle cx="48.7975" cy="39.1975" r="0.2000" /> 
<circle cx="54.3975" cy="25.1975" r="0.2000" /> 
<circle cx="29.1975" cy="8.3975" r="0.2000" /> 
<circle cx="43.1975" cy="50.3975" r="0.2000" /> 
<circle cx="34.7975" cy="5.5975" r="0.2000" /> 
<circle cx="43.1975" cy="13.9975" r="0.2000" /> 
<circle cx="40.3975" cy="36.3975" r="0.2000" /> 
<circle cx="37.5975" cy="39.1975" r="0.2000" /> 
<circle cx="45.9975" cy="19.5975" r="0.2000" /> 
<circle cx="46.1975" cy="28.7975" r="0.2000" /> 
<circle cx="35.0975" cy="40.3975" r="0.2000" /> 
<circle cx="31.9975" cy="36.3975" r="0.2000" /> 
<circle cx="16.3975" cy="28.5975" r="0.2000" /> 
<circle cx="9.5975" cy="22.3975" r="0.2000" /> 
<circle cx="17.4975" cy="16.7975" r="0.2000" /> 
<circle cx="20.4975" cy="22.3975" r="0.2000" /> 
<circle cx="18.7975" cy="49.5975" r="0.2000" /> 
<circle cx="17.9975" cy="53.1975" r="0.2000" /> 
<circle cx="6.7975" cy="33.5975" r="0.2000" /> 
<circle cx="15.1975" cy="33.5975" r="0.2000" /> 
<circle cx="26.3975" cy="19.5975" r="0.2000" /> 
<circle cx="23.5975" cy="22.3975" r="0.2000" /> 
<circle cx="26.3975" cy="55.9975" r="0.2000" /> 
<circle cx="17.5975" cy="20.3975" r="0.2000" /> 
<circle cx="12.3975" cy="36.3975" r="0.2000" /> 
<circle cx="29.1975" cy="53.1975" r="0.2000" /> 
<circle cx="20.7975" cy="30.7975" r="0.2000" /> 
<circle cx="48.7975" cy="47.5975" r="0.2000" /> 
<circle cx="48.1975" cy="26.5975" r="0.2000" /> 
<circle cx="37.5975" cy="11.1975" r="0.2000" /> 
<circle cx="45.9975" cy="47.5975" r="0.2000" /> 
<circle cx="43.1975" cy="22.3975" r="0.2000" /> 
<circle cx="45.9975" cy="11.1975" r="0.2000" /> 
<circle cx="36.3975" cy="27.9975" r="0.2000" /> 
<circle cx="40.9975" cy="33.4975" r="0.2000" /> 
<circle cx="34.7975" cy="33.5975" r="0.2000" /> 
<circle cx="31.9975" cy="8.3975" r="0.2000" /> 
<circle cx="37.5975" cy="47.5975" r="0.2000" /> 
<circle cx="54.3975" cy="33.5975" r="0.2000" /> 
<circle cx="31.9975" cy="44.7975" r="0.2000" /> 
<circle cx="36.9975" cy="33.9975" r="0.2000" /> 
<circle cx="29.1975" cy="17.9975" r="0.2000" /> 
<circle cx="41.1975" cy="43.3975" r="0.2000" /> 
<circle cx="40.3975" cy="11.1975" r="0.2000" /> 
<circle cx="36.7975" cy="25.7975" r="0.2000" /> 
<circle cx="40.3975" cy="47.5975" r="0.2000" /> 
<circle cx="51.5975" cy="27.9975" r="0.2000" /> 
<circle cx="48.7975" cy="27.9975" r="0.2000" /> 
<circle cx="43.1975" cy="39.1975" r="0.2000" /> 
<circle cx="43.9975" cy="26.7975" r="0.2000" /> 
<circle cx="34.7975" cy="16.7975" r="0.2000" /> 
<circle cx="31.9975" cy="25.1975" r="0.2000" /> 
<circle cx="45.9975" cy="30.7975" r="0.2000" /> 
<circle cx="34.7975" cy="53.1975" r="0.2000" /> 
<circle cx="43.9975" cy="27.3975" r="0.2000" /> 
<circle cx="37.9975" cy="31.9975" r="0.2000" /> 
<circle cx="34.7975" cy="50.3975" r="0.2000" /> 
<circle cx="45.9975" cy="27.9975" r="0.2000" /> 
<circle cx="51.5975" cy="25.1975" r="0.2000" /> 
<circle cx="40.3975" cy="44.7975" r="0.2000" /> 
<circle cx="29.6975" cy="16.7975" r="0.2000" /> 
<circle cx="31.9975" cy="27.9975" r="0.2000" /> 
<circle cx="43.1975" cy="41.9975" r="0.2000" /> 
<circle cx="48.7975" cy="30.7975" r="0.2000" /> 
<circle cx="34.7975" cy="13.9975" r="0.2000" /> 
<circle cx="42.5975" cy="37.3975" r="0.2000" /> 
<circle cx="40.3975" cy="8.3975" r="0.2000" /> 
<circle cx="41.3975" cy="30.9975" r="0.2000" /> 
<circle cx="29.9975" cy="32.1975" r="0.2000" /> 
<circle cx="16.9975" cy="29.1975" r="0.2000" /> 
<circle cx="27.9975" cy="11.9975" r="0.2000" /> 
<circle cx="20.7975" cy="53.1975" r="0.2000" /> 
<circle cx="16.7975" cy="26.3975" r="0.2000" /> 
<circle cx="6.7975" cy="39.1975" r="0.2000" /> 
<circle cx="26.3975" cy="13.9975" r="0.2000" /> 
<circle cx="24.5975" cy="14.1975" r="0.2000" /> 
<circle cx="26.3975" cy="50.3975" r="0.2000" /> 
<circle cx="15.1975" cy="27.9975" r="0.2000" /> 
<circle cx="20.1975" cy="20.3975" r="0.2000" /> 
<circle cx="24.0975" cy="27.9975" r="0.2000" /> 
<circle cx="9.5975" cy="16.7975" r="0.2000" /> 
<circle cx="11.9975" cy="34.7975" r="0.2000" /> 
<circle cx="12.3975" cy="41.9975" r="0.2000" /> 
<circle cx="17.6975" cy="22.3975" r="0.2000" /> 
<circle cx="19.3975" cy="30.7975" r="0.2000" /> 
<circle cx="28.6975" cy="40.3975" r="0.2000" /> 
<circle cx="15.1975" cy="44.7975" r="0.2000" /> 
<circle cx="26.3975" cy="30.7975" r="0.2000" /> 
<circle cx="17.9975" cy="41.9975" r="0.2000" /> 
<circle cx="20.7975" cy="33.5975" r="0.2000" /> 
<circle cx="23.3975" cy="27.9975" r="0.2000" /> 
<circle cx="15.1975" cy="8.3975" r="0.2000" /> 
<circle cx="23.5975" cy="47.5975" r="0.2000" /> 
<circle cx="9.5975" cy="33.5975" r="0.2000" /> 
<circle cx="12.3975" cy="25.1975" r="0.2000" /> 
<circle cx="23.5975" cy="11.1975" r="0.2000" /> 
<circle cx="6.7975" cy="22.3975" r="0.2000" /> 
<circle cx="17.3975" cy="30.5975" r="0.2000" /> 
<circle cx="18.7975" cy="32.9975" r="0.2000" /> 
<circle cx="27.1975" cy="32.9975" r="0.2000" /> 
<circle cx="34.7975" cy="25.1975" r="0.2000" /> 
<circle cx="45.9975" cy="39.1975" r="0.2000" /> 
<circle cx="37.5975" cy="55.9975" r="0.2000" /> 
<circle cx="40.3975" cy="17.9975" r="0.2000" /> 
<circle cx="31.9975" cy="53.1975" r="0.2000" /> 
<circle cx="43.9975" cy="27.9975" r="0.2000" /> 
<circle cx="31.9975" cy="16.7975" r="0.2000" /> 
<circle cx="51.5975" cy="36.3975" r="0.2000" /> 
<circle cx="37.5975" cy="19.5975" r="0.2000" /> 
<circle cx="43.3975" cy="25.5975" r="0.2000" /> 
<circle cx="48.7975" cy="19.5975" r="0.2000" /> 
<circle cx="29.1975" cy="27.9975" r="0.2000" /> 
<circle cx="23.5975" cy="30.7975" r="0.2000" /> 
<circle cx="13.3975" cy="33.9975" r="0.2000" /> 
<circle cx="44.1975" cy="31.5975" r="0.2000" /> 
<circle cx="38.5975" cy="30.5975" r="0.2000" /> 
<circle cx="20.7975" cy="12.3975" r="0.2000" /> 
<circle cx="3.9975" cy="36.3975" r="0.2000" /> 
<circle cx="20.7975" cy="50.3975" r="0.2000" /> 
<circle cx="12.3975" cy="44.7975" r="0.2000" /> 
<circle cx="15.1975" cy="25.1975" r="0.2000" /> 
<circle cx="9.5975" cy="13.9975" r="0.2000" /> 
<circle cx="24.1975" cy="30.7975" r="0.2000" /> 
<circle cx="26.3975" cy="11.1975" r="0.2000" /> 
<circle cx="17.9975" cy="23.5975" r="0.2000" /> 
<circle cx="6.7975" cy="41.9975" r="0.2000" /> 
<circle cx="22.9975" cy="25.1975" r="0.2000" /> 
<circle cx="26.3975" cy="47.5975" r="0.2000" /> 
<circle cx="12.3975" cy="33.5975" r="0.2000" /> 
<circle cx="6.7975" cy="30.7975" r="0.2000" /> 
<circle cx="17.9975" cy="50.3975" r="0.2000" /> 
<circle cx="23.5975" cy="19.5975" r="0.2000" /> 
<circle cx="9.5975" cy="25.1975" r="0.2000" /> 
<circle cx="29.1975" cy="50.3975" r="0.2000" /> 
<circle cx="17.4975" cy="13.9975" r="0.2000" /> 
<circle cx="21.7975" cy="23.7975" r="0.2000" /> 
<circle cx="15.1975" cy="36.3975" r="0.2000" /> 
<circle cx="23.5975" cy="55.9975" r="0.2000" /> 
<circle cx="26.3975" cy="22.3975" r="0.2000" /> 
<circle cx="16.3975" cy="29.1975" r="0.2000" /> 
<circle cx="17.3975" cy="39.5975" r="0.2000" /> 
<circle cx="21.3975" cy="30.9975" r="0.2000" /> 
<circle cx="17.1975" cy="23.1975" r="0.2000" /> 
<circle cx="17.9975" cy="19.5975" r="0.2000" /> 
<circle cx="26.3975" cy="16.7975" r="0.2000" /> 
<circle cx="23.8975" cy="25.1975" r="0.2000" /> 
<circle cx="6.7975" cy="36.3975" r="0.2000" /> 
<circle cx="20.7975" cy="55.9975" r="0.2000" /> 
<circle cx="9.5975" cy="19.5975" r="0.2000" /> 
<circle cx="29.1975" cy="55.9975" r="0.2000" /> 
<circle cx="20.4975" cy="19.5975" r="0.2000" /> 
<circle cx="26.3975" cy="53.1975" r="0.2000" /> 
<circle cx="12.3975" cy="39.1975" r="0.2000" /> 
<circle cx="15.1975" cy="29.1975" r="0.2000" /> 
<circle cx="16.3975" cy="27.9975" r="0.2000" /> 
<circle cx="49.5975" cy="32.9975" r="0.2000" /> 
<circle cx="37.3975" cy="30.7975" r="0.2000" /> 
<circle cx="28.6975" cy="30.7975" r="0.2000" /> 
<circle cx="48.7975" cy="16.7975" r="0.2000" /> 
<circle cx="40.3975" cy="22.3975" r="0.2000" /> 
<circle cx="45.9975" cy="41.9975" r="0.2000" /> 
<circle cx="42.9975" cy="25.1975" r="0.2000" /> 
<circle cx="51.5975" cy="39.1975" r="0.2000" /> 
<circle cx="31.9975" cy="50.3975" r="0.2000" /> 
<circle cx="34.7975" cy="27.9975" r="0.2000" /> 
<circle cx="37.5975" cy="16.7975" r="0.2000" /> 
<circle cx="37.5975" cy="53.1975" r="0.2000" /> 
<circle cx="31.9975" cy="13.9975" r="0.2000" /> 
<circle cx="37.5975" cy="5.5975" r="0.2000" /> 
<circle cx="48.7975" cy="41.9975" r="0.2000" /> 
<circle cx="37.5975" cy="41.9975" r="0.2000" /> 
<circle cx="34.7975" cy="39.1975" r="0.2000" /> 
<circle cx="54.3975" cy="27.9975" r="0.2000" /> 
<circle cx="40.3975" cy="33.5975" r="0.2000" /> 
<circle cx="45.3975" cy="36.9975" r="0.2000" /> 
<circle cx="43.1975" cy="53.1975" r="0.2000" /> 
<circle cx="36.3975" cy="29.1975" r="0.2000" /> 
<circle cx="45.9975" cy="16.7975" r="0.2000" /> 
<circle cx="29.1975" cy="5.5975" r="0.2000" /> 
<circle cx="43.1975" cy="16.7975" r="0.2000" /> 
<circle cx="31.9975" cy="39.1975" r="0.2000" /> 
<circle cx="37.7975" cy="20.3975" r="0.2000" /> 
<circle cx="41.7975" cy="33.5975" r="0.2000" /> 
<circle cx="43.7975" cy="24.9975" r="0.2000" /> 
<circle cx="37.5975" cy="13.9975" r="0.2000" /> 
<circle cx="48.7975" cy="13.9975" r="0.2000" /> 
<circle cx="31.9975" cy="11.1975" r="0.2000" /> 
<circle cx="51.5975" cy="41.9975" r="0.2000" /> 
<circle cx="54.3975" cy="36.3975" r="0.2000" /> 
<circle cx="34.2975" cy="30.7975" r="0.2000" /> 
<circle cx="45.9975" cy="44.7975" r="0.2000" /> 
<circle cx="31.9975" cy="47.5975" r="0.2000" /> 
<circle cx="37.5975" cy="50.3975" r="0.2000" /> 
<circle cx="36.7975" cy="26.3975" r="0.2000" /> 
<circle cx="40.5975" cy="22.9975" r="0.2000" /> 
<circle cx="40.7975" cy="20.1975" r="0.2000" /> 
<circle cx="35.7975" cy="17.5975" r="0.2000" /> 
<circle cx="35.5975" cy="27.5975" r="0.2000" /> 
<circle cx="34.3725" cy="40.3475" r="0.2000" /> 
<circle cx="28.5975" cy="27.9975" r="0.2000" /> 
<circle cx="18.8975" cy="25.8975" r="0.2000" /> 
<circle cx="19.7037" cy="32.0475" r="0.2000" /> 
<circle cx="19.7475" cy="34.7975" r="0.2000" /> 
<circle cx="39.4225" cy="45.3475" r="0.2000" /> 
<circle cx="29.5475" cy="33.6037" r="0.2000" /> 
<circle cx="19.7475" cy="37.4975" r="0.2000" /> 
<circle cx="48.1975" cy="23.4975" r="0.2000" /> 
<circle cx="28.8475" cy="23.3913" r="0.2000" /> 
<circle cx="18.8975" cy="28.0975" r="0.2000" /> 
<circle cx="28.1975" cy="23.4975" r="0.2000" /> 
<circle cx="41.0475" cy="20.6913" r="0.2000" /> 
<circle cx="29.9037" cy="14.3475" r="0.2000" /> 
<circle cx="36.9975" cy="14.4975" r="0.2000" /> 
<circle cx="21.0475" cy="20.6913" r="0.2000" /> 
<circle cx="35.8037" cy="31.1475" r="0.2000" /> 
<circle cx="39.7037" cy="32.0475" r="0.2000" /> 
<circle cx="29.9725" cy="19.9975" r="0.2000" /> 
<circle cx="39.7475" cy="37.4975" r="0.2000" /> 
<circle cx="29.9336" cy="30.4225" r="0.2000" /> 
<circle cx="19.5975" cy="25.8975" r="0.2000" /> 
<circle cx="39.5975" cy="28.0975" r="0.2000" /> 
<circle cx="16.9975" cy="14.4975" r="0.2000" /> 
<circle cx="23.7287" cy="42.4975" r="0.2000" /> 
<circle cx="38.8975" cy="25.8975" r="0.2000" /> 
<circle cx="38.8975" cy="28.0975" r="0.2000" /> 
<circle cx="22.9975" cy="14.4975" r="0.2000" /> 
<circle cx="36.2287" cy="42.4975" r="0.2000" /> 
<circle cx="24.3475" cy="24.1037" r="0.2000" /> 
<circle cx="44.0913" cy="23.8475" r="0.2000" /> 
<circle cx="18.8975" cy="26.5975" r="0.2000" /> 
<circle cx="28.8475" cy="26.3913" r="0.2000" /> 
<circle cx="39.5975" cy="25.8975" r="0.2000" /> 
<circle cx="18.2475" cy="20.6913" r="0.2000" /> 
<circle cx="42.9975" cy="14.4975" r="0.2000" /> 
<circle cx="21.9725" cy="45.3475" r="0.2000" /> 
<circle cx="39.7475" cy="34.7975" r="0.2000" /> 
<circle cx="15.8037" cy="31.1475" r="0.2000" /> 
<circle cx="38.2475" cy="20.6913" r="0.2000" /> 
<circle cx="31.3975" cy="30.9975" r="0.2000" /> 
<circle cx="21.7975" cy="23.1975" r="0.2000" /> 
<circle cx="32.9975" cy="17.5975" r="0.2000" /> 
<circle cx="27.3975" cy="17.1975" r="0.2000" /> 
<circle cx="31.3975" cy="19.3975" r="0.2000" /> 
<circle cx="28.9975" cy="34.7975" r="0.2000" /> 
<circle cx="31.3975" cy="16.9975" r="0.2000" /> 
<circle cx="15.9975" cy="30.1975" r="0.2000" /> 
<circle cx="20.3975" cy="31.9975" r="0.2000" /> 
<circle cx="36.8725" cy="40.3475" r="0.2000" /> 
<circle cx="20.7975" cy="34.1975" r="0.2000" /> 
<circle cx="30.1975" cy="30.9975" r="0.2000" /> 
<circle cx="39.7975" cy="23.7975" r="0.2000" /> 
<circle cx="33.1225" cy="40.3475" r="0.2000" /> 
<circle cx="19.7975" cy="23.3975" r="0.2000" /> 
<circle cx="38.5975" cy="17.7975" r="0.2000" /> 
<circle cx="35.3975" cy="20.5975" r="0.2000" /> 
<circle cx="40.1975" cy="23.3975" r="0.2000" /> 
<circle cx="29.9975" cy="26.5975" r="0.2000" /> 
<circle cx="20.1975" cy="23.7975" r="0.2000" /> 
<circle cx="31.8725" cy="40.3475" r="0.2000" /> 
<circle cx="26.5975" cy="37.5975" r="0.2000" /> 
<circle cx="29.3725" cy="40.3475" r="0.2000" /> 
<circle cx="20.1975" cy="20.9975" r="0.2000" /> 
<circle cx="27.1975" cy="24.5975" r="0.2000" /> 
<circle cx="20.9975" cy="23.5975" r="0.2000" /> 
<circle cx="28.1225" cy="40.3475" r="0.2000" /> 
<circle cx="32.9975" cy="22.1975" r="0.2000" /> 
<circle cx="29.5975" cy="23.1975" r="0.2000" /> 
<circle cx="39.3975" cy="23.1975" r="0.2000" /> 
<circle cx="19.3975" cy="22.9975" r="0.2000" /> 
<circle cx="21.5975" cy="18.5975" r="0.2000" /> 
<circle cx="25.7975" cy="19.5975" r="0.2000" /> 
<circle cx="34.1975" cy="20.9975" r="0.2000" /> 
<circle cx="40.9975" cy="23.7975" r="0.2000" /> 
<circle cx="24.3725" cy="40.8475" r="0.2000" /> 
<circle cx="36.9975" cy="22.5975" r="0.2000" /> 
<circle cx="28.5975" cy="38.9975" r="0.2000" /> 
<circle cx="34.1975" cy="22.1975" r="0.2000" /> 
<circle cx="38.9975" cy="23.5975" r="0.2000" /> 
<circle cx="18.9975" cy="23.7975" r="0.2000" /> 
<circle cx="14.5975" cy="22.1975" r="0.2000" /> 
<circle cx="20.7975" cy="20.1975" r="0.2000" /> 
<circle cx="20.5975" cy="23.1975" r="0.2000" /> 
</g>
<g style="fill:none; 
stroke:#DB628B; stroke-width:0.1270; stroke-opacity:1; 
stroke-linecap:round; stroke-linejoin:round;">
<path d="M12.3975 13.9975
L15.1975 17.9975
" />
<path d="M17.9975 47.1975
L13.1975 47.1975
" />
<path d="M23.7975 26.1975
L23.3975 25.5975
" />
<path d="M23.1975 30.3975
L23.3975 29.3975
" />
<path d="M15.5975 19.9975
L15.1975 20.7975
" />
<path d="M23.1975 28.3975
L22.9975 28.1975
" />
<path d="M23.7975 31.5975
L23.1975 30.9975
" />
<path d="M12.3975 11.1975
L15.1975 10.7975
" />
<path d="M23.7975 31.7975
L23.7975 31.5975
" />
<path d="M13.1975 47.1975
L12.3975 47.5975
" />
<path d="M15.1975 10.7975
L19.9975 10.7975
" />
<path d="M22.9975 28.1975
L22.9975 27.3975
" />
<path d="M23.3975 29.3975
L23.1975 28.3975
" />
<path d="M20.7975 47.5975
L17.9975 47.1975
" />
<path d="M22.9975 27.3975
L23.7975 26.5975
" />
<path d="M23.7975 26.5975
L23.7975 26.1975
" />
<path d="M23.1975 30.9975
L23.1975 30.3975
" />
<path d="M15.7308 10.7975
L15.5975 19.9975
" />
<path d="M19.9975 10.7975
L20.7975 11.1975
" />
<path d="M23.5975 33.5975
L23.7975 31.7975
" />
<path d="M25.1975 27.7975
L26.3975 33.5975
" />
<path d="M24.9975 27.5975
L25.1975 27.7975
" />
<path d="M24.3975 27.3975
L24.9975 27.5975
" />
<path d="M42.9975 25.9975
L38.7975 23.9975
" />
<path d="M38.7975 23.9975
L37.5975 22.3975
" />
<path d="M44.1975 28.3975
L44.3975 28.1975
" />
<path d="M39.3975 30.7975
L44.1975 28.3975
" />
<path d="M44.3975 28.1975
L44.3975 25.1975
" />
<path d="M48.5975 36.1975
L48.7975 36.3975
" />
<path d="M43.9975 28.9975
L48.5975 36.1975
" />
<path d="M39.7975 22.3975
L40.1975 21.9975
" />
<path d="M40.1975 21.9975
L52.3975 21.9975
" />
<path d="M26.3975 36.3975
L29.1975 36.3975
" />
<path d="M25.5975 27.7975
L26.7975 30.5975
" />
<path d="M24.3975 26.7975
L25.1975 27.3975
" />
<path d="M9.5975 39.1975
L17.9975 36.3975
" />
<path d="M3.9975 25.1975
L9.5975 39.1975
" />
<path d="M26.7975 30.5975
L26.7975 35.9975
" />
<path d="M26.7975 35.9975
L26.9575 36.3975
" />
<path d="M25.1975 27.3975
L25.5975 27.7975
" />
<path d="M41.9975 26.3975
L37.5975 23.5975
" />
<path d="M34.7975 55.9975
L37.3975 52.7975
" />
<path d="M37.3975 52.7975
L40.3975 50.3975
" />
<path d="M43.3975 26.3975
L41.9975 26.3975
" />
<path d="M17.9975 44.7975
L21.1975 47.3975
" />
<path d="M15.1975 30.5975
L17.1975 30.9975
" />
<path d="M21.1975 47.3975
L23.5975 50.3975
" />
<path d="M13.3975 32.1975
L15.1975 30.5975
" />
<path d="M17.9975 8.3975
L21.1975 10.9975
" />
<path d="M12.3975 27.9975
L15.1975 30.5975
" />
<path d="M17.1975 30.9975
L17.5975 31.3975
" />
<path d="M21.1975 10.9975
L23.5975 13.9975
" />
<path d="M17.5975 31.3975
L22.3975 31.3975
" />
<path d="M18.9975 33.3975
L18.3975 33.3975
" />
<path d="M19.1975 33.1975
L18.9975 33.3975
" />
<path d="M21.7975 33.5975
L20.9975 33.1975
" />
<path d="M20.9975 33.1975
L19.1975 33.1975
" />
<path d="M18.1975 33.1975
L9.1975 33.1975
" />
<path d="M9.1975 33.1975
L8.9975 33.3975
" />
<path d="M18.3975 33.3975
L18.1975 33.1975
" />
<path d="M43.1975 30.7975
L42.5975 30.7975
" />
<path d="M42.1975 31.3975
L38.9975 31.5975
" />
<path d="M35.9975 32.3975
L35.7975 32.1975
" />
<path d="M38.9975 31.5975
L38.1975 32.3975
" />
<path d="M42.3975 31.1975
L42.1975 31.3975
" />
<path d="M38.1975 32.3975
L35.9975 32.3975
" />
<path d="M42.5975 30.7975
L42.3975 30.9975
" />
<path d="M42.3975 30.9975
L42.3975 31.1975
" />
<path d="M6.7975 27.9975
L9.5975 27.9975
" />
<path d="M12.3975 30.7975
L9.5975 27.9975
" />
<path d="M14.7975 29.5975
L14.5975 29.3975
" />
<path d="M22.7975 30.9975
L22.1975 30.5975
" />
<path d="M22.1975 30.5975
L17.9975 29.5975
" />
<path d="M17.9975 29.5975
L14.7975 29.5975
" />
<path d="M44.7975 20.5975
L43.1975 19.5975
" />
<path d="M34.7975 36.3975
L33.7975 30.5975
" />
<path d="M33.7975 30.5975
L36.1975 27.5975
" />
<path d="M36.7975 28.1975
L36.3975 28.5975
" />
<path d="M48.7975 44.7975
L45.9975 45.1975
" />
<path d="M36.1975 27.5975
L36.5975 27.5975
" />
<path d="M36.5975 27.5975
L36.7975 27.7975
" />
<path d="M39.9975 45.1975
L39.3975 44.7975
" />
<path d="M39.3975 44.7975
L37.5975 44.7975
" />
<path d="M45.9975 45.1975
L39.9975 45.1975
" />
<path d="M36.7975 27.7975
L36.7975 28.1975
" />
<path d="M12.3975 41.5975
L20.3975 41.5975
" />
<path d="M20.5975 36.7975
L23.5975 39.1975
" />
<path d="M9.5975 41.9975
L12.3975 41.5975
" />
<path d="M20.3975 41.5975
L20.7975 41.9975
" />
<path d="M17.9975 33.5975
L20.5975 36.7975
" />
<path d="M39.1975 37.3975
L37.5975 39.1975
" />
<path d="M43.9975 29.7975
L44.1975 30.3975
" />
<path d="M44.1975 30.3975
L44.1975 30.7975
" />
<path d="M40.3975 36.3975
L39.1975 37.3975
" />
<path d="M43.1975 13.9975
L45.9975 19.5975
" />
<path d="M44.1975 30.7975
L40.3975 36.3975
" />
<path d="M45.5975 36.5975
L42.2975 33.5975
" />
<path d="M48.7975 39.1975
L45.5975 36.5975
" />
<path d="M19.3975 23.9975
L16.7975 28.1975
" />
<path d="M19.3975 23.5975
L19.3975 23.9975
" />
<path d="M17.7975 20.7975
L19.1975 22.5975
" />
<path d="M17.4975 16.7975
L20.4975 22.3975
" />
<path d="M15.1975 33.5975
L12.3975 36.3975
" />
<path d="M17.5975 20.3975
L17.7975 20.7975
" />
<path d="M16.7975 28.1975
L16.3975 28.5975
" />
<path d="M19.1975 22.5975
L18.9975 22.7975
" />
<path d="M18.9975 23.1975
L19.3975 23.5975
" />
<path d="M18.9975 22.7975
L18.9975 23.1975
" />
<path d="M26.3975 19.5975
L23.5975 22.3975
" />
<path d="M37.5975 47.5975
L40.3975 47.1975
" />
<path d="M40.5975 33.9975
L36.9975 33.9975
" />
<path d="M34.7975 33.5975
L34.9975 30.9975
" />
<path d="M40.3975 47.1975
L45.1975 47.1975
" />
<path d="M34.9975 30.9975
L35.9975 28.3975
" />
<path d="M35.9975 28.3975
L36.3975 27.9975
" />
<path d="M45.1975 47.1975
L45.9975 47.5975
" />
<path d="M43.1975 10.7975
L38.3975 10.7975
" />
<path d="M47.5975 25.9975
L48.1975 26.5975
" />
<path d="M38.3975 10.7975
L37.5975 11.1975
" />
<path d="M45.9975 11.1975
L43.1975 10.7975
" />
<path d="M43.1975 22.3975
L47.5975 25.9975
" />
<path d="M40.9975 33.4975
L40.5975 33.9975
" />
<path d="M29.1975 17.9975
L29.5975 20.1975
" />
<path d="M43.3975 26.7975
L43.9975 26.7975
" />
<path d="M29.5975 20.1975
L31.9975 25.1975
" />
<path d="M48.7975 27.9975
L51.5975 27.9975
" />
<path d="M36.7975 25.7975
L39.1975 26.3975
" />
<path d="M39.1975 26.3975
L43.3975 26.7975
" />
<path d="M41.1975 43.3975
L43.1975 39.1975
" />
<path d="M48.3975 29.1975
L48.7975 30.7975
" />
<path d="M32.3975 26.3975
L31.9975 27.9975
" />
<path d="M29.6975 16.7975
L32.3975 24.9975
" />
<path d="M43.3975 27.3975
L43.9975 27.3975
" />
<path d="M48.3975 27.7975
L48.3975 29.1975
" />
<path d="M51.5975 25.1975
L48.3975 27.7975
" />
<path d="M37.9975 31.9975
L38.9975 30.7975
" />
<path d="M38.9975 30.7975
L38.9975 30.5975
" />
<path d="M40.3975 44.7975
L43.1975 41.9975
" />
<path d="M40.3975 8.3975
L37.1975 10.9975
" />
<path d="M38.9975 30.5975
L43.3975 27.3975
" />
<path d="M32.3975 24.9975
L32.3975 26.3975
" />
<path d="M37.1975 10.9975
L34.7975 13.9975
" />
<path d="M9.5975 16.7975
L14.9975 21.1975
" />
<path d="M14.9975 21.1975
L17.6975 22.3975
" />
<path d="M17.9975 41.9975
L15.1975 44.7975
" />
<path d="M23.5975 47.5975
L18.1975 41.9975
" />
<path d="M18.1975 41.9975
L17.9975 41.9975
" />
<path d="M12.3975 25.1975
L6.7975 22.3975
" />
<path d="M34.9975 17.5975
L37.5975 19.5975
" />
<path d="M31.9975 16.7975
L34.9975 17.5975
" />
<path d="M21.7975 23.7975
L19.3975 26.7975
" />
<path d="M17.9975 50.3975
L21.1975 52.9975
" />
<path d="M19.3975 26.7975
L16.5975 28.9975
" />
<path d="M29.1975 50.3975
L25.9975 52.9975
" />
<path d="M16.5975 28.9975
L16.3975 29.1975
" />
<path d="M21.1975 52.9975
L23.5975 55.9975
" />
<path d="M25.9975 52.9975
L23.2546 55.5689
" />
<path d="M26.3975 16.7975
L20.4975 19.5975
" />
<path d="M40.3975 22.3975
L40.7975 22.5975
" />
<path d="M42.9975 25.1975
L43.5975 24.5975
" />
<path d="M48.5975 31.9975
L51.5975 39.1975
" />
<path d="M43.9975 24.5975
L44.5975 24.7975
" />
<path d="M48.1975 29.9975
L48.5975 31.9975
" />
<path d="M40.7975 22.5975
L43.2975 24.8975
" />
<path d="M43.5975 24.5975
L43.9975 24.5975
" />
<path d="M44.5975 24.7975
L48.1975 29.9975
" />
<path d="M35.3975 30.9975
L36.3975 29.1975
" />
<path d="M40.3975 33.5975
L35.5975 32.5975
" />
<path d="M43.1975 16.7975
L37.7975 20.3975
" />
<path d="M35.3975 32.3975
L35.3975 30.9975
" />
<path d="M35.5975 32.5975
L35.3975 32.3975
" />
<path d="M35.5975 32.5975
L35.1975 37.5975
" />
<path d="M35.1975 37.5975
L34.7975 39.1975
" />
<path d="M42.9975 13.5975
L37.5975 13.9975
" />
<path d="M45.9975 13.5975
L42.9975 13.5975
" />
<path d="M48.7975 13.9975
L45.9975 13.5975
" />
<path d="M24.5975 25.1975
L31.3975 30.9975
" />
<path d="M21.7975 23.1975
L24.5975 25.1975
" />
<path d="M32.3975 27.5975
L32.7975 25.7975
" />
<path d="M32.7975 25.7975
L32.3975 19.3975
" />
<path d="M32.3975 30.9975
L32.3975 27.5975
" />
<path d="M32.3975 19.3975
L31.3975 16.9975
" />
<path d="M29.9975 33.7975
L32.3975 30.9975
" />
<path d="M28.9975 34.7975
L29.9975 33.7975
" />
<path d="M34.5975 39.5975
L36.8725 40.3475
" />
<path d="M29.9975 38.5975
L33.3975 38.7975
" />
<path d="M33.3975 38.7975
L34.5975 39.5975
" />
<path d="M20.7975 34.1975
L29.9975 38.5975
" />
<path d="M39.7975 22.9975
L39.7975 23.7975
" />
<path d="M37.5975 19.9975
L37.3975 20.1975
" />
<path d="M39.3975 22.5975
L39.7975 22.9975
" />
<path d="M37.9975 19.7975
L37.7975 19.9975
" />
<path d="M16.9975 16.7975
L17.1975 16.3975
" />
<path d="M17.1975 16.3975
L32.1975 16.3975
" />
<path d="M37.9975 19.3975
L37.9975 19.7975
" />
<path d="M37.3975 20.1975
L37.3975 20.5975
" />
<path d="M19.7975 21.7975
L16.9975 16.7975
" />
<path d="M35.9975 17.1975
L37.9975 19.3975
" />
<path d="M32.1975 16.3975
L34.5975 17.1975
" />
<path d="M37.7975 19.9975
L37.5975 19.9975
" />
<path d="M19.7975 23.3975
L19.7975 21.7975
" />
<path d="M38.7975 21.5975
L39.3975 22.5975
" />
<path d="M37.3975 20.5975
L38.7975 21.5975
" />
<path d="M34.5975 17.1975
L35.9975 17.1975
" />
<path d="M24.1975 24.5975
L26.1975 25.5975
" />
<path d="M26.1975 25.5975
L29.1975 25.9975
" />
<path d="M21.9975 22.7975
L24.1975 24.5975
" />
<path d="M21.5975 22.7975
L21.9975 22.7975
" />
<path d="M20.1975 23.7975
L20.7975 23.9975
" />
<path d="M21.1975 23.9975
L21.3975 23.7975
" />
<path d="M20.7975 23.9975
L21.1975 23.9975
" />
<path d="M21.3975 23.7975
L21.3975 22.9975
" />
<path d="M29.1975 25.9975
L29.9975 26.5975
" />
<path d="M21.3975 22.9975
L21.5975 22.7975
" />
<path d="M29.3725 40.3475
L26.5975 37.5975
" />
<path d="M27.1975 24.5975
L21.7975 22.3975
" />
<path d="M21.7975 22.3975
L20.9975 22.3975
" />
<path d="M20.1975 20.9975
L20.9975 22.3975
" />
<path d="M20.9975 22.3975
L20.9975 23.5975
" />
<path d="M32.9975 22.1975
L33.9975 21.7975
" />
<path d="M37.7975 21.5975
L39.3975 23.1975
" />
<path d="M33.9975 21.7975
L37.7975 21.5975
" />
<path d="M34.1975 22.1975
L37.5975 21.9975
" />
<path d="M37.7975 21.9975
L38.9975 23.5975
" />
<path d="M37.5975 21.9975
L37.7975 21.9975
" />
<path d="M14.5975 22.1975
L17.3975 22.7975
" />
<path d="M17.3975 22.7975
L18.7975 23.5975
" />
<path d="M18.7975 23.5975
L18.9975 23.7975
" />
</g>
<g style="fill:none; 
stroke:#D0D2CD; stroke-width:0.0500; stroke-opacity:1; 
stroke-linecap:round; stroke-linejoin:round;">
<circle cx="29.9975" cy="29.9975" r="30.0000" /> 
</g>
<g style="fill:#FFFFFF; fill-opacity:1.0000; stroke:none;">
<circle cx="20.7975" cy="8.3975" r="0.1000" /> 
<circle cx="20.2975" cy="44.7975" r="0.1000" /> 
<circle cx="15.1975" cy="17.9975" r="0.1000" /> 
<circle cx="9.5975" cy="44.7975" r="0.1000" /> 
<circle cx="12.3975" cy="13.9975" r="0.1000" /> 
<circle cx="24.3975" cy="26.1975" r="0.1000" /> 
<circle cx="26.3975" cy="40.0975" r="0.1000" /> 
<circle cx="18.4975" cy="30.7975" r="0.1000" /> 
<circle cx="26.3975" cy="5.5975" r="0.1000" /> 
<circle cx="22.9975" cy="25.9975" r="0.1000" /> 
<circle cx="23.5975" cy="36.3975" r="0.1000" /> 
<circle cx="12.3975" cy="50.3975" r="0.1000" /> 
<circle cx="24.3975" cy="32.3975" r="0.1000" /> 
<circle cx="24.7975" cy="27.9975" r="0.1000" /> 
<circle cx="18.7975" cy="30.1975" r="0.1000" /> 
<circle cx="26.3975" cy="8.3975" r="0.1000" /> 
<circle cx="23.3975" cy="25.5975" r="0.1000" /> 
<circle cx="15.1975" cy="20.7975" r="0.1000" /> 
<circle cx="9.5975" cy="47.5975" r="0.1000" /> 
<circle cx="12.3975" cy="11.1975" r="0.1000" /> 
<circle cx="12.3975" cy="47.5975" r="0.1000" /> 
<circle cx="3.9975" cy="33.5975" r="0.1000" /> 
<circle cx="26.3975" cy="44.7975" r="0.1000" /> 
<circle cx="20.7975" cy="11.1975" r="0.1000" /> 
<circle cx="23.5975" cy="33.5975" r="0.1000" /> 
<circle cx="20.7975" cy="47.5975" r="0.1000" /> 
<circle cx="20.7975" cy="36.3975" r="0.1000" /> 
<circle cx="26.3975" cy="33.5975" r="0.1000" /> 
<circle cx="29.1975" cy="39.1975" r="0.1000" /> 
<circle cx="24.3975" cy="27.3975" r="0.1000" /> 
<circle cx="23.5975" cy="8.3975" r="0.1000" /> 
<circle cx="12.3975" cy="22.3975" r="0.1000" /> 
<circle cx="17.9975" cy="39.1975" r="0.1000" /> 
<circle cx="15.1975" cy="11.1975" r="0.1000" /> 
<circle cx="15.1975" cy="47.5975" r="0.1000" /> 
<circle cx="9.5975" cy="36.3975" r="0.1000" /> 
<circle cx="23.5975" cy="44.7975" r="0.1000" /> 
<circle cx="6.7975" cy="19.5975" r="0.1000" /> 
<circle cx="21.9975" cy="30.9975" r="0.1000" /> 
<circle cx="16.7975" cy="31.5975" r="0.1000" /> 
<circle cx="42.9975" cy="25.9975" r="0.1000" /> 
<circle cx="40.3975" cy="17.3975" r="0.1000" /> 
<circle cx="45.9975" cy="36.3975" r="0.1000" /> 
<circle cx="48.7975" cy="22.3975" r="0.1000" /> 
<circle cx="34.7975" cy="20.7975" r="0.1000" /> 
<circle cx="51.5975" cy="33.5975" r="0.1000" /> 
<circle cx="31.9975" cy="55.9975" r="0.1000" /> 
<circle cx="43.1975" cy="33.5975" r="0.1000" /> 
<circle cx="31.9975" cy="19.5975" r="0.1000" /> 
<circle cx="40.3975" cy="53.1975" r="0.1000" /> 
<circle cx="37.5975" cy="22.3975" r="0.1000" /> 
<circle cx="29.1975" cy="25.1975" r="0.1000" /> 
<circle cx="32.7975" cy="29.9975" r="0.1000" /> 
<circle cx="43.7975" cy="30.5975" r="0.1000" /> 
<circle cx="29.1975" cy="12.3975" r="0.1000" /> 
<circle cx="43.1975" cy="44.7975" r="0.1000" /> 
<circle cx="34.7975" cy="11.1975" r="0.1000" /> 
<circle cx="40.3975" cy="41.9975" r="0.1000" /> 
<circle cx="34.7975" cy="47.5975" r="0.1000" /> 
<circle cx="45.9975" cy="25.1975" r="0.1000" /> 
<circle cx="43.1975" cy="8.3975" r="0.1000" /> 
<circle cx="48.7975" cy="33.5975" r="0.1000" /> 
<circle cx="51.5975" cy="22.3975" r="0.1000" /> 
<circle cx="37.5975" cy="33.5975" r="0.1000" /> 
<circle cx="31.9975" cy="30.7975" r="0.1000" /> 
<circle cx="43.3975" cy="27.9975" r="0.1000" /> 
<circle cx="42.7975" cy="31.1975" r="0.1000" /> 
<circle cx="36.3975" cy="31.5975" r="0.1000" /> 
<circle cx="39.3975" cy="30.7975" r="0.1000" /> 
<circle cx="44.3975" cy="25.1975" r="0.1000" /> 
<circle cx="34.7975" cy="8.3975" r="0.1000" /> 
<circle cx="48.7975" cy="36.3975" r="0.1000" /> 
<circle cx="34.7975" cy="44.7975" r="0.1000" /> 
<circle cx="43.1975" cy="47.5975" r="0.1000" /> 
<circle cx="51.5975" cy="19.5975" r="0.1000" /> 
<circle cx="37.5975" cy="36.3975" r="0.1000" /> 
<circle cx="43.1975" cy="11.1975" r="0.1000" /> 
<circle cx="45.3975" cy="14.1975" r="0.1000" /> 
<circle cx="43.9975" cy="28.9975" r="0.1000" /> 
<circle cx="45.9975" cy="22.3975" r="0.1000" /> 
<circle cx="31.9975" cy="33.5975" r="0.1000" /> 
<circle cx="29.1975" cy="11.1975" r="0.1000" /> 
<circle cx="40.3975" cy="39.1975" r="0.1000" /> 
<circle cx="41.9975" cy="30.9975" r="0.1000" /> 
<circle cx="36.1975" cy="26.3975" r="0.1000" /> 
<circle cx="36.9975" cy="29.1975" r="0.1000" /> 
<circle cx="39.7975" cy="22.3975" r="0.1000" /> 
<circle cx="52.3975" cy="21.9975" r="0.1000" /> 
<circle cx="15.1975" cy="13.9975" r="0.1000" /> 
<circle cx="9.5975" cy="39.1975" r="0.1000" /> 
<circle cx="3.9975" cy="25.1975" r="0.1000" /> 
<circle cx="20.7975" cy="39.1975" r="0.1000" /> 
<circle cx="17.9975" cy="36.3975" r="0.1000" /> 
<circle cx="15.1975" cy="50.3975" r="0.1000" /> 
<circle cx="23.5975" cy="5.5975" r="0.1000" /> 
<circle cx="29.1975" cy="36.3975" r="0.1000" /> 
<circle cx="26.3975" cy="36.3975" r="0.1000" /> 
<circle cx="12.3975" cy="19.5975" r="0.1000" /> 
<circle cx="24.3975" cy="26.7975" r="0.1000" /> 
<circle cx="23.5975" cy="40.3975" r="0.1000" /> 
<circle cx="34.7975" cy="55.9975" r="0.1000" /> 
<circle cx="51.5975" cy="30.7975" r="0.1000" /> 
<circle cx="31.9975" cy="22.3975" r="0.1000" /> 
<circle cx="45.9975" cy="33.5975" r="0.1000" /> 
<circle cx="34.7975" cy="17.9975" r="0.1000" /> 
<circle cx="40.3975" cy="50.3975" r="0.1000" /> 
<circle cx="40.3975" cy="12.3975" r="0.1000" /> 
<circle cx="48.7975" cy="25.1975" r="0.1000" /> 
<circle cx="37.5975" cy="23.5975" r="0.1000" /> 
<circle cx="29.1975" cy="22.3975" r="0.1000" /> 
<circle cx="43.1975" cy="36.3975" r="0.1000" /> 
<circle cx="43.3975" cy="26.3975" r="0.1000" /> 
<circle cx="37.9975" cy="30.7975" r="0.1000" /> 
<circle cx="46.7975" cy="32.5975" r="0.1000" /> 
<circle cx="17.9975" cy="44.7975" r="0.1000" /> 
<circle cx="23.5975" cy="13.9975" r="0.1000" /> 
<circle cx="9.5975" cy="30.7975" r="0.1000" /> 
<circle cx="17.9975" cy="8.3975" r="0.1000" /> 
<circle cx="29.1975" cy="44.7975" r="0.1000" /> 
<circle cx="13.3975" cy="32.1975" r="0.1000" /> 
<circle cx="12.3975" cy="27.9975" r="0.1000" /> 
<circle cx="23.5975" cy="50.3975" r="0.1000" /> 
<circle cx="22.3975" cy="31.3975" r="0.1000" /> 
<circle cx="26.3975" cy="27.9975" r="0.1000" /> 
<circle cx="23.9975" cy="28.9975" r="0.1000" /> 
<circle cx="15.1975" cy="41.9975" r="0.1000" /> 
<circle cx="6.7975" cy="25.1975" r="0.1000" /> 
<circle cx="22.9975" cy="29.3975" r="0.1000" /> 
<circle cx="21.7975" cy="33.5975" r="0.1000" /> 
<circle cx="8.9975" cy="33.3975" r="0.1000" /> 
<circle cx="35.7975" cy="32.1975" r="0.1000" /> 
<circle cx="43.1975" cy="30.7975" r="0.1000" /> 
<circle cx="23.3975" cy="31.7975" r="0.1000" /> 
<circle cx="17.7975" cy="30.9975" r="0.1000" /> 
<circle cx="29.1975" cy="47.5975" r="0.1000" /> 
<circle cx="23.5975" cy="16.7975" r="0.1000" /> 
<circle cx="23.5975" cy="53.1975" r="0.1000" /> 
<circle cx="9.5975" cy="27.9975" r="0.1000" /> 
<circle cx="6.7975" cy="27.9975" r="0.1000" /> 
<circle cx="17.9975" cy="47.5975" r="0.1000" /> 
<circle cx="26.3975" cy="25.1975" r="0.1000" /> 
<circle cx="15.1975" cy="39.1975" r="0.1000" /> 
<circle cx="17.9975" cy="11.1975" r="0.1000" /> 
<circle cx="12.3975" cy="30.7975" r="0.1000" /> 
<circle cx="24.3975" cy="30.1975" r="0.1000" /> 
<circle cx="14.5975" cy="29.3975" r="0.1000" /> 
<circle cx="22.7975" cy="30.9975" r="0.1000" /> 
<circle cx="34.7975" cy="36.3975" r="0.1000" /> 
<circle cx="37.5975" cy="44.7975" r="0.1000" /> 
<circle cx="45.9975" cy="13.9975" r="0.1000" /> 
<circle cx="48.7975" cy="44.7975" r="0.1000" /> 
<circle cx="37.5975" cy="8.3975" r="0.1000" /> 
<circle cx="36.3975" cy="28.5975" r="0.1000" /> 
<circle cx="31.9975" cy="5.5975" r="0.1000" /> 
<circle cx="43.1975" cy="19.5975" r="0.1000" /> 
<circle cx="54.3975" cy="30.7975" r="0.1000" /> 
<circle cx="39.8975" cy="31.0975" r="0.1000" /> 
<circle cx="45.9975" cy="50.3975" r="0.1000" /> 
<circle cx="32.4975" cy="40.3975" r="0.1000" /> 
<circle cx="44.7975" cy="20.5975" r="0.1000" /> 
<circle cx="15.1975" cy="16.7975" r="0.1000" /> 
<circle cx="20.7975" cy="41.9975" r="0.1000" /> 
<circle cx="17.9975" cy="33.5975" r="0.1000" /> 
<circle cx="12.3975" cy="16.7975" r="0.1000" /> 
<circle cx="3.9975" cy="27.9975" r="0.1000" /> 
<circle cx="9.5975" cy="41.9975" r="0.1000" /> 
<circle cx="23.5975" cy="39.1975" r="0.1000" /> 
<circle cx="26.3975" cy="39.1975" r="0.1000" /> 
<circle cx="29.1975" cy="31.9975" r="0.1000" /> 
<circle cx="23.3975" cy="26.3975" r="0.1000" /> 
<circle cx="43.9975" cy="29.7975" r="0.1000" /> 
<circle cx="48.7975" cy="39.1975" r="0.1000" /> 
<circle cx="54.3975" cy="25.1975" r="0.1000" /> 
<circle cx="29.1975" cy="8.3975" r="0.1000" /> 
<circle cx="43.1975" cy="50.3975" r="0.1000" /> 
<circle cx="34.7975" cy="5.5975" r="0.1000" /> 
<circle cx="43.1975" cy="13.9975" r="0.1000" /> 
<circle cx="40.3975" cy="36.3975" r="0.1000" /> 
<circle cx="37.5975" cy="39.1975" r="0.1000" /> 
<circle cx="45.9975" cy="19.5975" r="0.1000" /> 
<circle cx="46.1975" cy="28.7975" r="0.1000" /> 
<circle cx="35.0975" cy="40.3975" r="0.1000" /> 
<circle cx="31.9975" cy="36.3975" r="0.1000" /> 
<circle cx="16.3975" cy="28.5975" r="0.1000" /> 
<circle cx="9.5975" cy="22.3975" r="0.1000" /> 
<circle cx="17.4975" cy="16.7975" r="0.1000" /> 
<circle cx="20.4975" cy="22.3975" r="0.1000" /> 
<circle cx="18.7975" cy="49.5975" r="0.1000" /> 
<circle cx="17.9975" cy="53.1975" r="0.1000" /> 
<circle cx="6.7975" cy="33.5975" r="0.1000" /> 
<circle cx="15.1975" cy="33.5975" r="0.1000" /> 
<circle cx="26.3975" cy="19.5975" r="0.1000" /> 
<circle cx="23.5975" cy="22.3975" r="0.1000" /> 
<circle cx="26.3975" cy="55.9975" r="0.1000" /> 
<circle cx="17.5975" cy="20.3975" r="0.1000" /> 
<circle cx="12.3975" cy="36.3975" r="0.1000" /> 
<circle cx="29.1975" cy="53.1975" r="0.1000" /> 
<circle cx="20.7975" cy="30.7975" r="0.1000" /> 
<circle cx="48.7975" cy="47.5975" r="0.1000" /> 
<circle cx="48.1975" cy="26.5975" r="0.1000" /> 
<circle cx="37.5975" cy="11.1975" r="0.1000" /> 
<circle cx="45.9975" cy="47.5975" r="0.1000" /> 
<circle cx="43.1975" cy="22.3975" r="0.1000" /> 
<circle cx="45.9975" cy="11.1975" r="0.1000" /> 
<circle cx="36.3975" cy="27.9975" r="0.1000" /> 
<circle cx="40.9975" cy="33.4975" r="0.1000" /> 
<circle cx="34.7975" cy="33.5975" r="0.1000" /> 
<circle cx="31.9975" cy="8.3975" r="0.1000" /> 
<circle cx="37.5975" cy="47.5975" r="0.1000" /> 
<circle cx="54.3975" cy="33.5975" r="0.1000" /> 
<circle cx="31.9975" cy="44.7975" r="0.1000" /> 
<circle cx="36.9975" cy="33.9975" r="0.1000" /> 
<circle cx="29.1975" cy="17.9975" r="0.1000" /> 
<circle cx="41.1975" cy="43.3975" r="0.1000" /> 
<circle cx="40.3975" cy="11.1975" r="0.1000" /> 
<circle cx="36.7975" cy="25.7975" r="0.1000" /> 
<circle cx="40.3975" cy="47.5975" r="0.1000" /> 
<circle cx="51.5975" cy="27.9975" r="0.1000" /> 
<circle cx="48.7975" cy="27.9975" r="0.1000" /> 
<circle cx="43.1975" cy="39.1975" r="0.1000" /> 
<circle cx="43.9975" cy="26.7975" r="0.1000" /> 
<circle cx="34.7975" cy="16.7975" r="0.1000" /> 
<circle cx="31.9975" cy="25.1975" r="0.1000" /> 
<circle cx="45.9975" cy="30.7975" r="0.1000" /> 
<circle cx="34.7975" cy="53.1975" r="0.1000" /> 
<circle cx="43.9975" cy="27.3975" r="0.1000" /> 
<circle cx="37.9975" cy="31.9975" r="0.1000" /> 
<circle cx="34.7975" cy="50.3975" r="0.1000" /> 
<circle cx="45.9975" cy="27.9975" r="0.1000" /> 
<circle cx="51.5975" cy="25.1975" r="0.1000" /> 
<circle cx="40.3975" cy="44.7975" r="0.1000" /> 
<circle cx="29.6975" cy="16.7975" r="0.1000" /> 
<circle cx="31.9975" cy="27.9975" r="0.1000" /> 
<circle cx="43.1975" cy="41.9975" r="0.1000" /> 
<circle cx="48.7975" cy="30.7975" r="0.1000" /> 
<circle cx="34.7975" cy="13.9975" r="0.1000" /> 
<circle cx="42.5975" cy="37.3975" r="0.1000" /> 
<circle cx="40.3975" cy="8.3975" r="0.1000" /> 
<circle cx="41.3975" cy="30.9975" r="0.1000" /> 
<circle cx="29.9975" cy="32.1975" r="0.1000" /> 
<circle cx="16.9975" cy="29.1975" r="0.1000" /> 
<circle cx="27.9975" cy="11.9975" r="0.1000" /> 
<circle cx="20.7975" cy="53.1975" r="0.1000" /> 
<circle cx="16.7975" cy="26.3975" r="0.1000" /> 
<circle cx="6.7975" cy="39.1975" r="0.1000" /> 
<circle cx="26.3975" cy="13.9975" r="0.1000" /> 
<circle cx="24.5975" cy="14.1975" r="0.1000" /> 
<circle cx="26.3975" cy="50.3975" r="0.1000" /> 
<circle cx="15.1975" cy="27.9975" r="0.1000" /> 
<circle cx="20.1975" cy="20.3975" r="0.1000" /> 
<circle cx="24.0975" cy="27.9975" r="0.1000" /> 
<circle cx="9.5975" cy="16.7975" r="0.1000" /> 
<circle cx="11.9975" cy="34.7975" r="0.1000" /> 
<circle cx="12.3975" cy="41.9975" r="0.1000" /> 
<circle cx="17.6975" cy="22.3975" r="0.1000" /> 
<circle cx="19.3975" cy="30.7975" r="0.1000" /> 
<circle cx="28.6975" cy="40.3975" r="0.1000" /> 
<circle cx="15.1975" cy="44.7975" r="0.1000" /> 
<circle cx="26.3975" cy="30.7975" r="0.1000" /> 
<circle cx="17.9975" cy="41.9975" r="0.1000" /> 
<circle cx="20.7975" cy="33.5975" r="0.1000" /> 
<circle cx="23.3975" cy="27.9975" r="0.1000" /> 
<circle cx="15.1975" cy="8.3975" r="0.1000" /> 
<circle cx="23.5975" cy="47.5975" r="0.1000" /> 
<circle cx="9.5975" cy="33.5975" r="0.1000" /> 
<circle cx="12.3975" cy="25.1975" r="0.1000" /> 
<circle cx="23.5975" cy="11.1975" r="0.1000" /> 
<circle cx="6.7975" cy="22.3975" r="0.1000" /> 
<circle cx="17.3975" cy="30.5975" r="0.1000" /> 
<circle cx="18.7975" cy="32.9975" r="0.1000" /> 
<circle cx="27.1975" cy="32.9975" r="0.1000" /> 
<circle cx="34.7975" cy="25.1975" r="0.1000" /> 
<circle cx="45.9975" cy="39.1975" r="0.1000" /> 
<circle cx="37.5975" cy="55.9975" r="0.1000" /> 
<circle cx="40.3975" cy="17.9975" r="0.1000" /> 
<circle cx="31.9975" cy="53.1975" r="0.1000" /> 
<circle cx="43.9975" cy="27.9975" r="0.1000" /> 
<circle cx="31.9975" cy="16.7975" r="0.1000" /> 
<circle cx="51.5975" cy="36.3975" r="0.1000" /> 
<circle cx="37.5975" cy="19.5975" r="0.1000" /> 
<circle cx="43.3975" cy="25.5975" r="0.1000" /> 
<circle cx="48.7975" cy="19.5975" r="0.1000" /> 
<circle cx="29.1975" cy="27.9975" r="0.1000" /> 
<circle cx="23.5975" cy="30.7975" r="0.1000" /> 
<circle cx="13.3975" cy="33.9975" r="0.1000" /> 
<circle cx="44.1975" cy="31.5975" r="0.1000" /> 
<circle cx="38.5975" cy="30.5975" r="0.1000" /> 
<circle cx="20.7975" cy="12.3975" r="0.1000" /> 
<circle cx="3.9975" cy="36.3975" r="0.1000" /> 
<circle cx="20.7975" cy="50.3975" r="0.1000" /> 
<circle cx="12.3975" cy="44.7975" r="0.1000" /> 
<circle cx="15.1975" cy="25.1975" r="0.1000" /> 
<circle cx="9.5975" cy="13.9975" r="0.1000" /> 
<circle cx="24.1975" cy="30.7975" r="0.1000" /> 
<circle cx="26.3975" cy="11.1975" r="0.1000" /> 
<circle cx="17.9975" cy="23.5975" r="0.1000" /> 
<circle cx="6.7975" cy="41.9975" r="0.1000" /> 
<circle cx="22.9975" cy="25.1975" r="0.1000" /> 
<circle cx="26.3975" cy="47.5975" r="0.1000" /> 
<circle cx="12.3975" cy="33.5975" r="0.1000" /> 
<circle cx="6.7975" cy="30.7975" r="0.1000" /> 
<circle cx="17.9975" cy="50.3975" r="0.1000" /> 
<circle cx="23.5975" cy="19.5975" r="0.1000" /> 
<circle cx="9.5975" cy="25.1975" r="0.1000" /> 
<circle cx="29.1975" cy="50.3975" r="0.1000" /> 
<circle cx="17.4975" cy="13.9975" r="0.1000" /> 
<circle cx="21.7975" cy="23.7975" r="0.1000" /> 
<circle cx="15.1975" cy="36.3975" r="0.1000" /> 
<circle cx="23.5975" cy="55.9975" r="0.1000" /> 
<circle cx="26.3975" cy="22.3975" r="0.1000" /> 
<circle cx="16.3975" cy="29.1975" r="0.1000" /> 
<circle cx="17.3975" cy="39.5975" r="0.1000" /> 
<circle cx="21.3975" cy="30.9975" r="0.1000" /> 
<circle cx="17.1975" cy="23.1975" r="0.1000" /> 
<circle cx="17.9975" cy="19.5975" r="0.1000" /> 
<circle cx="26.3975" cy="16.7975" r="0.1000" /> 
<circle cx="23.8975" cy="25.1975" r="0.1000" /> 
<circle cx="6.7975" cy="36.3975" r="0.1000" /> 
<circle cx="20.7975" cy="55.9975" r="0.1000" /> 
<circle cx="9.5975" cy="19.5975" r="0.1000" /> 
<circle cx="29.1975" cy="55.9975" r="0.1000" /> 
<circle cx="20.4975" cy="19.5975" r="0.1000" /> 
<circle cx="26.3975" cy="53.1975" r="0.1000" /> 
<circle cx="12.3975" cy="39.1975" r="0.1000" /> 
<circle cx="15.1975" cy="29.1975" r="0.1000" /> 
<circle cx="16.3975" cy="27.9975" r="0.1000" /> 
<circle cx="49.5975" cy="32.9975" r="0.1000" /> 
<circle cx="37.3975" cy="30.7975" r="0.1000" /> 
<circle cx="28.6975" cy="30.7975" r="0.1000" /> 
<circle cx="48.7975" cy="16.7975" r="0.1000" /> 
<circle cx="40.3975" cy="22.3975" r="0.1000" /> 
<circle cx="45.9975" cy="41.9975" r="0.1000" /> 
<circle cx="42.9975" cy="25.1975" r="0.1000" /> 
<circle cx="51.5975" cy="39.1975" r="0.1000" /> 
<circle cx="31.9975" cy="50.3975" r="0.1000" /> 
<circle cx="34.7975" cy="27.9975" r="0.1000" /> 
<circle cx="37.5975" cy="16.7975" r="0.1000" /> 
<circle cx="37.5975" cy="53.1975" r="0.1000" /> 
<circle cx="31.9975" cy="13.9975" r="0.1000" /> 
<circle cx="37.5975" cy="5.5975" r="0.1000" /> 
<circle cx="48.7975" cy="41.9975" r="0.1000" /> 
<circle cx="37.5975" cy="41.9975" r="0.1000" /> 
<circle cx="34.7975" cy="39.1975" r="0.1000" /> 
<circle cx="54.3975" cy="27.9975" r="0.1000" /> 
<circle cx="40.3975" cy="33.5975" r="0.1000" /> 
<circle cx="45.3975" cy="36.9975" r="0.1000" /> 
<circle cx="43.1975" cy="53.1975" r="0.1000" /> 
<circle cx="36.3975" cy="29.1975" r="0.1000" /> 
<circle cx="45.9975" cy="16.7975" r="0.1000" /> 
<circle cx="29.1975" cy="5.5975" r="0.1000" /> 
<circle cx="43.1975" cy="16.7975" r="0.1000" /> 
<circle cx="31.9975" cy="39.1975" r="0.1000" /> 
<circle cx="37.7975" cy="20.3975" r="0.1000" /> 
<circle cx="41.7975" cy="33.5975" r="0.1000" /> 
<circle cx="43.7975" cy="24.9975" r="0.1000" /> 
<circle cx="37.5975" cy="13.9975" r="0.1000" /> 
<circle cx="48.7975" cy="13.9975" r="0.1000" /> 
<circle cx="31.9975" cy="11.1975" r="0.1000" /> 
<circle cx="51.5975" cy="41.9975" r="0.1000" /> 
<circle cx="54.3975" cy="36.3975" r="0.1000" /> 
<circle cx="34.2975" cy="30.7975" r="0.1000" /> 
<circle cx="45.9975" cy="44.7975" r="0.1000" /> 
<circle cx="31.9975" cy="47.5975" r="0.1000" /> 
<circle cx="37.5975" cy="50.3975" r="0.1000" /> 
<circle cx="36.7975" cy="26.3975" r="0.1000" /> 
<circle cx="40.5975" cy="22.9975" r="0.1000" /> 
<circle cx="40.7975" cy="20.1975" r="0.1000" /> 
<circle cx="35.7975" cy="17.5975" r="0.1000" /> 
<circle cx="35.5975" cy="27.5975" r="0.1000" /> 
<circle cx="34.3725" cy="40.3475" r="0.1000" /> 
<circle cx="28.5975" cy="27.9975" r="0.1000" /> 
<circle cx="18.8975" cy="25.8975" r="0.1000" /> 
<circle cx="19.7037" cy="32.0475" r="0.1000" /> 
<circle cx="19.7475" cy="34.7975" r="0.1000" /> 
<circle cx="39.4225" cy="45.3475" r="0.1000" /> 
<circle cx="29.5475" cy="33.6037" r="0.1000" /> 
<circle cx="19.7475" cy="37.4975" r="0.1000" /> 
<circle cx="48.1975" cy="23.4975" r="0.1000" /> 
<circle cx="28.8475" cy="23.3913" r="0.1000" /> 
<circle cx="18.8975" cy="28.0975" r="0.1000" /> 
<circle cx="28.1975" cy="23.4975" r="0.1000" /> 
<circle cx="41.0475" cy="20.6913" r="0.1000" /> 
<circle cx="29.9037" cy="14.3475" r="0.1000" /> 
<circle cx="36.9975" cy="14.4975" r="0.1000" /> 
<circle cx="21.0475" cy="20.6913" r="0.1000" /> 
<circle cx="35.8037" cy="31.1475" r="0.1000" /> 
<circle cx="39.7037" cy="32.0475" r="0.1000" /> 
<circle cx="29.9725" cy="19.9975" r="0.1000" /> 
<circle cx="39.7475" cy="37.4975" r="0.1000" /> 
<circle cx="29.9336" cy="30.4225" r="0.1000" /> 
<circle cx="19.5975" cy="25.8975" r="0.1000" /> 
<circle cx="39.5975" cy="28.0975" r="0.1000" /> 
<circle cx="16.9975" cy="14.4975" r="0.1000" /> 
<circle cx="23.7287" cy="42.4975" r="0.1000" /> 
<circle cx="38.8975" cy="25.8975" r="0.1000" /> 
<circle cx="38.8975" cy="28.0975" r="0.1000" /> 
<circle cx="22.9975" cy="14.4975" r="0.1000" /> 
<circle cx="36.2287" cy="42.4975" r="0.1000" /> 
<circle cx="24.3475" cy="24.1037" r="0.1000" /> 
<circle cx="44.0913" cy="23.8475" r="0.1000" /> 
<circle cx="18.8975" cy="26.5975" r="0.1000" /> 
<circle cx="28.8475" cy="26.3913" r="0.1000" /> 
<circle cx="39.5975" cy="25.8975" r="0.1000" /> 
<circle cx="18.2475" cy="20.6913" r="0.1000" /> 
<circle cx="42.9975" cy="14.4975" r="0.1000" /> 
<circle cx="21.9725" cy="45.3475" r="0.1000" /> 
<circle cx="39.7475" cy="34.7975" r="0.1000" /> 
<circle cx="15.8037" cy="31.1475" r="0.1000" /> 
<circle cx="38.2475" cy="20.6913" r="0.1000" /> 
<circle cx="31.3975" cy="30.9975" r="0.1000" /> 
<circle cx="21.7975" cy="23.1975" r="0.1000" /> 
<circle cx="32.9975" cy="17.5975" r="0.1000" /> 
<circle cx="27.3975" cy="17.1975" r="0.1000" /> 
<circle cx="31.3975" cy="19.3975" r="0.1000" /> 
<circle cx="28.9975" cy="34.7975" r="0.1000" /> 
<circle cx="31.3975" cy="16.9975" r="0.1000" /> 
<circle cx="15.9975" cy="30.1975" r="0.1000" /> 
<circle cx="20.3975" cy="31.9975" r="0.1000" /> 
<circle cx="36.8725" cy="40.3475" r="0.1000" /> 
<circle cx="20.7975" cy="34.1975" r="0.1000" /> 
<circle cx="30.1975" cy="30.9975" r="0.1000" /> 
<circle cx="39.7975" cy="23.7975" r="0.1000" /> 
<circle cx="33.1225" cy="40.3475" r="0.1000" /> 
<circle cx="19.7975" cy="23.3975" r="0.1000" /> 
<circle cx="38.5975" cy="17.7975" r="0.1000" /> 
<circle cx="35.3975" cy="20.5975" r="0.1000" /> 
<circle cx="40.1975" cy="23.3975" r="0.1000" /> 
<circle cx="29.9975" cy="26.5975" r="0.1000" /> 
<circle cx="20.1975" cy="23.7975" r="0.1000" /> 
<circle cx="31.8725" cy="40.3475" r="0.1000" /> 
<circle cx="26.5975" cy="37.5975" r="0.1000" /> 
<circle cx="29.3725" cy="40.3475" r="0.1000" /> 
<circle cx="20.1975" cy="20.9975" r="0.1000" /> 
<circle cx="27.1975" cy="24.5975" r="0.1000" /> 
<circle cx="20.9975" cy="23.5975" r="0.1000" /> 
<circle cx="28.1225" cy="40.3475" r="0.1000" /> 
<circle cx="32.9975" cy="22.1975" r="0.1000" /> 
<circle cx="29.5975" cy="23.1975" r="0.1000" /> 
<circle cx="39.3975" cy="23.1975" r="0.1000" /> 
<circle cx="19.3975" cy="22.9975" r="0.1000" /> 
<circle cx="21.5975" cy="18.5975" r="0.1000" /> 
<circle cx="25.7975" cy="19.5975" r="0.1000" /> 
<circle cx="34.1975" cy="20.9975" r="0.1000" /> 
<circle cx="40.9975" cy="23.7975" r="0.1000" /> 
<circle cx="24.3725" cy="40.8475" r="0.1000" /> 
<circle cx="36.9975" cy="22.5975" r="0.1000" /> 
<circle cx="28.5975" cy="38.9975" r="0.1000" /> 
<circle cx="34.1975" cy="22.1975" r="0.1000" /> 
<circle cx="38.9975" cy="23.5975" r="0.1000" /> 
<circle cx="18.9975" cy="23.7975" r="0.1000" /> 
<circle cx="14.5975" cy="22.1975" r="0.1000" /> 
<circle cx="20.7975" cy="20.1975" r="0.1000" /> 
<circle cx="20.5975" cy="23.1975" r="0.1000" /> 
</g> 
</svg>
