<svg xmlns="http://www.w3.org/2000/svg" width="1100" height="750" viewBox="0 0 1100 750">
<rect width="1100" height="750" fill="#f5f7fa"/>
<style>text{font-family:Arial,sans-serif;fill:#172c42} .h{font-size:23px;font-weight:bold}.s{font-size:16px}.sm{font-size:14px}.dim{stroke:#50667d;stroke-width:1.3}.load{stroke:#df790d;stroke-width:3;fill:none}</style>
<text x="35" y="42" class="h">R5-CABLE-HARDWARE01 / conditional component screen</text>
<text x="35" y="69" class="s">Original catalogue-envelope illustration. No cable route or assembly release.</text>
<circle cx="205" cy="216" r="63.5" fill="#d5e6f2" stroke="#254c6e" stroke-width="2"/>
<circle cx="205" cy="216" r="54.00039999999999" fill="none" stroke="#548ca8" stroke-width="2" stroke-dasharray="5 4"/>
<circle cx="205" cy="216" r="9.524999999999999" fill="white" stroke="#254c6e"/>
<text x="55" y="112" class="h">2037 + SP3106</text>
<text x="55" y="325" class="s">OD 31.75 / root 27.0002 mm</text>
<text x="55" y="350" class="s">wire d 0.9652 mm / ratio 27.974</text>
<text x="55" y="375" class="s">bearing width 6.3500 mm</text>
<text x="55" y="400" class="s">bore 4.7625 +/- 0.0127 mm (legacy)</text>
<text x="55" y="431" class="s">conditional tension ceiling 64.77 N *</text>
<circle cx="720" cy="216" r="76.19999999999999" fill="#d5e6f2" stroke="#254c6e" stroke-width="2"/>
<circle cx="720" cy="216" r="63.5" fill="none" stroke="#548ca8" stroke-width="2" stroke-dasharray="5 4"/>
<circle cx="720" cy="216" r="12.7" fill="white" stroke="#254c6e"/>
<text x="570" y="112" class="h">2050 + SP4125</text>
<text x="570" y="325" class="s">OD 38.10 / root 31.7500 mm</text>
<text x="570" y="350" class="s">wire d 1.1938 mm / ratio 26.596</text>
<text x="570" y="375" class="s">bearing width 7.1374 mm</text>
<text x="570" y="400" class="s">bore 6.3500 +/- 0.0127 mm (legacy)</text>
<text x="570" y="431" class="s">conditional tension ceiling 109.29 N *</text>
<line x1="40" y1="454" x2="1060" y2="454" class="dim"/>
<text x="35" y="482" class="s">* B x 0.91 / 10 with ideal terminal retention; actual permitted tension is NOT yet established.</text>
<text x="35" y="510" class="s">Legacy full-tolerance D/d falls below 25 for both pairs. OD/process confirmation is required.</text>
<text x="35" y="538" class="s">SP4125 bearing and nylon widths are nominally equal: never clamp the rotating nylon faces.</text>
<text x="35" y="566" class="s">Inner-race-only spacers, forks, axle retention, thimble loops and anti-derailment guards remain TBD.</text>
<path d="M165 707 L165 637 A43 43 0 0 1 251 637 L251 707" class="load"/>
<circle cx="208" cy="637" r="35" fill="none" stroke="#254c6e" stroke-width="2"/>
<text x="117" y="722" class="s">T</text><text x="270" y="722" class="s">T</text>
<text x="350" y="617" class="s">180-degree cable turnaround: axle force = 2T, not T.</text>
<text x="350" y="645" class="s">Legacy 90 lbf = 400.34 N radial rating at 500 rpm;</text>
<text x="350" y="673" class="s">2500 h average-life basis is not 1 Hz reversing-cable life.</text>
<text x="350" y="716" class="sm">No pulley mass, friction, stiffness or endurance value is invented.</text></svg>
